<?xml version="1.0" encoding="UTF-8"?>
<svg id="Capa_1" xmlns="http://www.w3.org/2000/svg" viewBox="0 0 157.81 134.65">
  <defs>
    <style>
      .cls-1 {
        fill: #1d1d1b;
      }
    </style>
  </defs>
  <g>
    <path class="cls-1" d="M86.13,93.33c-.1-.11.42-.77,1.22-1.41.8-.65,1.56-1.02,1.64-.9.09.13-.52.69-1.3,1.32-.78.63-1.46,1.1-1.56.99Z"/>
    <path class="cls-1" d="M81.7,93.57c-.03-.14,1.09-.53,2.54-.64,1.45-.11,2.62.09,2.61.24-.01.15-1.16.19-2.56.3-1.4.11-2.55.25-2.58.1Z"/>
    <path class="cls-1" d="M76.52,90.08c.07-.04.27.25.69.58.42.33,1.08.67,1.87.97.79.3,1.54.62,2.01.97.48.35.67.67.62.72-.06.06-.33-.15-.82-.39-.48-.25-1.2-.49-2.01-.79-.82-.31-1.53-.75-1.93-1.2-.41-.45-.49-.83-.43-.86Z"/>
    <path class="cls-1" d="M81.59,86.72s.04-.15.27-.23c.23-.08.58-.04.93.11.69.33,1.53.84,2.49,1.42,1.9,1.16,3.37,2.21,3.29,2.33-.08.13-1.68-.71-3.58-1.87-.95-.57-1.8-1.15-2.38-1.53-.6-.4-.99-.18-1.03-.22Z"/>
    <path class="cls-1" d="M76.74,90.26c-.1-.11.83-1.06,2.15-2.01,1.32-.95,2.52-1.51,2.59-1.39.08.13-.98.9-2.28,1.83-1.3.93-2.37,1.68-2.47,1.56Z"/>
    <path class="cls-1" d="M78.87,88.6c-.08-.03.07-.5-.02-1.23-.08-.73-.49-1.73-1.44-2.32-.95-.62-1.99-.85-2.74-.94-.76-.09-1.24-.06-1.25-.14-.01-.06.46-.23,1.27-.24.8,0,1.96.18,3.02.87.53.34.96.83,1.2,1.34.24.5.33,1,.33,1.42,0,.84-.31,1.29-.36,1.26Z"/>
    <path class="cls-1" d="M78.43,89.83c-.08,0-.1-.48-.15-1.23-.06-.73-.16-1.8-.89-2.58-.74-.77-1.79-1-2.51-1.17-.73-.16-1.2-.24-1.2-.32,0-.07.48-.12,1.25-.06.75.08,1.93.24,2.85,1.18.9.97.92,2.21.88,2.95-.05.78-.17,1.24-.24,1.23Z"/>
    <path class="cls-1" d="M78.73,86.62c-.1-.11.51-.8,1.5-1.34.98-.54,1.89-.69,1.93-.55.05.15-.75.51-1.67,1.03-.93.51-1.66.98-1.76.86Z"/>
    <path class="cls-1" d="M83.36,85.02c.14-.03.37.38.4.94.04.56-.12,1-.27.98-.15-.01-.24-.44-.27-.95-.03-.51,0-.94.14-.98Z"/>
    <path class="cls-1" d="M78.88,81.55c-.02-.06.27-.25.82-.27.54-.02,1.31.18,1.97.7.65.52,1.04,1.15,1.27,1.61.23.47.3.78.23.82-.16.09-.72-1.08-1.84-2-.56-.44-1.19-.67-1.65-.75-.47-.08-.78-.03-.8-.11Z"/>
    <path class="cls-1" d="M74.11,83.99c-.07-.13.79-.76,1.92-1.41,1.13-.65,2.11-1.07,2.19-.94.07.13-.79.76-1.92,1.41-1.13.65-2.11,1.07-2.19.94Z"/>
    <path class="cls-1" d="M67.13,88.93c-.09-.11,1.17-1.3,2.95-2.47,1.78-1.18,3.37-1.87,3.43-1.74.07.14-1.38,1.04-3.13,2.2-1.75,1.16-3.15,2.14-3.25,2.02Z"/>
    <path class="cls-1" d="M72.11,91.75c-.1-.11.29-.64.94-1.11.65-.47,1.27-.69,1.34-.56.08.13-.4.55-1.02,1-.62.45-1.16.79-1.26.67Z"/>
    <path class="cls-1" d="M71.65,88.89c-.1-.12.63-.86,1.61-1.67.98-.81,1.86-1.37,1.95-1.25.1.12-.63.86-1.61,1.67-.98.81-1.86,1.37-1.95,1.25Z"/>
    <path class="cls-1" d="M70.9,88.97c-.1-.12.31-.61.91-1.1.6-.49,1.16-.8,1.26-.68.1.12-.31.61-.91,1.1-.6.49-1.16.8-1.26.68Z"/>
    <path class="cls-1" d="M89.61,93.56c-.15.01-.32-.57-.38-1.3-.06-.73.01-1.33.16-1.35.15-.01.32.57.38,1.3s-.01,1.33-.16,1.35Z"/>
    <ellipse class="cls-1" cx="87.21" cy="93.37" rx=".27" ry="1.92" transform="translate(-6.74 179.95) rotate(-89.62)"/>
    <path class="cls-1" d="M108.98,105.41c-.08.07-.83-.97-2.27-2.38-.73-.68-1.69-1.41-2.95-1.8-.63-.21-1.33-.37-2.03-.67-.7-.29-1.37-.68-2.04-1.09-2.67-1.61-5.06-3.1-6.78-4.2-1.72-1.1-2.77-1.81-2.73-1.88.04-.06,1.15.53,2.93,1.55,1.77,1.01,4.2,2.45,6.86,4.06.66.4,1.31.78,1.97,1.06.65.29,1.33.46,1.98.69,1.33.44,2.34,1.26,3.06,2,.72.75,1.21,1.42,1.54,1.89.33.47.49.74.46.77Z"/>
    <path class="cls-1" d="M97.79,112.15c-.04-.07.57-.47,1.47-1.21.91-.73,2.08-1.86,3.5-3,.71-.56,1.44-1.06,2.14-1.43.71-.38,1.39-.6,1.9-.84,1.09-.45,1.31-1.19,1.38-1.16.03,0,.04.21-.13.52-.16.32-.54.69-1.07.98-.53.3-1.18.56-1.84.94-.66.38-1.35.87-2.05,1.42-1.39,1.11-2.62,2.21-3.61,2.88-.98.68-1.67.96-1.71.9Z"/>
    <path class="cls-1" d="M108.82,108.97c-.15,0-.31-1.01-.35-2.28-.04-1.23.07-2.42.1-2.01.03-.01,0,.02.03-.06,0-.05.01-.14.1-.09.08.04.11.17.12.25.01.08.03.18.05.28.06.41.11.98.13,1.61.04,1.26-.05,2.29-.2,2.29Z"/>
    <path class="cls-1" d="M99.35,115.67s.38-.58,1.18-1.3c.81-.73,2.01-1.63,3.39-2.54,1.37-.89,2.62-1.7,3.52-2.29.89-.59,1.44-.97,1.5-.91.05.05-.42.54-1.27,1.22-.84.68-2.08,1.53-3.45,2.43-1.37.9-2.59,1.74-3.44,2.38-.86.64-1.37,1.06-1.43,1.01Z"/>
    <path class="cls-1" d="M99.92,115.58c-.15,0-.26-.91-.25-2.05.01-1.14.14-2.05.29-2.04s.26.93.25,2.05c-.01,1.12-.14,2.04-.29,2.04Z"/>
    <path class="cls-1" d="M97.54,115.54c.11-.11.55.13,1.13.1.58,0,1-.28,1.12-.18.13.08-.28.7-1.1.72-.82.03-1.27-.55-1.15-.64Z"/>
    <path class="cls-1" d="M97.38,116.79c-.15,0-.28-1.06-.3-2.34-.01-1.29.1-2.34.25-2.35.15,0,.28,1.04.3,2.34.01,1.3-.1,2.36-.25,2.35Z"/>
    <path class="cls-1" d="M59.95,105.94c.07,0-.19,1.11-.05,3.11.15,1.96.78,4.94,3.01,7.75,1.11,1.38,2.6,2.7,4.45,3.67,1.84,1,4.05,1.49,6.4,1.74,1.18.12,2.4.24,3.63.32,1.23.08,2.5.09,3.73-.18,1.23-.26,2.42-.8,3.59-1.42,1.17-.63,2.37-1.28,3.54-1.98,2.35-1.39,4.53-2.97,6.12-4.96,1.58-1.98,2.5-4.4,2.51-6.71-.01-1.15-.24-2.28-.72-3.27-.47-.99-1.15-1.84-1.88-2.58-1.47-1.49-3.09-2.63-4.66-3.47-3.16-1.7-6.08-2.23-8.06-2.42-1-.08-1.78-.09-2.31-.08-.53.01-.81.01-.81,0s.27-.05.81-.1c.53-.04,1.32-.07,2.33-.02,2.01.13,4.98.6,8.22,2.29,1.61.84,3.27,1.98,4.8,3.49.76.76,1.47,1.64,1.99,2.69.52,1.05.77,2.25.79,3.47,0,2.45-.95,4.98-2.6,7.05-1.65,2.08-3.89,3.7-6.26,5.1-1.19.71-2.38,1.35-3.57,1.99-1.19.63-2.42,1.2-3.74,1.47-1.31.27-2.62.25-3.87.17-1.25-.09-2.46-.21-3.66-.34-2.37-.26-4.66-.79-6.56-1.84-1.9-1.02-3.42-2.39-4.54-3.83-2.26-2.92-2.83-5.98-2.92-7.98-.04-1.01.03-1.8.1-2.33.03-.26.08-.46.1-.6.03-.13.05-.2.06-.2Z"/>
    <path class="cls-1" d="M97.37,111.85s.34-.34.73-1.06c.39-.72.68-1.92.48-3.39-.16-1.47-.81-3.14-1.82-4.83-1-1.69-2.4-3.37-4.18-4.76-1.78-1.4-3.75-2.35-5.63-2.91-1.88-.56-3.66-.75-5.15-.73-1.49-.02-2.68.27-3.51.38-.83.13-1.3.18-1.3.14,0-.04.44-.16,1.27-.35.82-.17,2.01-.53,3.54-.56,1.52-.07,3.35.08,5.3.64,1.94.55,3.99,1.52,5.82,2.97,1.84,1.44,3.28,3.19,4.28,4.94,1,1.74,1.65,3.5,1.77,5.04.16,1.54-.21,2.81-.68,3.53-.23.36-.46.61-.63.76-.17.14-.27.21-.28.2Z"/>
    <path class="cls-1" d="M96.71,116.9c-.14.03-.46-1.03-.52-2.39-.06-1.35.16-2.44.3-2.42.15.01.18,1.09.24,2.4.06,1.31.13,2.39-.03,2.41Z"/>
    <path class="cls-1" d="M96.08,116.67c-.15,0-.24-.92-.32-2.03-.08-1.11-.12-2.03.03-2.05.15-.03.43.87.51,2.02.08,1.15-.07,2.07-.22,2.07Z"/>
    <path class="cls-1" d="M81.58,125.23c0-.1,1.04-.01,2.63-.43,1.59-.4,3.65-1.41,5.78-2.76,2.16-1.32,3.98-2.7,5.09-3.91,1.13-1.19,1.62-2.11,1.7-2.07.05.02-.32,1.02-1.41,2.32-1.07,1.32-2.92,2.78-5.09,4.12-2.15,1.37-4.3,2.37-5.98,2.68-.83.17-1.52.2-1.99.17-.47-.02-.73-.08-.73-.12Z"/>
    <path class="cls-1" d="M82.27,127.87c-.15-.02-.15-.94-.23-2.05-.08-1.11-.21-2.02-.06-2.06.14-.04.52.85.6,2.02.09,1.18-.17,2.11-.31,2.09Z"/>
    <path class="cls-1" d="M80.98,128.94c.09-.13.3-.14.51-.23.22-.07.39-.19.54-.15.15.03.1.49-.36.66-.46.17-.8-.16-.7-.28Z"/>
    <path class="cls-1" d="M80.61,125.21c.15-.02.37.72.49,1.65.12.93.1,1.7-.04,1.72-.15.02-.37-.72-.49-1.65-.12-.93-.1-1.7.04-1.72Z"/>
    <path class="cls-1" d="M71.3,134.09c.03-.09.61.28,1.57.18.47-.05,1-.26,1.53-.64.53-.37,1.06-.88,1.67-1.39,2.41-2.02,4.66-3.23,4.73-3.1.08.13-2.01,1.53-4.38,3.52-.59.49-1.14,1-1.74,1.38-.59.39-1.24.61-1.79.61-1.11,0-1.64-.53-1.6-.57Z"/>
    <path class="cls-1" d="M74.43,132.31c.15-.02.34.43.42,1.01.02.15.03.29.04.41,0,.11.03.27-.06.44-.04.07-.12.12-.16.11-.04,0-.05-.05-.05-.1,0-.02,0-.05,0-.08-.06-.05-.03-.05-.04-.06,0,0-.01,0-.03-.01-.02,0-.08-.01-.08.02-.01.03.03.03.01-.02-.02-.01-.13-.37-.16-.64-.09-.58-.03-1.07.11-1.09Z"/>
    <path class="cls-1" d="M72.1,131.83c.15-.01.32.56.3,1.28-.02.72-.24,1.28-.38,1.25-.15-.02-.18-.59-.16-1.27.02-.68.09-1.24.24-1.26Z"/>
    <path class="cls-1" d="M56.67,122.91c.06-.05.79.69,2.12,1.74,1.35,1.02,3.21,2.44,5.27,4,2.05,1.58,3.89,3.02,5.26,4.02,1.36,1.01,2.22,1.6,2.18,1.67-.04.06-.98-.42-2.4-1.35-1.43-.93-3.32-2.32-5.37-3.9-2.05-1.59-3.91-3-5.19-4.14-1.28-1.13-1.93-1.99-1.87-2.03Z"/>
    <path class="cls-1" d="M58.35,125.56c0,.07-.45.01-.82-.51-.4-.51-.46-1.43-.36-2.27.15-1.72.4-3.09.55-3.08s.15,1.41,0,3.13c-.1.86-.09,1.57.15,2.03.21.47.53.64.49.71Z"/>
    <path class="cls-1" d="M55.93,123.64c-.15-.01-.18-1.17-.29-2.58-.1-1.41-.24-2.56-.09-2.59.14-.03.53,1.09.64,2.55.11,1.46-.11,2.63-.25,2.62Z"/>
    <path class="cls-1" d="M58.59,126.4c-.11.1-.71-.35-1.34-1.02-.63-.66-1.05-1.29-.94-1.39s.71.35,1.34,1.02,1.05,1.29.94,1.39Z"/>
    <path class="cls-1" d="M56.99,117.29c.03-.07.21-.07.47.03.25.1.62.33.82.78.2.48.02.95-.21,1.17-.25.23-.48.18-.49.12-.02-.08.11-.17.18-.35.08-.17.12-.47.01-.73-.25-.55-.87-.88-.78-1.02Z"/>
    <path class="cls-1" d="M55.33,118.08c-.07-.13.17-.4.54-.59.37-.19.72-.24.79-.1.07.13-.17.4-.54.59-.37.19-.72.24-.79.1Z"/>
    <path class="cls-1" d="M47.49,111.79c.1-.12,1.82,1.19,3.99,2.71,2.19,1.5,3.95,2.78,3.85,2.91-.09.11-1.95-.95-4.16-2.46-2.2-1.54-3.77-3.04-3.68-3.15Z"/>
    <path class="cls-1" d="M47,115.9c.11-.11,1.72,1.45,3.86,3.16,2.13,1.72,3.99,2.96,3.91,3.09-.07.12-2.09-.92-4.25-2.67-2.17-1.74-3.62-3.49-3.52-3.58Z"/>
    <path class="cls-1" d="M46.83,112.07c-.03-.15.25-.33.53-.58.28-.24.5-.5.64-.45.14.04.12.51-.28.86-.4.35-.87.32-.89.17Z"/>
    <path class="cls-1" d="M47.28,117.51c-.15,0-.32-1.21-.39-2.7-.06-1.49,0-2.71.15-2.72.15-.01.32,1.2.39,2.7.06,1.5,0,2.72-.15,2.72Z"/>
    <path class="cls-1" d="M45.13,114.73c.15,0,.28.67.81,1.26.51.61,1.15.84,1.12.99,0,.15-.88.13-1.54-.64-.66-.76-.54-1.64-.39-1.62Z"/>
    <path class="cls-1" d="M45.34,116.06c-.15,0-.35-1.14-.44-2.57s-.05-2.59.1-2.6c.15,0,.35,1.14.44,2.57s.05,2.59-.1,2.6Z"/>
    <path class="cls-1" d="M45.76,111.25c.11-.1.39.03.63.29.24.26.34.56.23.66-.11.1-.39-.03-.63-.29-.24-.26-.34-.56-.23-.66Z"/>
    <path class="cls-1" d="M56.18,118.47c.11-.11.38,0,.61.23.23.23.33.51.23.61s-.38,0-.61-.23-.33-.51-.23-.61Z"/>
    <path class="cls-1" d="M47.76,110.98c-.02-.07-.04-.17-.15-.21-.03,0-.09,0-.21.01-.12.02-.3.06-.47.08-.69.09-1.27.04-1.29-.11s.53-.34,1.22-.43c.18-.02.33-.04.51-.04.18,0,.41.05.53.23.1.16.08.33.01.41-.07.09-.14.07-.16.04Z"/>
    <path class="cls-1" d="M42.62,109.37c.07-.13.65.04,1.18.52.53.49.75,1.05.63,1.13-.13.08-.52-.29-1-.73-.47-.44-.88-.79-.81-.93Z"/>
    <path class="cls-1" d="M42.16,112.59c.09-.12.8.26,1.52.92.72.67,1.15,1.35,1.04,1.44-.11.1-.71-.4-1.41-1.04-.69-.64-1.24-1.2-1.15-1.32Z"/>
    <path class="cls-1" d="M80.49,124.46c-.05-.14.04-.31.2-.37.17-.07.34,0,.4.14.05.14-.04.31-.2.37-.17.07-.34,0-.4-.14Z"/>
    <path class="cls-1" d="M72.01,129.97c.01-.1.59.07,1.41-.03.41-.05.81-.3,1.24-.69.45-.39.94-.81,1.46-1.26,2.09-1.76,3.86-3.1,3.95-2.98.1.11-1.52,1.64-3.6,3.4-.53.44-1.03.85-1.49,1.23-.45.38-1.02.69-1.52.69-.97,0-1.46-.32-1.45-.36Z"/>
    <path class="cls-1" d="M74,133.4c-.15.02-.39-.76-.39-1.75,0-.99.24-1.77.38-1.75.15.02.16.8.16,1.75,0,.95,0,1.73-.16,1.75Z"/>
    <path class="cls-1" d="M58.14,119.37c.05-.06.83.51,2.05,1.48,1.22.97,2.88,2.33,4.69,3.86,1.81,1.52,3.41,2.97,4.64,3.91,1.21.96,2.02,1.48,1.98,1.55-.03.06-.92-.34-2.21-1.24-1.3-.88-2.94-2.27-4.76-3.8-1.82-1.53-3.44-2.95-4.6-3.99-1.16-1.04-1.85-1.71-1.8-1.77Z"/>
    <path class="cls-1" d="M38.92,104.5c-.07-.03.26-.46.99-.39.7.07,1.5.48,2.3,1.04.8.57,1.4,1.31,1.62,1.93.24.62.17,1.05.11,1.05-.09.01-.15-.37-.45-.88-.28-.51-.84-1.12-1.59-1.66-.75-.52-1.49-.97-2.04-1.1-.56-.15-.88.08-.93.01Z"/>
    <path class="cls-1" d="M38.54,104.46c-.06-.07.38-.31.96-.05.54.23,1.21.62,1.91,1.13,1.4,1.03,2.27,2.15,2.16,2.25-.11.11-1.13-.82-2.48-1.81-.67-.49-1.32-.93-1.76-1.23-.44-.29-.75-.23-.79-.29Z"/>
    <path class="cls-1" d="M42.42,109.47c-.08-.13.24-.48.73-.8.24-.16.48-.28.67-.34l1.2-.4-.95.68c-.16.11-.28.16-.34.11s-.04-.18.05-.35l.25.28c-.13.15-.33.32-.58.47-.48.32-.94.47-1.02.34Z"/>
    <path class="cls-1" d="M41.72,108.95s-.12-.31-.39-.81c-.27-.49-.78-1.19-1.67-1.64-.44-.22-.98-.37-1.56-.38-.29,0-.59.02-.89.08-.28.07-.65.17-.78.32-.13.12-.12.5-.12.84.01.35.06.7.13,1.05.14.71.39,1.44.69,2.17.29.72.65,1.39,1.18,1.82.52.44,1.2.55,1.81.39.61-.15,1.11-.55,1.35-1.04.25-.5.3-1.05.24-1.54-.13-.99-.65-1.69-.99-2.14-.35-.46-.57-.7-.54-.73.02-.02.29.16.71.59.39.43,1,1.12,1.2,2.22.1.54.08,1.18-.21,1.8-.29.62-.9,1.13-1.63,1.32-.72.21-1.63.08-2.27-.46-.65-.53-1.04-1.28-1.35-2.03-.3-.75-.56-1.5-.71-2.27-.07-.38-.12-.76-.13-1.14,0-.19,0-.37.02-.57.02-.19.07-.44.25-.63.38-.34.72-.35,1.06-.44.34-.07.68-.09,1-.07.65.04,1.24.23,1.72.5.97.55,1.46,1.34,1.68,1.89.23.56.23.9.2.9Z"/>
    <path class="cls-1" d="M38.99,107.66s-.1-.16-.35-.3c-.23-.14-.72-.21-1.08.1-.79.62-.61,2.59.77,3.41.65.41,1.52.33,1.76-.25.26-.57.04-1.24-.3-1.62-.33-.41-.72-.66-.97-.85-.26-.19-.4-.3-.38-.33.02-.03.19.02.48.15.29.14.72.34,1.15.78.42.42.8,1.22.46,2.08-.17.42-.62.77-1.11.82-.48.06-.96-.06-1.38-.31-1.68-1.02-1.85-3.37-.73-4.18.58-.4,1.19-.2,1.44.03.27.25.25.48.23.48Z"/>
    <path class="cls-1" d="M36.42,106.44c-.09-.12.37-.62,1.03-1.12.66-.5,1.27-.81,1.36-.69.09.12-.37.62-1.03,1.12s-1.27.81-1.36.69Z"/>
    <path class="cls-1" d="M45.07,107.79c-.1-.12,1.26-1.29,3.04-2.61,1.77-1.33,3.28-2.3,3.36-2.18s-1.28,1.29-3.04,2.61c-1.76,1.32-3.27,2.29-3.36,2.18Z"/>
    <path class="cls-1" d="M46.83,99.64c-.04-.05.29-.35.96-.46.66-.12,1.64.03,2.48.63.83.61,1.31,1.42,1.55,2.01.25.6.29,1,.23,1.02-.08.03-.25-.32-.57-.85-.32-.52-.8-1.22-1.53-1.74-.72-.52-1.55-.7-2.13-.69-.59,0-.95.16-.99.08Z"/>
    <path class="cls-1" d="M39.99,103.16c-.07-.14,1.36-1.04,3.18-2.02,1.82-.98,3.36-1.67,3.43-1.54.08.13-1.34,1.03-3.18,2.02-1.83.99-3.37,1.68-3.43,1.54Z"/>
    <path class="cls-1" d="M52.68,100.73c.07-.05.37.37,1.01.86.62.52,1.61,1.06,2.69,1.75.54.35,1.04.73,1.44,1.12.4.4.72.77,1,1.06.56.59,1.01.82.98.89-.02.07-.57-.06-1.24-.61-.33-.27-.69-.62-1.09-.98-.4-.35-.87-.69-1.4-1.03-1.05-.67-2.06-1.29-2.65-1.92-.61-.61-.81-1.12-.75-1.15Z"/>
    <path class="cls-1" d="M59.14,107.55c-.1.12-1.55-.96-3.24-2.39-.84-.72-1.61-1.34-2.19-1.76-.58-.42-.96-.67-.92-.74.03-.06.48.06,1.13.41.65.35,1.48.95,2.33,1.67,1.69,1.43,2.99,2.69,2.89,2.81Z"/>
    <path class="cls-1" d="M80.38,124.13c-.03-.14.22-.32.57-.29.35.03.57.26.51.39-.06.14-.3.17-.56.15-.26-.03-.49-.1-.52-.25Z"/>
    <path class="cls-1" d="M58.73,106.1c.12,0-.23,1.85.38,4.72.3,1.43.89,3.08,1.9,4.72,1,1.64,2.46,3.22,4.28,4.49,3.67,2.57,7.75,3.47,10.63,3.89,1.45.22,2.64.23,3.44.09.8-.14,1.22-.35,1.24-.3.01.02-.37.3-1.19.51-.82.22-2.05.26-3.53.09-2.92-.32-7.11-1.18-10.9-3.83-1.88-1.31-3.38-2.97-4.39-4.68-1.01-1.71-1.58-3.44-1.84-4.91-.28-1.47-.26-2.69-.21-3.52.03-.42.07-.74.12-.95.04-.22.07-.33.09-.32Z"/>
    <path class="cls-1" d="M73.53,128.08c-.07-.05.04-.28-.04-.63-.05-.33-.36-.82-.82-.88-.46-.06-.87.34-1.01.65-.16.32-.11.57-.19.6-.05.04-.28-.23-.18-.72.08-.45.58-1.14,1.44-1.07.86.15,1.16.95,1.13,1.4-.02.5-.31.7-.35.65Z"/>
    <path class="cls-1" d="M104.41,106.12s-.33-.14-.37-.64c-.04-.48.21-1.14.79-1.58.29-.21.64-.36,1.01-.32.17.03.36.1.48.23.12.13.18.27.2.4.05.26-.04.49-.17.59-.13.09-.22.07-.23.04-.02-.07.17-.22.03-.52-.1-.31-.54-.33-1,.02-.44.33-.68.81-.73,1.16-.06.35.06.58-.01.63Z"/>
    <path class="cls-1" d="M83.64,92.38c-.06-.04.05-.32.36-.69.15-.18.36-.38.61-.57.13-.1.27-.19.42-.28.08-.05.51-.26.77-.35.24-.08.48-.16.72-.24-.21.48-.36.88-.67,1.27-.2.23-.37.37-.54.48-.34.22-.58.26-.61.2-.03-.06.14-.21.38-.47.12-.12.27-.31.37-.47,0-.04,0-.04-.02-.03h0c.12-.06-.29.15-.51.29-.24.15-.45.3-.63.44-.35.27-.56.46-.62.41Z"/>
    <path class="cls-1" d="M81.18,91.56c-.06-.03.02-.35.31-.78.29-.42.82-.95,1.55-1.28.18-.08.39-.17.66-.16.28,0,.57.27.58.54.02.51-.32.78-.54.9-.46.22-.64.38-.71.36-.1-.03.09-.39.48-.67.09-.08.16-.15.21-.24.05-.09.08-.21.06-.28-.02-.05-.04-.07-.12-.08-.09,0-.23.04-.39.12-1.3.59-1.95,1.65-2.08,1.56Z"/>
    <path class="cls-1" d="M79.32,90.45c-.06-.04.1-.38.46-.87.36-.46.95-1.17,1.95-1.43.12-.02.24-.06.41-.05.22,0,.42.12.5.31.09.17-.01.42-.09.53-.06.09-.12.18-.18.26-.24.33-.51.59-.75.79-.48.39-.85.51-.89.45-.04-.07.24-.3.62-.73.19-.21.4-.48.6-.79.05-.08.1-.16.15-.24.03-.06,0-.02.01-.04h0s-.14.02-.25.04c-.79.2-1.37.77-1.79,1.16-.42.4-.69.66-.75.61Z"/>
    <path class="cls-1" d="M73.99,112.88c.05-.1,1.17.71,3.24,1.24,2.04.52,5.16.64,8.07-.83,1.44-.72,2.63-1.75,3.42-2.89.8-1.14,1.15-2.38,1.22-3.43.13-2.14-.74-3.31-.63-3.35.02-.02.25.24.52.8.26.56.53,1.44.49,2.56-.02,1.11-.36,2.46-1.19,3.69-.81,1.24-2.07,2.34-3.59,3.1-3.07,1.55-6.34,1.35-8.42.71-1.05-.32-1.86-.72-2.38-1.04-.52-.32-.78-.54-.76-.57Z"/>
    <path class="cls-1" d="M62.65,86.54s.47-.01,1.25.27c.79.27,1.84.87,3.07,1.66,2.48,1.55,5.89,3.73,9.63,6.17,3.75,2.43,7.12,4.66,9.55,6.3,1.21.81,2.21,1.49,2.8,2.07.6.58.83.98.81,1-.04.03-.32-.33-.95-.84-.62-.52-1.62-1.14-2.87-1.91-2.48-1.55-5.89-3.73-9.63-6.17-3.75-2.43-7.12-4.66-9.55-6.3-1.21-.83-2.19-1.46-2.94-1.79-.74-.33-1.18-.42-1.17-.47Z"/>
    <path class="cls-1" d="M56.87,92.23c-.08-.08,1.22-1.71,3.29-3.27,1.05-.76,2.13-1.28,2.95-1.5.82-.23,1.36-.23,1.37-.16.03.15-2,.57-4,2.11-2.01,1.5-3.49,2.96-3.61,2.83Z"/>
    <path class="cls-1" d="M56.19,93.56c-.14.05-.4-.5-.16-1.15.24-.65.81-.89.88-.76.09.13-.19.47-.37.95-.19.47-.2.92-.35.96Z"/>
    <path class="cls-1" d="M80.61,103.08s-.25-.15-.66-.42c-.21-.13-.47-.28-.8-.34-.32-.06-.7.01-1.11.16-.81.28-1.78.86-2.2,1.9-.2.51-.25,1.12-.05,1.66.2.54.67.97,1.26,1.21,1.19.48,2.59.32,3.48-.32.9-.64,1.24-1.77,1-2.56-.24-.8-.92-1.22-1.36-1.34-.47-.13-.75-.04-.76-.09-.01-.02.26-.19.8-.12.51.07,1.33.47,1.68,1.43.34.94,0,2.28-1.07,3.07-1.05.78-2.6.97-3.99.42-.69-.28-1.31-.82-1.55-1.53-.25-.7-.16-1.43.08-2.03.54-1.23,1.66-1.82,2.54-2.08.44-.13.91-.2,1.3-.09.39.1.66.3.86.46.4.34.56.57.54.6Z"/>
    <path class="cls-1" d="M72.87,103.42c.1,0-.01,1.23.57,3.06.15.45.34.94.65,1.38.31.44.76.81,1.29,1.16,1.09.65,2.27,1.56,3.68,1.33.7-.08,1.37-.31,2.02-.55.66-.25,1.28-.47,1.7-.86.84-.84,1.18-2.02,1.26-2.93.15-1.92-.74-2.94-.63-2.97.02-.02.26.19.52.69.27.49.53,1.29.49,2.31-.05,1-.33,2.24-1.3,3.27-.52.5-1.22.74-1.86,1-.66.25-1.37.51-2.15.6-.78.1-1.6-.06-2.25-.4-.66-.33-1.21-.7-1.77-1.06-.55-.37-1.04-.8-1.38-1.32-.34-.51-.51-1.05-.64-1.52-.26-.96-.31-1.77-.31-2.32,0-.55.07-.85.11-.85Z"/>
    <path class="cls-1" d="M83.99,104.78c-.09.02-.21-.6-.8-1.33-.3-.37-.71-.73-1.27-1-.55-.28-1.23-.51-1.93-.75-1.4-.5-2.72-.63-3.63-.38-.92.22-1.37.66-1.43.59-.05-.03.33-.61,1.32-.96.98-.38,2.48-.28,3.91.24.72.25,1.4.49,2,.82.6.33,1.06.78,1.34,1.22.57.88.55,1.56.49,1.56Z"/>
    <path class="cls-1" d="M56.87,92.3s.24-.18.76-.28c.52-.09,1.31-.06,2.19.27.88.32,1.84.89,2.84,1.57.99.67,2.1,1.4,3.27,2.14,2.34,1.48,4.52,2.74,6.1,3.62,1.58.89,2.58,1.43,2.54,1.5-.03.06-1.08-.35-2.72-1.16-1.64-.8-3.86-2.01-6.21-3.51-2.39-1.45-4.32-3.13-5.95-3.81-.82-.35-1.53-.44-2.03-.41-.49.03-.76.12-.78.07Z"/>
    <path class="cls-1" d="M53.44,93.69s.14-.33.69-.58c.54-.27,1.44-.34,2.46-.08,2.03.52,4.49,2.02,7.02,3.79,2.56,1.75,4.87,3.35,6.52,4.54s2.65,1.95,2.61,2.01c-.04.06-1.12-.59-2.83-1.69-1.71-1.1-4.04-2.66-6.61-4.41-2.54-1.78-4.9-3.29-6.82-3.87-.95-.29-1.77-.28-2.28-.09-.52.17-.73.43-.77.39Z"/>
    <path class="cls-1" d="M46.73,99.42s-.19.06-.41-.16c-.21-.2-.36-.71-.1-1.2.25-.48.71-.83,1.17-1.25.47-.41,1.01-.84,1.59-1.26,2.34-1.7,4.53-2.55,4.58-2.42.07.14-1.98,1.2-4.27,2.86-.57.41-1.11.82-1.59,1.2-.47.39-.94.71-1.15,1.05-.23.34-.17.69-.07.89.11.2.25.25.24.29Z"/>
    <path class="cls-1" d="M78.35,114.73s-.43-.27-1.21-.71c-.78-.45-1.99-.96-3.51-1.52-1.51-.56-3.37-1.28-5.14-2.56-1.79-1.24-3.52-2.86-5.46-4.38-1.94-1.53-3.87-2.88-5.65-4.07-1.79-1.18-3.39-2.27-4.81-3.02-1.42-.75-2.7-1.07-3.59-1.11-.89-.03-1.39.11-1.4.06,0-.02.11-.06.35-.13.23-.06.59-.12,1.05-.14.93-.03,2.28.25,3.76.98,1.48.72,3.1,1.78,4.92,2.94,1.8,1.17,3.76,2.52,5.71,4.06,1.96,1.54,3.68,3.17,5.41,4.4,1.71,1.27,3.49,2,5,2.61,1.51.61,2.71,1.18,3.48,1.7.77.5,1.12.87,1.11.89Z"/>
    <path class="cls-1" d="M90.89,109.43s.06.13.1.39c.04.26.06.65-.02,1.15-.13,1.01-.76,2.36-1.71,3.84-.47.74-.99,1.61-1.87,2.28-.89.67-2.05.95-3.2,1.12-2.3.33-4.99.56-7.63-.34-1.32-.45-2.46-1.18-3.51-1.91-1.05-.73-2-1.49-2.94-2.18-1.86-1.41-3.53-2.69-4.94-3.76-1.39-1.08-2.52-1.96-3.3-2.57-.77-.62-1.19-.97-1.16-1,.02-.03.48.27,1.29.83.8.57,1.97,1.4,3.4,2.43,1.42,1.04,3.12,2.28,5,3.66,1.89,1.33,3.87,3.09,6.33,3.98,2.5.85,5.11.66,7.38.36,1.14-.15,2.21-.41,3.01-.99.8-.58,1.33-1.39,1.81-2.12.99-1.45,1.64-2.71,1.83-3.67.2-.95.07-1.5.12-1.5Z"/>
    <path class="cls-1" d="M91.02,113.54c-.15.02-.46-1.61-.69-3.65-.23-2.03-.3-3.69-.15-3.71.15-.02.46,1.61.69,3.65.23,2.03.3,3.69.15,3.71Z"/>
    <path class="cls-1" d="M74.15,115.46c-.14.05-.41-.37-.4-.96,0-.59.27-1.01.4-.96.15.05.14.47.14.96,0,.49,0,.92-.14.96Z"/>
    <path class="cls-1" d="M72.96,116.18c-.15,0-.32-.75-.3-1.69.02-.94.21-1.7.36-1.68.15.01.2.77.18,1.69-.02.92-.09,1.67-.24,1.68Z"/>
    <path class="cls-1" d="M58.63,100.7c.07-.04.27.3.77.49.24.09.57.12.82-.04.25-.14.44-.52.38-.82-.05-.3-.39-.47-.75-.54-.36-.08-.71-.1-1-.11-.58-.01-.95.04-.97-.04-.02-.07.32-.26.95-.35.31-.04.69-.05,1.11,0,.21.03.45.09.68.23.23.13.45.39.51.7.1.61-.22,1.14-.67,1.37-.47.23-.93.11-1.22-.06-.6-.36-.67-.83-.61-.84Z"/>
    <path class="cls-1" d="M60.5,102.07c.05-.13.31-.24.35-.43.07-.18-.06-.43-.03-.56.02-.07.16-.1.32.01.16.11.32.38.22.72-.11.33-.41.46-.6.45-.2,0-.29-.12-.27-.18Z"/>
    <path class="cls-1" d="M70.56,92.64c.06.07-.35.34-.67.89-.15.27-.16.63.13.84.29.22.75.22,1.18,0,.42-.23.96-.55,1.01-.79.12-.13-.42-.35-.7-.37-.65-.08-1.06.17-1.1.09-.05-.04.31-.45,1.12-.48.2,0,.42.03.64.11.11.04.24.09.37.21.13.12.2.35.16.53-.09.37-.32.56-.55.73-.21.15-.44.31-.71.45-.52.29-1.27.32-1.74-.09-.24-.19-.37-.5-.37-.76,0-.28.11-.5.22-.67.51-.63.97-.73,1-.69Z"/>
    <path class="cls-1" d="M71.63,94.85c-.03-.15.27-.33.49-.65.24-.3.35-.63.5-.64.15-.03.3.5-.07.97-.37.48-.92.46-.92.31Z"/>
    <path class="cls-1" d="M92.45,105.65c-.05-.14.63-.52,1.54-.77.91-.25,1.69-.28,1.72-.13.03.15-.68.41-1.57.66-.89.25-1.63.39-1.68.25Z"/>
    <path class="cls-1" d="M92.36,106.54c-.02-.15.64-.35,1.47-.44.83-.09,1.51-.05,1.53.1.02.15-.64.35-1.47.44-.83.09-1.51.05-1.53-.1Z"/>
    <path class="cls-1" d="M89.86,115.07c.08-.13.38-.09.67.08.29.17.47.42.39.55-.08.13-.38.09-.67-.08-.29-.17-.47-.42-.39-.55Z"/>
    <path class="cls-1" d="M89.6,115.7c.08-.12.39-.06.69.14.3.2.47.46.39.59-.08.12-.39.06-.69-.14-.3-.2-.47-.46-.39-.59Z"/>
    <path class="cls-1" d="M66.45,118.79c-.09-.12.64-.82,1.74-1.38,1.09-.57,2.09-.76,2.13-.62.05.15-.83.56-1.88,1.1-1.05.54-1.89,1.02-1.99.9Z"/>
    <path class="cls-1" d="M67.32,119.31c-.08-.13.32-.5.88-.83.56-.33,1.08-.49,1.16-.36.08.13-.32.5-.88.83-.56.33-1.08.49-1.16.36Z"/>
    <path class="cls-1" d="M61.57,112.14c0-.15.77-.3,1.73-.32s1.74.07,1.75.22-.77.3-1.73.32c-.96.03-1.74-.07-1.75-.22Z"/>
    <path class="cls-1" d="M62.41,113.77c-.09-.12.23-.49.78-.67.55-.18,1.02-.06,1.02.08,0,.15-.39.28-.85.43-.46.15-.86.28-.95.15Z"/>
    <path class="cls-1" d="M86.58,99.91c-.11-.1.21-.61.82-.99.28-.18.56-.29.78-.35l.2.35c-.24.1-.41.13-.46.06-.04-.07.05-.22.24-.4l.2.35c-.17.13-.41.28-.66.44-.55.35-1.01.64-1.12.54Z"/>
    <path class="cls-1" d="M85.41,99.94c-.12-.08.23-.8.97-1.42.73-.63,1.5-.86,1.56-.73.07.14-.53.56-1.21,1.14-.68.57-1.19,1.1-1.32,1.01Z"/>
    <path class="cls-1" d="M87.18,121.24c.15-.03.47.77.72,1.77.14.56.23,1.07.25,1.43h-.33c.09-.09-.03-.26-.02-.3,0-.03.07-.06.17-.02.09.04.24.18.18.43l-.11.49-.22-.5c-.14-.32-.31-.82-.45-1.4-.26-1.03-.34-1.88-.19-1.91Z"/>
    <path class="cls-1" d="M86.87,121.6c.15-.02.36.52.48,1.22.12.7.09,1.29-.05,1.31-.15.02-.36-.52-.48-1.22-.12-.7-.09-1.29.06-1.31Z"/>
    <path class="cls-1" d="M75.35,104.27c-.15.05-.35-.64.13-1.29.47-.65,1.19-.65,1.19-.5.03.15-.42.36-.75.82-.35.45-.42.94-.57.96Z"/>
    <path class="cls-1" d="M66.09,94.34c-.07-.13.62-.63,1.49-1.19.87-.56,1.61-.98,1.7-.86.09.12-.51.74-1.41,1.32-.89.58-1.71.87-1.78.73Z"/>
    <path class="cls-1" d="M66.97,94.66c-.09-.12.25-.51.75-.87.5-.36.98-.55,1.07-.43.09.12-.25.51-.75.87-.5.36-.98.55-1.07.43Z"/>
    <path class="cls-1" d="M57.97,99.09c-.08-.13.52-.67,1.34-1.21.82-.54,1.55-.88,1.64-.75.08.13-.52.67-1.34,1.21-.82.54-1.55.88-1.64.75Z"/>
    <path class="cls-1" d="M60.01,98.73c-.07-.13.17-.4.53-.6.36-.2.72-.25.79-.12.07.13-.17.4-.53.6-.36.2-.72.25-.79.12Z"/>
    <path class="cls-1" d="M43.99,106.24c-.08-.13,1.12-1.01,2.67-1.98,1.55-.97,2.88-1.65,2.96-1.52s-1.12,1.01-2.67,1.98c-1.55.97-2.88,1.65-2.96,1.52Z"/>
  </g>
  <g>
    <path d="M2.45,39.83c-.15.02-.59-3.05-1.16-6.82-.56-3.77-1.04-6.83-.89-6.86.14-.03.86,2.99,1.43,6.78.57,3.78.77,6.88.62,6.9Z"/>
    <path d="M3.69,39.67c-.15,0-.43-2.89-.62-6.47-.19-3.58-.22-6.49-.07-6.5.15-.01.43,2.89.62,6.47.19,3.59.22,6.5.07,6.5Z"/>
    <path d="M7.51,42.1c-.15.02-.56-2.77-.91-6.22-.35-3.45-.52-6.26-.37-6.27.15-.02.56,2.77.91,6.22.35,3.45.52,6.26.37,6.27Z"/>
    <path d="M3.22,28.14c-.12.1-.73-.45-1.51-1.07-.78-.62-1.45-1.09-1.38-1.23.06-.13.89.14,1.72.8.83.66,1.29,1.4,1.17,1.49Z"/>
    <path d="M43.49,0s-.13.13-.4.32c-.28.19-.69.47-1.22.84-1.07.71-2.62,1.73-4.53,2.99-3.84,2.5-9.14,5.96-15.07,9.67-2.98,1.89-6.13,3.05-8.8,4.44-2.65,1.43-4.87,3.02-6.79,4.27-1.91,1.26-3.52,2.21-4.67,2.79-.58.28-1.03.5-1.34.62-.31.13-.48.19-.49.17-.02-.04.62-.35,1.73-.98,1.11-.63,2.67-1.62,4.55-2.92,1.89-1.29,4.09-2.92,6.77-4.39,2.69-1.43,5.82-2.6,8.76-4.47,5.91-3.72,11.27-7.09,15.14-9.53,1.95-1.2,3.53-2.17,4.62-2.84.55-.33.98-.58,1.27-.75.29-.17.45-.25.46-.23Z"/>
    <path d="M46.48.86s-.14.12-.42.31c-.29.18-.72.45-1.26.8-1.11.67-2.71,1.65-4.69,2.85-3.97,2.4-9.45,5.71-15.51,9.37-6.04,3.69-11.51,7.02-15.47,9.44-1.98,1.2-3.59,2.18-4.7,2.85-.56.33-.99.58-1.29.75-.3.17-.46.25-.47.23-.01-.02.13-.13.41-.32.28-.19.7-.48,1.24-.84,1.08-.72,2.65-1.74,4.61-3,3.91-2.5,9.34-5.9,15.39-9.58,6.05-3.67,11.58-6.92,15.6-9.24,2.01-1.16,3.65-2.08,4.78-2.7.57-.31,1.01-.55,1.32-.71.3-.16.47-.23.48-.22Z"/>
    <path d="M6.69,30.27c-.08.13-.84-.26-1.7-.86-.85-.6-1.47-1.18-1.39-1.3s.85.26,1.7.86c.85.59,1.47,1.18,1.39,1.3Z"/>
    <path d="M52.86,2.17s-.13.14-.42.36c-.29.22-.73.53-1.3.91-1.15.76-2.88,1.76-5.06,2.89-4.37,2.25-10.38,5.39-16.85,9.17-6.48,3.76-12.19,7.42-16.29,10.12-2.04,1.36-3.69,2.47-4.84,3.23-.57.38-1.02.67-1.32.87-.31.19-.47.29-.48.27-.01-.02.13-.14.42-.36.29-.22.71-.54,1.26-.96,1.1-.82,2.72-1.98,4.74-3.38,4.05-2.79,9.74-6.51,16.23-10.27,6.48-3.78,12.54-6.88,16.95-9.04,2.2-1.09,3.95-2.03,5.12-2.73,1.18-.7,1.81-1.12,1.84-1.09Z"/>
    <path d="M46.21,1.17c-.03.15-.86.12-1.84-.19-.97-.3-1.68-.75-1.62-.88.06-.14.84.07,1.78.36.94.29,1.7.56,1.68.71Z"/>
    <path d="M52.84,2.57c-.07.04-.31-.36-.96-.61-.64-.26-1.66-.37-2.77-.63-.55-.11-1.08-.26-1.53-.33-.45-.08-.84-.02-1.17.09-.66.23-1.05.5-1.1.43-.04-.05.25-.43.95-.79.35-.18.85-.3,1.38-.23.52.06,1.03.18,1.59.3,1.09.25,2.11.42,2.82.81.72.39.86.95.79.96Z"/>
    <path d="M62.53,11.77c-.13.11-2.18-2.13-4.8-4.79-2.62-2.65-5-4.53-4.91-4.65.08-.12,2.64,1.59,5.29,4.27,1.33,1.33,2.45,2.62,3.23,3.56.78.95,1.24,1.56,1.18,1.61Z"/>
    <path d="M56.95,11.4c.05.01-.19.83-1.25,1.62-.27.19-.61.37-1.04.4-.43.04-.89-.13-1.24-.43-.35-.3-.63-.73-.72-1.25-.08-.51.04-1.05.29-1.5.51-.92,1.49-1.47,2.4-1.46.45,0,.9.13,1.24.38.34.25.54.61.62.95.15.68-.05,1.22-.22,1.53-.17.32-.33.45-.35.43-.04-.02.06-.19.16-.51.1-.31.21-.81.04-1.34-.15-.54-.73-.98-1.48-.93-.74.01-1.52.47-1.94,1.22-.44.75-.28,1.64.28,2.11.54.52,1.25.41,1.74.09,1.01-.64,1.38-1.36,1.46-1.3Z"/>
    <path d="M52.45,14.44c-.04.05-.62-.33-1.31-1.2-.34-.44-.71-.97-1-1.68-.14-.35-.24-.77-.17-1.23.08-.47.34-.83.6-1.18,1.14-1.4,2.86-1.75,3.95-1.64,1.14.11,1.7.59,1.67.63-.04.09-.65-.24-1.69-.24-1.01-.02-2.53.38-3.51,1.59-.23.3-.45.62-.5.93-.06.31,0,.65.11.96.23.63.56,1.18.84,1.62.58.88,1.05,1.36,1,1.42Z"/>
    <path d="M51,13.15c.12-.11.71.38,1.56.69.85.33,1.61.35,1.63.51.03.14-.83.38-1.82,0-.99-.37-1.48-1.12-1.37-1.2Z"/>
    <path d="M27.82,53.75s.09-.15.29-.4c.21-.25.52-.6.94-1.04.42-.44.96-.96,1.61-1.54.33-.29.68-.59,1.06-.9.19-.15.39-.31.6-.47.13-.11.14-.08.13-.14l-.04-.38c-.17-1.09-.17-2.3-.12-3.59.1-1.29.27-2.66.6-4.07.64-2.83,1.77-5.83,3.27-8.81,1.5-2.97,3.13-5.72,4.92-8,1.77-2.29,3.55-4.19,5.09-5.73,1.54-1.54,2.84-2.73,3.75-3.54.46-.4.81-.71,1.06-.92.25-.21.38-.31.39-.29.03.03-.44.51-1.3,1.37-.86.86-2.12,2.09-3.62,3.66-1.5,1.57-3.24,3.48-4.97,5.76-1.74,2.27-3.34,4.99-4.83,7.94-1.48,2.95-2.61,5.9-3.27,8.68-.33,1.39-.52,2.73-.63,3.99-.06,1.26-.09,2.45.05,3.51.01.14.03.28.04.42.13.26-.25.36-.29.43-.21.15-.41.3-.6.45-.39.3-.75.58-1.08.85-.66.55-1.22,1.04-1.66,1.46-.89.83-1.35,1.31-1.38,1.29Z"/>
    <path d="M33.79,50.51s-.04-.15-.06-.44c-.03-.29-.04-.71-.03-1.26.02-1.09.17-2.69.65-4.59.46-1.91,1.25-4.11,2.29-6.48.51-1.19,1.09-2.41,1.73-3.66.63-1.26,1.28-2.56,1.94-3.89.67-1.33,1.32-2.63,1.95-3.88.62-1.25,1.27-2.46,2.06-3.51.8-1.06,1.78-1.85,2.66-2.58.89-.73,1.71-1.4,2.47-2.02,1.52-1.22,2.75-2.21,3.6-2.89.86-.67,1.34-1.03,1.37-1s-.42.44-1.23,1.17c-.82.71-2.01,1.75-3.48,3.02-.74.63-1.55,1.33-2.42,2.07-.87.74-1.8,1.52-2.54,2.54-.74,1.02-1.38,2.2-1.99,3.46-.62,1.25-1.27,2.55-1.93,3.88-.67,1.33-1.32,2.62-1.94,3.87-.64,1.24-1.23,2.46-1.75,3.63-1.05,2.34-1.87,4.5-2.37,6.37-.52,1.87-.73,3.42-.81,4.5-.09,1.08-.07,1.68-.12,1.69Z"/>
    <path d="M29.72,59.9c-.16,0-.33-1.63-.67-3.62-.33-1.99-.71-3.59-.56-3.63.14-.05.75,1.51,1.1,3.54.35,2.03.28,3.7.13,3.71Z"/>
    <path d="M34.91,57.35c.06.14-1.07.73-2.41,1.53-1.35.79-2.41,1.5-2.5,1.38-.09-.11.84-1.03,2.23-1.84,1.38-.82,2.64-1.2,2.69-1.06Z"/>
    <path d="M33.69,49.23c.14,0,.09,1.17-.73,2.3-.81,1.13-1.91,1.54-1.95,1.41-.08-.14.79-.71,1.51-1.72.74-1,1.01-2.01,1.17-1.98Z"/>
    <path d="M31.1,58.23c-.15,0-.2-1.12-.32-2.48-.11-1.36-.26-2.47-.11-2.5.14-.04.53,1.05.65,2.45.12,1.4-.07,2.54-.22,2.53Z"/>
    <path d="M41.77,56.28c-.02.06-.57.12-1.43.6-.89.49-2.33.72-3.82.64-1.5-.07-2.82-.18-3.76-.06-.94.11-1.5.35-1.54.26-.03-.05.49-.43,1.48-.64.99-.22,2.37-.17,3.84-.1,1.48.07,2.77-.08,3.65-.45.45-.18.85-.3,1.14-.32.29-.02.44.04.44.07Z"/>
    <path d="M39.42,52.17c0,.15-1.92.3-4.27.34-2.36.08-4.28.02-4.29-.13,0-.15,1.91-.33,4.27-.41,2.37-.04,4.29.05,4.29.2Z"/>
    <path d="M39.68,52.38c-.06.14-1.22-.16-2.59-.67-1.37-.51-2.45-1.04-2.4-1.18.05-.14,1.21.16,2.59.67,1.39.52,2.46,1.05,2.4,1.18Z"/>
    <path d="M44.16,63.46s-.41-.35-1.05-1.15c-.64-.8-1.52-2.04-2.32-3.82-.78-1.77-1.51-4.1-1.59-6.88-.02-.69,0-1.41.1-2.15.09-.74.18-1.47.19-2.25.04-1.55-.11-3.2.09-4.95.49-3.48,1.99-7.1,4.31-10.48,2.3-3.4,5.36-6.56,8.72-9.68,1.68-1.56,3.43-3.14,5.37-4.58,1.94-1.43,4.08-2.72,6.47-3.55,2.39-.84,5.03-1.12,7.62-.68,2.58.42,5.14,1.73,6.79,3.92,1.64,2.2,2.28,4.87,2.66,7.41.36,2.56.61,5.1.58,7.61,0,2.52-.43,4.98-1.04,7.3-.62,2.33-1.32,4.57-2.04,6.75-1.47,4.34-3.27,8.38-5.66,11.73-2.38,3.34-5.29,5.97-8.37,7.63-3.08,1.7-6.28,2.28-9.03,2.36-2.76.1-5.18-.21-6.99-.97-1.82-.75-2.99-1.76-3.74-2.44-.37-.35-.64-.63-.82-.83-.18-.19-.26-.3-.26-.3,0,0,.11.08.3.26.19.18.47.45.85.78.77.65,1.95,1.62,3.74,2.33,1.79.72,4.16.99,6.9.86,2.72-.1,5.86-.7,8.86-2.39,3.01-1.65,5.86-4.25,8.18-7.55,2.33-3.31,4.1-7.31,5.55-11.63,1.35-4.34,3.03-8.94,3.03-13.9.02-2.47-.22-4.99-.58-7.53-.38-2.51-1.01-5.09-2.56-7.17-1.56-2.06-3.97-3.3-6.45-3.71-2.49-.42-5.05-.16-7.36.65-4.68,1.64-8.33,4.93-11.67,8-3.36,3.1-6.4,6.22-8.69,9.56-2.3,3.32-3.8,6.88-4.3,10.27-.21,1.7-.07,3.35-.12,4.92-.01.78-.11,1.56-.21,2.28-.1.72-.12,1.43-.12,2.11.05,2.73.73,5.04,1.48,6.8.76,1.77,1.6,3.02,2.21,3.84.61.82.99,1.2.96,1.22Z"/>
    <path d="M61.56,15.84c-.12.09-.84-.62-1.73-1.48-.89-.86-1.63-1.55-1.54-1.67.09-.12,1,.39,1.92,1.28.92.89,1.47,1.78,1.35,1.87Z"/>
    <path d="M81.75,34.21s0-.52.05-1.45c.04-.93.08-2.27,0-3.93-.07-1.66-.29-3.63-.52-5.82-.28-2.13-1.32-4.37-2.9-6.31-1.58-1.94-3.53-3.42-5.51-4.31-1.98-.9-3.94-1.28-5.58-1.43-3.31-.28-5.35.26-5.36.14,0-.02.12-.06.36-.12.24-.06.6-.14,1.06-.21.93-.15,2.29-.29,3.97-.19,1.68.11,3.69.45,5.75,1.36,2.06.89,4.09,2.41,5.73,4.42,1.64,2,2.72,4.33,2.98,6.59.21,2.21.39,4.19.41,5.87.03,1.68-.06,3.03-.17,3.96-.05.47-.11.82-.16,1.07-.05.24-.08.37-.1.37Z"/>
    <path d="M73.39,12.36c-.07.05-.48-.71-1.79-1.02-.31-.1-.67-.22-1.04-.4-.35-.19-.71-.38-1.1-.59-.77-.41-1.63-.84-2.55-1.21-1.85-.77-3.64-1.09-4.94-1.12-1.31-.03-2.11.16-2.13.07-.02-.06.77-.39,2.13-.46,1.35-.08,3.25.21,5.15,1,.95.39,1.82.84,2.59,1.28.38.22.74.43,1.07.63.32.18.65.31.96.44.62.23,1.14.54,1.38.86.25.3.31.51.28.53Z"/>
    <path d="M16.97,44.55c-.14.04-.54-.98-.76-2.29-.11-.66-.16-1.26-.16-1.7,0-.24.01-.32-.06-.31-.01.02,0,.06.03.07.03,0,.05-.03.06-.03.01-.02.03.01,0-.01.04-.1-.06-.16-.02-.21.05-.05.2,0,.26.13.07.12.08.23.1.33.1.42.2,1.01.31,1.65.22,1.29.37,2.35.23,2.39Z"/>
    <path d="M29.67,34.3c.06.14-2.9,1.61-6.62,3.29-1.86.83-3.54,1.58-4.76,2.12-1.21.56-1.94.94-1.98.88-.04-.06.63-.57,1.8-1.22,1.18-.66,2.86-1.43,4.71-2.27,3.72-1.68,6.78-2.93,6.84-2.79Z"/>
    <path d="M30.61,37.11s-.52.69-1.62,1.51c-1.09.83-2.75,1.78-4.63,2.66-1.88.88-3.6,1.62-4.82,2.22-1.22.59-1.96.99-2,.92-.04-.06.63-.58,1.82-1.26,1.18-.69,2.89-1.49,4.76-2.37,1.87-.88,3.52-1.75,4.65-2.49,1.13-.73,1.78-1.26,1.84-1.2Z"/>
    <path d="M30.21,38.62c-.15.01-.35-.97-.61-2.16-.26-1.2-.48-2.17-.33-2.22.14-.05.6.87.87,2.11.27,1.24.23,2.27.08,2.28Z"/>
    <path d="M16.39,37.14c-.07.03-.48-.63-1.09-1.74-.15-.24-.33-.68-.47-.7-.13-.07-.51.27-.95.41-.22.07-.47.12-.75.08-.27-.03-.56-.19-.73-.43-.35-.49-.33-1.02-.39-1.48-.02-.24-.04-.48-.07-.71,0-.12-.02-.27.01-.43.04-.17.16-.33.26-.42.39-.32.72-.55,1.06-.82.68-.5,1.26-.93,1.25-1.51-.09-1.19-.26-1.99-.17-2,.04-.01.11.17.22.51.05.17.11.38.18.63.07.25.15.52.16.87.02.35-.14.78-.41,1.08-.27.31-.6.55-.91.82-.32.26-.65.53-1,.81-.12.12-.12.17-.1.42.02.23.05.47.07.71.04.48.07.95.27,1.21.19.27.55.29.91.19.18-.05.34-.13.51-.22.18-.09.42-.23.73-.13.3.11.39.36.47.51.07.16.14.31.21.45.53,1.15.82,1.88.75,1.91Z"/>
    <path d="M35.55,17.21c-.06-.02.35-.32.08-.93-.12-.28-.4-.61-.81-.71-.42-.09-.94.03-1.44.32-1.97,1.34-4.74,3.32-7.93,5.23-3.17,1.93-6.17,3.5-8.33,4.59-1.06.57-1.81,1.19-2.2,1.73-.4.53-.48.91-.54.89-.02,0,0-.1.03-.28.05-.18.14-.43.33-.73.35-.61,1.12-1.32,2.18-1.94,2.14-1.2,5.07-2.79,8.24-4.72,3.19-1.91,5.92-3.79,8.03-5.1.56-.29,1.18-.43,1.71-.27.53.18.81.59.93.93.12.35.05.67-.06.82-.11.16-.21.19-.22.19Z"/>
    <path d="M36.4,20.12s.1.04.23.18c.13.14.3.38.41.73.23.68.18,1.89-.66,2.92-.81,1.05-2.15,1.82-3.54,2.72-1.41.88-3,1.79-4.69,2.71-3.37,1.82-6.43,3.45-8.57,4.75-2.14,1.29-3.4,2.21-3.45,2.14-.02-.03.27-.29.82-.73.55-.44,1.38-1.04,2.43-1.73,2.1-1.4,5.15-3.08,8.51-4.9,1.68-.92,3.27-1.8,4.69-2.66,1.4-.87,2.73-1.6,3.5-2.53.8-.91.91-1.98.76-2.63-.15-.66-.48-.93-.43-.97Z"/>
    <path d="M37.53,20.79c-.04-.06.29-.38.87-.83.27-.25.75-.47.7-.76-.02-.4-.12-.97-.22-1.5-.11-.52-.23-1.1-.36-1.46-.1-.17-.11-.19-.29-.17-.19.04-.39.09-.55.14-.68.21-1.09.41-1.13.35-.04-.06.3-.39.99-.71.18-.08.36-.15.59-.22.12-.03.3-.06.48.02.18.08.29.23.36.36.23.53.32,1.01.45,1.58.1.58.19,1.06.19,1.63,0,.33-.27.63-.46.73-.19.11-.36.22-.52.32-.63.38-1.04.58-1.09.52Z"/>
    <path d="M18.61,30.07c.06.01.07.27-.25.42-.3.12-.81.07-1.11-.38-.25-.42-.19-.83-.13-1.07.07-.25.16-.39.23-.38.18,0,.1.69.36,1.17.11.19.39.29.55.3.17.01.28-.08.35-.05Z"/>
    <path d="M19.83,31.24c-.14.06-.37-.28-.51-.75-.14-.47-.14-.88,0-.91.15-.03.38.31.51.75.14.44.13.85,0,.91Z"/>
    <path d="M22.49,30.07s.12.14-.08.22c-.1.04-.26-.04-.3-.14-.06-.1-.08-.18-.12-.27-.13-.36-.28-.87-.41-1.44-.26-1.13-.35-2.08-.2-2.11.15-.03.47.86.73,1.99.13.57.22,1.09.25,1.47.02.22.03.27.01.28.04.03.08.02.11,0Z"/>
    <path d="M24.84,26.53c.07.13-.03.33-.22.43s-.41.09-.49-.04c-.07-.13.03-.33.22-.43s.41-.09.49.04Z"/>
    <path d="M27.08,26.48s.2.19-.06.47l-.13.15-.12-.24c-.15-.31-.34-.81-.5-1.39-.28-.99-.39-1.82-.24-1.86.14-.04.49.73.77,1.72.16.58.27,1.11.3,1.45l-.25-.09c.14-.04.19-.19.24-.2Z"/>
    <path d="M28.4,26.3c-.15.03-.43-.64-.62-1.5-.2-.86-.24-1.59-.09-1.62.15-.03.43.64.62,1.5.2.86.24,1.59.09,1.62Z"/>
    <path d="M29.84,25.35c-.02.15-.26.25-.5.36-.25.11-.48.22-.6.14-.13-.08-.02-.45.38-.63.4-.18.75-.01.73.13Z"/>
    <path d="M32.02,22.42c-.06-.05-.05-.16-.13-.24-.06-.08-.23-.2-.35-.19-.35.01-.8.35-.89.21-.05-.06-.02-.18.11-.35.12-.15.36-.39.77-.41.47.01.71.37.73.64.01.31-.2.39-.24.33Z"/>
    <path d="M32.46,23.98c-.13.08-.39-.12-.5-.46-.11-.35-.02-.66.13-.67.15-.01.29.22.39.5.09.28.11.55-.02.63Z"/>
    <path d="M32.12,24.79c-.05.14-.19.22-.32.17-.12-.04-.18-.2-.13-.34.05-.14.19-.22.32-.17.12.04.18.2.13.34Z"/>
    <path d="M34.29,18.88c-.02.15-.29.23-.59.31-.3.07-.57.13-.66,0-.09-.11.11-.43.53-.54.42-.11.75.07.72.22Z"/>
    <path d="M35.36,23.4c-.15.03-.48-.87-.74-2.02s-.35-2.11-.21-2.14c.15-.03.48.87.74,2.02.26,1.15.35,2.11.21,2.14Z"/>
    <path d="M10.39,30.72c.05-.06.32.3.02.8-.14.22-.43.48-.85.46-.42-.02-.79-.37-.92-.75-.14-.38-.14-.76-.08-1.09.06-.32.22-.65.5-.8.28-.14.54-.07.66.03.13.11.12.21.09.23-.05.03-.28-.15-.54.06-.21.18-.31.85-.12,1.37.1.26.28.41.46.45.18.03.38-.07.5-.2.27-.26.21-.54.29-.57Z"/>
    <path d="M7.94,42.56c-.13.08-.84-.79-2.07-1.44-1.21-.66-2.28-1.13-2.22-1.29.05-.12,1.2.11,2.49.82,1.33.71,1.95,1.85,1.8,1.91Z"/>
    <path d="M4.68,40.09c-.1.12-.58-.13-1.16-.42-.58-.3-1.06-.55-1.02-.69.03-.14.63-.12,1.27.21.64.33,1.01.8.91.91Z"/>
    <path d="M8.16,51.92c-.05-.07.95-.77,2.54-1.91.78-.58,1.7-1.3,2.52-2.25.8-.96,1.53-2.21,1.7-3.63.18-1.4-.3-2.84-1.28-3.53-.98-.69-2.23-.52-3.08-.19-.88.35-1.52.83-1.97,1.14-.45.32-.7.49-.72.46-.02-.03.18-.25.59-.62.41-.36,1.03-.9,1.95-1.33.47-.21,1.02-.36,1.63-.39.61-.02,1.3.11,1.89.52,1.2.82,1.73,2.46,1.54,4.01-.19,1.57-.99,2.89-1.86,3.89-.89.99-1.86,1.69-2.68,2.24-.83.54-1.51.94-1.99,1.22-.48.27-.75.41-.77.38Z"/>
    <path d="M9.49,40.98s.17-.16.53-.08c.36.06.82.47.97,1.08.31,1.17.19,2.96-.84,4.52-.5.78-1.17,1.39-1.85,1.8-.68.41-1.31.68-1.83.93-1.05.49-1.72.75-1.75.69-.03-.07.57-.45,1.58-1.03,1-.59,2.5-1.22,3.4-2.69.94-1.42,1.11-3.06.92-4.13-.09-.54-.39-.86-.66-.97-.27-.12-.45-.07-.46-.12Z"/>
    <path d="M2.48,50.19c-.11-.08,1.71-2.13,4.69-3.6.37-.19.72-.33.96-.55.24-.22.4-.5.49-.81.18-.62.16-1.26.14-1.77,0-1.06-.49-1.52-.44-1.57.02-.03.19.04.39.29.2.25.37.7.44,1.24.06.54.14,1.19-.04,1.95-.09.37-.29.77-.62,1.07-.33.3-.73.46-1.08.64-2.89,1.42-4.83,3.24-4.94,3.11Z"/>
    <path d="M5.67,51.03c-.13.09-.6-.41-1.27-.89-.66-.49-1.27-.8-1.23-.95.03-.14.8-.05,1.55.51.75.55,1.07,1.26.95,1.33Z"/>
    <path d="M8.42,52.79c-.12.09-.72-.51-1.54-1.14-.81-.64-1.54-1.07-1.48-1.21.05-.14.94.1,1.82.78.88.68,1.33,1.48,1.21,1.57Z"/>
    <path d="M2.81,58.33c-.13.02-.56-1.86-.62-4.26-.02-1.21.15-2.27.14-3.02,0-.75-.13-1.21-.05-1.24.06-.03.34.41.43,1.21.11.8,0,1.88.02,3.04.06,2.33.25,4.25.08,4.27Z"/>
    <path d="M4.87,58.5c-.14.02-.56-1.86-.56-4.23,0-2.37.41-4.25.55-4.23.16.02-.01,1.91,0,4.23,0,2.32.17,4.21.01,4.23Z"/>
    <path d="M8.33,60.53c-.15,0-.34-1.97-.43-4.42-.09-2.45-.04-4.44.11-4.44s.34,1.97.43,4.42c.09,2.45.04,4.44-.11,4.44Z"/>
    <path d="M34.2,15.08c.04.07-1.08.72-2.91,1.75-1.82,1.03-4.34,2.45-7.12,4.01-2.77,1.58-5.28,3.02-7.1,4.06-1.82,1.04-2.95,1.66-2.99,1.6-.04-.06,1.03-.8,2.8-1.93,1.77-1.12,4.25-2.62,7.03-4.2,2.78-1.58,5.34-2.94,7.21-3.88,1.87-.94,3.05-1.48,3.09-1.41Z"/>
    <path d="M14.71,26.95c.07.14-.11.32-.33.21-.21-.12-.16-.36,0-.39.15-.03.26-.08.26-.09,0,0,.01.13.07.27Z"/>
    <path d="M12.83,31.73c-.04-.07.19-.24.34-.62.17-.38.18-.95.09-1.65-.19-1.45.2-2.62.34-2.57.15.03.03,1.15.2,2.52.1.69.03,1.46-.29,1.89-.3.44-.67.5-.68.44Z"/>
    <path d="M53.23,5.2c.06,0,.13.29-.14.62-.24.31-.87.65-1.53.33-.16-.08-.29-.19-.39-.35-.1-.16-.14-.37-.1-.53.06-.34.36-.57.61-.57.51,0,.61.38.54.39-.06.04-.24-.1-.47,0-.1.04-.17.14-.18.27,0,.12.06.22.25.32.34.18.78.04,1.01-.12.24-.16.33-.36.41-.35Z"/>
    <path d="M48.09,36.15s-.22.39-.6,1.14c-.38.75-.88,1.9-1.34,3.43-.46,1.53-.9,3.46-1.49,5.66-.52,2.2-.82,4.82-.39,7.63.22,1.4.63,2.85,1.3,4.25.67,1.39,1.54,2.79,2.74,3.92,1.2,1.14,2.85,1.79,4.6,1.97,1.76.19,3.6-.02,5.43-.44,1.83-.43,3.65-1.11,5.33-2.13,1.68-1.01,3.17-2.38,4.43-3.99,1.26-1.61,2.34-3.42,3.4-5.26,1.04-1.85,2-3.79,2.84-5.81,1.69-4.03,2.85-8.16,3.54-12.22.17-1.02.32-2.03.44-3.03.17-.99.05-1.95-.1-2.93-.08-.49-.17-.98-.25-1.46-.09-.5-.13-.98-.24-1.43-.21-.92-.55-1.81-.99-2.63-.87-1.63-2.15-3.06-3.75-3.73-1.62-.66-3.4-.68-5.04-.47-3.31.46-6.14,2.04-8.37,3.79-2.24,1.77-3.95,3.75-5.38,5.51-1.43,1.78-2.57,3.38-3.5,4.69-.94,1.3-1.67,2.32-2.17,3-.25.34-.45.6-.58.77-.13.17-.2.26-.21.25,0,0,.05-.1.17-.28.12-.18.3-.45.53-.8.48-.7,1.18-1.73,2.09-3.06.91-1.33,2.02-2.95,3.44-4.76,1.41-1.8,3.12-3.8,5.38-5.63,2.25-1.8,5.12-3.43,8.55-3.93,1.69-.22,3.54-.22,5.28.47,1.75.73,3.09,2.24,4.01,3.93.46.85.82,1.78,1.05,2.75.12.49.17.99.25,1.46.08.49.17.97.25,1.46.16.98.29,2.05.11,3.07-.12,1.01-.27,2.03-.44,3.06-.69,4.1-1.85,8.27-3.56,12.34-.85,2.03-1.82,3.99-2.87,5.86-1.07,1.86-2.16,3.68-3.45,5.33-1.29,1.65-2.84,3.07-4.58,4.11-1.74,1.04-3.61,1.74-5.48,2.17-1.87.42-3.76.63-5.6.42-1.82-.19-3.59-.89-4.85-2.11-2.46-2.46-3.68-5.58-4.12-8.44-.42-2.89-.08-5.54.47-7.77.62-2.2,1.08-4.11,1.58-5.65.49-1.54,1.03-2.68,1.44-3.42.21-.37.38-.65.51-.82.12-.18.19-.27.2-.27Z"/>
    <path d="M62.55,35.6s.07-.1.27-.24c.19-.13.51-.3.95-.41.44-.11,1.01-.15,1.64.02.63.17,1.32.67,1.62,1.47.49,1.57.49,3.53-.12,5.56-.32,1.01-.79,2.03-1.47,2.98-.34.47-.71.93-1.14,1.35-.43.42-.98.8-1.59.99-.6.2-1.2.3-1.83.3-.61,0-1.31-.21-1.74-.71-.43-.49-.61-1.07-.74-1.61-.13-.54-.2-1.09-.23-1.62-.08-2.12.39-4.02,1.14-5.44.76-1.44,1.88-2.25,2.7-2.58.41-.17.76-.25.99-.27.23-.03.36-.02.36,0,0,.05-.49.08-1.26.47-.76.38-1.78,1.19-2.45,2.57-.67,1.36-1.08,3.22-.98,5.24.03.5.1,1.02.23,1.53.12.51.3,1.01.63,1.37.66.73,1.96.58,3.01.25,1.07-.33,1.82-1.27,2.47-2.13.64-.89,1.1-1.86,1.42-2.82.61-1.92.64-3.85.24-5.28-.23-.7-.79-1.13-1.35-1.32-.56-.18-1.09-.18-1.51-.11-.84.15-1.23.49-1.26.44Z"/>
    <path d="M60.95,47.28s-.22.28-.79.55c-.55.25-1.48.58-2.62.26-.56-.16-1.12-.55-1.53-1.09-.41-.55-.68-1.22-.86-1.94-.32-1.44-.45-3.07-.14-4.76.3-1.68,1.08-3.2,2.1-4.28,1.01-1.1,2.28-1.72,3.36-1.97,1.09-.26,1.99-.25,2.6-.22.61.04.95.11.94.15,0,.12-1.38-.1-3.45.44-1.02.28-2.16.89-3.09,1.93-.94,1.03-1.65,2.45-1.93,4.04-.29,1.59-.19,3.18.09,4.54.27,1.37,1.02,2.48,2.01,2.79.98.33,1.87.1,2.42-.09.56-.2.84-.39.87-.35Z"/>
    <path d="M70.76,50.41c-.1.12-1.36-.79-2.91-1.9-1.11-.8-2.07-1.5-2.49-1.87l.13-.2c.17.16.25.26.22.29-.02.04-.15,0-.36-.1l.13-.2c.52.22,1.56.82,2.68,1.63,1.57,1.13,2.68,2.23,2.59,2.34Z"/>
    <path d="M72.32,47.66c-.12.1-1.09-.84-2.35-1.93-1.26-1.09-2.33-1.92-2.25-2.05.08-.12,1.31.52,2.61,1.64,1.3,1.12,2.11,2.25,2,2.34Z"/>
    <path d="M75.3,32.55c.11.1-1.1,1.55-2.88,3.04-1.77,1.5-3.41,2.43-3.49,2.31-.09-.13,1.4-1.25,3.14-2.73,1.75-1.47,3.11-2.74,3.23-2.63Z"/>
    <path d="M74.11,32.39c.1.11-.94,1.09-2.31,2.19-1.38,1.1-2.57,1.88-2.65,1.76-.09-.12.95-1.1,2.31-2.19,1.37-1.09,2.55-1.87,2.65-1.76Z"/>
    <path d="M48.45,62.47c.02-.06.82.47,2.47.62,1.63.15,4.05-.12,6.95-.6,1.43-.29,2.99-.79,4.32-1.87,1.33-1.07,2.57-2.49,3.86-3.95,2.57-2.94,5.04-6.51,6.76-10.67,1.73-4.15,2.58-8.42,2.76-12.31.1-1.95.02-3.81-.16-5.53-.1-.86-.25-1.67-.51-2.42-.26-.75-.62-1.42-1.02-2.03-1.7-2.38-3.39-4.19-4.86-4.89-.74-.35-1.4-.24-1.82-.17-.43.08-.65.13-.66.1,0-.02.21-.1.64-.21.41-.1,1.12-.26,1.93.08.79.34,1.63.96,2.47,1.8.83.85,1.76,1.83,2.62,3.07.42.62.81,1.32,1.1,2.11.28.78.45,1.63.56,2.51.2,1.75.29,3.63.21,5.6-.16,3.95-1,8.28-2.76,12.5-1.74,4.23-4.27,7.84-6.88,10.79-1.32,1.46-2.56,2.86-3.96,3.97-1.42,1.12-3.06,1.62-4.53,1.89-1.48.26-2.82.36-4,.46-1.18.09-2.21.09-3.05-.03-.83-.11-1.46-.33-1.86-.5-.2-.09-.35-.17-.45-.23-.1-.06-.14-.09-.14-.1Z"/>
    <path d="M12.1,58.58c.03.06-.46.47-1.35,1.06-.45.28-1.07.59-1.82.63-.75.05-1.55-.16-2.3-.51-1.5-.74-2.54-1.78-3.4-2.32-.85-.58-1.46-.8-1.43-.88.01-.07.69.02,1.63.55.96.49,2.05,1.49,3.44,2.16.69.33,1.4.52,2.05.51.64-.01,1.2-.24,1.65-.47.9-.49,1.5-.8,1.54-.72Z"/>
    <path d="M9.95,60.97s-.41.52-1.42.89c-.51.18-1.22.16-1.88-.11-.66-.26-1.29-.69-1.92-1.13-2.53-1.77-4.51-3.3-4.43-3.42s2.21,1.21,4.74,2.97c.63.45,1.22.86,1.8,1.11.58.25,1.13.31,1.59.2.92-.24,1.48-.61,1.52-.52Z"/>
    <path d="M12.75,85.61s.01.15-.06.42c-.07.27-.24.66-.59,1.07-.35.4-.89.82-1.63,1.05-.73.24-1.71.15-2.54-.34-.83-.47-1.66-1.03-2.59-1.62-.46-.29-.94-.6-1.43-.91-.47-.3-1.07-.66-1.38-1.3-.31-.62-.35-1.29-.4-1.93-.07-.64-.13-1.29-.2-1.95-.13-1.33-.27-2.7-.41-4.11-.56-5.63-1.03-10.74-1.35-14.44-.06-.92-.21-1.76-.15-2.53.04-.76.29-1.41.61-1.84.68-.89,1.41-.86,1.37-.84.03.05-.63.11-1.2.96-.28.42-.47,1.01-.48,1.73-.03.72.14,1.54.23,2.46.41,3.69.95,8.79,1.51,14.43.14,1.41.27,2.79.4,4.12.06.67.13,1.32.19,1.96.05.64.09,1.25.33,1.74.23.49.71.8,1.2,1.12.48.32.96.63,1.41.93.91.59,1.75,1.19,2.53,1.66.77.47,1.59.57,2.28.38.68-.18,1.21-.54,1.56-.9.71-.74.75-1.37.81-1.34Z"/>
    <path d="M8.99,87.77c-.07,0-.25-1.42-.48-3.72-.23-2.3-.51-5.48-.78-9-.27-3.52-.49-6.7-.62-9.01-.13-2.31-.17-3.74-.1-3.75.07,0,.25,1.41.48,3.71.23,2.3.51,5.48.78,9,.27,3.52.49,6.7.62,9.01.13,2.31.17,3.74.1,3.74Z"/>
    <path d="M11.67,87.68s.27-.29.46-.91c.21-.62.18-1.6-.05-2.78-.43-2.39-.94-5.71-1.35-9.39-.42-3.68-.66-7.03-.77-9.45-.06-1.21-.08-2.19-.09-2.87,0-.68.01-1.06.05-1.06s.09.37.16,1.05c.06.68.15,1.65.26,2.86.21,2.41.52,5.75.93,9.42.41,3.67.86,6.99,1.19,9.39.18,1.2.16,2.25-.13,2.91-.28.66-.66.86-.66.84Z"/>
    <path d="M11.64,58.95s.28-.39.85-1.03c.14-.16.3-.33.48-.53.18-.18.35-.42.65-.6.15-.09.36-.15.56-.1.21.05.37.18.5.3.26.25.5.54.71.88.44.66.71,1.53.83,2.43.1.89.21,1.85.33,2.86.21,2.01.45,4.22.69,6.53.23,2.32.45,4.53.65,6.54.08,1,.24,1.97.1,2.91-.12.96-.65,1.73-1.13,2.31-.98,1.18-1.92,2.05-2.71,2.45-.39.2-.72.3-.94.34-.23.04-.35.04-.35.02-.01-.05.47-.11,1.19-.55.72-.43,1.59-1.3,2.51-2.5.46-.59.9-1.29.99-2.14.11-.85-.05-1.79-.16-2.8-.21-2.01-.45-4.22-.69-6.53-.23-2.32-.45-4.53-.65-6.54-.24-2-.17-3.88-.98-5.13-.39-.57-.85-1.31-1.31-1.01-.45.28-.81.74-1.12,1.01-.62.59-.97.9-1,.88Z"/>
    <path d="M13.63,63.24c.1.11-.39.68-1.1,1.28-.71.6-1.36.98-1.45.86-.09-.12.41-.69,1.1-1.28.7-.58,1.35-.97,1.45-.86Z"/>
    <path d="M14.43,67.69c.12.08-.27.86-1.08,1.54-.81.68-1.65.93-1.71.8-.07-.14.61-.58,1.36-1.21.75-.62,1.31-1.21,1.43-1.12Z"/>
    <path d="M15.44,71.53c.12.09-.39.99-1.27,1.92-.87.93-1.74,1.5-1.84,1.38-.1-.12.6-.85,1.44-1.76.85-.9,1.54-1.64,1.66-1.55Z"/>
    <path d="M15.8,76c.12.08-.49,1.18-1.47,2.35-.98,1.18-1.95,1.97-2.06,1.86-.11-.11.67-1.06,1.64-2.21.97-1.15,1.76-2.09,1.89-2Z"/>
    <path d="M7.07,81.46c-.09.12-1.06-.47-2.27-1.15-1.2-.69-2.21-1.21-2.15-1.36.05-.14,1.18.18,2.42.88,1.24.7,2.09,1.51,2,1.63Z"/>
    <path d="M8.24,77.5c-.1.12-1.29-.76-2.83-1.68-1.54-.93-2.87-1.57-2.81-1.72.05-.14,1.5.29,3.09,1.25,1.59.96,2.65,2.04,2.55,2.15Z"/>
    <path d="M6.87,70.45c-.1.12-1.05-.5-2.33-1.05-1.27-.56-2.37-.85-2.35-1,.02-.14,1.22-.09,2.57.51,1.35.59,2.2,1.44,2.11,1.55Z"/>
    <path d="M7.43,66.19c-.1.12-1.35-.82-3-1.79-1.65-.98-3.07-1.61-3.02-1.76.04-.14,1.6.29,3.3,1.29,1.7,1,2.82,2.15,2.73,2.26Z"/>
    <path d="M9.51,65.96c.02.15-.42.33-.97.39-.55.07-1.02,0-1.04-.14-.02-.15.42-.33.97-.39.55-.07,1.02,0,1.04.14Z"/>
    <path d="M10.86,70.74c.01.15-.64.33-1.46.41-.81.08-1.49.02-1.51-.13-.02-.15.63-.33,1.46-.41.82-.08,1.5-.02,1.51.13Z"/>
    <path d="M10.77,76.91c.02.15-.44.32-1.03.39-.58.07-1.07,0-1.09-.15-.02-.15.44-.32,1.03-.39s1.07,0,1.09.15Z"/>
    <path d="M11.47,82.53c.06.13-.5.5-1.29.49-.79,0-1.34-.38-1.28-.51.06-.14.61-.03,1.28-.03.67.01,1.22-.09,1.28.06Z"/>
    <path d="M5.94,92.23c-.14.03-.51-1.31-.64-2.99-.14-1.69.01-3.06.16-3.06.15,0,.25,1.36.38,3.02.13,1.66.25,3.01.1,3.04Z"/>
    <path d="M11.09,95.39c-.05.06-.49-.22-1.2-.66-.36-.22-.78-.47-1.26-.73-.24-.14-.49-.25-.78-.43-.28-.17-.58-.51-.65-.89-.14-.74-.03-1.31-.03-1.87.02-.56.05-1.06.08-1.47.06-.84.14-1.36.21-1.36s.14.52.17,1.36c.02.42.03.92.04,1.48.03.54-.05,1.21.06,1.73.08.51.67.7,1.16,1.02.48.3.89.59,1.23.85.67.53,1.02.92.98.97Z"/>
    <path d="M7.99,93.13c-.09.12-.5-.05-.96-.29-.46-.24-.83-.47-.79-.62.04-.14.53-.13,1.04.14.52.26.81.65.71.77Z"/>
    <path d="M49.19,71.04s-.09.16-.3.44c-.23.27-.59.65-1.12,1.05-1.05.85-2.84,1.61-4.96,2.62-1.03.56-2.12,1.25-3.31,1.95-1.17.74-2.43,1.54-3.75,2.38-2.64,1.67-5.55,3.5-8.6,5.43-3.06,1.92-5.98,3.73-8.56,5.46-1.32.83-2.45,1.78-3.49,2.69-.52.46-1,.92-1.45,1.37-.44.44-.92.98-1.65,1.05-.37.02-.73-.22-.87-.52-.15-.3-.18-.59-.21-.86-.05-.53-.09-1.03-.13-1.5-.08-.94-.14-1.74-.19-2.4-.04-.66-.08-1.17-.1-1.52-.02-.35-.02-.53,0-.53.02,0,.06.18.11.52.05.35.11.85.2,1.51.08.66.17,1.46.29,2.39.05.47.11.96.17,1.49.04.51.23,1.07.72,1.04.48-.05.94-.5,1.37-.96.45-.47.93-.94,1.45-1.41,1.04-.94,2.18-1.92,3.5-2.77,2.6-1.77,5.51-3.59,8.56-5.51,3.06-1.91,5.97-3.73,8.62-5.39,1.33-.82,2.59-1.6,3.77-2.34,1.22-.69,2.33-1.36,3.39-1.91,2.17-.97,3.94-1.67,5.01-2.44,1.08-.75,1.5-1.36,1.55-1.32Z"/>
    <path d="M12.59,91.96c.08.01.02.36.33.66.27.29,1.02.19,1.05-.48.05-.67-.18-1.38-.52-1.58-.36-.25-.67-.1-.7-.16-.02-.03.02-.12.18-.19.15-.08.42-.11.71.02.3.12.55.43.69.78.13.36.23.74.18,1.21-.03.46-.4.95-.85,1.02-.43.1-.85-.09-1.03-.36-.37-.56-.08-.96-.04-.91Z"/>
    <path d="M42.5,72.67c.06.03.04.34-.28.76-.16.2-.45.43-.84.47-.19.02-.42,0-.62-.12-.21-.12-.36-.33-.43-.55-.13-.45,0-.91.31-1.19.3-.26.65-.32.91-.31.54.04.77.3.74.35-.03.07-.32-.03-.72.03-.2.03-.42.12-.58.28-.14.15-.21.43-.14.67.12.48.82.37,1.09.1.32-.27.48-.53.56-.49Z"/>
    <path d="M29.01,55.42c.08.12-2.57,2.08-5.94,4.38-3.35,2.33-6.34,3.82-6.41,3.66-.04-.07.66-.51,1.78-1.23,1.12-.72,2.64-1.74,4.32-2.89,3.36-2.29,6.16-4.05,6.24-3.93Z"/>
    <path d="M28.79,58.24c.02.07-.68.33-1.51,1.21-.42.43-.95.96-1.6,1.45-.65.5-1.4.99-2.19,1.48-3.15,1.98-5.76,3.49-5.84,3.36-.08-.13,2.41-1.84,5.55-3.82,1.6-.97,2.92-1.91,3.82-2.76.93-.84,1.76-1.01,1.77-.93Z"/>
    <path d="M67.4,63.86s-.08.13-.27.34c-.19.21-.48.51-.87.88-.79.73-1.98,1.75-3.64,2.74-1.65,1-3.76,1.98-6.23,2.64-2.47.65-5.32.96-8.27.6-2.94-.35-5.67-1.34-7.82-2.75-2.16-1.41-3.73-3.19-4.74-4.84-1.03-1.65-1.51-3.17-1.74-4.22-.1-.53-.17-.94-.18-1.23-.02-.28-.03-.43,0-.43.13-.05.17,2.47,2.25,5.68,1.03,1.58,2.58,3.28,4.68,4.62,2.1,1.35,4.74,2.3,7.61,2.64,2.87.35,5.65.07,8.08-.54,2.43-.61,4.52-1.54,6.16-2.49,3.3-1.91,4.9-3.73,4.98-3.63Z"/>
    <path d="M46.17,69.99c-.02.05-.96-.21-2.35-.96-1.38-.75-3.17-2.05-4.73-3.89-1.56-1.85-2.55-3.82-3.06-5.31-.51-1.49-.62-2.46-.56-2.47.09-.02.33.91.92,2.33.59,1.42,1.61,3.3,3.12,5.09,1.52,1.79,3.21,3.1,4.51,3.91,1.3.82,2.19,1.21,2.15,1.29Z"/>
    <path d="M55.42,38.55c-.1.12-1.14-.66-2.47-1.52-1.33-.87-2.45-1.5-2.39-1.65.06-.13,1.32.3,2.69,1.19,1.37.89,2.27,1.87,2.17,1.98Z"/>
    <path d="M55.07,39.25c-.12.1-.79-.56-1.73-1.2-.93-.66-1.77-1.07-1.72-1.22.04-.14,1.03.07,2.03.77,1,.7,1.53,1.56,1.42,1.65Z"/>
    <path d="M53.72,45.77c.08.13-1.57,1.3-3.69,2.62-2.12,1.32-3.9,2.29-3.98,2.16-.08-.13,1.58-1.3,3.69-2.62s3.9-2.28,3.98-2.16Z"/>
    <path d="M54.06,46.89c.09.12-1.18,1.19-2.92,2.25-1.74,1.06-3.28,1.69-3.34,1.55-.07-.14,1.34-.97,3.06-2.02,1.72-1.04,3.11-1.91,3.2-1.78Z"/>
    <path d="M74.28,30.44s.09.06.08.22c-.02.15-.15.36-.41.47-.26.13-.68.03-.91-.24-.25-.26-.39-.63-.38-1.02,0-.39.17-.76.44-1,.28-.25.63-.29.87-.25.54.1.64.51.56.51-.07.04-.25-.16-.6-.13-.35,0-.73.33-.74.88-.02.54.36.95.63.87.33-.05.38-.31.45-.32Z"/>
    <path d="M73.68,38.25s.15.24-.08.65c-.13.18-.47.42-.87.15-.26-.3-.31-.51-.39-.84-.05-.31-.01-.64.15-.91.17-.27.41-.4.62-.45.46-.1.67.18.61.23-.04.06-.25,0-.49.14-.26.13-.45.45-.36.9.03.2.15.49.19.55,0,.04.17.05.24-.03.2-.17.29-.43.37-.39Z"/>
  </g>
  <g>
    <path d="M113.69,38.09c-.07,0-.11-.59-.12-1.53,0-.48,0-1.02.03-1.67.03-.32.08-.68.25-1.03.17-.36.46-.64.74-.88,1.14-.92,2.25-1.62,3.09-2.07.41-.24.85-.37,1.16-.28.32.1.33.34.31.33-.04.03-.12-.12-.34-.12-.23,0-.55.12-.92.4-.77.53-1.84,1.27-2.94,2.16-.56.42-.78.93-.84,1.55-.06.62-.11,1.17-.15,1.64-.09.94-.19,1.52-.27,1.51Z"/>
    <path d="M105.12,34.95s-.14-.26-.25-.76c-.13-.5-.15-1.28-.07-2.18.05-.44-.02-.98.3-1.55.34-.54.86-.82,1.32-1.2.97-.72,2.03-1.52,3.14-2.36.29-.21.67-.42,1.1-.41.42,0,.76.17,1.06.31.58.3,1.15.59,1.68.87,1.06.57,2.02,1.08,2.83,1.51,1.6.87,2.57,1.45,2.54,1.51-.04.07-1.07-.39-2.72-1.17-.82-.4-1.79-.87-2.87-1.4-.54-.27-1.1-.55-1.69-.84-.29-.14-.57-.25-.84-.25-.26,0-.52.12-.79.31-1.12.82-2.18,1.6-3.15,2.31-.48.36-1,.66-1.24,1.04-.25.37-.24.89-.3,1.34-.3,1.79.04,2.89-.06,2.91Z"/>
    <path d="M107.12,30.03c.05-.15,1.62.35,3.33,1.35,1.7.98,3.13,1.63,3.09,1.77-.04.15-1.63-.3-3.36-1.3-1.71-.99-3.11-1.69-3.07-1.82Z"/>
    <path d="M106.34,30.35c.07-.15,1.64.56,3.42,1.63,1.77,1.08,3.3,1.72,3.27,1.86-.04.16-1.74-.29-3.54-1.39-1.79-1.09-3.2-1.98-3.15-2.1Z"/>
    <path d="M111.71,35.35s.13.03.25.09c.06.03.13.06.21.09.06.02.06,0,.07-.01,0-.04-.02.02,0-.08.02-.09.04-.19.04-.28.02-.32-.13-.42-.34-.46-.18-.03-.26.08-.34.08-.03,0-.07-.06-.05-.17.02-.11.15-.25.33-.3.18-.05.42-.04.64.12.24.2.31.47.3.74,0,.15-.04.29-.08.41-.04.12-.16.37-.23.5-.22-.04-.44-.12-.56-.21-.1-.08-.17-.16-.21-.24-.09-.16-.08-.27-.03-.29Z"/>
    <path d="M106.49,32.82s.09,0,.16.07c.03.04.06.09.09.15.03.07.04.05.05.07.07,0,.07,0,.17-.24.05-.16-.17-.42-.35-.53-.19-.13-.34-.22-.32-.3.01-.07.19-.12.48-.05.14.04.32.11.48.26.15.14.32.42.25.73-.07.27-.18.47-.5.61-.28.12-.55-.05-.62-.15.08-.35.06-.39.07-.47,0-.08.02-.13.05-.15Z"/>
    <path d="M98.82,30.11s-.12-.18-.07-.53c.05-.35.27-.84.74-1.26.47-.42,1.1-.75,1.77-1.14.68-.38,1.42-.8,2.2-1.25.39-.22.78-.43,1.15-.63.38-.19.71-.42,1.15-.55.46-.14.94.05,1.23.23.29.19.57.36.82.52.99.64,1.58,1.07,1.54,1.13s-.7-.25-1.74-.8c-.52-.22-1.14-.8-1.72-.6-.31.09-.66.33-1.03.53-.37.21-.75.42-1.14.64-.79.43-1.54.84-2.22,1.21-.69.37-1.33.66-1.76,1-.92.69-.85,1.52-.92,1.5Z"/>
    <path d="M122.78,63.78s-.42-.49-1.09-1.44c-.66-.96-1.61-2.34-2.79-4.05-2.34-3.43-5.54-8.19-9.04-13.47-1.75-2.64-3.41-5.16-4.92-7.45-.75-1.15-1.47-2.24-2.14-3.26-.64-1.03-1.36-1.93-1.74-2.96-.18-.51-.26-1.06-.12-1.56.14-.5.48-.9.87-1.11.78-.44,1.59-.36,2.15-.21.57.16.98.37,1.25.51.27.14.41.23.4.25-.02.06-.6-.28-1.7-.55-.54-.12-1.28-.14-1.94.27-.33.2-.59.53-.69.94-.1.41-.02.88.15,1.34.36.93,1.09,1.82,1.75,2.85.68,1.01,1.41,2.09,2.18,3.23,1.52,2.28,3.2,4.79,4.96,7.43,3.51,5.28,6.65,10.07,8.91,13.56,1.12,1.75,2.02,3.16,2.65,4.14.62.99.94,1.54.91,1.56Z"/>
    <path d="M122.94,62.11s-.33-.46-.83-1.33c-.5-.87-1.22-2.14-2.14-3.68-1.82-3.1-4.47-7.3-7.59-11.82-3.12-4.51-6.1-8.49-8.28-11.35-1.08-1.42-2.04-2.59-2.28-3.63-.13-.5-.1-.92-.04-1.18.06-.27.14-.39.15-.38.06,0-.22.56.09,1.51.28.95,1.24,2.05,2.38,3.45,2.26,2.81,5.29,6.76,8.43,11.28,3.13,4.52,5.73,8.78,7.47,11.93.88,1.57,1.55,2.87,2,3.77.44.9.67,1.41.64,1.43Z"/>
    <path d="M129.48,70.43c-.09-.01.01-.69-.14-1.74-.14-1.05-.67-2.44-1.66-3.72-.98-1.26-2.32-1.98-3.28-2.44-.97-.45-1.62-.66-1.6-.74.02-.06.7,0,1.74.38,1.02.38,2.48,1.08,3.56,2.46,1.05,1.36,1.56,2.89,1.61,4.02.06,1.13-.19,1.79-.24,1.78Z"/>
    <path d="M128.1,71.36s.12.19-.08.48c-.1.14-.29.28-.56.27-.13,0-.31-.07-.41-.24-.08-.15-.08-.31-.08-.45.1-1.02.05-2.42-.48-3.85-.52-1.43-1.44-2.51-2.26-3.06-.82-.56-1.47-.63-1.46-.72,0-.05.7-.13,1.66.39.95.5,2.02,1.66,2.57,3.2.58,1.53.56,3.07.36,4.07-.02.11-.02.21,0,.27.01.04.05.08.12.09.14.03.29-.03.38-.11.18-.16.19-.35.24-.34Z"/>
    <path d="M129.48,70.43s.36.45.93,1.31c.57.86,1.38,2.12,2.36,3.68,1.97,3.12,4.63,7.48,7.5,12.33,2.86,4.85,5.38,9.29,7.16,12.53.89,1.62,1.6,2.93,2.08,3.85.48.92.73,1.43.69,1.45s-.34-.46-.88-1.35c-.53-.89-1.29-2.17-2.23-3.76-1.87-3.18-4.44-7.58-7.29-12.44-2.87-4.84-5.47-9.23-7.36-12.41-.94-1.59-1.69-2.88-2.22-3.77-.52-.89-.79-1.4-.75-1.42Z"/>
    <path d="M128.1,71.36s.39.47,1.01,1.37c.62.9,1.5,2.22,2.56,3.86,2.13,3.28,5,7.85,8.05,12.98,3.04,5.13,5.69,9.84,7.54,13.28.93,1.72,1.67,3.12,2.16,4.1.49.98.75,1.52.72,1.54-.03.02-.35-.5-.9-1.44-.55-.95-1.33-2.32-2.31-4.01-1.94-3.39-4.63-8.07-7.68-13.19-3.04-5.12-5.86-9.73-7.9-13.05-1.02-1.67-1.84-3.01-2.41-3.95-.56-.94-.86-1.46-.83-1.48Z"/>
    <path d="M125.75,75.73c0-.08.27-.09.62-.24.35-.14.79-.45,1.23-.87.85-.85,1.38-1.75,1.53-1.67.12.05-.19,1.1-1.15,2.07-.48.46-1.04.78-1.5.85-.46.07-.74-.06-.72-.13Z"/>
    <path d="M125.91,96.74c-.08,0-.1-1.18-.11-3.09,0-1.9,0-4.53,0-7.44,0-2.9-.01-5.53-.01-7.44,0-1.9.03-3.08.11-3.09.07,0,.18,1.17.28,3.08.09,1.9.17,4.54.17,7.44,0,2.91-.06,5.54-.15,7.45-.09,1.9-.2,3.08-.27,3.08Z"/>
    <path d="M126.11,96.68s-.13.41-.78.71c-.16.07-.35.13-.57.15-.2,0-.48.09-.75-.21-.16-.33-.09-.55-.13-.82-.02-.27-.03-.55-.05-.85-.13-2.39-.24-5.68-.25-9.33,0-3.65.1-6.95.23-9.33.06-1.19.13-2.16.19-2.82.06-.67.11-1.03.15-1.03.08,0,.07,1.48.04,3.87-.03,2.39-.07,5.68-.07,9.32,0,3.64.05,6.93.09,9.32,0,.3,0,.58.01.85.01.25-.02.57.04.67.04.1.29.12.47.12.19,0,.36-.04.51-.09.6-.21.82-.55.86-.52Z"/>
    <path d="M124.13,97.27s-.34-.12-.92-.41c-.29-.16-.63-.31-1.04-.57-.21-.13-.41-.42-.44-.71-.04-.29-.01-.56-.01-.85.03-1.15.07-2.52.11-4.04,0-1.52-.02-3.2-.03-4.95-.02-3.52.02-6.71.17-9.01.07-1.15.15-2.08.22-2.73.08-.64.14-.99.18-.99.08,0,.02,1.43-.01,3.73-.04,2.3-.03,5.48,0,9,0,1.76,0,3.43-.01,4.96-.06,1.52-.16,2.9-.23,4.05-.04.6-.12,1.08.25,1.31.34.25.71.46.97.63.54.35.83.56.81.6Z"/>
    <path d="M118.2,67.57c.08.04-.15.48-.11,1.23.03.74.37,1.76,1.02,2.7.64.96,1.59,1.42,2.33,1.47.74.07,1.21-.11,1.24-.03.03.05-.4.38-1.25.41-.42,0-.93-.07-1.43-.33-.5-.26-.97-.69-1.33-1.2-.72-1.03-1.03-2.18-.96-3.02.06-.85.44-1.26.49-1.22Z"/>
    <path d="M116.45,66.96c.08,0,.04.64.17,1.64.13.99.46,2.37,1.29,3.63.42.61.91,1.18,1.39,1.62.46.43,1.01.71,1.44.96.44.24.81.37,1.08.41.26.04.41-.02.43.02.02.02-.12.17-.44.19-.31.02-.75-.07-1.24-.28-.47-.22-1.05-.46-1.61-.93-.54-.47-1.05-1.02-1.51-1.7-.9-1.37-1.18-2.86-1.22-3.9-.03-1.05.14-1.69.21-1.67Z"/>
    <path d="M98.64,53.39s-.09.03-.26.07c-.16.04-.42.08-.6.32-.3.5-.84,1.44-.48,2.5.16.53.55.99,1.12,1.34.56.34,1.26.64,1.95.99,1.4.69,2.93,1.46,4.55,2.26,3.22,1.62,6.12,3.1,8.21,4.21,1.04.55,1.88,1.01,2.46,1.33.58.33.89.52.87.55-.02.03-.36-.1-.96-.37s-1.47-.67-2.54-1.18c-2.13-1.01-5.06-2.45-8.28-4.07-1.61-.81-3.14-1.59-4.53-2.3-.69-.37-1.36-.67-1.97-1.06-.61-.39-1.09-.99-1.24-1.61-.17-.61-.11-1.21.07-1.67.21-.45.36-.8.62-1.08.27-.27.58-.28.75-.28.18,0,.27.02.27.04Z"/>
    <path d="M98.51,53.74s-.35.16-.58.75c-.05.14-.1.31-.08.47.01.13.15.3.3.44.31.28.8.48,1.32.75,2.06,1.04,4.89,2.52,8.01,4.17,3.11,1.66,5.92,3.18,7.93,4.31,2.02,1.13,3.25,1.86,3.21,1.93-.04.07-1.33-.55-3.39-1.59-2.06-1.04-4.89-2.52-8.01-4.17s-5.92-3.18-7.93-4.31c-.5-.29-.98-.51-1.34-.87-.17-.18-.32-.37-.35-.64,0-.24.07-.42.15-.57.32-.63.78-.71.77-.66Z"/>
    <path d="M119.55,65.66c-.04.07-1.28-.52-3.28-1.49-1.99-.98-4.75-2.34-7.79-3.84-3.03-1.53-5.75-2.97-7.68-4.07-.95-.56-1.8-.96-2.17-1.55-.19-.27-.24-.55-.21-.73.03-.17.09-.25.1-.24.05,0-.12.38.28.84.36.47,1.2.82,2.19,1.34,1.98,1,4.72,2.39,7.75,3.92,3.03,1.53,5.77,2.93,7.72,3.99,1.96,1.06,3.14,1.77,3.1,1.83Z"/>
    <path d="M99.03,30.45c-.06-.03-.08-.18.02-.39.08-.22.41-.49.8-.5.38-.02.67.13.85.26.04.03.08.07.11.1l.04.05s.02.01-.02,0c-.03-.02-.13.04-.13.08v.02s0,0,0,0h.08s.04.02.04.02h-.03s-.06,0-.06,0c-.04,0-.01.01-.02.02,0,.01,0,.03.02.04.02-.01-.01-.09.02-.11.03-.02.05-.06.16,0,.02.03.06.06.03.12,0,.04-.11.09-.15.07-.05-.02-.03-.01-.04-.01h-.06s-.08-.02-.13-.02c-.19-.03-.43-.08-.66-.07-.44-.01-.69.42-.85.35Z"/>
    <path d="M98.51,53.74c-.08,0-.13-1.32-.15-3.46-.02-2.14-.01-5.09.03-8.36.04-3.26.11-6.22.19-8.36.08-2.14.16-3.46.24-3.46.08,0,.13,1.33.15,3.47.02,2.14.01,5.09-.03,8.35s-.11,6.21-.19,8.35c-.08,2.14-.16,3.46-.24,3.46Z"/>
    <path d="M107.62,32.97c.05-.14.73-.04,1.47.36.74.4,1.2.91,1.11,1.02-.09.12-.68-.17-1.37-.54-.69-.37-1.26-.7-1.21-.84Z"/>
    <path d="M104.72,81.97s-.32-.07-.53-.56c-.23-.47-.09-1.33.5-2.01.56-.7,1.43-1.32,2.43-1.85,1-.53,2.08-1.11,3.18-1.79,1.1-.68,2.11-1.39,3-2.06.45-.33.84-.69,1.33-.96.47-.27,1.09-.33,1.53-.08.22.11.41.31.49.53.08.22.08.43.06.61-.04.36-.15.65-.25.87-.22.45-.44.62-.46.6-.04-.02.12-.25.26-.68.07-.22.14-.5.15-.81.02-.32-.09-.64-.42-.78-.33-.15-.75-.11-1.14.13-.39.23-.79.61-1.24.96-.89.71-1.91,1.44-3.02,2.13-2.21,1.43-4.53,2.16-5.61,3.43-.57.6-.72,1.26-.59,1.69.11.43.36.59.33.62Z"/>
    <path d="M105.68,82.45c-.07-.15,2.04-1.14,4.29-2.86,1.14-.84,2.06-1.73,2.81-2.33.76-.6,1.34-.79,1.37-.72.03.07-.45.37-1.12,1.02-.66.64-1.57,1.61-2.73,2.47-2.32,1.77-4.57,2.56-4.62,2.42Z"/>
    <path d="M112.45,86.68s-.14.21-.54.24c-.2,0-.45-.03-.71-.18-.25-.14-.49-.45-.54-.84-.1-.8.46-1.55,1.08-2.15.62-.63,1.4-1.21,2.23-1.77.83-.56,1.63-1.06,2.36-1.52.37-.22.7-.46,1.07-.64.36-.18.84-.27,1.21-.08.73.43.67,1.19.57,1.52-.12.37-.26.53-.29.51-.04-.02.04-.21.08-.55.05-.32-.03-.91-.52-1.13-.49-.22-1.13.31-1.85.79-.72.48-1.51,1-2.33,1.55-.82.55-1.57,1.1-2.19,1.68-.62.56-1.08,1.19-1.05,1.74.03.56.56.82.87.85.33.04.52-.07.54-.03Z"/>
    <path d="M112.66,86.87c-.08.01-.08-.48.41-.92.48-.43,1.17-.82,1.9-1.35,1.47-1.02,2.63-1.93,2.73-1.81.1.11-.91,1.21-2.42,2.26-.74.53-1.51.92-1.97,1.21-.47.3-.58.64-.66.63Z"/>
    <path d="M116.35,89.56s-.12.16-.34,0c-.1-.06-.19-.23-.18-.41.01-.18.1-.35.2-.49.37-.58,1.02-1.32,1.93-1.88.47-.28.88-.5,1.4-.63.14-.02.29-.03.46.04.17.07.29.26.31.39.04.26.02.42,0,.61-.08.71-.33,1.09-.39,1.06-.08-.03.03-.43,0-1.07,0-.15-.02-.36-.06-.49-.04-.08-.05-.08-.24-.05-.33.11-.8.35-1.21.6-.84.52-1.48,1.15-1.91,1.65-.22.24-.26.4-.18.53.07.12.17.11.19.15Z"/>
    <path d="M117.11,90.15c-.1-.11.17-.54.68-.91.5-.36,1.01-.49,1.07-.36.07.13-.29.46-.76.8-.47.34-.89.58-1,.47Z"/>
    <path d="M108.72,71.69s-.66.93-2.14,2c-.37.27-.79.54-1.26.8-.45.24-1.07.62-1.81.33-.32-.15-.66-.45-.67-.92.02-.48.27-.71.42-1,.36-.56.82-1.1,1.33-1.58,1.04-.96,2.19-1.65,3.25-2.21.53-.28,1.04-.53,1.52-.75.24-.09.44-.28.83-.27.42.07.55.43.6.66.11.52-.07.97-.27,1.29-.21.32-.46.53-.67.69-.42.3-.67.42-.69.39-.03-.03.19-.21.55-.55.17-.17.38-.39.54-.68.15-.29.26-.67.16-1.04-.04-.19-.17-.34-.27-.33-.11-.02-.36.14-.59.25-.47.24-.97.5-1.48.79-1.03.58-2.14,1.25-3.12,2.16-.49.46-.91.95-1.26,1.47-.16.26-.37.54-.35.71,0,.18.16.37.36.47.41.2.94-.03,1.39-.27.46-.24.88-.49,1.26-.73,1.5-.96,2.3-1.75,2.36-1.68Z"/>
    <path d="M102.72,66.56s-.13-.03-.27.05c-.15.08-.27.3-.08.51.18.21.57.29.97.14.41-.14.84-.46,1.33-.76.47-.32,1.02-.57,1.1-.86.05-.16.01-.29-.08-.34-.1-.07-.31-.08-.48-.08-.7,0-1.14.2-1.17.12-.04-.05.35-.4,1.15-.5.2-.01.42-.06.72.07.32.14.45.57.35.88-.09.35-.35.57-.58.73-.23.15-.46.3-.7.46-.48.3-.94.63-1.48.79-.53.17-1.17.03-1.43-.39-.13-.2-.17-.46-.06-.65.1-.18.26-.26.38-.28.28-.05.37.14.34.15Z"/>
    <path d="M126.65,80.34c.09-.13,2.06,1.23,4.59,2.73,2.53,1.51,4.66,2.59,4.6,2.73-.06.13-2.32-.74-4.87-2.27-2.56-1.52-4.41-3.09-4.32-3.2Z"/>
    <path d="M127.73,88.26c.05-.07.86.42,2.2,1.14,1.34.73,3.23,1.65,5.33,2.69,2.1,1.03,3.96,2.06,5.24,2.92,1.28.86,1.99,1.5,1.95,1.55-.05.07-.84-.46-2.16-1.22-1.32-.77-3.19-1.73-5.28-2.76-2.09-1.03-3.98-2.02-5.28-2.84-1.31-.81-2.05-1.42-2.01-1.48Z"/>
    <path d="M144.35,105.31c.09-.02.1.53.59,1.09.24.27.63.48,1.08.43.45-.05.87-.36.9-.88.04-1.1-.57-2.14-1.18-2.51-.29-.19-.61-.22-.78-.17-.18.05-.26.16-.29.14-.03,0-.03-.18.21-.33.23-.14.64-.18,1.06.03.81.4,1.57,1.51,1.53,2.9-.03.36-.2.73-.48.97-.28.24-.61.34-.92.36-.64.05-1.17-.32-1.42-.68-.51-.76-.34-1.35-.29-1.33Z"/>
    <path d="M145.26,106.01c-.08.13-.69-.27-.71-1.09,0-.2.03-.38.1-.55.07-.17.21-.36.43-.39.21-.02.33.11.36.21.03.11-.03.16-.06.15-.06-.03-.17-.05-.21.02,0,.02-.03.07-.04.17-.02.11-.03.25-.03.38,0,.56.27.99.17,1.1Z"/>
    <path d="M101.75,38.73c.07-.04.18.51.8.68.29.07.7-.03.92-.33.22-.3.26-.81.05-1.24-.2-.44-.58-.82-.93-1.12-.35-.29-.72-.49-1.04-.58-.16-.04-.31-.06-.44-.06-.13,0-.25.04-.41-.01-.33-.22.18-.25.07-.24,0,0,0-.06-.05-.05-.04,0-.06.09.03.09.09-.02.49-.17.88-.1.41.05.86.25,1.27.56.41.31.84.7,1.12,1.28.28.58.24,1.31-.15,1.78-.4.48-1.02.55-1.42.39-.42-.16-.61-.48-.68-.7-.07-.22-.04-.35,0-.35Z"/>
    <path d="M101.92,38.53c0,.07-.24.12-.57-.03-.16-.07-.35-.2-.51-.39-.08-.09-.15-.21-.21-.33-.07-.16-.09-.32-.06-.5.02-.26.28-.54.55-.48.18.01.35.16.39.21.07.07.13.13.18.2.11.13.19.26.25.37.11.23.13.38.08.41-.06.03-.17-.06-.34-.21-.09-.07-.19-.16-.3-.25-.1-.08-.31-.24-.27-.19,0,.02,0-.01,0,.03-.01.06,0,.15.01.2.03.09.07.17.12.24.09.15.2.27.31.36.21.19.39.27.37.35Z"/>
    <path d="M108.73,39.83s.48-.29,1.45-.42c.96-.14,2.39-.17,4.11.07,3.43.44,8.14,1.91,12.53,4.92,4.41,2.98,7.57,6.7,9.53,9.54.99,1.42,1.7,2.63,2.16,3.48.46.85.68,1.34.65,1.35-.04.02-.32-.43-.83-1.25-.52-.81-1.27-1.98-2.29-3.36-2.02-2.76-5.18-6.38-9.52-9.32-4.32-2.95-8.91-4.46-12.29-4.99-1.69-.29-3.08-.32-4.03-.24-.95.07-1.46.25-1.47.21Z"/>
    <path d="M108.46,39.05s.1-.1.33-.25c.22-.15.58-.34,1.06-.53.95-.39,2.47-.69,4.31-.53,1.85.13,3.99.74,6.23,1.66,2.25.92,4.61,2.2,6.91,3.79,4.62,3.18,8.1,6.96,10.3,9.88,1.1,1.46,1.9,2.72,2.42,3.6.5.89.77,1.39.73,1.41-.03.02-.36-.45-.91-1.3-.57-.84-1.41-2.05-2.54-3.47-2.25-2.84-5.74-6.52-10.3-9.66-2.28-1.57-4.6-2.84-6.8-3.78-2.2-.94-4.28-1.56-6.07-1.74-1.79-.2-3.26.03-4.21.35-.96.31-1.44.63-1.46.58Z"/>
    <path d="M142.12,91.15c-.09-.06,1.02-1.25,1.77-3.68.78-2.4,1.04-5.94.98-9.82-.1-3.88-.48-7.4-1.36-9.77-.84-2.39-1.88-3.62-1.8-3.68.02-.02.31.26.73.85.42.59.96,1.49,1.43,2.7,1,2.41,1.44,5.99,1.54,9.89.06,3.91-.26,7.5-1.16,9.95-.43,1.22-.97,2.14-1.39,2.72-.42.59-.73.85-.74.84Z"/>
    <path d="M142.82,92.65s.26-.34.63-.99c.38-.65.84-1.64,1.23-2.92.76-2.57,1.31-6.3,1.24-10.41-.06-4.12-.64-7.83-1.38-10.42-.34-1.3-.78-2.3-1.08-2.99-.34-.67-.54-1.04-.5-1.06.03-.02.29.31.69.97.36.67.86,1.67,1.26,2.98.85,2.6,1.5,6.35,1.56,10.52.08,4.17-.54,7.94-1.41,10.54-.45,1.3-.97,2.29-1.42,2.92-.44.63-.79.9-.81.87Z"/>
    <path d="M143.66,93.93c-.09-.05.89-1.58,1.85-4.3.46-1.37.95-3.02,1.28-4.89.33-1.88.55-3.97.6-6.17.11-4.41-.51-8.38-1.15-11.19-.31-1.41-.66-2.53-.95-3.28-.28-.75-.48-1.16-.45-1.18.03-.02.29.36.64,1.1.35.74.76,1.86,1.13,3.27.74,2.82,1.44,6.83,1.32,11.3-.05,2.23-.28,4.35-.65,6.25-.36,1.9-.9,3.57-1.41,4.94-.54,1.36-1.08,2.42-1.5,3.12-.43.69-.68,1.07-.72,1.05Z"/>
    <path d="M113.72,36.92s.52-.05,1.46-.04c.47,0,1.04.08,1.71.14.66.1,1.42.2,2.23.4,3.3.7,7.64,2.65,11.71,5.78,2.05,1.54,3.87,3.18,5.45,4.73,1.62,1.55,2.78,3.19,3.76,4.55.99,1.39,1.43,2.7,1.83,3.53.38.85.63,1.3.59,1.32-.03.02-.35-.4-.78-1.23-.46-.82-.95-2.09-1.95-3.4-1-1.32-2.19-2.93-3.79-4.41-1.59-1.52-3.41-3.13-5.43-4.65-4.03-3.09-8.25-5.06-11.48-5.84-3.22-.85-5.32-.74-5.31-.87Z"/>
    <path d="M152.51,72.11s-.02-.21-.02-.62c0-.4,0-1,0-1.77.02-1.53-.09-3.78.33-6.52.18-1.36.46-2.85.35-4.43-.07-1.58-.73-3.21-2.1-4.35-1.34-1.17-3.08-1.96-4.81-2.95-1.72-.98-3.49-2.01-5.3-3.08-7.21-4.28-13.66-8.31-18.51-10.86-2.45-1.24-4.47-2.16-5.86-2.82-.69-.34-1.23-.6-1.59-.78-.36-.18-.55-.29-.54-.31,0-.02.21.05.58.21.37.16.92.39,1.63.68,1.41.61,3.46,1.47,5.94,2.67,4.93,2.48,11.41,6.45,18.62,10.74,1.81,1.06,3.58,2.09,5.28,3.09,1.69.98,3.46,1.79,4.87,3.04.7.62,1.29,1.35,1.65,2.18.37.82.53,1.68.57,2.51.09,1.66-.21,3.16-.42,4.51-.47,2.69-.41,4.93-.5,6.46-.03.77-.07,1.37-.1,1.77-.04.4-.07.62-.09.61Z"/>
    <path d="M152.3,54.89c-.08-.12.53-.69,1.37-1.27.84-.58,1.59-.94,1.68-.82.09.12-.53.69-1.37,1.27-.84.58-1.59.94-1.68.82Z"/>
    <path d="M153.98,56.94c-.11-.1.31-.7,1.05-1.18.73-.49,1.44-.65,1.5-.51.06.14-.51.51-1.2.96-.68.45-1.24.84-1.35.73Z"/>
    <path d="M157.01,69.18s-.02-.21-.02-.62c0-.4.02-1,.03-1.76.03-1.53-.01-3.75.06-6.49.02-1.36.18-2.9.28-4.47.02-.79-.12-1.56-.6-2.23-.46-.67-1.11-1.26-1.82-1.79-3.02-1.91-6.53-3.88-10.14-5.96-7.28-4.11-13.88-7.83-18.65-10.52-2.38-1.36-4.3-2.47-5.63-3.23-.66-.39-1.17-.7-1.52-.91-.34-.21-.52-.33-.51-.35,0-.02.2.07.56.25.36.19.89.46,1.56.82,1.35.73,3.3,1.78,5.71,3.08,4.81,2.62,11.47,6.24,18.74,10.38,3.63,2.1,7.08,4.04,10.16,6.03.74.55,1.42,1.17,1.92,1.92.53.74.7,1.69.66,2.51-.12,1.64-.3,3.1-.34,4.47-.12,2.73-.14,4.95-.23,6.49-.04.77-.09,1.36-.13,1.76-.04.4-.07.61-.09.61Z"/>
    <path d="M149.97,71.23c.04-.07.5.16,1.22.51.36.16.8.37,1.27.45.44.08.94-.13,1.41-.48.47-.34.88-.76,1.27-1.13.39-.38.77-.68,1.08-.94.63-.52,1.05-.81,1.1-.76.05.05-.27.44-.82,1.03-.28.29-.62.64-.99,1.02-.37.39-.78.83-1.31,1.22-.51.38-1.19.68-1.82.53-.58-.14-1.01-.4-1.36-.61-.7-.44-1.07-.79-1.03-.85Z"/>
    <path d="M156.41,88.8c-.07-.01.04-1.12.07-2.92.03-1.8.07-4.29.12-7.04.24-2.76.26-5.22.36-7.04.09-1.81.29-2.92.36-2.91.08,0,.02,1.12.02,2.92,0,1.79.04,4.32-.2,7.04-.06,2.74-.13,5.24-.28,7.05-.13,1.81-.38,2.91-.45,2.9Z"/>
    <path d="M152.02,91.03c0-.08.24-.15.63-.38.39-.23.93-.53,1.52-.87,1.19-.69,2.15-1.25,2.24-1.15.11.13-.75.92-1.96,1.62-.61.35-1.19.62-1.65.76-.45.15-.79.1-.78.02Z"/>
    <path d="M148.91,89.8c.13-.11.64.42,1.31.88.66.47,1.35.58,1.35.74.02.14-.83.28-1.65-.29-.79-.56-1.1-1.25-1-1.33Z"/>
    <path d="M151.78,90.85c-.08,0-.1-1.01-.08-2.65.02-1.63.08-3.89.19-6.38s.23-4.74.35-6.37c.12-1.63.23-2.64.3-2.64.08,0,.1,1.01.08,2.65-.02,1.63-.08,3.89-.19,6.38s-.23,4.74-.35,6.37c-.12,1.63-.23,2.64-.31,2.63Z"/>
    <path d="M149.28,90.23c-.07.02-.31-1.05-.26-2.79.03-1.74.33-4.09.45-6.71.14-2.62.21-4.99.28-6.71.07-1.72.13-2.78.21-2.78.07,0,.14,1.07.17,2.79.03,1.72.02,4.11-.12,6.74-.12,2.64-.48,5-.61,6.7-.15,1.71-.05,2.76-.13,2.77Z"/>
    <path d="M154.78,105.38c-.08,0-.1-.91-.13-2.36-.03-1.46-.08-3.47-.09-5.7,0-2.23.1-4.26.27-5.71.17-1.46.38-2.34.44-2.33.08.01.01.91-.06,2.36-.07,1.45-.12,3.46-.11,5.68,0,2.22,0,4.24-.07,5.71-.07,1.46-.19,2.36-.26,2.36Z"/>
    <path d="M151.57,101.18c-.14-.03.03-2.18-.03-4.86-.05-2.68.1-4.88.27-4.87.13,0,.22,2.17.27,4.87.06,2.71-.36,4.9-.52,4.86Z"/>
    <path d="M150.14,105.54c-.02-.08.3-.18.59-.56.31-.38.46-1.03.49-1.83.09-1.62.29-2.93.44-2.92.15,0,.2,1.33.1,2.96-.02.82-.28,1.67-.75,2.06-.45.41-.88.37-.87.3Z"/>
    <path d="M147.07,108.45c.02-.08.49.04,1.24-.03.75-.05,1.74-.34,2.76-.92,2.08-1.12,3.63-2.22,3.72-2.13.12.13-1.34,1.46-3.46,2.6-1.05.61-2.2.88-3.01.82-.82-.04-1.27-.3-1.25-.36Z"/>
    <path d="M126.29,96.1c.08-.13,4.96,2.65,10.91,6.21,5.95,3.56,10.71,6.55,10.63,6.68-.08.13-4.96-2.65-10.91-6.21-5.95-3.56-10.71-6.55-10.63-6.68Z"/>
    <path d="M99.85,79.62c.1-.04.37,1.51,1.99,3.28.8.88,1.91,1.77,3.28,2.55,1.37.79,2.97,1.49,4.65,2.27,3.35,1.59,6.2,3.36,8.27,4.6,1.03.63,1.87,1.14,2.43,1.51.57.37.87.59.86.62s-.36-.12-.96-.43c-.6-.31-1.46-.78-2.52-1.36-2.12-1.16-4.99-2.87-8.31-4.44-1.66-.78-3.28-1.5-4.67-2.33-1.39-.83-2.53-1.79-3.32-2.73-.8-.94-1.25-1.85-1.47-2.5-.22-.65-.25-1.03-.23-1.04Z"/>
    <path d="M101.38,82.67s-.34-.15-.71-.67c-.38-.51-.8-1.34-1.09-2.43-.15-.54-.24-1.18-.26-1.83-.04-.65-.07-1.35-.1-2.09-.05-1.47-.05-3.09-.03-4.78.07-3.38.13-6.44.18-8.66.02-2.21,0-3.58.08-3.59.04,0,.09.34.15.96.06.62.12,1.52.15,2.63.08,2.22.04,5.29-.02,8.67-.02,1.69-.04,3.3-.02,4.76.05,1.46,0,2.79.24,3.84.23,1.06.58,1.89.89,2.41.3.53.57.75.54.79Z"/>
    <path d="M103.23,82.48c-.06.14-1.03-.33-1.5-1.49-.48-1.15-.12-2.17.01-2.11.15.03.07.93.49,1.9.39.99,1.09,1.56,1,1.69Z"/>
    <path d="M120.74,67.26s-.19,0-.45.13c-.26.12-.59.43-.62.96-.05.51.08,1.19.56,1.66.23.22.6.5.88.64.32.14.73.19,1.08.12.34-.04.55-.34.73-.67.16-.33.23-.69.22-1.03-.01-.69-.35-1.26-.76-1.59-.85-.69-1.64-.55-1.63-.65,0-.03.17-.11.51-.11.33,0,.84.09,1.35.45.51.34.98,1.03,1.03,1.87.02.42-.04.86-.24,1.28-.1.21-.22.41-.39.59-.16.19-.45.34-.7.38-2.12.31-3.37-1.83-3.02-3.01.09-.64.59-1.04.93-1.1.35-.09.54.04.53.07Z"/>
    <path d="M123.93,71.28c-.05-.06.35-.36.56-1.06.11-.34.12-.77.03-1.23-.09-.45-.38-.91-.67-1.41-.28-.44-.7-.82-1.08-1.12-.39-.31-.75-.49-1.11-.54-.71-.11-1.1.24-1.15.17-.07-.02.28-.57,1.18-.56.43,0,.94.21,1.37.52.44.31.9.68,1.26,1.24.3.51.62,1.03.7,1.61.09.55.02,1.07-.16,1.46-.36.78-.9.99-.92.92Z"/>
    <path d="M124.88,71.89c-.05-.07.46-.34.79-1.08.18-.38.21-.8.17-1.39-.04-.57-.08-1.14-.42-1.66-.32-.55-.69-1.05-1.06-1.45-.37-.43-.73-.63-1.15-.71-.81-.13-1.37-.07-1.37-.16,0-.05.5-.26,1.43-.22.23.02.49.07.75.2.27.13.49.33.7.54.43.42.83.94,1.17,1.53.4.61.45,1.35.45,1.92.03.56-.07,1.19-.32,1.58-.5.82-1.13.96-1.14.9Z"/>
    <path d="M125.19,73.51c-.05-.15.37-.39.83-.68.46-.28.74-.61.88-.55.15.04,0,.65-.58,1.01-.56.36-1.09.36-1.13.23Z"/>
    <path d="M130.35,71.28c-.09-.03.24-.83.2-2.16-.02-1.33-.56-3.13-1.77-4.78-.59-.82-1.25-1.57-1.87-2.17-.61-.6-1.37-.79-2.03-.92-1.32-.25-2.15-.1-2.16-.17-.03-.07.83-.38,2.22-.21.67.08,1.58.27,2.3.93.7.63,1.36,1.36,1.98,2.23,1.26,1.72,1.79,3.7,1.71,5.1-.06,1.42-.54,2.19-.58,2.16Z"/>
    <path d="M141.98,58.95c.06.06-.47.38-.5,1.19-.01.39.15.84.55,1.14.39.3.99.45,1.53.28.57-.15.75-.66.64-1.17-.09-.5-.39-.9-.69-1.16-.63-.53-1.21-.52-1.2-.61-.02-.05.61-.22,1.43.31.39.26.79.72.95,1.36.07.32.09.69-.08,1.05-.16.37-.53.63-.89.74-.74.23-1.51.02-2.01-.4-.52-.42-.7-1.09-.62-1.56.07-.49.31-.83.51-.99.21-.17.36-.2.37-.17Z"/>
    <path d="M131.38,67.12c0-.09,1.23-.22,3.17-.78,1.94-.53,4.56-1.49,7.47-2.52,1.43-.53,2.99-.84,3.64-1.87.32-.5.31-1.11.18-1.65-.13-.54-.39-1.01-.69-1.39-.6-.77-1.34-1.14-1.85-1.33-.52-.18-.84-.2-.83-.25,0-.03.32-.08.89.05.56.13,1.38.48,2.08,1.29.35.4.66.91.83,1.52.17.59.22,1.36-.18,2.02-.39.66-1.07,1.06-1.76,1.36-.7.29-1.41.5-2.14.77-2.91,1.03-5.57,1.94-7.55,2.38-.99.23-1.81.36-2.38.4-.57.05-.88.03-.89,0Z"/>
    <path d="M131.38,67.12s-.29-.08-.46-.54c-.18-.44-.08-1.24.52-1.84.58-.6,1.35-1.1,2.17-1.75.83-.62,1.75-1.3,2.71-2.01.97-.7,1.89-1.37,2.73-1.98.85-.59,1.58-1.18,2.34-1.52.75-.35,1.47-.34,1.91-.19.45.14.61.36.59.38-.03.04-.23-.11-.64-.17-.41-.07-1.03-.02-1.69.33-.66.35-1.37.96-2.21,1.58-.83.62-1.75,1.3-2.71,2.01-.97.7-1.89,1.37-2.73,1.98-.83.61-1.65,1.11-2.19,1.61-.55.5-.68,1.12-.59,1.52.08.4.29.56.26.59Z"/>
    <path d="M142.64,57.25s-.05-.22.23-.41c.27-.17.63-.31,1.14-.45.49-.12,1.18-.2,1.86.13.17.08.33.19.48.33.16.17.22.23.37.38.29.28.51.66.63,1.02.14.36.27.71.4,1.05.14.31.26.75.21,1.11-.02.37-.12.69-.24.98-.12.31-.36.57-.59.71-.47.29-.9.34-1.18.38-.28.03-.44.02-.45-.02,0-.04.14-.1.4-.19.25-.1.65-.21,1-.49.18-.14.32-.32.39-.56.09-.26.15-.55.16-.84.01-.31-.06-.55-.21-.89-.13-.33-.26-.67-.4-1.02-.13-.36-.29-.64-.51-.87-.1-.1-.28-.29-.36-.38-.1-.1-.22-.19-.34-.26-.51-.28-1.09-.27-1.56-.2-.47.08-.88.17-1.11.26-.24.09-.29.23-.33.22Z"/>
    <path d="M147.26,60.31s.14.04.34.16c.19.11.48.3.83.28.84.08.63-1.37.08-2.37-.28-.51-.69-.99-1.01-1.42-.33-.41-.67-.79-.97-.87-.37-.07-.72-.11-.86-.01-.17.09-.18.23-.21.23-.03.02-.13-.17.08-.4.1-.11.28-.18.46-.2.19-.02.36-.03.6,0,.54.1.9.52,1.29.92.36.44.77.87,1.11,1.48.32.6.49,1.23.5,1.83,0,.3-.05.65-.29.89-.23.25-.55.3-.79.28-.51-.05-.78-.34-.95-.5-.16-.18-.23-.29-.21-.32Z"/>
    <path d="M147.15,61.83s.22.13.56.37c.34.22.9.6,1.6.52.34-.04.69-.23.95-.53.26-.31.44-.75.56-1.22.24-.94.16-2.06-.26-3.11-.43-1.05-1.13-1.92-1.87-2.58-.73-.69-1.54-1.07-2.25-.9-.72.13-1.11.63-1.24,1.01-.14.39-.11.63-.16.64-.03,0-.14-.24-.05-.7.07-.44.52-1.13,1.36-1.32.41-.11.91-.1,1.37.08.47.17.9.48,1.29.82.8.68,1.58,1.6,2.05,2.75.47,1.15.54,2.4.24,3.44-.15.52-.35,1-.7,1.39-.35.37-.81.59-1.25.61-.89.02-1.44-.47-1.76-.74-.32-.31-.46-.51-.43-.54Z"/>
    <path d="M151.53,60.92c-.08-.02,0-.49-.03-1.25-.03-.75-.2-1.79-.73-2.79-.53-1-1.29-1.73-1.9-2.17-.61-.45-1.04-.65-1.01-.73.02-.06.52.01,1.22.4.7.38,1.59,1.13,2.17,2.24.59,1.1.71,2.26.64,3.05-.07.8-.29,1.26-.35,1.24Z"/>
    <path d="M102.75,29.9c.07-.13.6.03,1.14.43.54.39.85.85.75.96-.1.11-.56-.15-1.07-.52-.51-.37-.89-.74-.82-.87Z"/>
    <path d="M128.14,61.24c-.04-.08.83-.14,1.62-1.13.19-.25.35-.54.45-.9.12-.35.18-.82.59-1.21.22-.19.51-.25.71-.31.22-.08.28-.11.33-.31.03-.1.05-.24.13-.4.08-.17.25-.31.44-.36.19-.05.36-.03.51.01l.13.04s0-.01,0-.01h0s-.05-.15-.06-.24c-.06-.2.06-.57.36-.66.27-.08.47,0,.65.07.17.07.35.24.43.33l.08.08h0s0,0,0,0c-.6-1.3-1.18-2.55-1.72-3.73.75.61,1.47,1.2,2.17,1.76l.07.06.02.02.04.04s.08.08.06.03c0-.03-.02-.07-.04-.11v-.03s-.09-.14-.09-.14l-.16-.27c-.22-.35-.45-.66-.68-.92-.93-1.05-1.71-1.43-1.67-1.5.01-.02.22.04.56.24.34.19.83.52,1.34,1.04.26.26.52.57.77.93.06.09.12.18.18.28l.09.15.15.26c.18.35.32.7.46,1.05l.11.29.06.15v.04s-.01-.02-.01-.02l-.06-.04c-.15-.1-.3-.21-.45-.32-.28-.19-.79-.62-1.07-.83l-.32-.25-.09-.07h-.01s-.02-.02-.02-.02l.02.03h0s.13.29.13.29c.21.46.43.93.66,1.41l.2.44c.05.13,0,.18.02.28.04.1-.13.13-.21.17-.1.04-.21.04-.33.02-.12-.02-.25-.08-.37-.17-.06-.04-.12-.09-.18-.14l-.1-.09c-.13-.13-.18-.18-.3-.24-.1-.05-.22-.06-.24-.05,0,0-.02,0-.01.08.01.05.01.07.06.19.05.14.09.28.09.39,0,.22-.17.41-.23.52l-.38-.21c-.06-.03-.13-.06-.17-.07l-.08-.02c-.1-.03-.2-.03-.26-.02-.12.02-.16.13-.23.42-.04.13-.11.31-.26.43-.14.11-.29.16-.41.19-.26.06-.43.09-.55.2-.27.22-.38.63-.51,1-.13.38-.34.72-.57.98-.46.52-.97.75-1.31.86-.35.1-.55.09-.56.06Z"/>
    <path d="M131.44,71.67c.04-.05.98.61,2.5,1.75.38.29.8.6,1.25.94.22.15.48.39.66.47.09.03.13.02.28-.04.12-.06.38-.16.61-.08.45.16.62.49.84.7.11.11.22.19.32.22.09.04.23.01.45.02.23,0,.49.12.65.28.16.17.26.35.35.52.09.17.16.33.25.47.06.09.04.06.05.07h0s0,0,0-.01c.06-.1.14-.19.22-.27.08-.08.17-.16.27-.22.04-.03.12-.07.22-.12.09-.04.18-.12.25-.02l.23.16.13.12c.08.08.16.17.23.27.14.19.23.4.31.61.17.46.23.92.28,1.36.03.22.05.43.08.65.02.21.07.39.12.43.05.03.05.05.17-.07.09-.11.17-.28.21-.44.1-.4.19-.78.28-1.16.09-.38.18-.75.27-1.11.07-.3.15-.6.22-.89l.12-.42.06-.21c0-.06.02-.02.04.02l.05.11c.12.28.23.55.34.82.05.13.11.26.15.41l.08.25c.08.32.16.63.2.93.19,1.2.07,2.18-.08,2.83-.15.65-.32.99-.35.98-.12-.01.48-1.45.05-3.74-.05-.28-.13-.57-.22-.87l-.07-.21-.02-.05-.04-.07s-.01.05-.02.07v.04s-.03.13-.03.13c-.08.36-.17.73-.25,1.11-.09.38-.18.77-.27,1.17-.06.23-.14.45-.31.66-.09.1-.21.21-.4.26-.2.05-.39-.02-.53-.14-.27-.27-.26-.55-.3-.76-.03-.22-.05-.43-.08-.65-.05-.43-.12-.86-.25-1.24-.07-.17-.14-.34-.24-.48-.05-.07-.1-.14-.16-.2l-.09-.08h-.02s.04-.04-.05.01c-.07.04-.13.09-.19.15-.06.06-.11.12-.15.18-.1.15-.17.38-.25.57l-.4-.29c-.12-.11-.26-.29-.3-.35-.11-.18-.19-.35-.27-.51-.16-.33-.31-.53-.55-.53-.13-.01-.35.03-.59-.05-.23-.08-.39-.22-.51-.36-.24-.26-.44-.54-.62-.59-.09-.03-.15-.01-.3.05-.13.07-.42.13-.61.03-.37-.18-.52-.38-.76-.55-.44-.36-.84-.69-1.21-.99-1.46-1.22-2.33-1.97-2.28-2.03Z"/>
    <path d="M143.57,61.77c-.02.07-.19.11-.51.14-.16,0-.39,0-.63-.14-.23-.15-.38-.36-.5-.58-.25-.46-.28-.97-.17-1.31.11-.34.32-.46.37-.42.1.08-.15.74.28,1.47.21.4.39.54.69.6.29.06.5.17.47.24Z"/>
    <path d="M149.11,102.69c.07-.03.19.16.35.4.08.11.19.24.31.3.12.07.3.09.38.04.17-.05.24-.65.36-.91.11-.3.21-.48.29-.46.07.01.1.22.09.54,0,.16-.02.35-.05.55-.03.19-.07.55-.43.76-.36.18-.69.06-.91-.1-.23-.18-.32-.39-.38-.55-.1-.34-.07-.54,0-.56Z"/>
    <path d="M152.03,70.21c-.15,0-.19-1.42-.1-3.16.1-1.74.3-3.14.45-3.13.15,0,.19,1.42.1,3.16-.1,1.74-.3,3.14-.45,3.13Z"/>
    <path d="M150.63,99.58c-.15-.01-.17-1.48-.05-3.28.12-1.8.35-3.25.5-3.24.15.01.17,1.48.05,3.28-.12,1.8-.35,3.25-.5,3.24Z"/>
    <path d="M153.64,73.28c-.08-.13.45-.57,1.08-1.12.63-.54,1.15-1,1.27-.91.12.09-.24.74-.91,1.32-.68.58-1.37.84-1.44.71Z"/>
    <path d="M132.36,45.76c.05-.05.68.47,1.65,1.36.96.9,2.27,2.17,3.59,3.7,1.31,1.53,2.35,3.06,2.98,4.23.63,1.17.9,1.95.84,1.97-.13.06-1.59-2.85-4.23-5.85-2.62-3.01-4.95-5.29-4.82-5.42Z"/>
    <path d="M146.93,78.05c-.17-.01.19-3.38-.52-7.44-.68-4.07-2.14-7.12-1.98-7.19.06-.03.5.69,1.04,1.96.54,1.26,1.13,3.07,1.48,5.14.35,2.07.4,3.97.31,5.34-.08,1.37-.26,2.2-.33,2.19Z"/>
  </g>
</svg>