<?xml version="1.0" encoding="UTF-8"?>
<svg id="Capa_1" data-name="Capa 1" xmlns="http://www.w3.org/2000/svg" version="1.1" viewBox="0 0 226.77 226.77">
  <defs>
    <style>
      .cls-1 {
        stroke-width: .57px;
      }

      .cls-1, .cls-2 {
        fill: none;
        stroke: #1d1d1b;
        stroke-miterlimit: 10;
      }

      .cls-2 {
        stroke-width: 1.14px;
      }

      .cls-3 {
        fill: white;
        stroke-width: 1px;
      }
    </style>
  </defs>
  <path class="cls-3" d="M202.96,100.75c-.04.19-1.68,0-4.31-.23-2.63-.21-6.28-.4-10.18.38-1.95.38-3.78.93-5.45,1.47-1.67.55-3.16,1.05-4.42,1.47-2.53.84-4.13,1.28-4.19,1.12-.06-.17,1.42-.91,3.86-1.97,1.23-.53,2.69-1.14,4.37-1.74,1.67-.61,3.54-1.21,5.58-1.61,4.1-.82,7.91-.46,10.54-.02,2.65.47,4.23.98,4.2,1.14Z"/>
  <path class="cls-3" d="M160.08,63.78c.18-.02.37.38.5.88.13.5.18.93.01,1.01-.16.08-.49-.29-.64-.84-.15-.55-.06-1.03.12-1.05Z"/>
  <path class="cls-3" d="M167.28,65.22c.18.02.17,1.03-.02,2.27-.19,1.23-.48,2.21-.66,2.17s-.17-1.05.02-2.27c.19-1.21.48-2.19.66-2.17Z"/>
  <path class="cls-3" d="M165.85,64.38c.18-.02.42.92.54,2.08s.07,2.13-.11,2.15c-.18.02-.42-.91-.54-2.08-.12-1.17-.07-2.13.11-2.15Z"/>
  <path class="cls-3" d="M164.24,68c.18-.02.37.47.6,1.04.22.57.41,1.06.26,1.17-.14.11-.61-.27-.86-.94-.26-.67-.17-1.26,0-1.27Z"/>
  <path class="cls-3" d="M169.14,67.17c.18-.02.44.98.88,2.17.43,1.19.88,2.12.73,2.22-.14.1-.88-.73-1.34-2-.47-1.26-.45-2.37-.27-2.39Z"/>
  <path class="cls-3" d="M170.84,68.53c.18-.01.35.4.39.92.04.52-.08.95-.26.96-.18.01-.35-.4-.39-.92-.04-.52.08-.95.26-.96Z"/>
  <path class="cls-3" d="M172.46,65.21c.17-.01.39,1.46.13,3.25-.26,1.8-.88,3.14-1.04,3.08-.18-.06.16-1.45.4-3.17.25-1.73.33-3.15.51-3.16Z"/>
  <path class="cls-3" d="M20.34,128.69c-.07-.13,1.73-1.36,5.02-2.61,3.27-1.25,8.08-2.41,13.48-2.29,2.71.02,5.2.51,7.4.39,2.18-.12,4.16-.75,5.87-1.12,1.71-.39,3.17-.52,4.16-.42,1,.1,1.51.32,1.49.39-.02.1-.56.05-1.5.11-.95.06-2.29.31-3.93.8-1.65.46-3.61,1.22-6.02,1.42-2.4.19-4.91-.27-7.49-.29-5.21-.12-9.89.86-13.16,1.86-3.28,1-5.22,1.93-5.32,1.74Z"/>
  <path class="cls-3" d="M135.97,110.34c.08-.16.56-.08,1.07.18s.86.59.78.75c-.08.16-.56.08-1.07-.18s-.86-.59-.78-.75Z"/>
  <path class="cls-3" d="M134.15,113.62c0-.09.3-.13.71-.2.42-.07.9-.24,1.04-.76.15-.5,0-1.15,0-1.58-.02-.44-.02-.71.06-.74.09-.03.25.22.39.66.07.22.14.48.2.78.06.29.1.69-.03,1.08-.11.4-.42.75-.76.89-.34.15-.64.15-.88.14-.48-.05-.73-.17-.73-.26Z"/>
  <g>
    <path class="cls-3" d="M114.12,147.2s-.2.14-.65.21c-.45.07-1.13,0-1.93-.25-.81-.24-1.73-.66-2.81-.91-1.08-.26-2.34-.19-3.51.52-1.21.65-2.22,1.9-3.72,2.96-1.52,1.04-3.35,1.64-5.23,2.17-1.9.52-3.94.91-6.08,1.1-1.07.1-2.16.14-3.27.14-1.11,0-2.2-.07-3.24.03-1.04.1-1.98.39-2.72,1-.39.3-.8.73-1.33,1.04-.5.34-1.06.55-1.61.72-2.25.6-4.34.27-6.21.33-3.84-.25-6.28,2.69-9.01,3.95-2.63,1.4-4.95,2.11-6.56,2.48-1.61.37-2.53.41-2.55.33-.02-.1.87-.31,2.41-.82,1.54-.51,3.76-1.33,6.25-2.79,1.27-.71,2.5-1.65,3.96-2.65.74-.48,1.57-.96,2.52-1.25.95-.3,1.95-.41,2.94-.44,1.98-.08,4.03.17,5.89-.36.45-.15.9-.32,1.28-.59.4-.23.75-.59,1.22-.96.95-.8,2.23-1.17,3.4-1.28,1.19-.11,2.31-.04,3.38-.03,1.07,0,2.12-.03,3.15-.11,2.06-.17,4.04-.52,5.88-.99,1.84-.48,3.58-1.03,4.94-1.91,1.36-.88,2.46-2.15,3.88-2.87.68-.4,1.45-.58,2.15-.65.72-.07,1.39.07,1.98.23,1.17.35,2.05.84,2.8,1.14,1.48.66,2.39.39,2.41.51Z"/>
    <path class="cls-3" d="M140.11,154.62c.04.14-1.57.64-4.14.09-1.27-.26-2.73-.8-4.24-1.54-1.53-.73-3.09-1.72-4.74-2.62-3.3-1.84-6.5-3.07-8.9-3.37-1.2-.17-2.18-.09-2.86-.04-.67.11-1.07.15-1.1.07-.03-.08.31-.29.99-.56.69-.21,1.74-.44,3.05-.38,2.62.08,6.07,1.26,9.45,3.15,1.71.94,3.22,1.94,4.66,2.7,1.43.77,2.77,1.36,3.93,1.72,2.33.74,3.89.59,3.91.8Z"/>
    <g>
      <g>
        <g>
          <g>
            <path class="cls-3" d="M58.63,114.78s.16-.06.36.11c.18.17.39.55.21,1.03-.19.48-.77.8-1.39.73-.63-.06-1.19-.53-1.5-1.09-.32-.57-.45-1.16-.46-1.72-.01-.55.2-1.16.7-1.38.46-.18.87-.02,1.04.18.18.22.11.38.08.38-.05.01-.09-.11-.24-.19-.14-.08-.43-.11-.67.04-.48.27-.38,1.47.12,2.37.25.45.63.75,1.02.82.39.07.76-.1.89-.33.14-.24.09-.53,0-.68-.08-.16-.19-.22-.17-.27Z"/>
            <path class="cls-3" d="M62.02,129.83s.06.12.11.29c.05.18.18.4.26.8.03.2.03.44-.09.7-.06.13-.17.26-.33.35-.16.08-.35.09-.49.08-.54-.07-1.06-.33-1.49-.74-.86-.82-1.07-2.12-.52-2.82.27-.34.64-.43.86-.41.23.02.32.13.31.16-.01.08-.5,0-.79.5-.27.47-.08,1.45.6,2.1.33.32.75.54,1.12.62.16.02.19,0,.27-.09.07-.1.1-.26.1-.4,0-.29-.08-.6-.06-.82.02-.22.1-.32.14-.31Z"/>
            <path class="cls-3" d="M91.57,131.77c0,.05-.13.1-.25.36-.12.24-.26.66-.33,1.15-.05.44.16,1.05.51,1.59.36.53.93,1.07,1.6,1.14.67.08,1.23-.43,1.43-1.01.22-.58.11-1.17-.11-1.61-.45-.9-1.06-1.27-.99-1.35.02-.06.74.15,1.39,1.14.3.48.53,1.24.27,2.03-.12.38-.35.77-.71,1.06-.36.3-.86.45-1.35.4-1-.12-1.64-.83-2.04-1.46-.38-.66-.59-1.35-.46-1.98.14-.56.36-.96.57-1.22.22-.26.47-.26.46-.21Z"/>
            <path class="cls-3" d="M88.31,112c.11.13-.17.65-.07,1.65.04.48.15,1.09.4,1.6.22.43.78.84,1.35.92.28.03.53,0,.75-.13.1-.05.23-.16.29-.21.02-.01.07-.09.1-.21.12-.53.03-1.1-.12-1.54-.32-.89-.86-1.32-.76-1.48.05-.15.88,0,1.57,1.07.33.52.58,1.26.48,2.15-.03.23-.1.52-.32.79-.2.22-.36.36-.59.51-.45.29-1.03.39-1.57.32-1.07-.17-1.89-.84-2.26-1.71-.31-.82-.3-1.52-.23-2.12.07-.59.28-1.06.5-1.34.22-.28.43-.34.49-.28Z"/>
            <path class="cls-3" d="M53.86,97.03c.03.09-.48.23-.67.91-.1.32-.11.75.09,1.12.2.39.58.75,1.06,1,.23.12.51.25.71.3.24.03.25.02.29-.07.04-.13,0-.41-.03-.63-.02-.23-.04-.44-.06-.63-.06-.78-.05-1.27.04-1.28.09-.02.24.45.41,1.22.04.19.09.4.13.63.03.23.13.44.08.83-.03.19-.18.43-.4.52-.22.09-.42.08-.59.05-.35-.08-.6-.2-.9-.35-.57-.3-1.05-.77-1.29-1.32-.25-.56-.17-1.15.02-1.54.19-.41.49-.64.72-.73.23-.09.37-.05.38-.02Z"/>
            <path class="cls-3" d="M98.03,100.5s.22.08.47.39c.24.31.53.86.55,1.59.04.71-.26,1.68-1.02,2.3-.71.71-2.05.9-3.06.35-1.02-.52-1.67-1.49-1.9-2.43-.22-.91-.2-1.82.12-2.5.32-.68.85-1.04,1.24-1.16.39-.13.62-.06.62-.02,0,.05-.21.08-.52.25-.3.17-.71.53-.91,1.11-.4,1.11-.07,3.29,1.65,4.17.83.43,1.78.32,2.38-.22.66-.5.92-1.22.95-1.85.05-1.29-.66-1.92-.57-1.98Z"/>
            <path class="cls-1" d="M122.2,89.76"/>
            <path class="cls-3" d="M123.78,94.09c.07,0-.11.64-.99.96-.42.14-1,.2-1.58-.05-.6-.24-1.06-.86-1.22-1.52-.36-1.35.32-2.68,1.13-3.09.8-.45,1.4-.23,1.37-.16,0,.1-.53.08-1.11.54-.59.42-1.05,1.46-.76,2.55.14.53.44.95.84,1.14.4.2.85.21,1.21.15.73-.14,1.03-.58,1.11-.52Z"/>
            <path class="cls-3" d="M156.24,81.07s.13.09.16.33c.03.24-.04.61-.31.95-.26.34-.73.67-1.37.67-.64,0-1.25-.45-1.55-1.05-.32-.59-.33-1.31-.09-1.84.23-.53.62-.89.96-1.11.72-.43,1.25-.37,1.26-.29.02.1-.45.21-.99.67-.54.42-1.07,1.37-.57,2.28.22.43.62.72,1.01.75.39.03.76-.16,1-.38.5-.46.39-.97.49-.98Z"/>
            <path class="cls-3" d="M99.73,112.72c.06-.03.41.54.3,1.58-.06.51-.33,1.16-.93,1.59-.29.21-.67.38-1.09.4-.42.02-.84-.12-1.19-.33-.7-.42-1.19-1.06-1.41-1.74-.23-.68-.11-1.38.16-1.84.26-.47.64-.73.91-.83.28-.1.44-.08.45-.04.04.09-.6.25-.94,1.07-.17.4-.21.91,0,1.44.2.52.62,1.04,1.18,1.38.55.35,1.14.32,1.6,0,.46-.3.71-.76.82-1.19.21-.87.05-1.48.15-1.49Z"/>
            <path class="cls-3" d="M102.66,131.55s.25-.05.51.25c.25.3.37.85.33,1.48-.05.59-.08,1.45-.81,2.12-.37.32-.88.45-1.35.46-.48.01-.98-.08-1.44-.28-.92-.37-1.71-1.24-1.7-2.21,0-.96.59-1.62,1.05-2.02.49-.41.91-.65,1.24-.8.17-.07.35-.08.45-.02.1.06.09.14.08.15-.02.02-.16-.1-.42.09-.25.2-.65.5-1.04.91-.39.41-.81.99-.77,1.67.02.67.59,1.32,1.36,1.63.75.31,1.67.34,2.16-.05.51-.4.65-1.14.74-1.7.09-.57.05-1.03-.09-1.3-.13-.27-.32-.34-.29-.39Z"/>
            <path class="cls-3" d="M129.3,138.35c.05-.04.44.64.13,1.77-.16.54-.54,1.2-1.28,1.56-.72.35-1.71.34-2.49-.22-.39-.28-.65-.71-.76-1.14-.1-.43-.07-.86.03-1.24.2-.77.7-1.31,1.14-1.64.91-.66,1.59-.78,1.61-.71.05.1-.57.38-1.31,1.06-.36.35-.73.82-.86,1.43-.14.6-.01,1.33.54,1.72.54.4,1.31.44,1.85.2.55-.24.91-.73,1.1-1.18.38-.92.19-1.6.3-1.61Z"/>
            <path class="cls-3" d="M126.96,122.69s.07.16,0,.44c-.07.27-.3.65-.73.94-.42.29-1.12.47-1.79.23-.67-.22-1.29-.78-1.57-1.55-.53-1.58.33-3.03,1.16-3.56.87-.59,1.58-.36,1.54-.29,0,.1-.61.07-1.26.65-.63.53-1.25,1.78-.83,2.98.2.58.67,1.02,1.16,1.21.49.2.99.13,1.36-.06.76-.39.87-1.02.97-.99Z"/>
            <path class="cls-3" d="M124.87,101.84s.23.03.48.31c.24.28.5.81.45,1.49-.04.68-.38,1.43-.88,2.11-.25.34-.58.75-1.15.91-.56.14-1.1-.03-1.56-.28-.94-.52-1.48-1.51-1.49-2.43-.01-.93.44-1.69.93-2.14.51-.46,1.06-.59,1.39-.66.35-.06.54-.08.55-.04.01.04-.16.14-.48.28-.32.14-.77.32-1.15.74-.38.41-.7,1.06-.65,1.79.03.71.49,1.49,1.21,1.89.36.2.78.3,1.09.23.31-.07.59-.35.83-.65.49-.62.82-1.24.9-1.8.09-.56-.06-1.02-.21-1.3-.15-.28-.3-.41-.27-.45Z"/>
            <path class="cls-3" d="M158.6,123.8c.07-.02.16.64-.55,1.28-.34.3-.92.55-1.58.4-.68-.15-1.17-.81-1.33-1.48-.18-.69-.06-1.39.19-1.93.13-.27.29-.51.46-.71.17-.22.42-.37.62-.46.84-.37,1.45-.09,1.39,0-.02.07-.52,0-1.18.4-.56.33-1.13,1.47-.86,2.52.13.53.46.96.86,1.07.41.12.85,0,1.15-.19.62-.4.73-.94.82-.92Z"/>
            <path class="cls-3" d="M157.59,108.11s.09.14,0,.37c-.08.23-.34.52-.76.64-.4.15-1.05.05-1.46-.38-.42-.41-.65-1.02-.68-1.66-.02-.63.15-1.24.47-1.7.32-.47.82-.74,1.23-.8.87-.14,1.29.35,1.21.39-.05.09-.47-.16-1.1.05-.64.17-1.22.99-1.17,2.03.02.5.19.97.46,1.26.27.31.61.4.93.35.66-.09.78-.59.86-.56Z"/>
            <path class="cls-3" d="M156.59,91.13s.05.15-.06.37c-.1.21-.34.52-.77.69-.43.18-1.05.15-1.55-.24-.53-.4-.73-1.1-.75-1.74-.02-.66.19-1.31.57-1.77.38-.47.91-.7,1.34-.75.91-.11,1.33.4,1.26.44-.05.09-.49-.19-1.17.01-.33.09-.7.3-.95.66-.26.36-.41.86-.4,1.39.02.53.17,1.04.48,1.29.31.27.73.34,1.04.27.66-.17.88-.67.96-.62Z"/>
            <path class="cls-3" d="M174.12,75.08c.05.04-.06.54-.7,1.18-.31.3-.96.59-1.59.31-.61-.24-1.05-.89-1.17-1.56-.12-.68-.08-1.27.02-1.85.11-.57.43-1.11.88-1.32.43-.22.85-.18,1.08-.05.24.13.28.28.26.3-.04.06-.5-.27-1.1.14-.57.35-.68,1.54-.5,2.64.1.54.4.96.78,1.15.37.19.77.08,1.06-.12.59-.43.89-.88.98-.82Z"/>
            <path class="cls-3" d="M174.19,84.85s-.02.16-.22.3c-.19.14-.54.27-.97.23-.43-.04-.94-.24-1.33-.7-.39-.47-.54-1.14-.44-1.78.18-1.3,1.16-2.23,2.01-2.39.42-.1.8-.01,1,.12.2.13.26.26.23.29-.06.08-.46-.23-1.1.03-.63.22-1.35,1-1.5,2.04-.08.5.03,1,.27,1.32.24.34.61.53.93.62.66.17,1.06-.16,1.12-.08Z"/>
            <path class="cls-3" d="M174.91,100.23s-.03.14-.17.31c-.15.16-.37.4-.8.54-.41.17-1.1,0-1.44-.51-.35-.48-.49-1.08-.5-1.7-.01-.6.08-1.22.39-1.71.15-.24.35-.45.59-.59.24-.13.48-.18.7-.18.44-.01.79.18.93.38.15.2.14.34.11.35-.07.05-.34-.4-1-.27-.32.06-.62.23-.82.61-.2.36-.27.87-.26,1.4,0,.52.12,1.02.34,1.36.21.35.54.46.84.41.62-.14,1.02-.5,1.08-.4Z"/>
            <path class="cls-3" d="M175.92,114.41c.06-.05.36.59-.18,1.42-.25.39-.8.78-1.46.78-.64.03-1.41-.33-1.77-1.01-.35-.67-.39-1.33-.35-1.93.03-.62.37-1.2.77-1.45.82-.55,1.46-.25,1.42-.19,0,.1-.57.03-1.13.55-.27.25-.46.63-.46,1.13,0,.5.07,1.11.32,1.58.25.47.74.71,1.21.73.47.02.85-.19,1.1-.46.51-.57.44-1.14.54-1.13Z"/>
            <path class="cls-3" d="M83.69,69.72c.06-.06.42.58-.05,1.48-.23.42-.65.88-1.27,1.11-.61.23-1.35.24-2.04.04-.69-.2-1.3-.52-1.77-.97-.47-.44-.73-1.08-.63-1.6.09-.51.39-.84.64-.96.26-.12.42-.07.42-.04,0,.05-.12.09-.28.25-.15.14-.32.43-.33.8-.07.75.92,1.57,2.11,1.9.59.17,1.19.17,1.67.02.48-.15.85-.47,1.08-.79.47-.66.34-1.23.44-1.24Z"/>
            <path class="cls-3" d="M110.81,63.14s.12.09.15.33c.03.23-.03.59-.27.95-.24.35-.64.69-1.2.84-.57.15-1.19.07-1.76-.16-.58-.22-1.05-.53-1.46-.83-.41-.29-.8-.65-.96-1.07-.16-.42-.08-.8.05-1,.13-.21.27-.25.3-.22.06.05-.25.46.07,1.03.15.27.46.52.87.77.41.25.86.53,1.36.72.49.19.99.26,1.39.18.41-.08.76-.31.98-.54.47-.49.37-.98.47-.99Z"/>
            <path class="cls-3" d="M144.03,54.54s.16.05.2.29c.04.22-.05.61-.4.87-.35.26-.8.34-1.29.38-.49.03-1.04-.03-1.58-.21-.54-.19-1.02-.46-1.38-.85-.36-.37-.55-.9-.48-1.31.05-.41.27-.69.46-.81.19-.12.32-.11.34-.07.04.08-.37.31-.34.91-.02.58.68,1.21,1.62,1.52.91.31,1.91.29,2.41.06.25-.12.36-.33.4-.49.04-.16.01-.26.05-.29Z"/>
            <path class="cls-3" d="M161.99,49.34c.06-.02.4.32.44,1.14,0,.21-.06.47-.26.69-.19.22-.5.33-.76.36-.51.07-1.08.03-1.64-.14-1.11-.35-2.02-1.1-2.19-1.96-.07-.42.05-.76.19-.94.14-.18.28-.22.3-.18.06.06-.25.42-.05,1.01.19.55.99,1.16,1.94,1.45.48.14.96.19,1.39.17.41-.02.57-.2.63-.5.08-.61-.09-1.08.02-1.1Z"/>
            <path class="cls-3" d="M51.17,88.38c.1.03-.2.6.11,1.41.15.39.48.78.97,1.02.48.23,1.16.32,1.64.05.49-.24.35-.85.23-1.48-.11-.6-.26-1.1-.49-1.45-.48-.73-1.11-.76-1.1-.85,0-.04.15-.11.44-.06.28.04.69.23,1.03.63.34.4.56.98.71,1.6.07.3.17.62.17,1.03.02.41-.25.92-.66,1.13-.8.43-1.64.24-2.24-.08-.62-.33-1.01-.9-1.13-1.41-.25-1.05.28-1.61.32-1.55Z"/>
            <path class="cls-3" d="M52.55,69.51c.09.01.03.57.53,1.25.24.34.59.71,1.04.99.42.27,1.06.39,1.45.11.4-.28.43-.91.3-1.41-.13-.51-.38-.98-.6-1.33-.46-.72-.88-1.08-.82-1.16.04-.07.58.17,1.19.89.29.37.61.82.8,1.45.09.31.15.66.1,1.04-.04.37-.23.8-.6,1.06-.36.26-.81.31-1.18.26-.37-.05-.7-.2-.98-.39-.53-.38-.88-.83-1.1-1.25-.48-.87-.22-1.54-.14-1.49Z"/>
            <path class="cls-3" d="M72.75,73.86c.1.03-.32.64,0,1.47.18.37.6.79,1.12,1.11.26.16.56.29.85.34.27.04.54-.04.78-.24.49-.41.61-1.08.55-1.69-.06-.62-.21-1.18-.43-1.58-.43-.87-1.12-.85-1.11-.94,0-.04.15-.12.47-.07.31.05.73.32,1.03.77.31.45.54,1.06.64,1.76.11.68,0,1.64-.73,2.25-.34.3-.85.46-1.3.37-.42-.08-.77-.26-1.07-.46-.59-.41-1.04-.89-1.23-1.45-.17-.56-.03-1.02.1-1.29.14-.27.28-.37.32-.34Z"/>
            <path class="cls-3" d="M85.44,102.97c.15-.11.56.26,1.27.63.33.17.84.41,1.18.43.16,0,.23-.04.37-.15.13-.12.27-.32.37-.56.41-.95.12-2.05-.26-2.69-.38-.66-.83-.97-.75-1.15.04-.15.73-.15,1.47.58.36.36.71.88.88,1.54.18.65.19,1.47-.15,2.23-.16.38-.4.74-.75,1.02-.34.29-.9.45-1.32.36-.42-.07-.7-.24-.95-.39-.25-.15-.46-.32-.63-.49-.71-.68-.87-1.28-.73-1.37Z"/>
            <path class="cls-3" d="M57.54,116.23c.53-.1,1.42,2.77,2,6.43.54,3.67.7,6.62.17,6.74-.52.11-1.56-2.79-2.09-6.41-.57-3.63-.61-6.65-.08-6.75Z"/>
            <path class="cls-3" d="M54.18,100.2c.53-.09,1.48,2.58,2.11,5.97.64,3.39.73,6.23.21,6.33-.53.11-1.47-2.57-2.11-5.97-.64-3.41-.73-6.24-.21-6.33Z"/>
            <path class="cls-3" d="M91.55,111.16c-.06.16-2.57-.53-6.47-2.12-1.95-.79-4.23-1.8-6.76-2.94-2.52-1.14-5.3-2.4-8.21-3.71-5.81-2.67-11.04-5.15-14.79-7-.47-.23-.92-.45-1.34-.67-.41-.22-.79-.36-.91-.32-.1,0-.18.08-.18.18,0,.09,0,.16.04.38.05.35.09.68.13.97.15,1.17.19,1.82.11,1.83-.09.02-.3-.6-.6-1.73-.07-.28-.15-.6-.24-.94-.03-.13-.13-.43-.12-.71,0-.28.22-.55.51-.64.28-.11.7-.07.92,0,.25.07.48.16.71.26.43.18.89.38,1.37.58,3.86,1.64,9.15,3.99,14.96,6.66,2.9,1.35,5.66,2.64,8.17,3.81,2.49,1.2,4.74,2.28,6.62,3.18,3.77,1.79,6.16,2.78,6.1,2.96Z"/>
            <path class="cls-3" d="M97.01,151.34c-.18.02-.6-2.22-1.15-5.87-.55-3.64-1.24-8.68-1.96-14.25-.7-5.57-1.34-10.61-1.8-14.26-.44-3.65-.71-5.91-.53-5.95.17-.03.76,2.18,1.44,5.81.68,3.63,1.46,8.66,2.18,14.24.73,5.58,1.27,10.64,1.59,14.31.32,3.67.42,5.95.24,5.97Z"/>
            <path class="cls-3" d="M95.06,126.46c-.18.03-.55-1.2-1-3.22-.23-1.01-.48-2.21-.73-3.56-.23-1.33-.58-2.76-.86-4.34-.14-.79-.23-1.58-.26-2.36,0-.2-.01-.39,0-.58.01-.18-.01-.38.05-.67.12-.52.42-.9.75-1.19.31-.27.65-.47,1-.61.38-.15.66-.21.94-.3.57-.18,1.11-.35,1.59-.51,1.96-.65,3.26-.88,3.31-.7.04.16-1.1.68-2.98,1.55-.47.21-.99.44-1.57.67-.63.23-1.08.39-1.5.79-.18.17-.3.38-.33.56-.02.06,0,.23,0,.41l.02.52c.04.7.14,1.44.27,2.2.27,1.51.59,3.01.76,4.38.19,1.35.35,2.56.46,3.59.22,2.05.27,3.34.1,3.37Z"/>
            <path class="cls-3" d="M98.15,146.31c-.35.05-.93-1.92-1.28-4.39-.35-2.48-.35-4.53,0-4.58.35-.05.93,1.92,1.28,4.39.35,2.48.35,4.53,0,4.58Z"/>
            <path class="cls-3" d="M91.32,153.06c-.27.45-7.95-3.63-16.83-9.66-2.22-1.52-4.28-2.99-6.16-4.35-1.86-1.37-3.53-2.6-4.93-3.63-.7-.5-1.35-.95-1.92-1.33-.14-.09-.28-.19-.41-.27-.12-.08-.29-.18-.47-.33-.34-.29-.38-.77-.41-.98-.06-1.03-.05-1.49.02-1.56.15-.1.45.5.72,1.4.09.25.13.37.29.45.25.11.51.23.8.36.64.3,1.36.68,2.13,1.12,1.54.88,3.29,2.05,5.21,3.32,1.93,1.27,4.04,2.72,6.23,4.22,8.81,5.98,16.02,10.79,15.73,11.26Z"/>
            <path class="cls-3" d="M52.12,91.64c.38-.03.6.84.88,1.35.22.45.96.96.8,1.3-.07.16-.3.25-.66.21-.34-.04-.92-.27-1.27-.87-.32-.59-.28-1.12-.19-1.46.1-.34.26-.53.43-.54Z"/>
            <path class="cls-3" d="M66.27,99.61c.06-.16,2.67.66,7.18,2.24,2.26.79,4.99,1.77,8.1,2.97,1.56.6,3.21,1.26,4.94,1.98.86.37,1.75.75,2.65,1.14l.68.3c.07.03.09.04.14.04.09,0,.14-.1.11-.18-.09-.47-.17-.94-.26-1.42-.11-.55-.23-1.1-.35-1.65-.24-1.11-.53-2.24-.85-3.38-.63-2.29-1.38-4.63-2.21-7.04-.85-2.4-1.66-4.92-2.72-7.29-.29-.61-.58-1.21-.87-1.83-.28-.62-.56-1.24-.85-1.86-.28-.61-.57-1.21-.89-1.79-.16-.29-.33-.56-.5-.83l-.57-.91c-.53-.89-.99-1.69-1.54-2.46-.58-.78-1.15-1.56-1.72-2.33-.58-.78-1.15-1.56-1.72-2.33-.57-.8-1.11-1.45-1.74-2.11-1.24-1.3-2.65-2.44-4.06-3.58-1.38-1.15-2.74-2.13-4.21-2.86-1.45-.72-2.98-1.15-4.45-1.12-1.47.01-2.84.54-3.99,1.34-2.34,1.63-3.67,4.16-4.33,6.56-.67,2.43-.83,4.78-.95,6.83-.1,2.05-.08,3.83-.03,5.28.11,2.9.3,4.51.15,4.54-.12.02-.56-1.55-.9-4.48-.17-1.46-.3-3.27-.3-5.36.02-2.09.07-4.51.71-7.15.62-2.61,2.01-5.54,4.73-7.53,1.34-.98,3.05-1.68,4.87-1.73,1.82-.07,3.63.43,5.28,1.21,1.65.78,3.19,1.87,4.59,3.02,1.41,1.12,2.9,2.29,4.27,3.71.67.69,1.35,1.51,1.89,2.26.57.77,1.15,1.54,1.73,2.31.57.78,1.17,1.55,1.77,2.39.6.83,1.12,1.75,1.62,2.57l.54.86c.2.32.4.63.57.95.35.64.66,1.28.95,1.92.28.63.56,1.25.84,1.87.29.62.58,1.23.86,1.84,1.12,2.55,1.9,5.05,2.74,7.48.81,2.44,1.55,4.83,2.16,7.18.3,1.17.58,2.33.81,3.48.12.57.23,1.14.32,1.71l.14.84c.05.35.1.69.16,1.04.15.9-.55,1.72-1.39,1.77-.21.02-.41,0-.61-.07-.2-.07-.43-.19-.6-.27l-.66-.32c-.89-.41-1.75-.81-2.6-1.2-1.69-.77-3.31-1.47-4.84-2.12-3.07-1.28-5.74-2.4-7.94-3.32-4.41-1.84-6.9-2.97-6.84-3.13Z"/>
            <path class="cls-3" d="M136.29,92.59c.04.08-.81.51-2.36,1.2-1.55.7-3.82,1.67-6.63,2.84-5.62,2.36-13.43,5.48-22.07,8.88-2.16.84-4.28,1.67-6.32,2.47-1.02.4-2.02.78-3.01,1.16-.51.19-.9.37-1.44.59-.51.18-1.12.45-1.9.21-.37-.12-.68-.39-.88-.66-.19-.27-.33-.57-.4-.86-.15-.59-.15-1.08-.21-1.52-.11-.92-.27-1.81-.46-2.67-.39-1.72-.88-3.3-1.31-4.77-.93-2.89-1.67-5.23-2.16-6.87-.48-1.63-.71-2.55-.63-2.58.08-.03.47.83,1.1,2.41.63,1.59,1.51,3.89,2.56,6.76.48,1.44,1.03,3.03,1.48,4.79.23.88.42,1.81.55,2.78.07.5.09.98.2,1.35.1.37.33.65.53.7.21.08.63-.02,1.07-.2.42-.18.97-.44,1.44-.62.98-.39,1.98-.79,3-1.19,2.04-.8,4.15-1.64,6.31-2.49,8.64-3.4,16.51-6.39,22.2-8.53,2.85-1.06,5.17-1.9,6.78-2.46,1.61-.55,2.52-.82,2.56-.74Z"/>
            <path class="cls-3" d="M79.67,76.54c-.09.05-.72-.93-1.86-2.42-1.14-1.5-2.82-3.46-4.89-5.46-.52-.5-1.03-.98-1.51-1.45-.5-.48-.95-.89-1.46-1.24-1-.71-1.97-1.27-2.79-1.73-1.65-.9-2.71-1.39-2.67-1.48.03-.07,1.16.27,2.88,1.08.86.41,1.87.93,2.92,1.64.53.34,1.06.8,1.55,1.26.5.46,1.02.94,1.54,1.45,2.08,2.02,3.75,4.07,4.8,5.66,1.06,1.58,1.56,2.65,1.49,2.69Z"/>
            <path class="cls-3" d="M111.88,73.29s.27.27.66.84c.39.58.96,1.44,1.61,2.61.32.58.67,1.25.99,2,.31.74.64,1.55,1,2.41.39.86.87,1.72,1.34,2.7.46.99.87,2.05,1.26,3.18.19.55.41,1.15.54,1.8.06.33.11.68.08,1.06-.03.37-.15.84-.51,1.19-.08.09-.19.15-.29.21-.1.06-.15.08-.23.12l-.45.23c-.3.14-.61.29-.92.43-.63.28-1.27.54-1.93.78-2.66.98-5.53,1.75-8.53,2.65-.75.22-1.51.45-2.28.67-.8.22-1.49.47-2.41.67-.45.07-1.02.13-1.61-.17-.29-.15-.53-.41-.68-.67-.14-.25-.22-.46-.3-.69-.3-.89-.39-1.69-.65-2.48-.92-3.24-2.15-6.52-3.73-9.73-3.14-6.43-7.33-11.93-11.77-16.25-2.23-2.14-4.5-4.08-6.85-5.38-1.18-.64-2.4-1.1-3.61-1.28-1.21-.18-2.42-.12-3.58.01-4.66.61-8.4,1.46-10.8,2.52-2.41,1.04-3.51,2.05-3.59,1.94-.03-.03.22-.31.77-.75.54-.45,1.41-1.04,2.61-1.65,2.4-1.24,6.18-2.23,10.89-2.97,1.19-.17,2.48-.27,3.84-.09,1.35.18,2.7.65,3.98,1.32,2.55,1.36,4.87,3.31,7.18,5.47,4.59,4.36,8.9,9.96,12.11,16.54,1.62,3.28,2.87,6.64,3.79,9.96.27.84.38,1.72.62,2.42.06.17.13.35.19.46.06.1.11.16.19.2.15.09.46.11.81.05.68-.13,1.53-.42,2.28-.62.77-.22,1.53-.44,2.29-.65,3.01-.87,5.9-1.61,8.49-2.51.65-.23,1.28-.47,1.88-.73.3-.13.6-.27.89-.4l.43-.21c.07-.03.16-.07.2-.1.03-.03.08-.04.1-.07.24-.19.27-.8.17-1.34-.1-.56-.28-1.12-.46-1.69-.36-1.12-.73-2.17-1.14-3.14-.42-.96-.89-1.88-1.25-2.75-.33-.89-.63-1.71-.91-2.47-.29-.74-.58-1.41-.87-2-1.17-2.36-1.92-3.63-1.83-3.68Z"/>
            <path class="cls-3" d="M118.34,90.39s-.16.12-.51.17c-.17.03-.39.05-.66.01-.13-.02-.28-.06-.43-.19-.11-.11-.21-.25-.29-.41-.21-.66-.5-1.35-.85-2.24-.33-.87-.65-1.87-1.08-2.96-1.65-4.35-4.42-10.21-8.62-15.95-2.09-2.85-4.41-5.35-6.92-7.1-2.49-1.77-5.11-2.76-7.36-3.27-2.25-.53-4.15-.56-5.41-.26-1.26.29-1.84.76-1.88.69-.01-.01.12-.14.42-.33.29-.19.76-.43,1.4-.61,1.28-.39,3.26-.43,5.56.05,2.31.47,5.03,1.43,7.6,3.23,2.59,1.77,4.98,4.31,7.1,7.2,4.24,5.8,6.98,11.76,8.53,16.17.4,1.1.7,2.12.99,3,.31.85.59,1.65.74,2.25.21.65.81.54,1.13.56.34-.01.51-.07.52-.04Z"/>
            <path class="cls-3" d="M116.83,90.31s-.09.26-.47.52c-.37.26-.97.51-1.7.79-1.45.56-3.47,1.3-5.71,2.08-2.24.77-4.28,1.44-5.78,1.89-1.5.46-2.5.52-2.5.43-.01-.09.92-.3,2.36-.86,1.45-.56,3.47-1.3,5.71-2.07,2.24-.78,4.29-1.44,5.78-1.9.75-.22,1.34-.4,1.72-.58.38-.17.56-.33.59-.3Z"/>
            <path class="cls-3" d="M117.84,90.65c-.07-.06.19-.43.13-1.09-.05-.64-.47-1.55-.87-2.56-.81-2.01-1.62-3.59-1.46-3.68.15-.09,1.22,1.37,2.06,3.44.39,1.03.78,1.98.72,2.8-.07.82-.54,1.16-.58,1.08Z"/>
            <path class="cls-3" d="M111.51,73.85c-.18.1-1.28-1.8-3.42-4.58-1.07-1.39-2.42-2.98-4.05-4.62-1.63-1.63-3.52-3.34-5.72-4.8-2.19-1.47-4.5-2.49-6.71-2.98-2.2-.51-4.28-.49-5.95-.17-1.67.32-2.91.98-3.66,1.57-.75.59-1.07,1.04-1.16.98-.06-.03.11-.6.82-1.36.7-.76,2-1.62,3.79-2.09,1.78-.47,4.02-.58,6.4-.1,2.38.46,4.88,1.53,7.18,3.07,4.59,3.13,7.79,7.02,9.8,9.97,2,2.98,2.82,5.05,2.68,5.12Z"/>
            <path class="cls-3" d="M85.2,58.51c.16.33-1.71,1.42-4.22,1.93-2.49.52-4.5.65-4.59.32-.1-.36,1.88-1.08,4.32-1.59,2.43-.5,4.35-.98,4.5-.67Z"/>
            <path class="cls-3" d="M151.34,76.64s.18.28.22.89c.01.31,0,.68-.12,1.13-.07.22-.18.48-.41.68-.23.2-.48.3-.72.44-1.98,1.08-4.97,2.39-8.75,3.73-3.78,1.34-8.28,2.88-13.29,4.58-.31.11-.63.21-.94.32l-.48.16c-.2.05-.39.12-.62.14-.44.06-.99-.04-1.39-.34-.41-.29-.65-.67-.83-1.03-.35-.72-.5-1.44-.69-2.1-.19-.67-.38-1.35-.6-2.03-.85-2.71-1.98-5.44-3.36-8.12-2.76-5.37-6.32-9.97-10.07-13.6-.94-.91-1.91-1.65-2.94-2.37-1.01-.73-2-1.4-2.99-2.01-1.98-1.22-3.91-2.17-5.79-2.7-1.8-.59-3.58-.11-5.14.14-1.56.27-2.9.52-3.98.77-2.17.49-3.32.94-3.36.85-.03-.07,1.07-.68,3.23-1.34,1.08-.33,2.42-.66,3.97-1,.78-.17,1.61-.37,2.53-.49.91-.12,1.99-.12,2.99.18,2,.5,4.05,1.45,6.1,2.66,1.03.6,2.06,1.28,3.1,2,1.03.7,2.13,1.51,3.1,2.43,3.9,3.68,7.57,8.37,10.4,13.87,1.42,2.75,2.56,5.55,3.42,8.33.23.69.41,1.39.6,2.08.19.69.34,1.36.59,1.88.28.55.54.75.98.7.11,0,.24-.05.37-.08l.48-.16c.32-.1.63-.21.95-.31,5.03-1.63,9.56-3.09,13.37-4.32,3.8-1.22,6.8-2.39,8.82-3.32.25-.12.5-.21.66-.33.16-.11.26-.29.33-.47.14-.37.2-.73.23-1.01.04-.57-.01-.88.04-.89Z"/>
            <path class="cls-3" d="M149.71,78.38s.02.11-.08.27c-.1.16-.34.34-.64.48-.61.27-1.5.64-2.6,1.09-2.21.89-5.28,2.08-8.68,3.35-3.4,1.28-6.51,2.33-8.78,3.06-2.28.72-3.74.98-3.76.89-.02-.09,1.39-.5,3.61-1.33,2.23-.83,5.31-1.97,8.71-3.24,3.4-1.27,6.49-2.39,8.73-3.17,1.12-.39,2.04-.69,2.67-.89.64-.18.79-.53.82-.52Z"/>
            <path class="cls-3" d="M118.09,51.6c.07.35-3.82,1.45-8.67,2.46-4.86,1-8.85,1.56-8.93,1.22-.08-.36,3.8-1.48,8.67-2.49,4.87-1.01,8.87-1.55,8.93-1.2Z"/>
            <path class="cls-3" d="M151.62,78.64c-.2.06-1.15-2.91-3.26-7.43-.53-1.13-1.14-2.35-1.84-3.64-.35-.65-.72-1.32-1.1-2.01-.37-.7-.73-1.39-1.19-2.03-.21-.3-.51-.68-.74-1.04-.23-.36-.46-.73-.7-1.1-.23-.37-.46-.73-.7-1.07-.23-.33-.52-.65-.81-1.01-1.15-1.37-2.41-2.72-3.79-4.02-.7-.65-1.37-1.26-2.1-1.77-.73-.52-1.5-.97-2.28-1.39-1.56-.83-3.14-1.5-4.69-1.97-3.11-.95-6.06-1.12-8.46-.61-2.41.47-4.26,1.3-5.47,1.96-1.22.66-1.83,1.15-1.9,1.07-.05-.05.46-.68,1.63-1.5,1.17-.81,3.03-1.81,5.54-2.42,2.51-.66,5.72-.58,8.99.36,1.64.46,3.3,1.14,4.94,1.99.82.43,1.64.9,2.44,1.46.81.56,1.54,1.23,2.24,1.88,5.84,5.24,8.77,11.94,10.8,16.5.97,2.34,1.61,4.28,1.99,5.64.38,1.36.52,2.13.44,2.16Z"/>
            <path class="cls-3" d="M149.33,78.83c-.06,0,.15-.69-.31-1.81-.49-1.09-1.04-2.79-1.87-4.76-.83-1.99-1.98-4.29-3.48-6.71-1.45-2.45-3.4-4.9-5.73-7.22-2.3-2.33-4.78-4.27-7.3-5.56-2.51-1.31-5.02-1.95-7.15-1.97-2.14-.03-3.85.36-5.02.64-1.17.3-1.81.51-1.82.45,0-.02.14-.1.44-.22.29-.13.74-.29,1.32-.48,1.16-.36,2.89-.83,5.09-.86,2.2-.04,4.83.58,7.42,1.9,2.6,1.29,5.16,3.27,7.49,5.64,2.35,2.34,4.34,4.87,5.78,7.37,1.48,2.47,2.61,4.82,3.39,6.85.79,2.04,1.25,3.71,1.69,4.86.4,1.2.1,1.92.07,1.89Z"/>
            <path class="cls-3" d="M151.71,78.79c-.07.17-.58.12-1.18.08-.6-.05-1.11-.1-1.15-.28-.04-.17.5-.43,1.21-.37.71.06,1.19.41,1.13.57Z"/>
            <path class="cls-3" d="M169.02,70.87s.2.22.2.75c0,.26-.05.59-.23.94-.17.35-.5.71-.93.97-.87.49-1.89.89-3.12,1.42-1.22.51-2.64,1.06-4.28,1.51-.4.1-.82.2-1.24.31-.42.11-.86.24-1.35.31-.48.05-1.1.15-1.73-.33-.15-.11-.27-.3-.34-.42-.07-.13-.13-.26-.18-.39-.1-.26-.17-.52-.23-.78-.11-.51-.17-1-.29-1.44-.13-.46-.27-.96-.44-1.44-.31-.98-.68-1.97-1.09-2.97-1.65-3.99-4.12-8.17-7.19-12.09-1.57-1.92-3.3-3.68-5.17-5.02-1.89-1.34-3.95-2.33-5.94-3.23-1.95-.94-3.9-1.47-5.79-1.62-.96-.07-1.88-.09-2.75-.04-.86.05-1.7.23-2.5.39-6.43,1.46-10.07,3.52-10.15,3.32-.04-.07.81-.67,2.49-1.49,1.68-.81,4.19-1.88,7.45-2.72.82-.19,1.68-.41,2.63-.5.94-.08,1.9-.08,2.9-.03,2.02.1,4.18.65,6.2,1.59,2.03.88,4.17,1.87,6.19,3.28,2.03,1.43,3.8,3.25,5.44,5.24,1.63,2.01,2.98,4.12,4.21,6.19,1.23,2.09,2.26,4.19,3.08,6.26.41,1.04.77,2.06,1.07,3.08.16.51.29,1,.42,1.51.13.54.17,1.04.26,1.49.04.22.1.43.16.62.07.2.16.37.21.4.12.13.53.18.92.13.41-.04.82-.15,1.25-.25.42-.09.84-.18,1.24-.27,1.59-.37,3-.86,4.24-1.3,1.22-.46,2.34-.82,3.13-1.19.79-.37,1.07-1.04,1.14-1.49.08-.46,0-.71.06-.73Z"/>
            <path class="cls-3" d="M167.16,72.58c-.05,0-.14-.65-.46-1.81-.31-1.15-.91-2.78-1.88-4.68-.97-1.9-2.22-4.13-3.75-6.51-1.54-2.36-3.39-4.88-5.72-7.14-2.32-2.26-4.91-4.03-7.49-5.12-2.58-1.1-5.12-1.51-7.23-1.41-2.12.09-3.79.61-4.91,1-1.13.4-1.73.68-1.75.64-.02-.03.55-.39,1.66-.87,1.11-.47,2.79-1.07,4.98-1.22,2.18-.16,4.82.22,7.49,1.32,2.67,1.09,5.34,2.89,7.71,5.2,2.38,2.31,4.24,4.88,5.77,7.28,1.52,2.42,2.73,4.68,3.66,6.63.93,1.95,1.47,3.64,1.71,4.82.12.59.18,1.06.21,1.38.02.32.02.49,0,.49Z"/>
            <path class="cls-3" d="M167.25,72.24c.05.17-2.31,1.06-5.23,2.12-2.92,1.06-5.3,1.9-5.37,1.73-.07-.16,2.21-1.27,5.15-2.34,2.93-1.07,5.4-1.68,5.45-1.51Z"/>
            <path class="cls-3" d="M169.01,73.04c-.08-.04.08-.71-.27-1.97-.32-1.25-.94-3.04-1.92-5.14-1.03-2.07-2.36-4.54-4.05-7.09-.85-1.28-1.8-2.58-2.87-3.86-1.07-1.29-2.2-2.57-3.54-3.69-2.66-2.34-5.5-4.14-8.31-5.32-1.3-.49-2.82-.69-4.13-.8-1.32-.09-2.58.02-3.71.22-2.27.39-4.06,1.04-5.3,1.44-1.24.42-1.94.65-1.97.57-.03-.08.59-.46,1.78-1.03,1.2-.56,2.96-1.35,5.31-1.88,1.17-.26,2.5-.44,3.94-.39,1.44.08,2.9.2,4.53.77,2.96,1.16,5.98,3.04,8.71,5.44,1.41,1.18,2.61,2.55,3.68,3.87,1.08,1.33,2.04,2.69,2.88,4.01,1.69,2.67,2.94,5.19,3.89,7.38.9,2.21,1.4,4.08,1.58,5.42.09.67.08,1.2,0,1.56-.06.36-.21.52-.23.5Z"/>
            <path class="cls-3" d="M144.85,88.96c-.03-.08,1.23-.66,3.54-1.64,2.31-.98,5.67-2.35,9.84-4.03,2.09-.81,4.35-1.82,6.85-2.68,2.49-.91,5.17-1.77,7.84-2.95.73-.33,1.44-.53,1.98-.86.13-.08.25-.17.31-.25.07-.08.07-.09.1-.22.05-.24.02-.6-.03-.95-.09-.71-.31-1.47-.43-2.3-.11-.77-.25-1.55-.41-2.34-.62-3.12-1.56-6.3-2.95-9.37-2.75-6.15-7.26-11.04-12.14-14.22-2.45-1.57-4.92-2.95-7.4-3.5-1.25-.29-2.5-.46-3.69-.56-1.18-.1-2.33-.04-3.43.08-4.4.53-7.88,1.64-10.19,2.53-2.32.9-3.48,1.68-3.54,1.59-.02-.03.24-.27.79-.65.55-.37,1.4-.87,2.55-1.4,2.3-1.05,5.77-2.31,10.28-2.98,1.13-.15,2.34-.24,3.6-.16,1.25.08,2.53.23,3.86.51,2.71.56,5.27,1.96,7.81,3.54,5.09,3.23,9.81,8.29,12.67,14.68,1.44,3.18,2.39,6.46,3.01,9.66.15.8.29,1.6.4,2.4.09.74.31,1.5.42,2.32.05.42.1.84,0,1.36-.04.25-.2.6-.4.8-.19.21-.39.34-.58.46-.76.46-1.52.64-2.14.92-2.77,1.19-5.48,2.01-7.96,2.87-2.5.81-4.76,1.77-6.87,2.52-4.21,1.57-7.62,2.81-9.99,3.65-2.37.83-3.7,1.26-3.73,1.17Z"/>
            <path class="cls-3" d="M134.9,90.16c.09-.03.23.39.78.49.27.05.57,0,.8-.25.23-.23.38-.63.34-1.02-.09-.8-.83-1.49-1.3-1.65-.24-.08-.45-.01-.58.06-.13.08-.18.17-.23.16-.04,0-.08-.14.05-.33.11-.18.43-.4.85-.34.41.06.79.3,1.13.62.34.33.66.81.72,1.41.06.61-.18,1.18-.59,1.53-.4.37-.99.4-1.33.25-.37-.14-.58-.4-.66-.6-.07-.2-.04-.32,0-.33Z"/>
            <path class="cls-3" d="M145.94,87.5c-.03-.1.25-.22.44-.54.2-.32.24-.89.12-1.53-.08-.63-.45-1.03-.78-1.27-.33-.24-.61-.3-.61-.4,0-.08.32-.19.82,0,.24.09.52.26.75.53.23.25.41.67.46,1.03.15.73.02,1.53-.4,1.93-.42.39-.79.32-.8.26Z"/>
            <path class="cls-3" d="M145.36,83.65c.06.16-2.51,1.31-5.77,2.54-.82.3-1.6.58-2.31.83-.74.28-1.43.33-1.92.53-.51.17-.75.47-.78.76-.03.28.02.47-.04.48-.03,0-.17-.13-.21-.49,0-.17,0-.43.17-.65.16-.22.4-.4.68-.53.56-.28,1.24-.38,1.9-.66.7-.27,1.47-.57,2.28-.88,3.25-1.23,5.93-2.1,5.99-1.94Z"/>
            <path class="cls-3" d="M145.94,87.5c.08.18-1.95,1.22-4.59,2.14-2.63.94-4.84,1.47-4.89,1.29-.05-.17,2.06-.96,4.67-1.9,2.62-.92,4.73-1.68,4.8-1.53Z"/>
            <path class="cls-3" d="M138.94,104.19c-.16,0-.64-3.13-1.29-7.02-.65-3.89-.79-7.12-.59-7.13.16,0,.58,3.14,1.23,7.03.65,3.89.85,7.11.65,7.12Z"/>
            <path class="cls-3" d="M138.25,108.39c-.09.01-.3-.94-.59-2.48-.29-1.54-.65-3.68-.99-6.05-.7-4.75-.83-8.65-.64-8.66.09,0,.23.96.44,2.51.22,1.55.51,3.7.84,6.06.69,4.73,1.13,8.6.93,8.63Z"/>
            <ellipse class="cls-3" cx="145.29" cy="93.07" rx=".32" ry="5.4" transform="translate(-8.52 14.88) rotate(-5.7)"/>
            <path class="cls-3" d="M141.63,98.69c.04.1-.36.2-.74-.1-.19-.14-.38-.33-.54-.6-.08-.13-.16-.33-.17-.53-.01-.2.02-.39.09-.56.25-.7.81-1.12,1.23-1.27.43-.16.72-.09.73,0,.01.09-.22.19-.52.41-.29.22-.66.58-.83,1.07-.08.26-.09.4,0,.61.09.21.21.39.32.53.22.3.4.35.43.44Z"/>
            <path class="cls-3" d="M141.94,103.96s.1.22.27.57c.09.17.21.39.4.49.2.09.54.17.87.19.36.03.69,0,1.06-.17.36-.16.74-.39,1.04-.7.53-.56.52-1.75.52-2.8-.04-1.08-.19-2.14-.55-2.96-.38-.84-.91-1.51-1.44-1.97-1.07-.95-2.05-.91-2.03-1.01,0-.04.23-.11.66-.06.42.05,1.04.25,1.66.72.61.46,1.24,1.16,1.69,2.08.45.95.61,2.05.65,3.2.02.58-.02,1.14-.09,1.68-.07.54-.23,1.14-.66,1.56-.4.37-.83.61-1.27.77-.43.17-.93.19-1.3.13-.4-.06-.71-.15-1.02-.34-.3-.23-.38-.51-.44-.71-.11-.42-.08-.66-.04-.66Z"/>
            <path class="cls-3" d="M142.83,102.08c.03-.08.35-.03.58-.3.21-.19.11-.86-.13-1.46-.24-.61-.65-1.05-1-1.28-.35-.23-.64-.26-.65-.35-.03-.08.32-.25.85-.06.51.16,1.12.7,1.41,1.45.15.37.22.75.22,1.1.02.35-.12.78-.41.96-.27.18-.53.17-.68.12-.16-.05-.21-.14-.19-.17Z"/>
            <path class="cls-3" d="M141.44,109.6c-.08.02-.32-.42-.49-1.21-.18-.78-.24-1.92.01-3.14.26-1.19.75-2.28,1.4-2.84.63-.53,1.09-.71,1.14-.65.06.08-.32.41-.81.97-.47.55-.85,1.53-1.1,2.66-.5,2.27.03,4.17-.15,4.21Z"/>
            <path class="cls-3" d="M138.73,110.09c-.08.02-.32-.62-.47-1.71-.15-1.08-.17-2.66.38-4.29.56-1.64,1.62-2.87,2.54-3.5.93-.65,1.64-.76,1.65-.69.04.1-.58.36-1.37,1.05-.79.68-1.7,1.84-2.21,3.35-.51,1.51-.56,2.99-.54,4.05.03,1.06.11,1.73.02,1.75Z"/>
            <path class="cls-3" d="M140.23,110.85c-.08.16-.71.03-1.44-.22-.74-.24-1.33-.54-1.28-.72.05-.17.71-.15,1.48.1.78.26,1.31.67,1.24.83Z"/>
            <path class="cls-3" d="M151.4,111.37c-.08,0-.18-1.14-.99-2.78-.2-.4-.45-.84-.77-1.23-.16-.19-.35-.38-.54-.49-.1-.04-.1-.04-.18-.01-.07.03-.22.13-.35.21-.26.16-.53.33-.8.5-.28.17-.51.33-.54.49-.06.16.05.52.08.88.04.36.06.73.02,1.11-.07.75-.32,1.52-.88,2.06-.54.53-1.28.82-2,.72-.74-.1-1.28-.66-1.52-1.2-.12-.28-.2-.56-.21-.85,0-.27.01-.53-.03-.65.03-.19-.52,0-.82.14-.32.13-.61.31-.86.38-.5.17-.77.24-.79.21-.02-.04.23-.2.69-.44.23-.11.46-.3.81-.48.17-.09.34-.17.55-.26.14-.05.25-.07.42-.05.19.01.36.15.42.33.11.32.07.56.1.79.02.21.09.44.2.66.21.43.61.79,1.11.84.5.06,1.08-.17,1.48-.58.4-.4.63-1.02.68-1.67.03-.33.02-.66-.02-.98-.01-.32-.16-.63-.05-1.13.17-.51.59-.68.83-.84.28-.16.55-.32.81-.48.14-.08.24-.16.44-.24.2-.1.52-.05.67.06.31.19.5.42.69.65.35.47.58.94.76,1.37.73,1.76.67,2.98.57,2.97Z"/>
            <path class="cls-3" d="M142.77,109.76c-.06.17-.43.18-.82.03-.39-.15-.65-.41-.59-.58s.43-.18.82-.03c.39.15.65.41.59.58Z"/>
            <path class="cls-3" d="M139.11,110.48c0-.2.7-.22,1.34-.39.66-.18.92-.66,1.09-.65.08.01.15.22.02.52-.13.29-.46.62-.92.75-.92.23-1.54-.08-1.53-.23Z"/>
            <path class="cls-3" d="M141.53,123.74c-.02.06-.95-.09-2.36-.73-.69-.33-1.53-.84-2.16-1.71-.61-.9-.95-1.98-1.19-3.14-.38-2.35-.15-4.51.37-5.98.52-1.47,1.19-2.18,1.24-2.14.1.06-.42.85-.81,2.28-.39,1.41-.53,3.52-.18,5.72.23,1.09.56,2.15,1.05,2.92.52.77,1.25,1.28,1.88,1.65,1.29.71,2.19,1.04,2.15,1.14Z"/>
            <path class="cls-3" d="M151.16,109.99s.21.43.37,1.27c.15.84.28,2.08.15,3.61-.16,1.52-.49,3.37-1.58,5.14-.55.87-1.24,1.7-2.08,2.44-.84.73-1.83,1.39-3.01,1.74-.28.11-.6.12-.9.18-.3.02-.61.01-.91,0-.6-.09-1.19-.29-1.67-.62-.98-.64-1.67-1.6-2-2.59-.65-1.97-.74-3.81-.65-5.34.1-1.53.42-2.74.69-3.55.28-.81.51-1.22.54-1.21.13.03-.68,1.78-.78,4.77-.04,1.48.11,3.29.75,5.11.32.9.94,1.72,1.78,2.26.83.56,1.93.68,2.97.35,2.09-.66,3.71-2.29,4.77-3.88,1.04-1.62,1.43-3.42,1.63-4.87.37-2.97-.18-4.82-.06-4.83Z"/>
            <path class="cls-3" d="M140,116.27c-.17.03-.41-.71-.27-1.61.13-.91.57-1.54.73-1.46.17.07.03.75-.09,1.56-.13.81-.19,1.5-.37,1.52Z"/>
            <path class="cls-3" d="M142.23,112.09c.08-.03.22.11.17.37-.04.24-.31.6-.81.55-.49-.1-.63-.54-.6-.77.04-.27.21-.35.28-.3.08.05.11.16.18.25.06.09.19.18.24.18.05.02.2-.03.29-.1.1-.06.16-.16.25-.18Z"/>
            <path class="cls-3" d="M141.21,118.49c.09,0,.18.1.17.28,0,.18-.14.44-.43.55-.29.11-.57,0-.69-.12-.13-.13-.13-.27-.07-.32.14-.1.39-.09.52-.16.15-.04.33-.21.5-.23Z"/>
            <path class="cls-3" d="M144.08,122.97c.17.06.13.45-.24.59-.38.13-.65-.15-.56-.3.08-.16.23-.26.34-.31.12-.03.29-.05.46.02Z"/>
            <path class="cls-3" d="M148.86,119.38s.03.12-.07.14c-.11.02-.17,0-.26-.03-.15-.06-.3-.18-.42-.34-.24-.32-.28-.65-.14-.75.15-.11.44.07.66.36.11.14.18.29.21.39,0,.06.03.07-.02.15,0,.06,0,.05,0,.05,0,0,.03.03.04.04Z"/>
            <path class="cls-3" d="M149.06,108.7c.08-.02.19.04.23.21.04.17-.03.41-.22.57-.18.16-.43.2-.59.15-.16-.06-.21-.18-.18-.25.1-.16.23-.26.34-.38.13-.1.24-.22.41-.29Z"/>
            <path class="cls-3" d="M147.57,106.76c-.19-.02-.2-1.19-.44-2.59-.23-1.4-.61-2.51-.44-2.59.15-.08.83.98,1.08,2.48.26,1.5-.03,2.72-.2,2.7Z"/>
            <path class="cls-3" d="M147.34,106.72c.06.04,0,.31-.37.47-.37.17-.95.09-1.4-.26-.21-.16-.44-.43-.47-.73-.03-.28.03-.48.07-.63.1-.29.15-.46.24-.48.09-.02.2.2.21.53.01.16.01.34.06.46.03.11.13.21.29.34.31.24.65.34.88.33.24,0,.42-.1.49-.03Z"/>
            <path class="cls-1" d="M144.23,106.97"/>
            <path class="cls-3" d="M149.13,106.71c-.12.13-.46.02-.8-.17-.34-.19-.61-.41-.56-.59.04-.17.46-.21.88.02.42.23.61.61.48.73Z"/>
            <path class="cls-3" d="M147.41,107.19c-.09-.16.05-.4.2-.62.15-.2.29-.39.47-.41.18-.03.33.4.06.78-.26.37-.65.4-.73.24Z"/>
            <path class="cls-3" d="M146.4,116.85c-.09-.04.03-.32-.04-.6-.04-.23-.49-.49-.93-.37-.37.1-.62.61-.56.86.05.3.25.49.2.57-.03.07-.37.05-.63-.42-.24-.49,0-1.36.83-1.64.77-.21,1.58.33,1.55.96-.06.55-.36.67-.41.64Z"/>
            <path class="cls-3" d="M146.31,116.97c.09-.02.3.43.57,1.18.13.38.29.83.46,1.32.04.13.08.26.12.4.08.25.07.54-.19.67-.32.14-.35.12-.49.19-.12.05-.23.11-.34.19l-.15.11c-.09.06-.21.14-.32.18-.21.09-.42.08-.61.11-.02-.26-.05-.55-.08-.74-.02-.12-.04-.24-.05-.36-.04-.24-.07-.46-.11-.68-.07-.43-.12-.82-.15-1.16-.02-.67.03-1.06.1-1.07.08-.01.19.38.31,1.01.08.31.18.69.29,1.11.05.21.1.44.16.68.02.12.05.24.07.37.01.05,0,.02.01.03h0s0,0,0,0l.16-.11c.14-.1.3-.17.45-.24.13-.06.39-.13.32-.11,0,0,0,0,0-.01-.03-.13-.06-.26-.09-.38-.13-.5-.25-.98-.32-1.36-.16-.78-.22-1.28-.13-1.3Z"/>
            <path class="cls-3" d="M111.93,142.79c.05.06-.25.46-1.01.94-.38.23-.88.47-1.5.64-.32.08-.62.16-1.05.18-.21,0-.5-.03-.75-.22-.25-.18-.39-.44-.47-.65-.94-3.02-1.82-7.14-2.43-11.81-.64-4.65-.88-8.87-1.17-11.92-.26-3.05-.34-4.94-.16-4.96s.57,1.84,1.07,4.87c.52,3.02.91,7.23,1.54,11.84.6,4.59,1.35,8.78,2.01,11.67.11.29.11.31.38.35.26.02.61-.02.88-.06.57-.09,1.05-.24,1.43-.39.77-.3,1.17-.56,1.23-.49Z"/>
            <path class="cls-3" d="M108.67,144.18c-.07-.17,2.24-1.3,5.99-3.02.46-.22.93-.46,1.4-.74.23-.14.47-.28.7-.44.25-.17.52-.34.79-.5,1.07-.63,2.3-1.17,3.43-1.82.29-.17.6-.35.94-.52l.26-.12c.08-.04.11-.05.16-.09.1-.06.19-.14.28-.24.32-.37.7-1.11.7-1.58.01-.56-.17-1.4-.24-2.15-.09-.76-.19-1.54-.28-2.32-.75-6.28-1.36-11.97-1.74-16.09-.38-4.13-.52-6.69-.34-6.71.18-.02.64,2.5,1.25,6.6.61,4.1,1.36,9.77,2.11,16.04.09.78.18,1.56.27,2.32.06.78.24,1.44.23,2.37,0,.46-.2.97-.36,1.29-.17.37-.39.74-.7,1.07-.16.16-.34.32-.54.44-.09.06-.23.12-.3.16l-.22.1c-.29.14-.58.3-.89.47-1.26.68-2.45,1.15-3.5,1.72-.26.14-.51.28-.75.43-.26.16-.52.31-.78.45-.52.27-1.03.5-1.51.7-3.88,1.52-6.29,2.34-6.36,2.18Z"/>
            <path class="cls-3" d="M120.72,107.84c.14.33-3.63,2.2-8.42,4.17-4.79,1.97-8.78,3.31-8.91,2.98-.14-.33,3.63-2.2,8.42-4.17,4.79-1.97,8.78-3.31,8.91-2.98Z"/>
            <path class="cls-3" d="M107.36,142.84s.52-.34,1.48-.87c.97-.54,2.36-1.31,4.09-2.27,1.73-.96,3.79-2.11,6.17-3.22.6-.28,1.21-.55,1.84-.82.32-.13.58-.26.73-.47.16-.2.22-.5.23-.82,0-.64-.14-1.38-.22-2.11-.09-.73-.19-1.47-.29-2.22-.78-5.98-1.43-11.41-1.79-15.36-.18-1.97-.3-3.57-.36-4.67-.06-1.11-.07-1.72-.02-1.72.05,0,.14.6.27,1.7.13,1.1.33,2.69.57,4.65.51,3.92,1.21,9.34,1.98,15.32.1.75.19,1.49.28,2.22.08.74.22,1.42.22,2.21-.01.39-.09.82-.37,1.18-.27.37-.68.53-.99.66-.63.26-1.24.53-1.83.79-2.37,1.07-4.45,2.18-6.2,3.08-1.75.91-3.19,1.63-4.19,2.1-1,.47-1.58.69-1.6.65Z"/>
            <path class="cls-3" d="M123.53,135.57c-.1.15-.42.11-.76.03-.34-.09-.64-.21-.65-.39-.02-.18.35-.36.81-.24.46.11.7.45.6.6Z"/>
            <path class="cls-3" d="M122.28,134.61c.16-.08.34-.04.41.1.07.13-.01.31-.17.38-.16.08-.34.04-.41-.1-.07-.13.01-.31.17-.38Z"/>
            <path class="cls-3" d="M127,104.6s.14.61.29,1.73c.13,1.12.31,2.73.54,4.72.43,3.99.98,9.51,1.54,15.6.14,1.52.27,3.01.41,4.45.03.36.08.68.21.9.06.11.13.16.22.19.12.02.26.04.41.02.6-.07,1.23-.35,1.82-.62,1.2-.58,2.36-1.1,3.41-1.59,1.02-.52,2.22-.85,2.67-1.57.23-.39.23-.81.15-1.27-.05-.45-.1-.87-.14-1.26-.08-.79-.16-1.47-.22-2.03-.11-1.11-.15-1.74-.11-1.74.04,0,.17.6.36,1.71.09.56.2,1.24.33,2.03.06.4.13.82.19,1.27.09.42.12,1.01-.16,1.52-.29.53-.82.82-1.3,1.08-.49.24-1.01.49-1.54.75-1.06.52-2.2,1.07-3.39,1.65-.61.28-1.24.6-2.02.7-.19.03-.41.01-.63-.04-.26-.07-.47-.26-.58-.46-.23-.4-.27-.81-.31-1.16-.14-1.44-.28-2.93-.42-4.45-.57-6.1-1.04-11.63-1.35-15.64-.14-2-.26-3.62-.34-4.74-.06-1.12-.08-1.74-.04-1.75Z"/>
            <path class="cls-3" d="M136.97,111.24c-.09.01-.3-1.08-.57-2.85-.27-1.76-.6-4.24-.91-6.91-.02-.1-.06-.13-.07-.13-.03-.01-.16,0-.29.05-.3.13-.6.25-.89.37-.59.25-1.17.49-1.71.72-1.1.44-2.08.84-2.91,1.18-1.67.65-2.72,1.01-2.75.93s.95-.59,2.57-1.35c.82-.37,1.78-.81,2.86-1.3.54-.24,1.11-.49,1.7-.75.3-.13.61-.26.92-.4.18-.06.39-.14.69-.06.32.09.49.4.53.63.33,2.76.58,5.18.73,6.98.15,1.78.2,2.89.11,2.9Z"/>
            <path class="cls-3" d="M129.81,131.36c-.05-.08,1.01-.75,2.8-1.61.89-.44,1.95-.96,3.05-1.64.27-.17.57-.36.82-.53.11-.09.21-.19.27-.29.03-.05.05-.1.05-.15v-.2c-.05-.67-.14-1.43-.22-2.17-.36-3-.74-5.74-.82-7.74-.02-1.04.11-1.82.16-2.37.06-.55.07-.85.11-.86.04,0,.12.3.14.87.04.56-.02,1.38.05,2.33.2,1.97.65,4.67,1.01,7.7.08.77.17,1.48.21,2.24v.33c-.03.12-.08.24-.14.34-.12.21-.28.35-.44.47-.32.21-.59.38-.89.55-1.15.67-2.25,1.15-3.17,1.54-1.84.75-2.95,1.27-2.99,1.19Z"/>
            <path class="cls-3" d="M135.9,114.91c-.09,0-.23-.74-.33-1.95-.11-1.22-.17-2.86-.47-4.67-.5-3.67-.76-6.65-.58-6.67.18-.02.73,2.93,1.22,6.58.3,1.83.29,3.55.29,4.75-.02,1.21-.04,1.96-.13,1.96Z"/>
            <path class="cls-3" d="M138.86,128.15c-.16.33-.75.33-1.27.07-.53-.27-.76-.63-.74-.98.03-.39.77-.48,1.31-.18.57.29.84.77.69,1.09Z"/>
            <path class="cls-3" d="M146.21,123.33s.09.14.13.42c.02.14.05.31.09.51.02.11.05.2.08.26.02.09.12.11.2.05.72-.29,1.84-.66,2.99-1.37.59-.38,1.28-.7,1.97-1.09.7-.37,1.37-.89,2.1-1.4.36-.27.79-.49.96-.84.2-.34.23-.79.21-1.26-.07-.97-.21-2.01-.31-3.07-.2-2.13-.41-4.41-.63-6.76-.28-3.11-.5-6.08-.86-8.74-.16-1.34-.3-2.61-.44-3.8-.07-.6-.13-1.17-.2-1.72-.04-.28-.09-.38-.23-.39-.16-.02-.42.08-.66.16-1.93.64-3.45,1.29-4.49,1.74-1.04.46-1.61.73-1.64.69-.02-.04.51-.38,1.53-.92,1.02-.53,2.52-1.25,4.45-1.95.24-.07.48-.22.85-.2.19,0,.42.12.52.31.11.17.13.34.16.49.08.55.15,1.13.23,1.73.16,1.19.33,2.47.5,3.81.39,2.68.63,5.64.91,8.74.21,2.35.41,4.63.6,6.76.1,1.07.21,2.09.28,3.11.02.51,0,1.08-.3,1.57-.3.51-.75.72-1.11.98-.77.51-1.47,1.03-2.2,1.4-.73.38-1.41.67-1.99,1.02-1.24.7-2.32,1-3.17,1.27-.09.02-.16.06-.24.02-.07-.04-.12-.1-.15-.17-.06-.15-.08-.28-.09-.38-.02-.21-.03-.38-.03-.52,0-.28-.02-.42,0-.43Z"/>
            <path class="cls-3" d="M157.37,92.1c-.03-.08.92-.58,2.67-1.41,1.76-.83,4.32-2,7.51-3.42.4-.18.81-.36,1.22-.54.3-.13.75-.16,1.03.09.14.12.23.28.29.47l.03.14v.09s.02.18.02.18c.08.94.16,1.92.25,2.94.17,2.03.35,4.21.53,6.49.18,2.29.37,4.7.56,7.19.09,1.25.19,2.52.29,3.81.04.65.11,1.27.14,1.98.02.69-.08,1.59-.65,2.27-.48.57-1.06.89-1.57,1.17-.5.27-1,.53-1.5.79-.99.52-1.97,1.04-2.94,1.55-.97.51-1.92,1.01-2.85,1.5-.47.24-.93.49-1.39.73l-.21.11c-.11.05-.23.1-.35.13-.24.07-.48.06-.7-.03-.43-.18-.68-.71-.74-1.16-.51-7.3-1.13-13.54-1.43-17.98-.16-2.22-.25-3.98-.29-5.19-.04-1.21-.02-1.87.05-1.87.14-.01.46,2.58.99,6.99.51,4.41,1.29,10.65,1.89,17.94.01.05.01.04.03.05,0,0,.01,0,.02,0l.15-.08c.46-.25.92-.49,1.39-.74.93-.5,1.88-1.01,2.84-1.52.96-.51,1.94-1.03,2.93-1.56.95-.55,2.14-1.01,2.67-1.63.6-.66.29-2.05.24-3.31-.09-1.27-.18-2.52-.26-3.75-.17-2.46-.33-4.83-.48-7.09-.14-2.26-.28-4.42-.41-6.43-.06-1.01-.12-1.98-.18-2.92l-.02-.28s0-.06-.03-.08c-.05-.04-.08-.04-.19,0-.41.17-.82.33-1.21.49-3.16,1.28-5.73,2.31-7.53,2.99-1.79.68-2.81,1.02-2.84.94Z"/>
            <path class="cls-3" d="M159.24,116.41s.39-.31,1.15-.76c.76-.45,1.86-1.08,3.23-1.85,1.37-.76,3.01-1.66,4.82-2.66.48-.25.52-.45.48-1.05-.03-.54-.06-1.1-.09-1.66-.06-1.13-.12-2.29-.18-3.49-.24-4.78-.42-9.11-.52-12.25-.05-1.57-.08-2.84-.08-3.72,0-.88.01-1.37.06-1.37s.11.48.19,1.35c.08.87.18,2.14.29,3.71.22,3.13.47,7.46.71,12.25.06,1.2.11,2.36.17,3.49.03.56.05,1.12.08,1.66,0,.26.04.58-.1.93-.16.36-.47.53-.7.66-1.84.96-3.5,1.82-4.9,2.55-1.4.72-2.54,1.28-3.33,1.66s-1.24.57-1.26.53Z"/>
            <path class="cls-3" d="M171.25,111.89c.06,0,0,.13-.09.15-.09.03-.19.03-.31.02-.23-.03-.51-.12-.79-.26-.57-.29-.93-.57-.91-.73.03-.2.64-.14,1.2.15.28.14.52.29.68.42.08.06.14.11.16.15.02.04.01.09.08.1Z"/>
            <path class="cls-2" d="M98.41,158.27"/>
            <path class="cls-3" d="M122.23,147.43c-.11-.09,1.47-1.13,4.33-2.87,2.87-1.75,7.05-4.21,12.24-7.23,5.19-3.01,11.38-6.57,18.28-10.49,3.44-1.96,7.09-4.02,10.88-6.07.94-.52,1.88-1.05,2.83-1.59.95-.56,1.92-1.13,2.88-1.71.28-.15.52-.26.66-.35.15-.11.16-.12.19-.19.09-.14.07-.68.06-1.27-.02-1.13-.05-2.27-.07-3.41-.16-9.15-.31-17.87-.44-25.8-.03-1.98-.05-3.92-.08-5.79v-.28s0-.04,0-.04c0-.03,0-.07-.02-.09-.02-.02-.06-.01-.09,0h-.04s-.17.08-.17.08c-.85.32-1.69.64-2.52.95-3.3,1.24-6.38,2.39-9.19,3.44-5.62,2.09-10.19,3.75-13.35,4.86s-4.94,1.66-4.99,1.54c-.05-.12,1.63-.92,4.72-2.24s7.57-3.18,13.13-5.44c2.78-1.12,5.83-2.35,9.1-3.67.82-.33,1.65-.66,2.5-1l.47-.19c.2-.08.4-.16.59-.19.38-.06.72-.02,1.03.21.3.24.44.53.49.95.02.21.02.43.02.65v.42c.06,1.88.11,3.81.17,5.79.18,7.93.38,16.65.6,25.8.02,1.14.05,2.28.07,3.41,0,.29.02.54.01.89,0,.33-.04.74-.23,1.18-.18.46-.59.85-.91,1.05-.33.21-.61.33-.82.44-.46.28-.93.55-1.39.83-.48.28-.96.56-1.44.84-.97.53-1.92,1.06-2.87,1.59-3.82,2.03-7.43,4.04-10.91,5.96-6.96,3.81-13.22,7.24-18.48,10.12-5.27,2.86-9.56,5.15-12.54,6.69-2.97,1.54-4.68,2.35-4.7,2.22Z"/>
            <path class="cls-3" d="M91.44,135.04s.09.27.19.78c.1.52.24,1.28.42,2.27.34,1.97.82,4.83,1.42,8.36.07.45.15.87.22,1.38.04.25-.06.68-.42.84-.35.14-.65.03-.9-.06-.92-.52-1.69-1.11-2.58-1.69-1.74-1.18-3.61-2.44-5.57-3.77-3.91-2.6-8.41-5.26-13.02-8.18-2.31-1.45-4.57-2.87-6.72-4.3-.54-.36-1.06-.7-1.6-1.12-.35-.27-.46-.57-.61-.86-.14-.3-.25-.61-.34-.91-.36-1.23-.56-2.41-.82-3.57-.98-4.63-1.76-8.83-2.39-12.35-.63-3.52-1.1-6.38-1.41-8.36-.15-.99-.26-1.76-.34-2.28-.07-.52-.1-.8-.07-.8s.09.26.2.78c.1.52.26,1.28.46,2.26.38,1.97.93,4.81,1.61,8.32.69,3.51,1.52,7.69,2.52,12.31.27,1.15.49,2.36.83,3.51.09.29.19.56.32.83.12.26.27.56.46.66.46.35,1.01.71,1.54,1.06,2.15,1.41,4.41,2.82,6.72,4.28,4.62,2.92,9.07,5.58,13.03,8.24,1.94,1.34,3.79,2.62,5.52,3.81.86.57,1.72,1.23,2.48,1.68.43.18.68.12.64-.29-.05-.42-.13-.9-.19-1.34-.51-3.54-.93-6.41-1.22-8.39-.13-.99-.23-1.76-.3-2.29-.06-.52-.08-.8-.06-.8Z"/>
            <path class="cls-3" d="M89.08,116.75c.18-.02.76,3.43,1.29,7.72.54,4.29.83,7.78.65,7.8-.18.02-.76-3.43-1.29-7.72-.54-4.29-.83-7.78-.65-7.8Z"/>
            <path class="cls-3" d="M87.94,113.17c-.07.17-7.08-2.56-15.65-6.08-8.58-3.52-15.47-6.52-15.41-6.68.07-.17,7.08,2.56,15.65,6.08,8.58,3.52,15.47,6.52,15.41,6.68Z"/>
            <path class="cls-3" d="M66.27,106.94c-.2.32-1.14-.06-1.42-1.22-.06-.84.39-1.21.7-1.41.35-.19.65-.11.7.06.06.17,0,.36-.04.58-.05.2-.11.54-.08.57,0,0,0-.02,0,.02l.04.14c.02.09.05.17.07.25.04.16.06.29.08.41.03.24.06.46-.05.6Z"/>
            <path class="cls-3" d="M69.59,107.99c.07.14-.08.47-.62.5-.26,0-.57-.09-.82-.29-.13-.09-.24-.21-.34-.33-.1-.14-.18-.24-.27-.48-.22-.83.11-1.39.45-1.72.38-.34.79-.23.79-.06.02.19-.04.36-.05.58-.02.21-.04.61.03.77,0,0,.05.11.08.17.04.07.08.13.11.19.07.11.13.19.2.27.13.15.37.23.44.4Z"/>
            <path class="cls-3" d="M75.98,110.95c0,.08-.25.18-.64.05-.37-.12-.87-.56-.93-1.23-.05-.61.15-1.13.42-1.44.28-.32.59-.31.6-.23.03.09-.12.22-.22.48-.11.26-.2.69-.16,1.12.03.39.28.71.5.89.22.19.42.26.42.36Z"/>
            <path class="cls-3" d="M72.4,109.56c-.03.08-.27.1-.56-.13-.29-.19-.58-.76-.46-1.3.07-.52.37-.99.74-1.15.36-.16.59-.04.59.03,0,.1-.18.17-.33.35-.16.17-.3.48-.36.87-.17.75.45,1.18.38,1.33Z"/>
            <path class="cls-3" d="M75.98,111.05c-.08.16-.98-.08-2.07-.47-1.1-.39-1.93-.92-1.85-1.08.08-.16.98.08,2.07.47,1.1.39,1.93.92,1.85,1.08Z"/>
            <ellipse class="cls-3" cx="67.41" cy="107.36" rx=".65" ry="1.37" transform="translate(-57.63 128.17) rotate(-67.32)"/>
            <path class="cls-3" d="M71.76,108.52c-.07.16-.86-.01-1.76-.39s-1.57-.83-1.5-.99c.07-.16.86.01,1.76.39.9.38,1.57.83,1.5.99Z"/>
            <path class="cls-3" d="M78.17,109.58s.14.07.36.24c.22.18.54.45.9.85.36.4.78.97.96,1.75.17.77.23,1.62.36,2.57.22,1.91.53,4.11.76,6.69,0,.34-.06.73-.27,1.07-.2.34-.52.59-.86.75-.69.34-1.51.28-2.2.06-.7-.22-1.32-.55-1.95-.86-.64-.31-1.28-.63-1.94-.95-1.31-.65-2.59-1.25-3.8-1.94-1.21-.69-2.32-1.52-3.13-2.57-.84-1.03-1.2-2.29-1.45-3.37-.23-1.1-.44-2.13-.64-3.06-.19-.94-.36-1.78-.51-2.53-.14-.75-.31-1.37-.3-1.94,0-.58.31-1,.58-1.12.28-.14.45-.07.44-.06,0,.03-.16.02-.37.17-.21.15-.44.5-.4,1.01.03.5.24,1.14.4,1.87.18.74.38,1.57.6,2.5.22.93.46,1.94.71,3.03.28,1.08.62,2.2,1.4,3.13,1.53,1.92,4.16,3,6.75,4.3.65.32,1.29.64,1.93.95.63.31,1.26.64,1.87.83.61.2,1.23.23,1.75-.02.53-.23.8-.69.79-1.27-.19-2.44-.46-4.75-.62-6.63.25-4.04-2.35-5.35-2.12-5.47Z"/>
            <path class="cls-3" d="M79.3,120.27s.08.06.09.22c0,.16-.06.42-.31.62-.26.21-.69.26-1.1.12-.38-.19-.76-.2-1.29-.52-1.57-1.07-4.2-1.94-6.75-3.62-.32-.21-.62-.42-.92-.65-.29-.23-.62-.44-.86-.82-.42-.69-.54-1.39-.7-2.01-.32-1.26-.61-2.39-.85-3.34-.25-.95-.41-1.75-.43-2.31-.03-.56.05-.87.09-.87.07,0,.12,1.2.78,3.05.31.94.63,2.06.99,3.31.17.62.33,1.3.66,1.81.32.44,1.03.86,1.61,1.27,2.46,1.64,5.04,2.55,6.67,3.8.3.22.83.36,1.13.55.32.14.63.13.83.01.42-.27.32-.64.37-.64Z"/>
            <path class="cls-3" d="M75.74,110.67c.02-.07.73.04,1.57.79.41.37.83.93,1.1,1.62.28.69.42,1.48.53,2.28.22,1.58.46,3.06.38,4.15-.03.53-.11,1.01-.31,1.28-.19.28-.39.32-.41.29-.03-.04.09-.15.19-.4.1-.25.11-.64.08-1.17-.04-1.04-.34-2.44-.56-4.06-.1-.79-.22-1.53-.45-2.16-.21-.63-.53-1.13-.86-1.51-.67-.76-1.29-1.02-1.25-1.11Z"/>
            <path class="cls-3" d="M65.39,107.34c-.14-.1-.21-.32-.06-.56.15-.24.49-.44.87-.44.75.04.99.52.89.84-.1.35-.63.45-.9.46-.13,0-.23-.04-.36-.09-.13-.06-.3-.1-.45-.2Z"/>
            <path class="cls-3" d="M93.36,146.56s-.21-.07-.57-.25c-.36-.18-.89-.46-1.57-.83-1.35-.74-3.28-1.87-5.61-3.34-4.68-2.93-10.94-7.23-17.98-11.82-.44-.29-.87-.58-1.31-.86-.42-.29-.88-.55-1.29-.95-.84-.86-.97-1.99-1.21-2.91-.46-1.93-.88-3.79-1.27-5.57-.77-3.56-1.41-6.78-1.9-9.49-.49-2.71-.85-4.91-1.08-6.43-.11-.76-.19-1.35-.24-1.76-.05-.4-.06-.62-.04-.62.02,0,.08.2.17.6.08.4.2.98.36,1.74.3,1.51.74,3.69,1.28,6.39.55,2.7,1.23,5.9,2.03,9.45.42,1.77.85,3.63,1.3,5.56.24.96.4,1.97,1.05,2.6.32.32.76.58,1.19.87.43.29.87.57,1.31.86,7.04,4.59,13.28,8.96,17.87,11.97,2.3,1.51,4.18,2.7,5.49,3.5,1.31.81,2.03,1.25,2.01,1.3Z"/>
            <path class="cls-3" d="M62.83,129.1c-.09-.15.29-.56.86-.92.57-.36,1.11-.53,1.21-.37.09.15-.29.56-.86.92-.57.36-1.11.53-1.21.37Z"/>
            <path class="cls-3" d="M135.98,93.83s-.4.25-1.18.6c-.78.35-1.91.84-3.31,1.43-2.8,1.18-6.69,2.77-10.99,4.51-4.31,1.72-8.21,3.27-11.04,4.4-1.41.55-2.56,1-3.35,1.31-.79.31-1.23.47-1.25.43-.02-.04.39-.28,1.15-.66.77-.38,1.89-.89,3.28-1.5,2.79-1.22,6.66-2.84,10.97-4.57,4.3-1.73,8.22-3.26,11.06-4.33,1.42-.54,2.58-.96,3.38-1.24.8-.28,1.26-.41,1.27-.37Z"/>
            <path class="cls-3" d="M85.53,101.22s-.12-.32-.28-.95c-.16-.63-.41-1.55-.77-2.72-.73-2.34-1.98-5.68-4.01-9.57-1.01-1.95-2.21-4.03-3.58-6.22-.69-1.09-1.41-2.21-2.27-3.26-.87-1.04-1.86-2.06-2.91-3.03-1.06-.97-2.21-1.91-3.45-2.76-1.21-.87-2.6-1.59-4.09-1.75-1.5-.14-3.06.31-4.42,1.09-1.38.78-2.5,1.98-3.24,3.44-1.51,2.92-1.6,6.3-1.34,9.39.07.79.2,1.52.31,2.33.09.8.06,1.57.18,2.28.12.71.36,1.38.9,1.76.27.21.58.39.9.57l.48.27c.13.07.3.14.46.2,1.34.5,2.71.89,4.02,1.34.64.21,1.33.45,1.92.75.59.27,1.21.47,1.82.66,1.26.34,2.43.86,3.54,1.26,1.12.41,2.22.77,3.26,1.11,2.09.68,3.98,1.38,5.58,2.05,1.62.67,3.02,1.2,4.15,1.73,1.08.54,1.99,1.02,2.58.85.26-.13.26-.43.26-.57,0-.16,0-.25,0-.25.01,0,.03.08.06.25.02.14.07.49-.27.7-.71.24-1.64-.25-2.74-.75-1.11-.48-2.55-.98-4.17-1.62-1.63-.65-3.49-1.3-5.59-1.95-1.05-.33-2.15-.68-3.29-1.08-1.15-.4-2.28-.89-3.53-1.21-.62-.18-1.26-.39-1.89-.66-.61-.3-1.21-.5-1.88-.71-1.31-.43-2.66-.81-4.06-1.32-.18-.07-.35-.13-.54-.23l-.48-.27c-.32-.18-.66-.37-.98-.62-.7-.5-1.01-1.38-1.14-2.14-.13-.79-.11-1.57-.19-2.32-.11-.73-.25-1.55-.32-2.34-.27-3.15-.21-6.64,1.39-9.75.77-1.54,2.01-2.87,3.49-3.69,1.46-.84,3.14-1.32,4.81-1.17,1.68.18,3.14.97,4.39,1.87,1.26.88,2.43,1.84,3.51,2.83,1.07,1,2.06,2.03,2.95,3.11.88,1.09,1.6,2.23,2.28,3.34,1.36,2.21,2.55,4.32,3.53,6.29,2,3.94,3.19,7.33,3.85,9.71.33,1.19.54,2.12.66,2.76.12.64.17.98.15.98Z"/>
            <path class="cls-3" d="M85.26,100.34s-.71-.15-1.93-.59c-1.23-.44-2.96-1.17-5.09-2.09-2.12-.95-4.72-1.85-7.59-2.91-2.9-1.01-6.06-2.2-9.42-3.29-.84-.27-1.67-.52-2.5-.75-.4-.12-.87-.19-1.3-.55-.21-.18-.36-.46-.41-.7-.06-.25-.08-.46-.11-.66-.22-1.66-.37-3.28-.4-4.83-.09-3.1.39-5.92,1.28-8.1.89-2.17,2.08-3.78,3.25-4.46.58-.35,1.1-.46,1.45-.47.35-.01.53.05.53.07.02.08-.78-.11-1.84.62-1.06.69-2.15,2.28-2.96,4.41-.81,2.14-1.23,4.88-1.11,7.92.05,1.52.21,3.11.44,4.76.06.43.09.79.32.96.23.2.63.3,1.05.41.84.23,1.68.48,2.52.76,3.38,1.1,6.53,2.3,9.42,3.34,2.87,1.09,5.48,2.04,7.58,3.05,2.11.98,3.8,1.77,5,2.28,1.19.51,1.86.78,1.84.82Z"/>
            <path class="cls-3" d="M55.75,91.08c-.05-.17.39-.46.98-.65.6-.15.95-.29,1.1-.2.07.06.03.22-.14.4-.17.18-.46.33-.76.42-.6.19-1.12.2-1.18.03Z"/>
            <path class="cls-3" d="M54.8,83.31c.18,0,.38,1.64.69,3.64.16,1,.3,1.9.41,2.56.1.64.29.99.22,1.04-.06.06-.43-.25-.67-.92-.23-.66-.44-1.56-.61-2.58-.32-2.05-.23-3.74-.05-3.74Z"/>
            <path class="cls-3" d="M55.86,79.06c.19.03-.13,2.51.1,5.57.21,3.05.88,5.47.7,5.52-.15.06-1.13-2.33-1.34-5.48-.24-3.14.39-5.65.54-5.61Z"/>
            <path class="cls-3" d="M57.3,77.6c.09.03-.1.73-.29,1.88-.2,1.14-.33,2.73-.29,4.5.12,3.54.56,6.43.35,6.45-.14.02-.87-2.81-.99-6.44-.04-1.81.17-3.46.49-4.61.31-1.15.67-1.81.74-1.78Z"/>
            <path class="cls-3" d="M55.57,82.5c-.17,0-.2-2.06.55-4.46.37-1.19.85-2.22,1.25-2.93.4-.76.97-1.01,1-.91.04.08-.32.37-.59,1.11-.29.74-.69,1.77-1.05,2.92-.73,2.31-.98,4.28-1.17,4.27Z"/>
            <path class="cls-3" d="M73.13,134.94c-.11.15-2.12-1.18-4.6-2.81-2.48-1.63-4.5-2.94-4.41-3.1.09-.15,2.27.92,4.77,2.56,2.5,1.64,4.35,3.21,4.25,3.35Z"/>
            <path class="cls-3" d="M73.85,134.31c-.11.15-2.18-1.17-4.73-2.78-2.55-1.61-4.64-2.92-4.55-3.08.08-.15,2.32.9,4.89,2.53,2.58,1.62,4.49,3.19,4.39,3.33Z"/>
            <path class="cls-3" d="M67.02,130.89c-.09.15-.86-.15-1.71-.68-.85-.53-1.47-1.08-1.37-1.23.09-.15.86.15,1.71.68s1.47,1.08,1.37,1.23Z"/>
            <path class="cls-3" d="M66.1,129.74c-.1.15-.55.02-1.01-.28-.46-.3-.75-.67-.65-.82.1-.15.55-.02,1.01.28.46.3.75.67.65.82Z"/>
            <path class="cls-3" d="M61.23,118.49c.17-.04.8,2.14,1.4,4.87.6,2.73.95,4.98.77,5.01-.17.04-.8-2.14-1.4-4.87-.6-2.73-.95-4.98-.77-5.01Z"/>
            <path class="cls-3" d="M61.47,112.43c.18-.02.76,3.61,1.3,8.12.29,2.25.42,4.31.71,5.73.28,1.44.72,2.24.63,2.29-.06.05-.67-.71-1.08-2.19-.42-1.47-.62-3.52-.91-5.77-.54-4.51-.84-8.17-.66-8.2Z"/>
            <path class="cls-3" d="M122.24,130.33c.18-.02.43.92.68,2.08.25,1.16.41,2.12.24,2.18-.17.06-.61-.85-.87-2.04-.26-1.2-.23-2.2-.05-2.22Z"/>
            <path class="cls-3" d="M122.35,127.62c.18-.02.46,1.65.63,3.73.17,2.08.16,3.77-.02,3.78s-.46-1.66-.63-3.73c-.17-2.07-.16-3.76.02-3.78Z"/>
            <path class="cls-3" d="M137.59,122.98c.17-.03.47.8.58,1.86.11,1.07,0,1.94-.19,1.94-.18,0-.35-.84-.46-1.88-.11-1.04-.11-1.9.06-1.93Z"/>
            <path class="cls-3" d="M137.81,122.17c.17-.04.57.99.79,2.33.22,1.34.17,2.45-.01,2.46-.18.02-.41-1.05-.63-2.36-.21-1.31-.33-2.39-.15-2.43Z"/>
            <path class="cls-3" d="M137.2,123.79c.18-.03.51.92.74,2.14.24,1.21.28,2.23.11,2.26-.18.03-.51-.92-.74-2.14-.24-1.21-.28-2.23-.11-2.26Z"/>
            <path class="cls-3" d="M138.02,126.26c.32-.15.75.08.84.56.09.48-.23.85-.58.83-.36-.02-.63-.29-.69-.59-.05-.3.11-.65.43-.8Z"/>
            <path class="cls-3" d="M146.66,122.98s.37-.28,1.09-.69c.72-.41,1.78-.97,3.08-1.66.33-.17.67-.35,1.03-.54.38-.2.71-.33.85-.64.14-.26.05-.71.02-1.18-.04-.46-.08-.94-.12-1.42-.15-1.95-.32-4.09-.5-6.34-.35-4.5-.55-8.58-.88-11.51-.13-1.47-.23-2.66-.29-3.49-.05-.83-.06-1.28-.02-1.29.04,0,.14.44.27,1.26.13.82.3,2,.49,3.47.45,2.93.72,7,1.07,11.5.16,2.25.31,4.39.45,6.34.03.49.06.96.09,1.43,0,.44.15.94-.11,1.48-.26.51-.79.68-1.11.84-.36.17-.71.34-1.04.5-1.33.64-2.42,1.14-3.17,1.48-.76.34-1.18.5-1.2.46Z"/>
            <path class="cls-3" d="M154.95,119.86c-.05.17-.48.19-.94.04-.47-.15-.8-.41-.74-.58.05-.17.48-.19.94-.04.47.15.8.41.74.58Z"/>
            <path class="cls-3" d="M153.23,109.87c.18,0,.4,2.12.49,4.75.09,2.63.02,4.77-.16,4.78-.18,0-.4-2.12-.49-4.75-.09-2.63-.02-4.77.16-4.78Z"/>
            <path class="cls-3" d="M152.88,104.26c.18-.02.62,3.36.99,7.53s.52,7.57.34,7.59c-.18.02-.62-3.36-.99-7.53-.37-4.18-.52-7.57-.34-7.59Z"/>
            <path class="cls-3" d="M153.57,117.41c.18,0,.37.33.44.74.06.42-.03.79-.21.84-.17.04-.37-.29-.44-.74-.07-.46.03-.83.21-.84Z"/>
            <path class="cls-3" d="M152.81,104.39c.18,0,.34,2.07.35,4.62.02,2.55-.12,4.62-.3,4.62-.18,0-.34-2.06-.35-4.62-.02-2.55.12-4.62.3-4.62Z"/>
            <path class="cls-3" d="M137.99,125.24c-.17.06-.51-.48-.66-1.24-.15-.76-.04-1.39.14-1.4.18-.01.36.57.5,1.27.14.71.19,1.31.02,1.37Z"/>
            <path class="cls-3" d="M137.76,122.63c-.17.04-.34-.05-.38-.21s.07-.31.25-.36c.17-.04.34.05.38.21.04.16-.07.31-.25.36Z"/>
            <path class="cls-3" d="M137.65,123.35c-.17.04-.39-.43-.48-1.06-.09-.62-.02-1.14.16-1.15.18-.01.4.46.48,1.06.09.6.02,1.11-.16,1.15Z"/>
            <path class="cls-3" d="M137.42,122.61c-.18,0-.32-.18-.36-.4-.03-.21.05-.43.22-.49.17-.06.38.11.42.39.04.28-.1.5-.28.5Z"/>
            <path class="cls-3" d="M119.84,112.97c.18-.03.88,3.78,1.58,8.5.7,4.72,1.12,8.57.94,8.6-.18.03-.88-3.78-1.58-8.5-.7-4.72-1.12-8.57-.94-8.6Z"/>
            <path class="cls-3" d="M169.35,98.83c.18,0,.27,2.79.41,6.22.14,3.43.27,6.22.09,6.23-.17.02-.6-2.76-.74-6.21-.14-3.45.06-6.25.24-6.25Z"/>
            <path class="cls-3" d="M169.51,93.41c.18-.01.58,3.86.89,8.64.31,4.79.42,8.67.24,8.69-.18.01-.58-3.86-.89-8.64-.31-4.79-.42-8.67-.24-8.69Z"/>
            <path class="cls-3" d="M169.99,107.48c.18,0,.35.86.47,1.94.11,1.07.13,1.96-.05,1.99-.17.03-.48-.82-.6-1.92-.12-1.1,0-2,.17-2.01Z"/>
            <path class="cls-3" d="M168.68,72.51c.05.17-.33.43-.87.39-.54-.04-.88-.35-.81-.51.07-.17.44-.16.85-.14.41.03.78.08.83.25Z"/>
            <path class="cls-3" d="M165.03,64.37c.12-.11,1.42,1.39,2.05,3.7.64,2.31.29,4.26.12,4.23-.19-.01-.14-1.88-.75-4.06-.58-2.18-1.58-3.77-1.42-3.87Z"/>
            <path class="cls-3" d="M161.76,58.33c.11-.11,2.51,2.5,4.29,6.46,1.8,3.94,2.19,7.47,2.04,7.48-.2.04-.86-3.36-2.63-7.21-1.74-3.86-3.86-6.6-3.7-6.72Z"/>
            <path class="cls-3" d="M167.24,69.86c.17-.04.41.52.54,1.24.12.72.07,1.33-.1,1.35-.18.02-.42-.53-.54-1.24-.12-.7-.07-1.31.1-1.35Z"/>
            <path class="cls-3" d="M162.13,58.23c.08-.05.6.66,1.38,1.84.77,1.19,1.86,2.81,2.89,4.74,1.04,1.94,1.56,3.89,1.76,5.31.2,1.42.13,2.31.05,2.32-.2.03-.34-3.55-2.38-7.33-1.01-1.88-2.05-3.55-2.71-4.8-.68-1.24-1.06-2.04-.99-2.08Z"/>
            <path class="cls-3" d="M160.51,57.27c.14-.1,1.7,1.9,3.16,4.66,1.47,2.75,2.26,5.16,2.1,5.22-.17.07-1.22-2.2-2.67-4.92-1.44-2.72-2.74-4.86-2.59-4.96Z"/>
            <path class="cls-3" d="M144.14,62.94c.07-.04.61.71,1.34,2,.73,1.29,1.63,3.15,2.43,5.27.8,2.13,1.34,4.11,1.65,5.57.31,1.45.4,2.37.32,2.39-.19.04-.98-3.53-2.57-7.73-1.57-4.2-3.34-7.41-3.17-7.5Z"/>
            <path class="cls-3" d="M146.06,66.69c.15-.09,1.65,2.28,2.92,5.48,1.29,3.19,1.83,5.94,1.66,5.98-.18.05-1-2.59-2.27-5.74-1.26-3.15-2.49-5.63-2.32-5.72Z"/>
            <path class="cls-3" d="M138.36,56.65c.06-.05.81.72,1.9,2.09,1.09,1.36,2.49,3.33,3.84,5.62,1.36,2.29,2.41,4.47,3.08,6.07.68,1.61,1,2.64.92,2.67-.18.08-1.86-3.88-4.56-8.41-2.68-4.55-5.34-7.92-5.19-8.04Z"/>
            <path class="cls-3" d="M141.16,59.88c.06-.06.44.19.94.73.5.53,1.09,1.36,1.63,2.31,1.06,1.92,1.91,3.42,1.79,3.53-.16.13-1.3-1.29-2.35-3.2-1.04-1.91-2.12-3.24-2.01-3.37Z"/>
            <path class="cls-3" d="M150.68,78.26c-.06.17-.26.25-.45.18-.18-.07-.28-.26-.22-.43.06-.17.26-.25.45-.18s.28.26.22.43Z"/>
            <path class="cls-3" d="M148.92,73.01c.17-.04.57,1.11.88,2.55.16.72.26,1.39.3,1.87.02.23.03.46.02.56,0,.1.05.15.03.18-.01.04-.15.08-.26-.08-.1-.16-.15-.32-.24-.56-.16-.46-.33-1.11-.49-1.83-.31-1.45-.42-2.65-.25-2.69Z"/>
            <path class="cls-3" d="M149.3,73.16c.16-.07.77,1.05,1.24,2.54.48,1.48.63,2.75.46,2.79-.18.04-.61-1.13-1.08-2.59-.46-1.46-.79-2.67-.63-2.73Z"/>
            <path class="cls-3" d="M111.68,74.57c.15-.08,1.98,3.18,3.47,7.54,1.51,4.35,2.07,8.05,1.91,8.07-.19.04-1.03-3.56-2.52-7.86-1.47-4.3-3.03-7.66-2.86-7.75Z"/>
            <path class="cls-3" d="M107.64,68.49c.06-.05.95.99,2.13,2.85,1.19,1.86,2.61,4.55,3.96,7.62,1.33,3.08,2.47,5.87,3.18,7.97.69,2.11.67,3.52.59,3.52-.1.01-.25-1.34-1.03-3.37-.8-2.02-2.02-4.8-3.34-7.86-1.34-3.05-2.68-5.75-3.76-7.65-1.07-1.9-1.82-3.03-1.74-3.09Z"/>
            <path class="cls-3" d="M107.86,71.01c.13-.11,1.68,1.57,3.1,3.99,1.43,2.41,2.15,4.58,1.99,4.64-.17.07-1.15-1.94-2.55-4.31-1.39-2.37-2.68-4.2-2.54-4.32Z"/>
            <path class="cls-3" d="M117.29,88.29c.18,0,.31.52.42,1.13.11.61.16,1.14,0,1.2-.16.07-.51-.41-.63-1.09-.12-.69.04-1.25.21-1.24Z"/>
            <path class="cls-3" d="M117.21,87.66c.18-.03.41.49.51,1.15s.05,1.22-.13,1.25-.41-.49-.51-1.15c-.11-.66-.05-1.22.13-1.25Z"/>
            <path class="cls-3" d="M116.27,88.8c.18-.02.37.33.7.65.31.33.66.52.64.7,0,.18-.62.24-1.1-.24-.49-.49-.42-1.1-.24-1.1Z"/>
            <path class="cls-3" d="M116.66,90.09c.05-.17.27-.26.47-.15.2.11.25.34.14.47-.11.14-.31.17-.44.1-.14-.07-.22-.25-.17-.42Z"/>
            <path class="cls-3" d="M116.26,90.6c.1-.15.27-.22.4-.2.13.02.27.13.32.3.06.17-.13.38-.41.34-.28-.04-.41-.29-.31-.44Z"/>
            <path class="cls-3" d="M114.86,82.56c.16-.06.97,1.61,1.68,3.79.72,2.17,1.06,4,.89,4.05-.17.05-.79-1.69-1.5-3.85-.71-2.16-1.24-3.92-1.07-3.99Z"/>
            <path class="cls-3" d="M112.37,78.08c.16-.07,1.13,1.67,1.99,3.97.87,2.29,1.29,4.24,1.12,4.29-.17.05-.87-1.79-1.73-4.06-.85-2.27-1.55-4.12-1.39-4.19Z"/>
            <path class="cls-3" d="M65.62,94.12c-.06.17-1.99-.44-4.29-1.37-2.31-.92-4.12-1.8-4.05-1.97s1.99.45,4.29,1.37c2.3.92,4.12,1.8,4.05,1.97Z"/>
            <path class="cls-3" d="M62.52,92.21c-.08.16-1.22-.21-2.59-.73-1.37-.53-2.47-1.02-2.41-1.19.05-.17,1.25.05,2.65.59,1.39.54,2.43,1.18,2.36,1.34Z"/>
            <path class="cls-3" d="M55.19,87.17c.18-.04.49.67.81,1.56.31.89.51,1.64.35,1.72-.16.08-.64-.58-.96-1.51-.33-.93-.37-1.74-.2-1.78Z"/>
            <path class="cls-3" d="M55.82,86.65c.18-.02.43.86.57,1.96.07.56.09,1.04.16,1.36.06.32.17.51.1.58-.05.07-.32-.04-.53-.41-.21-.37-.31-.89-.38-1.44-.14-1.11-.1-2.03.07-2.05Z"/>
            <path class="cls-3" d="M77.48,85.15c-.03.09-1.14-.22-2.92-.71-1.79-.49-4.25-1.16-7-1.79-2.75-.67-5.25-1.07-7.08-1.54-1.85-.49-2.75-1.36-2.68-1.41.06-.08.99.61,2.79.97,1.79.34,4.36.69,7.12,1.36,2.77.64,5.23,1.38,6.99,1.99,1.76.61,2.82,1.06,2.79,1.15Z"/>
            <path class="cls-3" d="M99.73,66.87c.05.18-2.5.98-5.64,1.96-3.14.98-5.69,1.77-5.75,1.6-.06-.16,2.4-1.24,5.56-2.22,3.16-.99,5.79-1.51,5.83-1.34Z"/>
            <path class="cls-3" d="M130.69,59.39c.02.08-.93.45-2.5.95-1.57.5-3.75,1.13-6.19,1.75-2.43.62-4.66,1.11-6.27,1.42-1.62.31-2.63.44-2.65.36-.04-.18,3.91-1.16,8.76-2.4,4.86-1.23,8.79-2.25,8.84-2.08Z"/>
            <path class="cls-3" d="M152.84,52.78c.03.18-1.46.55-3.29.98-1.83.43-3.33.75-3.39.58-.05-.17,1.38-.78,3.24-1.21,1.86-.44,3.42-.52,3.44-.35Z"/>
            <path class="cls-3" d="M116.87,124.28c.04.19-2.58.82-5.7,1.94-3.12,1.1-5.56,2.25-5.64,2.09-.08-.15,2.25-1.58,5.43-2.7,3.17-1.13,5.89-1.49,5.91-1.33Z"/>
            <path class="cls-3" d="M132.53,116.37c0,.19-1,.31-2.09.8-1.1.47-1.87,1.12-2.01.99-.14-.1.5-1.05,1.75-1.59,1.24-.55,2.37-.38,2.35-.21Z"/>
            <path class="cls-3" d="M165.5,101.21c.06.17-1.52.86-3.44,1.77-1.92.9-3.46,1.69-3.55,1.53-.09-.15,1.32-1.2,3.28-2.11,1.95-.92,3.66-1.35,3.71-1.18Z"/>
            <path class="cls-3" d="M65.99,117.9c-.09.15-1.09-.28-2.23-.98-.82-.5-1.49-.99-1.76-1.29l.16-.23c.09.13.12.22.09.26-.03.04-.13.02-.27-.05l.16-.23c.39.11,1.13.47,1.95.97,1.14.69,1.99,1.38,1.9,1.53Z"/>
            <path class="cls-3" d="M90.62,129.37c-.09.16-2.54-1.04-5.47-2.68-2.94-1.64-5.25-3.09-5.16-3.25.09-.16,2.54,1.04,5.47,2.68,2.94,1.64,5.25,3.09,5.16,3.25Z"/>
          </g>
          <path class="cls-3" d="M107.03,84.23c.22.28-1.47,1.88-4.05,2.98-2.56,1.11-4.81,1.4-4.9,1.07-.1-.36,1.94-1.2,4.38-2.26,2.45-1.04,4.35-2.08,4.56-1.79Z"/>
          <path class="cls-3" d="M106.84,74c.05.16-3.37,1.16-7.74,1.37-4.36.23-7.87-.42-7.84-.58.02-.19,3.51.16,7.8-.06,4.29-.2,7.73-.91,7.77-.72Z"/>
          <path class="cls-3" d="M123.23,66.16c.04.18-1.45.69-3.25,1.39-1.81.69-3.26,1.3-3.35,1.14-.08-.15,1.27-1.04,3.12-1.75,1.85-.71,3.45-.95,3.49-.78Z"/>
          <path class="cls-3" d="M132.47,63.87c.09.18-1.85,1.2-4.22,2.43-2.38,1.22-4.38,2.09-4.47,1.93-.09-.15,1.78-1.28,4.18-2.51,2.4-1.24,4.44-2,4.51-1.85Z"/>
          <path class="cls-3" d="M139.64,61.61c0,.18-.54.34-1.2.49-.66.15-1.22.23-1.3.07-.07-.16.43-.54,1.16-.7.73-.16,1.34-.04,1.34.14Z"/>
          <path class="cls-3" d="M128.77,81.37c.07.17-.9.71-2.15,1.21-1.25.5-2.32.77-2.39.61s.9-.71,2.15-1.21c1.25-.5,2.32-.77,2.39-.61Z"/>
          <path class="cls-3" d="M145.8,75.62c.05.18-2.8,1.1-6.32,2.22-3.52,1.11-6.38,1.99-6.44,1.82-.06-.17,2.71-1.32,6.25-2.44,3.53-1.12,6.46-1.77,6.51-1.6Z"/>
          <path class="cls-3" d="M164.54,70.15c.02.17-1.98.52-4.48.37-1.24-.06-2.37-.28-3.13-.39-.78-.11-1.26-.03-1.28-.12-.03-.08.46-.33,1.31-.33.84,0,1.92.14,3.15.2,2.43.14,4.42.09,4.44.27Z"/>
          <path class="cls-3" d="M125.9,59.47c.03.18-2.21.62-5.01,1-2.8.37-5.08.53-5.1.35-.02-.18,2.23-.62,5.01-1,2.79-.37,5.07-.53,5.1-.35Z"/>
          <path class="cls-3" d="M70.44,90.86c-.04.18-3.42-.69-7.07-2.87-1.83-1.06-3.39-2.15-4.51-2.97-1.11-.82-1.76-1.37-1.72-1.44.12-.17,2.95,1.73,6.55,3.85,3.59,2.14,6.79,3.26,6.74,3.43Z"/>
          <path class="cls-3" d="M71.16,130.01c-.07.16-1.53-.32-3.12-1.33-1.59-1.01-2.65-2.13-2.53-2.26.12-.14,1.33.74,2.88,1.71,1.54.98,2.85,1.71,2.77,1.88Z"/>
          <path class="cls-3" d="M92.79,141.3c-.04.08-.99-.29-2.5-.99-1.5-.7-3.55-1.72-5.76-2.95-2.21-1.22-4.17-2.41-5.56-3.31-1.39-.9-2.21-1.51-2.17-1.59.1-.16,3.63,1.9,8.04,4.34,4.4,2.44,8.02,4.34,7.94,4.5Z"/>
          <path class="cls-3" d="M111.09,131.19c-.03-.07.48-.39,1.4-.69.92-.3,2.24-.53,3.67-.69,1.43-.17,2.71-.34,3.61-.56.91-.21,1.46-.41,1.5-.32.04.07-.46.42-1.37.76-.91.34-2.23.6-3.66.77-1.44.17-2.72.31-3.64.49-.92.17-1.48.34-1.52.25Z"/>
          <path class="cls-3" d="M132,124.53c-.09-.15.68-.81,1.82-1.32,1.13-.52,2.14-.66,2.19-.5.05.17-.84.59-1.93,1.09-1.09.49-1.99.89-2.09.73Z"/>
          <path class="cls-3" d="M162.39,97.17c.08.16-.69.71-1.75,1.14-1.06.44-2,.59-2.05.42-.06-.17.77-.59,1.8-1.02,1.04-.43,1.92-.71,2-.54Z"/>
        </g>
        <path class="cls-3" d="M55.3,72.54c.03.17-.97.36-1.94-.3-.97-.65-1.18-1.65-1-1.68.17-.07.58.63,1.37,1.15.77.54,1.57.65,1.57.84Z"/>
        <path class="cls-3" d="M54.79,90.63c-.19.02-.39-.88-.96-1.81-.56-.94-1.27-1.53-1.17-1.69.07-.16,1.07.26,1.72,1.35.67,1.08.58,2.16.41,2.15Z"/>
        <path class="cls-3" d="M77,75.66c.17.05.26.34.2.8-.04.23-.11.51-.29.81-.18.29-.5.63-.97.78-.46.16-.94.07-1.25-.07-.33-.14-.55-.33-.7-.5-.31-.35-.39-.64-.28-.78.11-.14.41-.1.78,0,.38.11.81.22,1.05.11.26-.06.57-.41.82-.71.25-.3.47-.5.64-.45Z"/>
        <path class="cls-3" d="M89.87,103.7c.08,0,.17.25.01.6-.15.35-.56.75-1.14.87-.57.11-1.06-.03-1.36-.17-.31-.15-.46-.31-.43-.39.06-.19.85.08,1.66-.07.38-.08.7-.29.88-.48.19-.19.28-.37.37-.36Z"/>
        <path class="cls-3" d="M56.1,98.77c.09-.01.2.16.29.48.08.31.16.8-.07,1.33-.25.56-.79.82-1.18.8-.41-.02-.56-.26-.51-.32.05-.08.24-.05.45-.14.21-.08.51-.3.65-.61.27-.69.16-1.54.38-1.55Z"/>
        <path class="cls-3" d="M59.31,115.74c.17.05.29.22.33.48.03.25-.02.64-.36,1.01-.37.39-.89.47-1.22.34-.35-.14-.41-.42-.31-.55.28-.26.43-.49.59-.67.21-.21.63-.72.97-.6Z"/>
        <path class="cls-3" d="M62.02,129.25c.07-.05.25.04.43.32.17.27.29.73.22,1.22-.08.49-.34.89-.58,1.09-.25.21-.46.24-.51.17-.1-.15.35-.63.45-1.37.13-.74-.15-1.33,0-1.44Z"/>
        <path class="cls-3" d="M94.77,133.79c-.36,0-.68-.54-1.12-1.06-.42-.53-.9-.94-.83-1.3.05-.17.28-.28.65-.23.36.05.83.28,1.18.71.35.42.5.93.48,1.29-.02.37-.18.58-.35.59Z"/>
        <path class="cls-3" d="M92.03,114.85c-.36.03-.71-.59-1.14-1.24-.41-.67-.82-1.24-.64-1.56.16-.31,1.13-.09,1.73.87.61.95.4,1.92.05,1.94Z"/>
        <path class="cls-3" d="M96.31,116.13c.03-.09.39-.02.92.07.53.09,1.23.11,1.8-.38.58-.47.83-1.17.96-1.68.12-.52.16-.87.26-.87.08,0,.21.34.2.93-.01.57-.23,1.49-1,2.12-.37.31-.84.49-1.27.51-.43.02-.78-.08-1.06-.18-.55-.22-.82-.44-.8-.52Z"/>
        <path class="cls-3" d="M101.12,135.83c.06.16-.08.39-.43.54-.34.15-.88.16-1.4-.07-.51-.23-.86-.65-.98-1-.12-.36-.04-.61.12-.68.35-.11.8.26,1.39.5.57.28,1.15.38,1.29.71Z"/>
        <path class="cls-3" d="M129.91,140.29c.06.05-.08.4-.46.87-.19.24-.45.51-.81.74-.36.23-.85.41-1.39.36-1.09-.12-1.72-.97-1.93-1.54-.23-.59-.19-.98-.11-1,.09-.02.22.33.52.79.28.45.83,1.02,1.59,1.1.74.07,1.38-.43,1.81-.78.43-.37.72-.61.79-.55Z"/>
        <path class="cls-3" d="M125.25,123.68c.06.05-.2.39-.8.35-.61-.03-1.28-.66-1.49-1.45-.23-.81-.03-1.58.23-2.03.27-.46.57-.62.63-.56.07.06-.08.32-.21.75-.13.42-.21,1.04-.03,1.66.18.63.58,1.07.95,1.18.38.14.66.02.71.1Z"/>
        <path class="cls-3" d="M124.31,105.57s.08.12.02.32c-.06.2-.26.46-.6.62-.33.16-.82.22-1.29.02-.46-.19-.85-.56-1.16-.95-.16-.2-.29-.4-.43-.59-.13-.2-.27-.44-.32-.71-.1-.54.13-.97.31-1.25.41-.56.77-.75.82-.7.08.06-.17.4-.43.93-.12.27-.22.59-.13.89.07.28.4.66.67,1.03.28.36.58.65.9.81.3.16.63.16.89.09.54-.13.65-.53.75-.51Z"/>
        <path class="cls-3" d="M96.64,105.15c.06.05-.17.42-.81.58-.65.19-1.61-.14-2.23-.86-.65-.72-.84-1.63-.8-2.23.04-.62.27-.95.34-.92.1.03.04.38.12.9.07.52.3,1.23.83,1.81.52.59,1.2.88,1.69.84.5-.02.81-.21.87-.13Z"/>
        <path class="cls-3" d="M123.62,94.81c.04.08-.2.3-.68.53-.46.21-1.28.45-2.12.04-.41-.2-.71-.57-.86-.91-.15-.35-.2-.67-.22-.93-.03-.53.04-.84.12-.85.09-.01.19.3.33.76.14.46.37,1.08.92,1.35.57.28,1.23.2,1.69.1.47-.1.78-.18.82-.09Z"/>
        <path class="cls-3" d="M155.89,92.27c.08.03-.08.45-.69.61-.29.07-.69.05-1.05-.14-.36-.18-.68-.5-.9-.89-.45-.78-.41-1.65-.17-2.17.25-.54.62-.69.66-.63.07.07-.14.32-.22.77-.09.44-.05,1.11.3,1.71.34.62.88.91,1.32.89.44,0,.68-.21.75-.15Z"/>
        <path class="cls-3" d="M157.14,125.21c.04.07-.21.3-.72.27-.49-.03-1.17-.38-1.48-1.12-.29-.72-.14-1.41.05-1.81.19-.42.41-.61.48-.57.19.07-.33,1.09.07,2.13.2.48.64.8.97.92.34.13.6.09.63.18Z"/>
        <path class="cls-3" d="M156.95,108.78c.06.05-.08.33-.5.5-.41.17-1.14.19-1.7-.34-.55-.54-.56-1.28-.4-1.69.16-.43.43-.58.48-.52.08.06-.02.28-.04.62-.02.33.08.81.4,1.13.33.31.81.39,1.14.36.34-.02.55-.13.62-.06Z"/>
        <path class="cls-3" d="M153.11,82.36c-.08.02-.24-.22-.39-.66-.14-.43-.31-1.12-.08-1.87.11-.37.33-.71.6-.94.27-.23.56-.34.8-.39.47-.1.75-.07.78.01.03.09-.24.22-.61.42-.38.19-.77.52-.93,1.1-.18.56-.12,1.15-.09,1.59.03.44.04.73-.05.75Z"/>
        <path class="cls-3" d="M172.37,76.48c.05.06-.11.3-.52.36-.4.07-1.01-.1-1.39-.64-.36-.52-.36-1.1-.28-1.46.08-.37.23-.55.31-.53.19.03.03.92.5,1.61.23.32.6.5.86.55.27.06.48.01.53.09Z"/>
        <path class="cls-3" d="M173.97,85.01c.14.1.15.4-.15.69-.28.28-.89.52-1.54.26-.65-.28-.92-.88-.91-1.27,0-.42.22-.62.38-.59.33.08.65.55,1.02.67.35.18.91.07,1.2.25Z"/>
        <path class="cls-3" d="M174.13,100.97c.07.03.02.36-.41.62-.21.12-.53.2-.86.12-.33-.07-.65-.27-.88-.54-.49-.53-.63-1.22-.52-1.68.11-.48.39-.65.45-.59.08.06-.02.29.01.63.02.34.19.82.54,1.21.36.4.77.51,1.09.42.33-.07.51-.25.59-.2Z"/>
        <path class="cls-3" d="M175.42,115.65c.15.07.17.46-.26.82-.4.34-1.23.53-2,.05-.72-.48-.91-1.24-.88-1.7.03-.48.25-.73.42-.71.34.03.57.96,1.17,1.32.25.17.62.23.89.22.27,0,.51-.09.67,0Z"/>
        <path class="cls-3" d="M162.14,50.31c.08.03.09.29-.12.64-.2.35-.67.76-1.33.85-.66.09-1.22-.18-1.51-.46-.3-.28-.36-.54-.29-.59.13-.11.78.53,1.72.4.93-.13,1.39-.93,1.54-.86Z"/>
        <path class="cls-3" d="M143.35,55.67c.05.07-.07.27-.38.48-.31.2-.83.36-1.4.31-.57-.05-1.06-.29-1.33-.55-.28-.25-.36-.48-.3-.54.14-.12.76.38,1.68.44.92.1,1.62-.29,1.73-.15Z"/>
        <path class="cls-3" d="M110.34,64.17c.07.04-.01.36-.4.68-.37.32-1.07.6-1.84.5-.76-.1-1.35-.48-1.69-.8-.34-.33-.47-.6-.41-.66.13-.15.97.65,2.18.82.59.07,1.14-.07,1.5-.24.37-.17.57-.36.65-.3Z"/>
        <path class="cls-3" d="M84.02,70.35c.08-.02.2.37-.12.84-.3.49-1.04.8-1.72.98-.69.23-1.48.28-1.98.06-.51-.21-.66-.55-.6-.6.07-.07.31.1.72.16.42.07.99-.02,1.67-.24.71-.2,1.26-.37,1.55-.65.31-.27.37-.55.47-.55Z"/>
        <path class="cls-3" d="M84.25,70.34c.08.03.07.36-.16.85-.22.47-.73,1.12-1.56,1.41-.81.31-1.69.06-2.1-.24-.42-.28-.66-.42-.65-.5.01-.09.37-.08.85.09.46.18,1.04.27,1.69.04,1.29-.47,1.75-1.75,1.93-1.65Z"/>
      </g>
      <path class="cls-3" d="M145.65,116.62c-.08-.02-.09-.17-.13-.3-.05-.12-.13-.05-.12-.04h0c-.09.21-.02.52.05.69l-.19.07s-.03.02,0,0c.02-.03,0-.06.02-.09,0-.03.04-.06.1-.04.05,0,.18.12.1.29l-.04.1-.21-.07c-.24-.08-.67-.57-.4-1.22.06-.13.15-.23.27-.29.26-.14.57-.04.72.13.17.16.17.41.13.52-.09.24-.21.29-.28.27Z"/>
      <path class="cls-3" d="M146.23,119.07c-.17.05-.45-.36-.62-.91-.09-.28-.13-.54-.13-.75,0-.23.06-.36.15-.36s.2.1.29.24c.1.16.22.4.31.68.17.56.17,1.05,0,1.11Z"/>
      <path class="cls-3" d="M146.4,116.54c-.17.07-.32.08-.39.04-.07-.05-.14-.21-.12-.39.02-.18.25-.3.47-.15.23.15.21.44.04.5Z"/>
      <path class="cls-3" d="M145.49,117.43c-.17-.04-.26-.37-.19-.73.07-.36.27-.63.45-.6.18.02.26.35.19.73-.07.38-.27.65-.45.6Z"/>
      <path class="cls-3" d="M145.1,116.9c.17-.07.36.02.43.2.07.18,0,.38-.16.45-.17.07-.36-.02-.43-.2-.07-.18,0-.38.16-.45Z"/>
      <path class="cls-3" d="M146.16,120.27c-.17.07-.53-.5-.75-1.25-.23-.75-.24-1.43-.05-1.46.17-.03.45.53.67,1.28.22.74.3,1.38.13,1.44Z"/>
      <path class="cls-3" d="M146.98,121.41c.07.16-.03.36-.21.44s-.39,0-.46-.16c-.07-.16.03-.36.21-.44s.39,0,.46.16Z"/>
      <path class="cls-3" d="M145.97,116.7c.15-.08.57.39.68,1.14.11.74-.15,1.32-.32,1.28-.18-.03-.22-.57-.32-1.19-.09-.62-.2-1.15-.03-1.23Z"/>
      <path class="cls-3" d="M146.04,118.9c.12.09.24.32.23.77,0,.22-.05.42-.14.58-.07.16-.27.26-.31.16-.04-.09-.1-.12-.14-.25-.04-.12-.06-.3-.06-.51,0-.21.05-.42.12-.57.07-.15.23-.26.29-.19Z"/>
      <path class="cls-3" d="M146.07,116.79c-.18-.01-.29-.28-.31-.28.02-.01-.01-.18-.07-.35-.01-.09.04-.18.19-.21.14-.02.35.05.46.27.16.46-.12.59-.26.57Z"/>
      <path class="cls-3" d="M145.96,116.18c-.18.02-.33,0-.33-.04,0-.04.13-.09.31-.12.18-.02.33,0,.33.04s-.13.09-.31.12Z"/>
      <path class="cls-3" d="M146.03,116.22c-.16.09-.31.13-.39.09-.09-.05-.17-.2-.16-.38,0-.18.22-.32.45-.2.24.12.26.4.1.49Z"/>
      <path class="cls-1" d="M145.09,116.39"/>
      <path class="cls-3" d="M145.63,117.27c-.16.08-.4-.06-.53-.32s-.11-.54.05-.62.4.06.53.32c.13.26.11.54-.05.62Z"/>
    </g>
  </g>
</svg>