<?xml version="1.0" encoding="UTF-8"?>
<svg id="Capa_1" xmlns="http://www.w3.org/2000/svg" viewBox="0 0 181.65 199.89">
  <defs>
    <style>
      .cls-1 {
        fill: #1d1d1b;
      }

      .cls-2 {
        fill: #c6c6c6;
      }
    </style>
  </defs>
  <g>
    <path class="cls-2" d="M137.62,106.79c-1.17-3.04-4.85-5.09-7.54-7.33-6.08-5.06-14.28-6.54-22.08-7.84-6.02-1.01-12.2-2.01-18.19-.85-4.73.92-9.09,3.13-13.37,5.32-4.2,2.15-8.58,4.44-11.27,8.32-1.62,2.33-2.52,5.08-3.34,7.79-1.22,4-2.33,8.04-3.34,12.1-2.07,8.36-3.69,17.22-1.3,25.5.81,2.81,2.14,5.58,4.43,7.4,4.36,3.47,10.96,2.47,15.63-.57,4.67-3.04,8-7.69,11.73-11.83,8.76-9.73,20.16-16.97,32.5-21.33,3.64-1.29,7.41-2.35,10.7-4.37s7.91-7.24,4.96-13.46"/>
    <path class="cls-2" d="M103.39,93.54c-5.67-1.5-15.62-.09-21.74,2.28-6.12,2.37-11.72,6.54-14.83,12.33-1.23,2.29-2.04,4.77-2.85,7.24-.79,2.42-1.59,4.83-2.38,7.25-2.57,7.84-5.14,16.45-2.12,24.13.61,1.55,1.46,3.04,2.68,4.17,1.69,1.55,3.98,2.32,6.26,2.52,3.96.35,8.15-1,10.8-3.96,1.18-1.31,2.02-2.88,2.87-4.42,2.28-4.17,4.69-8.38,8.21-11.58,4.53-4.13,10.51-6.25,16.43-7.81,5.92-1.57,12.01-2.7,17.57-5.27,3.43-1.59,6.9-4.13,7.54-7.85.49-2.8-.8-5.68-2.76-7.73-1.96-2.05-4.53-3.4-7.11-4.6-7.88-3.67-16-7.23-25.46-7.39"/>
    <path class="cls-2" d="M94.47,95.95c-6.35.12-13.9,2.27-18.69,5.94-6.62,5.07-9.37,13.61-11.68,21.63-1.19,4.13-2.38,8.31-2.65,12.6-.21,3.34.2,6.89,2.2,9.57,2.52,3.37,7.49,4.64,11.32,2.88,3.12-1.44,5.2-4.47,6.75-7.54,1.55-3.07,2.75-6.36,4.88-9.06,3.88-4.91,10.23-7.15,16.39-8.3,6.15-1.15,12.52-1.47,18.39-3.66,1.46-.55,2.93-1.24,3.97-2.4,2.22-2.5,1.79-6.55-.11-9.31-1.9-2.75-4.91-4.5-7.87-6.07-4.46-2.37-9.05-4.58-13.96-5.75-4.91-1.17-9.18-.5-13.93-.15"/>
    <path class="cls-2" d="M100.62,99.38c-7.12-1.52-14.53,1.18-20.66,5.11-2.28,1.46-4.47,3.12-6.2,5.2-2.08,2.52-3.41,5.56-4.7,8.56-1.69,3.9-3.4,7.87-3.93,12.09-.53,4.22.27,8.8,3.08,11.99,1.06,1.2,2.47,2.2,4.06,2.37,2.84.3,5.26-2.03,6.8-4.44,2.88-4.53,4.34-10.06,8.27-13.72,3.23-3.01,7.7-4.31,12.08-4.85,4.38-.54,8.83-.43,13.19-1.1,2.18-.34,4.38-.89,6.26-2.04s3.43-3,3.83-5.17c.57-3.12-1.35-6.27-3.94-8.1-2.59-1.83-5.76-2.6-8.85-3.33-4.61-1.1-8.97-3.28-13.97-2.88"/>
    <path class="cls-2" d="M98.63,102.04c-2.83-.59-5.74.3-8.46,1.27-3.39,1.2-6.77,2.56-9.73,4.61-8.58,5.97-12.32,18.03-8.62,27.81.56,1.47,1.57,3.1,3.14,3.13.96.02,1.83-.59,2.5-1.28,3.14-3.2,5.93-10.19,8.55-13.83,2.91-4.04,6.66-5.66,11.63-5.37,4.86.28,9.03.26,13.94-.59,3.22-.56,6.92-2.21,7.31-5.45.22-1.86-.81-3.7-2.24-4.9-1.44-1.2-3.25-1.82-5.01-2.45-4.83-1.75-11.65-3.35-17.33-3.1"/>
    <path class="cls-2" d="M102.55,104.61c-8.24-.97-14.51,2.91-20.37,7.14-5.86,4.23-9.82,11.84-7.81,18.78.19.66.48,1.36,1.09,1.68.69.36,1.54.12,2.22-.26,3.99-2.23,4.52-7.74,7.33-11.35,2.48-3.18,6.61-4.65,10.62-5.05s8.05.13,12.08.13c1.84,0,3.92-.21,5.06-1.66,1.27-1.61.71-4.12-.74-5.57s-2.8-2.28-4.75-2.9c-2.32-.74-4.32-1.23-6.73-1.01"/>
    <path class="cls-2" d="M102.4,107.04c-9.32.92-18.78,4.86-24.1,12.45-1.06,1.51-1.97,3.19-2.18,5.03-.14,1.27.47,2.93,1.74,2.85.81-.05,1.37-.81,1.75-1.53.65-1.21,1.2-3.26,1.95-4.4,3.06-4.62,5.69-7.28,13.99-8.57,3.79-.59,7.68.18,11.49-.15,1.45-.13,3.2-.63,3.49-2.05.35-1.76-1.85-2.88-3.62-3.13-3.16-.46-6.42-.27-9.5.57"/>
  </g>
  <g>
    <path class="cls-2" d="M139.16,37.55c-4.7-2.5-7.71-7.88-7.37-13.19.34-5.31,4.01-10.27,8.99-12.15,3.96-1.49,8.49-1.08,12.37.61,3.88,1.69,7.15,4.58,9.77,7.91,1.19,1.51,2.27,3.13,3,4.92,1,2.47,1.29,5.17,1.53,7.83.43,4.96.69,10.04-.6,14.85-1.29,4.81-4.37,9.37-8.97,11.29-2.2.92-4.6,1.19-6.98,1.35-1.06.07-2.15.12-3.15-.24-2.07-.74-3.21-3.05-3.41-5.24-.2-2.19.32-4.38.5-6.57.25-3.14-.25-6.44-2.05-9.03-1.8-2.59-5.79-2.39-8.18-6.16"/>
    <path class="cls-2" d="M138.53,31.79c-5.28-3.23-4.54-10.28-.86-13.57,3.67-3.29,9.44-3.49,13.88-1.34,3.43,1.67,6.23,4.61,7.71,8.13,1.84,4.37,1.64,9.28,2.34,13.96.43,2.88,1.21,5.76.88,8.65-.34,2.89-2.18,5.88-5.04,6.38-2.75.49-5.4-1.46-6.89-3.82-1.49-2.36-2.17-5.13-3.35-7.65-2.4-5.1-6.74-8.97-10.97-12.69"/>
    <path class="cls-2" d="M138.75,28.12c-1.39-1.4-1.25-5.6.15-6.99s3.48-1.85,5.46-1.94c2.61-.12,5.39.38,7.35,2.11,1.2,1.05,2,2.47,2.71,3.9,3.43,6.91,5.23,14.62,5.2,22.33,0,.66-.05,1.41-.54,1.86-.3.27-.71.39-1.11.44-1.76.22-3.51-.68-4.76-1.93s-2.11-2.84-3-4.37c-2.97-5.13-6.47-9.96-10.42-14.38-1.14-1.27-2.4-2.82-2.01-4.48"/>
    <path class="cls-2" d="M149.16,22.82c-1.25-.4-2.66-.28-3.97-.32-.88-.02-1.81.05-2.58.48s-1.36,1.3-1.22,2.17c.15.97,1.07,1.59,1.85,2.18,5,3.8,6.92,10.29,9.07,16.19.24.65.49,1.32.96,1.83s1.21.84,1.87.63c1.17-.37,1.3-1.96,1.17-3.18-.55-5.14-1.73-10.2-3.51-15.05-.5-1.36-1.42-2.51-2.05-3.82-.68-1.43-3.38-1.73-4.81-1.48"/>
  </g>
  <g>
    <path class="cls-2" d="M43.47,71.7c-3.46-.12-9.47.26-12.96,1.75-3.49,1.49-6.67,3.61-9.82,5.73-2.06,1.38-4.31,3.06-4.66,5.51-.3,2.1.92,4.12,2.31,5.71.9,1.03,1.91,1.99,3.14,2.59,2.14,1.04,4.68.86,7.01.33,8.71-1.99,16.12-8.87,18.77-17.4.22-.71.4-1.51.06-2.16-.24-.46-.7-.76-1.15-1-1.78-.95-3.84-1.36-5.84-1.16"/>
    <path class="cls-2" d="M44.96,66.37c-5.93-1.28-11.56-.63-17.07,1.75-5.52,2.39-10.24,6.31-14.47,10.58-1.55,1.57-3.1,3.28-3.72,5.4-1.41,4.84,2.51,9.64,6.76,12.35,1.85,1.18,3.86,2.18,6.03,2.54,4.06.68,8.12-.94,11.91-2.52,4.81-2,9.84-4.18,13-8.32,2.59-3.39,3.62-7.74,3.86-11.99.11-2.03.04-4.17-.94-5.96-1.14-2.06-3.36-3.35-5.65-3.9-2.29-.55-4.68-.45-7.04-.35"/>
  </g>
  <g>
    <path class="cls-1" d="M92.76,34.48c-.03-.09.49-.25,1.29-.72.8-.44,1.87-1.38,2.13-2.99.3-1.58-.25-3.62.03-6.01.12-1.2.7-2.44,1.37-3.47.66-1.06,1.33-2.08,1.42-3.25.13-1.19-.14-2.46-.11-3.77.01-.65.11-1.34.35-1.94.22-.6.51-1.13.75-1.63.99-1.95,1.19-3.96.98-5.6-.2-1.65-.76-2.91-1.18-3.75-.44-.83-.74-1.27-.68-1.33.05-.04.46.31,1.03,1.12.55.8,1.25,2.09,1.56,3.85.33,1.74.19,3.99-.84,6.13-.24.52-.5,1.03-.68,1.55-.18.51-.25,1.04-.26,1.62-.03,1.16.26,2.44.12,3.86-.13,1.48-.96,2.68-1.59,3.69-.68,1.03-1.15,1.99-1.29,3.07-.33,2.13.16,4.2-.27,6.02-.2.9-.64,1.65-1.15,2.18-.51.53-1.06.83-1.52,1.03-.92.38-1.47.41-1.48.36Z"/>
    <path class="cls-1" d="M106.41,3.12c.05-.12.87.05,1.89.91.25.22.51.49.74.85.22.35.42.85.34,1.42-.09.59-.46,1.03-.91,1.38-.44.29-.82.47-1.23.72-.83.47-1.62.9-2.36,1.28-.75.39-1.61.67-2.37.49-.77-.2-1.18-.76-1.21-1.22,0-.49.29-.6.32-.55.07.05-.03.24.09.47.1.22.47.53.94.57.49.03,1.11-.2,1.78-.61.69-.42,1.48-.88,2.31-1.35.4-.24.86-.46,1.18-.66.25-.18.49-.45.53-.69.13-.51-.29-1.15-.65-1.57-.77-.89-1.43-1.3-1.36-1.44Z"/>
    <path class="cls-1" d="M110.58,11.43c-.07.12-.42.08-.91-.16-.46-.23-1.21-.72-1.5-1.69-.25-.96.02-1.7.19-2.19.2-.5.4-.77.54-.74.14.03.19.37.19.88,0,.5-.07,1.19.09,1.76.15.56.6,1.02.93,1.38.33.36.55.63.47.76Z"/>
    <path class="cls-1" d="M97.74,22.49c-.24-.19,1.71-3.02,4.18-6.4.28-.41.51-.82.61-1.21.11-.38.1-.79.03-1.21-.08-.45-.15-.87-.22-1.27-.08-.45-.02-.95.13-1.31.28-.75.8-1.18,1.17-1.37.38-.19.62-.19.64-.13.09.14-.8.53-1.09,1.72-.07.3-.07.58.02.93.09.38.22.79.32,1.27.1.47.16,1.05,0,1.64-.14.58-.43,1.08-.74,1.54-2.52,3.44-4.84,5.97-5.05,5.8Z"/>
    <path class="cls-1" d="M102.56,12.51c-.15,0-.26-.27-.47-.43-.18-.14-.48-.21-1.02-.18-.39,0-.71.22-.9.42-.2.19-.25.43-.39.48-.11.06-.42-.22-.29-.77.1-.52.7-1.16,1.55-1.18.34-.01.7.03,1.03.17.33.14.6.43.69.7.16.55-.06.8-.18.8Z"/>
    <path class="cls-1" d="M99.68,15.93c.15.01.28.17.54.43.13.13.28.28.45.42.16.14.38.24.37.21.03.01.22-.08.38-.25.17-.17.33-.32.47-.46.29-.28.53-.44.66-.36.12.07.12.36-.03.77-.08.2-.18.44-.37.7-.18.23-.46.6-1.07.66-.66-.01-.92-.37-1.13-.6-.2-.25-.32-.5-.4-.73-.16-.45-.04-.82.11-.8Z"/>
    <path class="cls-1" d="M181.65,28.95s-.31.08-.91.12c-.6.04-1.48.08-2.62.06-2.28-.02-5.59-.25-9.59-1.1-2-.42-4.16-1.03-6.43-1.85-1.14-.38-2.29-.97-3.41-1.22-.57-.12-1.12-.1-1.74.03-.6.12-1.3.3-1.99.37-1.39.16-2.8.09-4.2,0-1.4-.09-2.86-.17-4.34-.47-1.5-.26-2.94-.97-4.27-1.5-1.35-.52-2.82-.77-4.34-.93-3.08-.26-6.09-.52-8.99-.77-1.44-.12-2.85-.18-4.19-.03-1.34.14-2.61.55-3.84,1.03-4.97,2.01-9.45,3.83-13.21,5.35-1.88.75-3.57,1.44-4.98,2.19-.71.37-1.34.75-1.91,1.13-.56.37-1.06.79-1.61,1.04-.51.28-1.18.35-1.61.08-.44-.26-.6-.68-.67-.97-.11-.62-.03-.93,0-.93.05,0,.04.32.21.87.09.26.27.59.61.75.35.17.8.11,1.28-.17.48-.25.94-.67,1.51-1.09.56-.42,1.2-.83,1.91-1.23,1.42-.81,3.11-1.56,4.98-2.36,3.74-1.58,8.19-3.47,13.14-5.57,1.26-.5,2.62-.96,4.08-1.13,1.45-.17,2.93-.11,4.39,0,2.92.24,5.91.47,9.02.75,1.55.16,3.13.42,4.6,1,1.46.58,2.71,1.22,4.1,1.47,1.38.28,2.8.37,4.2.47,1.4.1,2.74.17,4.03.04.64-.06,1.24-.21,1.92-.34.66-.14,1.43-.17,2.1,0,.68.15,1.28.4,1.85.64.57.23,1.12.46,1.68.67,2.21.84,4.33,1.47,6.29,1.94,3.92.93,7.19,1.27,9.44,1.42,2.26.15,3.51.15,3.52.23Z"/>
    <path class="cls-1" d="M64.29,26.26c.1-.1,1.73,1.33,4.27,3.74.65.6,1.29,1.28,2.14,1.75.44.23.9.46,1.37.7.5.23,1.01.47,1.53.72,1.04.49,2.13,1.01,3.27,1.54.55.24,1.11.43,1.67.47.56.04,1.17-.06,1.8-.2.63-.15,1.31-.32,1.99-.39.67-.08,1.34-.11,1.98-.11,1.29,0,2.5.1,3.63.11,2.27.04,4.3-.28,5.98-.68,3.35-.83,5.22-1.98,5.31-1.82.03.06-.39.41-1.25.9-.86.49-2.16,1.12-3.86,1.63-1.7.51-3.81.91-6.17.93-2.37.02-4.83-.31-7.36.44-.66.15-1.38.28-2.11.22-.74-.06-1.41-.31-2.01-.57-1.17-.55-2.23-1.1-3.27-1.61-.52-.26-1.02-.51-1.51-.76-.49-.28-.97-.54-1.44-.8-.94-.57-1.59-1.34-2.2-1.96-2.41-2.54-3.85-4.16-3.74-4.27Z"/>
    <path class="cls-1" d="M62.33,39.81c.06.05,0,.24-.16.54l-.3-.29c.64-.74,2.05-2.38,3.45-4.54.53-.81,1.12-1.6,1.47-2.24.17-.33.27-.63.29-.92.02-.29-.05-.66.05-1.05.12-.38.35-.49.51-.61.17-.1.33-.16.47-.2.28-.06.44,0,.44.07,0,.07-.12.12-.29.26-.09.07-.19.16-.29.27-.1.11-.21.27-.19.34-.01.19.08.47.13.9.03.44-.07.91-.26,1.33-.39.85-.91,1.58-1.45,2.43-1.43,2.21-3.15,3.81-4.05,4.27l-1.56.8,1.26-1.09c.26-.23.43-.33.49-.28Z"/>
    <path class="cls-1" d="M72.58,30.09c0,.14-.33.3-.89.58-.28.14-.61.29-.95.48-.17.09-.35.2-.48.3-.08.03-.09.15-.16.07-.04-.02-.08-.05-.13-.06-.02-.01-.03-.03-.05-.04-.02,0-.04-.01-.07-.01h-.02s0,0,0,0h0c.06,0-.14,0,.14,0h0s.03,0,.03,0c.03,0,.05,0,.1-.01l.07-.02h0s.02.05.02.05c.22.45.04.97-.36,1.19-.22.13-.36.16-.47.2-.12.03-.24.06-.34.08-.38.06-.64.16-.89.29-.48.25-.7.57-.85.52-.13-.03-.15-.55.38-1.1.25-.27.67-.52,1.12-.65.09-.03.18-.06.28-.09.09-.03.17-.07.14-.07,0,0,0,0,0,0-.02-.05-.06-.17-.07-.31-.02-.14.07-.44.14-.49.08-.11.15-.18.21-.23.07-.06.13-.1.19-.14.24-.16.46-.25.67-.34.42-.16.81-.26,1.14-.31.65-.11,1.12-.02,1.11.14Z"/>
    <path class="cls-1" d="M145.88,18.28c.1-.09.56.32.58,1.18.02.41-.05.88-.13,1.35-.09.5-.17.96-.34,1.59-.09.33-.36.72-.64.91-.28.21-.57.32-.85.39-.56.14-1.08.1-1.48,0-.82-.23-1.14-.69-1.05-.79.09-.13.5.05,1.16.05.32,0,.71-.04,1.08-.19.18-.07.37-.17.51-.28.14-.12.2-.21.27-.42.23-1,.58-2.06.73-2.67.15-.64.03-1.04.16-1.13Z"/>
    <path class="cls-1" d="M151.76,24.94c-.02.14-.56.21-1.41.07-.42-.07-.93-.2-1.46-.41-.27-.11-.54-.22-.83-.38-.28-.14-.73-.47-.85-.99-.12-.49,0-.89.12-1.21.13-.32.26-.58.41-.83.29-.5.59-.91.86-1.23.55-.65.95-.98,1.07-.9.12.08-.07.58-.45,1.31-.18.37-.41.79-.62,1.27-.21.46-.46,1.06-.37,1.33-.03.19.6.5,1.05.74.47.24.9.42,1.27.58.74.31,1.23.5,1.21.64Z"/>
    <path class="cls-1" d="M145.79,21.79c.13.08.1.35.16.66.03.15.08.32.17.47.07.15.26.3.27.3-.03,0,.05,0,.13-.01.07-.01.14-.04.21-.08.13-.07.25-.2.35-.33.19-.26.3-.52.45-.52.13,0,.31.26.25.76-.04.25-.15.57-.43.83-.14.13-.32.25-.52.32-.2.06-.43.12-.75.03-.57-.23-.74-.61-.86-.95-.1-.34-.08-.67,0-.92.17-.5.47-.64.58-.57Z"/>
    <path class="cls-1" d="M110.63,70.6s.22-.07.62-.23c.4-.16.97-.43,1.68-.85,1.42-.8,3.08-2.51,5.29-4.53,1.12-.99,2.47-2.04,4.17-2.72.85-.36,1.79-.49,2.5-.87.37-.19.58-.41.83-.8.23-.38.62-.9,1.07-1.21.91-.63,1.81-.99,2.74-1.47.93-.45,1.9-.9,2.91-1.29,1.01-.41,2.12-.68,3.09-1.04.96-.36,1.83-.95,2.47-1.75.32-.4.56-.83.73-1.31.17-.48.29-1.03.51-1.6.2-.56.58-1.15.99-1.55.41-.42.77-.76,1.07-1.14,1.25-1.55,1.7-3.56,1.78-5.45.08-1.91-.13-3.77-.12-5.54-.02-1.79.27-3.43.46-4.88.45-2.9.14-5.29.12-6.95,0-.81-.19-1.41-.48-1.69-.29-.28-.54-.29-.53-.34,0-.02.27-.11.67.17.41.28.7.98.76,1.82.15,1.63.58,4.07.22,7.08-.15,1.49-.38,3.08-.33,4.78.03,1.71.28,3.57.22,5.59-.07,2-.51,4.25-1.95,6.07-.35.46-.78.86-1.13,1.22-.36.37-.58.72-.76,1.2-.18.47-.3,1.01-.5,1.58-.2.58-.51,1.14-.9,1.62-.77.97-1.83,1.68-2.94,2.08-1.1.4-2.12.63-3.09,1.02-.98.37-1.92.8-2.84,1.23-.9.45-1.89.85-2.59,1.34-.36.25-.57.52-.85.95-.26.42-.73.89-1.21,1.1-.96.46-1.85.54-2.62.86-1.56.59-2.87,1.52-3.99,2.46-2.23,1.9-4.03,3.6-5.59,4.32-1.51.77-2.51.82-2.5.71Z"/>
    <path class="cls-1" d="M119.75,46.77c.04-.06.32.08.5.54.16.45.28,1,.6,1.65.31.64.8,1.34,1.54,1.88.72.53,1.88.83,2.84,1.73.95.84,1.57,1.99,1.85,2.95.13.39.43.78.62,1.29.2.5.2,1.07.06,1.48-.28.83-.72,1.31-1,1.65-.31.31-.51.46-.57.41-.06-.05.03-.28.22-.65.17-.38.48-.93.6-1.58.05-.33.02-.64-.14-.96-.15-.34-.47-.7-.71-1.25-.35-.95-.86-1.8-1.66-2.52-.75-.74-1.83-1.04-2.72-1.74-.87-.71-1.38-1.61-1.64-2.38-.27-.76-.29-1.46-.3-1.84-.02-.39-.14-.58-.09-.64Z"/>
    <path class="cls-1" d="M117.46,94.12s-.34,0-.9-.27c-.56-.26-1.29-.86-1.98-1.8-1.36-1.87-3.17-4.79-4.3-8.83-.27-1.01-.56-2.06-.61-3.24-.02-.58.05-1.2.28-1.78.22-.58.59-1.1,1-1.57.84-.93,1.83-1.72,2.83-2.55,1.02-.82,2.12-1.61,3.32-2.3,1.2-.69,2.51-1.29,3.93-1.66.7-.2,1.44-.32,2.18-.4.74-.07,1.47-.1,2.15-.28.69-.18,1.35-.51,2.03-.85.68-.33,1.37-.67,2.06-1.01.68-.35,1.41-.66,2.05-1.04.64-.37,1.06-.96,1.38-1.67,1.26-2.87,2.71-5.75,4.96-7.82,2.19-2.06,4.72-3.58,6.09-5.91.68-1.15,1.1-2.41,1.44-3.65.33-1.25.63-2.48.91-3.66.57-2.36.89-4.59.96-6.66.13-4.13.15-7.49.22-9.81,0-1.16.13-2.07-.09-2.63-.22-.56-.59-.66-.56-.69-.02,0,.39.05.66.65.27.6.18,1.52.2,2.67,0,2.32.03,5.67-.05,9.82-.05,2.08-.35,4.37-.91,6.74-.27,1.19-.56,2.41-.89,3.68-.33,1.26-.76,2.57-1.47,3.78-1.45,2.48-4.04,4.03-6.15,6.04-2.17,2.01-3.56,4.78-4.84,7.67-.32.73-.86,1.48-1.58,1.9-.71.42-1.41.72-2.1,1.07-.69.34-1.38.67-2.06,1.01-.68.33-1.37.68-2.13.88-.76.2-1.52.22-2.24.29-.71.08-1.42.19-2.09.38-1.36.35-2.63.93-3.81,1.59-1.17.67-2.26,1.44-3.27,2.24-1,.81-1.99,1.6-2.79,2.47-.82.87-1.25,1.94-1.2,3.04.03,1.09.31,2.15.56,3.15,1.07,3.99,2.81,6.91,4.1,8.8.65.95,1.33,1.54,1.86,1.83.53.29.85.34.84.37Z"/>
    <path class="cls-1" d="M135.12,72.49c-.14.03-.38-.4-.64-1.12-.13-.36-.27-.79-.41-1.28-.15-.49-.25-1.02-.47-1.42-.39-.77-1.41-1-2.05-1.01-.67-.02-1.09.19-1.18.07-.09-.09.23-.6,1.09-.81.42-.1.95-.13,1.52.03.28.08.58.21.86.41.28.2.53.49.7.8.34.64.39,1.22.49,1.7.09.5.15.95.19,1.33.08.76.05,1.25-.09,1.28Z"/>
    <path class="cls-1" d="M134.24,68.17c-.04.13-.4.19-.84-.14-.45-.32-.79-1.04-.81-1.79-.03-.73.14-1.38.4-1.81.25-.43.54-.58.66-.5.22.18-.08,1.07,0,2.27.02.58.14,1.03.3,1.33.15.31.35.51.3.65Z"/>
    <path class="cls-1" d="M142.28,68.85c0,.13-.76.18-1.63-.54-.42-.34-.84-.86-1.18-1.44-.35-.57-.67-1.2-1.11-1.69-.86-.99-2.2-1.27-3.12-1.44-.95-.15-1.57-.19-1.58-.35-.01-.13.59-.36,1.63-.4.52,0,1.15.03,1.84.23.68.2,1.45.59,2.02,1.25.57.65.88,1.35,1.17,1.92.28.57.56,1.03.85,1.38.57.7,1.15.92,1.11,1.07Z"/>
    <path class="cls-1" d="M136.8,55.24c.02.07-.12.18-.4.24-.28.07-.7.07-1.16,0-.46-.05-1-.14-1.44-.04-.57.13-1.2.3-1.79.55-.59.25-1.08.57-1.38.96-.31.48-.53.93-.84,1.36-.31.42-.69.67-.98.75-.29.09-.46.04-.47-.03-.03-.15.48-.36.82-1.12.17-.36.37-.94.67-1.51.4-.63,1.07-1.09,1.77-1.38.71-.3,1.4-.44,2.03-.53.78-.09,1.34.14,1.77.27.86.32,1.35.34,1.4.48Z"/>
    <path class="cls-1" d="M165.97,27.16c-.06.13-.84-.07-2.13-.25-.65-.1-1.4-.19-2.28-.28-.89-.1-1.83-.27-2.83-.44-1.98-.35-3.75-.62-5.05-.72-1.29-.12-2.11-.1-2.13-.25-.02-.13.78-.42,2.14-.49,1.35-.09,3.22.07,5.22.43.99.18,1.93.36,2.79.52.86.14,1.66.32,2.3.52,1.3.38,2.03.85,1.97.98Z"/>
    <path class="cls-1" d="M171.16,28.13c0,.09-.37.04-.89.33-.26.14-.54.36-.92.65-.41.3-.99.5-1.61.52-1.25.08-2.61-.4-4.02-.72-1.43-.31-3.07-.51-4.79-.78-1.71-.28-3.34-.55-4.83-.79-.74-.13-1.44-.25-2.09-.37-.66-.11-1.15-.11-1.75-.04-.56.04-1.03.1-1.39.26-.36.15-.61.4-.79.64-.34.49-.48.83-.56.8-.06-.02-.07-.39.21-1.01.15-.31.41-.68.86-.95.45-.27,1.01-.39,1.57-.48.27-.04.58-.11.93-.12.34-.02.68,0,1.03.04.67.09,1.38.18,2.13.27,1.49.22,3.13.46,4.84.71,1.71.28,3.35.49,4.85.88,1.5.41,2.72.91,3.78.92.52.02.96-.09,1.31-.27.38-.21.75-.43,1.08-.53.68-.21,1.07,0,1.05.05Z"/>
    <path class="cls-1" d="M121.78,70.47s-.61-.02-1.7-.16c-1.09-.15-2.66-.37-4.59-.63-.24-.04-.52-.08-.78-.22-.27-.14-.47-.39-.62-.62-.29-.46-.6-.86-1.03-1.22-.84-.71-1.98-1.2-3.21-1.37-.62-.08-1.26-.08-1.9.03-.62.08-1.3.44-2.12.31-.81-.13-1.42-.68-1.94-1.18-.52-.51-1.05-1.03-1.55-1.61-1-1.12-1.84-2.53-1.85-4.04-.03-1.48.38-2.8.46-4.06.1-1.27.09-2.5-.3-3.53-.39-1.06-.94-1.97-1.53-2.73-.6-.75-1.17-1.45-1.91-1.58-.75-.14-1.43-.37-1.92-.62-.5-.25-.84-.52-1.06-.71-.22-.2-.31-.32-.3-.33.03-.04.46.41,1.45.85.5.22,1.11.4,1.89.51.4.07.83.29,1.17.6.34.31.66.66.97,1.04.63.77,1.22,1.71,1.65,2.8.45,1.13.47,2.43.38,3.73-.07,1.32-.47,2.65-.42,4,.02,1.35.76,2.61,1.73,3.71.48.55,1,1.07,1.52,1.58.5.5,1.04.95,1.65,1.05.6.11,1.24-.19,1.95-.3.7-.12,1.39-.11,2.06-.02,1.33.19,2.53.73,3.44,1.53.45.38.82.88,1.08,1.33.26.46.62.62,1.12.69,1.92.34,3.48.61,4.57.81,1.08.2,1.67.33,1.66.37Z"/>
    <path class="cls-1" d="M97.02,47.82c0,.1-.32.23-.91.14-.59-.09-1.34-.41-2.2-.89-1.72-.95-3.93-2.84-5.22-5.7-.32-.72-.54-1.43-.71-2.17-.04-.2-.08-.44-.06-.71,0-.27.1-.57.22-.8.26-.46.57-.72.84-.94,1.05-.8,2.03-1.4,2.89-1.86,1.73-.9,2.91-1.2,3-1.01.1.21-.88.87-2.39,1.98-.75.56-1.64,1.24-2.54,2.03-.21.18-.37.37-.43.5-.04.1-.05.17.01.46.15.59.37,1.23.64,1.84,1.11,2.48,2.94,4.29,4.37,5.41.73.57,1.33,1.01,1.76,1.25.43.25.71.34.71.46Z"/>
    <path class="cls-1" d="M48.39,53.22s.05.32-.07.93c-.12.6-.44,1.48-1.2,2.38-.75.89-1.98,1.78-3.61,2.18-.81.2-1.68.31-2.57.52-.87.22-1.83.57-2.43,1.32-.3.36-.4.86-.27,1.32.12.46.51.83.99.93.49.1,1.09.06,1.67.07.58,0,1.18-.02,1.78-.04,2.41-.08,5.03-.29,7.77.12,2.74.45,5.42,1.46,8.27,2.31,2.83.89,5.76,1.82,8.77,2.76.75.22,1.51.5,2.21.7.69.19,1.43.07,2.15-.12,1.41-.39,2.7-1.26,3.44-2.45.76-1.2.8-2.68.76-4.08-.06-1.41-.04-2.88.32-4.23.67-2.72,2.3-4.97,4.11-6.58.89-.82,1.67-1.66,2.19-2.64.53-.97.84-1.99,1.01-2.99.16-1,.23-1.98.09-2.87-.13-.89-.56-1.65-1-2.32-.46-.67-.91-1.29-1.38-1.79-.47-.51-.96-.91-1.42-1.25-.93-.67-1.71-1.12-2.22-1.44-.51-.32-.78-.5-.77-.52,0-.02.29.13.83.42.53.3,1.32.72,2.29,1.37.48.33.99.73,1.49,1.24.5.51.96,1.13,1.44,1.8.47.67.94,1.48,1.09,2.44.16.95.1,1.95-.05,2.99-.16,1.03-.48,2.11-1.02,3.13-.52,1.03-1.36,1.94-2.24,2.76-1.78,1.61-3.3,3.76-3.94,6.38-.34,1.3-.35,2.66-.29,4.09.04,1.41.02,3.01-.82,4.37-.83,1.34-2.22,2.27-3.75,2.69-.76.2-1.6.34-2.42.12-.79-.23-1.5-.48-2.26-.71-3-.95-5.92-1.87-8.75-2.77-2.83-.86-5.54-1.88-8.19-2.33-2.66-.42-5.26-.22-7.68-.16-.61.02-1.2.03-1.79.03-.59-.02-1.15.03-1.76-.1-.62-.13-1.14-.64-1.29-1.23-.17-.58-.01-1.23.35-1.66.72-.88,1.75-1.2,2.65-1.42.92-.21,1.79-.3,2.58-.48,1.57-.36,2.77-1.18,3.52-2.02.76-.85,1.1-1.69,1.26-2.27.15-.58.14-.91.17-.9Z"/>
    <path class="cls-1" d="M81.34,50.52c-.04-.08.26-.25.56-.76.16-.25.32-.59.58-.98.25-.39.73-.84,1.34-1.01,1.22-.37,2.52-.19,4.02-.19.37.01.75.02,1.14.04.37.03.74.05,1.1.03.74-.03,1.24-.35,1.13-.81-.1-.57-.7-1.18-1.23-1.72-.55-.54-1.12-1.03-1.69-1.46-1.13-.84-2.32-1.53-3.23-1.91-.22-.07-.41-.08-.49-.03-.09.03-.14.14-.17.35-.04.43-.07.81-.1,1.12-.07.62-.14.97-.21.96-.07,0-.14-.34-.2-.97-.03-.32-.06-.68-.08-1.14-.01-.22.03-.64.39-.89.35-.23.74-.19,1.05-.13,1.18.38,2.33.98,3.6,1.84.62.43,1.25.93,1.84,1.5.55.58,1.29,1.15,1.55,2.28.05.29.03.62-.11.92-.13.29-.34.52-.58.69-.49.33-.99.39-1.43.42-.45.02-.86-.01-1.25-.05-.38-.02-.75-.05-1.11-.07-1.43-.06-2.8-.29-3.76-.07-.95.18-1.33,1.07-1.8,1.53-.46.5-.87.56-.88.5Z"/>
    <path class="cls-1" d="M91.39,70.72c0-.05.41-.05,1.01-.38.59-.33,1.36-1.07,1.65-2.27.17-.6.24-1.28.4-2.03.15-.75.45-1.53.82-2.29.71-1.53,1.83-3.08,2.09-4.93.13-.92.03-1.84-.37-2.59-.39-.77-1.08-1.23-1.81-1.69-.74-.47-1.31-1.13-1.71-1.78-.41-.65-.72-1.27-1.04-1.81-.63-1.08-1.4-1.76-2.01-2.09-.61-.33-1.01-.37-1-.42,0-.02.42-.06,1.1.23.68.28,1.54.98,2.24,2.07.71,1.06,1.31,2.52,2.7,3.37.34.23.73.44,1.09.74.36.3.68.68.91,1.11.47.87.58,1.92.44,2.92-.3,2.04-1.47,3.59-2.18,5.08-.38.74-.66,1.46-.83,2.17-.17.71-.27,1.41-.47,2.04-.36,1.29-1.26,2.07-1.92,2.36-.34.15-.62.2-.81.21-.19.01-.29,0-.29-.02Z"/>
    <path class="cls-1" d="M97.63,56.37c-.1.06-.57-.24-1-1.14-.2-.45-.3-1.19.14-1.86.21-.33.58-.6.95-.72.37-.13.71-.18,1.09-.21.72-.04,1.58.07,2.14.73.51.69.38,1.36.35,1.78-.13.88-.28,1.42-.42,1.41-.15-.01-.26-.56-.32-1.41-.03-.43-.09-.91-.34-1.14-.22-.24-.75-.36-1.33-.31-.29.02-.59.06-.82.13-.23.07-.38.17-.5.31-.24.3-.29.71-.22,1.07.17.75.44,1.29.29,1.36Z"/>
    <path class="cls-1" d="M79.21,22.65c.11.08-.35.99-1.34,2.3-.99,1.32-2.48,2.97-4.26,4.75-.47.45-1.1.88-1.83.98-.72.11-1.43-.13-1.93-.47-1.04-.68-1.51-1.67-1.91-2.32-.77-1.39-1.72-1.68-1.69-1.82.01-.06.29-.1.75.09.46.18,1.04.64,1.55,1.31.52.67,1,1.45,1.81,1.92.39.23.83.34,1.27.27.43-.07.85-.34,1.27-.73,1.71-1.71,3.3-3.31,4.41-4.46,1.11-1.16,1.78-1.9,1.91-1.81Z"/>
    <path class="cls-1" d="M77.19,70.11s-.05-.14-.23-.28c-.18-.15-.51-.29-.97-.43-.47-.16-.99-.24-1.68-.21-.33.02-.74,0-1.03.08-.29.09-.41.24-.37.54.08.65.88,1.25,1.68,1.8.83.55,1.82,1.03,2.82,1.71.5.34,1,.75,1.43,1.27.43.52.72,1.11,1.03,1.62.31.51.65.94,1.12,1.21.47.28,1.04.43,1.61.43.27,0,.54-.06.73-.15.2-.12.24-.17.25-.32.01-.16-.07-.52-.13-.81-.07-.3-.14-.6-.23-.88-.34-1.15-.87-2.19-1.6-2.95-.73-.79-1.64-1.19-2.63-1.52-.94-.35-2.03-.69-2.59-1.65-.49-.93-.39-1.81-.35-2.51.07-.71.18-1.3.27-1.78.17-.96.23-1.49.3-1.5.07,0,.15.55.11,1.54-.02.49-.07,1.09-.08,1.77,0,.66,0,1.47.4,2.09.37.6,1.27.9,2.23,1.21.97.28,2.16.75,3.04,1.67.9.89,1.51,2.08,1.9,3.33.1.31.18.63.26.96.06.33.17.61.16,1.1,0,.24-.1.53-.26.74-.16.22-.37.36-.57.46-.4.2-.8.26-1.2.27-.77,0-1.52-.19-2.17-.58-.66-.4-1.13-1.01-1.46-1.58-.34-.57-.59-1.11-.93-1.52-.33-.42-.76-.78-1.2-1.11-.9-.65-1.88-1.16-2.75-1.78-.44-.31-.84-.64-1.2-1.02-.36-.36-.68-.87-.73-1.43-.02-.28.03-.62.25-.86.2-.24.48-.36.72-.41.49-.08.83-.02,1.19-.01.7.02,1.37.19,1.81.42.46.2.81.43.98.67.18.25.11.44.08.42Z"/>
    <path class="cls-1" d="M68.26,68.67c.05-.28,1.36-.26,2.77.47,1.41.72,2.18,1.8,1.98,2-.21.21-1.2-.42-2.46-1.06-1.25-.65-2.35-1.12-2.28-1.41Z"/>
    <path class="cls-1" d="M92.76,70.11s-.06.26-.41.49c-.34.23-.98.4-1.71.3-.73-.1-1.53-.39-2.33-.9-.78-.5-1.49-1.06-2.33-1.14-.42-.05-.76.02-1.04.23-.29.2-.55.57-.88.93-.3.37-.85.69-1.23.78-.4.13-.78.22-1.13.26-1.44.21-2.29-.35-2.2-.47.06-.14.83.1,2.05-.26.3-.09.63-.2.96-.35.37-.16.55-.29.82-.61.25-.3.51-.73.99-1.11.49-.39,1.19-.53,1.78-.45.6.07,1.14.29,1.59.57.45.27.82.57,1.16.81.66.48,1.36.81,1.94.97,1.19.37,1.87-.19,1.97-.06Z"/>
    <path class="cls-1" d="M40.88,62.79s-.18.1-.41.38c-.22.27-.42.86-.08,1.46.32.61,1.08,1.13,1.53,2.12.2.5.26,1.05.42,1.58.16.53.41,1.07.75,1.59.68,1.05,1.68,2.02,2.81,2.98.57.47,1.16,1.01,1.79,1.41.64.4,1.42.5,2.26.55.83.04,1.75.14,2.61.43.87.27,1.7.69,2.49,1.19,1.59,1,2.96,2.37,4.4,3.65,1.44,1.28,2.99,2.36,4.72,2.9,1.71.56,3.47.74,5.14.8,1.67.06,3.27-.01,4.77-.05.75-.02,1.47-.04,2.17-.06.7-.03,1.37,0,1.96-.13.59-.13,1.09-.44,1.51-.81.4-.35.61-.84.72-1.31.21-.96.06-1.84-.11-2.51-.35-1.37-.9-1.99-.85-2.02,0,0,.04.03.11.1.06.07.16.18.26.35.21.32.47.82.68,1.51.2.69.39,1.59.2,2.63-.1.51-.32,1.08-.79,1.5-.44.4-.99.76-1.65.92-.66.15-1.34.13-2.03.17-.7.03-1.42.06-2.17.09-1.5.06-3.11.14-4.81.1-1.7-.05-3.5-.21-5.29-.79-1.81-.55-3.45-1.69-4.91-2.99-1.47-1.3-2.8-2.64-4.33-3.61-1.52-1-3.17-1.53-4.85-1.57-.83-.06-1.74-.17-2.47-.64-.71-.46-1.26-1-1.84-1.48-1.13-.99-2.15-2-2.84-3.12-.35-.55-.61-1.13-.76-1.71-.15-.58-.2-1.11-.37-1.56-.36-.89-1.11-1.46-1.43-2.13-.36-.71-.08-1.36.18-1.63.28-.28.49-.31.49-.31Z"/>
    <path class="cls-1" d="M34.02,72.34c-.07-.14.49-.5,1-1.36.26-.43.5-.97.76-1.63.26-.65.55-1.44,1.11-2.17.56-.71,1.02-1.17,1.2-1.76.2-.57.2-1.17.15-1.66-.12-1-.39-1.63-.24-1.7.11-.06.62.44.97,1.55.16.55.26,1.29.06,2.09-.1.39-.29.81-.54,1.16-.24.35-.52.66-.75.96-.45.59-.74,1.27-1.06,1.92-.31.65-.66,1.26-1.05,1.69-.79.89-1.56,1.04-1.6.91Z"/>
    <path class="cls-1" d="M42.25,69.33c-.29.04-.7-1.61-2.11-2.97-.34-.32-.54-.39-.76-.31-.24.08-.55.41-.78.63-.46.47-.75.8-.88.74-.13-.06-.08-.53.28-1.18.2-.31.37-.71.95-1.06.29-.17.72-.22,1.07-.11.36.11.63.32.85.53.83.82,1.29,1.78,1.45,2.51.16.73.06,1.2-.07,1.22Z"/>
    <path class="cls-1" d="M24.13,65.09s-.11.35.15.49l-.18-.05c.61-.21,1.57-.53,2.74-1.03,1.17-.49,2.53-1.18,4-1.92,1.01-.51,1.98-.98,2.87-1.4.85-.4,1.78-.86,2.68-.76.51.07.82.3,1.07.5.25.21.43.44.53.65.24.44.06.77,0,.72-.08-.03-.07-.23-.34-.49-.23-.24-.78-.63-1.3-.64-.62,0-1.33.41-2.21.89-.87.46-1.82.96-2.84,1.47-1.48.75-2.91,1.4-4.17,1.81-1.25.42-2.31.59-2.97.63h-.13s-.05-.05-.05-.05c-.25-.28-.17-.59-.08-.71.1-.13.19-.14.21-.11Z"/>
    <path class="cls-1" d="M25.02,46.85c.04-.06.32.04.74.38.42.33.9.94,1.48,1.57.3.32.64.62,1.05.83.41.22.92.35,1.51.5,1.21.27,2.56.94,3.61,1.96,1.08,1.01,1.8,2.24,2.29,3.37.49,1.14.8,2.18,1.06,3.07.13.47.17,1-.03,1.42-.19.42-.53.63-.77.75-.52.22-.82.18-.83.13-.03-.08.25-.2.62-.48.39-.29.65-.8.31-1.59-.7-1.64-1.46-4.1-3.36-5.9-.95-.91-2.03-1.48-3.15-1.79-.57-.18-1.16-.35-1.68-.68-.52-.32-.89-.73-1.18-1.11-.57-.77-.91-1.38-1.21-1.77-.29-.39-.49-.6-.44-.66Z"/>
    <path class="cls-1" d="M24.65,53.66c-.06-.03.26-.65,1.22-1.07.94-.45,2.4-.51,3.88-.37.75.05,1.48.12,2.13.28.66.16,1.22.41,1.65.7.86.61,1.05,1.28,1,1.29-.08.06-.38-.51-1.2-.96-.82-.47-2.12-.7-3.62-.77-1.49-.13-2.81-.13-3.71.19-.9.29-1.3.77-1.36.72Z"/>
    <path class="cls-1" d="M36.27,57.91c.14-.04.35.25.63.66.14.2.31.45.49.57.09.06.16.09.29.12l.26.05.17.04h.02s0,0,0,0h0c-.1.38-.03.1-.05.19h0s.01-.03.01-.03c.01-.04.02-.08.03-.12.01-.07,0-.02,0-.03.2,0,.62-.13.92-.22.32-.1.63-.19.89-.25.52-.13.9-.14.94,0,.04.14-.19.37-.64.68-.23.15-.5.32-.84.47-.36.15-.66.33-1.28.37-.08,0-.24-.03-.27-.04l-.12-.03c-.09-.02-.2-.04-.31-.08-.24-.07-.5-.22-.67-.4-.34-.36-.44-.71-.52-.99-.13-.57-.08-.92.05-.96Z"/>
    <path class="cls-1" d="M94.28,67.97c.07.01.11.23.11.6,0,.19,0,.42-.01.68-.02.26-.03.61.05.64.04.07.37.13.6.01.23-.11.44-.38.64-.79.43-.8.78-1.77,1.29-2.8.25-.5.52-.98.84-1.41.31-.41.61-.77.91-1.13.55-.68.84-1.4,1.06-2.05.41-1.3.59-2.17.75-2.15.13.02.21.89-.03,2.33-.13.71-.41,1.61-.98,2.41-.28.38-.57.77-.87,1.18-.27.39-.51.82-.74,1.28-.47.95-.87,1.95-1.39,2.8-.24.42-.61.93-1.18,1.12-.28.09-.56.1-.82.04-.26-.05-.54-.2-.7-.47-.15-.26-.13-.51-.11-.68.03-.18.07-.3.1-.44.07-.26.13-.48.19-.66.12-.36.21-.55.28-.54Z"/>
    <path class="cls-1" d="M103.33,64.73c-.15.03-.33-.18-.8-.31-.45-.13-1.15-.22-1.87-.08-.72.13-1.28.48-1.64.82-.36.33-.55.62-.69.59-.13-.02-.21-.45.1-1.04.29-.58,1.05-1.23,2.04-1.41.98-.19,1.88.06,2.42.45.58.4.6.96.45.97Z"/>
    <path class="cls-1" d="M98.63,65.34c.03.07-.08.18-.22.39-.13.19-.28.53-.18.83.09.29.45.62.92.65.48.05,1.2-.11,1.91-.24.72-.15,1.45-.3,2.14-.33.33-.02.72,0,.96.03.23.01.22.04.31-.02.04-.08.06-.1-.02-.28-.07-.16-.15-.3-.21-.41-.13-.23-.2-.38-.15-.44.05-.05.21,0,.46.16.12.09.26.2.41.37.13.14.38.57.25.93-.11.4-.71.56-1.04.56-.33.01-.56.02-.88.06-.6.08-1.27.24-2.02.4-.76.13-1.46.3-2.28.17-.83-.15-1.45-.81-1.5-1.5-.04-.7.38-1.1.64-1.25.28-.16.47-.14.49-.08Z"/>
    <path class="cls-1" d="M100.25,67.67s.67-.41,2.06-.58c.7-.07,1.57-.02,2.54.2,1.1.23,1.91,1.21,2.78,1.92.89.68,2.12,1.32,3.34,1.07.31-.06.66-.2,1.12-.24.22-.02.51,0,.74.09.12.04.24.1.36.18.15.1.27.23.35.39.18.31.08.74-.1.98l-.35.5c-.24.33-.5.65-.77.96-2.21,2.51-5.41,4.38-8.89,5.77-1.74.7-3.47,1.27-5.15,1.8-.42.13-.83.26-1.24.39-.4.12-.83.28-1.34.33-.5.06-1.14-.09-1.54-.49-.4-.38-.59-.85-.72-1.27-.5-1.64-.45-3.29-.2-4.73.26-1.45.7-2.74,1.15-3.88.06-.15.09-.26.19-.45.09-.18.25-.35.4-.45.29-.19.45-.28.67-.49.42-.35.78-.71,1.24-.97.89-.51,1.73-.72,2.4-.86,1.36-.26,2.12-.22,2.13-.16.01.08-.74.19-2.03.56-.64.2-1.42.46-2.18.96-.37.23-.73.63-1.13,1-.17.18-.48.4-.67.53-.09.07-.13.12-.17.21-.03.07-.09.26-.14.38-.39,1.14-.78,2.39-.98,3.77-.2,1.36-.21,2.86.26,4.3.11.34.26.65.47.83.2.18.44.25.77.22.33-.03.71-.16,1.13-.3.41-.13.82-.26,1.24-.4,1.66-.54,3.37-1.11,5.07-1.79,3.39-1.35,6.46-3.13,8.56-5.43.26-.29.5-.58.73-.88l.32-.45c.05-.07.03-.05.03-.09,0-.01-.01-.02-.02-.03-.04-.03-.08-.05-.14-.07-.12-.04-.21-.06-.36-.05-.29.01-.62.13-1.02.2-.81.15-1.6-.02-2.26-.29-.66-.28-1.22-.65-1.72-1.06-.95-.86-1.6-1.7-2.45-1.92-.9-.26-1.71-.36-2.37-.36-1.32.03-2.06.26-2.08.17Z"/>
    <path class="cls-1" d="M115.3,72.99c-.02-.07.06-.16.19-.29.12-.12.36-.34.32-.46,0-.1-.13-.26-.36-.28-.05,0-.11,0-.17.01-.1.02-.2.05-.31.08-.21.06-.43.13-.65.22-.87.35-1.6.89-2.15,1.27-.56.38-.95.6-1.05.49-.1-.1.1-.5.55-1.04.45-.53,1.19-1.25,2.26-1.7.26-.11.53-.19.8-.25.14-.03.26-.05.4-.07.17-.02.35-.01.52.03.68.14,1.12.9.86,1.47-.11.27-.33.4-.47.47-.14.07-.27.1-.38.12-.22.03-.34-.01-.36-.08Z"/>
    <path class="cls-1" d="M111.08,76.32c.06.03.03.33-.25.78-.27.45-.8,1.02-1.56,1.54-.76.53-1.73.99-2.72,1.56-1,.54-1.85,1.37-2.91,2.3-.26.22-.53.45-.87.65-.32.19-.66.33-.98.44-.64.22-1.24.35-1.77.53-.21.08-.68.23-1.02.17-.36-.03-.67-.16-.94-.31-.54-.31-.91-.76-1.13-1.24-.23-.47-.22-1.06-.02-1.43.18-.39.46-.62.69-.76.48-.28.8-.23.81-.18.02.08-.24.18-.56.5-.31.31-.66.92-.26,1.53.38.6,1.25,1.27,2.11.79.57-.22,1.18-.37,1.74-.58.59-.21,1-.47,1.51-.92.97-.85,2.01-1.82,3.12-2.34,1.08-.55,2.05-.93,2.79-1.34,1.54-.79,2.07-1.74,2.2-1.68Z"/>
    <path class="cls-1" d="M114.75,91.95c-.14.06-.63-.75-1.64-1.91-.5-.59-1.13-1.26-1.79-2.08-.33-.41-.66-.86-.97-1.36-.32-.5-.57-1.05-.85-1.53-.52-.95-1.35-1.57-2.22-1.94-.87-.37-1.74-.46-2.47-.43-1.48.07-2.33.59-2.41.44-.09-.09.67-.89,2.33-1.18.81-.14,1.85-.13,2.91.26,1.04.36,2.16,1.16,2.78,2.32.32.55.54,1.07.82,1.52.27.46.57.89.86,1.3.59.82,1.17,1.56,1.61,2.22.9,1.32,1.17,2.31,1.04,2.36Z"/>
    <path class="cls-1" d="M112.65,89.06s.2.07.47.35c.27.27.57.81.6,1.55.07.74-.21,1.63-.54,2.57-.16.48-.32.99-.36,1.54-.05.55.08,1.12.27,1.72.37,1.22.71,2.59,1.11,4.04.4,1.45.71,3.06.72,4.78,0,1.71-.45,3.62-1.75,5.07-.64.74-1.58,1.24-2.58,1.38-1,.16-2,.01-2.97-.23-.97-.25-1.87-.61-2.75-.99-.87-.38-1.73-.76-2.55-1.22-.81-.46-1.59-.99-2.22-1.67-.64-.68-1.06-1.48-1.44-2.23-.75-1.5-1.54-2.9-2.5-4-.47-.52-1.11-.93-1.61-1.42-.52-.47-1-.96-1.41-1.47-.41-.51-.75-1.04-.97-1.6-.22-.57-.23-1.17-.14-1.68.09-.52.28-.98.47-1.37.17-.39.29-.77.41-1.1.41-1.38.97-2.02,1.01-1.98.02.02-.11.17-.27.5-.16.33-.34.85-.53,1.54-.1.34-.2.73-.37,1.14-.18.4-.34.82-.41,1.31-.07.48-.04,1.01.16,1.51.21.5.55,1,.95,1.48.4.48.87.94,1.39,1.4.5.48,1.11.84,1.67,1.43,1.04,1.15,1.84,2.57,2.61,4.08.38.75.79,1.49,1.37,2.1.58.62,1.31,1.12,2.1,1.56.79.44,1.64.81,2.51,1.19.86.37,1.75.72,2.67.96.92.24,1.86.37,2.75.23.89-.13,1.69-.55,2.27-1.21,1.18-1.32,1.64-3.08,1.64-4.72,0-1.65-.28-3.23-.66-4.68-.38-1.45-.69-2.8-1.04-4.03-.18-.62-.32-1.25-.25-1.86.06-.6.25-1.13.42-1.61.37-.95.65-1.76.62-2.46,0-.7-.25-1.21-.48-1.49-.23-.29-.4-.4-.38-.42Z"/>
    <path class="cls-1" d="M92.76,94.03c-.14-.04-.04-.86.21-2.19.27-1.3.7-3.2,1.9-5.01.61-.89,1.36-1.62,2.12-2.17.78-.52,1.54-.87,2.2-1.08.33-.09.63-.17.9-.25.27-.04.51-.07.7-.09.38-.03.6-.02.61.05.01.07-.17.19-.51.35-.17.08-.38.16-.62.25-.24.11-.5.24-.79.38-.58.28-1.24.67-1.91,1.17-.64.53-1.28,1.19-1.82,1.98-1.08,1.61-1.61,3.36-2.06,4.61-.44,1.26-.79,2.03-.93,1.99Z"/>
    <path class="cls-1" d="M137.75,94.69s-.16.39-.76.76c-.59.38-1.56.7-2.76.86-2.38.27-5.64.38-9.25.52-.9.02-1.77.09-2.71-.03-.46-.07-.94-.2-1.37-.45-.42-.24-.74-.55-1.02-.82-.28-.27-.55-.51-.79-.65-.25-.15-.57-.22-.9-.3-.67-.14-1.4-.36-1.93-.73-1.06-.76-1.55-1.66-1.85-2.25-.29-.61-.4-.97-.34-1,.07-.04.3.26.69.78.39.51.97,1.29,1.9,1.83.47.27,1.01.4,1.71.5.35.06.75.13,1.15.34.42.22.72.49,1.01.75.59.54,1.09.88,1.87.96.75.09,1.65.03,2.55,0,3.59-.14,6.87-.13,9.2-.21,1.16-.06,2.06-.25,2.65-.48.59-.22.88-.45.94-.39Z"/>
    <path class="cls-1" d="M113.73,101.34c-.07-.01-.11-.18-.18-.47-.05-.3-.21-.71-.16-1.38.03-.33.2-.74.5-1.03.3-.29.67-.49,1.06-.62.79-.28,1.63-.28,2.35-.47.73-.18,1.45-.55,2.19-.78.73-.23,1.42-.35,1.99-.37,1.15-.05,1.83.12,1.83.26,0,.16-.69.25-1.73.48-.52.12-1.12.29-1.77.55-.64.25-1.35.65-2.26.89-.91.23-1.71.2-2.32.37-.64.17-1.01.45-1.12.86-.12.43-.09.91-.16,1.23-.06.33-.16.5-.23.48Z"/>
    <path class="cls-1" d="M91.97,87.65c-.08-.05.23-.53.44-1.49.22-.93.3-2.43-.51-3.95-.4-.74-1-1.5-1.83-1.97-.82-.48-1.89-.53-3.08-.52-1.18,0-2.43,0-3.42.54-1,.53-1.7,1.61-1.88,2.86-.1.63-.11,1.28-.08,1.93.03.64.11,1.24.35,1.72.21.43.72.93,1.11,1.35.21.21.42.4.62.53.2.12.51.28.75.41.51.26,1.02.47,1.53.6.48.12.99.14,1.47.09.97-.11,1.87-.49,2.62-.91,1.57-.81,2.32-2.06,2.56-2.99.25-.94.12-1.51.22-1.52.04-.02.33.54.18,1.6-.08.53-.28,1.16-.7,1.8-.41.65-1.09,1.25-1.87,1.74-.79.5-1.75.97-2.89,1.14-.57.08-1.19.08-1.81-.05-.6-.14-1.18-.36-1.74-.63-.29-.14-.53-.26-.85-.44-.32-.2-.56-.43-.8-.66-.24-.23-.46-.47-.67-.72-.2-.21-.48-.55-.64-.89-.35-.69-.44-1.44-.47-2.14-.03-.69-.03-1.41.09-2.15.21-1.48,1.1-2.93,2.43-3.61,1.35-.68,2.74-.61,3.92-.59,1.18.02,2.48.08,3.51.74,1.01.63,1.64,1.53,2.05,2.39.82,1.77.59,3.43.23,4.4-.36.99-.8,1.4-.84,1.37Z"/>
    <path class="cls-1" d="M85.84,77.43c.06-.05.29.09.82.14.51.05,1.33.1,2.2-.09.73-.17,1.4-1.23,2.01-2.28.28-.51.37-1.05.13-1.44-.2-.36-.82-.54-1.44-.46-.62.08-1.22.39-1.84.73-.62.33-1.17.65-1.46,1.06-.3.4-.4.95-.41,1.48-.01.3,0,.5.04.52.05.08.31.2.51.28.84.33,1.62.33,2.14.29.53-.05.83-.13.86-.05.03.06-.22.27-.77.46-.55.17-1.42.31-2.46.02-.26-.09-.51-.12-.86-.42-.17-.17-.26-.41-.29-.59-.03-.19-.03-.32-.04-.48-.02-.61.03-1.37.49-2.05.46-.68,1.15-1.05,1.76-1.4.61-.35,1.33-.76,2.22-.88.44-.05.89-.03,1.33.11.43.13.88.43,1.13.87.52.88.19,1.86-.17,2.45-.38.61-.73,1.08-1.15,1.56-.44.46-.91.87-1.56.97-2.13.21-3.32-.62-3.17-.79Z"/>
    <path class="cls-1" d="M92.76,93.05c.07,0,.14.29.07.81-.08.55-.32,1.15-.3,2.01-.03.45-.07,1.05-.5,1.59-.44.51-1.15.88-2,.62-.41-.13-.75-.51-.9-.87-.16-.36-.21-.69-.3-.98-.18-.6-.36-1.23-.54-1.87-.19-.65-.35-1.34-.37-2.06,0-.36.03-.73.16-1.1.13-.37.4-.73.71-.94.63-.42,1.26-.5,1.81-.54.28-.02.54-.02.8,0,.37.01.71.24.87.46.34.46.41.87.52,1.2.09.35.19.54.28.87.06.31-.05.54-.12.65-.08.12-.15.16-.18.15-.09-.02.07-.34-.09-.68-.08-.14-.31-.46-.44-.78-.15-.31-.31-.69-.53-.92-.12-.11-.21-.14-.33-.14-.22,0-.46.03-.7.06-.47.06-.98.2-1.32.45-.32.24-.43.65-.41,1.23.03.56.16,1.16.35,1.8.18.66.36,1.29.53,1.91.08.32.13.61.22.81.09.2.18.3.32.37.27.13.77-.02,1-.28.25-.26.36-.68.42-1.1.05-.42.15-.89.29-1.22.14-.32.26-.59.36-.82.18-.44.25-.71.33-.7Z"/>
    <path class="cls-1" d="M69.7,84.26c-.01-.06.43-.24,1.28-.36.42-.06.96-.1,1.58-.02.64.08,1.31.33,2.01.7.35.2.73.44,1.03.86.32.41.39,1.15.04,1.66-.33.5-.82.78-1.33.96-.51.17-1.08.24-1.64.15-1.1-.15-2.07-.69-3.02-1.07-.94-.38-2-.6-3.12-.82-2.26-.4-4.43-1.08-6.22-2-1.81-.91-3.29-1.99-4.4-3.04-.29-.25-.59-.6-.71-1.01-.07-.2-.08-.52.04-.73.12-.22.36-.35.57-.4.42-.07.71.07.95.14.24.08.46.16.66.23.79.29,1.21.48,1.19.55s-.48.01-1.31-.15c-.21-.04-.43-.09-.68-.14-.24-.06-.51-.11-.68-.05-.14.05-.21.16-.12.34.1.23.28.44.57.66,2.24,1.89,5.88,3.84,10.34,4.56,1.12.22,2.25.46,3.3.9,1.03.44,1.91.93,2.78,1.07.8.15,1.74-.14,2.09-.62.16-.22.16-.48,0-.74-.15-.25-.43-.48-.72-.66-1.21-.8-2.35-.91-3.19-.91-.82,0-1.29.03-1.3-.05Z"/>
    <path class="cls-1" d="M47.73,75.38c-.14.08-.6-1.03-2.21-1.58-.39-.13-.83-.23-1.31-.23-.48-.01-.99.06-1.24.33-.28.25-.44.85-.57,1.46-.07.3-.15.61-.22.92-.09.29-.16.71-.12.71-.05,0,.21.19.5.3.28.12.55.23.84.3.57.16,1.15.21,1.7.21.55-.01,1.07-.09,1.54-.22.45-.13.98-.34,1.01-.47.05-.08.06-.27.06-.46,0-.18-.03-.35-.06-.51-.06-.32-.16-.59-.25-.81-.19-.44-.35-.68-.29-.73.05-.05.31.1.64.52.16.21.34.5.47.86.07.18.12.39.16.61.03.21.08.47-.04.81-.13.36-.45.56-.68.68-.24.13-.49.24-.75.34-.54.19-1.13.32-1.77.36-.64.04-1.31,0-1.99-.18-.34-.08-.68-.2-1.02-.35-.17-.08-.33-.14-.52-.27-.18-.11-.43-.31-.55-.64-.11-.32-.06-.58-.04-.77.04-.18.08-.34.13-.51.09-.34.17-.67.26-.99.1-.33.15-.64.29-.96.13-.32.32-.67.62-.94.66-.55,1.39-.52,1.94-.48.58.05,1.1.21,1.54.41.89.41,1.44,1.02,1.71,1.48.27.47.28.78.22.8Z"/>
    <path class="cls-1" d="M42.03,74.01c-.22-.2.2-1.05.37-2.19.21-1.15.12-2.04.34-2.17.12-.08.4.13.56.58.17.44.25,1.08.13,1.77-.12.69-.41,1.28-.71,1.63-.31.35-.59.47-.7.38Z"/>
    <path class="cls-1" d="M28.13,74.03c.09-.28,3.45.59,7.48,1.89.98.3,1.98.55,2.77.59.81,0,1.57-.24,2.11-.55,1.12-.64,1.37-1.52,1.54-1.46.06.02.09.26-.05.65-.13.39-.45.96-1.07,1.42-.61.47-1.46.85-2.5.91-1.06.01-2.05-.24-3.1-.55-4.07-1.32-7.26-2.63-7.17-2.9Z"/>
    <path class="cls-1" d="M24.36,74.95c.12-.29,4.27,1.78,9.88,1.74.71.02,1.4,0,2.07.08.67.11,1.31.21,1.93.31,1.24.21,2.3.39,3.21.56,1.81.35,2.92.63,2.89.78-.03.14-1.18.12-3.03-.04-.92-.08-2.04-.19-3.22-.34-.59-.08-1.22-.16-1.86-.24-.65-.05-1.34-.03-2.03-.05-2.85,0-5.46-.62-7.19-1.3-1.76-.69-2.71-1.38-2.64-1.49Z"/>
    <path class="cls-1" d="M67.1,85.77s.16-.08.5-.1c.33-.01.86.06,1.41.4.54.33,1.18.94,1.35,1.89.18.94-.13,2-.65,3.01-.52,1.01-1.16,2.07-1.93,3.15-.4.53-.77,1.12-1.39,1.59-.63.46-1.43.6-2.18.65-3.05.24-6.38-.91-9.16-2.97-1.4-1.04-2.65-2.17-3.67-3.48-.51-.66-.88-1.45-1-2.27-.13-.81-.06-1.59,0-2.34.15-1.47.33-2.89-.27-4-.57-1.11-1.71-1.72-2.72-2.09-1.03-.35-2.05-.49-2.92-.67-.87-.16-1.63-.28-2.25-.37-.62-.09-1.1-.15-1.43-.19-.33-.04-.5-.05-.5-.07,0-.02.17-.04.51-.04.33,0,.82.03,1.45.09.63.06,1.39.15,2.27.28.88.15,1.89.26,2.99.6,1.06.36,2.3.98,2.99,2.24.71,1.27.51,2.82.38,4.26-.16,1.46-.11,3.01.92,4.24.97,1.23,2.22,2.36,3.57,3.36,2.71,2,5.9,3.1,8.81,2.91.72-.04,1.41-.16,1.93-.53.52-.37.91-.94,1.3-1.46.78-1.05,1.43-2.09,1.96-3.06.52-.97.82-1.94.69-2.79-.12-.84-.68-1.43-1.16-1.76-1.04-.68-1.82-.4-1.8-.48Z"/>
    <path class="cls-1" d="M50.74,84.54c-.13-.03-.21-.58-.02-1.5.11-.46.31-1.02.78-1.54.45-.5,1.12-.93,1.94-1.03.85-.11,1.57.25,2.07.49.52.25.99.49,1.38.71.77.43,1.22.77,1.16.9s-.61.04-1.46-.22c-.42-.13-.92-.3-1.47-.5-.55-.21-1.06-.41-1.57-.33-.52.06-1.01.33-1.37.66-.35.32-.59.74-.77,1.1-.34.75-.54,1.3-.69,1.26Z"/>
    <path class="cls-1" d="M17.5,85.97s.36.38,1.07.99c.7.6,1.82,1.4,3.38,1.97.78.29,1.66.49,2.63.66.97.18,2.05.36,3.09.89.51.26.99.56,1.5.73.51.18,1.06.17,1.65.1,1.2-.16,2.48-.24,3.76-.26,2.58-.03,5.02.1,7.23-.04,1.12-.04,2.17-.05,3.12-.21.95-.15,1.81-.46,2.49-.9,1.37-.9,2.1-2.1,2.55-2.9.45-.82.66-1.3.7-1.28.02,0-.02.13-.1.37-.09.23-.19.59-.41,1.01-.4.84-1.1,2.11-2.53,3.12-.72.5-1.63.85-2.62,1.02-1,.19-2.07.21-3.18.27-2.23.16-4.7.06-7.25.08-1.28.01-2.51.09-3.71.24-.61.07-1.27.08-1.87-.14-.59-.2-1.08-.53-1.56-.78-.95-.5-1.98-.69-2.95-.9-.97-.19-1.89-.42-2.68-.74-1.59-.64-2.71-1.5-3.38-2.17-.34-.33-.57-.62-.72-.82-.14-.2-.21-.32-.2-.33Z"/>
    <path class="cls-1" d="M14.21,88.44c.05-.13.7-.04,1.66.34.96.36,2.2,1.02,3.58,1.48.7.22,1.37.37,1.99.41.31.02.6.03.87.01.25-.01.58-.06.68-.08.05-.02.06,0,.12-.08.05-.07.12-.2.21-.3.18-.2.38-.29.54-.34.33-.08.51,0,.51.07,0,.08-.15.14-.33.3-.09.08-.19.19-.24.31-.03.08-.06.17-.09.26-.04.13-.18.34-.36.44-1.14.53-2.65.51-4.22,0-1.56-.51-2.74-1.3-3.59-1.81-.85-.53-1.38-.87-1.32-1.01Z"/>
    <path class="cls-1" d="M23.85,97.98c.07.03.08.18.05.44l-.39-.13c.01-.38.05-1.04.4-1.85.34-.87,1.31-1.51,1.75-2.18.31-.47.49-1.11.83-1.69.16-.28.39-.57.63-.77.24-.2.5-.34.75-.43.49-.18.96-.15,1.23-.03.28.12.37.27.33.33-.07.13-.59-.05-1.24.38-.33.21-.63.5-.83.97-.23.47-.37,1.12-.81,1.81-.35.52-.77.85-1.1,1.15-.34.3-.58.56-.77.86-.38.6-.58,1.2-.78,1.54l-.39-.13c.15-.21.27-.31.33-.29Z"/>
    <path class="cls-1" d="M30.69,82.53c.13-.02.39.55.42,1.58,0,.51-.07,1.15-.37,1.81-.3.67-.82,1.25-1.33,1.77-.51.53-.97.99-1.23,1.46-.26.47-.31.92-.2,1.25.25.71.93.85.89.99,0,.07-.17.15-.48.1-.3-.05-.77-.23-1.09-.78-.32-.53-.31-1.33,0-2,.31-.68.83-1.24,1.34-1.76,2.25-1.84,1.65-4.43,2.04-4.42Z"/>
    <path class="cls-1" d="M0,110.15c.07-.04.24.23.68.61.43.39,1.15.87,2.16,1.37,1,.53,2.33.99,3.72,2.04.68.52,1.35,1.4,1.53,2.44.09.48.15.87.35,1.14.2.3.54.56.94.8.82.46,1.85.9,2.84,1.39,1.01.48,2.05.99,3.14,1.51,2.16,1.04,4.47,2.15,6.9,3.32,1.21.55,2.45,1.04,3.75,1.28.62.11,1.4.22,1.82.13.38-.06.81-.49,1.32-1.04.97-1.04,1.87-2.18,2.65-3.42.78-1.22,1.43-2.7,2.61-3.98.6-.64,1.25-1.14,1.84-1.61.58-.47,1.12-.95,1.59-1.47.96-1.05,1.59-2.2,1.66-3.51.12-1.33-.17-2.81.16-4.42.16-.78.48-1.56.99-2.22.5-.67,1.23-1.17,1.99-1.43.76-.26,1.47-.33,2.12-.41.64-.07,1.24-.17,1.84-.32,1.18-.28,2.33-.69,3.3-1.23.97-.54,1.7-1.27,1.95-2.15.27-.89.09-1.86-.3-2.69-.4-.83-1-1.52-1.67-2.03-.68-.5-1.45-.87-2.18-1.17-1.47-.59-2.81-.93-3.92-1.14-2.22-.43-3.48-.24-3.5-.37-.03-.09,1.26-.5,3.59-.26,1.16.12,2.57.37,4.15.91.79.28,1.62.62,2.46,1.18.82.56,1.57,1.35,2.1,2.35.51.99.83,2.25.48,3.54-.33,1.31-1.37,2.34-2.48,2.98-1.12.66-2.34,1.11-3.64,1.45-1.29.37-2.76.38-3.8.75-1.03.35-1.72,1.33-1.96,2.55-.25,1.19.02,2.62-.09,4.23-.05.8-.27,1.68-.64,2.43-.37.76-.86,1.43-1.41,2.04-1.07,1.24-2.51,2.11-3.44,3.1-.96,1.02-1.59,2.4-2.44,3.74-.84,1.33-1.81,2.55-2.86,3.65-.27.27-.51.54-.85.83-.34.28-.79.56-1.3.66-.5.1-.94.06-1.31.02-.38-.04-.76-.1-1.13-.17-1.49-.3-2.83-.86-4.08-1.45-2.46-1.2-4.72-2.38-6.87-3.47-1.07-.55-2.1-1.08-3.1-1.59-1-.53-1.93-.96-2.88-1.53-.46-.3-.93-.66-1.26-1.19-.35-.55-.38-1.15-.45-1.56-.11-.8-.52-1.41-1.09-1.92-1.16-.98-2.47-1.56-3.45-2.18-1-.6-1.71-1.2-2.09-1.7-.39-.49-.48-.82-.44-.84Z"/>
    <path class="cls-1" d="M2.31,115.29c.05-.28,1.62-.21,3.33.64,1.72.83,2.72,2.06,2.52,2.27-.2.22-1.41-.56-2.99-1.32-1.57-.78-2.93-1.29-2.86-1.59Z"/>
    <path class="cls-1" d="M48.72,90.15c-.03-.06.17-.27.66-.41.48-.13,1.26-.17,2.12.21.86.39,1.67,1.15,2.21,2.28.13.3.23.67.18,1.08-.05.4-.25.8-.6,1.08-.34.29-.79.4-1.2.39-.41-.02-.77-.14-1.09-.27-.66-.29-1.12-.57-1.68-.78-.55-.23-1.13-.46-1.65-.88-.5-.43-.9-1.03-.83-1.76.1-.76.73-1.14,1.17-1.27.46-.15.86-.17,1.21-.17.34,0,.65,0,.9.07.25.06.45.18.54.3.09.13.08.21.05.23-.07.03-.21-.15-.64-.12-.4.03-1.13.12-1.79.39-.33.14-.57.39-.56.65-.02.27.21.66.56.91.36.26.87.46,1.43.68.57.2,1.19.55,1.7.77.53.24.98.26,1.24.05.27-.21.33-.58.17-1-.37-.88-1.02-1.62-1.65-1.98-.64-.38-1.29-.47-1.72-.47-.44,0-.69.07-.72,0Z"/>
    <path class="cls-1" d="M48.68,102.53c-.08-.09.44-.9,1.72-1.89.64-.47,1.56-.96,2.7-1.04.59-.03,1.03.03,1.41-.14.4-.15.78-.48,1.18-.89.39-.4.87-.85,1.37-1.18.5-.33,1.02-.57,1.52-.76,1.02-.37,1.99-.48,2.79-.47,1.62.03,2.52.54,2.48.65-.04.16-.98-.06-2.44.1-1.45.17-3.47.71-4.97,2.41-.42.42-.92.87-1.56,1.11-.66.25-1.32.13-1.74.14-.9,0-1.7.34-2.34.69-1.27.74-2.01,1.39-2.12,1.26Z"/>
    <path class="cls-1" d="M39.76,113.99s-.04-.22,0-.62c.05-.39.13-.97.43-1.63.29-.68.92-1.35,1.7-1.87.78-.54,1.71-.98,2.58-1.53.86-.55,1.63-1.22,1.93-2,.15-.39.16-.76.11-1.18-.05-.4-.04-.87.14-1.22.34-.71.92-1.01,1.29-1.14.39-.13.62-.11.62-.08,0,.04-.21.09-.54.27-.32.17-.79.51-1.02,1.1-.12.29-.11.61-.05,1.02.07.39.09.93-.09,1.4-.36.97-1.21,1.7-2.11,2.29-.93.58-1.84,1-2.59,1.49-.76.48-1.33,1.04-1.64,1.63-.32.59-.45,1.13-.57,1.5-.11.37-.18.58-.21.57Z"/>
    <path class="cls-1" d="M33.2,122.19s-.22.17-.63.49c-.4.31-1,.8-1.5,1.62-.5.8-.92,1.97-.68,3.28.13.64.37,1.35.96,1.65.6.32,1.45.32,2.34.4,1.77.14,3.71.3,5.79.46,1.04.09,2.12.17,3.22.27,1.1.08,2.27.23,3.38.24,1.11.02,2.16-.3,3.02-1.03.87-.71,1.47-1.73,1.93-2.89.45-1.15.89-2.43,1.49-3.63.59-1.21,1.25-2.39,1.97-3.55.71-1.16,1.46-2.28,2.19-3.38.73-1.09,1.47-2.25,2.53-3.13,2.13-1.76,4.65-2.35,6.84-3.1,1.11-.36,2.17-.73,3.14-1.2.92-.5,1.99-.99,2.16-1.76.21-.92.37-1.99.54-2.92.09-.48.17-.92.15-1.32-.01-.2-.05-.41-.1-.48-.06-.11-.2-.23-.37-.34-.32-.21-.82-.49-1.08-.91-.26-.35-.49-.7-.71-1.02-.44-.66-.87-1.26-1.35-1.71-.96-.98-2.17-1.02-3.17-1.09-.99-.08-1.77-.18-2.28-.32-.52-.14-.76-.3-.74-.32.02-.04.27.05.79.11.51.07,1.27.1,2.26.11.5.02,1.05,0,1.69.12.64.12,1.29.45,1.85.94.56.49,1.04,1.12,1.51,1.77.24.33.47.66.73.98.21.31.51.45.92.72.2.13.43.28.61.56.19.32.2.58.23.84.04.53-.05,1.03-.12,1.5-.16.98-.27,1.91-.5,3.03-.08.29-.22.61-.43.86-.21.25-.44.45-.68.62-.47.32-.96.61-1.47.88-1.03.52-2.13.92-3.24,1.29-2.21.77-4.64,1.4-6.47,2.96-.91.76-1.6,1.82-2.33,2.93-.73,1.1-1.46,2.21-2.16,3.35-.7,1.14-1.36,2.29-1.92,3.46-.58,1.17-.99,2.34-1.48,3.57-.48,1.21-1.19,2.43-2.24,3.27-1.02.87-2.43,1.27-3.66,1.22-1.24-.03-2.35-.19-3.46-.29-1.11-.11-2.18-.22-3.22-.32-2.08-.21-4.01-.41-5.78-.59-.86-.11-1.77-.1-2.6-.56-.41-.23-.72-.62-.89-1-.17-.38-.27-.76-.32-1.13-.21-1.51.33-2.78.92-3.6.6-.85,1.27-1.31,1.72-1.57.46-.27.74-.33.75-.31Z"/>
    <path class="cls-1" d="M25.32,135.8c-.13-.07.05-.63.43-1.47.19-.42.44-.91.72-1.45.27-.54.67-1.13.85-1.66.18-.51.12-1.13.03-1.68-.09-.54-.26-1-.46-1.33-.41-.68-.98-.84-.94-1,.01-.06.17-.13.46-.08.29.04.7.22,1.07.61.37.38.66.94.83,1.59.15.63.29,1.38.02,2.22-.29.8-.7,1.29-1.01,1.82-.33.51-.64.96-.92,1.33-.55.74-.95,1.16-1.08,1.09Z"/>
    <path class="cls-1" d="M32.44,129.87c.03.14-.31.34-.88.41-.55.09-1.33.02-1.83.25-.43.17-.88.95-1.27,1.29-.38.39-.68.58-.8.5-.12-.08-.04-.43.19-.93.11-.25.26-.53.44-.84.17-.29.48-.76,1-.99.5-.23.98-.22,1.35-.19.38.03.69.1.95.15.51.12.82.19.85.34Z"/>
    <path class="cls-1" d="M68.55,93.05s.04-.22.23-.57c.18-.36.47-.88.96-1.48.48-.61,1.21-1.26,2.16-1.82.93-.54,2.06-1.16,3.45-1.43,1.37-.28,2.93-.3,4.54,0,1.61.31,3.26.95,4.85,1.85.8.46,1.58.94,2.35,1.55.76.61,1.49,1.37,1.97,2.34.5.96.6,2.17.35,3.23-.24,1.07-.74,2.04-1.29,2.94-.57.9-1.16,1.72-1.8,2.53-.65.81-1.4,1.56-2.29,2.12-.89.55-1.89.89-2.92.97-1.03.09-2.09-.22-2.89-.68-.82-.45-1.51-.93-2.24-1.19-.72-.26-1.54-.33-2.35-.52-.82-.18-1.61-.56-2.22-1.05-.62-.49-1.1-1.07-1.5-1.64-.77-1.15-1.41-2.17-1.84-3.23-.41-1.08-.35-2.09-.16-2.85.2-.77.54-1.28.79-1.61.25-.32.42-.46.44-.44.1.06-.53.7-.82,2.13-.11.7-.1,1.62.31,2.55.41.92,1.12,1.95,1.89,3.01.78,1.04,1.85,2.01,3.31,2.28.74.16,1.58.21,2.46.5.88.3,1.64.82,2.39,1.2.75.4,1.52.61,2.37.54.84-.07,1.69-.36,2.44-.84,1.51-.95,2.64-2.68,3.75-4.34.52-.85.97-1.72,1.16-2.61.2-.89.13-1.77-.26-2.54-.77-1.59-2.39-2.6-3.88-3.5-2.99-1.8-6.2-2.44-8.77-1.97-1.28.2-2.36.73-3.3,1.21-.93.48-1.63,1.04-2.14,1.57-1,1.09-1.41,1.84-1.49,1.78Z"/>
    <path class="cls-1" d="M52.16,124.62c.07.03-.02.36-.11.97-.05.31-.09.68-.1,1.13,0,.41-.03,1.08.21,1.23.11.1.51.19.89.29.38.1.79.21,1.21.33.85.24,1.78.49,2.78.77,2,.58,4.28,1.23,6.79,1.96,1.26.36,2.55.81,3.83.92,1.27.12,2.52-.22,3.55-1.08,2.17-1.7,2.84-4.91,4.33-8,.53-1.1,1.2-2.17,2.06-3.09.83-.93,1.98-1.62,2.94-2.07.48-.26,1.03-.5,1.41-.76.41-.27.79-.57,1.12-.91.67-.68,1.18-1.48,1.44-2.33.55-1.7.06-3.54-.93-4.81-.95-1.27-2.52-2.01-3.77-1.83-.63.07-1.11.43-1.72.86-.61.45-1.4.69-2.05.74-1.33.09-2.36-.15-3.21-.21-1.69-.22-2.53.23-2.6.12-.02-.03.15-.23.59-.42.44-.19,1.15-.33,2.03-.34.88-.03,1.95.11,3.07-.06.56-.1,1.06-.28,1.56-.68.26-.2.54-.44.89-.67.35-.23.79-.4,1.24-.49.91-.18,1.85,0,2.71.37.86.37,1.68.97,2.31,1.76,1.27,1.52,1.98,3.84,1.31,6.09-.32,1.11-.95,2.13-1.76,2.98-.41.43-.87.81-1.37,1.14-.52.35-.98.55-1.48.82-1.03.51-1.85,1.02-2.56,1.81-.7.76-1.29,1.68-1.78,2.7-.7,1.42-1.23,2.96-1.89,4.46-.66,1.51-1.58,2.99-2.92,4.05-1.31,1.09-3.13,1.54-4.67,1.34-1.56-.18-2.86-.69-4.1-1.08-2.48-.82-4.74-1.57-6.71-2.23-.98-.34-1.89-.65-2.73-.93-.42-.15-.81-.28-1.19-.42-.36-.15-.74-.18-1.17-.57-.15-.16-.24-.35-.29-.55-.04-.18-.04-.34-.04-.49,0-.28.03-.54.07-.77.07-.48.18-.87.29-1.18.22-.62.43-.9.49-.87Z"/>
    <path class="cls-1" d="M97.37,103.3s.47.3.96,1.14c.23.42.48.99.56,1.7.08.71-.05,1.57-.5,2.37-.85,1.6-2.66,2.93-4.85,3.64-1.1.35-2.29.59-3.59.55-1.27-.03-2.75-.49-3.69-1.62-.95-1.1-1.3-2.53-1.25-3.83.05-1.3.44-2.51,1.02-3.53.29-.51.63-.98.99-1.39.36-.41.76-.81,1.28-1.09.52-.27,1.05-.35,1.48-.44.45-.09.88-.17,1.29-.25,1.66-.34,3.18-.28,4.06.24.88.49,1.11,1.03,1.08,1.04-.07.07-.42-.35-1.24-.67-.82-.34-2.14-.3-3.74.12-.41.1-.83.21-1.27.32-.46.11-.88.2-1.23.41-.68.42-1.35,1.3-1.84,2.18-.49.91-.82,1.98-.84,3.09-.03,1.09.28,2.26,1.01,3.1.72.86,1.83,1.23,2.94,1.28,1.12.05,2.24-.15,3.25-.45,2.03-.6,3.68-1.74,4.49-3.08.85-1.33.55-2.71.22-3.52-.35-.84-.66-1.27-.59-1.32Z"/>
    <path class="cls-1" d="M90.63,125.95c-.14.02-.41-.98-.71-2.62-.15-.8-.32-1.89-.1-3.04.18-1.12.57-2.26.32-3.31-.12-.53-.38-.98-.74-1.27-.36-.3-.84-.47-1.34-.57-.51-.11-.99-.17-1.43-.16-.22,0-.42.03-.61.07-.11.03-.17.04-.22.07-.07.03-.14.08-.21.13-.58.47-1.03,1.02-1.39,1.32-.35.32-.61.44-.65.39-.05-.06.1-.27.34-.65.27-.38.57-.96,1.21-1.62.09-.08.18-.16.3-.24.13-.08.28-.14.39-.18.25-.08.51-.14.78-.17.54-.06,1.1-.02,1.67.07.57.1,1.23.27,1.81.73.58.45.96,1.13,1.12,1.84.17.71.11,1.43,0,2.04-.11.62-.27,1.17-.38,1.69-.24,1.01-.17,1.93-.12,2.76.12,1.66.12,2.69-.03,2.71Z"/>
    <path class="cls-1" d="M93.34,127.22c-.12,0-.38-.72-.63-1.96-.12-.62-.25-1.36-.31-2.21-.03-.41-.03-.92.02-1.36.05-.45.09-.91.14-1.38.1-.93.16-1.8.1-2.58-.02-.36-.08-.84-.13-.88-.02-.08-.25-.13-.46-.05-.43.12-.59.58-.79.9-.18.32-.37.46-.43.42-.06-.04-.01-.22.04-.56.03-.17.06-.38.16-.65.08-.26.34-.61.69-.78.18-.09.39-.17.64-.18.25-.01.57.08.79.32.23.24.29.53.33.73.05.2.08.41.11.63.12.87.08,1.82-.02,2.78-.06.47-.11.94-.16,1.38-.06.45-.08.81-.07,1.22,0,.8.05,1.53.07,2.15.06,1.24.06,2.04-.11,2.05Z"/>
    <path class="cls-1" d="M112.28,146.43c-.11.06-.52-.55-1.4-1.51-.88-.95-2.26-2.24-4.26-3.35-1.01-.55-2.14-1.06-3.44-1.45-.34-.11-.7-.22-1.09-.42-.38-.18-.82-.53-1.08-.93-.27-.4-.43-.78-.58-1.13-.15-.37-.32-.73-.44-1.12-1.1-3.07-1.44-6.74-.86-10.42.28-1.84.73-3.6,1.31-5.25.58-1.66,1.34-3.12,1.29-4.41-.01-.64-.23-1.19-.6-1.75-.36-.54-.84-1.11-1.27-1.51-.84-.82-2-.87-3-.56-2.11.62-2.8,2.53-3.08,3.74-.29,1.26-.39,2-.52,1.99-.1,0-.21-.74-.11-2.1.07-.68.21-1.54.69-2.45.47-.93,1.4-1.81,2.63-2.28.62-.24,1.33-.37,2.09-.31.76.06,1.57.41,2.17.93.61.53,1.08,1.05,1.57,1.72.48.65.89,1.55.92,2.49.07,1.9-.8,3.45-1.28,5-.53,1.57-.95,3.24-1.21,4.97-.54,3.46-.27,6.84.67,9.69.1.36.25.7.38,1.05.13.35.26.67.4.89.24.41.77.64,1.42.87,1.35.47,2.57,1.09,3.6,1.74,2.07,1.32,3.4,2.83,4.17,3.95.76,1.13.99,1.85.9,1.9Z"/>
    <path class="cls-1" d="M106.59,111.11c.04-.06.29,0,.73.18.22.09.49.21.8.43.3.21.64.6.72,1.14.09.53-.07,1.13-.49,1.6-.39.49-1.18.76-1.83.63-1.17-.22-2.29-.49-3.56-.78-.61-.14-1.31-.3-1.91-.73-.59-.42-.96-.97-1.26-1.45-.29-.48-.61-.99-.68-1.62-.03-.32.02-.65.17-.93.13-.28.46-.53.7-.6.47-.15.87-.19,1.27-.14.43.07.69.3.87.45.33.33.53.45.51.53-.01.07-.33.05-.75-.19-.2-.1-.44-.21-.68-.2-.26.01-.63.1-.94.24-.24.1-.34.37-.28.72.06.35.32.76.63,1.21.3.44.63.86,1.03,1.13.39.27.94.4,1.56.55,1.23.3,2.39.59,3.46.85.84.22,1.47-.56,1.43-1.18-.02-.63-.63-1.02-.98-1.3-.37-.28-.57-.48-.53-.54Z"/>
    <path class="cls-1" d="M121.65,138.57c-.02.06-.58-.11-1.27-.8-.69-.68-1.54-1.8-2.36-3.31-.43-.75-.75-1.67-1.15-2.53-.38-.86-1.02-1.65-1.66-2.62-.65-.96-1.12-2.19-1.3-3.44-.2-1.26-.18-2.55-.17-3.83-.01-1.27.05-2.54-.3-3.55-.17-.51-.44-.93-.82-1.2-.37-.29-.83-.37-1.42-.51-.61-.13-1.18-.49-1.59-.76-.42-.26-.83-.44-1.28-.55-.88-.22-1.77-.18-2.51.03-.72.2-1.32.67-1.82,1.08-.5.42-.89.82-1.19,1.17-.61.7-.76,1.18-.84,1.17-.07,0-.04-.6.51-1.41.26-.41.63-.88,1.12-1.37.5-.47,1.09-1.03,1.99-1.35.86-.3,1.88-.39,2.94-.17.52.11,1.07.32,1.56.61.49.29.85.51,1.35.61.49.11,1.2.21,1.78.64.59.41.98,1.04,1.2,1.68.23.64.32,1.32.34,1.96.03.64.04,1.29.03,1.94-.01,1.29-.02,2.52.14,3.67.16,1.15.53,2.17,1.1,3.07.56.91,1.24,1.8,1.63,2.78.4.96.65,1.81,1.02,2.55.7,1.5,1.43,2.64,2,3.37.56.74,1,1,.96,1.08Z"/>
    <path class="cls-1" d="M114.56,107.07c.15.05-.04.74-.2,1.75-.06.51-.08,1.09.14,1.66.14.33.28.68.43,1.04.16.4.25.92.21,1.4-.09.97-.46,1.71-.64,2.35-.21.64-.22,1.17-.17,1.71.13,1.07.03,1.83-.13,1.81-.13-.02-.28-.61-.61-1.69-.16-.53-.23-1.33-.03-2.08.16-.75.47-1.49.53-2.19.09-.67-.27-1.27-.51-2.06-.24-.81-.12-1.58.05-2.12.38-1.1.81-1.63.93-1.59Z"/>
    <path class="cls-1" d="M107.75,183.84s-.28-.16-.78-.51c-.5-.34-1.24-.85-2.19-1.5-.96-.64-2.15-1.39-3.61-2.12-1.45-.74-3.17-1.45-5.09-2.22-1.88-.79-4.12-1.45-6.07-3.03-.96-.8-1.74-1.79-2.73-2.57-.49-.39-1.03-.7-1.64-.94-.6-.26-1.28-.49-1.84-1-.29-.26-.47-.58-.67-.84-.19-.27-.41-.47-.68-.65-.55-.35-1.21-.57-1.89-.79-1.36-.45-2.74-.87-4.16-1.36-.36-.14-.72-.3-1.06-.55-.34-.25-.61-.63-.74-1.03-.23-.82-.18-1.56-.24-2.34-.05-1.53.01-3.19.74-4.69.72-1.54,2.13-2.45,3.14-3.52.51-.53.95-1.13,1.06-1.8.13-.67-.11-1.34-.51-1.92-.8-1.17-2.07-1.92-3.2-2.83-.56-.46-1.11-.96-1.52-1.58-.4-.62-.65-1.35-.68-2.06-.09-1.45.41-2.76.86-3.97.48-1.2.94-2.36,1.34-3.5.82-2.28,1.48-4.43,2.01-6.42,1.11-3.95,1.43-7.33,2.47-9.46.49-1.06,1.07-1.78,1.54-2.18.46-.41.76-.53.76-.53.07.05-1.21.66-2.11,2.8-.95,2.09-1.22,5.47-2.29,9.47-.51,2-1.15,4.18-1.96,6.47-.4,1.15-.85,2.33-1.32,3.52-.45,1.19-.9,2.46-.81,3.76.03.65.25,1.27.61,1.82.36.55.87,1.02,1.42,1.46,1.08.88,2.41,1.64,3.31,2.94.44.63.76,1.47.6,2.31-.14.84-.66,1.52-1.2,2.08-1.08,1.13-2.41,2-3.04,3.38-.66,1.36-.74,2.92-.69,4.43.05.75.02,1.56.21,2.19.18.64.8,1,1.47,1.25,1.4.46,2.78.92,4.14,1.37.68.22,1.38.44,2.01.85.31.2.61.48.81.78.21.3.38.57.6.77.45.42,1.08.65,1.69.91.62.25,1.24.6,1.75,1.01,1.04.83,1.82,1.84,2.72,2.6,1.83,1.52,4.03,2.21,5.92,3.02,1.91.79,3.62,1.53,5.08,2.3,1.46.76,2.64,1.55,3.59,2.21.94.67,1.65,1.21,2.14,1.58.48.37.72.58.71.59Z"/>
    <path class="cls-1" d="M47.86,130.81s.17-.08.52-.04c.34.05.87.26,1.25.82.42.57.37,1.5.04,2.36-.33.86-.74,1.8-1.18,2.86-.9,2.11-1.96,4.62-3.14,7.4-.3.7-.6,1.41-.92,2.14-.31.73-.68,1.46-.58,2.17.1.69.78,1.27,1.51,1.14.37-.05.76-.21,1.15-.38.39-.15.77-.36,1.14-.56,2.98-1.7,5.22-4.32,8.01-5.71,1.34-.76,2.93-.92,3.71-1.89.38-.48.49-1.11.59-1.72.1-.62.2-1.21.3-1.77.19-1.13.37-2.15.52-3.05.19-.89.2-1.65.05-2.26-.3-1.23-.98-1.65-.92-1.69,0,0,.17.08.4.33.23.25.54.68.72,1.31.19.63.21,1.47.05,2.36-.13.9-.28,1.93-.44,3.06-.08.57-.17,1.16-.26,1.78-.09.61-.19,1.32-.65,1.93-.46.6-1.16.93-1.83,1.19-.68.26-1.35.51-2.01.86-2.67,1.34-4.88,3.96-7.98,5.74-.39.21-.78.42-1.19.58-.4.17-.81.35-1.29.42-.48.07-1.02-.06-1.39-.37-.38-.31-.64-.74-.71-1.22-.12-.96.34-1.75.63-2.46.32-.73.63-1.44.93-2.13,1.22-2.77,2.33-5.26,3.25-7.36.46-1.04.88-1.99,1.25-2.82.35-.82.41-1.62.07-2.13-.32-.52-.79-.75-1.1-.83-.32-.07-.5-.04-.5-.07Z"/>
    <path class="cls-1" d="M51.42,127.6c.11-.07.48.23.59.95.12.7-.17,1.67-.63,2.49-.46.82-.82,1.48-1.08,2.02-.26.53-.43.87-.58.85-.14-.02-.22-.43-.13-1.06.07-.63.41-1.51.86-2.3.44-.8.73-1.46.82-1.98.1-.52.02-.88.16-.95Z"/>
    <path class="cls-1" d="M37.03,148.65c.02-.07.18-.09.47-.07.28.02.73.06,1.21.34.48.26.95.68,1.42,1.08.47.41.97.7,1.6.81.3.05.58.03.79-.05.24-.12.27-.12.36-.39.14-.5.16-1.12.23-1.6.06-.5.17-.92.31-1.19.14-.28.3-.38.36-.34.11.09-.02.59.08,1.56.02.49.11,1.05-.03,1.83-.04.19-.12.42-.29.64-.2.25-.38.34-.61.45-.45.19-.93.21-1.36.14-.87-.13-1.62-.65-2.08-1.14-.48-.48-.84-.89-1.18-1.18-.33-.3-.68-.43-.92-.57-.23-.14-.36-.25-.34-.32Z"/>
    <path class="cls-1" d="M62.29,178.1c-.09-.07.24-.65.92-1.65.34-.5.76-1.1,1.26-1.79.53-.69,1.01-1.46,1.8-2.35.38-.45,1.05-.83,1.44-1.08.38-.26.49-.51.53-1.05.02-.51-.05-1.22-.08-1.87-.02-.31-.03-.73-.06-.95-.02-.11-.04-.16-.06-.17,0,0-.03-.03-.13-.08-.19-.09-.59-.21-.91-.31-.35-.11-.69-.22-1.05-.33-.71-.22-1.45-.46-2.2-.75-1.48-.59-3.09-1.41-4.25-2.92-.28-.38-.53-.8-.7-1.26-.18-.46-.26-.96-.3-1.37-.07-.86-.13-1.4-.45-1.96-.62-1.12-1.78-1.92-2.98-2.39-1.22-.47-2.5-.68-3.71-.77-.61-.04-1.26-.06-1.91-.2-.66-.15-1.22-.43-1.7-.69-.96-.54-1.71-.94-2.48-.99-.4-.04-.84-.04-1.26-.17-.21-.06-.44-.19-.57-.3-.13-.1-.24-.18-.36-.25-.98-.53-1.68-.69-1.64-.83.02-.08.69-.16,1.92.26.15.06.32.15.46.23.14.08.23.11.37.14.29.05.65.02,1.1.02.97-.04,2.02.42,2.95.86.48.21.95.41,1.44.49.5.08,1.07.07,1.72.09,1.3.04,2.73.2,4.17.71,1.43.52,2.93,1.43,3.85,3.02.22.4.4.84.5,1.31.1.46.12.88.17,1.26.06.73.27,1.25.69,1.83.85,1.11,2.18,1.86,3.54,2.41.68.28,1.39.52,2.09.76.35.12.7.24,1.05.35.36.13.65.21,1.11.42.22.11.49.3.68.59.19.28.25.57.28.81.04.47.02.74.04,1.09,0,.69.05,1.28,0,2.03-.04.37-.12.78-.34,1.15-.21.38-.56.68-.85.85-.61.35-.96.49-1.31.84-.69.67-1.33,1.49-1.9,2.1-.57.64-1.06,1.18-1.48,1.61-.83.87-1.33,1.32-1.42,1.25Z"/>
    <path class="cls-1" d="M43.93,149.5c.02-.13.37-.25.9-.05.26.1.56.29.81.6.12.16.24.35.31.57.04.17.09.34.13.51.18.62.42,1.13.64,1.41.21.29.48.39.48.55.03.13-.37.34-.93.05-.55-.29-.99-.95-1.21-1.71-.12-.47-.1-.6-.23-.82-.11-.2-.26-.37-.4-.51-.28-.28-.55-.44-.52-.59Z"/>
    <path class="cls-1" d="M73.74,141.86c.06.01.08.32-.03.85-.13.52-.35,1.32-1.11,2.07-.2.18-.44.35-.74.47-.28.13-.75.12-1.03.04-.64-.16-1.19-.54-1.69-.9-.5-.36-1.04-.76-1.56-1.26-.51-.5-1.02-1.13-1.27-1.93-.24-.8-.21-1.57-.17-2.25.05-.68.11-1.3.06-1.85-.06-1.09-.72-1.95-1.27-2.69-.56-.73-1.03-1.36-1.27-1.85-.25-.49-.29-.79-.23-.82.07-.03.24.2.57.59.33.39.85.91,1.5,1.6.32.35.68.75,1,1.24.32.49.59,1.14.66,1.82.18,1.35-.21,2.73.15,3.9.36,1.14,1.47,1.97,2.41,2.73.48.38.91.7,1.34.84.24.08.33.08.53.03.18-.05.36-.15.52-.26.64-.5.98-1.19,1.21-1.64.23-.46.34-.73.42-.71Z"/>
    <path class="cls-1" d="M74.49,163.18c-.1-.02.05-.59-.13-1.58-.16-.97-.78-2.37-2.18-3.46-.7-.54-1.55-.96-2.58-1.22-.52-.14-1.08-.27-1.67-.48-.59-.22-1.2-.53-1.69-1.11-.24-.28-.44-.67-.49-1.09-.05-.42.03-.81.13-1.15.21-.67.48-1.27.75-1.88.53-1.21,1.02-2.47.83-3.7-.09-.61-.35-1.14-.76-1.58-.42-.44-.96-.8-1.52-1.16-1.09-.72-2.24-1.34-3.26-2.12-.51-.39-.99-.83-1.36-1.37-.38-.53-.62-1.22-.57-1.86.05-1.09.12-2.16.42-3.11.15-.47.36-.92.64-1.29.28-.37.64-.65,1-.85.35-.18.76-.28,1.03-.35.28-.07.49-.19.58-.34.18-.32-.04-.75-.13-.97-.12-.24-.18-.37-.15-.4.03-.02.15.07.33.28.09.11.2.25.29.46.09.19.17.49.04.81-.14.33-.47.52-.79.64-.34.11-.59.2-.89.38-.56.35-1,.99-1.21,1.84-.22.84-.25,1.83-.26,2.92-.04.91.71,1.74,1.65,2.43.94.7,2.09,1.29,3.24,2.03.56.36,1.17.75,1.72,1.31.55.56.94,1.35,1.04,2.14.23,1.62-.4,3.07-.93,4.27-.27.61-.55,1.21-.73,1.77-.18.56-.16.95.15,1.32.64.78,1.8,1.05,2.85,1.36,1.08.3,2.08.84,2.82,1.48,1.5,1.3,2.07,2.92,2.11,3.99.06,1.09-.24,1.65-.28,1.63Z"/>
    <path class="cls-1" d="M75.98,156.84c.14,0,.28.37-.03.83-.29.44-.93.81-1.69.82-.73.01-1.31-.24-1.67-.45-.37-.22-.55-.44-.5-.57.1-.31,1.14-.03,2.15-.03.48,0,.91-.15,1.18-.29.27-.13.41-.32.57-.31Z"/>
    <path class="cls-1" d="M76.04,147.72c-.1.11-.48-.05-1.05-.37-.56-.29-1.34-.82-2.14-1.14-.93-.34-1.78-.71-2.36-1.07-.59-.35-.88-.73-.79-.84.09-.11.46,0,1.09.16.62.17,1.48.42,2.43.77,1.07.44,1.72,1.06,2.22,1.53.48.48.7.85.6.96Z"/>
    <path class="cls-1" d="M57.59,156.5c.06-.06.3.22.81.34.51.14,1.3-.06,1.9-.84.58-.73.96-2,1.5-3.29.49-1.32,1.02-2.72,1.17-4.32.11-.79.23-1.56.31-2.33.05-.38.09-.76.14-1.13.04-.35.11-.78.12-1.01,0-.12-.02-.16-.05-.2-.03-.05-.13-.12-.25-.19-.29-.14-.58-.28-.85-.41-.56-.26-1.07-.47-1.56-.58-.97-.24-1.79-.1-2.34.06-.55.17-.86.31-.9.24-.03-.05.19-.31.74-.62.54-.3,1.48-.6,2.63-.42.57.08,1.17.27,1.76.51.31.13.57.23.93.39.18.09.38.2.57.42.19.23.27.54.28.77,0,.47-.06.76-.08,1.15-.04.37-.07.75-.11,1.13-.06.76-.18,1.57-.3,2.4-.15,1.66-.76,3.21-1.31,4.51-.28.66-.56,1.27-.83,1.84-.27.58-.59,1.14-1,1.57-.41.43-.89.73-1.37.84-.48.11-.92.04-1.22-.11-.62-.31-.72-.71-.68-.73Z"/>
    <path class="cls-1" d="M66.82,145.76c-.05.06-.29-.08-.72-.22-.43-.14-1.07-.16-1.51.45-.5.6-.68,1.53-.85,2.68-.19,1.16-.49,2.41-.85,3.71-.37,1.3-.73,2.49-1.11,3.62-.4,1.17-1.06,2.04-1.46,2.77-.42.73-.62,1.35-.62,1.8,0,.44.09.71.02.75-.05.03-.29-.17-.43-.7-.15-.53-.01-1.34.35-2.17.35-.85.9-1.71,1.21-2.76.31-1.11.66-2.32,1.02-3.59.36-1.28.67-2.49.91-3.61.21-1.1.52-2.29,1.25-3,.35-.37.83-.6,1.26-.6.43-.01.75.13.98.27.45.29.59.55.55.59Z"/>
    <path class="cls-1" d="M66.97,165.97c.04-.14.55-.12,1.33.03.2.04.41.09.63.14.28.06.22.05.47-.02.19-.06.46-.18.56-.26.24-.2.59-.38.92-.48.67-.2,1.23-.21,1.68-.33.45-.09.79-.26,1.07-.46.55-.4.73-.85.88-.82.13,0,.23.63-.36,1.36-.28.35-.77.68-1.32.85-.55.19-1.15.25-1.62.4-.24.08-.42.16-.63.31-.37.23-.62.29-.93.37-.15.03-.3.06-.53.04-.21-.03-.34-.09-.44-.13-.21-.09-.41-.18-.59-.26-.72-.33-1.14-.61-1.1-.74Z"/>
    <path class="cls-1" d="M87.45,182.15c-.18.24-4.21-2.56-9.43-5.57-1.31-.75-2.56-1.45-3.71-2.08-1.14-.62-2.22-1.17-3.04-1.8-.83-.61-1.4-1.3-1.62-1.86-.22-.56-.16-.9-.1-.91.08-.01.17.29.47.71.29.43.85.95,1.67,1.44.81.5,1.89.96,3.08,1.55,1.18.59,2.47,1.27,3.79,2.03,5.3,3.04,9.08,6.26,8.91,6.48Z"/>
    <path class="cls-1" d="M71,171.99c-.09.12-.37.08-.76.11-.4.02-.96.14-1.59.32-1.27.36-2.21.88-2.41.68-.23-.2.62-1.27,2.11-1.69.74-.21,1.48-.23,2-.04.53.18.73.52.64.62Z"/>
    <path class="cls-1" d="M70.28,171.63c-.08.12-.57-.1-.96-.74-.2-.32-.39-.7-.51-1.22-.07-.24-.06-.67.08-.98.14-.32.35-.57.56-.77.43-.4.82-.66,1.1-.93.29-.26.37-.45.54-.85.16-.38.51-.65.75-.68.25-.05.38.05.37.12-.01.14-.37.27-.42.8-.03.14-.04.34-.13.58-.09.25-.24.48-.4.68-.34.4-.76.71-1.09,1.03-.16.16-.29.31-.35.43-.06.14-.09.2-.07.4.04.37.14.76.23,1.06.17.62.37.94.28,1.06Z"/>
    <path class="cls-1" d="M85.26,170.66s-.56-.11-1.37-.75c-.19-.17-.42-.38-.56-.73-.08-.16-.08-.43-.05-.6.03-.16.06-.33.09-.51.16-.7.3-1.48.8-2.36,1.93-2.96,4.64-6.99,7.7-11.4,1.54-2.2,3.01-4.3,4.34-6.2,1.34-1.9,2.61-3.58,3.45-5.08.87-1.49,1.28-2.83,1.39-3.77.11-.95.02-1.49.11-1.51.05-.02.29.51.3,1.53.02,1.02-.32,2.5-1.14,4.1-.81,1.62-2.01,3.34-3.31,5.27-1.31,1.92-2.76,4.04-4.27,6.26-3.06,4.42-5.88,8.39-7.95,11.23-.42.63-.65,1.43-.85,2.07-.05.17-.09.33-.13.48-.04.15-.05.2-.01.33.06.22.22.43.37.6.66.67,1.14.98,1.09,1.05Z"/>
    <path class="cls-1" d="M80.08,167.24c.09-.29,1.03-.2,2.04-.44,1.02-.21,1.77-.73,1.99-.54.1.09.04.38-.26.72-.29.34-.83.7-1.5.85-1.38.31-2.39-.34-2.28-.59Z"/>
    <path class="cls-1" d="M101.98,179.93c.06-.07.48.41,1.49.63.49.1,1.14.12,1.76-.16.61-.29,1.25-.89,1.97-1.53.36-.32.76-.67,1.24-.97.48-.31,1-.53,1.47-.79.47-.25.91-.56,1.09-.95.19-.4.18-.96.08-1.55-.18-1.18-.7-2.36-1.49-3.4-.75-1.07-1.98-1.77-3.01-3.06-.5-.66-.78-1.38-1.09-2-.29-.62-.67-1.14-1.1-1.63-.88-.97-1.96-1.71-3.02-2.37-2.14-1.3-4.24-2.39-5.75-3.66-.74-.62-1.4-1.13-2.07-1.39-.65-.27-1.29-.25-1.77-.15-1.03.22-1.19.89-1.26.85-.03,0-.05-.17.09-.45.14-.28.5-.61,1.05-.8.54-.19,1.29-.28,2.09-.01.79.24,1.56.78,2.33,1.36,1.51,1.15,3.55,2.12,5.79,3.42,1.11.66,2.28,1.43,3.28,2.51.49.55.95,1.18,1.27,1.86.33.67.6,1.31.99,1.83.79,1.04,2.12,1.85,2.99,3.07.89,1.17,1.45,2.53,1.63,3.88.08.65.14,1.4-.21,2.11-.37.7-1,1.05-1.52,1.32-.53.26-1.03.46-1.45.71-.42.25-.81.55-1.18.85-.75.6-1.43,1.19-2.23,1.51-.81.29-1.56.18-2.09,0-1.1-.38-1.43-1.01-1.38-1.02Z"/>
    <path class="cls-1" d="M106.73,179.93c.01.15-.26.3-.28.57-.06.25.03.87.23,1.38.18.46.64.86.95,1.2.32.34.49.6.41.72-.08.12-.39.08-.84-.11-.22-.1-.48-.23-.76-.45-.27-.21-.57-.54-.74-.95-.16-.42-.21-.78-.21-1.15,0-.36.09-.72.3-1,.2-.28.5-.38.67-.36.17,0,.26.08.26.15Z"/>
    <path class="cls-1" d="M131.97,198.78c-.06.06-.73-.69-2-1.92-.65-.6-1.47-1.31-2.55-1.91-1.05-.65-2.49-.88-3.95-1.8-.71-.47-1.36-1.13-1.81-1.96-.23-.42-.4-.88-.5-1.36-.04-.25-.09-.49-.08-.78,0-.29.12-.63.27-.86,1.21-1.65,2.76-2.95,4.63-4.1.91-.57,1.98-1.02,2.92-1.48.46-.24.9-.52,1.19-.87.3-.35.47-.79.38-1.12-.07-.33-.47-.7-.89-1.17-.42-.47-.77-.99-1.09-1.5-.64-1.01-1.22-2.05-2.07-2.71-.42-.33-.9-.54-1.42-.65-.53-.11-1.13-.12-1.76-.23-.63-.1-1.36-.37-1.85-.91-.5-.53-.73-1.2-.86-1.8-.13-.61-.18-1.2-.26-1.73-.08-.54-.18-1.08-.3-1.6-.24-1.05-.57-2.06-.96-3.01-.74-1.87-2.02-3.49-3.71-3.85-1.66-.39-3.36.41-4.3,1.52-.95,1.13-1.15,2.6-1.05,3.8.11,1.21.45,2.28.62,3.15.4,1.74.71,2.67.64,2.7-.06.03-.51-.87-1.04-2.59-.13-.43-.27-.91-.42-1.43-.15-.51-.32-1.12-.39-1.77-.16-1.28-.04-2.94,1.06-4.33,1.07-1.32,2.98-2.31,5.06-1.9,1.02.2,1.98.79,2.71,1.58.74.79,1.28,1.74,1.71,2.75.42,1,.78,2.05,1.04,3.15.13.55.24,1.12.33,1.69.09.58.13,1.13.25,1.65.12.51.3.98.61,1.31.31.33.74.51,1.27.59.53.09,1.14.11,1.79.24.66.14,1.32.42,1.86.85,1.09.86,1.68,2.01,2.31,2.99.31.49.62.96.98,1.36.33.4.9.81,1.12,1.62.18.81-.18,1.54-.61,2.02-.45.51-.99.83-1.5,1.1-1.05.51-1.99.89-2.88,1.42-1.75,1.03-3.33,2.36-4.38,3.72-.1.16-.14.28-.16.45-.01.17.02.38.05.58.07.4.21.78.39,1.14.37.71.91,1.29,1.52,1.73,1.22.85,2.72,1.18,3.82,1.91,1.12.69,1.92,1.47,2.54,2.13,1.21,1.34,1.76,2.17,1.71,2.21Z"/>
    <path class="cls-1" d="M106.02,165.78c.12-.09.41.13.73.52.32.36.72,1.01,1.12,1.38.14.16.49.14.94.1.04.09.32-.18.43-.35.14-.18.24-.29.33-.28.09.01.18.17.17.44,0,.14-.03.31-.11.51-.08.18-.27.48-.66.58-.2.06-.42.13-.74.15-.31.02-.72-.06-1.04-.33-.72-.69-.91-1.34-1.1-1.83-.16-.49-.2-.8-.08-.88Z"/>
    <path class="cls-1" d="M105.12,140.48s-.08-.07-.23-.14c-.15-.07-.42-.09-.72.03-.31.11-.59.41-.54.86.03.44.33.93.64,1.46,1.21,2.17,3.44,4.8,5.73,7.86,1.13,1.55,2.13,3.1,2.79,4.64.15.39.33.76.44,1.14.11.38.28.73.29,1.16,0,.81-.26,1.47-.51,2.06-1.06,2.33-2.36,3.35-2.4,3.27-.03-.03.25-.29.65-.86.39-.57.94-1.42,1.39-2.56.21-.56.44-1.22.41-1.89,0-.31-.17-.66-.29-1.03-.11-.37-.29-.72-.45-1.1-.66-1.49-1.66-3-2.77-4.53-2.27-3.03-4.49-5.73-5.63-7.99-.29-.55-.59-1.07-.61-1.64,0-.28.07-.54.23-.74.16-.19.36-.28.54-.34.36-.11.68-.05.84.07.17.12.19.23.18.24Z"/>
    <path class="cls-1" d="M117.05,161.66c-.07.12-.64-.03-1.38-.62-.36-.29-.77-.7-1.11-1.24-.18-.28-.3-.56-.46-.79-.17-.27-.34-.55-.51-.84-.71-1.2-1.12-2.36-1.44-3.17-.32-.81-.49-1.35-.36-1.42.12-.07.53.33,1.03,1.08.51.75,1.03,1.86,1.69,2.98.17.29.33.57.49.85.18.31.29.61.41.83.24.47.53.87.79,1.2.53.65.94,1.02.85,1.15Z"/>
    <path class="cls-1" d="M99.55,143.84c-.1-.1,0-.42.19-.95.19-.49.56-1.47,1.7-1.86.55-.17,1.14-.07,1.55.16.42.22.69.54.86.83.34.6.23,1.05.1,1.06-.15.03-.32-.28-.69-.6-.36-.32-.96-.62-1.52-.44-.58.17-1,.76-1.36,1.22-.37.47-.73.68-.84.58Z"/>
    <path class="cls-1" d="M94.49,151.62c.09.12-.11.44-.38.98-.13.26-.29.6-.37.91-.02.09-.02.1-.03.22,0,.1,0,.2,0,.31,0,.21,0,.43.02.65.03.81.43,1.53.74,1.96.34.44.67.68.6.83-.04.12-.51.14-1.11-.28-.58-.43-1.23-1.29-1.29-2.44-.02-.27-.01-.52,0-.76,0-.12.02-.24.04-.36.01-.11.06-.31.1-.42.2-.48.45-.79.69-1.04.47-.5.9-.66.99-.55Z"/>
    <path class="cls-1" d="M74.75,174.28c.07-.14.75.15,1.85.17.55,0,1.2-.06,1.85-.3.13-.07.26-.13.4-.2.1-.07.19-.18.29-.34.19-.32.53-.78.86-1.1.66-.66,1.33-1.18,1.67-1.72.35-.52.3-1.04.1-1.58-.37-1.05-.79-1.66-.67-1.76.1-.09.74.36,1.35,1.45.15.28.3.61.35,1.05.04.44-.07.92-.29,1.32-.46.81-1.17,1.36-1.76,1.97-.31.32-.5.56-.76.95-.14.19-.32.4-.55.57-.23.13-.46.21-.68.31-.83.24-1.61.23-2.23.12-1.26-.23-1.85-.81-1.77-.91Z"/>
    <path class="cls-1" d="M81.23,172.12c-.21-.14.15-1.25,1.45-1.99.65-.36,1.41-.37,1.86-.2.46.16.65.4.6.53-.12.29-1.07.08-1.98.61-.94.51-1.7,1.26-1.94,1.06Z"/>
    <path class="cls-1" d="M80.65,177.49c-.1.11-.37.05-.76-.13-.19-.09-.44-.22-.69-.45-.05-.03-.15-.18-.22-.29-.06-.13-.09-.24-.11-.34-.04-.21-.04-.38-.04-.57.04-.72.26-1.31.53-1.71.26-.41.63-.55.71-.42.08.12.03.33-.02.71-.05.37-.14.91-.16,1.47,0,.13,0,.27,0,.36.03.13-.03.05.03.14.13.18.28.34.42.51.28.33.4.61.3.72Z"/>
    <path class="cls-1" d="M68.88,188.92c-.24-.16,1.59-3.57,4.08-7.61,1.18-2.03,2.72-3.8,2.65-5.12-.02-.66-.36-1.16-.64-1.43-.28-.28-.51-.38-.49-.46.01-.06.29-.1.73.12.42.22,1,.77,1.15,1.69.15.93-.26,1.94-.76,2.85-.51.91-1.1,1.87-1.73,2.89-2.51,4.07-4.75,7.23-4.99,7.07Z"/>
    <path class="cls-1" d="M79.79,177.17c-.14.06-.37-.16-.81-.23-.43-.07-1.12-.06-1.65.3-1.24.87-2.21,1.89-2.44,1.71-.23-.15.33-1.51,1.87-2.6.91-.59,1.93-.44,2.5-.1.62.36.66.89.53.92Z"/>
    <path class="cls-1" d="M116.94,199.88c-.11.09-.49-.28-1.26-.8-.77-.53-1.94-1.18-3.5-1.83-1.54-.67-3.48-1.32-5.57-2.41-1.03-.54-2.12-1.28-3.04-2.18-.92-.88-1.73-1.77-2.74-2.28-2.06-1.1-4.82-1.13-6.9-2.88-.52-.44-.87-.99-1.16-1.41-.3-.43-.55-.76-.87-1.01-.66-.51-1.55-.79-2.35-1.11-.81-.31-1.6-.67-2.17-1.21-.48-.48-.9-.89-1.24-1.23-.69-.68-1.02-1.11-.95-1.2.07-.09.54.18,1.34.7.39.25.92.63,1.42,1.02.47.35,1.15.58,1.96.82.8.25,1.77.44,2.77,1.1,1.06.71,1.52,1.86,2.22,2.37.73.6,1.77.97,2.93,1.29,1.16.33,2.45.62,3.75,1.29,1.33.69,2.25,1.75,3.09,2.58.82.84,1.71,1.47,2.66,2.02,1.89,1.08,3.8,1.85,5.33,2.68,1.55.8,2.72,1.67,3.41,2.38.7.71.92,1.23.85,1.29Z"/>
    <path class="cls-1" d="M106.59,182.86c.08-.1.76.22,1.59,1.11.2.23.42.47.61.85.04.09.1.24.11.41,0,.13,0,.2,0,.31,0,.2-.03.4-.06.61-.14.83-.53,1.7-1.15,2.44-.65.74-1.21,1.17-1.2,1.73-.03.36-.02.64-.01,1.05-.04.46-.09.59-.06.9.04,1.08.4,1.67.29,1.77-.1.12-.77-.43-1.03-1.67-.03-.15-.06-.31-.07-.5,0-.21.01-.35,0-.48-.04-.27-.09-.71-.08-1.11,0-.19.03-.49.13-.74.09-.25.23-.46.37-.65.29-.38.61-.67.86-.97.51-.61.84-1.3,1.01-1.96.04-.17.07-.33.09-.49l.03-.22s0-.02-.01-.09c-.08-.24-.25-.51-.39-.73-.61-.92-1.1-1.44-1-1.56Z"/>
    <path class="cls-1" d="M101.91,189.91c.14-.07.37.13.79.23.21.05.46.09.74.08.14,0,.28-.02.43-.05.18-.03.37-.06.56-.09.58-.09,1.02-.53,1.4-.87.37-.34.63-.56.76-.49.12.07.08.42-.16.93-.12.25-.31.54-.59.83-.27.29-.74.56-1.21.64-.23.04-.43.06-.59.08-.23.03-.45.02-.65,0-.41-.05-.76-.2-1.02-.39-.53-.38-.58-.85-.45-.89Z"/>
    <path class="cls-1" d="M125.04,193.6c-.03.07-.32.02-.83-.15-.51-.17-1.18-.47-2.06-.66-.86-.23-2.03-.22-3.28-.93-.61-.37-1.09-.94-1.5-1.48-.42-.55-.79-1.04-1.3-1.44-1.03-.81-2.29-1.32-3.4-1.8-1.1-.4-2.24-.78-3.06-1.33-.84-.52-1.37-1.18-1.63-1.65-.27-.48-.3-.79-.25-.82.16-.09.65,1.03,2.25,1.82.79.42,1.8.67,3.04,1.07,1.17.45,2.48.93,3.71,1.88.62.47,1.09,1.11,1.47,1.64.39.54.76.99,1.19,1.28.89.58,2.04.71,2.95,1.03.93.3,1.6.74,2.03,1.01.44.28.68.45.65.52Z"/>
    <path class="cls-1" d="M115.11,187.44c.09-.12.52.05,1.15.34.63.3,1.44.54,2.48.63.52.04,1.01.09,1.47.12.28.01.69-.13.95-.26.56-.28.86-.61.99-.53.12.05.05.58-.57,1.14-.32.26-.7.54-1.36.62-.52.01-1.01.01-1.59-.05-1.13-.08-2.21-.55-2.77-1.05-.58-.48-.83-.86-.75-.97Z"/>
    <path class="cls-1" d="M86.32,47.9c.03.14-.23.35-.72.33-.48,0-1.16-.32-1.58-.88-.21-.25-.36-.58-.48-.89-.12-.33-.06-.68.01-.89.16-.44.38-.61.51-.57.15.03.18.33.23.67.03.35.22.56.55,1.02.59.82,1.39.93,1.47,1.2Z"/>
  </g>
</svg>