<?xml version="1.0" encoding="UTF-8"?>
<svg id="Capa_1" data-name="Capa 1" xmlns="http://www.w3.org/2000/svg" version="1.1" viewBox="0 0 226.77 226.77">
  <defs>
    <style>
      .cls-1 {
        opacity: .7;
      }

      .cls-2 {
        opacity: .5;
      }

      .cls-3 {
        opacity: .3;
      }

      .cls-4 {
        fill: #1d1d1b;
        stroke-width: 0px;
      }
    </style>
  </defs>
  <g>
    <g>
      <path class="cls-4" d="M101.34,207.11c-1.06-.36-1.45-.92-2.07-1.05-.13-.03-.46.04-.54.15-.04.06-.1.39-.09.46.27,2.03,2.57,2.95,4.33,3.32,1.98.42,4.19-.32,5.71-1.61,2.26-1.92,3.67-6.42,5.2-8.96,2.8-4.66,6.63-5.86,11.37-9.58,2.96-2.33,6.07-3.23,8.89-6.67,1.09-1.33,1.84-4.16,1.98-5.87.32-3.76.08-6.54-.41-10.28-.23-1.74-1.25-5.68-1.1-7.43.33-4,2.04-5.81,4.98-8.54,2.93-2.73,7-5.44,9.53-7.53,4.24-3.49,8.06-12.24,3.06-16.84-2.02-1.86-4.9-2.4-7.62-2.74-3.32-.42-6.89-.62-9.79,1.04-2.18,1.25-3.74,3.43-6.01,4.51-3.77,1.81-8.5-.04-11.19-3.25s-3.77-7.43-4.57-11.53c-1.16-5.96-1.88-12.01-2.16-18.08-.04-.93-.08-1.89-.45-2.75-.66-1.54-2.28-2.5-3.93-2.8s-3.34-.05-5,.2c-5,.76-10.57,1.85-13.45,6.02-1.08,1.57-1.67,3.44-2.79,4.98-.15.2-.32.41-.56.49-.48.16-.98-.29-1.11-.78s-.02-1.01,0-1.51c.08-2.68-2.36-4.69-3.37-7.18-.92-2.24-.61-4.83.3-7.08,2.51-6.17,8.02-10.39,14.1-12.7,3.55-1.36,7.52-2.39,9.89-5.37,1.58-1.98,2.21-4.69,1.67-7.17s-2.25-4.68-4.51-5.82c-3.64-1.84-7.99-.88-12.06-1.12-9.42-.56-17.81-8.65-18.72-18.03-.12-1.25-.13-2.53-.47-3.74-.31-1.1-.89-2.1-1.54-3.04-2.97-4.32-7.91-7.67-13.13-7.25-1.85.15-3.7.75-5.51.39-1.22-.24-2.31-.9-3.52-1.17-1.72-.39-3.54.04-5.28-.26-2.11-.36-3.87-1.69-5.65-2.79-.68-.42-1.46-1.06-2.21-1.33-1.04-.37-2.23-.19-3.31-.54-1.14-.38-2.19-1.09-2.82-2.1-.17-.27-.31-.56-.52-.79s-.54-.39-.85-.32-.53.46-.36.73c.86,3.83,4.35,6.65,7.98,8.16,3.63,1.51,7.1,2.64,11.02,2.94,3.37.25,6.76.46,10.13.72,2.26.17,6.95.22,8.74,1.6,2.55,1.97,1.94,7.21,2.77,10.33,2.76,10.34,9.93,17.49,20.54,18.89,4.33.57,12.1-1.56,13.04,3.51.67,3.59,1.08,5.77-4,9.24-3.01,2.06-6.72,2.93-9.73,5-4.77,3.29-6.41,4.36-8.39,9.8-.63,1.73-2.31,6.78-.56,10.8,1.75,4.02,2.83,5.04,3.34,5.81,1.39,2.12.62,4.31,2.96,5.27,1.39.57,2.78.68,3.5.3,2-1.04,2.96-3.18,4.81-6.47.68-1.21,2.15-2.38,3.03-2.84.83-.43,3.42-.43,4.35-.32,3.28.41,5.25,2.26,7.3,4.84,3.22,4.06,2.23,10.18,3.44,15.21,1.12,4.64,3.15,8.3,6.59,11.62s8.28,5.41,12.84,3.99c2.33-.73,4.71-1.98,6.82-3.19s3.27-2.82,6.78-1.32c4.85,2.06,3.76,7.24,3.19,11.48-.28,2.09-.68,4.25-1.93,5.95-1.16,1.57-3.28,1.8-4.86,2.94-2.68,1.93-5.24,4.59-6.5,7.64-1.72,4.19-.94,7.01.17,14.66.65,4.48-.02,9.03-2.92,12.5-4.51,5.41-12.78,7.09-18.01,12.23-2.86,2.81-3.1,5.3-4.73,8.96-.26.59-1.87,2.52-2.35,2.94-1.46,1.3-3.74.3-5.4-.73l1.7.86Z"/>
      <path class="cls-4" d="M101.34,207.11s-.59-.27-1.72-.83l.03-.05c.5.3,1.13.67,1.93.96.78.28,1.81.57,2.83.13.5-.22.89-.68,1.29-1.14.4-.47.81-.97,1.21-1.52.43-.53.64-1.21.93-1.9.26-.7.54-1.42.82-2.17.56-1.5,1.25-3.14,2.47-4.57,1.2-1.43,2.76-2.68,4.51-3.82,1.75-1.14,3.71-2.17,5.75-3.25,2.03-1.1,4.18-2.23,6.16-3.8,1.98-1.54,3.75-3.6,4.65-6.18.95-2.56,1.12-5.47.72-8.37-.39-2.92-1.01-5.92-1.2-9.1-.22-3.19.86-6.54,2.95-9.2,1.03-1.34,2.26-2.56,3.62-3.64.67-.53,1.39-1.09,2.2-1.45.8-.38,1.63-.68,2.36-1.13.76-.42,1.31-1.08,1.72-1.87.43-.77.71-1.61.93-2.48.22-.87.35-1.77.47-2.68.12-.91.26-1.83.36-2.75.19-1.82.29-3.76-.42-5.48-.35-.85-.93-1.6-1.67-2.16-.74-.57-1.64-.93-2.55-1.19-.91-.24-1.88-.25-2.75.14-.87.37-1.65,1-2.53,1.51-1.73,1-3.52,1.96-5.42,2.72-.95.38-1.94.72-2.98.89-1.04.17-2.1.17-3.15.03-2.1-.27-4.11-1.14-5.9-2.31-1.8-1.17-3.35-2.71-4.73-4.39-1.37-1.69-2.51-3.61-3.33-5.66-.82-2.05-1.41-4.24-1.66-6.48-.27-2.23-.34-4.49-.71-6.71-.18-1.11-.44-2.21-.85-3.26-.41-1.05-1.01-1.99-1.74-2.87-1.43-1.77-3.16-3.41-5.39-4.01-1.09-.34-2.25-.38-3.42-.33-.58.02-1.17.07-1.71.19-.52.1-.99.47-1.45.81-.92.72-1.71,1.56-2.23,2.63-.58,1.04-1.14,2.11-1.79,3.15-.65,1.02-1.42,2.06-2.53,2.72-.55.39-1.29.44-1.9.39-.64-.05-1.25-.21-1.85-.43-.59-.22-1.2-.57-1.61-1.12-.4-.55-.58-1.19-.74-1.78-.16-.6-.3-1.19-.53-1.73-.23-.56-.56-1.02-.95-1.52-.76-1-1.39-2.1-1.95-3.23-.54-1.13-1.13-2.26-1.42-3.53-.55-2.53-.2-5.16.5-7.62.75-2.44,1.64-4.91,3.29-7,1.7-2.05,3.96-3.41,6.09-4.9,2.22-1.46,4.74-2.31,7.07-3.46,1.17-.57,2.28-1.25,3.32-2.05,1.03-.79,2.01-1.68,2.65-2.78.66-1.1.73-2.41.55-3.71-.22-1.3-.31-2.69-1.21-3.57-.86-.92-2.22-1.21-3.51-1.36-1.32-.14-2.66-.1-4.02-.06-1.35.03-2.72.1-4.11-.04-.69-.08-1.36-.22-2.04-.32-.68-.14-1.34-.32-2.02-.48-2.66-.76-5.21-1.99-7.46-3.65-2.25-1.66-4.21-3.73-5.74-6.1-1.54-2.36-2.69-4.97-3.5-7.69-.93-2.74-.64-5.67-1.37-8.34-.18-.66-.42-1.31-.79-1.86-.38-.55-.87-.99-1.49-1.25-1.25-.53-2.68-.71-4.07-.87-2.84-.2-5.7-.4-8.56-.6-1.43-.1-2.87-.2-4.31-.3-1.43-.09-2.91-.23-4.33-.52-2.87-.57-5.63-1.56-8.33-2.72-2.67-1.22-5.2-3.06-6.71-5.7-.37-.66-.67-1.36-.86-2.1l-.07-.27c-.03-.09.02.04-.03-.08-.03-.08-.05-.16-.05-.23,0-.32.16-.55.38-.71.53-.31,1.06-.03,1.36.27.31.32.45.68.64.96.19.29.42.55.68.78.51.47,1.14.82,1.8,1.05.64.24,1.36.26,2.11.33.74.04,1.58.27,2.21.71.66.42,1.21.83,1.86,1.22.63.4,1.24.8,1.88,1.17,1.23.72,2.55,1.29,3.95,1.36,1.4.1,2.87-.15,4.36.14,1.5.29,2.74,1.13,4.1,1.27,1.37.16,2.77-.17,4.21-.37,2.92-.44,5.92.32,8.41,1.8,2.5,1.48,4.58,3.59,6.14,5.99.79,1.19,1.38,2.61,1.52,4.05.09.71.12,1.42.18,2.12.08.69.19,1.37.3,2.06.57,2.71,1.75,5.27,3.36,7.51,1.6,2.24,3.69,4.12,6,5.57,2.32,1.45,4.93,2.43,7.62,2.75,2.69.38,5.43,0,8.19.12,1.38.06,2.77.23,4.09.71,1.32.46,2.54,1.24,3.49,2.26,1.94,2.01,2.84,4.98,2.29,7.7-.26,1.36-.82,2.66-1.66,3.76-.84,1.09-1.92,1.98-3.09,2.66-2.34,1.39-4.93,2.11-7.36,3.07-2.43.96-4.73,2.21-6.79,3.77-2.06,1.56-3.86,3.44-5.23,5.58-1.34,2.15-2.43,4.54-2.43,7.05,0,1.24.26,2.47.84,3.56.57,1.1,1.35,2.1,2.01,3.21.66,1.08,1.19,2.39,1.05,3.73-.06.63-.11,1.22.28,1.56.18.17.39.22.56.13.18-.09.36-.34.53-.6.69-1,1.18-2.15,1.75-3.26.56-1.12,1.31-2.19,2.23-3.06,1.85-1.76,4.22-2.76,6.58-3.42,2.38-.65,4.78-1.01,7.18-1.34,1.2-.15,2.44-.21,3.66.02,1.21.23,2.39.79,3.25,1.71.43.45.76,1.02.95,1.62.19.6.25,1.21.29,1.81.06,1.19.11,2.35.2,3.52.16,2.33.38,4.65.67,6.93.29,2.29.63,4.55,1.04,6.79.41,2.24.84,4.45,1.51,6.57.67,2.12,1.58,4.15,2.92,5.87,1.31,1.72,3.12,3.04,5.11,3.75,1.99.72,4.24.78,6.11-.12,1.89-.9,3.27-2.56,4.98-3.83,1.71-1.32,3.86-1.91,5.93-2.01,2.09-.11,4.13.13,6.14.42,2,.31,4.03.79,5.72,1.93,1.68,1.15,2.85,2.97,3.21,4.93.32,1.97.01,3.95-.6,5.77-.61,1.82-1.54,3.5-2.7,4.99-.57.75-1.22,1.43-1.92,2.04-.7.6-1.43,1.15-2.16,1.7-1.45,1.09-2.9,2.15-4.29,3.23-1.4,1.08-2.73,2.2-3.96,3.4-1.24,1.18-2.43,2.41-3.18,3.89-.74,1.46-1.07,3.14-1.02,4.72.12,1.61.48,3.19.77,4.75.33,1.56.49,3.13.65,4.66.15,1.54.24,3.06.21,4.56-.04,1.5-.08,2.98-.39,4.41-.32,1.42-.74,2.81-1.51,4.02-1.68,2.31-4.04,3.8-6.25,5.1-2.25,1.26-4.1,2.96-6.12,4.23-1.98,1.32-3.93,2.5-5.51,3.98-1.59,1.46-2.74,3.19-3.56,4.94-.85,1.75-1.57,3.44-2.46,4.93-.44.74-.92,1.43-1.5,2.02-.57.58-1.23,1.02-1.91,1.35-1.35.66-2.78.89-4.03.67-1.24-.23-2.32-.64-3.16-1.23-.85-.58-1.34-1.42-1.43-2.18,0-.16.03-.28.06-.42.04-.16.22-.19.33-.22.25-.07.49.05.67.14.37.21.65.43.89.57.24.14.44.23.57.28.13.05.2.08.2.08,0,0-.28-.06-.78-.33-.25-.13-.54-.35-.9-.55-.19-.09-.4-.19-.63-.12-.11.03-.25.06-.27.18-.03.11-.06.26-.06.38.1.74.58,1.55,1.41,2.11.82.57,1.9.97,3.12,1.19,2.43.41,5.67-.9,7.26-4.01.87-1.48,1.59-3.17,2.43-4.92.82-1.77,1.98-3.54,3.59-5.02,1.59-1.5,3.55-2.7,5.52-4.02,2-1.27,3.85-2.97,6.12-4.26,2.21-1.31,4.53-2.79,6.15-5.03.73-1.15,1.15-2.53,1.45-3.92.3-1.4.33-2.87.37-4.35.02-1.49-.07-3-.22-4.53-.17-1.53-.33-3.08-.66-4.63-.3-1.56-.66-3.13-.79-4.79-.06-1.67.28-3.36,1.05-4.9.78-1.54,2-2.8,3.24-3.99,1.24-1.2,2.59-2.34,3.98-3.43,1.4-1.09,2.84-2.15,4.29-3.24.72-.55,1.45-1.1,2.14-1.69.68-.59,1.31-1.26,1.86-1.99,1.12-1.45,2.03-3.1,2.63-4.87.59-1.77.88-3.69.57-5.56-.34-1.86-1.45-3.56-3.04-4.66-1.61-1.09-3.58-1.56-5.55-1.86-1.99-.28-4.02-.52-6.05-.41-2.02.11-4.06.67-5.69,1.93-1.66,1.22-3.05,2.91-5.06,3.88-2.01.96-4.39.89-6.46.14-2.09-.75-3.96-2.12-5.33-3.9-1.38-1.77-2.32-3.86-3-6.01-.68-2.16-1.12-4.39-1.54-6.63-.41-2.24-.76-4.52-1.05-6.81-.29-2.3-.52-4.62-.68-6.96-.09-1.17-.14-2.35-.2-3.52-.05-1.16-.31-2.3-1.11-3.11-.77-.82-1.85-1.34-2.98-1.55-1.14-.22-2.33-.16-3.51-.01-2.37.33-4.77.69-7.1,1.33-2.31.65-4.61,1.63-6.36,3.3-.88.83-1.57,1.82-2.12,2.92-.57,1.09-1.06,2.25-1.78,3.32-.19.25-.34.56-.73.77-.4.21-.9.05-1.16-.22-.28-.25-.45-.65-.47-1-.04-.35,0-.68.03-.99.12-1.2-.34-2.36-.98-3.42-.64-1.07-1.42-2.07-2.02-3.23-.62-1.16-.91-2.49-.9-3.8,0-2.66,1.14-5.14,2.51-7.34,1.41-2.21,3.26-4.13,5.36-5.72,2.1-1.6,4.45-2.87,6.92-3.85,2.46-.97,5.02-1.69,7.28-3.03,1.12-.66,2.14-1.5,2.93-2.52.78-1.03,1.31-2.25,1.55-3.53.52-2.56-.32-5.32-2.15-7.22-1.8-1.98-4.53-2.73-7.2-2.8-2.69-.12-5.45.27-8.24-.12-2.78-.33-5.46-1.35-7.84-2.83-2.38-1.49-4.51-3.41-6.16-5.71-1.65-2.3-2.87-4.93-3.46-7.73-.12-.7-.23-1.41-.31-2.12-.06-.71-.1-1.41-.18-2.1-.13-1.38-.67-2.65-1.43-3.81-1.52-2.34-3.54-4.38-5.95-5.81-2.41-1.42-5.26-2.14-8.04-1.72-1.4.19-2.84.54-4.35.37-1.53-.17-2.79-1.03-4.14-1.27-1.36-.27-2.8-.04-4.29-.13-1.51-.07-2.94-.69-4.2-1.43-1.27-.77-2.54-1.58-3.75-2.4-1.15-.87-2.69-.45-4.21-.98-.72-.26-1.41-.64-1.99-1.17-.29-.26-.55-.56-.77-.88-.22-.33-.37-.67-.58-.88-.19-.21-.5-.29-.63-.19-.08.05-.14.16-.13.21,0,.01,0,.02,0,.03,0-.04.08.17.06.17l.07.26c.18.69.45,1.35.8,1.96,1.41,2.49,3.85,4.28,6.44,5.46,2.65,1.14,5.39,2.13,8.2,2.68,1.41.29,2.82.43,4.27.52,1.44.1,2.87.2,4.31.3,2.87.2,5.73.4,8.58.6,1.43.16,2.87.33,4.25.91.69.29,1.31.83,1.72,1.46.42.63.67,1.33.87,2.03.75,2.81.46,5.71,1.36,8.33.79,2.67,1.92,5.23,3.43,7.54,1.49,2.32,3.41,4.33,5.6,5.96,2.19,1.62,4.68,2.83,7.28,3.57.66.16,1.31.34,1.97.47.67.1,1.33.24,2,.32,1.32.13,2.68.07,4.04.04,1.36-.04,2.72-.07,4.09.07,1.34.16,2.82.45,3.85,1.52l.36.4.27.47c.21.3.25.67.37,1,.16.68.26,1.32.36,2,.19,1.33.11,2.83-.62,4.05-.71,1.21-1.74,2.13-2.8,2.94-1.06.81-2.21,1.52-3.41,2.1-2.38,1.17-4.87,2.02-7.02,3.42-2.11,1.48-4.37,2.85-5.97,4.79-1.56,1.97-2.46,4.42-3.19,6.81-.68,2.41-1.01,4.96-.49,7.36.26,1.19.84,2.3,1.38,3.42.56,1.11,1.17,2.17,1.9,3.15.37.48.77,1.03,1.01,1.63.25.59.4,1.21.56,1.8.15.59.33,1.16.65,1.61.33.45.83.74,1.38.94.55.21,1.13.35,1.71.4.59.04,1.14.01,1.6-.32,1-.59,1.73-1.55,2.37-2.55.63-1.01,1.19-2.07,1.78-3.12.52-1.1,1.41-2.05,2.36-2.78.49-.35.98-.75,1.64-.9.61-.14,1.21-.18,1.81-.2,1.18-.05,2.42,0,3.57.36,1.16.32,2.24.92,3.17,1.66.93.75,1.72,1.62,2.46,2.52.74.89,1.4,1.91,1.81,3,.42,1.09.69,2.22.87,3.35.37,2.27.44,4.53.71,6.73.24,2.2.82,4.34,1.62,6.36.81,2.02,1.92,3.89,3.26,5.55,1.35,1.65,2.87,3.17,4.62,4.31,1.74,1.14,3.69,1.99,5.71,2.25,2.03.3,4.05-.09,5.91-.88,1.87-.75,3.65-1.7,5.37-2.69.85-.49,1.63-1.13,2.58-1.53.95-.43,2.05-.41,3.01-.16.96.28,1.89.65,2.69,1.27.8.6,1.43,1.42,1.8,2.33.75,1.85.63,3.83.44,5.67-.1.93-.24,1.85-.36,2.76-.12.91-.26,1.83-.48,2.72-.22.89-.52,1.77-.97,2.57-.23.4-.47.78-.78,1.14-.31.35-.69.63-1.08.86-.78.47-1.62.77-2.4,1.14-.79.35-1.46.87-2.14,1.4-1.34,1.07-2.55,2.26-3.56,3.57-2.06,2.61-3.11,5.85-2.9,8.98.18,3.13.79,6.14,1.18,9.07.4,2.94.22,5.9-.76,8.51-.93,2.63-2.75,4.74-4.76,6.29-2,1.59-4.17,2.71-6.21,3.81-2.05,1.08-4,2.09-5.74,3.22-1.74,1.13-3.29,2.36-4.48,3.76-1.2,1.4-1.89,3.01-2.46,4.51-.29.75-.57,1.48-.83,2.17-.29.68-.52,1.38-.96,1.93-.41.55-.82,1.05-1.23,1.52-.41.46-.8.93-1.34,1.16-1.08.45-2.13.14-2.91-.15-.8-.31-1.43-.68-1.93-.99l.03-.05c1.12.58,1.69.89,1.69.89Z"/>
    </g>
    <g>
      <path class="cls-4" d="M61.93,71.46c.17-1.52-1.18-2.57-1.45-4.07-.41-2.3.17-5.37.61-6.83.06-.19.31-.9-.35-.73-.27.07-.9,1.35-.97,1.63-.61,2.45-.81,4.51-.18,6.95.35,1.35.77,3.22.64,4.61-.3,3.34-3.02,3.85-5,2.84-1.35-.69-2.33-2.98-2.73-4.44s-.51-2.99-.95-4.43c-.55-1.81-1.58-3.41-2.61-5-1.57-2.42-3.18-4.89-5.45-6.68-1.35-1.07-2.9-1.86-4.28-2.91s-2.61-2.43-2.93-4.12c-.13-.65-.26-1.5-.91-1.62-.43-.08-.85.27-.99.68s-.13,1.13-.02,1.55c.69,2.71,2.31,4.54,5.07,6.1,2.43,1.38,3.81,2.12,6.07,5.4,2.12,3.08,4.02,5.17,5.13,8.74.38,1.23.92,3.08,1.29,5.54.25,1.66,2.61,4.05,5.6,4.25.72.05,2.56.02,3.03-.47,1.19-1.26,1.26-1.69,1.69-2.73.85-2.07.03-4.01-.7-6.12"/>
      <path class="cls-4" d="M61.54,69.6s.05.1.13.29c.08.2.19.5.34.88.25.78.77,1.96.68,3.58-.05.82-.41,1.65-.8,2.54-.22.45-.53.86-.87,1.26-.18.19-.32.42-.62.58-.27.14-.55.2-.84.25-1.13.16-2.38.21-3.64-.2-1.24-.4-2.45-1.17-3.37-2.32-.44-.56-.83-1.29-.9-2.05-.12-.73-.26-1.46-.43-2.21-.35-1.49-.77-3.04-1.4-4.55-.64-1.51-1.56-2.95-2.58-4.38-.52-.72-1.04-1.45-1.57-2.18-.53-.75-1.04-1.5-1.63-2.21-.59-.71-1.24-1.37-1.98-1.94-.74-.57-1.57-1.05-2.42-1.53-1.72-.93-3.45-2.18-4.54-4-.53-.92-.94-1.87-1.1-2.99-.02-.28-.02-.55.02-.84.03-.28.15-.62.38-.85.22-.24.55-.42.93-.38.37.03.69.3.83.57.31.55.33,1.12.46,1.59.13.48.34.94.6,1.38.54.86,1.29,1.61,2.12,2.25,1.68,1.28,3.66,2.21,5.21,3.71,1.57,1.46,2.78,3.19,3.9,4.89,1.1,1.71,2.26,3.36,3.01,5.22.78,1.88.81,3.86,1.33,5.59.26.87.61,1.72,1.06,2.48.46.75,1,1.45,1.78,1.73.77.31,1.63.4,2.38.15.75-.23,1.34-.83,1.63-1.55.6-1.47.32-3.11.02-4.59-.15-.75-.37-1.47-.5-2.21-.13-.74-.19-1.48-.19-2.2.02-1.45.28-2.77.61-4.03.12-.32.27-.6.42-.88.08-.14.16-.27.25-.4.1-.13.16-.27.39-.38.16-.06.48-.07.6.14.12.22.06.43.03.57-.08.28-.16.56-.23.83-.54,2.16-.71,4.1-.56,5.65.05.79.32,1.42.61,1.95.28.53.54.99.67,1.39.14.4.17.73.17.94-.01.22-.03.32-.04.32-.04,0,.07-.45-.23-1.22-.15-.38-.41-.82-.72-1.35-.31-.52-.62-1.21-.68-2.01-.18-1.59-.04-3.55.47-5.76.09-.5.49-1.33.03-1.13-.12.07-.32.4-.45.64-.14.26-.28.55-.38.82-.3,1.2-.55,2.53-.55,3.92,0,.69.07,1.4.2,2.12.13.71.36,1.44.52,2.2.3,1.49.64,3.2-.02,4.87-.32.82-1.02,1.55-1.91,1.83-.89.3-1.86.2-2.73-.15-.92-.33-1.56-1.15-2.03-1.93-.48-.81-.84-1.68-1.12-2.59-.55-1.84-.59-3.78-1.33-5.54-.72-1.78-1.87-3.41-2.97-5.11-1.12-1.69-2.31-3.37-3.82-4.78-1.48-1.43-3.42-2.35-5.17-3.68-.87-.67-1.67-1.45-2.26-2.4-.29-.47-.52-.99-.67-1.53-.14-.55-.18-1.07-.4-1.44-.2-.37-.58-.39-.86-.09-.27.26-.28.79-.25,1.26.13.92.53,1.91,1.02,2.74,1.01,1.7,2.64,2.89,4.33,3.81.85.48,1.7.97,2.48,1.57.78.6,1.46,1.3,2.06,2.03.61.73,1.13,1.51,1.64,2.25.53.74,1.05,1.47,1.56,2.19,1.03,1.44,1.97,2.92,2.61,4.48.64,1.56,1.04,3.12,1.39,4.64.17.76.31,1.51.42,2.24.06.72.39,1.32.8,1.87.85,1.07,1.99,1.82,3.16,2.22,1.17.4,2.39.37,3.47.23.27-.04.53-.1.75-.21.19-.09.36-.32.53-.51.34-.38.64-.77.85-1.19.39-.86.77-1.67.82-2.43.13-1.55-.34-2.74-.56-3.53-.12-.4-.22-.7-.28-.9-.06-.2-.09-.31-.08-.31Z"/>
    </g>
  </g>
  <g class="cls-2">
    <path class="cls-4" d="M66.4,32.76c2.56-.42,4.84-1.8,7.17-2.95s4.94-2.09,7.48-1.57,4.82,3.04,4.2,5.56c-.88,3.57-5.79,3.83-9.43,3.37-3.65-.46-7.39-.82-10.96.05s-6.98,3.23-8.15,6.72.64,7.96,4.2,8.88c1.43.37,2.93.16,4.39-.05,5.35-.77,10.7-1.54,16.05-2.31,4.09-.59,8.55-1.11,12.11.98,1.06.62,2.08,1.68,1.93,2.9-.17,1.39-1.7,2.12-3.02,2.6-3.86,1.41-7.73,2.82-11.59,4.23-3.14,1.15-6.42,2.38-8.65,4.86s-3.01,6.63-.78,9.12c2.1,2.34,5.78,2.28,8.83,1.52,7.25-1.79,13.67-6.4,21.06-7.46,4.08-.59,9.41,1.01,9.73,5.12.19,2.51-1.76,4.76-4.02,5.87s-4.83,1.38-7.28,1.95c-4.66,1.07-9.07,3.24-12.75,6.3-1.11.92-2.19,1.97-2.71,3.31-1.08,2.81.58,5.96,2.72,8.08,6.67,6.62,18.58,6.92,25.56.63,2.45-2.21,4.31-5.05,6.97-7.01,2.66-1.96,6.65-2.77,9.13-.58,1.72,1.52,2.19,4.1,1.74,6.35-.45,2.25-1.67,4.27-2.89,6.22-3.16,5.05-7.3,10.54-13.25,10.96-5.74.41-11.96-4.09-16.82-1-3.68,2.33-3.94,7.62-2.96,11.86.41,1.78.99,3.57,2.13,5,3.14,3.93,9.13,3.76,14.03,2.66s10.22-2.73,14.77-.6c3.04,1.42,5.77,4.48,9.05,3.79,2.19-.46,3.67-2.49,4.63-4.5.79-1.64,1.38-3.54.82-5.27-.88-2.75-4.1-3.87-6.1-5.95-2.57-2.67-2.86-7.22-.65-10.19s6.66-4,9.95-2.3c1.14.59,2.12,1.45,3.29,1.98,3.18,1.48,7.16.18,9.56-2.39,2.4-2.56,3.45-6.12,3.86-9.6.36-3.09,1.21-7.25,4.33-7.3.7-.01,1.38.22,2.01.53,5.66,2.79,6.55,10.34,6.7,16.64.08,3.39.02,7.15-2.3,9.62-3.38,3.6-10.37,3.08-12.28,7.63-2.06,4.9,1.78,10.36,6.61,11.17,2.72.46,5.61.23,8.15,1.31,3.21,1.36,5.31,4.66,5.93,8.09.62,3.43-.05,6.97-1.14,10.28-.6,1.81-1.36,3.64-2.77,4.91s-3.62,1.84-5.26.87c-2.79-1.67-1.95-5.79-1.61-9.02.29-2.81-.09-5.69-1.12-8.32-.52-1.33-1.23-2.63-2.35-3.5-1.24-.95-2.84-1.28-4.39-1.45-7.48-.81-15.25,1.57-20.99,6.42-3.1,2.62-5.71,7.13-3.52,10.54,1.34,2.09,4.3,3.36,4.3,5.85,0,1.87-1.83,3.27-3.65,3.72s-3.74.29-5.57.72c-3.05.73-5.6,3.24-6.37,6.28-1.26,4.95,1.95,10.41.09,15.17-.97,2.48-3.13,4.25-5.18,5.94-2.05,1.7-4.16,3.57-4.94,6.11s.33,6.41,3.03,6.39c2.45.39-7.2-4.11,5.36-12.65,2.9-1.97,6.27-4.45,6.32-7.96.04-2.47-1.84-4.5-2.69-6.81-1.47-4,.65-8.97,4.55-10.68,2.5-1.09,5.4-.93,7.94-1.93s4.68-4.17,3.08-6.38c-1.16-1.61-3.73-1.85-4.61-3.63-.53-1.06-.26-2.34.21-3.42,1.54-3.58,4.98-5.92,8.32-7.93,3.7-2.23,8.35-4.32,12.16-2.27,2.69,1.44,4.03,4.55,4.64,7.54s.7,6.11,1.79,8.95,3.59,5.47,6.64,5.45c4.11-.03,6.6-4.46,7.97-8.33,1.33-3.74,2.47-7.66,2.16-11.62s-2.33-7.99-5.9-9.73c-2.57-1.25-5.57-1.19-8.31-1.99-2.74-.8-5.53-3.11-5.13-5.94.28-2,2.08-3.45,3.93-4.28s3.88-1.23,5.61-2.27c5.2-3.1,5.82-10.28,5.57-16.33-.22-5.53-1.1-11.81-5.66-14.93-2.68-1.83-6.29-2.13-9.3-.94s-5.39,3.81-6.48,6.87c-1.26,3.55-1.17,8.06-4.3,10.14-3.65,2.43-8.56-.5-12.89.19-2.02.32-3.83,1.43-5.57,2.51-1.88,1.17-3.91,2.52-4.54,4.65-.73,2.48.73,5.08,2.46,7s3.83,3.63,4.82,6.02c.98,2.39.21,5.79-2.29,6.46-3.26.87-5.49-3.16-8.4-4.86-2.61-1.53-5.92-1.1-8.82-.21s-5.72,2.22-8.74,2.36c-3.29.16-6.77-1.31-8.43-4.16-1.66-2.85-.96-7.02,1.86-8.72,2.78-1.68,6.31-.65,9.54-.31,9.11.96,18.51-4.78,21.82-13.32,1.44-3.72,1.76-8.03.08-11.65s-5.63-6.3-9.58-5.76c-4.86.65-7.92,5.38-11.69,8.52-5.36,4.46-13.1,5.86-19.68,3.55-.45-.16-.91-.34-1.22-.7-.4-.45-.5-1.09-.53-1.69-.36-6.06,4.31-12.01,10.29-13.09,2.24-.41,4.56-.2,6.79-.64,5.22-1.04,13.49-7.23,9.68-13.37-1.28-2.07-3.72-3.1-6.05-3.79-2.65-.78-5.4-1.29-8.16-1.17-6.29.26-11.96,3.65-17.35,6.89-1.7,1.02-3.47,2.07-5.45,2.28s-4.21-.65-4.96-2.49c-.78-1.91.33-4.16,1.98-5.4s3.72-1.73,5.71-2.29c5.58-1.59,10.93-4.03,15.79-7.21.53-.35,1.08-.73,1.38-1.28.32-.58.33-1.28.23-1.93-.38-2.41-2.25-4.39-4.43-5.48-2.18-1.09-4.67-1.41-7.1-1.56-6.4-.41-12.87.23-19.07,1.87-2.84.75-5.86,1.71-8.63.75-.4-.14-.81-.33-1.07-.66-.52-.65-.35-1.62-.06-2.4,1.83-4.9,7.34-7.76,12.56-7.6,4.31.13,8.93,1.92,12.74-.11,2.51-1.34,4.05-4.31,3.68-7.13s-2.61-5.3-5.38-5.95c-4.52-1.06-8.73,2.38-13.16,3.74-3.5,1.08-7.4.82-10.73-.71-3.11-1.43-5.64-3.86-8.48-5.77s-6.36-3.34-9.65-2.39c-1.88.54-3.24,1.85-4.94,2.73-1.36.71-3.39,2.02-4.94,1.25-.73-.36-1.18-1.1-1.78-1.65-.58-.55-1.35-.93-2.15-.93s-1.62.45-1.93,1.18c-.19.46-.19.97-.09,1.46.38,2,2.12,3.56,4.07,4.16s4.07.37,6.03-.17c.82-.22,1.63-.5,2.48-.5s1.75.35,2.16,1.09c.3.55.28,1.24.11,1.85-.42,1.52-1.63,2.66-2.68,3.83-1.95,2.19-3.92,4.78-4.02,7.72-.09,2.64-.01,2.91,1.18,6.19.22.61,1.22,1.31,1.81,1.04.61-.27.4-2,.31-2.66,0,0-1.19-.92-.78-3.81.15-1.04,1.07-3.27,1.84-4,2.85-2.71,4.78-5.14,5.1-9.06.05-.65.02-1.42-.5-1.82-.23-.18-.53-.25-.77-.42-.55-.37-.69-1.23-.29-1.75.95-1.24,4.97-.23,6.24.12,2.23.62,4.31,1.67,6.36,2.71,3.99,2.04,8.34,4.52,13,3.75Z"/>
    <path class="cls-4" d="M66.4,32.76s-.33.06-.98.13c-.65.05-1.64.06-2.93-.15-1.28-.21-2.84-.69-4.6-1.46-1.77-.76-3.72-1.84-5.99-2.95-2.25-1.13-4.9-2.21-8-2.6-.77-.08-1.58-.14-2.35.08-.38.11-.73.35-.85.73-.12.37-.04.81.2,1.12.24.33.71.37,1.07.69.36.32.47.81.48,1.26,0,.91-.14,1.81-.38,2.71-.47,1.81-1.5,3.51-2.83,5-.65.75-1.41,1.46-2.11,2.18-.61.8-1.03,1.78-1.38,2.77-.34.99-.41,2.09-.23,3.15.11.52.29,1.05.64,1.45.15.08.15.32.16.43l.04.42c.02.28.04.57.03.86-.01.29-.04.58-.16.87-.06.14-.19.29-.35.35-.16.06-.33.06-.48.03-.6-.14-1.12-.53-1.41-1.09-.4-1.11-.84-2.2-1.1-3.4-.12-.6-.15-1.22-.14-1.83.01-.61.01-1.23.1-1.85.17-1.25.68-2.43,1.33-3.53.65-1.1,1.46-2.12,2.31-3.1.84-.99,1.83-1.89,2.49-3.03.32-.56.57-1.19.6-1.84.04-.65-.23-1.29-.78-1.64-.54-.36-1.23-.48-1.89-.41-.67.06-1.33.28-2.01.46-1.35.37-2.78.61-4.23.52-1.44-.08-2.92-.54-4.09-1.48-1.16-.91-2.07-2.31-2.06-3.89,0-.8.56-1.58,1.31-1.86.75-.32,1.62-.19,2.31.18.72.36,1.23,1.01,1.73,1.55.5.57,1.17.95,1.92.9,1.51-.08,2.87-1.03,4.25-1.75,1.35-.79,2.61-1.85,4.19-2.38,1.57-.52,3.3-.49,4.91-.08,1.62.41,3.15,1.14,4.58,2.04,1.43.9,2.76,1.96,4.11,2.99,1.36,1.03,2.75,2.04,4.28,2.82,1.53.79,3.2,1.31,4.93,1.53,1.73.22,3.51.15,5.24-.24,1.73-.39,3.38-1.14,5.03-1.9,1.65-.76,3.32-1.57,5.15-2.02,1.81-.45,3.83-.45,5.58.41,1.73.85,3.12,2.39,3.76,4.24.67,1.85.42,3.98-.53,5.71-.91,1.77-2.63,3.09-4.58,3.59-1.95.53-3.99.34-5.96.08-1.97-.25-3.95-.64-5.94-.59-1.99.05-3.98.53-5.8,1.39-1.81.88-3.46,2.15-4.63,3.82-.6.82-1.05,1.76-1.36,2.71-.13.48-.18.99-.02,1.42.16.43.56.72,1.03.89,1.93.72,4.08.46,6.11-.03,2.04-.51,4.11-1.11,6.23-1.51,4.23-.84,8.59-1.23,13-1.14,2.2.07,4.43.15,6.63.64,2.18.48,4.37,1.48,5.89,3.24.76.87,1.34,1.91,1.6,3.06.13.57.19,1.17.07,1.77-.11.61-.51,1.16-.98,1.52-1.89,1.34-3.86,2.47-5.91,3.54-2.05,1.06-4.17,1.99-6.35,2.81-1.09.4-2.2.78-3.32,1.12-1.12.35-2.26.63-3.36.98-1.1.36-2.18.8-3.11,1.47-.92.65-1.66,1.59-2.04,2.66-.39,1.06-.31,2.28.34,3.2.65.92,1.74,1.47,2.86,1.67,1.13.21,2.31,0,3.41-.41,1.11-.4,2.14-1,3.18-1.62,2.07-1.24,4.15-2.5,6.32-3.63,2.17-1.12,4.44-2.11,6.84-2.76,2.4-.63,4.93-.9,7.42-.63,2.5.26,4.94.85,7.31,1.75,1.17.47,2.32,1.1,3.26,2,.46.45.89.97,1.17,1.56l.44.88.26.95c.27,1.29.08,2.65-.43,3.85-.5,1.22-1.32,2.25-2.21,3.19-.89.94-1.93,1.72-3.02,2.42-1.09.7-2.27,1.27-3.5,1.7-2.49.94-5.18.64-7.69.98-2.53.31-4.9,1.53-6.74,3.3-1.87,1.76-3.19,4.1-3.74,6.61-.27,1.24-.35,2.59-.14,3.81.2,1.28,1.79,1.43,2.97,1.83,5.07,1.32,10.69.55,15.28-2.11,2.34-1.29,4.22-3.22,6.13-5.15,1.91-1.89,3.93-3.9,6.6-4.86,1.32-.46,2.77-.62,4.17-.37,1.39.24,2.71.81,3.86,1.62,2.32,1.6,3.94,4.17,4.45,6.95.55,2.77.23,5.67-.67,8.34-.45,1.34-1.08,2.61-1.78,3.84-.76,1.19-1.58,2.35-2.56,3.38-3.83,4.17-9.34,6.87-15.1,7.14l-1.08.03c-.36,0-.72-.04-1.08-.05-.72-.03-1.43-.12-2.14-.22-1.41-.2-2.81-.43-4.21-.45-1.39-.02-2.8.24-3.95,1-1.15.74-1.92,1.98-2.25,3.32-.34,1.34-.26,2.79.23,4.08.49,1.29,1.45,2.39,2.59,3.19,2.31,1.63,5.34,2.05,8.11,1.4,2.81-.59,5.45-1.91,8.36-2.54,1.45-.31,2.96-.46,4.46-.24.75.11,1.49.31,2.18.64.7.32,1.32.76,1.9,1.23,1.16.94,2.17,2.03,3.31,2.9.57.43,1.19.8,1.85.99.66.19,1.37.16,2-.07,1.3-.46,2.04-1.88,2.19-3.26.18-1.42-.24-2.83-1.04-4.04-1.55-2.46-4.18-4.16-5.71-6.86-.76-1.31-1.28-2.88-1.01-4.47.26-1.59,1.34-2.89,2.54-3.83,1.21-.95,2.51-1.71,3.81-2.49,1.31-.75,2.74-1.43,4.3-1.63,3.13-.4,6.09.78,9.05.81.74,0,1.47-.09,2.16-.29.68-.23,1.33-.57,1.88-1.04,1.09-.96,1.75-2.33,2.16-3.77.43-1.44.69-2.94,1.09-4.43.38-1.49.99-2.97,1.89-4.26,1.76-2.58,4.61-4.49,7.77-4.85,3.12-.41,6.48.68,8.63,3.05,2.18,2.36,3.17,5.5,3.65,8.57.46,3.1.6,6.22.46,9.36-.18,3.11-.71,6.34-2.4,9.1-.84,1.37-2.02,2.54-3.42,3.35-1.41.81-2.95,1.23-4.41,1.77-1.46.52-2.85,1.23-3.85,2.38-1.01,1.1-1.37,2.74-.75,4.1.6,1.36,1.84,2.41,3.2,3.09,1.37.69,2.93.93,4.48,1.2,1.56.25,3.16.49,4.68,1.1,1.52.61,2.87,1.63,3.89,2.91,2.06,2.55,2.96,5.88,2.86,9.11-.08,3.25-.97,6.4-2.03,9.42-.52,1.52-1.14,3.03-1.97,4.44-.83,1.39-1.85,2.74-3.28,3.65-1.4.92-3.23,1.23-4.85.73-1.63-.49-2.95-1.65-3.93-2.98-.99-1.34-1.58-2.93-1.95-4.51-.38-1.59-.57-3.21-.81-4.8-.23-1.59-.52-3.17-1.09-4.66-.56-1.48-1.36-2.89-2.55-3.92-1.17-1.04-2.71-1.6-4.28-1.64-1.57-.05-3.15.36-4.64.94-1.49.58-2.92,1.36-4.31,2.19-1.39.84-2.76,1.72-4.01,2.73-1.25,1.01-2.41,2.15-3.26,3.51-.42.67-.8,1.39-1.04,2.13-.24.74-.33,1.54-.09,2.24.21.62.68,1.12,1.26,1.5.58.39,1.24.7,1.89,1.07.64.38,1.3.85,1.7,1.55.42.68.55,1.54.39,2.3-.32,1.55-1.35,2.8-2.59,3.66-1.29.86-2.79,1.14-4.22,1.4-1.44.25-2.88.43-4.21.89-1.33.46-2.52,1.27-3.41,2.35-1.81,2.13-2.58,5.19-1.74,7.86.4,1.34,1.21,2.54,1.86,3.85.67,1.28,1.17,2.83.86,4.34-.25,1.51-1.13,2.81-2.13,3.87-1.01,1.07-2.17,1.96-3.35,2.79-2.36,1.61-4.71,3.31-6.27,5.64-.75,1.16-1.24,2.52-1.04,3.86.09.67.34,1.31.69,1.89.17.3.37.57.58.87.07.1.1.12.2.3.1.15.16.29.14.42-.02.3-.34.36-.68.33h0c-.87,0-1.67-.4-2.22-1.01-.56-.6-.89-1.35-1.1-2.11-.41-1.51-.31-3.19.37-4.61,1.35-2.88,3.99-4.66,6.21-6.6,1.11-.98,2.17-2.03,2.93-3.28.76-1.24,1.14-2.67,1.18-4.13.11-2.94-.81-5.84-.94-8.87-.07-1.51.06-3.07.66-4.5.59-1.42,1.54-2.68,2.74-3.64,1.19-.96,2.63-1.62,4.14-1.86,1.5-.25,2.99-.21,4.41-.48,1.39-.24,2.75-.96,3.5-2.11.36-.58.51-1.26.38-1.92-.12-.66-.48-1.27-.95-1.8-.93-1.08-2.18-1.93-3.09-3.18-.93-1.25-1.2-2.92-.91-4.41.28-1.5.98-2.87,1.85-4.08.86-1.22,1.94-2.28,3.11-3.18,2.31-1.84,4.92-3.28,7.67-4.31,2.75-1.03,5.66-1.62,8.58-1.77,1.46-.06,2.93-.02,4.38.13,1.44.16,2.95.46,4.22,1.32,1.27.87,2.05,2.23,2.6,3.58.55,1.36.93,2.78,1.13,4.22.21,1.44.24,2.91.09,4.36-.15,1.43-.37,2.85-.39,4.25-.02,1.38.14,2.85,1.01,3.87.43.49,1,.88,1.64,1.05.63.17,1.32.15,1.97,0,1.32-.32,2.43-1.21,3.2-2.35.78-1.13,1.29-2.45,1.72-3.78.86-2.67,1.45-5.45,1.28-8.22-.14-2.75-1.15-5.49-3.01-7.5-.93-1-2.06-1.81-3.34-2.27-1.27-.47-2.65-.65-4.03-.77-1.38-.13-2.78-.17-4.18-.5-1.4-.33-2.71-1.02-3.78-1.96-2.13-1.87-3.48-4.77-3.05-7.64.21-1.4.82-2.8,1.9-3.78,1.05-.99,2.36-1.59,3.64-2.09,2.55-1.01,5.31-1.68,7.2-3.57.93-.93,1.53-2.15,1.86-3.43.35-1.28.45-2.63.48-3.98.02-2.7-.08-5.41-.47-8.06-.42-2.63-1.1-5.28-2.62-7.44-.75-1.07-1.7-1.99-2.82-2.66-1.09-.71-2.4-1.15-3.55-.67-1.15.47-1.82,1.7-2.24,2.9-.43,1.23-.64,2.54-.8,3.84-.3,2.65-.95,5.31-2.3,7.65-.68,1.16-1.53,2.23-2.57,3.09-1.05.85-2.26,1.5-3.55,1.87-1.29.37-2.68.46-4.01.16-1.34-.29-2.5-1.07-3.55-1.79-2.07-1.53-4.82-1.83-7.19-.98-1.19.41-2.26,1.11-3.11,2.02-.83.93-1.41,2.07-1.67,3.29-.54,2.42.06,5.13,1.74,6.95,1.65,1.85,4.24,2.78,5.74,5.04.35.56.61,1.2.71,1.86.1.66.07,1.33-.05,1.97-.24,1.29-.77,2.47-1.38,3.6-.62,1.11-1.4,2.18-2.47,2.95-1.06.79-2.45,1.11-3.74.9-1.3-.22-2.45-.84-3.51-1.5-1.07-.66-2.08-1.39-3.15-1.98-2.12-1.22-4.63-1.53-7.04-1.34-2.43.18-4.82.77-7.2,1.32-2.38.58-4.83.99-7.29.92-2.43-.07-4.99-.64-6.92-2.25-.96-.79-1.73-1.8-2.24-2.92-.53-1.11-.86-2.28-1.13-3.46-.52-2.35-.67-4.82-.12-7.18.28-1.17.76-2.33,1.52-3.28.75-.97,1.78-1.69,2.91-2.14,1.13-.46,2.37-.57,3.55-.49,1.19.07,2.35.3,3.49.57,2.27.55,4.49,1.25,6.76,1.46,2.26.23,4.56-.27,6.49-1.43,1.96-1.12,3.59-2.74,5.02-4.47,1.43-1.74,2.67-3.63,3.85-5.53,1.17-1.9,2.27-3.88,2.56-6.05.29-2.12-.28-4.5-1.99-5.8-.83-.66-1.88-.98-2.94-1.05-1.06-.04-2.14.13-3.14.5-2.05.69-3.68,2.17-5.15,3.72-1.48,1.56-2.82,3.27-4.45,4.7-1.62,1.45-3.54,2.53-5.55,3.26-4.04,1.46-8.48,1.57-12.51.41-2.01-.59-3.92-1.51-5.61-2.72-.43-.3-.85-.6-1.22-.96-.38-.35-.79-.67-1.14-1.06-.71-.75-1.33-1.6-1.83-2.51-.48-.92-.85-1.91-.95-2.95-.12-1.04.09-2.11.55-3.04.48-.93,1.19-1.69,1.94-2.37.75-.67,1.55-1.28,2.36-1.87,3.25-2.33,6.92-3.98,10.71-4.89,1.9-.46,3.82-.71,5.63-1.26,1.81-.52,3.52-1.45,4.67-2.91.57-.72,1-1.56,1.15-2.45.17-.89.01-1.82-.36-2.62-.79-1.64-2.51-2.62-4.24-3.09-1.75-.47-3.59-.57-5.36-.24-1.78.29-3.51.79-5.2,1.39-3.37,1.2-6.54,2.78-9.78,4.1-1.62.66-3.26,1.25-4.93,1.7-1.66.48-3.39.74-5.11.61-1.7-.13-3.46-.74-4.58-2.08-1.15-1.31-1.48-3.14-1.24-4.79.24-1.66.97-3.22,2.06-4.45,1.1-1.23,2.46-2.16,3.87-2.89,1.42-.74,2.9-1.31,4.37-1.85,1.47-.53,2.92-1.06,4.36-1.59,2.88-1.06,5.74-2.06,8.48-3.11.66-.29,1.31-.66,1.74-1.2.44-.53.57-1.28.3-1.92-.55-1.3-1.94-2.02-3.21-2.52-2.66-1-5.53-.86-8.22-.57-2.71.33-5.37.75-7.96,1.11-2.6.37-5.14.74-7.62,1.09-1.24.18-2.47.35-3.69.52-1.21.15-2.47.23-3.65-.11-1.18-.34-2.21-1.07-2.93-2.01-.74-.93-1.21-2.03-1.43-3.17-.23-1.13-.22-2.3.08-3.38.3-1.08.81-2.09,1.48-2.94,1.34-1.73,3.16-2.93,5.06-3.68,1.91-.75,3.9-1.03,5.81-1.1,1.92-.06,3.76.1,5.54.3,1.77.23,3.47.43,5.12.31,1.63-.12,3.25-.47,4.42-1.43,1.17-.95,1.61-2.57,1.21-3.88-.4-1.33-1.38-2.34-2.44-2.97-1.08-.65-2.3-.83-3.42-.79-2.26.1-4.12.96-5.66,1.68-1.54.76-2.81,1.44-3.87,1.9-1.06.46-1.9.72-2.47.86-.57.14-.87.17-.87.17,0,0,.07-.02.22-.05.14-.03.36-.07.64-.15.57-.14,1.4-.41,2.46-.88,1.06-.46,2.32-1.15,3.86-1.92,1.54-.73,3.4-1.6,5.69-1.72,1.13-.05,2.38.13,3.48.79,1.09.64,2.1,1.67,2.51,3.04.42,1.36-.03,3.04-1.25,4.03-1.22.99-2.86,1.36-4.51,1.48-1.66.12-3.39-.08-5.15-.3-1.77-.19-3.61-.35-5.51-.28-1.89.07-3.87.35-5.74,1.1-1.87.74-3.66,1.93-4.97,3.62-1.31,1.67-2.01,3.94-1.51,6.16.41,2.17,1.91,4.35,4.21,5,1.13.33,2.35.25,3.56.1,1.21-.17,2.44-.35,3.68-.53,2.48-.36,5.02-.73,7.62-1.1,2.6-.37,5.25-.79,7.97-1.13,2.71-.29,5.62-.45,8.35.58,1.3.52,2.75,1.23,3.38,2.68.31.72.16,1.6-.34,2.2-.49.61-1.17.98-1.85,1.29-2.78,1.07-5.61,2.06-8.5,3.13-1.44.53-2.9,1.06-4.36,1.59-1.46.54-2.93,1.1-4.33,1.84-1.39.73-2.72,1.64-3.78,2.83-1.05,1.18-1.75,2.7-1.98,4.29-.23,1.58.09,3.3,1.17,4.52,1.05,1.25,2.72,1.84,4.36,1.96,1.66.12,3.36-.13,5-.6,1.65-.45,3.27-1.04,4.88-1.69,3.22-1.31,6.4-2.9,9.79-4.11,1.7-.6,3.45-1.11,5.26-1.41,1.81-.35,3.71-.25,5.52.24,1.78.49,3.6,1.5,4.47,3.29.41.88.57,1.89.39,2.85-.16.97-.62,1.86-1.22,2.62-1.2,1.54-3.01,2.51-4.86,3.05-1.86.56-3.78.81-5.65,1.27-3.75.9-7.36,2.54-10.57,4.84-1.56,1.17-3.25,2.37-4.17,4.09-.92,1.75-.56,3.89.4,5.62.48.87,1.08,1.69,1.77,2.42.34.37.74.69,1.11,1.03.36.35.78.65,1.19.94,1.65,1.18,3.52,2.07,5.49,2.65,3.95,1.13,8.31,1.02,12.25-.41,1.96-.72,3.84-1.77,5.41-3.19,1.6-1.4,2.93-3.1,4.42-4.68,1.48-1.57,3.18-3.12,5.32-3.84,1.05-.38,2.18-.57,3.31-.52,1.13.07,2.28.41,3.18,1.14.93.69,1.56,1.72,1.9,2.81.34,1.1.41,2.26.26,3.39-.31,2.28-1.45,4.32-2.62,6.23-1.18,1.92-2.43,3.82-3.88,5.59-1.45,1.76-3.11,3.41-5.14,4.58-1.99,1.21-4.42,1.74-6.76,1.49-2.34-.22-4.58-.93-6.83-1.47-1.13-.26-2.27-.49-3.41-.56-1.14-.08-2.3.04-3.36.46-1.05.42-2.01,1.09-2.71,1.99-.72.89-1.16,1.98-1.43,3.1-.53,2.26-.38,4.67.13,6.97.51,2.29,1.35,4.63,3.21,6.11,1.81,1.51,4.25,2.07,6.62,2.13,2.4.07,4.8-.33,7.17-.91,2.38-.55,4.78-1.15,7.27-1.34,2.47-.2,5.1.12,7.32,1.39,1.11.61,2.12,1.34,3.17,1.99,1.05.65,2.14,1.23,3.33,1.43,1.18.19,2.4-.1,3.37-.81.98-.71,1.72-1.72,2.32-2.79.59-1.08,1.1-2.24,1.32-3.44.24-1.2.07-2.45-.6-3.47-1.34-2.07-3.91-3.02-5.69-4.97-1.8-1.96-2.43-4.83-1.86-7.4.27-1.3.9-2.52,1.79-3.52.91-.98,2.06-1.73,3.32-2.16,1.25-.45,2.62-.6,3.95-.43,1.33.15,2.62.71,3.7,1.46,1.09.74,2.15,1.45,3.38,1.72,1.23.28,2.53.2,3.75-.16,1.22-.35,2.37-.97,3.36-1.78.99-.81,1.8-1.84,2.45-2.95,1.3-2.25,1.93-4.84,2.23-7.45.16-1.32.38-2.66.83-3.95.23-.64.51-1.28.91-1.85.4-.57.95-1.09,1.62-1.36.67-.27,1.43-.31,2.13-.14.7.16,1.31.49,1.9.85,1.18.71,2.19,1.69,2.98,2.81,1.59,2.27,2.28,4.99,2.72,7.66.39,2.7.5,5.42.47,8.15-.03,1.37-.14,2.75-.5,4.1-.35,1.35-.99,2.66-2,3.67-1,1.01-2.26,1.69-3.53,2.23-1.28.54-2.59.96-3.85,1.46-1.26.49-2.51,1.07-3.47,1.98-.97.89-1.53,2.15-1.73,3.47-.4,2.66.85,5.39,2.87,7.16,1.01.89,2.24,1.54,3.54,1.84,1.31.31,2.72.35,4.11.48,1.39.12,2.82.3,4.17.8,1.36.49,2.57,1.36,3.55,2.41,1.96,2.12,3,4.98,3.15,7.84.17,2.87-.43,5.72-1.3,8.43-.44,1.35-.95,2.72-1.79,3.93-.81,1.21-2.05,2.22-3.52,2.57-.73.18-1.51.21-2.25,0-.75-.2-1.41-.64-1.91-1.22-1.02-1.21-1.16-2.81-1.14-4.23.02-1.46.25-2.88.39-4.3.14-1.4.11-2.82-.09-4.22-.2-1.4-.57-2.78-1.1-4.09-.53-1.3-1.26-2.55-2.4-3.33-1.14-.78-2.56-1.07-3.97-1.23-1.42-.14-2.86-.19-4.29-.13-2.86.15-5.71.73-8.41,1.74-2.7,1.01-5.26,2.42-7.52,4.22-1.15.88-2.17,1.9-3,3.07-.84,1.16-1.5,2.47-1.76,3.85-.27,1.38-.02,2.85.81,3.98.82,1.15,2.05,1.99,3.06,3.14.5.57.93,1.27,1.08,2.07.16.79-.04,1.65-.46,2.32-.88,1.35-2.38,2.09-3.87,2.37-1.5.28-2.99.24-4.42.48-1.42.23-2.76.84-3.88,1.75-1.12.9-2.02,2.08-2.57,3.41-.56,1.33-.68,2.81-.62,4.26.12,2.93,1.05,5.84.94,8.92-.04,1.53-.45,3.08-1.26,4.4-.81,1.32-1.91,2.41-3.04,3.41-1.14,1-2.33,1.91-3.41,2.93-1.07,1.02-2.05,2.15-2.66,3.48-.63,1.31-.71,2.82-.34,4.22.19.69.49,1.36.97,1.87.46.51,1.12.82,1.78.82h0s0,0,0,0l-.1-.14c-.21-.28-.42-.59-.61-.91-.38-.64-.67-1.35-.76-2.11-.22-1.52.33-3.03,1.13-4.25,1.65-2.46,4.06-4.2,6.42-5.8,1.17-.82,2.3-1.69,3.27-2.71.95-1.02,1.76-2.22,1.98-3.58.28-1.36-.15-2.72-.8-3.98-.63-1.27-1.46-2.49-1.9-3.94-.9-2.89-.08-6.13,1.85-8.4.95-1.15,2.24-2.04,3.66-2.52,1.41-.49,2.88-.67,4.3-.92,1.41-.25,2.86-.54,4-1.31,1.14-.77,2.08-1.95,2.35-3.28.14-.66.02-1.34-.32-1.91-.33-.58-.89-.99-1.5-1.35-.61-.36-1.28-.67-1.92-1.09-.63-.41-1.23-1.02-1.49-1.8-.29-.87-.16-1.78.09-2.59.26-.82.66-1.56,1.1-2.27.9-1.42,2.1-2.6,3.39-3.64,1.29-1.04,2.68-1.93,4.08-2.77,1.4-.85,2.85-1.63,4.39-2.24,1.53-.6,3.18-1.03,4.86-.98,1.68.04,3.37.65,4.63,1.78,1.28,1.11,2.12,2.61,2.7,4.15.59,1.55.88,3.18,1.12,4.78.24,1.6.43,3.21.8,4.76.36,1.55.93,3.05,1.86,4.31.92,1.26,2.16,2.33,3.63,2.77,1.46.46,3.1.19,4.38-.66,1.31-.82,2.29-2.11,3.09-3.45.8-1.36,1.41-2.83,1.92-4.34,1.05-3,1.92-6.1,2-9.25.11-3.12-.77-6.32-2.73-8.74-.96-1.21-2.23-2.16-3.66-2.74-1.44-.57-3-.81-4.56-1.06-1.55-.26-3.17-.51-4.65-1.25-1.44-.73-2.78-1.83-3.47-3.37-.34-.77-.44-1.65-.28-2.48.15-.84.58-1.59,1.12-2.21,1.09-1.25,2.6-2.01,4.08-2.54,1.49-.55,3-.96,4.32-1.73,1.32-.76,2.43-1.86,3.22-3.16,1.61-2.62,2.15-5.76,2.32-8.83.13-3.08,0-6.2-.45-9.24-.47-3.01-1.45-6.05-3.51-8.27-2.03-2.24-5.19-3.26-8.16-2.88-2.99.34-5.69,2.15-7.38,4.61-.86,1.23-1.43,2.62-1.81,4.08-.38,1.46-.65,2.97-1.09,4.45-.43,1.47-1.12,2.97-2.34,4.03-.61.52-1.33.89-2.08,1.14-.76.22-1.55.31-2.33.31-3.1-.05-6.04-1.2-8.97-.81-1.45.18-2.81.82-4.1,1.56-1.28.76-2.59,1.53-3.74,2.44-1.15.9-2.11,2.08-2.34,3.49-.24,1.4.22,2.85.95,4.1,1.44,2.56,4.05,4.25,5.7,6.84.41.64.76,1.33.96,2.09.2.75.25,1.54.16,2.31-.09.77-.33,1.53-.74,2.2-.41.67-1.04,1.24-1.8,1.51-.75.27-1.58.31-2.34.08-.76-.22-1.43-.63-2.03-1.08-1.2-.92-2.2-2.01-3.33-2.91-1.1-.93-2.4-1.57-3.82-1.75-1.41-.21-2.86-.07-4.27.24-2.82.61-5.47,1.93-8.36,2.54-2.87.67-6.09.24-8.53-1.49-1.21-.86-2.24-2.03-2.78-3.44-.54-1.4-.62-2.96-.25-4.4.36-1.44,1.19-2.81,2.48-3.63,1.26-.83,2.79-1.11,4.24-1.09,1.46.02,2.88.26,4.28.46.7.1,1.4.19,2.1.22.35.02.7.05,1.05.05l1.05-.03c5.6-.25,11-2.89,14.74-6.96.96-1,1.76-2.13,2.5-3.3.68-1.2,1.29-2.43,1.74-3.74.87-2.6,1.18-5.41.65-8.07-.5-2.67-2.03-5.1-4.24-6.63-1.09-.77-2.35-1.32-3.65-1.54-1.31-.23-2.66-.08-3.91.35-2.52.9-4.51,2.84-6.41,4.73-1.89,1.91-3.83,3.9-6.23,5.22-4.72,2.72-10.46,3.51-15.66,2.15-.65-.18-1.28-.36-1.92-.61-.32-.13-.65-.31-.91-.6-.26-.28-.41-.64-.49-.99-.24-1.38-.14-2.72.14-4.03.58-2.62,1.95-5.04,3.89-6.86,1.91-1.83,4.39-3.11,7.02-3.43,2.6-.34,5.22-.05,7.6-.96,2.38-.83,4.58-2.22,6.33-4,.85-.9,1.65-1.89,2.11-3.04.48-1.13.64-2.38.4-3.56l-.24-.88-.41-.82c-.26-.55-.65-1.02-1.08-1.44-.88-.84-1.97-1.44-3.11-1.9-2.3-.88-4.75-1.47-7.18-1.72-2.44-.26-4.9,0-7.26.62-2.35.63-4.6,1.6-6.75,2.72-2.16,1.11-4.23,2.36-6.3,3.61-1.04.62-2.1,1.23-3.25,1.65-1.14.42-2.41.65-3.64.43-1.21-.21-2.41-.81-3.15-1.85-.74-1.04-.83-2.45-.39-3.6.41-1.17,1.21-2.17,2.2-2.87.99-.71,2.11-1.16,3.24-1.53,1.13-.36,2.26-.64,3.37-.98,1.11-.34,2.21-.71,3.29-1.11,2.16-.81,4.27-1.73,6.31-2.78,2.02-1.05,4.03-2.2,5.84-3.48.42-.34.73-.76.83-1.28.11-.51.05-1.06-.07-1.59-.24-1.06-.79-2.05-1.5-2.87-1.44-1.68-3.53-2.64-5.66-3.11-2.15-.48-4.36-.57-6.55-.64-4.38-.09-8.72.29-12.91,1.12-2.11.4-4.14.99-6.21,1.51-2.05.49-4.29.78-6.35,0-.5-.18-1.05-.54-1.25-1.12-.2-.56-.13-1.14.01-1.66.33-1.02.79-1.98,1.42-2.83,1.22-1.73,2.92-3.04,4.78-3.94,1.87-.88,3.91-1.38,5.95-1.42,2.05-.05,4.03.35,6,.6,1.95.26,3.95.44,5.81-.07,1.86-.48,3.48-1.72,4.35-3.41.9-1.65,1.15-3.67.51-5.42-.6-1.76-1.94-3.23-3.58-4.04-1.65-.82-3.59-.82-5.34-.39-1.77.44-3.44,1.24-5.09,2-1.65.76-3.32,1.52-5.1,1.92-1.77.4-3.59.47-5.36.24-1.77-.23-3.48-.76-5.04-1.57-1.56-.8-2.96-1.83-4.32-2.86-1.36-1.03-2.68-2.08-4.09-2.98-1.41-.89-2.91-1.61-4.48-2-1.57-.4-3.23-.43-4.74.06-1.51.5-2.76,1.54-4.14,2.35-.71.39-1.38.76-2.1,1.12-.71.34-1.47.64-2.29.67-.41.01-.82-.06-1.2-.25-.37-.18-.67-.46-.94-.74-.53-.58-.99-1.17-1.66-1.5-.64-.34-1.41-.45-2.07-.17-.67.26-1.14.89-1.14,1.61-.02,1.45.84,2.8,1.95,3.67,1.12.9,2.53,1.34,3.94,1.43,1.41.09,2.81-.15,4.15-.51.67-.18,1.34-.4,2.05-.47.7-.07,1.45.05,2.06.45.62.39.94,1.16.89,1.86-.03.71-.3,1.36-.63,1.95-.69,1.18-1.69,2.08-2.52,3.06-.85.98-1.65,1.98-2.29,3.06-.64,1.08-1.14,2.24-1.31,3.44-.09.6-.09,1.21-.1,1.82,0,.61.02,1.2.13,1.78.24,1.16.69,2.27,1.08,3.35.23.47.74.86,1.25.97.27.05.51-.02.6-.26.1-.24.13-.52.15-.79.01-.28,0-.56-.02-.83l-.04-.42c-.03-.16,0-.23-.11-.32-.39-.45-.58-1-.69-1.55-.18-1.1-.11-2.23.25-3.25.35-1.01.77-1.99,1.42-2.83.73-.75,1.46-1.43,2.11-2.18,1.32-1.48,2.33-3.14,2.8-4.92.23-.88.37-1.79.38-2.66-.01-.43-.12-.87-.43-1.14-.29-.27-.8-.32-1.08-.71-.28-.36-.36-.85-.23-1.27.13-.44.55-.72.95-.83.81-.22,1.63-.16,2.41-.08,3.12.39,5.79,1.5,8.04,2.63,2.27,1.13,4.22,2.21,5.97,2.98,1.75.78,3.3,1.26,4.57,1.48,1.27.23,2.26.22,2.91.18.65-.06.98-.1.98-.1Z"/>
  </g>
  <g class="cls-1">
    <path class="cls-4" d="M103.15,75.48c-1.76,3.37-6.55,5.08-9.64,2.86-1.26-.91-2.41-2.42-3.95-2.2-2.32.33-2.12,3.96-.5,5.64s4.06,2.8,4.74,5.04c1.28,4.24-4.85,8.09-3.63,12.35,6.17-1.59,11.71-6.77,17.97-5.58,4.05.77,7.21,4.25,8.54,8.16s1.08,8.18.35,12.24c-.43,2.4-1,5.03.18,7.17.84,1.53,2.42,2.49,3.93,3.37,3.66,2.14,7.57,4.35,11.81,4.31.61-4.86-3.94-9.5-2.66-14.23,1.49-5.48,9.6-6.81,11.37-12.21.64-1.95.3-4.08.4-6.13.23-4.67,3.28-9.34,7.79-10.57,4.51-1.23,9.99,1.94,10.39,6.6.16,1.85-.41,3.68-.52,5.54s.42,3.98,2.05,4.85c1.92,1.02,4.22-.15,6.39-.38,3.77-.4,7.42,2.43,8.61,6.03s.18,7.67-1.99,10.78c-1.43,2.05-3.37,3.8-4.28,6.13-1.86,4.78,1.74,10.52,6.66,11.96,1.57.46,3.28.59,4.68,1.44,1.92,1.16,2.87,3.43,3.35,5.62,1.22,5.5.03,11.76-4.05,15.65-3.95,3.77-9.74,4.71-15.14,5.48-.75.11-1.53.21-2.25,0-2-.57-2.65-3.1-2.49-5.17s.79-4.24.01-6.16c-.87-2.15-3.22-3.29-5.47-3.86-.82-.21-1.71-.36-2.48-.02-1.49.67-1.64,2.69-1.58,4.32.24,6.5-.22,14.01-5.41,17.93-3.87,2.92-9.14,2.84-13.81,4.15-1.57.44-3.26,1.21-3.85,2.72-.44,1.12-.18,2.38.07,3.56,1.06,5.1,1.48,10.97-1.88,14.95-3.86,4.58-9.44,7.22-14.9,9.67-4.62,2.08-5.22,8.84-6.17,7.81-1.09-1.51,2.51-7.15,5.4-10.27,3.05-3.28,5.51-7,8.75-10.16,1.04-1.01,2.12-2.01,2.81-3.27,1.82-3.32.55-7.46,1.27-11.18,1.27-6.6,8.35-10.35,14.91-11.78,3.5-.76,7.72-1.62,9-4.96.67-1.75.3-3.7.04-5.56-.49-3.6-.45-7.4,1.1-10.68,1.56-3.28,4.91-5.9,8.54-5.7,3.35.18,6.26,2.71,7.6,5.78s1.33,6.58.75,9.88c-.21,1.2-.38,2.68.61,3.39.82.58,1.95.25,2.87-.15,3.78-1.66,7.3-4.44,8.69-8.33s0-8.9-3.75-10.63c-1.54-.71-3.32-.84-4.78-1.7-2.14-1.26-3.12-3.78-3.96-6.11-1.58-4.38-3.06-9.61-.35-13.4,1.04-1.46,2.59-2.47,3.82-3.77s2.2-3.14,1.66-4.85c-.58-1.85-2.68-2.78-4.6-2.99-1.92-.22-3.91.04-5.78-.48-3.44-.95-5.81-4.8-5.1-8.3.24-1.2.79-2.33,1.04-3.53.48-2.33-.32-4.95-2.21-6.38s-4.85-1.39-6.52.29c-1.82,1.83-1.74,4.8-1.2,7.32.53,2.53,1.39,5.14.69,7.63-.91,3.22-4.1,5.17-7.06,6.73-1.27.67-2.58,1.36-3.49,2.46-2.08,2.5-1.49,6.25-.35,9.29,1.14,3.04,2.76,6.11,2.4,9.35s-3.99,6.28-6.78,4.61c-1.33-.79-1.98-2.33-2.93-3.55-3.55-4.58-11.32-4.8-13.87-10-1.22-2.5-.83-5.45-.51-8.22.43-3.7.65-7.55-.59-11.07s-4.26-6.64-7.97-6.93c-3.67-.29-6.93,2.09-10.32,3.54s-8.2,1.51-9.83-1.79c-2.23-4.52,3.96-9.41,2.97-14.35-.65-3.22-4.27-5.66-3.78-8.91.55-3.59,5.44-4.41,8.97-3.56,1.14.28,2.34.63,3.47.29,2.01-.62,2.73-3.3,1.99-5.27-1.7-4.52-8.71-8.09-13.06-9.33-.94-.27-1.89-.47-2.79-.86-6.03-2.58-8.59-9.8-13.89-13.52-3.25-2.28-7.25-3.73-9.58-6.95-1.98-2.72-2.54-6.45-5.1-8.63-1.16-.98-2.61-1.54-3.88-2.37-4.08-2.66-5.85-8.38-3.98-12.88.11-.26.25-.54.52-.65.75-.28,1.02.95.92,1.74-.51,3.98,1.71,8.16,5.29,9.96,1.95.98,4.16,1.28,6.34,1.45.7.05,1.43.11,2,.52.88.63,1.04,1.84,1.21,2.91.31,1.96.88,3.9,1.84,5.64,1.51,2.74,3.88,4.88,6.27,6.91,7.19,6.11,14.86,11.67,22.9,16.61,5.77,3.54,12.73,9.18,8.71,16.87Z"/>
    <path class="cls-4" d="M103.15,75.48s.08-.2.25-.59c.08-.19.19-.44.31-.73.12-.29.19-.65.31-1.05.23-.8.32-1.85.22-3.08-.15-1.22-.62-2.61-1.49-3.98-1.73-2.78-4.95-5.37-9.04-7.8-4.06-2.51-8.66-5.56-13.62-9.28-2.48-1.86-5.06-3.89-7.7-6.1-2.6-2.21-5.52-4.54-7.34-7.93-.89-1.69-1.45-3.57-1.76-5.53-.15-.95-.29-2-1-2.64-.72-.63-1.81-.55-2.82-.67-2.03-.2-4.17-.55-6.06-1.63-1.88-1.07-3.4-2.82-4.25-4.88-.43-1.03-.7-2.14-.77-3.28-.15-1.12.37-2.38-.25-3.2-.14-.16-.37-.15-.53,0-.16.15-.27.41-.36.68-.21.53-.36,1.07-.47,1.63-.22,1.12-.24,2.28-.08,3.43.33,2.29,1.38,4.53,3.08,6.21.84.85,1.87,1.48,2.96,2.05,1.08.58,2.22,1.19,3.07,2.17,1.74,1.92,2.43,4.46,3.65,6.68.59,1.13,1.39,2.13,2.33,2.99.95.86,2.03,1.59,3.15,2.27,2.23,1.36,4.69,2.55,6.69,4.45,1.99,1.88,3.6,4.12,5.34,6.27,1.73,2.14,3.65,4.25,6.18,5.47,1.22.67,2.65.87,4.03,1.33,1.38.44,2.72,1,4.03,1.65,2.59,1.31,5.16,2.92,7.08,5.27.46.6.9,1.23,1.19,1.94.34.69.5,1.49.46,2.27-.03.78-.24,1.56-.65,2.25-.41.68-1.08,1.24-1.88,1.45-1.63.42-3.12-.37-4.58-.51-1.48-.2-3.03-.12-4.46.34-1.42.44-2.73,1.45-3.06,2.91-.39,1.46.27,2.95,1.1,4.24.82,1.32,1.84,2.58,2.39,4.14.54,1.57.34,3.32-.24,4.83-.55,1.54-1.32,2.96-1.97,4.42-.62,1.45-1.23,3.02-.94,4.56.22,1.55,1.35,2.87,2.85,3.4,1.48.56,3.17.54,4.75.23,1.6-.29,3.08-1.04,4.57-1.79,1.49-.74,2.99-1.54,4.64-2.04,1.63-.51,3.45-.65,5.14-.13,1.69.5,3.16,1.57,4.3,2.88,1.15,1.32,2,2.9,2.5,4.58.5,1.68.7,3.44.72,5.19.02,1.75-.13,3.5-.33,5.25-.2,1.74-.42,3.48-.28,5.2.07.86.25,1.7.57,2.5.33.79.81,1.5,1.37,2.15,1.18,1.26,2.72,2.16,4.3,2.94,1.59.78,3.25,1.49,4.83,2.39,1.58.88,3.05,2.11,4.07,3.66.51.76.96,1.54,1.58,2.14.6.62,1.4.99,2.24,1.02,1.71-.01,3.29-1.23,4.16-2.74.93-1.52.91-3.41.53-5.16-.38-1.77-1.12-3.46-1.81-5.19-.7-1.72-1.3-3.55-1.41-5.46-.06-.95,0-1.93.27-2.87.27-.94.77-1.82,1.44-2.53,1.39-1.42,3.23-2.08,4.81-3.05,1.61-.94,3.17-2.03,4.28-3.5,1.14-1.46,1.54-3.35,1.31-5.21-.18-1.87-.79-3.69-1.08-5.62-.26-1.9-.26-4.04.9-5.77,1.15-1.75,3.47-2.43,5.42-1.94,2.03.43,3.61,2.14,4.17,4.08.31.97.38,2,.26,3.01-.13,1.02-.51,1.95-.81,2.87-.67,1.8-.54,3.79.33,5.5.85,1.69,2.37,3.08,4.19,3.61,1.84.54,3.84.26,5.86.5,1.02.13,2.03.42,2.92.96.89.53,1.67,1.4,1.92,2.46.27,1.07-.02,2.17-.49,3.09-.47.93-1.18,1.72-1.92,2.41-1.48,1.37-3.13,2.56-3.89,4.38-.8,1.78-.86,3.82-.58,5.78.29,1.97.89,3.9,1.57,5.8.68,1.89,1.37,3.84,2.72,5.27.67.72,1.51,1.22,2.45,1.54.94.33,1.95.53,2.94.89,2.03.71,3.6,2.43,4.35,4.4.78,1.97.9,4.19.33,6.23-.59,2.05-1.8,3.86-3.31,5.32-1.51,1.47-3.3,2.63-5.2,3.52-.47.22-.96.45-1.49.59-.52.14-1.12.22-1.7.02-.58-.19-1.04-.7-1.22-1.26-.18-.56-.18-1.13-.13-1.66.33-2.1.62-4.11.46-6.18-.14-2.04-.66-4.09-1.74-5.82-1.07-1.73-2.67-3.17-4.58-3.88-1.9-.74-4.07-.53-5.89.41-1.81.94-3.32,2.48-4.28,4.3-.96,1.83-1.41,3.9-1.52,5.97-.13,2.08.11,4.15.43,6.24.14,1.05.24,2.13.07,3.22-.16,1.09-.67,2.13-1.41,2.94-1.54,1.62-3.68,2.3-5.69,2.82-2.05.5-4.08.87-6.02,1.57-1.94.69-3.81,1.58-5.5,2.73-1.7,1.14-3.17,2.6-4.23,4.32-1.06,1.73-1.55,3.73-1.58,5.76-.07,2.03.15,4.11-.16,6.19-.15,1.04-.49,2.07-1.02,2.99-.55.92-1.27,1.69-2,2.41-3,2.77-5.37,6.08-8,9.19-.65.78-1.36,1.54-2.02,2.28-.66.76-1.27,1.55-1.86,2.36-1.16,1.62-2.25,3.34-2.9,5.18-.15.45-.26.94-.22,1.36.01.1.01.21.07.28l.05.12s.04-.02-.01.06c-.01.12-.01-.03-.04-.05,0,0,.04-.03.06-.06.06-.07.12-.17.17-.27.43-.85.78-1.83,1.23-2.73.88-1.81,2.11-3.59,3.96-4.6,3.65-1.68,7.26-3.3,10.49-5.55,3.14-2.25,6.26-5.04,6.97-8.9.42-1.87.44-3.83.28-5.74-.14-1.94-.57-3.79-.91-5.74-.14-.97-.07-2.1.55-2.98.6-.88,1.51-1.42,2.42-1.8,1.86-.71,3.77-1.01,5.66-1.37,1.89-.34,3.77-.67,5.56-1.26,1.78-.59,3.47-1.47,4.78-2.79,1.32-1.3,2.29-2.93,2.94-4.66.64-1.75.99-3.59,1.19-5.44.19-1.85.23-3.72.19-5.57-.02-.92-.1-1.87.01-2.83.11-.93.38-2,1.25-2.64.42-.31.94-.47,1.44-.49.5-.02.99.07,1.45.18.92.22,1.81.52,2.66.94.85.42,1.65.96,2.29,1.69.64.72,1.07,1.64,1.21,2.59.29,1.91-.26,3.74-.33,5.5-.02.88.09,1.77.4,2.57.31.8.85,1.52,1.61,1.84.76.34,1.65.22,2.53.09l2.66-.4c1.77-.29,3.51-.65,5.21-1.16,1.69-.51,3.33-1.19,4.81-2.11,1.47-.94,2.8-2.1,3.79-3.52,2.04-2.81,2.91-6.33,2.87-9.74-.03-1.71-.26-3.42-.75-5.05-.49-1.6-1.31-3.17-2.66-4.11-1.35-.95-3.1-1.09-4.75-1.56-1.68-.48-3.2-1.42-4.42-2.63-1.2-1.23-2.17-2.71-2.65-4.36-.28-.81-.37-1.68-.4-2.53.03-.85.12-1.72.42-2.52.54-1.64,1.63-2.97,2.66-4.24,1.05-1.27,2.08-2.52,2.78-3.97,1.43-2.84,1.91-6.25.78-9.2-1.11-2.91-3.85-5.18-6.9-5.5-1.52-.16-3.01.36-4.57.65-.78.14-1.6.22-2.41.02-.8-.18-1.54-.67-2.03-1.33-.97-1.34-1.13-3.03-.97-4.56.16-1.54.54-3.02.51-4.5,0-.74-.17-1.45-.4-2.14-.28-.67-.62-1.32-1.1-1.88-.9-1.15-2.16-1.97-3.49-2.52-1.34-.54-2.82-.72-4.23-.55-1.41.2-2.75.81-3.9,1.63-2.29,1.7-3.81,4.29-4.4,7.01-.69,2.71.26,5.62-.78,8.36-.5,1.35-1.42,2.47-2.45,3.4-1.03.93-2.16,1.71-3.27,2.48-1.11.77-2.21,1.54-3.17,2.44-.96.89-1.78,1.94-2.21,3.15-.45,1.2-.47,2.52-.23,3.77.23,1.26.68,2.47,1.14,3.67.46,1.2.93,2.39,1.26,3.63.16.62.28,1.25.34,1.89,0,.32.05.64.03.96l-.03.49-.02.38c-.05.08-.23.02-.34.04-2.63-.02-4.99-.83-7.2-1.87-1.1-.52-2.17-1.1-3.2-1.69-1.03-.6-2.07-1.17-3.05-1.85-.97-.68-1.88-1.52-2.39-2.62-.52-1.08-.63-2.3-.57-3.44.06-1.15.28-2.27.48-3.37.2-1.1.37-2.19.48-3.28.46-4.32-.02-8.77-2.29-12.18-1.11-1.69-2.57-3.12-4.29-4.03-1.71-.94-3.66-1.24-5.51-1.05-1.86.17-3.62.78-5.26,1.5-1.65.71-3.22,1.52-4.78,2.26-1.56.74-3.1,1.4-4.72,1.84-.13.02-.3.12-.39.09l-.08-.42c-.03-.21-.1-.41-.09-.62v-.62c.02-.2.07-.4.1-.6.16-.8.47-1.54.84-2.23.72-1.39,1.59-2.62,2.23-3.93.67-1.28,1-2.72.63-4.03-.4-1.3-1.42-2.24-2.4-3.04-.98-.82-2.03-1.52-2.74-2.53-.66-1.02-.93-2.23-.76-3.34.09-.55.33-1.09.76-1.45.42-.35.98-.49,1.5-.44,1.06.13,1.81.85,2.5,1.43.68.6,1.36,1.15,2.13,1.42,1.53.57,3.03.4,4.19.03,1.17-.39,2.05-.97,2.68-1.52,1.27-1.1,1.55-1.98,1.59-1.94,0,0-.1.19-.31.56-.23.35-.6.88-1.24,1.43-.63.56-1.51,1.15-2.69,1.56-1.17.38-2.7.57-4.26,0-.79-.27-1.49-.83-2.17-1.43-.69-.57-1.43-1.27-2.43-1.38-.48-.04-1,.09-1.39.41-.39.32-.62.83-.7,1.36-.16,1.06.11,2.24.74,3.22.67.96,1.73,1.66,2.72,2.48.99.8,2.04,1.75,2.47,3.12.4,1.37.04,2.88-.63,4.18-.65,1.33-1.52,2.57-2.22,3.94-.36.68-.65,1.41-.81,2.17-.03.19-.07.38-.09.58v.59c-.01.2.06.39.08.58l.03.18s.11-.03.17-.04c1.55-.43,3.1-1.09,4.65-1.83,1.55-.73,3.12-1.55,4.78-2.27,1.66-.72,3.43-1.35,5.34-1.53,1.89-.19,3.91.11,5.67,1.07,1.77.94,3.27,2.39,4.4,4.12,2.33,3.49,2.82,8.01,2.36,12.38-.11,1.1-.28,2.2-.48,3.31-.2,1.1-.41,2.21-.47,3.33-.06,1.12.05,2.27.55,3.28.48,1.02,1.34,1.82,2.29,2.48.96.66,2,1.23,3.03,1.83,1.04.59,2.09,1.16,3.18,1.68,1.09.51,2.22.96,3.39,1.3,1.15.32,2.43.52,3.58.53.03,0,.07.01.08,0v-.09s.03-.45.03-.45c.02-.3-.02-.61-.03-.92-.06-.61-.18-1.22-.33-1.83-.32-1.21-.79-2.39-1.25-3.59-.46-1.2-.92-2.43-1.16-3.73-.25-1.29-.23-2.69.24-3.97,2.06-5.32,8.96-6.27,11.08-11.47.99-2.55.06-5.47.76-8.31.61-2.81,2.17-5.49,4.56-7.26,1.2-.86,2.59-1.5,4.09-1.71,1.49-.19,3.04,0,4.45.57,1.4.57,2.72,1.44,3.67,2.65.5.59.87,1.28,1.17,2,.25.73.43,1.51.43,2.29.03,1.56-.36,3.06-.5,4.56-.16,1.47.02,3.06.89,4.25.43.58,1.06,1,1.77,1.16.71.17,1.47.1,2.22-.03,1.49-.28,3.04-.83,4.69-.66,3.25.34,6.11,2.73,7.29,5.79,1.19,3.1.69,6.64-.79,9.58-1.43,3.03-4.34,5.07-5.41,8.15-.29.75-.37,1.56-.4,2.37.04.8.12,1.62.38,2.39.46,1.57,1.39,2.98,2.53,4.15,1.17,1.16,2.61,2.05,4.2,2.5,1.58.45,3.4.58,4.9,1.62,1.49,1.04,2.34,2.71,2.85,4.37.51,1.68.74,3.43.77,5.19.04,3.5-.85,7.12-2.96,10.05-1.03,1.47-2.41,2.69-3.93,3.65-1.53.96-3.21,1.65-4.93,2.17-1.73.51-3.5.88-5.28,1.17l-2.68.41c-.88.12-1.87.28-2.81-.12-.93-.4-1.55-1.25-1.89-2.13-.35-.89-.46-1.84-.44-2.78.09-1.86.61-3.65.33-5.4-.24-1.76-1.6-3.14-3.22-3.89-.81-.4-1.67-.68-2.55-.9-.86-.21-1.79-.29-2.45.22-.67.48-.93,1.39-1.03,2.27-.1.89-.03,1.82,0,2.76.04,1.87,0,3.76-.19,5.64-.2,1.88-.56,3.76-1.22,5.57-.67,1.79-1.68,3.5-3.07,4.86-1.38,1.38-3.16,2.31-4.99,2.91-1.84.61-3.74.94-5.63,1.28-1.87.35-3.8.66-5.54,1.34-.86.36-1.68.86-2.17,1.6-.52.73-.58,1.68-.46,2.6.74,3.74,1.49,7.75.63,11.68-.41,1.95-1.33,3.84-2.71,5.3-1.32,1.5-2.86,2.79-4.49,3.93-3.27,2.28-6.96,3.94-10.54,5.59-1.7.92-2.87,2.59-3.72,4.35-.45.89-.77,1.81-1.24,2.75-.06.12-.13.24-.23.36-.06.06-.1.13-.22.19-.08.06-.28.11-.41.04-.14-.04-.21-.13-.28-.22l-.11-.22c-.08-.15-.09-.29-.11-.44-.05-.58.08-1.1.25-1.6,1.46-3.87,4.18-7.04,6.89-10.01,2.6-3.08,5.01-6.43,8.03-9.23.72-.71,1.41-1.45,1.91-2.3.49-.85.81-1.8.95-2.79.3-1.99.09-4.04.16-6.12.03-2.08.55-4.23,1.66-6.03,1.11-1.8,2.65-3.32,4.4-4.49,1.74-1.18,3.65-2.1,5.63-2.8,1.98-.72,4.07-1.1,6.07-1.59,1.98-.51,4.02-1.19,5.41-2.66.67-.74,1.12-1.66,1.27-2.65.15-.99.06-2.03-.07-3.06-.31-2.07-.56-4.21-.43-6.34.11-2.13.57-4.28,1.59-6.21,1.01-1.92,2.59-3.54,4.52-4.55,1.92-1,4.3-1.24,6.34-.44,2.05.76,3.73,2.29,4.86,4.11,1.14,1.84,1.68,3.97,1.82,6.08.17,2.11-.15,4.26-.46,6.27-.04.5-.04,1,.1,1.43.14.43.45.76.86.9.85.27,1.86-.16,2.76-.59,1.85-.87,3.59-2,5.04-3.42,1.45-1.41,2.61-3.15,3.16-5.07.54-1.92.42-4.02-.31-5.87-.72-1.85-2.15-3.42-4.02-4.08-.93-.34-1.94-.54-2.93-.89-.99-.33-1.96-.9-2.67-1.68-1.47-1.57-2.15-3.58-2.84-5.47-.68-1.92-1.29-3.88-1.59-5.91-.3-2.02-.24-4.17.62-6.09.42-.96,1.05-1.81,1.78-2.53.72-.73,1.51-1.36,2.23-2.03.73-.67,1.37-1.4,1.81-2.26.43-.84.67-1.81.45-2.7-.21-.89-.86-1.64-1.66-2.12-.81-.49-1.75-.76-2.7-.88-1.92-.23-3.96.06-5.95-.52-1.99-.59-3.61-2.09-4.53-3.9-.45-.91-.74-1.91-.8-2.93-.07-1.02.12-2.06.44-2.99.31-.94.67-1.84.78-2.77.11-.93.04-1.88-.24-2.78-.52-1.79-1.94-3.32-3.77-3.7-1.78-.44-3.84.17-4.85,1.72-1.04,1.53-1.07,3.54-.81,5.38.28,1.86.89,3.7,1.09,5.65.1.97.09,1.97-.15,2.93-.23.96-.67,1.87-1.27,2.65-1.19,1.57-2.81,2.69-4.44,3.65-1.63.98-3.44,1.66-4.7,2.95-.61.65-1.07,1.44-1.31,2.31-.24.87-.31,1.78-.25,2.69.11,1.83.68,3.59,1.37,5.3.68,1.72,1.43,3.43,1.83,5.28.2.92.3,1.87.23,2.82-.05.95-.35,1.91-.83,2.72-.95,1.62-2.63,2.97-4.62,3-.98-.03-1.94-.49-2.6-1.17-.68-.68-1.14-1.48-1.64-2.23-.97-1.48-2.34-2.63-3.89-3.5-1.54-.88-3.19-1.58-4.8-2.38-1.6-.8-3.2-1.72-4.45-3.06-.6-.69-1.12-1.46-1.47-2.31-.34-.85-.53-1.75-.6-2.65-.15-1.8.09-3.57.29-5.3.2-1.73.35-3.46.33-5.18-.02-1.72-.21-3.43-.69-5.06-.48-1.62-1.29-3.13-2.39-4.4-1.09-1.26-2.49-2.27-4.07-2.74-1.58-.49-3.28-.36-4.85.13-1.59.48-3.07,1.26-4.56,2.01-1.48.75-3.02,1.52-4.7,1.82-1.65.33-3.4.35-5.01-.25-.8-.3-1.54-.79-2.1-1.45-.55-.66-.92-1.47-1.05-2.32-.16-.84-.06-1.71.14-2.51.19-.82.52-1.57.83-2.32.66-1.49,1.43-2.9,1.96-4.39.56-1.47.73-3.07.24-4.53-.5-1.46-1.5-2.71-2.34-4.05-.42-.67-.81-1.38-1.06-2.16-.24-.78-.3-1.63-.1-2.43.19-.8.65-1.54,1.26-2.07.61-.54,1.34-.92,2.1-1.16,1.52-.48,3.11-.56,4.66-.35,1.55.18,3,.9,4.4.53,1.4-.36,2.17-1.88,2.21-3.28.09-1.45-.69-2.78-1.56-3.92-1.84-2.27-4.37-3.87-6.93-5.16-1.29-.64-2.62-1.19-3.97-1.63-1.33-.45-2.8-.65-4.08-1.36-2.62-1.27-4.58-3.44-6.31-5.59-1.74-2.16-3.34-4.39-5.3-6.24-1.94-1.85-4.37-3.03-6.62-4.41-1.13-.68-2.23-1.44-3.21-2.32-.97-.89-1.81-1.94-2.41-3.09-1.23-2.27-1.93-4.79-3.59-6.61-1.63-1.84-4.29-2.36-6.01-4.21-1.76-1.74-2.84-4.05-3.17-6.41-.16-1.18-.14-2.38.09-3.54.12-.58.27-1.14.49-1.69.1-.27.2-.57.46-.81.25-.25.76-.26,1,.03.42.55.43,1.17.38,1.76-.06.55-.09,1.1-.05,1.65.07,1.1.33,2.18.74,3.18.82,2,2.29,3.7,4.11,4.74,1.82,1.05,3.92,1.4,5.93,1.6.51.05,1.01.07,1.53.14.51.07,1.05.23,1.46.6.82.76.93,1.87,1.09,2.81.3,1.93.84,3.79,1.72,5.44,1.78,3.33,4.66,5.65,7.26,7.86,2.63,2.21,5.2,4.24,7.67,6.11,4.95,3.73,9.53,6.79,13.58,9.32,4.09,2.45,7.32,5.07,9.05,7.88.87,1.39,1.33,2.79,1.48,4.03.09,1.24-.02,2.3-.25,3.1-.12.4-.2.76-.32,1.05-.13.29-.24.53-.33.72-.18.39-.27.58-.27.58Z"/>
  </g>
  <g class="cls-3">
    <path class="cls-4" d="M61.65,56.69c2.48-2.58,5.93-4.02,9.42-4.8,4.04-.9,8.36-.97,12.21.54,3.85,1.51,7.15,4.76,8.03,8.8.89,4.04-1.06,8.72-4.85,10.37-2.32,1.01-5.06.9-7.23,2.19s-2.93,5.22-.52,5.99c.94.3,1.95-.04,2.86-.42,3.5-1.48,6.65-3.69,10.14-5.2,3.48-1.52,7.56-2.3,11.06-.82,2.75,1.17,4.76,3.56,6.5,5.98,1.62,2.25,3.17,4.89,2.68,7.61-.43,2.4-2.35,4.22-4.16,5.86-6.58,5.95-13.16,11.9-19.74,17.86-1.05.95-2.18,2.49-1.31,3.62.35.46.94.66,1.5.79,3.14.76,6.58.15,9.27-1.64,3.3-2.2,5.26-5.88,8-8.74,4.45-4.64,11.17-7.01,17.55-6.2,1.64.21,3.38.7,4.39,2.01.96,1.26,1.01,2.97.95,4.55-.11,3.45-.78,7.33-3.64,9.25-2.09,1.4-5.16,1.61-6.33,3.84-.89,1.69-.15,3.86,1.21,5.2s3.21,2.03,5,2.68c1.63.59,3.26,1.19,4.88,1.78.98.36,1.98.72,3.01.73,2.19.02,4.14-1.57,5.21-3.48,1.07-1.92,1.43-4.13,1.82-6.29.99-5.49,2.31-11.07,5.44-15.68s8.46-8.1,14.01-7.61c4,.35,7.53,2.63,11.32,3.94,5.86,2.04,12.23,1.74,18.4,2.42,4.35.48,9,1.67,11.69,5.11,2.16,2.76,2.62,6.75,1.15,9.93-1.47,3.18-4.81,5.41-8.31,5.56-5.28.22-9.77-3.82-14.94-4.89-5.6-1.16-11.78,1.64-14.61,6.61-.96,1.69-1.56,3.74-.95,5.59,1.27,3.86,6.43,4.39,10.48,4.22,5.08-.22,10.16-.43,15.24-.65,1.28-.05,2.63-.09,3.75.51,1.54.83,2.26,2.64,2.62,4.36.5,2.42.51,5.03-.53,7.28s-3.3,4.02-5.77,4c-2.21-.02-4.5-1.38-6.5-.45-1.59.74-2.24,2.62-2.74,4.31-.9,3.1-1.81,6.2-2.71,9.29-.59,2.02-1.31,4.22-3.1,5.34-3.47,2.16-7.91-1.49-9.12-5.39-1.21-3.9-.8-8.28-2.67-11.91-2.12-4.12-7.24-6.44-11.73-5.33-.76.19-1.55.51-1.94,1.18-.37.65-.28,1.46-.09,2.18.72,2.75,2.6,5.03,3.92,7.56s2.02,5.77.39,8.11c-1.64,2.36-5.31,2.77-7.93,3.38-4.14.96-8.21,1.27-12.07,3.26-4.14,2.13-7.67,6.02-8.07,10.66-.28,3.23.92,6.73-.6,9.6-.99,1.88-2.94,3.03-4.79,4.07-3.28,1.85-6.55,3.71-9.83,5.56-2.26,1.28-4.68,2.6-7.28,2.48-4.35-.2-11.37-8.5-9.28-8.24,2.6,2.93,4.86,4.19,8,4.38,1.94.11,3.57-.13,5.35-.91,3.9-1.69,7.87-3.42,11.08-6.21s5.59-6.86,5.3-11.1c-.16-2.39-1.15-4.72-.88-7.09.5-4.53,5.21-7.32,9.58-8.61,4.37-1.29,9.23-1.96,12.5-5.13.57-.55,1.1-1.22,1.2-2.01.26-2.26-2.77-3.22-4.26-4.94-1.7-1.94-1.24-5.12.41-7.1s4.16-3.03,6.64-3.76c2.98-.88,6.06-1.43,9.17-1.63,1.8-.12,3.72-.08,5.23.89,2.49,1.61,2.88,5.01,3.23,7.95s1.35,6.39,4.18,7.26c3,.92,6.05-1.99,6.58-5.09.16-.95.17-1.95.59-2.82.38-.78,1.06-1.38,1.82-1.81,2.3-1.31,5.12-1.12,7.75-1.47,2.63-.35,5.57-1.72,6.02-4.34.34-1.95-.94-3.92-2.67-4.9s-3.79-1.15-5.77-1.08c-5.83.2-11.51,2.22-17.34,2.29-2.75.03-5.67-.45-7.76-2.23-2.1-1.78-3-5.17-1.35-7.37,1.33-1.77,3.91-2.43,4.83-4.44.56-1.22.35-2.68.88-3.92.93-2.18,3.67-2.83,5.47-4.38,1.81-1.56,2.7-4.08,4.75-5.31,2.5-1.51,5.81-.5,8.2,1.19s4.32,4,6.86,5.45,6.14,1.75,8.1-.42c2.13-2.35,1.1-6.27-1.07-8.59-1.38-1.47-3.14-2.57-5.07-3.16-5.65-1.72-11.74,1.03-17.6.31-5.43-.67-10.64-4.3-15.96-3.01-3.21.78-5.73,3.24-7.83,5.78-2.49,3.02-4.67,6.36-5.89,10.07-.75,2.3-1.12,4.7-1.86,7-.87,2.72-2.32,5.35-4.58,7.11-2.26,1.75-5.43,2.5-8.07,1.4-.95-.4-1.8-1-2.63-1.61-2.84-2.05-5.67-4.09-8.51-6.14-.93-.67-1.9-1.39-2.32-2.46-.54-1.37-.04-2.9.47-4.28,1.23-3.37,2.55-6.88,5.21-9.29.84-.76,1.86-1.5,2.05-2.61.28-1.62-1.53-2.99-3.17-2.91s-3.08,1.1-4.4,2.08c-4.36,3.25-8.72,6.5-13.08,9.75-2.16,1.61-4.37,3.25-6.92,4.13-3.83,1.32-8.26.74-11.61-1.53-.55-.37-1.1-.83-1.29-1.47-.16-.56,0-1.16.19-1.71,3.62-10.64,16.14-16.29,22-25.59,1.34-2.13,2.1-4.75,1.48-7.19-.83-3.3-4.14-5.64-7.54-5.9s-6.76,1.29-9.26,3.6-4.24,5.33-5.65,8.43c-.5,1.1-1.05,2.3-2.14,2.81-2.12.99-4.36-1.38-4.9-3.66s-.35-4.84-1.74-6.72c-.8-1.07-2.03-1.78-2.73-2.92-1.6-2.62.45-6.15,3.18-7.54s5.94-1.43,8.91-2.18c2.15-.54,4.5-1.82,4.8-4.02.24-1.77-.95-3.38-2.07-4.77-1.18-1.47-2.47-3-4.25-3.6-1.22-.41-2.55-.33-3.83-.25-2.55.16-4.7-1.68-7.25-1.51-1.78.11-3.51.99-5.48,1.63-1.95.63-3.93,3.07-4.89,4.91-1.21,2.31-.41,4.13-.16,6.47.15,1.4-1.33.29-1.6-.3-.45-.98-.37-2.49-.29-3.53.2-2.48,1.2-5.02,2.93-6.82Z"/>
    <path class="cls-4" d="M61.65,56.69s-.04.05-.13.15c-.09.1-.22.25-.38.45-.32.41-.79,1.05-1.24,1.99-.45.94-.88,2.17-1.08,3.7-.08.76-.15,1.6-.09,2.49.03.44.1.9.25,1.35.15.44.54.79.96,1.03.2.11.51.18.58-.07.08-.22.02-.49,0-.76-.07-.53-.17-1.08-.26-1.64-.19-1.11-.34-2.36.06-3.58.4-1.21,1.17-2.32,2.03-3.38.89-1.03,1.96-2.1,3.41-2.58,1.41-.45,2.81-1.13,4.4-1.47.79-.17,1.64-.19,2.46-.03.83.16,1.62.45,2.43.74.8.28,1.63.56,2.5.64.86.08,1.76-.08,2.68-.05.92.02,1.87.17,2.73.61.86.43,1.6,1.07,2.27,1.78.67.71,1.28,1.48,1.89,2.26.6.79,1.18,1.66,1.44,2.68.29,1.01.11,2.17-.52,3.05-.62.89-1.56,1.51-2.54,1.95-2.01.88-4.24,1.04-6.44,1.48-2.17.42-4.51,1.03-6.09,2.77-.78.84-1.41,1.88-1.64,3.03-.27,1.14.02,2.38.77,3.3.75.93,1.85,1.6,2.56,2.7.72,1.08.97,2.39,1.15,3.64.2,1.26.26,2.57.75,3.74.5,1.15,1.36,2.24,2.53,2.73.58.23,1.25.24,1.82-.02.58-.25,1.03-.75,1.37-1.3.66-1.13,1.14-2.44,1.81-3.64,1.28-2.43,2.88-4.81,5.06-6.69,2.17-1.85,4.95-3.21,7.95-3.28,2.98-.1,6.08,1.35,7.77,3.97.85,1.3,1.23,2.9,1.12,4.46-.11,1.57-.64,3.09-1.41,4.46-1.62,2.7-3.76,5.08-6.08,7.29-2.31,2.23-4.79,4.33-7.19,6.56-2.4,2.23-4.75,4.61-6.58,7.41l-.68,1.06-.59,1.11c-.43.73-.68,1.53-1.01,2.31-.32.77-.56,1.63-.12,2.29.43.66,1.22,1.08,1.94,1.51,2.97,1.65,6.66,2.09,10,1.11,3.37-1,6.15-3.39,9.05-5.51,2.9-2.16,5.83-4.35,8.79-6.56.74-.55,1.48-1.11,2.23-1.66.74-.55,1.49-1.13,2.32-1.6.83-.47,1.77-.83,2.77-.82,1.01.02,1.98.48,2.64,1.25.33.38.56.88.59,1.41.03.53-.13,1.05-.41,1.48-.55.86-1.38,1.4-2.03,2.06-1.34,1.31-2.34,2.94-3.15,4.67-.79,1.73-1.47,3.56-2.08,5.37-.27.91-.43,1.87-.17,2.74.25.88.95,1.56,1.71,2.14,3.18,2.29,6.38,4.61,9.62,6.94.81.57,1.64,1.1,2.56,1.4.92.29,1.91.39,2.88.29,1.95-.2,3.82-1.1,5.25-2.47,1.45-1.37,2.5-3.13,3.25-5,.76-1.88,1.16-3.89,1.66-5.9.47-2.02,1.16-4.03,2.12-5.89.95-1.88,2.11-3.64,3.39-5.32,1.29-1.67,2.65-3.31,4.3-4.69,1.63-1.38,3.62-2.48,5.8-2.75,2.18-.27,4.37.16,6.43.78,2.07.61,4.08,1.4,6.16,1.93,2.07.57,4.22.7,6.38.52,2.16-.15,4.31-.55,6.51-.76,2.19-.22,4.46-.29,6.65.29,2.19.54,4.22,1.76,5.76,3.44,1.52,1.7,2.48,4.01,2.16,6.36-.16,1.16-.78,2.28-1.72,3.02-.93.76-2.13,1.09-3.29,1.13-1.17.04-2.33-.2-3.41-.63-1.09-.43-2.06-1.08-2.97-1.78-1.82-1.41-3.38-3.08-5.24-4.35-1.83-1.23-4.11-2.07-6.28-1.63-1.07.23-2.02.84-2.76,1.68-.76.83-1.36,1.81-2.08,2.74-.69.94-1.62,1.78-2.64,2.37-1,.62-2.05,1.12-2.91,1.84-.88.71-1.39,1.69-1.51,2.83-.08.57-.13,1.16-.27,1.75-.13.6-.4,1.19-.79,1.68-.79.98-1.85,1.57-2.78,2.24-.95.66-1.8,1.44-2.13,2.51-.35,1.05-.28,2.23.1,3.29.37,1.07,1.04,2.04,1.93,2.74,1.79,1.45,4.19,1.95,6.51,2.03,2.35.06,4.71-.23,7.06-.63,2.35-.4,4.7-.9,7.09-1.25,1.19-.18,2.4-.31,3.62-.37,1.21-.07,2.45-.06,3.67.15,1.22.21,2.43.63,3.45,1.42,1,.78,1.78,1.87,2.06,3.14.29,1.27-.1,2.67-.96,3.63-.85.98-2,1.61-3.17,2.01-2.41.83-4.93.56-7.28,1.05-1.17.24-2.32.65-3.22,1.4-.44.37-.81.82-1.02,1.35-.21.53-.29,1.12-.37,1.73-.18,2.51-1.74,5.03-4.18,6.01-1.22.49-2.69.4-3.82-.29-1.15-.68-1.93-1.81-2.42-2.98-.5-1.18-.78-2.43-.95-3.67-.16-1.25-.29-2.47-.55-3.68-.27-1.19-.65-2.37-1.38-3.33-.71-.96-1.76-1.62-2.94-1.86-1.18-.26-2.42-.22-3.67-.13-1.24.09-2.49.24-3.72.44-2.46.42-4.92,1-7.25,1.91-1.15.46-2.26,1.05-3.21,1.83-.95.78-1.73,1.76-2.13,2.91-.42,1.14-.52,2.41-.15,3.55.35,1.16,1.3,1.97,2.33,2.71.51.38,1.04.74,1.54,1.18.49.44.96.98,1.16,1.69.2.7.05,1.47-.32,2.06-.36.6-.85,1.06-1.34,1.48-1.99,1.75-4.51,2.66-6.97,3.38-2.47.73-5.02,1.2-7.36,2.17-2.33.96-4.58,2.36-6.01,4.44-.72,1.03-1.13,2.23-1.22,3.48-.09,1.25.17,2.51.43,3.77.26,1.26.54,2.58.49,3.92-.04,1.33-.31,2.66-.78,3.9-.95,2.49-2.59,4.67-4.58,6.42-2,1.75-4.3,3.09-6.66,4.25-1.18.58-2.39,1.11-3.59,1.64-1.18.53-2.46,1.07-3.8,1.25-1.34.2-2.69.16-4.02-.06-1.33-.23-2.62-.76-3.74-1.52-1.17-.78-2.17-1.77-3.08-2.79l.18.09h-.05s.03.17.09.3c.11.27.28.54.45.8.36.53.76,1.03,1.19,1.51.86.96,1.8,1.86,2.81,2.66,1.01.8,2.08,1.53,3.25,2,1.16.51,2.43.46,3.67.18,2.48-.59,4.67-2.07,6.94-3.31,2.26-1.28,4.52-2.56,6.77-3.83,1.12-.65,2.27-1.25,3.31-1.97,1.04-.72,1.98-1.58,2.55-2.68.56-1.1.75-2.36.74-3.62,0-1.26-.15-2.54-.21-3.84-.06-1.29,0-2.64.36-3.91.35-1.27.92-2.47,1.65-3.56,1.45-2.18,3.48-3.92,5.75-5.17,2.27-1.27,4.79-1.96,7.29-2.47l3.74-.73,3.71-.8c1.22-.27,2.45-.57,3.55-1.12,1.1-.53,2.05-1.34,2.52-2.45.49-1.09.56-2.34.37-3.55-.2-1.21-.62-2.38-1.18-3.47-1.14-2.2-2.72-4.21-3.63-6.62-.21-.6-.42-1.21-.49-1.88-.08-.65.06-1.44.58-1.96.51-.51,1.17-.74,1.79-.9.63-.14,1.26-.24,1.9-.27,2.56-.12,5.12.72,7.16,2.24,1.02.76,1.91,1.7,2.59,2.78.68,1.08,1.12,2.28,1.44,3.5.62,2.44.73,4.92,1.21,7.31.24,1.19.53,2.37,1.12,3.41.57,1.04,1.33,1.99,2.24,2.75.9.77,1.98,1.33,3.12,1.5,1.14.19,2.31-.2,3.19-.92.88-.74,1.44-1.82,1.87-2.93.42-1.12.72-2.3,1.07-3.46.68-2.33,1.36-4.65,2.03-6.97.34-1.15.65-2.35,1.27-3.44.31-.54.72-1.06,1.24-1.44.53-.38,1.16-.61,1.8-.68,1.29-.12,2.48.27,3.63.51,1.15.27,2.31.36,3.4-.02,2.18-.73,3.82-2.71,4.39-4.93.6-2.23.38-4.66-.26-6.86-.34-1.09-.89-2.14-1.77-2.8-.88-.67-2.05-.8-3.2-.78-4.69.2-9.36.39-14.01.59-2.31.1-4.67.26-6.99-.18-1.15-.21-2.3-.56-3.34-1.16-1.04-.58-1.91-1.53-2.35-2.66-.48-1.12-.47-2.39-.2-3.54.27-1.15.78-2.23,1.43-3.2,1.26-1.97,3.06-3.54,5.09-4.64,2.04-1.08,4.32-1.72,6.62-1.73,2.32-.08,4.56.64,6.63,1.52,2.07.89,4.04,1.95,6.11,2.71,2.05.76,4.27,1.18,6.38.72,2.1-.44,4.04-1.63,5.4-3.27,1.38-1.64,2.1-3.78,2.06-5.9-.02-2.12-.74-4.24-2.08-5.87-1.34-1.65-3.21-2.77-5.19-3.51-4.01-1.47-8.34-1.54-12.55-1.84-4.22-.27-8.49-.63-12.46-2.08-1.98-.72-3.84-1.65-5.75-2.42-1.9-.77-3.87-1.39-5.89-1.41-4.06-.1-7.9,1.93-10.7,4.72-2.85,2.81-4.64,6.49-5.84,10.22-.6,1.88-1.06,3.79-1.45,5.71-.41,1.92-.66,3.85-1.14,5.77-.48,1.89-1.31,3.8-2.83,5.13-.74.66-1.63,1.17-2.61,1.41-.98.25-2.02.11-2.95-.17-1.84-.61-3.59-1.3-5.38-1.94-1.76-.66-3.61-1.24-5.16-2.41-1.54-1.13-2.64-3.06-2.32-5.04.16-.98.79-1.84,1.55-2.41.78-.57,1.65-.93,2.5-1.27.85-.34,1.71-.66,2.46-1.12.75-.46,1.4-1.08,1.9-1.81,1.01-1.46,1.46-3.23,1.7-4.98.12-.88.17-1.77.2-2.65.02-.88,0-1.77-.19-2.6-.19-.84-.6-1.6-1.24-2.15-.63-.55-1.44-.89-2.27-1.11-3.37-.77-6.94-.47-10.16.54-3.24,1.02-6.2,2.81-8.52,5.17-2.33,2.37-4.03,5.27-6.45,7.53-2.39,2.3-5.71,3.52-8.94,3.35-.81-.04-1.6-.16-2.38-.35-.39-.11-.79-.25-1.13-.52-.34-.27-.58-.69-.62-1.13-.07-.9.43-1.64.92-2.25.51-.62,1.13-1.11,1.69-1.63,4.59-4.14,9.04-8.17,13.36-12.07,2.16-1.95,4.28-3.88,6.37-5.77,1.02-.96,1.97-1.99,2.6-3.2.65-1.2.84-2.58.59-3.89-.24-1.32-.83-2.54-1.51-3.67-.69-1.13-1.48-2.2-2.29-3.23-1.61-2.03-3.56-3.85-5.95-4.64-2.38-.79-4.94-.6-7.26.02-2.34.61-4.48,1.7-6.52,2.81-2.04,1.12-4.02,2.28-6.07,3.19-1,.44-2.1.95-3.25.72-.55-.13-1.08-.45-1.39-.94-.31-.48-.43-1.05-.42-1.6.04-1.1.45-2.16,1.16-2.96.7-.84,1.73-1.23,2.68-1.55,1.95-.59,3.96-.7,5.68-1.53,1.72-.8,3.02-2.26,3.79-3.86.79-1.61,1.12-3.38.98-5.05-.28-3.39-2.3-6.18-4.59-7.95-2.32-1.82-4.99-2.7-7.44-3.03-2.46-.33-4.74-.18-6.72.14-3.99.65-6.85,1.94-8.56,3.08-.86.57-1.46,1.07-1.85,1.42-.38.36-.57.54-.57.54,0,0,.18-.2.56-.56.38-.36.98-.87,1.84-1.45,1.71-1.16,4.58-2.48,8.58-3.14,1.99-.33,4.28-.49,6.76-.17,2.47.32,5.17,1.2,7.52,3.03,2.32,1.79,4.39,4.61,4.69,8.07.14,1.71-.19,3.52-.99,5.16-.79,1.64-2.11,3.14-3.88,3.97-1.77.85-3.79.96-5.71,1.55-.94.31-1.92.7-2.57,1.48-.66.76-1.05,1.78-1.09,2.8,0,.51.11,1.04.39,1.46.27.43.74.7,1.24.83,1.04.21,2.09-.27,3.09-.71,2.03-.91,3.99-2.07,6.04-3.2,2.05-1.12,4.2-2.22,6.58-2.85,2.35-.64,4.97-.84,7.43-.03,2.47.81,4.47,2.68,6.1,4.73.82,1.04,1.61,2.1,2.32,3.25.7,1.15,1.31,2.4,1.56,3.78.26,1.37.06,2.85-.62,4.1-.66,1.26-1.64,2.31-2.66,3.28-2.09,1.9-4.21,3.82-6.36,5.78-4.31,3.91-8.76,7.94-13.34,12.08-.57.53-1.18,1.01-1.65,1.6-.47.57-.89,1.27-.83,1.97.06.72.75,1.17,1.49,1.33.75.19,1.53.31,2.31.34,3.13.15,6.34-1.02,8.66-3.26,2.37-2.2,4.07-5.1,6.43-7.52,2.37-2.42,5.38-4.24,8.68-5.28,3.3-1.03,6.9-1.34,10.39-.55.86.23,1.73.58,2.43,1.19.71.6,1.18,1.47,1.38,2.37.21.9.23,1.81.21,2.71-.03.9-.08,1.8-.2,2.7-.24,1.79-.7,3.62-1.76,5.17-.53.77-1.22,1.43-2.03,1.93-.8.49-1.68.82-2.52,1.16-.85.34-1.69.69-2.4,1.22-.7.53-1.24,1.27-1.38,2.14-.29,1.75.71,3.56,2.16,4.61,1.46,1.11,3.27,1.68,5.04,2.34,1.77.63,3.57,1.33,5.35,1.92.89.27,1.82.39,2.72.16.89-.21,1.72-.68,2.41-1.31,1.42-1.24,2.21-3.05,2.68-4.9.47-1.86.72-3.82,1.14-5.74.39-1.93.86-3.86,1.46-5.76,1.21-3.78,3.02-7.53,5.95-10.42,2.87-2.85,6.81-4.96,11.04-4.86,2.11.03,4.14.67,6.06,1.45,1.93.78,3.79,1.71,5.73,2.41,3.9,1.42,8.11,1.78,12.33,2.04,4.2.3,8.57.36,12.69,1.87,2.04.75,4,1.92,5.41,3.66,1.42,1.72,2.18,3.95,2.19,6.18.04,2.23-.72,4.51-2.18,6.23-1.44,1.74-3.47,2.98-5.69,3.45-2.24.49-4.57.04-6.67-.74-2.12-.77-4.09-1.85-6.14-2.72-2.04-.86-4.19-1.55-6.41-1.47-2.21.02-4.41.63-6.38,1.67-1.95,1.07-3.69,2.58-4.89,4.47-.62.93-1.1,1.96-1.35,3.03-.25,1.07-.26,2.22.18,3.22.4,1.01,1.17,1.86,2.13,2.4.96.56,2.05.89,3.16,1.1,2.24.42,4.55.27,6.87.17,4.65-.2,9.32-.39,14.02-.59,1.17-.02,2.5.1,3.53.88,1.02.77,1.61,1.93,1.97,3.07.67,2.31.9,4.79.27,7.17-.61,2.36-2.35,4.51-4.75,5.31-1.19.42-2.52.31-3.68.04-1.18-.25-2.33-.61-3.46-.5-.56.06-1.08.25-1.53.57-.44.33-.81.77-1.09,1.27-.58,1-.88,2.16-1.22,3.32-.68,2.32-1.35,4.64-2.03,6.97-.35,1.16-.65,2.34-1.08,3.5-.44,1.15-1.03,2.31-2.03,3.15-.99.82-2.34,1.26-3.63,1.05-1.28-.2-2.45-.81-3.4-1.63-.96-.82-1.77-1.81-2.37-2.92-.63-1.11-.93-2.36-1.17-3.56-.48-2.44-.59-4.92-1.2-7.28-.31-1.17-.73-2.32-1.37-3.34-.64-1.02-1.49-1.9-2.45-2.63-1.94-1.44-4.38-2.24-6.8-2.13-.61.03-1.2.12-1.79.26-.58.14-1.14.36-1.52.75-.38.38-.49.94-.43,1.52.06.57.25,1.17.46,1.74.86,2.3,2.43,4.3,3.6,6.55.59,1.14,1.03,2.36,1.24,3.64.2,1.28.14,2.64-.41,3.87-.52,1.24-1.62,2.17-2.79,2.73-1.18.58-2.43.88-3.67,1.16l-3.72.8-3.74.73c-2.48.51-4.93,1.18-7.13,2.41-2.19,1.22-4.16,2.9-5.55,4.99-.69,1.04-1.24,2.19-1.57,3.39-.35,1.2-.41,2.46-.34,3.73.05,1.27.21,2.55.21,3.87.01,1.3-.18,2.67-.8,3.88-.63,1.21-1.65,2.14-2.73,2.88-1.09.75-2.23,1.35-3.35,2-2.25,1.28-4.51,2.55-6.77,3.83-2.27,1.23-4.47,2.74-7.1,3.37-.65.15-1.33.23-2.01.22-.69,0-1.38-.18-2-.43-1.25-.51-2.36-1.27-3.4-2.09-1.03-.83-1.99-1.74-2.88-2.73-.44-.5-.86-1.01-1.24-1.57-.19-.28-.37-.57-.51-.91-.06-.17-.15-.34-.11-.64.02-.16.11-.31.26-.37.15-.09.28-.05.42-.07h.09s.09.09.09.09c.9,1,1.86,1.95,2.98,2.7,2.11,1.49,4.83,1.83,7.36,1.49,1.28-.18,2.45-.66,3.66-1.2,1.2-.52,2.4-1.05,3.57-1.63,2.34-1.14,4.59-2.47,6.53-4.16,1.92-1.7,3.51-3.81,4.42-6.19.45-1.19.71-2.45.75-3.71.05-1.26-.22-2.52-.48-3.79-.26-1.27-.53-2.58-.44-3.93.09-1.34.55-2.66,1.32-3.76,1.53-2.22,3.87-3.65,6.26-4.65,2.43-1,4.98-1.47,7.42-2.19,2.43-.71,4.87-1.61,6.75-3.27.94-.78,1.82-1.83,1.49-2.96-.33-1.09-1.48-1.81-2.48-2.56-.52-.38-1.04-.77-1.5-1.26-.46-.49-.83-1.09-1.03-1.73-.42-1.29-.3-2.69.15-3.92.44-1.25,1.3-2.33,2.31-3.15,1.01-.83,2.17-1.44,3.36-1.91,2.39-.93,4.87-1.51,7.37-1.94,1.25-.2,2.51-.35,3.77-.44,1.26-.09,2.55-.14,3.83.14,1.28.26,2.49,1.01,3.27,2.07.8,1.05,1.2,2.31,1.48,3.54.27,1.24.4,2.5.56,3.72.17,1.22.44,2.42.91,3.53.46,1.11,1.18,2.12,2.19,2.71,1,.6,2.25.68,3.34.25,1.09-.43,2.01-1.25,2.68-2.23.68-.99,1.05-2.11,1.15-3.33.08-.61.16-1.25.41-1.87.25-.62.68-1.15,1.18-1.57,1.01-.83,2.24-1.26,3.47-1.51,2.45-.5,4.96-.25,7.21-1.03,1.12-.38,2.18-.97,2.93-1.85.75-.86,1.09-2.05.84-3.16-.24-1.11-.95-2.11-1.86-2.82-.91-.71-2.05-1.11-3.2-1.31-1.16-.2-2.36-.21-3.55-.14-1.19.06-2.38.19-3.56.36-2.37.34-4.71.85-7.08,1.25-2.36.4-4.76.7-7.17.64-2.38-.08-4.9-.59-6.83-2.15-.97-.77-1.69-1.82-2.1-2.98-.41-1.15-.5-2.45-.1-3.64.38-1.22,1.37-2.11,2.33-2.78.96-.69,1.99-1.27,2.67-2.14.73-.85.8-2,.95-3.17.08-.58.22-1.2.52-1.75.29-.55.71-1.02,1.18-1.41.93-.78,2-1.29,2.97-1.89.99-.58,1.81-1.32,2.49-2.24.7-.9,1.31-1.89,2.11-2.77.78-.89,1.86-1.59,3.04-1.84,2.4-.48,4.78.43,6.69,1.71,1.92,1.32,3.49,3,5.27,4.37.89.68,1.82,1.3,2.84,1.7,1.02.4,2.12.62,3.2.59,1.08-.03,2.16-.34,2.99-1.01.83-.66,1.38-1.64,1.53-2.69.3-2.13-.6-4.34-2.03-5.93-1.47-1.6-3.41-2.77-5.51-3.29-2.1-.56-4.31-.5-6.47-.28-2.17.21-4.33.61-6.52.76-2.18.19-4.43.05-6.54-.53-2.12-.54-4.13-1.34-6.18-1.94-2.04-.62-4.15-1.03-6.22-.77-2.07.26-3.97,1.29-5.55,2.63-1.6,1.34-2.95,2.96-4.23,4.61-2.55,3.3-4.56,7-5.43,11.03-.49,2-.9,4.04-1.68,5.97-.77,1.92-1.86,3.74-3.37,5.17-1.5,1.44-3.47,2.39-5.53,2.6-1.03.11-2.08,0-3.07-.31-.99-.32-1.87-.89-2.68-1.47-3.24-2.34-6.45-4.66-9.63-6.96-.78-.6-1.57-1.35-1.87-2.38-.3-1.02-.11-2.07.17-3,.62-1.87,1.3-3.67,2.11-5.43.82-1.75,1.85-3.44,3.24-4.8.69-.69,1.49-1.23,1.97-1.98.5-.73.45-1.71-.15-2.37-.56-.66-1.44-1.08-2.31-1.09-.89,0-1.76.31-2.55.76-.8.45-1.53,1.01-2.28,1.56-.74.55-1.49,1.11-2.23,1.66-2.96,2.21-5.9,4.39-8.8,6.55-2.9,2.11-5.7,4.53-9.19,5.57-3.45,1.02-7.25.56-10.31-1.15-.74-.45-1.55-.85-2.08-1.65-.26-.4-.34-.91-.28-1.36.06-.45.19-.88.36-1.27.34-.79.6-1.62,1.04-2.36l.6-1.13.69-1.07c1.86-2.85,4.24-5.24,6.65-7.48,2.41-2.24,4.89-4.33,7.19-6.55,2.31-2.2,4.43-4.56,6.02-7.2.76-1.33,1.27-2.8,1.37-4.3.11-1.5-.25-3.01-1.06-4.25-1.61-2.49-4.6-3.91-7.46-3.82-2.9.06-5.62,1.38-7.75,3.19-2.13,1.84-3.72,4.17-4.99,6.59-.67,1.2-1.13,2.47-1.82,3.66-.36.58-.85,1.14-1.51,1.42-.65.29-1.42.28-2.06.02-1.29-.55-2.17-1.69-2.7-2.9-.51-1.25-.56-2.56-.76-3.82-.17-1.25-.42-2.51-1.1-3.53-.66-1.03-1.75-1.7-2.54-2.68-.81-.98-1.11-2.33-.83-3.54.25-1.21.9-2.29,1.71-3.16.81-.88,1.85-1.53,2.93-1.94,1.08-.43,2.2-.69,3.31-.9,2.2-.43,4.44-.59,6.38-1.45.96-.43,1.86-1.03,2.45-1.86.59-.83.76-1.9.5-2.85-.25-.97-.81-1.82-1.4-2.6-.6-.78-1.22-1.55-1.87-2.25-.65-.7-1.38-1.32-2.2-1.74-.82-.42-1.74-.57-2.64-.59-.9-.04-1.79.12-2.7.04-.9-.09-1.74-.37-2.54-.66-.81-.29-1.6-.58-2.4-.74-.8-.16-1.61-.14-2.39.02-1.55.33-2.96,1-4.38,1.45-1.4.46-2.47,1.5-3.35,2.52-.86,1.05-1.62,2.15-2.02,3.33-.39,1.19-.25,2.41-.07,3.52.09.56.19,1.11.25,1.64.02.27.09.54,0,.82-.03.14-.2.26-.35.24-.15,0-.28-.05-.39-.11-.45-.26-.85-.62-1.01-1.1-.16-.46-.22-.93-.25-1.38-.05-.9.02-1.74.11-2.51.2-1.54.65-2.78,1.11-3.72.46-.94.94-1.58,1.27-1.99.34-.41.53-.59.53-.59Z"/>
  </g>
</svg>