<?xml version="1.0" encoding="UTF-8"?>
<svg id="Capa_1" data-name="Capa 1" xmlns="http://www.w3.org/2000/svg" version="1.1" viewBox="0 0 226.77 226.77">
  <defs>
    <style>
      .cls-1 {
        fill: none;
        stroke: #040404;
        stroke-miterlimit: 10;
        stroke-width: .37px;
      }

      .cls-2 {
        fill: #020202;
        stroke-width: 0px;
      }
    </style>
  </defs>
  <g>
    <path class="cls-2" d="M76.49,70.33c-.06-.04.26-.67.67-1.72.41-1.05.96-2.53,1.11-4.22.03-3.43.06-6.29.21-6.28.07,0,.13.7.19,1.84.04,1.15.13,2.69.08,4.48-.17,1.79-.79,3.29-1.28,4.32-.51,1.03-.94,1.61-.99,1.58Z"/>
    <g>
      <g>
        <path class="cls-2" d="M192.93,55.74s-.15.02-.44.03c-.29,0-.73.02-1.3.03-1.14.02-2.82.04-4.99.07-4.33.04-10.6,0-18.34-.05-7.74-.04-16.96-.11-27.19.21-10.21.38-21.47,1.12-33.06,3.38-5.79,1.09-11.32,2.84-16.9,3.48-5.57.66-11.04.21-16.01-1.18-2.47-.76-4.73-1.86-6.94-2.84-1.11-.49-2.2-.96-3.3-1.37-1.1-.39-2.2-.76-3.28-1.08-4.36-1.26-8.55-1.96-12.39-2.33-7.7-.74-13.98-.63-18.3-.72-2.16-.03-3.85-.05-4.99-.09-.57-.02-1-.04-1.3-.05-.29-.01-.44-.03-.44-.03,0,0,.15-.01.44-.02.29,0,.73,0,1.3,0,1.14,0,2.82,0,4.99,0,4.33.03,10.61-.13,18.33.57,3.86.36,8.08,1.04,12.47,2.29,1.1.32,2.2.69,3.31,1.08,1.11.41,2.22.88,3.33,1.36,2.22.97,4.47,2.06,6.9,2.8,4.88,1.35,10.33,1.79,15.82,1.13,5.51-.63,11.04-2.38,16.86-3.48,11.63-2.26,22.91-2.99,33.14-3.35,10.24-.3,19.46-.19,27.2-.11,7.74.09,14.01.16,18.33.21,2.16,0,3.85.01,4.99.02.57,0,1,.01,1.3.01.29,0,.44.02.44.02Z"/>
        <path class="cls-2" d="M193.16,59.72s-.15.02-.44.02c-.29,0-.72.01-1.29.02-1.14,0-2.81.04-4.97,0-4.32-.02-10.57-.22-18.28-.52-3.86-.15-8.08-.32-12.62-.45-4.54-.13-9.38-.24-14.48-.15-5.1.09-10.45.33-15.94,1.11-1.37.21-2.75.4-4.12.72-1.38.28-2.76.58-4.16.92-2.8.64-5.66,1.2-8.57,1.71-5.81,1.01-11.53,1.74-17.08,2.14-5.54.39-10.95.49-16.03-.25-10.18-1.48-18.59-5.77-26.33-6.35-7.67-.8-13.94-.41-18.24-.31-2.16.06-3.83.11-4.97.15-.57,0-1,.01-1.29.02-.29,0-.44-.01-.44-.01,0,0,.15-.02.44-.04.29-.01.72-.04,1.29-.07,1.14-.05,2.81-.14,4.97-.24,2.16-.1,4.8-.22,7.87-.26,3.07-.03,6.57.01,10.42.42,7.81.55,16.27,4.81,26.35,6.25,5.04.72,10.41.62,15.94.22,5.53-.41,11.24-1.14,17.03-2.15,2.9-.5,5.75-1.07,8.54-1.7,1.39-.34,2.78-.64,4.17-.92,1.38-.32,2.78-.51,4.15-.72,5.52-.78,10.89-1.01,16-1.09,5.11-.08,9.96.05,14.5.2,4.54.15,8.76.35,12.62.51,7.71.35,13.95.59,18.27.68,2.16.07,3.83.06,4.97.09.57.01,1,.02,1.29.03.29,0,.44.03.44.03Z"/>
        <path class="cls-2" d="M195.36,63.79s-.15.02-.44.04c-.29.01-.73.03-1.31.06-1.15.04-2.84.1-5.03.12-4.37.05-10.69,0-18.49-.37-7.8-.43-17.07-1.08-27.38-1.27-10.3-.09-21.64,1-33.23,3.74-5.8,1.3-11.49,2.68-17.11,3.14-5.62.44-11.1.08-16.18-.84-5.1-.9-9.83-2.21-14.36-2.91-2.26-.36-4.46-.61-6.58-.75-2.12-.13-4.17-.14-6.12-.23-7.8-.3-14.11-.53-18.47-.49-2.18,0-3.87.06-5.02.09-.57.02-1.01.03-1.31.04-.29,0-.45,0-.45,0,0,0,.15-.02.44-.05.29-.02.73-.05,1.3-.09,1.15-.06,2.84-.15,5.03-.18,4.37-.1,10.69.08,18.49.33,1.95.07,3.99.08,6.13.19,2.13.13,4.34.37,6.62.72,4.56.68,9.3,1.99,14.37,2.87,5.07.9,10.49,1.25,16.07.8,5.58-.47,11.24-1.84,17.05-3.14,11.61-2.75,23.01-3.83,33.34-3.72,10.33.22,19.6.9,27.39,1.38,7.79.43,14.11.52,18.47.53,2.18-.01,3.88-.02,5.02-.03.57,0,1.01-.01,1.31-.01.29,0,.45.01.45.01Z"/>
        <path class="cls-2" d="M195.56,66.23s-.6.13-1.76.17c-1.16.07-2.87.05-5.07.01-4.4-.11-10.77-.44-18.62-.91-7.85-.49-17.22-.99-27.61-1.06-2.6,0-5.26.06-7.97.23-2.72.17-5.49.35-8.22,1.02-5.49,1.26-10.97,3.53-16.93,4.55-5.89,1.2-11.78,1.91-17.47,1.62-5.68-.27-11.09-1.19-16.22-2.07-5.13-.9-9.99-1.8-14.58-2.31-4.59-.5-8.9-.58-12.83-.45-7.86.29-14.2.97-18.58,1.39-2.19.22-3.89.39-5.04.5-.58.05-1.02.09-1.31.12-.3.02-.45.02-.45.02,0,0,.15-.03.44-.07.29-.04.73-.09,1.31-.17,1.15-.14,2.85-.33,5.03-.59,4.38-.48,10.71-1.2,18.59-1.54,3.94-.15,8.27-.1,12.88.39,4.61.5,9.49,1.39,14.61,2.27,5.13.86,10.52,1.77,16.16,2.03,5.64.28,11.48-.43,17.35-1.62,5.92-1.01,11.36-3.26,16.92-4.53,2.78-.67,5.59-.85,8.3-1.02,2.72-.16,5.4-.22,8-.21,10.42.09,19.78.63,27.64,1.16,7.85.51,14.21.9,18.61,1.06,2.2.07,3.91.12,5.06.08,1.16-.01,1.76-.11,1.76-.08Z"/>
        <path class="cls-2" d="M23.89,74.13s.15-.02.45-.03c.3,0,.73-.02,1.31-.03,1.15-.01,2.85-.03,5.04-.05,4.37-.03,10.7.11,18.52,0,3.91-.04,8.18-.25,12.77-.52,4.6-.23,9.51-.3,14.68-.32,10.34.1,21.7-.33,33.63-.57,1.5-.06,2.97,0,4.4-.24,1.43-.23,2.82-.66,4.18-1.16,2.7-1.01,5.27-2.32,7.98-3.17,2.69-.93,5.52-1.19,8.23-1.19,2.72,0,5.38.29,7.93.72,5.11.87,9.86,2.18,14.36,3.08,4.49.97,8.75,1.35,12.66,1.26,7.82.03,14.14.06,18.52.08,2.19.02,3.88.04,5.04.05.58.01,1.01.02,1.31.02.3,0,.45.02.45.02,0,0-.15.02-.45.02-.3,0-.73.01-1.31.02-1.15.01-2.85.03-5.04.05-4.37.02-10.7.04-18.52.08-3.91.11-8.23-.26-12.74-1.21-4.52-.88-9.27-2.18-14.35-3.03-2.54-.41-5.17-.7-7.86-.69-2.69,0-5.44.27-8.08,1.18-2.66.84-5.22,2.15-7.96,3.17-1.37.51-2.79.94-4.27,1.19-1.48.25-2.99.19-4.47.25-11.93.24-23.29.65-33.63.53-5.17,0-10.08.06-14.67.28-4.59.25-8.88.44-12.79.46-7.82.06-14.15-.12-18.52-.16-2.19-.02-3.88-.03-5.03-.04-.58,0-1.01-.01-1.31-.01-.3,0-.45-.02-.45-.02Z"/>
        <path class="cls-2" d="M194.87,75.43s-.15.02-.44.03c-.29,0-.73.01-1.3.03-1.15.01-2.84.03-5.02.05-4.36.03-10.66.06-18.45.11-1.95,0-3.99.02-6.11.03-2.13.01-4.33,0-6.62.09-4.57.18-9.42.79-14.44,1.9-1.26.27-2.52.57-3.8.89-1.26.33-2.59.66-3.95.78-2.72.24-5.5-.07-8.27-.5-2.78-.43-5.57-1.01-8.43-1.28-2.87-.18-5.82-.26-8.78-.39-11.88-.43-23.2-.74-33.49-.79-5.15,0-10.03.01-14.59.48-4.58.32-8.84.45-12.74.57-7.79.21-14.09.26-18.45.28-2.18,0-3.87,0-5.02-.01-.57,0-1.01-.02-1.3-.02-.29,0-.44-.02-.44-.02,0,0,.15-.02.44-.03.29,0,.73-.01,1.3-.03,1.15-.02,2.84-.04,5.02-.08,4.36-.07,10.66-.18,18.44-.43,3.89-.13,8.15-.29,12.72-.63,4.56-.48,9.48-.52,14.62-.52,10.3.03,21.63.32,33.51.76,2.97.12,5.9.21,8.8.39,2.9.27,5.7.86,8.46,1.29,2.76.44,5.5.74,8.16.51,1.33-.12,2.6-.43,3.88-.76,1.28-.32,2.55-.62,3.81-.89,5.04-1.1,9.93-1.7,14.52-1.86,2.29-.09,4.51-.06,6.64-.07,2.13,0,4.17,0,6.11,0,7.79.02,14.09.03,18.45.04,2.18.02,3.87.03,5.02.04.57,0,1.01.02,1.3.02.29,0,.44.02.44.02Z"/>
        <path class="cls-2" d="M195.45,79.34s-.15.01-.44.01c-.29,0-.73,0-1.3-.01-1.14.01-2.83.03-5.01.04-4.35.06-10.64.21-18.41.42-7.77.22-17.02.5-27.3.89-5.14.14-10.51.66-16.1.87-5.59.25-11.39.38-17.32.41-11.87.06-23.18-.39-33.44-.77-10.27-.28-19.53-.12-27.3.02-7.77.15-14.06.29-18.41.32-2.17,0-3.86.02-5.01.02-.57,0-1.01,0-1.3-.01-.29,0-.44-.02-.44-.02,0,0,.15-.02.44-.03.29,0,.73-.02,1.3-.04,1.14-.03,2.83-.06,5.01-.11,4.35-.11,10.64-.28,18.41-.48,7.77-.18,17.03-.39,27.32-.13,10.28.37,21.57.79,33.43.74,5.93-.02,11.72-.15,17.3-.4,5.58-.21,10.96-.72,16.11-.85,10.28-.36,19.53-.6,27.3-.78,7.77-.17,14.07-.26,18.42-.27,2.17,0,3.86.02,5.01.05.57.03,1.01.05,1.3.06.29.02.44.04.44.04Z"/>
        <path class="cls-2" d="M204.68,82.62s-.16.02-.47.04c-.31.01-.77.03-1.37.06-1.21.04-2.98.11-5.27.19-4.58.15-11.2.36-19.39.62-8.19.24-17.94.53-28.76.86-5.41.12-11.09.42-16.99.35-5.89,0-11.99,0-18.24.01-12.5,0-24.41,0-35.24,0-10.83.1-20.58.2-28.77.28-8.19.08-14.82.11-19.4.08-2.29-.02-4.07-.04-5.27-.05-.6-.01-1.06-.02-1.37-.03-.31,0-.47-.03-.47-.03,0,0,.16-.02.47-.02.31,0,.77-.01,1.37-.02,1.21,0,2.98-.02,5.27-.04,4.58-.06,11.21-.14,19.4-.24,8.19-.12,17.94-.3,28.77-.38,10.83-.01,22.74-.03,35.23-.04,6.25,0,12.35,0,18.24,0,5.89.08,11.57-.21,16.99-.32,10.82-.28,20.57-.54,28.76-.75,8.19-.2,14.81-.36,19.39-.47,2.29-.04,4.07-.08,5.27-.1.6,0,1.06-.01,1.37-.01.31,0,.47.01.47.01Z"/>
      </g>
      <g>
        <path class="cls-2" d="M148.25,87.38s-.05-.54-.06-1.52c0-.98-.01-2.41.23-4.16.19-1.78,1.08-3.73,1.7-5.94.31-1.1.57-2.28.61-3.52.04-1.24-.14-2.52-.45-3.8-.63-2.57-1.58-4.97-1.91-7.31-.34-2.32-.3-4.43-.27-6.18.06-1.75.11-3.17.14-4.15.03-.98.04-1.52.08-1.52.02,0,.04.13.06.39.02.26.04.64.05,1.13.03.98.02,2.4.01,4.16,0,1.75,0,3.84.37,6.11.34,2.27,1.3,4.64,1.94,7.27.31,1.31.5,2.64.45,3.93-.05,1.29-.32,2.51-.65,3.63-.66,2.25-1.56,4.14-1.79,5.86-.28,1.72-.32,3.14-.37,4.12-.05.98-.09,1.52-.13,1.52Z"/>
        <g>
          <path class="cls-2" d="M94.23,87.3c-.13,0-.4-6.22-.6-13.89-.2-7.68-.25-13.9-.12-13.91.13,0,.4,6.22.6,13.89.2,7.68.25,13.9.12,13.91Z"/>
          <g>
            <path class="cls-2" d="M72.22,106.61s-.02-.21,0-.6c.02-.4.04-.98.07-1.73.08-1.5.2-3.67.35-6.35.16-2.68.36-5.88.57-9.42.12-1.77.17-3.63.52-5.57.34-1.94,1.29-3.86,2.7-5.39,1.4-1.56,3.1-2.69,4.7-3.77,1.6-1.07,3.09-2.17,4.23-3.51,1.14-1.32,1.88-2.84,2.37-4.32.5-1.48.78-2.92.96-4.24.36-2.65.39-4.83.45-6.32.02-.75.04-1.33.05-1.73.01-.4.03-.6.05-.6s.03.21.05.6c0,.4.02.98.04,1.73,0,1.5.02,3.69-.3,6.37-.17,1.34-.43,2.8-.92,4.32-.49,1.51-1.24,3.1-2.42,4.48-1.17,1.39-2.7,2.53-4.3,3.61-1.6,1.08-3.26,2.2-4.61,3.7-1.37,1.48-2.27,3.28-2.6,5.16-.35,1.87-.41,3.75-.54,5.52-.25,3.54-.48,6.73-.68,9.41-.21,2.68-.38,4.84-.5,6.34-.07.75-.12,1.33-.16,1.72-.04.39-.07.6-.09.6Z"/>
            <path class="cls-2" d="M49.67,101.2s-.05-.19-.1-.54c-.05-.36-.11-.89-.17-1.57-.11-1.37-.21-3.36-.12-5.83.1-2.46.38-5.39,1.05-8.58.17-.8.38-1.62.72-2.43.33-.81.85-1.57,1.49-2.22.63-.65,1.36-1.2,2.1-1.75.74-.54,1.49-1.08,2.25-1.63,3.06-2.16,5.94-4.26,8.17-6.6,2.26-2.31,3.93-4.73,4.77-7.02.85-2.28,1.05-4.28,1.15-5.63.09-1.37.06-2.13.11-2.13.02,0,.03.19.05.55.02.36.04.9.02,1.59-.04,1.37-.19,3.4-1.02,5.74-.81,2.36-2.51,4.86-4.77,7.21-2.24,2.39-5.16,4.53-8.21,6.69-.76.55-1.5,1.09-2.24,1.63-.73.54-1.44,1.08-2.04,1.69-1.25,1.21-1.77,2.84-2.11,4.41-.69,3.16-1.01,6.06-1.15,8.51-.14,2.44-.09,4.43-.03,5.8.03.68.06,1.22.08,1.58.02.36.02.55,0,.55Z"/>
            <path class="cls-2" d="M65.72,98.06s-.04-.17-.07-.48c-.03-.32-.06-.79-.07-1.39-.02-1.21-.04-2.96-.07-5.13-.02-1.08-.04-2.27-.06-3.54-.02-1.27-.07-2.64.02-4.08.08-1.44.35-2.98,1-4.44.67-1.45,1.69-2.8,3.01-3.85,1.3-1.07,2.73-1.86,4.02-2.7,1.3-.83,2.48-1.75,3.36-2.84,1.79-2.18,2.62-4.68,3.22-6.73.56-2.08.86-3.81,1.07-5,.1-.6.18-1.06.24-1.37.06-.31.1-.48.11-.48.02,0,.01.17-.02.49-.02.32-.07.79-.15,1.39-.15,1.2-.4,2.94-.93,5.06-.56,2.08-1.36,4.64-3.2,6.93-.92,1.14-2.13,2.11-3.45,2.95-1.31.86-2.72,1.64-3.97,2.68-1.27,1.01-2.24,2.3-2.88,3.68-.63,1.39-.9,2.86-.99,4.27-.1,1.41-.07,2.77-.07,4.04,0,1.27,0,2.46,0,3.54-.04,2.16-.07,3.92-.09,5.13,0,.6-.01,1.07-.02,1.39,0,.32,0,.49-.03.49Z"/>
            <path class="cls-2" d="M93.76,98.13s-.04-.17-.07-.49c-.02-.32-.05-.8-.09-1.41-.06-1.22-.11-3-.15-5.19-.04-2.19-.07-4.8-.17-7.69-.09-1.44-.02-2.99-.15-4.53-.07-.77-.24-1.54-.55-2.25-.32-.72-.76-1.4-1.31-1.99-2.24-2.46-5.6-3.02-8.04-4.69-1.25-.8-2.19-1.97-2.68-3.19-.5-1.22-.71-2.43-.83-3.53-.22-2.2-.15-3.98-.15-5.2.01-.61.02-1.09.02-1.41,0-.32.02-.49.04-.49.02,0,.04.17.06.49.02.32.05.8.07,1.41.06,1.22.03,3,.3,5.16.14,1.07.37,2.25.86,3.41.49,1.16,1.35,2.22,2.56,2.98,1.19.79,2.6,1.34,4.05,1.98,1.44.64,2.94,1.47,4.11,2.75.58.63,1.05,1.36,1.4,2.12.34.78.51,1.6.58,2.4.14,1.61.05,3.11.13,4.56.08,2.9.07,5.51.07,7.7,0,2.19,0,3.96,0,5.19,0,.61,0,1.09,0,1.41,0,.32-.02.49-.03.49Z"/>
            <path class="cls-2" d="M83.14,94.98s-.04-.56-.05-1.58c0-1.02-.02-2.49-.08-4.3-.07-1.81-.18-3.98-.42-6.36-.13-1.19-.31-2.43-.65-3.68-.33-1.25-.88-2.47-1.46-3.74-1.07-2.56-2.39-4.85-3.18-7.17-.79-2.31-1.01-4.51-1.14-6.32-.11-1.82-.11-3.3-.08-4.32.03-1.02.06-1.58.1-1.58.03,0,.06.56.09,1.58.03,1.02.08,2.49.24,4.29.17,1.8.43,3.96,1.23,6.2.78,2.24,2.13,4.55,3.2,7.12.57,1.26,1.13,2.52,1.47,3.81.35,1.28.52,2.55.64,3.76.22,2.41.29,4.58.32,6.4.02,1.82-.02,3.3-.07,4.32-.05,1.02-.11,1.58-.14,1.58Z"/>
            <path class="cls-2" d="M83.58,105.3s-.04-.18-.08-.53c-.03-.35-.07-.86-.13-1.52-.09-1.32-.22-3.23-.39-5.58-.14-2.36-.34-5.16-.49-8.29-.13-3.12-.22-6.6.49-10.18.36-1.79.89-3.47,1.26-5.12.38-1.64.59-3.26.72-4.81.24-3.1.17-5.91.12-8.27-.06-2.36-.12-4.27-.12-5.6,0-.66,0-1.17.02-1.52.01-.35.03-.53.04-.53.02,0,.04.18.05.53.02.35.04.86.07,1.52.07,1.32.16,3.23.28,5.59.1,2.36.2,5.18-.02,8.32-.12,1.57-.32,3.21-.7,4.88-.38,1.67-.9,3.35-1.25,5.1-.69,3.51-.62,6.96-.52,10.07.15,3.12.28,5.93.39,8.29.1,2.36.18,4.27.23,5.59.02.66.03,1.17.04,1.52,0,.35,0,.53-.02.53Z"/>
            <path class="cls-2" d="M76.14,101.94s-.04-.22-.07-.65c-.03-.43-.06-1.06-.11-1.88-.08-1.63-.19-3.99-.32-6.9-.14-2.91-.3-6.38-.47-10.23-.13-1.92-.3-3.93-.69-5.98-.39-2.05-.96-4.14-1.75-6.2-.78-2.07-1.77-3.99-2.96-5.69-1.18-1.7-2.6-3.16-4.23-4.13-3.29-1.79-6.99-2.41-9.06-4.72-1.03-1.14-1.31-2.54-1.48-3.68-.13-1.16-.15-2.17-.13-2.98,0-.82.05-1.45.08-1.88.03-.43.05-.65.07-.65.02,0,.03.23.03.66,0,.43-.01,1.06.01,1.88,0,.81.06,1.81.21,2.95.19,1.11.49,2.45,1.47,3.49.95,1.06,2.4,1.77,3.97,2.41.79.33,1.61.64,2.47.97.84.33,1.76.65,2.59,1.18,1.7,1,3.17,2.5,4.38,4.24,1.22,1.73,2.24,3.7,3.03,5.79,1.62,4.19,2.25,8.47,2.43,12.32.17,3.86.3,7.33.37,10.24.07,2.92.13,5.27.17,6.91,0,.82.02,1.45.02,1.88,0,.43,0,.66-.03.66Z"/>
            <path class="cls-2" d="M124.71,98.5s-.03-.17-.04-.49c0-.32-.02-.8-.03-1.41-.02-1.22-.03-2.99-.16-5.17-.13-2.18-.41-4.77-1.08-7.57-.33-1.4-.77-2.84-1.29-4.33-.51-1.49-1.04-3.06-1.22-4.76-.33-3.42.59-6.56.97-9.4.42-2.85.54-5.45.59-7.64.05-2.18.04-3.96.04-5.18,0-.61.01-1.09.02-1.41,0-.32.02-.49.04-.49.02,0,.04.17.06.49.02.32.04.8.07,1.41.05,1.22.11,3,.11,5.19,0,2.19-.09,4.81-.49,7.69-.36,2.87-1.25,6-.93,9.28.17,1.63.68,3.17,1.19,4.66.52,1.49.95,2.96,1.28,4.38.65,2.84.9,5.46.99,7.65.09,2.19.05,3.97.01,5.19-.03.61-.05,1.09-.06,1.41-.02.32-.04.49-.06.49Z"/>
            <path class="cls-2" d="M137.09,92.72s-.06-.57-.09-1.6c-.03-1.03-.09-2.52-.03-4.37.08-1.84.24-4.09,1.19-6.4.24-.57.53-1.13.76-1.7.25-.57.38-1.18.52-1.83.13-.64.26-1.31.34-1.97.05-.65.04-1.36.02-2.04-.14-2.78-.88-5.35-1.72-7.63-.4-1.16-.63-2.33-.75-3.41-.12-1.09-.2-2.1-.18-3.02,0-1.85.01-3.34.02-4.37.02-1.03.04-1.6.07-1.6.03,0,.07.57.12,1.6.03,1.03.08,2.52.13,4.35.05,1.83.22,4.03,1.01,6.31.85,2.26,1.64,4.91,1.78,7.75.02.72.04,1.4-.02,2.12-.08.7-.21,1.36-.35,2.01-.13.64-.29,1.31-.55,1.91-.25.6-.54,1.15-.78,1.7-.94,2.21-1.14,4.42-1.26,6.24-.1,1.83-.09,3.32-.12,4.35-.01.52-.03.92-.05,1.19-.02.27-.03.41-.05.41Z"/>
            <path class="cls-2" d="M143.04,92.18s-.06-.59-.12-1.64c-.06-1.06-.19-2.58-.24-4.49-.04-1.89.06-4.23.93-6.62.75-2.39,1.68-4.99,2.03-7.84.4-2.85-.21-5.55-.94-7.93-.72-2.39-1.45-4.56-1.63-6.48-.19-1.91-.09-3.45-.07-4.5.04-1.06.05-1.65.09-1.65.02,0,.03.15.05.43.02.28.03.69.05,1.22.04,1.06,0,2.6.22,4.46.22,1.86.97,3.99,1.72,6.39.37,1.2.73,2.48.94,3.85.21,1.37.24,2.82.06,4.27-.36,2.92-1.32,5.54-2.09,7.92-.88,2.34-1.01,4.59-1.02,6.48,0,1.89.09,3.42.09,4.48,0,.53,0,.94-.02,1.22-.01.28-.03.43-.05.43Z"/>
            <path class="cls-2" d="M150.47,95.48s-.04-.17-.06-.5c-.02-.33-.04-.82-.07-1.44-.05-1.25-.14-3.07-.17-5.32-.02-2.24,0-4.94.55-7.89.28-1.47.7-3,1.37-4.49.65-1.51,1.6-2.9,2.34-4.42,1.48-3.05,1.99-6.31,2.33-9.24.33-2.94.47-5.6.49-7.85.02-2.24.04-4.06.05-5.31.02-.63.04-1.11.05-1.45.02-.33.04-.5.05-.5.02,0,.03.17.05.5.01.33.03.82.04,1.44.03,1.25.09,3.07.1,5.32.02,2.25-.09,4.93-.39,7.89-.32,2.95-.82,6.26-2.34,9.4-.76,1.56-1.71,2.94-2.35,4.4-.66,1.45-1.08,2.94-1.37,4.38-.56,2.89-.62,5.57-.64,7.81,0,2.24.01,4.06.02,5.31,0,.63,0,1.12-.02,1.45-.01.33-.03.5-.04.5Z"/>
            <path class="cls-2" d="M170.02,96.15s-.04-.19-.06-.56c-.02-.37-.05-.92-.08-1.62-.05-1.41-.12-3.44-.21-5.96-.11-2.52,0-5.52-.55-8.78-.28-1.62-.72-3.31-1.53-4.9-.81-1.58-2.04-2.99-3.55-4.15-1.49-1.18-3.11-2.13-4.57-3.22-1.48-1.07-2.78-2.33-3.73-3.72-1.92-2.79-2.75-5.8-3.07-8.3-.17-1.26-.14-2.42-.14-3.41,0-1,0-1.86,0-2.56,0-.7.01-1.25.02-1.62,0-.37.02-.56.04-.57.02,0,.04.19.06.56.02.37.04.92.08,1.62.02.7.05,1.57.09,2.57.03,1,.02,2.13.21,3.37.35,2.46,1.2,5.39,3.09,8.09.94,1.35,2.18,2.55,3.64,3.6,1.44,1.07,3.07,2.02,4.59,3.23,1.54,1.18,2.83,2.66,3.67,4.31.84,1.65,1.28,3.39,1.55,5.04.54,3.32.39,6.35.46,8.85.02,2.52.04,4.55.05,5.96,0,.7,0,1.25-.01,1.62,0,.37-.02.57-.04.57Z"/>
            <path class="cls-2" d="M158.27,98.69s-.03-.18-.04-.52c0-.34-.01-.84-.03-1.48-.02-1.29-.04-3.15-.07-5.45-.02-4.59-.2-10.98.74-17.98.46-3.5,1.39-6.74,1.91-9.72.51-2.98.51-5.72.57-8.02.05-2.3.09-4.16.12-5.45.03-.64.04-1.14.06-1.48.02-.34.04-.52.05-.52.02,0,.03.18.04.52,0,.34.02.84.03,1.48,0,1.29.02,3.15.03,5.45,0,2.3.03,5.06-.47,8.09-.5,3.02-1.42,6.24-1.87,9.71-.93,6.94-.8,13.32-.87,17.91-.02,2.3-.05,4.16-.09,5.45-.03.64-.05,1.14-.07,1.48-.02.34-.04.52-.06.52Z"/>
            <path class="cls-2" d="M170.15,45.79s.05.18.09.51c.04.34.1.84.18,1.48.13,1.29.32,3.16.41,5.49.07,2.32.06,5.12-.52,8.16-.6,3-1.69,6.39-4.16,9.07-2.54,2.67-6,3.58-8.34,5.48-1.2.92-2.1,2.06-2.7,3.25-.58,1.2-.86,2.44-1,3.58-.25,2.29-.13,4.17-.16,5.47,0,.65,0,1.15-.02,1.5-.01.34-.03.52-.05.52s-.03-.18-.05-.52c-.02-.34-.04-.84-.07-1.49-.04-1.29-.21-3.17,0-5.51.12-1.16.38-2.45.98-3.71.61-1.25,1.55-2.46,2.78-3.42,2.43-1.98,5.86-2.92,8.26-5.46,2.37-2.57,3.47-5.88,4.07-8.83.59-2.99.64-5.76.61-8.07-.04-2.31-.18-4.19-.26-5.48-.04-.65-.07-1.15-.08-1.49-.01-.34-.01-.52,0-.52Z"/>
            <path class="cls-2" d="M176.52,95.06s-.03-.18-.05-.52c-.01-.34-.03-.85-.06-1.5-.05-1.3-.11-3.18-.34-5.49-.23-2.3-.6-5.06-1.51-7.97-.45-1.46-1.05-2.95-1.83-4.41-.76-1.47-1.78-2.86-2.82-4.3-1.04-1.44-2.06-2.87-2.78-4.41-.75-1.52-1.26-3.08-1.63-4.58-.74-3.02-.91-5.82-.95-8.15-.03-2.33.09-4.22.19-5.52.05-.65.11-1.15.15-1.49.04-.34.07-.52.09-.52.02,0,.02.18,0,.52-.01.34-.03.85-.06,1.5-.05,1.3-.12,3.18-.04,5.5.08,2.31.29,5.08,1.04,8.05.38,1.48.89,3,1.63,4.48.71,1.5,1.71,2.9,2.75,4.34,1.04,1.43,2.08,2.85,2.85,4.36.79,1.49,1.39,3.02,1.84,4.5.9,2.97,1.24,5.75,1.43,8.07.18,2.33.19,4.21.18,5.52,0,.65-.02,1.16-.03,1.5-.01.34-.03.52-.05.52Z"/>
            <path class="cls-2" d="M163.23,92.86s-.07-.56-.11-1.56c-.03-1.01-.07-2.46-.12-4.26-.08-3.6-.16-8.58-.22-14.07-.06-5.49-.09-10.47-.08-14.07.01-1.8.02-3.26.03-4.27.02-1.01.04-1.57.08-1.57.03,0,.07.56.11,1.56.03,1.01.07,2.46.12,4.26.08,3.6.16,8.58.22,14.07s.09,10.47.08,14.07c-.01,1.8-.02,3.26-.03,4.27-.02,1.01-.04,1.56-.08,1.56Z"/>
            <path class="cls-2" d="M118.67,90.67s-.05-.51-.05-1.43c0-.92.01-2.25-.05-3.9-.07-1.64-.19-3.6-.58-5.72-.38-2.13-1.04-4.46-1.23-7-.18-2.53-.11-4.92-.14-7.1,0-2.18,0-4.14,0-5.79.02-1.65.03-2.98.04-3.9.02-.92.05-1.43.08-1.43s.07.51.11,1.43c.03.92.07,2.26.12,3.9.03,1.65.07,3.61.11,5.79.06,2.18,0,4.58.18,7.07.19,2.48.82,4.8,1.18,6.96.38,2.17.46,4.14.49,5.79.02,1.65-.05,2.99-.1,3.91-.06.92-.11,1.43-.14,1.43Z"/>
            <path class="cls-2" d="M113.54,90.81s-.07-.5-.11-1.4c-.03-.9-.07-2.21-.11-3.83-.06-1.61-.04-3.55-.36-5.63-.15-1.05-.47-2.09-.9-3.18-.43-1.08-.73-2.32-.79-3.57-.12-4.96-.16-9.4-.19-12.64,0-1.62,0-2.92,0-3.83.01-.9.03-1.41.07-1.41.03,0,.07.5.12,1.4.04.9.09,2.21.15,3.83.08,3.23.2,7.69.33,12.62.06,1.22.33,2.35.75,3.44.42,1.08.76,2.2.9,3.27.3,2.15.25,4.08.27,5.7-.02,1.62-.03,2.92-.04,3.83-.02.9-.05,1.41-.08,1.41Z"/>
            <path class="cls-2" d="M107.73,90.23s-.08-.47-.11-1.32c-.03-.85-.02-2.08,0-3.6.03-1.52.08-3.32-.03-5.32-.06-.99-.17-2.04-.36-3.1-.19-1.06-.48-2.15-.72-3.3-.51-2.31-.37-4.57-.27-6.56.1-2,.07-3.8.05-5.32-.02-1.52-.04-2.75-.02-3.6.01-.85.04-1.32.08-1.32.03,0,.07.47.11,1.32.04.85.1,2.08.18,3.59.06,1.52.12,3.33.05,5.35-.07,2.01-.2,4.21.3,6.45.23,1.13.52,2.22.71,3.31.19,1.09.29,2.15.34,3.16.08,2.02,0,3.83-.08,5.35-.07,1.52-.12,2.74-.16,3.59-.03.85-.05,1.32-.08,1.32Z"/>
            <path class="cls-2" d="M101.94,89.64s-.07-.44-.12-1.24c-.03-.8-.08-1.96-.14-3.39-.1-2.86-.21-6.81-.29-11.17-.09-4.36-.14-8.32-.15-11.18,0-1.43,0-2.59,0-3.39.01-.8.04-1.24.07-1.24.03,0,.07.44.12,1.24.03.8.08,1.96.14,3.39.1,2.86.21,6.81.29,11.17.09,4.36.14,8.31.15,11.17,0,1.43,0,2.59,0,3.39-.01.8-.04,1.24-.07,1.24Z"/>
            <path class="cls-2" d="M98.27,87.67c-.13,0-.36-6.4-.5-14.3-.14-7.9-.15-14.3-.02-14.31.13,0,.36,6.4.5,14.3.14,7.9.15,14.3.02,14.31Z"/>
            <path class="cls-2" d="M90.91,88.18s-.08-.39-.12-1.09c-.04-.7-.09-1.72-.15-2.98-.11-2.51-.22-5.99-.32-9.82-.1-3.84-.16-7.31-.18-9.83,0-1.26,0-2.28,0-2.98.01-.7.03-1.09.07-1.1.03,0,.08.39.12,1.09.04.7.09,1.72.15,2.98.11,2.51.22,5.99.32,9.83.1,3.84.16,7.31.18,9.83,0,1.26,0,2.28,0,2.98-.01.7-.03,1.09-.07,1.09Z"/>
            <path class="cls-2" d="M174.75,94.99c-.13,0-.3-9.42-.37-21.03s-.02-21.03.12-21.03.3,9.42.37,21.03.02,21.03-.12,21.03Z"/>
            <path class="cls-2" d="M181.41,91.86s-.07-.55-.11-1.54c-.03-.99-.06-2.43-.11-4.2-.07-3.54-.14-8.44-.19-13.85-.05-5.41-.06-10.31-.05-13.85.02-1.77.03-3.21.04-4.2.02-.99.05-1.54.08-1.54.03,0,.07.55.11,1.54.03.99.06,2.43.11,4.2.07,3.54.14,8.44.19,13.85.05,5.41.06,10.31.05,13.85-.02,1.77-.03,3.21-.04,4.2-.02.99-.05,1.54-.08,1.54Z"/>
            <path class="cls-2" d="M186.18,91.55s-.08-.53-.13-1.5c-.06-.97-.09-2.37-.11-4.1-.04-3.46.04-8.24.22-13.51.18-5.27.41-10.04.56-13.5.07-1.73.13-3.12.17-4.09.03-.96.05-1.5.09-1.5.03,0,.08.53.1,1.5.02.97.02,2.37-.02,4.1-.06,3.46-.24,8.23-.42,13.5-.18,5.27-.31,10.04-.36,13.5-.02,1.73-.04,3.12-.05,4.09,0,.97-.03,1.5-.06,1.5Z"/>
            <path class="cls-2" d="M190.13,93.3s-.07-.55-.1-1.55c-.02-1-.05-2.44-.09-4.22-.06-3.56-.1-8.48-.13-13.92-.02-5.43-.01-10.36.02-13.92.03-1.78.05-3.22.06-4.22.02-1,.05-1.55.09-1.55s.07.55.1,1.55c.02,1,.05,2.44.09,4.22.06,3.56.1,8.48.13,13.91.02,5.43.01,10.35-.02,13.91-.03,1.78-.05,3.22-.06,4.22-.02,1-.05,1.55-.09,1.55Z"/>
            <ellipse class="cls-2" cx="39.04" cy="70.15" rx=".24" ry="18.99"/>
            <path class="cls-2" d="M48.73,92.12s-.06-.58-.07-1.63c0-1.05-.01-2.56-.02-4.44.01-3.75.02-8.92.04-14.63,0-5.71-.2-10.88-.15-14.63.01-1.87.02-3.39.03-4.44.02-1.05.04-1.63.08-1.63.03,0,.07.58.11,1.62.03,1.05.07,2.56.13,4.43.04,3.74.3,8.92.3,14.64.02,5.72-.09,10.89-.18,14.64-.06,1.87-.1,3.39-.13,4.43-.04,1.05-.08,1.63-.11,1.63Z"/>
            <path class="cls-2" d="M58.77,88.62s-.06-.5-.08-1.41c0-.91-.02-2.22-.04-3.84-.02-3.24-.06-7.72-.09-12.67-.06-4.95-.12-9.43-.16-12.67-.01-1.62-.02-2.93-.03-3.84,0-.91.02-1.41.05-1.41.03,0,.08.5.13,1.41.06.91.12,2.22.18,3.84.13,3.24.25,7.72.3,12.68.05,4.95.02,9.43-.05,12.68-.03,1.62-.07,2.93-.11,3.84-.04.91-.08,1.41-.11,1.41Z"/>
            <path class="cls-2" d="M64.87,91.69s-.06-.51-.07-1.42c0-.92,0-2.24-.02-3.88,0-3.28.05-7.8.13-12.81.06-5,.23-9.53.16-12.8,0-1.64.01-2.96.01-3.88.01-.92.04-1.43.07-1.43.03,0,.07.5.12,1.42.03.92.08,2.24.14,3.88.16,3.28.04,7.81-.02,12.81-.08,5-.17,9.53-.27,12.8-.06,1.64-.1,2.96-.14,3.88-.04.92-.08,1.42-.12,1.42Z"/>
            <path class="cls-2" d="M69.68,88.18s-.06-.43-.09-1.2c-.02-.77-.04-1.89-.07-3.26-.04-2.75-.07-6.56-.06-10.76,0-4.2.03-8.01.08-10.76.03-1.38.06-2.49.08-3.26.03-.77.06-1.2.1-1.2s.06.43.09,1.2c.02.77.04,1.88.07,3.26.04,2.75.07,6.56.06,10.76,0,4.2-.03,8.01-.08,10.76-.03,1.38-.06,2.49-.08,3.26-.03.77-.06,1.2-.1,1.2Z"/>
            <ellipse class="cls-2" cx="74.04" cy="74.28" rx=".24" ry="14.49" transform="translate(-1.79 1.83) rotate(-1.4)"/>
            <ellipse class="cls-2" cx="77.92" cy="71.65" rx=".24" ry="16.83" transform="translate(-.72 .79) rotate(-.58)"/>
            <path class="cls-2" d="M80.6,86.72c-.13,0-.28-6.12-.32-13.68-.04-7.56.03-13.68.16-13.68.13,0,.28,6.12.32,13.68.04,7.56-.03,13.68-.16,13.68Z"/>
            <path class="cls-2" d="M84.36,87.59s-.07-.37-.11-1.04c-.03-.67-.07-1.64-.12-2.84-.08-2.39-.16-5.7-.22-9.36-.06-3.66-.08-6.96-.08-9.36.01-1.2.02-2.17.03-2.84.02-.67.04-1.04.08-1.04.03,0,.07.37.11,1.04.03.67.07,1.64.12,2.84.08,2.39.16,5.7.22,9.36.06,3.66.08,6.97.08,9.36-.01,1.2-.02,2.17-.03,2.84-.02.67-.04,1.04-.08,1.04Z"/>
          </g>
        </g>
      </g>
    </g>
  </g>
  <g>
    <ellipse class="cls-2" cx="43.88" cy="67.7" rx="5.04" ry=".5" transform="translate(-3.86 2.66) rotate(-3.33)"/>
    <ellipse class="cls-2" cx="61.66" cy="74.24" rx="3.21" ry=".5" transform="translate(-2.5 2.15) rotate(-1.96)"/>
    <ellipse class="cls-2" cx="67.45" cy="68.94" rx=".5" ry="2.28" transform="translate(-9.56 127) rotate(-82.64)"/>
    <ellipse class="cls-2" cx="71.94" cy="76.84" rx="2.14" ry=".5"/>
    <ellipse class="cls-2" cx="79.23" cy="69.71" rx=".5" ry="1.2" transform="translate(2.58 142.24) rotate(-84.76)"/>
    <ellipse class="cls-2" cx="82.14" cy="76.91" rx=".5" ry="1.71" transform="translate(1.78 155.69) rotate(-87.55)"/>
    <ellipse class="cls-2" cx="81.43" cy="81.6" rx="1.17" ry=".5" transform="translate(-4.94 5.25) rotate(-3.58)"/>
    <ellipse class="cls-2" cx="87.47" cy="82" rx=".5" ry="3.34" transform="translate(.8 164.84) rotate(-86.86)"/>
    <ellipse class="cls-2" cx="86.9" cy="76.88" rx=".77" ry=".5"/>
    <ellipse class="cls-2" cx="92.28" cy="76.99" rx=".5" ry="1.37" transform="translate(10.48 165.03) rotate(-86.94)"/>
    <ellipse class="cls-2" cx="92.58" cy="73.75" rx=".5" ry="1.67" transform="translate(15.83 163.86) rotate(-88.11)"/>
    <ellipse class="cls-2" cx="87.87" cy="70.69" rx=".5" ry="2.65" transform="translate(12.43 154.53) rotate(-86.84)"/>
    <ellipse class="cls-2" cx="86.58" cy="65.83" rx=".5" ry="1.43" transform="translate(18.55 150.7) rotate(-88.53)"/>
    <ellipse class="cls-2" cx="82.25" cy="66.01" rx=".5" ry="1.65" transform="translate(12.67 145.26) rotate(-87.47)"/>
    <ellipse class="cls-2" cx="79.06" cy="74.06" rx="4.79" ry=".5"/>
    <ellipse class="cls-2" cx="95.67" cy="69.34" rx="2.1" ry=".5" transform="translate(-7.75 12.21) rotate(-7.02)"/>
    <ellipse class="cls-2" cx="104" cy="67.71" rx="2.58" ry=".5" transform="translate(-14.72 31.58) rotate(-16.14)"/>
    <ellipse class="cls-2" cx="99.81" cy="77.5" rx=".5" ry="1.83" transform="translate(18.37 174.12) rotate(-87.7)"/>
    <path class="cls-2" d="M118.5,82.33c0,.27-1.19.51-2.67.53-1.48.02-2.68-.19-2.69-.46s1.19-.51,2.67-.53,2.68.19,2.69.46Z"/>
    <ellipse class="cls-2" cx="119.67" cy="61.2" rx="2.98" ry=".5" transform="translate(-8.98 22.26) rotate(-10.24)"/>
    <ellipse class="cls-2" cx="130.72" cy="84.84" rx="6.87" ry=".5" transform="translate(-4.04 6.58) rotate(-2.84)"/>
    <ellipse class="cls-2" cx="146.06" cy="80.97" rx="2.65" ry=".5" transform="translate(-3.22 6.11) rotate(-2.37)"/>
    <path class="cls-2" d="M159.19,75.8c.02.27-1.49.61-3.37.76s-3.42.04-3.44-.23,1.49-.61,3.37-.76c1.88-.15,3.42-.04,3.44.23Z"/>
    <path class="cls-2" d="M150.82,70.04c-.07.27-1.2.22-2.54-.11s-2.37-.81-2.3-1.07c.07-.27,1.2-.22,2.54.11s2.37.81,2.3,1.07Z"/>
    <path class="cls-2" d="M156.63,64.99c0,.27-1.62.45-3.61.39s-3.58-.33-3.58-.61c0-.27,1.62-.45,3.61-.39,1.98.06,3.58.33,3.58.61Z"/>
    <ellipse class="cls-2" cx="141.13" cy="62.83" rx="3.36" ry=".5" transform="translate(-.68 1.54) rotate(-.62)"/>
    <ellipse class="cls-2" cx="114.2" cy="73.22" rx="2.67" ry=".5" transform="translate(-8.15 14.64) rotate(-7.08)"/>
    <ellipse class="cls-2" cx="177.77" cy="66.05" rx=".5" ry="3.37" transform="translate(102.17 239.97) rotate(-86.89)"/>
    <ellipse class="cls-2" cx="184.13" cy="56.21" rx="2.88" ry=".5"/>
    <ellipse class="cls-2" cx="183.73" cy="72.6" rx="2.48" ry=".5"/>
    <ellipse class="cls-2" cx="31.24" cy="64.48" rx="7.69" ry=".5"/>
  </g>
  <path class="cls-2" d="M106.99,116.39s-.13.02-.39.04c-.26.01-.64.03-1.12.06-.98.03-2.39.08-4.14.15-3.49.1-8.32.18-13.66.17-5.33-.02-10.16-.12-13.66-.25-1.75-.07-3.16-.13-4.14-.17-.49-.03-.87-.05-1.12-.07-.26-.02-.39-.03-.39-.04,0-.01.14-.02.39-.02.26,0,.64,0,1.13.01.98.02,2.39.05,4.14.08,3.49.07,8.32.14,13.65.16,5.33.01,10.16-.03,13.65-.08,1.75-.02,3.16-.04,4.14-.05.49,0,.87,0,1.13,0,.26,0,.39,0,.39.02Z"/>
  <path class="cls-2" d="M153.75,116.83s-.14.02-.41.02c-.27,0-.67,0-1.18-.01-1.02-.01-2.5-.03-4.32-.05-3.65-.03-8.69.02-14.26.1-5.57.09-10.62.12-14.27.06-1.83-.03-3.3-.07-4.32-.12-.51-.03-.91-.05-1.17-.06-.27-.02-.41-.03-.41-.04,0-.01.14-.02.41-.02.27,0,.67,0,1.18,0,1.02,0,2.5.01,4.32.03,3.65.01,8.69-.06,14.27-.14,5.57-.09,10.62-.1,14.27-.02,1.83.04,3.3.09,4.32.15.51.03.91.05,1.17.07.27.02.41.03.41.04Z"/>
  <g>
    <path class="cls-2" d="M69.8,153.49s-.02-.13-.03-.39c0-.26-.02-.63-.04-1.12-.03-.97-.05-2.38-.06-4.11-.02-3.47.04-8.27.11-13.56.07-5.3.08-10.09.02-13.56-.04-1.73-.06-3.14-.08-4.11,0-.48-.02-.86-.02-1.12,0-.26,0-.39.01-.39.01,0,.03.13.05.39.02.26.04.63.07,1.12.06.97.12,2.37.18,4.11.11,3.47.14,8.27.07,13.57-.08,5.3-.14,10.09-.19,13.56-.02,1.73-.03,3.14-.04,4.11,0,.48-.01.86-.02,1.12,0,.26-.02.39-.03.39Z"/>
    <path class="cls-2" d="M105.45,153.23s-.02-.13-.03-.38c0-.25,0-.62-.02-1.09,0-.95-.02-2.32-.03-4.02-.05-3.4-.12-8.09-.19-13.27-.06-5.18,0-9.88.15-13.28.08-1.7.16-3.07.23-4.02.04-.47.07-.84.09-1.09.02-.25.04-.38.05-.38.01,0,.01.13,0,.38,0,.25-.02.62-.04,1.09-.03.95-.08,2.32-.14,4.02-.1,3.39-.13,8.08-.06,13.27.06,5.18.13,9.88.11,13.27,0,1.7-.03,3.07-.06,4.02-.02.47-.03.84-.04,1.09-.01.25-.02.38-.03.38Z"/>
    <path class="cls-2" d="M114.69,153.23s-.02-.13-.02-.39c0-.25,0-.63-.01-1.1,0-.96,0-2.35.01-4.06.04-3.43.09-8.16.14-13.39.09-5.23.17-9.96.23-13.39.04-1.71.08-3.1.1-4.06.02-.48.03-.85.04-1.1.01-.25.02-.38.03-.39.01,0,.02.13.02.38,0,.25,0,.62.01,1.1,0,.96,0,2.35-.01,4.06-.04,3.43-.09,8.16-.14,13.39-.09,5.23-.17,9.96-.23,13.39-.04,1.71-.08,3.1-.1,4.06-.02.48-.03.85-.04,1.1-.01.25-.02.38-.03.38Z"/>
    <path class="cls-2" d="M152.22,152.63s-.02-.13-.04-.37c-.01-.25-.03-.61-.06-1.07-.04-.93-.09-2.27-.16-3.94-.13-3.32-.32-7.92-.44-12.99-.12-5.08-.09-9.68.04-13,.06-1.66.13-3.01.2-3.94.04-.46.06-.82.08-1.07.02-.24.04-.37.05-.37.01,0,.01.13.01.37,0,.25-.02.61-.03,1.07-.02.93-.06,2.27-.11,3.94-.07,3.32-.07,7.92.05,12.99.14,5.07.26,9.67.35,12.99.03,1.66.05,3.01.07,3.94,0,.46,0,.83,0,1.07,0,.25,0,.37-.02.37Z"/>
    <path class="cls-2" d="M106.82,152.29c0,.08-8.44.26-18.85.4s-18.85.19-18.85.11,8.44-.26,18.85-.4,18.85-.19,18.85-.11Z"/>
    <path class="cls-2" d="M153.5,151.52s-.14.02-.4.04c-.26.01-.65.03-1.15.06-1,.04-2.44.09-4.22.15-3.57.11-8.49.24-13.93.31-5.44.07-10.37.05-13.94,0-1.78-.04-3.23-.07-4.22-.1-.5-.02-.88-.04-1.15-.05-.26-.01-.4-.03-.4-.04,0-.01.14-.02.4-.02.26,0,.65,0,1.15,0,1,0,2.44,0,4.22,0,3.57,0,8.49-.01,13.93-.08,5.44-.09,10.37-.16,13.93-.22,1.78-.03,3.23-.05,4.22-.06.5,0,.89,0,1.15,0,.26,0,.4,0,.4.02Z"/>
    <path class="cls-2" d="M199.91,150.48s-.14.03-.41.05c-.27.02-.67.05-1.18.09-1.02.07-2.5.14-4.33.2-3.66.13-8.72.15-14.3.14-2.79,0-5.45,0-7.87,0-2.42,0-4.59.05-6.42.19-1.83.12-3.31.19-4.33.19-.51,0-.91-.01-1.18-.03-.27-.02-.41-.03-.41-.04,0-.01.14-.02.41-.02.27,0,.67-.02,1.18-.03,1.02-.03,2.5-.14,4.32-.28,1.82-.16,4.01-.23,6.43-.25,2.42-.03,5.08-.04,7.87-.03,5.58.02,10.64.02,14.3-.05,1.83-.05,3.31-.08,4.33-.11.51-.01.91-.02,1.18-.03.27,0,.41,0,.41,0Z"/>
    <g>
      <path class="cls-2" d="M23.58,152.97s-.02-.13-.02-.38c0-.25,0-.62.01-1.09.02-.95.05-2.32.08-4.01.07-3.39.16-8.07.2-13.24.04-5.17.03-9.85.02-13.24,0-1.69,0-3.06-.01-4.01,0-.47,0-.84,0-1.09,0-.25.01-.38.02-.38.01,0,.02.13.04.38.01.25.03.62.05,1.09.02.95.06,2.32.11,4.01.07,3.39.11,8.07.07,13.24-.04,5.17-.16,9.85-.29,13.24-.07,1.69-.13,3.06-.17,4.01-.03.47-.05.84-.07,1.09-.02.25-.03.38-.04.38Z"/>
      <path class="cls-2" d="M59.29,154.15s-.02-.14-.02-.4c0-.26,0-.65-.01-1.14,0-.99-.02-2.42-.03-4.19-.03-3.54-.13-8.43-.13-13.84-.01-5.41.18-10.3.45-13.84.13-1.77.24-3.19.31-4.18.04-.49.08-.88.1-1.14.03-.26.04-.4.05-.39.01,0,.01.14,0,.4-.01.26-.03.65-.04,1.14-.05.99-.13,2.42-.22,4.19-.22,3.53-.38,8.42-.37,13.82.02,5.4.04,10.3.05,13.84-.01,1.77-.04,3.2-.07,4.2-.02.49-.03.88-.04,1.14-.01.26-.02.4-.03.4Z"/>
      <path class="cls-2" d="M61.42,116.12s-.14.02-.39.02c-.26,0-.63,0-1.12,0-.97-.01-2.38-.03-4.12-.05-3.48-.03-8.29-.08-13.6-.14-5.31,0-10.12,0-13.6,0-1.74,0-3.15,0-4.12.01-.49,0-.86,0-1.12,0-.26,0-.39-.01-.39-.02,0-.01.13-.02.39-.04.26-.01.63-.03,1.12-.05.97-.02,2.38-.06,4.12-.11,3.48-.07,8.29-.12,13.6-.09,5.31.03,10.12.12,13.6.22,1.74.06,3.15.11,4.12.14.49.02.86.04,1.12.06.26.02.39.03.39.04Z"/>
      <path class="cls-2" d="M61.43,151.54s-.13.02-.39.02c-.26,0-.63,0-1.12,0-.97-.01-2.37-.03-4.1-.05-3.46-.04-8.25-.07-13.54-.02-5.29.05-10.07.17-13.53.27-1.73.05-3.13.09-4.1.12-.48.01-.86.02-1.12.02-.26,0-.39,0-.39-.01,0-.01.13-.03.39-.05.26-.02.63-.04,1.11-.08.97-.05,2.37-.12,4.1-.21,3.46-.16,8.25-.31,13.54-.35,5.29-.05,10.08.02,13.54.11,1.73.06,3.13.11,4.1.14.48.03.86.04,1.11.06.25.02.39.03.39.04Z"/>
      <path class="cls-2" d="M49.28,156.74s-.02-.16-.03-.46c0-.3,0-.75-.01-1.32,0-1.15.01-2.81.02-4.86-.02-2.04-.07-4.49-.55-7.15-.24-1.33-.6-2.7-1.13-4.07-.53-1.36-1.25-2.71-2.01-4.07-.76-1.36-1.52-2.7-2.12-4.06-.6-1.36-1.03-2.74-1.23-4.1-.4-2.71-.25-5.16-.34-7.21-.05-2.05-.08-3.71-.06-4.86.02-.57.03-1.02.04-1.32.02-.3.03-.46.04-.46s.02.16.02.46c0,.3,0,.75.02,1.32.01,1.15.07,2.8.15,4.85.11,2.05-.01,4.51.39,7.17.2,1.33.62,2.68,1.22,4.02.6,1.34,1.35,2.66,2.12,4.03.76,1.37,1.49,2.72,2.03,4.11.53,1.39.89,2.78,1.13,4.12.48,2.69.5,5.15.5,7.2-.02,2.05-.09,3.71-.11,4.86-.02.57-.03,1.02-.04,1.32-.01.3-.02.46-.03.46Z"/>
      <path class="cls-2" d="M55.5,156.4s-.02-.16-.04-.47c-.01-.31-.03-.76-.05-1.35,0-1.17-.02-2.86-.03-4.96-.04-2.09-.05-4.59-.51-7.31-.46-2.69-1.39-5.68-3.37-8.16-.96-1.26-2.26-2.16-3.22-3.36-.99-1.2-1.37-2.71-1.48-4.09-.12-1.39-.05-2.71-.07-3.94,0-1.23,0-2.38,0-3.42,0-2.09.01-3.79.01-4.96,0-.58.01-1.04.02-1.35,0-.31.02-.47.03-.47.01,0,.02.16.03.47,0,.31.02.76.04,1.35.02,1.17.05,2.86.08,4.96.01,1.05.03,2.19.04,3.42.03,1.23-.03,2.55.1,3.91.12,1.36.49,2.79,1.44,3.94.92,1.15,2.24,2.07,3.23,3.36,2.03,2.54,2.95,5.58,3.41,8.3.45,2.75.44,5.26.45,7.35-.03,2.09-.05,3.79-.06,4.96,0,.58,0,1.04,0,1.35,0,.31,0,.47-.02.47Z"/>
      <path class="cls-2" d="M45.81,154.69s-.02-.15-.02-.43c0-.28,0-.69-.02-1.22-.02-1.06-.05-2.6-.08-4.5-.01-1.9-.04-4.17.22-6.69.14-1.26.53-2.57,1.19-3.79.64-1.22,1.48-2.38,2.23-3.61.76-1.23,1.34-2.51,1.59-3.84.26-1.33.31-2.65.33-3.9,0-2.51-.01-4.78-.02-6.68,0-1.9,0-3.44,0-4.5,0-.53.01-.94.02-1.22,0-.28.02-.43.03-.43.01,0,.02.15.03.43,0,.28.02.69.04,1.22.02,1.06.05,2.6.09,4.5.02,1.9.08,4.16.08,6.68-.02,1.26-.05,2.59-.32,3.95-.25,1.37-.85,2.7-1.62,3.94-.76,1.25-1.59,2.39-2.22,3.59-.65,1.19-1.03,2.45-1.17,3.69-.27,2.48-.27,4.76-.28,6.65,0,1.9,0,3.44-.01,4.5-.02.53-.03.94-.04,1.22-.01.28-.03.43-.04.43Z"/>
      <path class="cls-2" d="M66.21,125.56s-.19.02-.54,0c-.35-.02-.87-.05-1.54-.09-1.33-.04-3.27-.03-5.65.02-2.38.08-5.23.25-8.31.92-3.05.68-6.39,1.94-9.17,4.27-2.79,2.3-4.54,5.59-4.5,8.76-.25,3.14-.22,5.99-.26,8.38,0,2.39.02,4.32.05,5.66.01.67.02,1.19.02,1.54,0,.35,0,.54,0,.54,0,0-.03-.18-.05-.54-.02-.35-.04-.87-.08-1.54-.06-1.34-.12-3.27-.14-5.66,0-2.39-.04-5.24.2-8.4.04-.79.08-1.61.29-2.43.2-.81.51-1.62.91-2.39.8-1.55,1.97-2.96,3.38-4.14,2.84-2.37,6.22-3.63,9.3-4.31,3.11-.66,5.97-.82,8.36-.87,2.39-.03,4.32,0,5.67.07.66.06,1.18.11,1.53.15.35.03.53.04.53.05Z"/>
      <path class="cls-2" d="M62.95,133.49s-.15.02-.43.03c-.28,0-.7.02-1.23.04-1.07.02-2.61.05-4.52.09-3.82.05-9.09.11-14.92.18-2.91.02-5.69.05-8.21.07-2.52,0-4.8.06-6.71-.03-1.91-.09-3.45-.16-4.52-.21-.53-.02-.95-.04-1.23-.05-.28-.01-.43-.03-.43-.04s.15-.02.43-.02c.28,0,.7,0,1.23,0,1.07.03,2.61.07,4.52.12,1.91.06,4.18,0,6.7-.03,2.52-.03,5.3-.06,8.21-.09,5.83-.04,11.1-.07,14.92-.1,1.91,0,3.45,0,4.52,0,.53,0,.95.01,1.23.02.28,0,.43.02.43.03Z"/>
      <path class="cls-2" d="M64.16,130.63s-.16.01-.47.01c-.31,0-.76-.02-1.35-.04-1.17-.03-2.86-.17-4.93,0-2.08.13-4.44,1.02-6.82,2.4-2.4,1.33-4.88,3.17-7.91,4.28-1.51.56-3.1.79-4.61.81-1.51.02-2.96-.02-4.34-.04-2.76-.05-5.25-.09-7.34-.12-2.09-.05-3.78-.08-4.95-.11-.58-.02-1.04-.03-1.34-.04-.31-.01-.47-.03-.47-.04,0-.01.16-.02.47-.02.31,0,.76,0,1.35-.01,1.17,0,2.86,0,4.95.01,2.09.02,4.58.04,7.34.06,2.74-.05,5.86.36,8.84-.77,2.98-1.09,5.45-2.91,7.88-4.24,2.4-1.37,4.82-2.26,6.93-2.37,2.1-.15,3.79.03,4.95.09.58.04,1.03.07,1.34.09.31.02.47.04.47.05Z"/>
    </g>
    <path class="cls-1" d="M61.14,158.85"/>
    <path class="cls-2" d="M64.78,135.67s-.65.2-1.87.26c-1.21.06-3.02,0-5.13-.69-2.12-.67-4.33-2.16-6.65-3.79-2.38-1.55-4.9-3.49-8.01-4.35-3.11-.89-6.25-.98-9.09-1-2.85.02-5.43.03-7.59.04-2.16,0-3.91-.01-5.12-.04-1.21-.03-1.88-.07-1.88-.13,0-.06.67-.13,1.87-.21s2.95-.16,5.11-.24c2.16-.08,4.73-.18,7.59-.23,2.86-.03,6.08.03,9.33.97,1.62.47,3.14,1.18,4.48,2.02,1.33.84,2.57,1.68,3.75,2.51,2.32,1.68,4.39,3.16,6.4,3.87,1.98.74,3.73.89,4.92.93,1.2.04,1.87,0,1.87.08Z"/>
    <path class="cls-2" d="M40.43,156.79c-.06,0-.09-.69-.13-1.93-.03-1.24-.1-3.03-.1-5.26.02-2.22.09-4.91.81-7.82.72-2.88,2.02-5.99,4.28-8.65,1.11-1.33,2.44-2.43,3.85-3.28,1.42-.83,2.85-1.39,3.91-2.28,1.07-.87,1.66-2.1,2-3.31.34-1.22.47-2.42.59-3.51.22-2.19.27-3.99.33-5.22.06-1.24.11-1.93.17-1.93.06,0,.12.69.17,1.93.04,1.24.09,3.04-.05,5.27-.08,1.11-.17,2.34-.5,3.65-.32,1.29-.96,2.72-2.18,3.74-1.19,1.02-2.67,1.61-3.99,2.4-1.32.81-2.56,1.85-3.62,3.11-2.14,2.52-3.42,5.51-4.16,8.28-.74,2.79-.88,5.43-.97,7.63-.08,2.21-.1,4.01-.18,5.25-.07,1.24-.16,1.93-.22,1.92Z"/>
    <path class="cls-2" d="M99.61,153.15s-.02-.14-.03-.41c0-.27-.02-.66-.03-1.17-.02-1.01-.01-2.48.01-4.29.04-3.62.28-8.62.15-14.13-.05-1.37-.21-2.71-.72-3.89-.49-1.18-1.24-2.2-1.98-3.13-.74-.94-1.52-1.77-2.09-2.7-.59-.92-.83-1.94-.91-2.84-.17-1.82-.06-3.29-.02-4.3.02-.5.04-.9.06-1.16.01-.27.02-.41.03-.41,0,0,.02.14.03.41,0,.27,0,.66,0,1.17,0,1.01-.09,2.48.11,4.27.1.89.34,1.85.91,2.73.56.89,1.34,1.72,2.09,2.66.75.93,1.52,1.96,2.03,3.19.53,1.22.7,2.61.75,3.99.14,5.54-.13,10.53-.23,14.15-.05,1.81-.08,3.27-.11,4.28-.01.51-.02.9-.03,1.17,0,.27-.02.41-.03.41Z"/>
    <path class="cls-2" d="M96.53,154.91s-.02-.14-.03-.4c0-.27-.01-.66-.02-1.16,0-1.01-.02-2.46-.04-4.26,0-1.8,0-3.94-.01-6.31.02-2.38-.03-4.99-.24-7.72-.11-1.36-.26-2.69-.48-3.96-.21-1.27-.55-2.47-.71-3.67-.31-2.41.2-4.54.21-6.32.06-1.79.04-3.25.06-4.25.01-.5.03-.89.03-1.16.01-.26.03-.4.04-.4.01,0,.02.14.02.4,0,.27.01.66.02,1.16.01,1,.07,2.46.04,4.26.02,1.8-.46,3.94-.15,6.28.16,1.16.51,2.37.72,3.65.23,1.28.39,2.61.49,3.99.21,2.74.25,5.36.21,7.74-.02,2.38-.03,4.52-.05,6.32-.02,1.8-.04,3.25-.06,4.26-.01.5-.02.89-.03,1.16-.01.26-.02.4-.03.4Z"/>
    <path class="cls-2" d="M98.07,154.12s-.02-.14-.03-.41c0-.27-.01-.67-.02-1.18,0-1.02-.02-2.5-.04-4.33-.02-3.65-.05-8.7-.08-14.28-.04-5.57-.07-10.62-.1-14.28-.02-1.83-.03-3.3-.04-4.33,0-.51,0-.91,0-1.18,0-.27,0-.41.02-.41s.02.14.04.41c.01.27.03.67.06,1.18.03,1.02.08,2.5.14,4.33.09,3.65.16,8.7.18,14.28.03,5.58.02,10.62,0,14.28-.02,1.83-.04,3.3-.05,4.33-.01.51-.02.91-.03,1.18-.01.27-.02.41-.03.41Z"/>
    <path class="cls-2" d="M100.92,155.31s-.02-.15-.04-.43c-.01-.28-.03-.69-.05-1.23-.03-1.06-.09-2.61-.07-4.51.02-1.91.11-4.19.52-6.68.39-2.48.72-5.24.49-8.12-.11-1.44-.38-2.83-.81-4.12-.42-1.29-1-2.48-1.57-3.6-1.14-2.23-2.18-4.3-2.46-6.23-.26-1.9-.19-3.45-.2-4.52,0-.53,0-.95,0-1.23,0-.28,0-.43.02-.43,0,0,.02.15.04.43.01.28.03.69.05,1.23.04,1.06.02,2.61.29,4.49.3,1.87,1.34,3.91,2.5,6.14.57,1.12,1.17,2.32,1.6,3.63.43,1.31.71,2.73.83,4.19.24,2.92-.11,5.71-.51,8.19-.43,2.48-.54,4.74-.58,6.64-.04,1.9-.02,3.44-.02,4.51,0,.53,0,.95,0,1.23,0,.28-.01.43-.02.43Z"/>
    <path class="cls-2" d="M108.96,137.93s-.15.02-.44.02c-.29.01-.72.03-1.27.05-1.1.05-2.69.13-4.66.18-1.97.05-4.32.07-6.93-.12-1.3-.09-2.67-.29-4.06-.55-1.39-.25-2.85-.46-4.32-.82-1.47-.37-2.86-.84-4.17-1.46-.62-.35-1.23-.68-1.82-1.02-.6-.31-1.18-.68-1.78-.79-2.55-.45-4.91-.05-6.87.03-1.97.12-3.57.15-4.67.15-.55,0-.98,0-1.27-.01-.29,0-.44-.02-.44-.03,0-.01.15-.02.44-.03.29,0,.72-.02,1.27-.04,1.1-.04,2.69-.1,4.66-.25,1.95-.1,4.32-.53,6.93-.09.69.12,1.26.5,1.87.81.6.33,1.2.67,1.82,1.01,1.26.59,2.66,1.06,4.11,1.43,1.45.36,2.9.57,4.3.82,1.4.27,2.73.47,4.03.56,2.59.21,4.94.2,6.9.19,1.97-.04,3.56-.07,4.66-.09.55,0,.98,0,1.27,0,.29.02.44.03.44.04Z"/>
    <path class="cls-2" d="M109.3,132.57s-.15.02-.44.03c-.29,0-.71.01-1.25.02-1.09.03-2.66.05-4.59.3-1.92.25-4.18.82-6.52,1.87-2.36,1.01-4.82,2.42-7.58,3.56-1.38.56-2.78,1.01-4.17,1.26-1.39.25-2.75.33-4.04.38-2.58.14-4.9-.07-6.84-.18-1.94-.13-3.51-.22-4.6-.25-.54-.02-.97-.02-1.25-.02-.29,0-.44,0-.44-.01,0-.01.15-.03.44-.05.29-.02.71-.04,1.25-.04,1.09,0,2.67.06,4.61.16,1.94.08,4.26.27,6.82.12,1.28-.06,2.63-.14,4-.39,1.37-.25,2.74-.7,4.11-1.25,2.74-1.13,5.21-2.52,7.59-3.53,2.37-1.04,4.66-1.6,6.6-1.82,1.94-.23,3.52-.22,4.61-.21.54.01.97.02,1.25.03.29.01.44.02.44.03Z"/>
    <path class="cls-2" d="M109.94,130.82s-.15.02-.43.03c-.28,0-.7.02-1.24.03-1.08.02-2.63.04-4.56.07-1.92.02-4.21.04-6.76.07-1.27.05-2.61.01-3.98.13-1.37.15-2.8.26-4.24.46-2.9.46-5.56,1.27-7.93,2.21-2.36.97-4.68,1.34-6.59,1.51-3.85.3-6.23.08-6.23.08,0-.01.15-.02.43-.02.28,0,.7-.01,1.24-.02,1.07-.02,2.63-.05,4.54-.24,1.91-.2,4.17-.58,6.52-1.56,2.35-.95,5.06-1.79,7.97-2.25,1.46-.2,2.89-.31,4.27-.45,1.38-.11,2.72-.07,3.99-.11,2.54,0,4.83,0,6.76,0,1.92,0,3.48.02,4.56.02.54,0,.95.02,1.24.02.28,0,.43.02.43.03Z"/>
    <path class="cls-2" d="M94.77,156.34c-.06,0-.12-.63-.18-1.77-.06-1.14-.14-2.78-.25-4.82-.1-2.03-.24-4.46-.32-7.15-.03-1.35-.11-2.75-.05-4.26.04-.75.13-1.53.35-2.3.21-.77.51-1.5.83-2.21.64-1.42,1.27-2.78,1.67-4.15.42-1.36.54-2.73.58-4.06.06-2.69.11-5.11.15-7.14.05-2.03.14-3.69.21-4.83.07-1.14.14-1.77.2-1.77s.11.63.14,1.77c.02,1.14.04,2.78.07,4.82.02,2.04.04,4.46.03,7.17-.01,1.35-.13,2.83-.56,4.28-.41,1.45-1.06,2.86-1.69,4.27-.66,1.4-1.07,2.77-1.12,4.2-.07,1.42-.01,2.85,0,4.19.05,2.69.1,5.12.14,7.15.03,2.04.01,3.69-.03,4.83-.04,1.14-.1,1.77-.16,1.77Z"/>
    <path class="cls-2" d="M108.36,134.53c.01.12-2.34.4-6.12.32-.94,0-1.97-.01-3.08-.02-.56-.02-1.14-.03-1.74-.05-.6-.05-1.22.02-1.84-.12-2.51-.43-5.18-.99-8-1.57-1.41-.28-2.79-.61-4.11-.83-.66-.11-1.31-.22-1.94-.33-.64-.07-1.27-.05-1.89-.08-2.46-.09-4.72.04-6.61.04-1.89.02-3.43-.03-4.49-.11-1.06-.08-1.64-.19-1.63-.25.01-.12,2.34-.05,6.1-.26,1.89-.08,4.12-.27,6.66-.22.63.02,1.29,0,1.94.06.66.1,1.33.21,2.01.32,1.36.22,2.72.54,4.14.82,2.82.58,5.53,1.17,7.93,1.63.6.15,1.21.1,1.79.15.58.03,1.15.06,1.7.09,1.12.03,2.15.08,3.1.13,1.89.11,3.41.18,4.46.2,1.05.03,1.64.04,1.64.1Z"/>
    <path class="cls-2" d="M154.83,123.24s-.61-.09-1.7,0c-1.09.07-2.63.49-4.45,1.21-1.82.69-4.02,1.7-6.66,1.82-2.63.17-5.49-.38-8.37-1.21-2.89-.84-5.58-1.79-8.12-2.31-1.27-.27-2.49-.43-3.63-.48-1.15-.01-2.22.02-3.2.04-1.96.05-3.55.08-4.65.11-.55,0-.98.01-1.27.02-.29,0-.44,0-.44-.01,0-.01.15-.03.44-.04.29-.02.72-.04,1.26-.07,1.1-.05,2.69-.12,4.65-.2.98-.03,2.06-.08,3.22-.07,1.16.04,2.4.2,3.68.46,2.56.51,5.27,1.46,8.15,2.29,2.87.83,5.7,1.38,8.28,1.22,2.59-.11,4.77-1.08,6.61-1.75,1.84-.7,3.41-1.1,4.52-1.13,1.11-.05,1.71.11,1.71.11Z"/>
    <path class="cls-2" d="M155.67,126.56s-.16,0-.46-.02c-.3-.02-.74-.06-1.3-.14-.56-.08-1.25-.19-2.03-.37-.79-.17-1.66-.44-2.64-.7-1.94-.57-4.28-1.16-6.95-1.26-2.66-.14-5.59.24-8.54,1.16-1.48.43-2.93.87-4.37,1.15-1.44.29-2.86.36-4.2.39-2.68.03-5.09.06-7.11.08-2.02,0-3.66.02-4.79.02-.57,0-1.01,0-1.3,0-.3,0-.45-.01-.45-.02,0-.01.16-.02.45-.04.3-.01.74-.03,1.3-.05,1.13-.03,2.77-.07,4.79-.12,2.02-.04,4.43-.09,7.11-.14,1.33-.04,2.73-.12,4.15-.4,1.42-.28,2.86-.72,4.35-1.15,2.96-.92,5.94-1.31,8.63-1.15,2.7.11,5.06.73,6.99,1.33,1.94.59,3.52.99,4.64,1.15.56.09.99.15,1.29.2.29.04.45.06.45.07Z"/>
    <path class="cls-2" d="M154.24,128.64s-.15.03-.43.05c-.28.02-.7.05-1.23.1-1.07.07-2.63.17-4.54.3-1.92.12-4.2.25-6.74.41-1.27.06-2.63.08-4-.22-1.37-.27-2.73-.75-4.15-1.08-1.41-.36-2.84-.39-4.22-.36-1.38.03-2.72.06-3.99.08-2.54.05-4.83.09-6.75.13-1.92.02-3.48.05-4.55.06-.54,0-.95,0-1.24,0-.28,0-.43,0-.43-.02,0-.01.15-.02.43-.04.28-.01.7-.03,1.24-.06,1.08-.04,2.63-.09,4.55-.15,1.92-.05,4.21-.12,6.75-.19,1.27-.03,2.6-.07,3.99-.1,1.38-.04,2.85,0,4.29.36,5.59,2.21,11,.96,14.82.96,1.92-.09,3.47-.16,4.55-.21.54-.02.95-.03,1.24-.04.28,0,.43,0,.43,0Z"/>
    <path class="cls-2" d="M155.03,136.88s-.15.02-.44.02c-.29,0-.71,0-1.26,0-1.09-.02-2.67-.05-4.62-.08-1.95-.03-4.27-.15-6.85-.06-1.29.04-2.63.15-4.01.38-1.38.22-2.81.52-4.29.73-2.96.45-5.87.28-8.39-.3-2.53-.56-4.76-1.19-6.66-1.62-1.9-.44-3.46-.68-4.54-.76-.54-.04-.97-.05-1.25-.05-.29,0-.44,0-.44-.01,0,0,.6-.1,1.7-.06,1.09.04,2.67.25,4.58.67,1.91.4,4.16,1.02,6.67,1.56,2.5.56,5.36.72,8.29.28,1.47-.21,2.89-.51,4.28-.73,1.39-.23,2.75-.33,4.05-.37,2.59-.08,4.91.07,6.86.12,1.95.07,3.53.13,4.62.17.54.03.97.05,1.26.06.29.02.44.03.44.04Z"/>
    <path class="cls-2" d="M155.37,138.78s-.15.02-.44.03c-.29,0-.72.02-1.28.03-1.11.02-2.71.02-4.69-.04-1.98-.05-4.34-.17-6.95-.38-1.31-.09-2.67-.31-4.09-.47-1.42-.21-2.84-.63-4.31-.94-2.94-.64-5.85-.64-8.4-.17-2.57.43-4.7,1.54-6.67,1.91-1.95.42-3.57.46-4.68.45-.55,0-.99-.03-1.28-.05-.29-.02-.44-.04-.44-.05,0-.01.15-.01.45-.01.29,0,.72,0,1.27,0,1.1-.03,2.71-.1,4.63-.54,1.93-.38,4.06-1.51,6.67-1.97,2.59-.5,5.54-.5,8.51.15,1.48.31,2.9.73,4.3.94,1.41.16,2.76.39,4.07.49,2.61.23,4.96.36,6.93.44,1.98.08,3.58.11,4.69.13.55,0,.98.02,1.27.02.29,0,.44.02.44.03Z"/>
    <path class="cls-2" d="M153.84,143.15s-.15.02-.43.04c-.28.02-.7.03-1.24.04-1.08.02-2.63-.01-4.55-.09-1.92-.07-4.21-.2-6.74-.15-1.27.02-2.59.1-3.96.28-1.36.18-2.76.47-4.21.74-2.86.56-5.75.9-8.25.19-2.47-.72-4.46-1.9-6.34-2.3-1.86-.42-3.44-.35-4.5-.33-.54.02-.95.03-1.24.04-.28,0-.43,0-.43,0,0-.01.15-.03.43-.06.28-.02.7-.05,1.24-.09,1.07-.05,2.65-.15,4.55.25,1.92.38,3.94,1.55,6.36,2.24,2.44.68,5.27.34,8.13-.22,1.44-.27,2.84-.56,4.22-.74,1.38-.18,2.72-.25,3.99-.27,2.55-.03,4.84.12,6.75.22,1.92.11,3.47.17,4.54.18.54,0,.95.01,1.24.02.28,0,.43.01.43.02Z"/>
    <path class="cls-2" d="M154.86,145.02s-.15.03-.44.05c-.29.02-.72.07-1.27.07-1.1.04-2.7-.06-4.66-.33-1.95-.27-4.25-.77-6.79-1.31-2.54-.53-5.35-1.11-8.33-1.27-2.98-.15-5.84.2-8.35.85-2.51.66-4.71,1.48-6.66,1.85-1.97.31-3.58.07-4.67.02-.55-.04-.97-.07-1.26-.09-.29-.02-.44-.03-.44-.04,0,0,.15-.02.44-.02.29,0,.72,0,1.27.03,1.09.02,2.7.22,4.63-.11,1.91-.4,4.11-1.23,6.63-1.91,2.53-.67,5.41-1.03,8.43-.88,3.02.17,5.83.76,8.38,1.3,2.54.55,4.83,1.06,6.77,1.36,1.94.3,3.53.42,4.62.42.55.03.97-.01,1.26-.01.29,0,.44,0,.44,0Z"/>
    <path class="cls-2" d="M125.32,155.03s-.02-.15-.03-.43c0-.28,0-.7-.02-1.23,0-1.07.02-2.61-.06-4.51-.1-1.89-.27-4.18-1.05-6.56-.35-1.18-1.12-2.36-1.19-3.79-.17-1.37-.07-2.87.47-4.24,1.33-2.67.71-5.51.63-8.01-.19-2.52-.11-4.8-.05-6.7.08-1.9.14-3.45.18-4.51.02-.53.03-.95.04-1.23,0-.28.02-.43.03-.43s.02.15.03.43c0,.28.01.7.02,1.23,0,1.07-.04,2.61-.09,4.52-.03,1.9-.1,4.17.11,6.68.08,1.26.19,2.58.24,3.95.03.69-.03,1.41-.18,2.11-.15.71-.43,1.39-.67,2.06-.52,1.35-.62,2.76-.46,4.11.05,1.36.8,2.5,1.16,3.73.78,2.43.93,4.73,1,6.63.06,1.91,0,3.45-.03,4.52-.02.53-.03.95-.04,1.23-.01.28-.02.43-.03.43Z"/>
    <path class="cls-2" d="M130.9,155.37s-.01-.14-.01-.42c0-.27,0-.68-.01-1.2-.01-1.04-.14-2.55-.03-4.42.07-1.85.2-4.09-.27-6.49-.45-2.41-1.77-4.83-2.28-7.68-.25-1.42-.12-2.88.29-4.16.39-1.29.89-2.49,1.12-3.68.42-2.41.43-4.64.43-6.5,0-1.86-.03-3.37,0-4.41,0-.52.02-.93.04-1.2.02-.27.03-.42.04-.42.01,0,.02.14.02.42,0,.27,0,.68.02,1.2.02,1.04.06,2.55.1,4.41.02,1.86.04,4.09-.37,6.55-.23,1.23-.73,2.44-1.11,3.71-.4,1.27-.52,2.65-.28,4.04.49,2.77,1.81,5.22,2.26,7.67.46,2.45.3,4.7.21,6.55-.13,1.86-.04,3.36-.06,4.41,0,.52-.03.93-.04,1.2-.02.27-.04.42-.05.42Z"/>
    <path class="cls-2" d="M140.05,155.68s-.05,0,0,.07c.05.06.12-.06.09-.2,0-.29-.01-.71-.02-1.25,0-1.09,0-2.66-.02-4.6,0-1.94,0-4.26.01-6.83,0-1.28.01-2.64.17-4.04.08-.7.22-1.41.44-2.11.22-.7.51-1.38.8-2.06,1.18-2.71,1.54-5.56,1.32-8.1-.12-1.27-.36-2.46-.7-3.54-.34-1.08-.8-2.04-1.15-2.95-.76-1.82-.78-3.46-.77-4.54.01-.54.03-.97.05-1.25.02-.29.04-.44.05-.43.01,0,.01.15.01.44,0,.29,0,.71,0,1.25.02,1.08.07,2.68.84,4.46.36.9.83,1.86,1.19,2.96.35,1.09.62,2.3.74,3.59.24,2.57-.12,5.49-1.31,8.23-.6,1.36-1.08,2.7-1.22,4.09-.16,1.38-.18,2.73-.19,4.01-.03,2.57-.05,4.88-.08,6.82-.03,1.94-.06,3.51-.08,4.6-.02.54-.03.96-.04,1.25,0,.07,0,.14-.04.2-.03.06-.12.07-.14.02-.05-.09.05-.11.03-.09Z"/>
    <path class="cls-2" d="M147.32,154.34s-.02-.14-.04-.41c-.01-.27-.03-.67-.06-1.18-.05-1.03-.11-2.52-.2-4.35-.07-1.84-.11-4.04.03-6.47.07-1.22.2-2.49.2-3.8,0-1.31-.2-2.66-.43-4.05-.22-1.39-.45-2.73-.8-4-.32-1.28-.78-2.5-.84-3.74-.1-1.23-.03-2.39-.02-3.46,0-1.08-.02-2.09-.04-3.01-.04-1.84-.04-3.33.02-4.36.03-.51.06-.91.09-1.18.03-.27.05-.41.06-.41s0,.14,0,.41c0,.27-.02.67-.04,1.18-.02,1.03,0,2.51.07,4.35.03.92.07,1.93.07,3.01,0,1.09-.05,2.24.05,3.44.06,1.21.52,2.41.85,3.69.36,1.28.59,2.65.81,4.03.23,1.38.44,2.76.43,4.09,0,1.33-.15,2.61-.22,3.82-.15,2.42-.13,4.61-.09,6.45.04,1.84.08,3.33.11,4.36,0,.51,0,.91,0,1.19,0,.27,0,.41-.02.41Z"/>
    <path class="cls-2" d="M127.65,156.85c-.16,0,.02-2.64-.54-6.84-.27-2.09-.61-4.61-1.74-7.12-.29-.62-.61-1.24-1.02-1.82-.37-.59-.9-1.08-1.41-1.72-.51-.63-.9-1.46-1.04-2.29-.16-.81-.23-1.63-.26-2.46-.08-1.66.16-3.34.76-4.82.3-.74.66-1.41,1.02-2.07.38-.67.82-1.25,1.19-1.83,1.5-2.28,1.57-4.89,1.64-6.98.07-2.14.2-3.85.25-5.04.06-1.19.08-1.84.15-1.85.06,0,.15.65.2,1.85.06,1.19.03,2.92.03,5.04.01,1.06,0,2.25-.18,3.52-.18,1.27-.6,2.64-1.39,3.88-.38.61-.81,1.19-1.15,1.8-.34.64-.69,1.3-.95,1.98-.54,1.37-.75,2.89-.68,4.47.03.79.1,1.58.24,2.32.13.73.42,1.36.86,1.93.43.56,1.01,1.12,1.42,1.78.43.63.76,1.3,1.06,1.96,1.15,2.67,1.42,5.27,1.62,7.38.18,2.12.23,3.87.14,5.06-.07,1.19-.16,1.85-.22,1.85Z"/>
    <path class="cls-2" d="M129.3,155.83c-.07,0-.09-.61-.18-1.7-.08-1.09-.28-2.66-.36-4.64-.03-.99-.03-2.09.14-3.26.15-1.17.55-2.42,1.07-3.61,1.04-2.32,1.48-5.15,1.29-8.06-.05-.7-.23-1.39-.43-2.07-.22-.69-.41-1.38-.69-1.98-.28-.62-.61-1.23-.9-1.86-.29-.63-.53-1.29-.7-1.94-.67-2.6-.58-5-.51-6.96.1-1.97.24-3.55.3-4.64.06-1.09.08-1.7.14-1.7.05,0,.16.6.2,1.71.04,1.1,0,2.7-.02,4.65,0,1.94,0,4.3.67,6.73.17.61.4,1.2.68,1.79.29.6.63,1.2.93,1.87.31.68.51,1.38.74,2.08.22.71.41,1.46.47,2.26.2,3.06-.29,6.03-1.42,8.44-1.12,2.32-1.34,4.6-1.33,6.55,0,1.94.11,3.54.08,4.64-.01,1.1-.1,1.71-.16,1.71Z"/>
    <path class="cls-2" d="M142.36,155.26s-.11-.6-.17-1.68c-.06-1.09-.13-2.66-.18-4.6-.06-1.94-.11-4.27-.04-6.83.02-1.28.05-2.62.02-4.01,0-1.4-.15-2.76-.52-4.18-.17-.72-.37-1.35-.7-1.97-.31-.62-.69-1.23-1-1.89-.61-1.33-.91-2.74-.9-4.08,0-1.34.29-2.59.66-3.69.4-1.12.79-2.04,1.01-2.98.45-1.85.5-3.42.57-4.5.06-1.08.11-1.69.17-1.69.06,0,.13.6.17,1.69.03,1.09.08,2.69-.31,4.64-.18.97-.58,2.03-.92,3.07-.32,1.07-.56,2.24-.54,3.47.01,1.22.3,2.51.87,3.72.29.6.66,1.2,1,1.87.36.66.6,1.44.77,2.15.38,1.45.54,2.99.53,4.38.02,1.41-.03,2.76-.07,4.05-.11,2.57-.13,4.86-.15,6.81-.05,3.88-.12,6.29-.27,6.29Z"/>
    <path class="cls-2" d="M145.38,154.91c-.06,0-.14-.58-.22-1.64-.08-1.06-.14-2.59-.18-4.48-.05-1.89-.08-4.14-.2-6.62-.08-2.46-.53-5.26.14-8.21.7-2.9,2.08-5.31,2.46-7.71.21-1.19.21-2.34-.07-3.35-.27-1.02-.77-1.95-1.04-2.89-.51-1.93-.25-3.49-.23-4.53.06-1.05.06-1.63.13-1.64.06,0,.17.58.21,1.64.08,1.05-.07,2.62.48,4.35.28.86.8,1.76,1.14,2.88.34,1.13.37,2.41.16,3.68-.38,2.58-1.76,5.06-2.41,7.77-.63,2.72-.23,5.47-.18,7.98.07,2.51.04,4.76,0,6.65-.04,1.89-.07,3.42-.1,4.47-.03,1.06-.06,1.64-.13,1.64Z"/>
    <path class="cls-2" d="M160.51,152.33s-.03-.13-.05-.38c-.02-.25-.05-.61-.08-1.08-.06-.94-.14-2.3-.21-3.99-.15-3.37-.28-8.03-.3-13.17-.02-5.15.04-9.8.1-13.17.05-1.68-.01-3.04,0-3.99,0-.47.01-.84.03-1.09.01-.25.03-.38.04-.38.01,0,.02.13.02.38,0,.25.01.61.03,1.08.03.94.12,2.31.09,3.99,0,3.37,0,8.03-.02,13.17.02,5.14.11,9.8.21,13.17.05,1.68.09,3.05.12,3.99.01.47.02.84.03,1.09,0,.25,0,.38-.01.38Z"/>
    <path class="cls-2" d="M198.64,151.89s-.02-.13-.03-.38c0-.25-.02-.62-.03-1.1-.03-.95-.09-2.33-.21-4.04-.24-3.4-.73-8.12-.57-13.34.05-2.6-.06-5.09-.11-7.34-.06-2.26-.09-4.29-.08-6,.01-1.71.06-3.09.12-4.05.03-.48.06-.85.08-1.1.02-.25.04-.38.05-.38.01,0,.01.13,0,.38,0,.25-.02.62-.03,1.1-.02.95-.05,2.34-.03,4.04.01,1.71.07,3.74.14,6,.07,2.26.18,4.74.13,7.35-.16,5.22.3,9.91.48,13.33.1,1.71.13,3.09.12,4.05,0,.48-.02.85-.03,1.1-.01.25-.02.38-.03.38Z"/>
    <path class="cls-1" d="M166.66,128.53"/>
    <path class="cls-2" d="M202.6,118.67s-.17.02-.49.02c-.32,0-.8,0-1.41.01-1.22,0-2.99.02-5.17.14-2.17.17-4.8.21-7.55,1.13-1.4.38-2.75,1.02-4.14,1.77-1.39.74-2.9,1.41-4.53,1.86-1.62.45-3.28.65-4.87.5-1.6-.13-3.07-.68-4.35-1.38-2.55-1.4-4.6-3.05-6.64-3.82-2.02-.88-3.85-.53-5.06-.52-.61.02-1.09.02-1.41,0-.32-.01-.49-.04-.49-.04,0-.01.17-.01.49-.02.32,0,.8-.02,1.4-.06.61-.03,1.35-.12,2.23-.12.88-.03,1.88.17,2.91.56,2.09.76,4.17,2.41,6.69,3.78,1.26.68,2.69,1.21,4.25,1.33,1.55.14,3.17-.05,4.77-.5,1.6-.44,3.08-1.1,4.47-1.83,1.38-.74,2.79-1.4,4.19-1.77,2.78-.91,5.44-.94,7.61-1.07,2.19-.09,3.96-.07,5.19-.04.61.02,1.09.03,1.41.04.32.01.49.03.49.04Z"/>
    <path class="cls-2" d="M201.69,117.41s-.16,0-.45,0c-.29,0-.73-.05-1.28-.06-1.11-.05-2.73-.05-4.71.11-3.97.28-9.41,1.48-14.97,3.95-2.76,1.21-5.3,2.8-7.99,3.16-.66.09-1.32.09-1.96.03-.63-.07-1.23-.22-1.8-.36-1.13-.31-2.2-.46-3.2-.57-1.98-.21-3.6-.25-4.71-.28-.56-.01-.99-.02-1.28-.02-.29,0-.45-.01-.45-.02,0-.01.15-.02.45-.04.29-.01.73-.03,1.29-.03,1.12,0,2.74.01,4.73.19.99.09,2.1.24,3.23.54.57.14,1.16.28,1.77.34.61.05,1.25.04,1.89-.04,2.61-.36,5.12-1.94,7.91-3.16,5.59-2.48,11.08-3.65,15.07-3.88,4-.26,6.46.17,6.46.17Z"/>
    <path class="cls-2" d="M202.83,134.11s-.16.03-.46.05c-.31.02-.76.05-1.34.09-1.16.06-2.85.11-4.93-.02-2.08-.15-4.54-.35-7.27-.82-1.36-.24-2.76-.66-4.16-1.19-1.4-.55-2.8-1.22-4.21-1.95-2.82-1.46-5.45-2.96-8.01-3.91-1.27-.5-2.54-.82-3.73-1.03-.3-.05-.59-.09-.88-.13-.29-.01-.58-.03-.86-.04-.56-.02-1.11-.05-1.62-.07-2.07-.07-3.76-.06-4.92-.09-.58-.01-1.03-.03-1.34-.03-.31-.01-.47-.02-.47-.03,0-.01.16-.02.47-.03.31,0,.76-.01,1.34-.02,1.16,0,2.84-.04,4.92,0,.52.02,1.07.03,1.64.05.28,0,.57.02.87.03.29.04.59.08.9.13,1.21.2,2.49.52,3.78,1.02,2.6.95,5.25,2.44,8.05,3.9,1.41.73,2.8,1.4,4.18,1.95,1.39.53,2.76.94,4.11,1.19,2.69.48,5.17.7,7.23.88,2.07.16,3.75.14,4.91.11.58-.01,1.03-.02,1.34-.03.31,0,.47,0,.47,0Z"/>
    <path class="cls-2" d="M203.68,124.65s-.17.01-.49.01c-.32,0-.8,0-1.41-.02-1.22-.01-3-.01-5.14.49-2.15.43-4.59,1.35-7.24,2.51-2.67,1.13-5.6,2.38-8.68,3.68-3.08,1.3-6.03,2.51-8.63,3.78-2.58,1.41-5.27,1.73-7.42,2.05-2.19.26-3.97.22-5.19.21-.61-.01-1.09-.02-1.41-.03-.32,0-.49-.02-.49-.03s.17-.02.49-.03c.32,0,.8-.01,1.41-.02,1.22-.02,3-.02,5.17-.3,2.14-.35,4.78-.68,7.32-2.09,2.6-1.28,5.56-2.51,8.64-3.81,3.08-1.3,6.02-2.54,8.69-3.66,2.66-1.15,5.14-2.07,7.3-2.47,2.16-.48,3.96-.45,5.18-.4.61.03,1.09.05,1.41.07.32.02.49.04.49.05Z"/>
    <path class="cls-2" d="M202.83,145.28c0,.06-.64.15-1.8.12-1.16-.02-2.84-.15-4.89-.52-1.02-.18-2.14-.43-3.32-.77-1.18-.36-2.39-.76-3.68-1.18-2.57-.77-5.54-1.06-8.65-.99-1.55.04-3.09.11-4.53.3-1.44.19-2.78.59-4.04,1.06-1.26.47-2.44,1-3.57,1.46-1.11.46-2.21.9-3.26,1.08-2.08.38-3.77.3-4.92.29-1.15-.03-1.79-.06-1.79-.12,0-.06.63-.15,1.79-.22,1.15-.09,2.83-.11,4.8-.56,1.95-.43,4.1-1.7,6.66-2.69,1.28-.5,2.7-.95,4.21-1.16,1.51-.21,3.04-.29,4.63-.32,3.17-.07,6.25.26,8.9,1.09,1.29.44,2.52.87,3.67,1.26,1.14.36,2.23.64,3.23.86,2,.44,3.65.66,4.79.78,1.14.13,1.78.15,1.78.22Z"/>
    <path class="cls-2" d="M203,142.55s-.16,0-.46-.04c-.3-.03-.75-.1-1.32-.21-1.14-.21-2.75-.66-4.76-1.13-1.99-.44-4.48-.92-7.13-.29-2.65.63-5.15,2.39-8.04,3.68-1.45.66-2.98,1.03-4.46,1.23-1.47.19-2.9.37-4.25.55-2.71.32-5.14.71-7.19.99-2.04.34-3.74.28-4.89.29-.58,0-1.02,0-1.33,0-.3,0-.46,0-.46,0,0,0,.16-.03.46-.05.3-.02.75-.05,1.33-.06,1.15-.05,2.83-.01,4.86-.38,2.04-.31,4.47-.72,7.18-1.05,1.35-.18,2.77-.37,4.25-.56,1.47-.2,2.95-.56,4.38-1.21,2.85-1.27,5.37-3.04,8.09-3.68,2.72-.64,5.24-.12,7.24.35,2.01.5,3.61.98,4.74,1.22.56.13,1,.21,1.3.26.3.05.46.08.46.09Z"/>
    <path class="cls-2" d="M202.94,143.69s-.16.03-.47.05c-.31.03-.77.05-1.36.02-1.19-.04-2.89-.37-4.89-1.04-2-.62-4.38-1.6-7.16-1.6-1.38,0-2.82.26-4.23.8-1.41.52-2.79,1.27-4.2,2.04-5.59,3.26-11.35,4.83-15.52,5.4-2.09.31-3.81.39-4.99.41-.59.02-1.05,0-1.36,0-.31,0-.47-.02-.47-.03,0-.01.16-.02.47-.03.31-.01.77-.01,1.36-.05,1.18-.05,2.88-.17,4.96-.5,4.15-.63,9.84-2.21,15.41-5.46,1.41-.77,2.81-1.52,4.24-2.05,1.43-.54,2.92-.81,4.33-.8,2.85.02,5.23,1.04,7.22,1.68,1.99.69,3.66,1.04,4.83,1.12.59.05,1.04.05,1.35.04.31,0,.47,0,.47,0Z"/>
    <path class="cls-2" d="M203.51,147.16s-.16.03-.47.07c-.31.03-.77.08-1.37.12-1.19.08-2.93.11-5.05-.17-2.11-.24-4.65-.74-7.22-1.98-1.26-.67-2.4-1.63-3.71-2.4-1.3-.75-2.84-1.22-4.4-1.58-3.16-.68-6.29-.59-9.06-.23-2.78.37-5.24.98-7.3,1.52-1.02.28-1.96.54-2.81.62-.85.09-1.58.1-2.17.1-.6-.01-1.06-.02-1.37-.03-.31-.01-.48-.02-.48-.03,0,0,.16-.02.48-.03.31,0,.78-.01,1.37-.02,1.19,0,2.91-.12,4.94-.8,2.05-.56,4.52-1.2,7.32-1.59,2.79-.38,5.95-.48,9.16.21,1.59.36,3.13.83,4.49,1.62,1.34.79,2.47,1.74,3.7,2.41,2.51,1.22,5.02,1.74,7.12,2.01,2.1.3,3.83.31,5.01.26.59-.03,1.05-.05,1.37-.06.31-.02.48-.02.48-.01Z"/>
    <path class="cls-2" d="M202.31,120.43c0,.06-.64.14-1.79.21-1.15.08-2.83.08-4.83.44-1,.18-2.06.49-3.18.92-1.13.42-2.32.97-3.7,1.31-1.38.34-2.9.38-4.41.2-1.51-.19-3.03-.58-4.55-1.01-1.52-.43-2.99-.85-4.43-1.13-1.44-.28-2.85-.42-4.19-.47-1.35-.05-2.63,0-3.83.12-1.19.14-2.37.22-3.41.2-2.09-.02-3.75-.17-4.9-.21-1.15-.05-1.79-.06-1.8-.13,0-.06.63-.16,1.8-.22,1.16-.06,2.84-.01,4.89-.07,1.03-.03,2.12-.13,3.34-.31,1.22-.15,2.54-.23,3.93-.21,1.39.03,2.84.16,4.33.43,1.49.28,2.99.71,4.5,1.13,3.01.87,5.96,1.5,8.54.87,1.29-.29,2.48-.8,3.64-1.21,1.16-.42,2.29-.7,3.33-.85,2.09-.3,3.78-.19,4.93-.17,1.16.04,1.8.07,1.8.13Z"/>
  </g>
</svg>