<?xml version="1.0" encoding="UTF-8"?>
<svg id="Capa_1" xmlns="http://www.w3.org/2000/svg" viewBox="0 0 119.52 171.95">
  <path d="M90.56,19.68s-.19-.03-.56-.12c-.37-.09-.92-.23-1.63-.41-1.43-.38-3.54-.93-6.26-1.65-5.43-1.46-13.29-3.58-23-6.19-9.71-2.61-21.27-5.72-34.11-9.18-1.6-.42-3.24-.86-4.88-1.23-1.64-.33-3.36-.44-5.04-.21-1.68.23-3.34.83-4.69,1.91-1.36,1.07-2.44,2.5-3.34,4.04-1.8,3.09-2.79,6.68-4.07,10.18-.62,1.76-1.24,3.53-1.87,5.32l-.46,1.33c-.09.37-.04.84.06,1.27.05.22.12.43.2.63.08.17.2.32.36.44.32.25.76.41,1.21.56,7.27,2.46,14.31,5.06,21.26,6.96.43.12.87.21,1.3.31.39.09.77.04,1.06-.17.3-.22.45-.55.54-.97l.33-1.3c.12-.44.21-.85.34-1.31.08-.23.18-.48.42-.69.27-.22.52-.24.73-.3.24-.04.43-.1.76-.07.22.04.44.08.66.13.44.09.86.2,1.29.31,1.7.47,3.32,1.07,4.92,1.65.81.29,1.58.56,2.4.83.21.08.42.16.63.31.21.15.38.38.47.61.17.46.2.91.14,1.37-.15.89-.52,1.64-.72,2.4-.1.37-.17.77-.04,1.02.13.28.42.47.78.57,1.55.48,3.07.96,4.57,1.43,3.01.94,5.92,1.86,8.74,2.74,5.64,1.77,10.9,3.42,15.69,4.93.3.09.61.2.88.27.27.06.54.05.78-.05.5-.21.8-.71,1-1.26.45-1.1.84-2.2,1.22-3.26.76-2.13,1.43-4.16,2.06-6.05.64-1.89,1.13-3.68,1.74-5.3.63-1.6,1.34-3.01,2.08-4.21,1.48-2.41,3.04-4,4.17-4.95,1.14-.95,1.83-1.32,1.83-1.32,0,0-.15.13-.45.35-.31.22-.75.57-1.3,1.06-1.1.98-2.62,2.57-4.05,4.98-.72,1.2-1.41,2.6-2.02,4.19-.59,1.59-1.06,3.4-1.69,5.3-.61,1.9-1.27,3.94-2.02,6.08-.38,1.07-.76,2.17-1.21,3.29-.19.55-.55,1.21-1.21,1.49-.32.14-.69.15-1.03.08-.32-.08-.6-.18-.91-.27-4.8-1.49-10.07-3.11-15.72-4.86-2.82-.88-5.75-1.78-8.76-2.71-1.5-.47-3.03-.94-4.58-1.42-.41-.11-.89-.38-1.1-.85-.22-.51-.09-.97,0-1.38.22-.82.58-1.58.71-2.34.05-.35.02-.77-.11-1.09-.11-.31-.39-.48-.78-.61-.78-.26-1.61-.54-2.4-.82-1.6-.57-3.22-1.17-4.88-1.63-.42-.11-.83-.22-1.25-.3l-.63-.12c-.11-.01-.36.03-.55.07-.2.05-.41.1-.49.17-.1.09-.19.25-.25.44-.12.39-.22.84-.33,1.26l-.33,1.29c-.08.45-.31,1-.75,1.31-.43.34-1.04.39-1.51.28-.44-.1-.89-.19-1.33-.31-7.01-1.91-14.04-4.51-21.31-6.96-.46-.15-.95-.31-1.39-.65-.22-.17-.41-.4-.53-.66-.11-.24-.18-.49-.24-.73-.11-.49-.19-.99-.06-1.56l.47-1.36c.63-1.79,1.25-3.57,1.87-5.33,1.29-3.5,2.27-7.09,4.13-10.28.92-1.58,2.04-3.06,3.48-4.2C11.46,1,13.23.36,14.99.12c1.77-.24,3.54-.12,5.23.22,1.69.39,3.29.83,4.91,1.25,12.85,3.43,24.39,6.63,34.09,9.3,9.69,2.69,17.53,4.87,22.95,6.37,2.71.76,4.81,1.35,6.23,1.76.71.21,1.25.36,1.62.47.36.11.55.18.55.18Z"/>
  <path d="M80.24,24.91s.04-.08.14-.22c.1-.14.26-.35.48-.6.44-.52,1.16-1.22,2.14-2.05.5-.41,1-.91,1.67-1.36.66-.44,1.44-.81,2.29-1.16.43-.17.92-.31,1.44-.31.53,0,1.01.16,1.52.26,1,.27,2.05.6,3.14.97,4.35,1.49,9.45,3.47,15.07,5.75,1.41.58,2.84,1.15,4.31,1.82,1.5.73,2.7,2.09,3.27,3.73.26.84.41,1.64.49,2.52.07.87-.07,1.78-.35,2.6-.12.4-.25.84-.48,1.25-.22.41-.53.77-.88,1.07-.82.6-1.73.75-2.65.79-1.83-.05-3.53-.51-5.15-1.05-1.62-.52-3.22-1.04-4.79-1.54-1.57-.51-3.11-.99-4.64-1.35-.77-.18-1.53-.31-2.3-.45-.76-.13-1.51-.25-2.24-.26-.73-.02-1.45.07-2.08.35-.64.28-1.22.7-1.77,1.15-1.11.9-2.11,1.84-2.97,2.87-1.73,2.04-2.91,4.26-3.86,6.34-.47,1.04-.89,2.05-1.27,3-.2.47-.28.99-.75,1.4-.21.16-.49.27-.76.27-.27,0-.51-.05-.73-.11-1.76-.54-3.23-1.05-4.46-1.45-.61-.22-1.15-.35-1.61-.6-.22-.14-.41-.31-.47-.55-.05-.23,0-.42.03-.59.19-.66.4-.96.4-.96.03.01-.14.33-.28.98-.03.16-.05.35,0,.53.05.17.23.33.42.44.42.21,1,.34,1.6.53,1.23.36,2.72.85,4.46,1.35.44.12.86.16,1.21-.13.29-.24.43-.77.61-1.25.37-.97.78-1.99,1.24-3.04.94-2.1,2.11-4.37,3.86-6.48.87-1.05,1.9-2.04,3.01-2.95.56-.46,1.17-.92,1.88-1.23.72-.32,1.53-.42,2.31-.41.78.01,1.56.13,2.33.26.76.13,1.55.26,2.33.44,1.56.36,3.12.84,4.69,1.35,1.57.5,3.17,1.02,4.79,1.54,1.59.54,3.29.98,4.96,1.02.81-.02,1.7-.22,2.28-.65.64-.52.96-1.22,1.19-2.05.59-1.56.32-3.23-.12-4.76-.51-1.49-1.61-2.74-2.97-3.41-1.42-.65-2.87-1.24-4.27-1.82-5.6-2.31-10.68-4.33-15-5.86-1.08-.38-2.11-.72-3.1-1-.49-.11-.98-.27-1.43-.27-.46,0-.9.11-1.32.26-.84.33-1.61.68-2.26,1.09-.64.41-1.16.91-1.67,1.3-1,.81-1.73,1.47-2.2,1.96-.47.48-.69.76-.71.75Z"/>
  <path d="M114.29,32.39c-.07.02.04-.92-.91-2.11-.84-1.33-3.01-2.01-5.52-3.06-2.54-1.01-5.59-2.14-8.97-3.4-1.69-.64-3.47-1.3-5.31-2-1.83-.69-3.72-1.63-5.71-1.25-1.98.34-3.64,1.62-4.99,2.98-.69.68-1.3,1.42-1.9,2.15-.6.73-1.12,1.45-1.54,2.24-.44.78-.85,1.56-1.21,2.32-.36.75-.58,1.56-.86,2.31-.53,1.52-1.02,2.93-1.47,4.22-.92,2.57-1.66,4.66-2.17,6.1-.27.72-.48,1.27-.62,1.65-.15.37-.23.57-.25.56-.02,0,.03-.21.14-.6.12-.39.29-.95.51-1.68.47-1.46,1.15-3.56,1.99-6.16.43-1.3.9-2.72,1.4-4.25.27-.76.48-1.56.85-2.36.36-.79.77-1.57,1.21-2.37.41-.81.98-1.61,1.58-2.34.61-.73,1.22-1.49,1.93-2.2,1.39-1.4,3.12-2.77,5.3-3.16,1.08-.2,2.19-.05,3.18.25,1,.3,1.92.7,2.84,1.05,1.84.7,3.61,1.38,5.29,2.03,3.38,1.29,6.42,2.46,8.94,3.52,1.26.53,2.4,1.02,3.37,1.52.48.25.95.5,1.31.82.35.32.63.65.86.97.46.63.66,1.23.72,1.63.06.41.02.62,0,.62Z"/>
  <path d="M112.58,31.63s.27-.05.7.11c.42.18,1.05.59,1.34,1.44.14.41.17.88.19,1.34.03.5-.08,1.05-.32,1.56-.24.51-.61,1.01-1.14,1.36-.54.36-1.23.51-1.9.4-.67-.09-1.3-.51-1.64-1.05-.36-.54-.47-1.17-.47-1.72.03-1.1.34-2.11.95-2.74.62-.63,1.33-.78,1.79-.81.47-.02.71.1.7.13,0,.05-.25.01-.67.1-.41.08-1.03.3-1.5.86-.48.55-.72,1.47-.72,2.46-.02.97.56,2.05,1.66,2.2,1.1.2,2.05-.54,2.46-1.42.22-.44.33-.89.32-1.32,0-.46,0-.88-.1-1.23-.18-.7-.7-1.14-1.04-1.35-.37-.21-.61-.28-.6-.32Z"/>
  <path d="M111.44,37.55c-.02-.09.45-.2,1.05-.55.3-.18.6-.45.81-.83.21-.38.34-.88.42-1.42.15-1.07-.05-2.06-.53-2.52-.48-.47-.99-.5-.96-.61-.01-.05.53-.2,1.24.29.72.51,1.01,1.75.84,2.91-.08.59-.24,1.15-.53,1.62-.29.47-.71.77-1.08.93-.75.3-1.23.24-1.24.18Z"/>
  <path d="M71.46,46.46s0,.07-.04.2c-.04.13-.09.32-.19.56-.1.24-.22.55-.51.84-.14.14-.37.25-.61.25-.23.01-.46,0-.71-.03-1.98-.27-4.66-1.22-8.04-2.2-6.72-2.06-16-4.89-26.25-8.03-10.23-3.2-19.5-6.1-26.2-8.19-3.33-1.06-6.11-1.88-7.73-3.1-.39-.31-.7-.67-.85-1.03-.15-.37-.18-.7-.19-.96,0-.26.01-.46.03-.59.02-.13.03-.2.04-.2.03,0,0,.28.04.78.03.5.25,1.27,1.06,1.82,1.59,1.12,4.37,1.88,7.72,2.89,6.72,2.05,16,4.89,26.25,8.03,10.23,3.2,19.49,6.1,26.2,8.19,3.35,1.02,6.04,2.04,7.95,2.37.48.06.92.13,1.18-.12.27-.23.4-.53.52-.76.21-.47.31-.72.33-.71Z"/>
  <path d="M38.48,33.11c.08,0,.01,1.08-.48,2.69-.06.2-.11.41-.17.63-.08.24-.07.41-.22.74-.08.15-.25.3-.43.35-.18.06-.34.05-.49.03-.16-.02-.22-.01-.43-.06-.13-.04-.27-.07-.41-.11-1.08-.3-2.25-.66-3.47-1.06-1.22-.4-2.38-.8-3.42-1.21-.26-.11-.51-.21-.76-.32-.24-.13-.54-.19-.74-.59-.08-.34-.08-.55,0-.86.07-.22.15-.43.21-.63.55-1.59.92-2.56,1-2.53.08.03-.16,1.04-.61,2.67-.06.2-.11.41-.17.63-.03.13-.02.42.03.56.01.06.25.2.48.28.24.09.49.19.75.29,1.04.38,2.2.76,3.41,1.16,1.22.39,2.38.76,3.44,1.1.51.17,1.09.28,1.18.06.07-.11.14-.43.21-.62.07-.22.14-.43.21-.63.59-1.57.8-2.58.88-2.57Z"/>
  <path d="M29.74,8.19s.26.03.73.14c.47.12,1.17.29,2.06.52,1.78.48,4.36,1.17,7.55,2.02,3.18.87,6.97,1.91,11.18,3.07,1.05.29,2.13.58,3.23.93.55.17,1.1.36,1.65.57.56.24,1.08.4,1.66.8.29.2.52.61.5,1-.01.38-.16.7-.31.98-.33.55-.65,1.03-.98,1.56-.33.52-.66,1.04-1,1.56-.18.26-.31.52-.56.81-.26.29-.69.45-1.05.45-.74,0-1.31-.27-1.91-.42-.6-.17-1.19-.34-1.78-.51-1.18-.33-2.34-.66-3.48-.99-2.29-.64-4.49-1.26-6.59-1.85-4.2-1.18-7.97-2.32-11.1-3.37-1.57-.53-2.96-1-4.22-1.51-.31-.16-.61-.47-.63-.85-.02-.37.12-.65.21-.91.2-.53.45-1,.72-1.39.53-.77,1.01-1.3,1.3-1.69.3-.38.46-.58.47-.57.02.01-.11.24-.38.64-.26.41-.72.98-1.2,1.74-.24.39-.46.84-.64,1.36-.09.26-.2.54-.17.79.02.24.22.45.48.59,1.18.44,2.64.9,4.2,1.4,3.14,1,6.91,2.09,11.12,3.24,2.1.58,4.31,1.18,6.6,1.81,1.14.32,2.31.65,3.49.98.59.17,1.18.34,1.78.51.6.16,1.21.4,1.74.4.26,0,.47-.09.64-.26.16-.18.33-.47.5-.73.34-.52.67-1.04,1-1.56.32-.51.68-1.04.97-1.53.29-.5.36-.98-.03-1.25-.4-.28-1-.51-1.52-.72-.53-.21-1.07-.4-1.61-.57-1.08-.35-2.16-.65-3.21-.95-4.2-1.2-7.97-2.28-11.15-3.19-3.17-.93-5.73-1.68-7.5-2.2-.88-.27-1.57-.48-2.03-.63-.46-.15-.7-.24-.7-.26Z"/>
  <path d="M4.12,16.76c-.07-.02.28-1.41,1.05-3.6.38-1.09.86-2.38,1.45-3.8.61-1.39,1.19-3.01,2.34-4.45,1.17-1.44,2.78-2.25,4.21-2.79,1.41-.57,2.81-1,4.01-.92,1.19.07,2.1.37,2.71.58.61.22.93.39.92.42-.01.04-.36-.05-.99-.2-.62-.15-1.53-.37-2.65-.39-1.12-.02-2.4.41-3.8,1.01-1.39.56-2.88,1.34-3.96,2.66-1.07,1.32-1.67,2.91-2.3,4.29-.61,1.39-1.13,2.66-1.56,3.73-.86,2.14-1.35,3.48-1.43,3.45Z"/>
  <path d="M65.35,45.59s.54.14,1.5.45c.48.15,1.06.35,1.74.52.34.06.74.2,1.07.19.34.01.61-.26.83-.62,1.49-3.2,2.79-8.04,4.53-13.24,1.67-5.28,4.77-9.52,7.72-11.67,1.48-1.07,2.85-1.68,3.84-1.93.48-.17.88-.18,1.14-.24.26-.04.4-.05.41-.03.06.15-2.31.3-5.13,2.52-2.81,2.17-5.77,6.33-7.42,11.53-1.74,5.19-3.07,9.98-4.73,13.27-.13.2-.29.39-.48.54-.18.15-.47.24-.7.23-.48-.02-.8-.17-1.16-.25-.7-.21-1.27-.43-1.74-.62-.94-.38-1.44-.63-1.42-.66Z"/>
  <path d="M20.17,74.11s.59-.11,1.64-.32c1.04-.21,2.55-.63,4.12-1.7,1.57-1.05,3.24-2.65,4.44-4.84.61-1.09,1.09-2.32,1.46-3.63.35-1.35.77-2.69.99-4.13.51-2.87.75-5.67,1.29-8.17.51-2.5,1.11-4.72,1.72-6.55.6-1.83,1.19-3.28,1.61-4.27.42-.99.69-1.53.72-1.51.04.02-.15.58-.51,1.59-.35,1.01-.88,2.48-1.42,4.31-.55,1.84-1.1,4.05-1.58,6.54-.51,2.47-.73,5.26-1.24,8.17-.23,1.46-.66,2.86-1.02,4.19-.38,1.35-.89,2.62-1.54,3.74-1.27,2.27-3.04,3.9-4.69,4.93-1.65,1.07-3.24,1.44-4.3,1.58-.54.08-.96.1-1.24.11-.28,0-.43,0-.44-.02Z"/>
  <path d="M29.97,81.07s-.02.12-.1.35c-.03.11-.17.28-.37.3-.19.03-.4,0-.62-.04-.88-.18-2.12-.54-3.61-1.07-3-1.01-7.14-2.41-11.72-3.96-2.28-.79-4.45-1.54-6.43-2.22-.49-.17-.97-.34-1.44-.5-.46-.15-.93-.27-1.38-.43-.9-.28-1.76-.83-2.16-1.6-.41-.73-.5-1.6-.14-2.22.37-.57.81-.92,1.17-1.18.75-.5,1.23-.65,1.24-.63.03.04-.42.27-1.1.81-.33.27-.73.65-1.02,1.15-.26.5-.17,1.23.21,1.85.73,1.39,2.87,1.45,4.79,2.23,1.99.67,4.17,1.41,6.46,2.19,4.57,1.58,8.72,2.98,11.67,4.12,1.47.58,2.68,1,3.52,1.24.93.39.95-.5,1.04-.39Z"/>
  <path d="M41.88,102.57s-.02.19-.2.48c-.1.14-.22.32-.44.47-.26.16-.55.13-.88.13-.68-.05-1.38-.42-2.24-.65-.86-.27-1.84-.57-2.93-.9-1.08-.34-2.27-.71-3.54-1.11-.64-.21-1.28-.38-1.98-.6-.35-.11-.7-.24-1.05-.44-.33-.19-.72-.49-.83-.99-.08-.49.05-.87.16-1.25.11-.38.25-.75.35-1.1.15-.73.3-1.54.4-2.33.22-1.59.09-3.25-.54-4.83-.15-.39-.31-.79-.51-1.13-.2-.36-.46-.71-.63-1.16-.08-.22-.14-.49-.09-.77.05-.28.19-.52.38-.7.4-.37.92-.43,1.35-.43.89.04,1.64.26,2.43.44.77.2,1.51.43,2.22.69,1.43.51,2.73,1.17,3.89,1.8.59.3,1.16.57,1.73.75.29.09.57.16.85.2.28.04.58.08.76.01.35-.13.49-.79.68-1.23.17-.48.34-.94.53-1.36.19-.42.39-.8.66-1.11.27-.3.55-.53.82-.71,1.11-.72,1.92-.59,1.89-.56.01.05-.75,0-1.76.75-.51.36-1.01.92-1.32,1.76-.17.41-.31.86-.48,1.35-.08.24-.17.49-.27.75-.1.25-.24.59-.62.74-.36.12-.66.05-.97.03-.31-.04-.62-.11-.92-.2-.61-.18-1.22-.45-1.82-.75-1.19-.62-2.45-1.24-3.85-1.72-1.38-.47-2.95-.93-4.47-1.07-.37,0-.73.07-.95.28-.23.22-.28.5-.14.84.13.34.37.69.59,1.07.23.4.39.81.55,1.22,1.41,3.34.23,7.07-.38,9.61.05.25.28.48.57.64.29.17.61.3.94.41.65.21,1.35.41,1.97.63,1.26.42,2.44.82,3.52,1.18,1.07.36,2.05.7,2.9.99.87.27,1.56.66,2.16.73.29.03.6.05.77-.05.19-.11.33-.27.43-.39.21-.25.28-.42.3-.41Z"/>
  <path d="M29.41,85.61c-.03.05-.43-.09-.72-.67-.3-.57-.28-1.53.12-2.35.33-.79.72-1.58,1.3-1.93.57-.35,1-.19.98-.13,0,.1-.37.11-.73.46-.38.33-.67,1.03-1.01,1.83-.36.75-.42,1.47-.27,1.97.14.49.4.75.34.82Z"/>
  <path d="M42.67,96.48c-.16,0-.26-3.42-.22-7.63,0-.52.01-1.09.22-1.62.21-.52.56-.94.96-1.24.4-.3.87-.47,1.31-.52.41-.04.77-.08.9-.25.15-.16.07-.45-.07-.62-.14-.17-.36-.26-.52-.3-.35-.08-.57-.04-.58-.08,0-.03.19-.16.61-.14.21.02.47.07.72.3.22.2.45.65.17,1.08-.3.41-.8.42-1.17.49-.36.06-.73.21-1.05.47-.32.25-.6.6-.75,1.01-.16.4-.17.89-.17,1.41-.04,4.22-.21,7.63-.37,7.63Z"/>
  <path d="M28.64,89.61s-.12-.23-.44-.36c-.16-.04-.34.15-.52.37-.19.22-.35.5-.52.84-.68,1.35-1.64,3.35-2.64,5.87-.25.62-.43,1.31-.68,2.02-.24.71-.5,1.43-.7,2.2-.21.76-.34,1.56-.24,2.36.06.39.15.8.34,1.17.07.19.2.37.3.55.1.13.24.26.42.38,1.45.93,3.28,1.58,5.11,2.2,1.87.59,3.79,1.28,5.78,1.82,1.22.3,2.45.72,3.53.39.27-.08.51-.2.73-.36.21-.15.38-.37.59-.6.39-.46.77-.91,1.13-1.37,1.41-1.85,2.91-3.64,3.2-5.66.18-1.01.16-2.01.22-2.99.04-.97.08-1.9.12-2.78.03-.89.02-1.71-.1-2.47-.11-.72-.42-1.54-1.03-1.31h-.02s0,0,0,0c-.04-.01-.16.22-.2.39-.05.19-.08.38-.11.57-.05.38-.08.74-.1,1.08-.04.68-.05,1.26-.06,1.73-.01.94-.05,1.46-.09,1.46-.02,0-.02-.13-.04-.37-.01-.25-.03-.61-.05-1.08-.02-.47-.04-1.05-.02-1.74,0-.34.02-.71.06-1.1.02-.2.05-.4.1-.61.09-.19.05-.48.46-.64h-.03s.3-.05.3-.05c.11,0,.22.02.33.05.21.09.38.25.48.42.22.35.32.74.4,1.14.14.8.16,1.66.15,2.54-.03.89-.05,1.82-.08,2.79-.04.96-.01,2-.19,3.07-.14,1.08-.63,2.14-1.23,3.11-.63.95-1.3,1.88-2.04,2.82-.37.47-.75.93-1.14,1.39-.19.22-.4.49-.68.69-.28.2-.59.36-.91.45-.65.19-1.34.18-1.98.06-.63-.12-1.25-.27-1.87-.44-2.03-.55-3.94-1.25-5.8-1.84-1.87-.65-3.66-1.27-5.24-2.31-.19-.14-.39-.3-.55-.53-.11-.21-.24-.4-.33-.62-.21-.42-.3-.88-.37-1.32-.1-.91.06-1.77.29-2.55.22-.79.5-1.51.74-2.22.25-.69.45-1.39.72-2.02,1.06-2.53,2.08-4.49,2.83-5.83.19-.33.38-.63.59-.85.19-.21.42-.44.68-.37.23.09.29.25.35.33.05.09.07.14.06.15Z"/>
  <path d="M42.74,95.26s.04.57.06,1.59c0,1.02.1,2.53-.28,4.37-.22.91-.5,1.9-1.11,2.86-.3.47-.65.91-1,1.37-.34.46-.71.94-1.16,1.39-.22.22-.47.44-.75.62-.26.2-.7.32-1.02.32-.69.03-1.34-.08-2.01-.24-1.28-.32-2.61-.65-3.96-1.06-1.35-.41-2.65-.87-3.88-1.35-.61-.24-1.22-.43-1.83-.74-.34-.17-.58-.44-.79-.7-.21-.27-.37-.61-.42-.96-.06-.35,0-.7.05-.98.06-.29.11-.58.16-.87.12-.57.26-1.12.41-1.64.3-1.05.65-2,1-2.86.7-1.71,1.39-3.03,1.88-3.94.49-.9.8-1.38.83-1.37.04.02-.2.54-.63,1.47-.43.93-1.05,2.28-1.69,3.99-.32.85-.64,1.8-.91,2.83-.14.52-.26,1.05-.37,1.61-.05.28-.1.56-.15.85-.05.3-.09.55-.04.8.07.49.49.99.94,1.24.53.26,1.16.46,1.78.7,1.23.47,2.51.92,3.84,1.32,1.33.4,2.65.74,3.93,1.07.62.15,1.26.26,1.84.24.31-.02.51-.06.75-.23.24-.15.46-.34.67-.54.42-.41.78-.86,1.13-1.32.35-.45.71-.89,1-1.32.57-.85.88-1.83,1.11-2.69.41-1.76.38-3.26.45-4.28.05-1.03.13-1.59.17-1.59Z"/>
  <path d="M42.39,100.86s-.25.08-.71.04c-.22-.03-.53-.04-.84-.32-.15-.16-.18-.42-.15-.62.03-.2.09-.39.11-.55.02-.17,0-.29-.12-.38-.04-.08-.31-.12-.53-.19-.45-.13-.93-.27-1.44-.42-1.01-.3-2.12-.64-3.29-.99-1.16-.37-2.27-.72-3.28-1.03-.5-.17-.95-.29-1.33-.2-.41.08-.54.35-.62.75-.04.18-.07.37-.08.53,0,.18-.03.38-.07.54-.09.33-.23.59-.39.78-.32.37-.61.41-.62.38-.02-.04.21-.15.43-.51.11-.18.21-.42.25-.71.02-.15.03-.29.02-.47,0-.2,0-.39.04-.6.04-.21.07-.43.22-.68.16-.25.42-.39.68-.47.55-.16,1.11,0,1.61.15,1.01.3,2.12.64,3.29.99,1.16.37,2.27.72,3.28,1.03.5.16.98.32,1.43.47.11.04.22.07.33.11.1.03.28.1.38.22.22.2.26.55.21.77-.11.44-.25.74-.12.9.15.17.43.26.63.31.42.11.67.14.67.19Z"/>
  <path d="M40.1,100.51s.13.15.25.48c.04.17.04.44-.15.67-.16.24-.53.39-.86.35-.67-.09-1.27-.35-2.02-.56-.74-.23-1.55-.49-2.4-.76-.85-.27-1.66-.56-2.38-.78-.74-.23-1.45-.4-1.95-.91-.24-.24-.34-.67-.18-.93.13-.24.28-.38.41-.5.25-.22.41-.31.44-.29.03.03-.08.18-.27.44-.09.13-.21.29-.28.48-.06.17,0,.34.18.51.36.32,1.06.49,1.8.67.77.2,1.56.47,2.42.74.85.28,1.66.54,2.39.8.72.24,1.41.56,1.9.66.5.1.76-.3.74-.59-.05-.3-.06-.49-.02-.5Z"/>
  <path d="M42.18,105.99s.12-.36.5-.92c.38-.56,1.04-1.29,1.79-2.21.36-.46.73-.99.97-1.61.25-.62.25-1.33.25-2.14.03-1.58.06-3.32.09-5.14.02-.91.04-1.8.06-2.66,0-.85-.04-1.69,0-2.5.05-.8.17-1.6.51-2.28.29-.71.97-1.15,1.35-1.49.09-.09.17-.2.18-.26.01-.06,0-.09-.1-.19-.18-.19-.36-.3-.57-.4-.41-.21-.79-.31-1.1-.31-.64.01-.85.43-.89.37-.01,0,.02-.1.14-.24.12-.14.37-.32.73-.35.36-.04.8.05,1.25.24.22.09.49.23.69.43.09.07.29.28.24.52-.04.22-.16.36-.26.48-.48.47-.96.78-1.21,1.42-.28.59-.38,1.32-.41,2.09-.03.77.02,1.6.03,2.47-.02.86-.03,1.76-.05,2.67-.05,1.83-.09,3.57-.13,5.16-.02.4,0,.77-.06,1.17-.03.4-.15.77-.28,1.12-.28.69-.71,1.24-1.1,1.7-.81.91-1.5,1.57-1.93,2.08-.43.5-.64.81-.68.78Z"/>
  <path d="M28.65,78.78s-.07-.08-.24-.15c-.18-.08-.44-.19-.8-.29-.36-.1-.8-.23-1.31-.37-.51-.17-1.09-.36-1.73-.57-2.55-.85-6.05-2.06-9.91-3.42-1.93-.69-3.76-1.35-5.43-1.95-.84-.31-1.63-.6-2.37-.88-.37-.17-.8-.39-.95-.9-.06-.25,0-.5.09-.67.08-.18.16-.31.19-.44.16-.56-.1-1.16-.54-1.29-.43-.16-.89,0-1.21.13-.66.3-1,.57-1.03.52-.02-.02.26-.34.93-.73.33-.17.82-.41,1.42-.24.63.17,1.02.97.83,1.71-.1.39-.34.67-.25.89.06.23.37.43.7.56.74.26,1.53.53,2.37.82,1.67.59,3.51,1.23,5.45,1.91,3.86,1.37,7.34,2.64,9.85,3.59.62.24,1.19.45,1.68.64.5.18.94.32,1.29.47.35.15.61.29.78.41.18.11.21.25.19.25Z"/>
  <path d="M45.2,84.17s.17-.16.2-.45c0-.1-.16-.25-.33-.35-.18-.08-.47-.18-.75-.28-.57-.22-1.25-.48-2.01-.78-1.55-.56-3.46-1.24-5.52-1.98-2.59-.93-4.91-1.96-6.61-2.47-.45-.16-.71-.12-.97.12-.26.23-.43.44-.46.67-.08.47.11.71.08.73-.02.04-.32-.18-.3-.76,0-.29.2-.62.46-.88.13-.14.32-.29.57-.34.26-.06.51,0,.72.05,1.8.43,4.1,1.39,6.71,2.33,2.05.76,3.96,1.45,5.48,2.09.75.34,1.42.64,1.97.9.28.14.51.23.75.37.21.16.39.34.38.59-.13.43-.39.47-.39.44Z"/>
  <path d="M109.35,39.37s-.4.08-.96.52c-.56.45-1.09,1.42-1.37,2.77-.3,1.34-.44,3.04-.71,5-.25,1.96-.55,4.18-.87,6.65-.66,4.92-1.44,10.79-2.3,17.3-.44,3.25-.9,6.67-1.38,10.21-.12.89-.24,1.78-.37,2.68-.14.92-.39,1.84-.75,2.71-.36.87-.82,1.71-1.34,2.5-.5.79-1.02,1.59-1.58,2.36-.57.77-1.18,1.51-1.86,2.19-.69.68-1.38,1.27-2.08,1.89-.7.59-1.54,1.21-2.58,1.28-1.01.03-1.91-.36-2.72-.78-3.18-1.7-5.53-4.81-9.02-3.97-.82.05-1.63.11-2.43.16-.8.03-1.63.07-2.43-.15-1.52-.38-2.97-.82-4.36-1.27-2.78-.91-5.34-1.86-7.67-2.72-4.65-1.74-8.44-3.06-11.09-3.89-1.32-.41-2.35-.73-3.05-.95-.74-.19-.97.33-.98.28,0,0,.03-.1.17-.23.14-.13.45-.24.82-.16.73.18,1.74.48,3.09.85,2.68.76,6.5,2.03,11.17,3.72,2.34.84,4.9,1.76,7.67,2.64,1.39.43,2.83.86,4.34,1.23,1.43.32,3.07.03,4.7-.05.83-.04,1.67-.1,2.55.02.93.13,1.67.63,2.42,1.08,1.46.94,2.82,2.07,4.36,2.9.76.4,1.59.74,2.41.71.81-.04,1.56-.56,2.24-1.14.67-.6,1.4-1.22,2.04-1.86.65-.65,1.24-1.36,1.8-2.12.55-.76,1.06-1.54,1.56-2.33.51-.78.95-1.57,1.29-2.41.73-1.65.81-3.47,1.09-5.25.49-3.54.96-6.95,1.41-10.21.91-6.5,1.74-12.36,2.43-17.28.35-2.46.67-4.68.95-6.64.3-1.95.48-3.64.81-5.01.32-1.36.9-2.37,1.51-2.81.3-.22.57-.33.75-.38.18-.05.28-.06.28-.05Z"/>
  <path d="M110.89,39.63c.01.05-.44-.09-1.08.31-.63.41-1.19,1.43-1.47,2.83-.46,2.84-1.07,6.98-1.73,12.1-.66,5.12-1.36,11.23-2.05,18.02-.17,1.7-.35,3.44-.52,5.22-.19,1.77-.31,3.6-.63,5.45-.32,1.85-.77,3.71-1.54,5.51-.77,1.8-1.9,3.45-3.24,4.94-.67.75-1.4,1.41-2.09,2.09-.7.68-1.42,1.35-2.21,1.94-.79.57-1.65,1.11-2.65,1.31-.99.25-2.06,0-2.91-.42-1.74-.82-3.17-1.97-4.67-2.9-.73-.47-1.54-.83-2.32-1.21-.78-.37-1.56-.67-2.36-.67-.8-.02-1.58.24-2.31.58-.73.35-1.43.8-2.24,1.09-.4.14-.82.24-1.25.25-.44.01-.85-.08-1.24-.19-.78-.23-1.48-.57-2.18-.81-2.88-.97-5.56-1.87-8.01-2.69-4.89-1.66-8.85-3.01-11.58-3.94-1.36-.49-2.44-.8-3.13-1.15-.34-.18-.58-.36-.72-.49-.14-.14-.2-.22-.19-.23.02-.02.28.3.97.61.68.31,1.78.59,3.15,1.04,2.75.89,6.73,2.17,11.64,3.76,2.46.8,5.14,1.68,8.03,2.63,1.45.48,2.88,1.38,4.35.72.73-.26,1.41-.71,2.18-1.08.77-.37,1.63-.66,2.55-.65.92,0,1.79.34,2.59.71.79.39,1.6.74,2.38,1.24,1.54.95,2.98,2.09,4.62,2.86.82.39,1.68.59,2.54.38.87-.18,1.67-.67,2.42-1.22.75-.56,1.45-1.21,2.15-1.89.69-.69,1.42-1.35,2.06-2.06,1.3-1.44,2.4-3.05,3.14-4.78.74-1.74,1.19-3.57,1.51-5.38.32-1.81.44-3.63.64-5.41.19-1.78.37-3.52.54-5.22.72-6.79,1.46-12.9,2.17-18.02.72-5.12,1.38-9.24,1.92-12.09.32-1.42.93-2.48,1.63-2.88.34-.21.65-.23.84-.24.2.01.3.03.3.04Z"/>
  <path d="M22.44,102.18s-.77-.19-2.13-.56c-.68-.18-1.52-.4-2.51-.61-.49-.1-1.02-.21-1.58-.3-.53-.1-1.16-.12-1.59.22-.47.35-.69.9-.67,1.59-.03.68-.02,1.4,0,2.15.02.75.05,1.52.07,2.31,0,.4.02.8,0,1.22-.02.43-.06.9-.36,1.34-.33.47-.97.54-1.41.47-.46-.07-.9-.2-1.32-.39-.86-.37-1.6-1.02-2.16-1.8-.54-.79-.97-1.67-1.13-2.67-.13-.98-.15-1.92-.2-2.9-.23-7.76-.14-14.78-.13-19.86.02-2.54.04-4.6.05-6.02.01-.71.02-1.26.03-1.64.01-.37.03-.57.05-.57.02,0,.04.2.07.57.02.37.05.93.08,1.64.05,1.42.1,3.48.13,6.02.09,5.08.08,12.11.3,19.84.04.96.08,1.93.19,2.83.13.87.53,1.72,1.02,2.43.5.71,1.16,1.28,1.92,1.62.71.31,1.71.6,2.07.11.37-.55.25-1.46.27-2.23-.01-.8-.03-1.57-.04-2.31,0-.75,0-1.48.03-2.18.02-.33.04-.73.2-1.07.15-.34.39-.63.68-.84.62-.44,1.34-.36,1.9-.25.56.11,1.09.23,1.59.35.98.24,1.82.49,2.5.71.68.22,1.2.41,1.55.54.35.14.53.22.52.24Z"/>
  <path d="M17.35,102.18c.04-.06.63.54.71,1.77.02.6.02,1.35-.48,2.1-.24.37-.81.67-1.33.52-.51-.13-.89-.48-1.17-.89-1.09-1.66-.36-3.91,1.09-4.21.68-.05,1.17.31,1.33.64.16.32.12.52.09.53-.05.01-.1-.17-.28-.4-.17-.22-.59-.43-1.08-.35-.92.22-1.58,2.15-.66,3.47.21.32.52.58.82.66.3.08.57-.04.76-.29.38-.52.47-1.23.49-1.76.03-1.11-.38-1.74-.3-1.78Z"/>
  <path d="M43.49,118.91s-.45-.04-1.23-.22c-.78-.18-1.91-.47-3.3-.84-2.78-.74-6.6-1.83-10.8-3.11-4.2-1.28-7.97-2.51-10.69-3.46-1.36-.47-2.45-.86-3.21-1.16-.38-.16-.64-.41-.74-.61-.1-.2-.1-.32-.09-.32.05-.03.15.48.92.72.77.23,1.88.57,3.25.98,2.75.84,6.54,2,10.73,3.29,4.19,1.28,7.99,2.44,10.74,3.28,1.37.43,2.48.78,3.25,1.02.76.25,1.18.4,1.17.44Z"/>
  <path d="M73.88,103.47c-.16.01-.39-1.54-.5-3.48-.12-1.93-.08-3.51.08-3.51.16,0,.39,1.56.5,3.48.12,1.92.08,3.49-.08,3.51Z"/>
  <path d="M104.92,100.9s.14-.18.5-.43c.35-.25.89-.58,1.58-1.01.67-.44,1.53-.98,2.28-1.81.37-.42.69-.93.75-1.55.07-.64.12-1.33.18-2.05.35-5.81.84-13.83,1.37-22.69.55-8.86,1.05-16.88,1.41-22.69.21-2.9.38-5.25.49-6.87.07-.81.13-1.44.16-1.87.04-.43.08-.65.1-.65.02,0,.03.23.02.66-.01.43-.03,1.06-.05,1.87-.07,1.63-.18,3.98-.31,6.88-.28,5.81-.71,13.84-1.24,22.7-.53,8.86-1.04,16.89-1.54,22.69-.07.73-.13,1.41-.22,2.08-.09.7-.48,1.28-.88,1.71-.83.86-1.71,1.37-2.41,1.78-.71.4-1.26.71-1.63.92-.37.21-.54.35-.56.33Z"/>
  <path d="M49.01,169.14s-.05-.26-.13-.78c-.07-.52-.17-1.29-.31-2.3-.24-2.02-.6-5.01-1.07-8.85-.9-7.69-2.16-18.82-3.63-32.58-.36-3.44-.73-7.05-1.13-10.81-.18-1.88-.39-3.79-.5-5.77-.02-.49-.04-.99-.04-1.49.01-.5,0-1.02.21-1.56.09-.27.37-.54.65-.64.27-.11.53-.16.78-.2.52-.08,1.03-.11,1.54-.14.51-.01,1.02-.03,1.54-.04l.78-.02c.14,0,.42.06.54.28.1.18.11.32.14.45.2,1.03.32,2.07.45,3.11.26,2.08.53,4.2.79,6.35.27,2.15.54,4.34.81,6.55.07.55.14,1.11.21,1.67l.1.84c.04.26.08.48.21.7.24.44.65.79,1.11,1.06.23.14.48.25.72.33.15.05.14.05.32.03l.43-.03c9.12-.7,18.7-1.43,28.63-2.2,2.48-.19,4.99-.38,7.51-.57,1.26-.1,2.53-.19,3.8-.29.62-.07,1.32-.05,1.87-.14.28-.05.54-.16.7-.32.08-.08.16-.2.18-.28.03-.12.05-.26.06-.41.03-1.22-.26-2.49-.44-3.78-.2-1.28-.4-2.56-.6-3.85-.4-2.58-.81-5.17-1.21-7.78l-.3-1.95c-.1-.64-.14-1.54.62-2.09.09-.06.23-.11.34-.12l.25-.02.49-.05.98-.09,1.95-.19c1.3-.13,2.6-.25,3.89-.38.65-.06,1.28-.14,1.94-.17.66-.04,1.36,0,2.02.24.67.25,1.23.79,1.55,1.4.32.61.5,1.24.7,1.84.22.55.41,1.24.55,1.86l.41,1.86c.51,2.48,1.01,4.94,1.51,7.38,1.94,9.77,3.73,19.21,5.4,28.2.83,4.5,1.63,8.89,2.37,13.16.18,1.07.35,2.13.53,3.19.15,1.05.37,2.14.28,3.21-.04.54-.1,1.12-.48,1.63-.44.47-.95.64-1.44.85-.49.18-1.05.32-1.56.36-.51.06-1.02.12-1.52.18-8.08.97-15.62,1.77-22.51,2.46-13.77,1.38-24.93,2.33-32.65,2.98-1.93.16-3.64.3-5.13.42-1.48.13-2.77.2-3.77-.1-.52-.13-.86-.53-1.01-.88-.17-.36-.25-.67-.31-.93-.11-.51-.11-.78-.11-.78,0,0,.02.07.04.19.03.13.06.32.13.57.07.25.16.56.33.9.16.35.47.69.97.81.97.28,2.25.18,3.72.04,1.48-.14,3.19-.3,5.12-.48,7.71-.72,18.86-1.73,32.63-3.16,6.88-.72,14.42-1.55,22.49-2.53.5-.06,1.01-.12,1.52-.19.52-.04.96-.16,1.45-.33.45-.17.96-.39,1.23-.7.25-.33.34-.85.37-1.35.08-1.03-.13-2.04-.28-3.1-.18-1.05-.35-2.11-.53-3.18-.74-4.27-1.55-8.65-2.39-13.15-1.69-8.99-3.49-18.43-5.43-28.19-.5-2.44-1-4.9-1.51-7.38l-.41-1.85c-.14-.62-.28-1.16-.53-1.8-.21-.61-.38-1.22-.66-1.75-.28-.53-.7-.92-1.24-1.13-1.11-.41-2.42-.12-3.7-.03-1.29.12-2.58.25-3.87.37l-1.94.19-.97.09-.49.05-.24.02c-.06,0-.07.02-.12.04-.38.25-.46.91-.34,1.51l.3,1.95c.41,2.61.81,5.2,1.21,7.77.2,1.29.4,2.57.6,3.85.18,1.28.48,2.54.44,3.9-.01.17-.03.35-.08.54-.07.22-.18.37-.32.53-.29.29-.67.42-1.01.49-.35.07-.69.07-1,.08l-.95.07c-1.27.1-2.54.19-3.8.29-2.52.19-5.03.38-7.51.57-9.93.75-19.51,1.47-28.63,2.16l-.43.03c-.1.03-.4,0-.52-.06-.3-.1-.57-.23-.83-.38-.51-.31-1-.71-1.3-1.27-.16-.27-.23-.61-.27-.91l-.1-.84c-.07-.56-.14-1.11-.2-1.66-.27-2.21-.53-4.39-.8-6.54-.26-2.15-.52-4.27-.78-6.36-.13-1.04-.24-2.08-.44-3.08-.02-.12-.05-.25-.08-.29-.02-.02-.02-.03-.13-.04l-.76.02c-.51.01-1.02.02-1.53.04-.5.02-1,.05-1.48.13-.24.04-.48.09-.68.17-.2.08-.31.18-.39.38-.16.39-.17.9-.18,1.38,0,.49.01.98.04,1.47.1,1.95.31,3.87.48,5.74.38,3.76.74,7.36,1.09,10.81,2.92,27.52,4.71,44.44,4.72,44.55Z"/>
  <path d="M63.68,124.89s-.21.06-.6.1c-.41.04-.94.13-1.77.17-.25-.15-.32-.35-.41-.55-.08-.2-.15-.42-.21-.65-.12-.46-.19-.95-.29-1.48-.18-1.06-.36-2.27-.55-3.61-.38-2.68-.8-5.86-1.16-9.43-.1-.87-.13-1.84-.23-2.72-.06-.46-.15-.95-.08-1.49.05-.54.39-1.09.86-1.38.07-.07.32-.18.43-.19.14-.03.26-.05.38-.07l.75-.09c.49-.04.99-.09,1.5-.13,1-.07,2.02-.14,3.06-.16,8.23-.23,15.66-.86,21.06-1.15,2.7-.15,4.88-.24,6.39-.28.76-.01,1.34-.02,1.74-.02.4,0,.61.01.61.03,0,.02-.21.05-.6.09-.4.03-.98.08-1.73.13-1.51.11-3.68.27-6.38.47-5.38.4-12.82,1.09-21.07,1.32-1.02.02-2.04.09-3.03.16-.5.04-.99.08-1.48.12l-.72.09c-.11.02-.24.03-.34.06-.13.03-.11.02-.23.1-.76.46-.71,1.4-.55,2.32.11.98.12,1.85.22,2.75.33,3.55.71,6.74,1.03,9.42.17,1.34.33,2.55.47,3.61.08.53.14,1.03.24,1.46.09.41.22.9.42,1.03,1.41-.06,2.31-.1,2.3-.05Z"/>
  <path d="M47.73,104.22c.02-.07.62-.12,1.83-.15.23-.02.36.3.38.45.04.16.06.32.08.48.04.3.1.79.15.68.63-.05,1.31-.1,2.05-.16h0s0-.11,0-.11c-.01-.15-.05-.33-.08-.52-.02-.09-.03-.19-.04-.3,0-.08-.02-.35.09-.48.07-.06.12-.13.21-.16.09-.03.19-.05.23-.06.11-.02.21-.03.31-.04,4.52-.2,8.16-.25,8.17-.08,0,.08-.9.2-2.38.32-1.47.12-3.52.26-5.74.35l-.27.03h-.05s0-.04,0,.07c0,.08.02.16.03.25.03.18.07.36.08.58,0,.08.01.26-.06.43-.06.17-.23.24-.39.28-.82.04-1.59.07-2.29.1-.36,0-.42-.51-.42-.62-.02-.19-.03-.36-.04-.52-.01-.16-.02-.32-.04-.45-.02-.13-.01-.15-.08-.16-1.03-.07-1.76-.15-1.74-.22Z"/>
  <path d="M79.8,107.57s.13.57.25,1.62c.11,1.05.28,2.56.48,4.43.1.94.15,1.97.41,3.03.12.53.27,1.08.52,1.56.27.48.63.97,1.04,1.4.4.4.93.77,1.49.99.56.23,1.19.3,1.84.26.6-.03,1.28-.26,1.91-.48.16-.06.32-.12.46-.19.15-.07.22-.13.37-.26.25-.22.49-.46.68-.73.82-1.07.7-2.55.31-3.75-.43-1.23-1.16-2.31-1.89-3.31-1.51-1.96-2.92-3.71-4.09-5.18-.6-.71-1.16-1.38-1.86-1.42-.34-.04-.66.05-.95.16-.3.12-.53.22-.64.44-.25.42-.27.85-.29,1.11-.01.27,0,.42-.03.42-.02,0-.07-.14-.09-.42-.01-.28-.04-.71.21-1.23.12-.28.45-.46.73-.58.3-.14.67-.25,1.08-.23.41.02.84.21,1.18.5.34.28.65.62.96.98,1.21,1.45,2.65,3.17,4.21,5.13.75,1,1.52,2.11,2,3.44.23.68.35,1.39.34,2.13,0,.75-.26,1.53-.72,2.15-.22.32-.49.59-.77.83-.12.11-.32.27-.5.35-.17.09-.34.15-.51.21-.69.23-1.33.46-2.09.5-.7.03-1.43-.05-2.07-.32-.65-.28-1.19-.65-1.67-1.13-.45-.48-.81-.98-1.1-1.53-.29-.58-.42-1.14-.54-1.7-.24-1.11-.26-2.15-.34-3.08-.12-1.88-.22-3.41-.29-4.46-.06-1.05-.07-1.64-.03-1.64Z"/>
  <path d="M85.09,120.69c-.02-.11,1.17-.01,2.63-.97.69-.46,1.49-1.28,1.36-2.35-.06-.56-.23-1.12-.52-1.66-.28-.53-.66-1.11-1.01-1.68-1.43-2.31-2.83-4.33-3.86-5.79-1.03-1.46-1.67-2.36-1.6-2.41.06-.05.82.76,1.94,2.16,1.12,1.4,2.58,3.4,4.02,5.72.36.59.71,1.13,1.03,1.73.3.6.49,1.25.54,1.87.08.66-.18,1.3-.51,1.74-.34.46-.76.77-1.16,1.01-1.65.94-2.88.67-2.85.62Z"/>
  <path d="M62.84,107.29s.44-.07,1.24-.14c.8-.05,1.96-.13,3.4-.23,1.44-.09,3.15-.18,5.05-.26.98-.03,1.9-.1,3.06-.05.25,0,.43.26.48.39.06.15.11.29.14.43.07.28.1.55.12.83.02.28.03.56,0,.85-.01.15-.03.29-.06.45-.02.08-.04.16-.08.26-.05.12-.16.21-.27.29l-.22.06c-1.17.25-2.22.28-3.28.37-1.05.06-2.06.11-3.02.15-1.93.07-3.66.1-5.12.1-.37,0-.71,0-1.04-.01-.17,0-.32,0-.5-.03-.25-.04-.37-.22-.45-.36-.28-.59-.27-1.1-.29-1.51,0-.83.14-1.28.18-1.26.04,0-.03.45.05,1.25.05.39.09.91.34,1.36.06.1.15.19.22.18.12,0,.29,0,.45,0,.33,0,.67-.02,1.03-.03,1.45-.06,3.18-.14,5.1-.22.96-.06,1.96-.12,3.01-.18,1.02-.09,2.15-.14,3.15-.36l.12-.03c.2-.34.1-2.24-.19-2.4-.91-.04-1.99,0-2.91.02-1.9.05-3.61.1-5.05.14-2.87.07-4.66.06-4.66-.04Z"/>
  <path d="M57.5,170.61s-.03-.11-.07-.33c-.03-.22-.09-.55-.15-.99-.12-.87-.3-2.15-.53-3.8-.44-3.31-1.07-8.09-1.85-14.01-.38-2.96-.8-6.2-1.25-9.68-.22-1.74-.45-3.54-.69-5.39-.12-.93-.24-1.87-.36-2.82-.1-.93-.39-1.97.04-3.03.5-1.07,1.64-1.49,2.62-1.7,1.02-.23,2.06-.28,3.09-.34,2.05-.18,4.15-.37,6.29-.56,4.28-.32,8.71-.65,13.25-.99,4.54-.31,8.97-.61,13.26-.9,2.14-.14,4.25-.27,6.31-.4,1.03-.07,2.06-.11,3.05-.2,1-.08,2.05-.2,3.08.1,1.04.3,1.84,1.13,2.28,2.02.46.9.68,1.85.86,2.78.28,1.85.55,3.65.81,5.38.52,3.47,1,6.7,1.44,9.65.86,5.9,1.56,10.68,2.04,13.98.22,1.65.43,2.93.5,3.81.07.89-.13,1.34-.13,1.34-.03,0,.11-.46,0-1.33-.11-.87-.35-2.14-.61-3.79-.53-3.29-1.29-8.06-2.23-13.95-.46-2.95-.97-6.17-1.51-9.64-.27-1.73-.55-3.52-.84-5.36-.17-.9-.39-1.82-.82-2.63-.41-.81-1.09-1.49-1.97-1.75-.88-.26-1.87-.16-2.87-.07-1.02.09-2.03.14-3.06.21-2.06.14-4.16.28-6.3.42-4.28.3-8.71.6-13.25.91-4.54.34-8.97.67-13.25.98-2.15.15-4.21.4-6.3.55-1.03.06-2.04.11-3,.32-.94.2-1.89.6-2.24,1.39-.35.8-.12,1.79-.01,2.73.12.95.23,1.89.35,2.82.23,1.85.45,3.66.66,5.4.42,3.48.82,6.73,1.18,9.69.7,5.92,1.27,10.72,1.66,14.03.18,1.66.33,2.95.42,3.82.04.44.07.77.1,1,.02.22.02.34.01.34Z"/>
  <path d="M118.73,162.49s.11.54-.49,1.27c-.29.35-.77.69-1.4.93-.63.26-1.41.29-2.24.39-3.39.36-8.29.87-14.34,1.51-12.12,1.23-28.84,2.96-47.37,4.72-.59-.02-1.29-.07-1.82-.6-.48-.54-.56-1.2-.63-1.77-.12-1.14-.24-2.27-.36-3.4-.25-2.25-.51-4.46-.75-6.63-.54-4.35-1.06-8.54-1.56-12.53-1.03-7.98-1.96-15.17-2.65-21.22-.65-6.05-1.08-10.96-1.4-14.35-.15-1.7-.27-3.01-.34-3.91-.03-.45-.06-.79-.07-1.02-.01-.23-.02-.35,0-.35s.03.12.07.34c.03.23.07.57.13,1.01.1.89.26,2.2.45,3.89.37,3.38.92,8.28,1.59,14.33.74,6.04,1.72,13.22,2.77,21.2.53,3.99,1.07,8.18,1.59,12.53.25,2.18.5,4.39.76,6.64.12,1.12.24,2.26.36,3.4.06.55.17,1.1.48,1.43.29.32.86.41,1.4.42,18.48-1.78,35.21-3.38,47.32-4.55,6.06-.56,10.97-1.01,14.36-1.32.85-.08,1.61-.09,2.21-.32.61-.21,1.07-.52,1.37-.84.6-.66.53-1.21.58-1.19Z"/>
  <path d="M114.47,156.86s.42.39.35,1.28c-.03.22-.1.47-.27.7-.17.23-.44.4-.73.49-.56.16-1.32.13-1.85-.47-.24-.29-.35-.65-.35-1,0-.36.15-.67.32-.91.36-.54.98-.68,1.37-.69.45-.03.78.11.98.26.21.16.22.33.18.34-.04.02-.11-.08-.29-.14-.18-.06-.49-.12-.82-.05-.36.07-.76.21-.97.58-.12.2-.2.4-.19.61,0,.22.08.45.22.62.27.34.84.42,1.25.32.43-.09.65-.4.74-.74.16-.69-.04-1.18.05-1.21Z"/>
  <path d="M52.72,162.6c-.08-.05.38-.5,1.22-.32.2.04.43.13.64.29.22.18.37.45.42.75.05.3,0,.64-.19.93-.09.15-.24.28-.39.37-.14.08-.28.14-.44.19-.16.05-.33.08-.52.07-.15-.01-.31-.04-.46-.08-.31-.1-.58-.29-.76-.55-.31-.54-.3-1.1-.02-1.51.66-.68,1.28-.39,1.23-.33,0,.04-.12.05-.3.12-.17.07-.44.21-.58.45-.13.21-.09.67.12.96.11.14.28.26.48.31.1.03.22.04.34.05.09,0,.19-.01.31-.05.24-.08.44-.18.53-.32.11-.15.15-.35.13-.54-.02-.38-.32-.6-.63-.72-.64-.24-1.06-.01-1.1-.08Z"/>
  <path d="M110.27,165.41s-.08-.31-.18-.9c-.09-.59-.22-1.47-.39-2.59-.32-2.25-.77-5.52-1.34-9.55-.54-4.03-1.19-8.84-1.91-14.17-.18-1.33-.36-2.7-.54-4.1-.09-.7-.19-1.4-.27-2.12-.07-.71-.18-1.41-.4-2.07-.22-.66-.57-1.28-1.12-1.65-.54-.39-1.25-.46-1.98-.43-1.51.08-3.04.17-4.58.25-12.4.7-23.62,1.38-31.74,1.94-4.06.28-7.34.53-9.61.75-1.13.11-2.01.2-2.6.3-.3.04-.52.09-.67.12-.13.05-.21.08-.22.07-.08-.33,4.95-1,13.06-1.64,8.12-.67,19.34-1.4,31.74-2.11,1.55-.08,3.09-.17,4.6-.25.76-.03,1.64.04,2.33.54.7.47,1.1,1.22,1.34,1.94.24.73.35,1.47.42,2.19.07.71.18,1.42.26,2.12.18,1.4.35,2.76.52,4.1.67,5.34,1.28,10.15,1.79,14.18.49,4.04.88,7.31,1.15,9.57.12,1.13.22,2.01.28,2.61.06.6.08.91.06.91Z"/>
  <path d="M105.63,130.2c.01.16-11.77,1.16-26.32,2.24-14.55,1.07-26.35,1.81-26.36,1.65-.01-.16,11.77-1.16,26.32-2.24s26.35-1.81,26.36-1.65Z"/>
  <path d="M44.58,45.85s.02.49-.04,1.36c-.07.87-.19,2.14-.4,3.69-.42,3.1-1.15,7.42-2.91,11.91-1.71,4.51-4.31,8.12-6.46,10.41-1.11,1.12-2.03,2-2.74,2.52-.69.55-1.08.84-1.1.8-.03-.03.32-.38.95-.98.66-.58,1.53-1.49,2.58-2.63,2.04-2.33,4.54-5.9,6.22-10.34,1.74-4.42,2.53-8.69,3.05-11.76.27-1.54.44-2.79.58-3.66.14-.86.23-1.34.27-1.34Z"/>
  <path d="M21.63,73.94s-.92.46-2.48.19c-1.55-.22-3.55-1.06-5.52-2.32-2.02-1.21-3.43-2.92-4.87-3.15-.7-.15-1.3-.06-1.71.01-.41.07-.64.13-.66.09-.01-.03.19-.16.6-.31.4-.14,1.04-.31,1.84-.2.81.11,1.67.57,2.48,1.19.79.63,1.66,1.26,2.63,1.88,1.93,1.23,3.83,2.09,5.28,2.41,1.45.36,2.38.11,2.4.22Z"/>
  <path d="M56.89,44.51s-.48.34-1.35.93c-.86.59-2.1,1.49-3.41,2.82-1.29,1.32-2.72,3.1-3.44,5.44-.67,2.36-1.3,5.06-2.11,7.82-1.57,5.54-3.27,10.48-4.61,14-.67,1.77-1.25,3.18-1.66,4.15-.42.97-.67,1.5-.71,1.48-.04-.02.14-.57.49-1.56.35-.99.86-2.43,1.48-4.21,1.24-3.56,2.87-8.5,4.43-14.02.81-2.76,1.44-5.4,2.16-7.82.78-2.45,2.3-4.26,3.66-5.57,1.38-1.32,2.67-2.17,3.58-2.71.91-.54,1.46-.76,1.47-.73Z"/>
  <path d="M58.89,45.14s-.51.28-1.4.84c-.88.56-2.12,1.45-3.41,2.8-.64.67-1.28,1.47-1.85,2.4-.27.48-.55.98-.83,1.5-.31.51-.57,1.01-.76,1.59-.75,2.36-1.53,5-2.36,7.75-1.66,5.51-3.23,10.48-4.51,14.04-.63,1.78-1.19,3.2-1.59,4.18-.41.97-.65,1.51-.69,1.49s.13-.57.47-1.57c.33-1,.81-2.45,1.41-4.23,1.18-3.58,2.69-8.56,4.34-14.07.84-2.76,1.62-5.37,2.41-7.76.2-.6.52-1.18.83-1.67.3-.51.59-1.01.86-1.49.61-.95,1.29-1.76,1.96-2.43,1.35-1.35,2.66-2.21,3.59-2.71.47-.25.85-.42,1.11-.52.26-.1.4-.14.41-.12Z"/>
  <path d="M50.38,84.53s-.08-.6-.11-1.68c-.02-1.08-.05-2.65-.08-4.58-.01-1.94-.03-4.24-.05-6.8,0-2.56.02-5.37.03-8.32.04-2.96-.02-5.76.31-8.35.24-1.32.84-2.45,1.5-3.4.66-.95,1.38-1.75,2.07-2.44,1.39-1.37,2.63-2.34,3.49-2.99.87-.65,1.37-.97,1.4-.94.03.03-.43.42-1.25,1.12-.82.7-2.01,1.72-3.34,3.1-.66.69-1.35,1.49-1.97,2.42-.62.92-1.17,2-1.37,3.21-.29,2.48-.22,5.33-.26,8.27,0,2.95-.03,5.77-.07,8.32-.03,2.56-.06,4.86-.08,6.79-.04,1.93-.08,3.5-.11,4.58-.04,1.08-.08,1.68-.12,1.68Z"/>
  <path d="M61.06,45.85s-.42.43-1.23,1.13c-.8.71-1.99,1.71-3.33,3.05-1.3,1.35-2.74,3.2-3.07,5.69-.4,2.45-.23,5.27-.29,8.19-.03,5.85-.1,11.14-.17,14.97-.05,1.92-.09,3.46-.12,4.54-.04,1.07-.08,1.66-.12,1.66-.04,0-.08-.59-.1-1.66-.02-1.07-.04-2.62-.07-4.54-.03-3.83-.03-9.13,0-14.98.06-2.92-.1-5.71.34-8.27.21-1.27.67-2.47,1.3-3.43.61-.98,1.33-1.78,2.02-2.46,1.4-1.33,2.63-2.28,3.48-2.93.85-.65,1.35-.98,1.37-.95Z"/>
  <path d="M54.29,85.83s-.08-.6-.13-1.68c-.03-1.09-.07-2.66-.13-4.6-.08-3.88-.16-9.24-.2-15.17-.02-2.96-.04-5.82.61-8.38.32-1.27.89-2.43,1.62-3.35.72-.92,1.51-1.66,2.24-2.3,1.48-1.28,2.72-2.23,3.57-2.91.85-.67,1.34-1.03,1.36-1,.03.03-.41.45-1.21,1.17-.8.73-2.01,1.74-3.44,3.04-.71.66-1.46,1.4-2.13,2.29-.68.89-1.19,1.97-1.49,3.19-.59,2.45-.56,5.29-.54,8.24.05,5.92.05,11.29.03,15.17-.02,1.94-.04,3.51-.06,4.6-.03,1.09-.06,1.69-.1,1.69Z"/>
  <path d="M56.68,86.59s-.07-.6-.1-1.68c-.01-1.08-.03-2.65-.06-4.58-.02-3.87,0-9.21.04-15.11.02-1.48.03-2.92.05-4.31.04-1.41.2-2.76.5-4.03.16-.63.31-1.24.63-1.83.31-.56.69-1.02,1.05-1.47.74-.88,1.5-1.63,2.2-2.31,1.41-1.34,2.61-2.35,3.45-3.03.84-.68,1.33-1.03,1.35-1,.03.03-.41.44-1.2,1.18-.79.73-1.95,1.79-3.31,3.15-.68.68-1.41,1.45-2.11,2.32-.34.44-.7.9-.97,1.41-.26.49-.41,1.1-.56,1.7-.6,2.45-.43,5.27-.49,8.23-.05,5.9-.13,11.24-.21,15.11-.06,1.93-.1,3.5-.13,4.58-.04,1.08-.09,1.68-.13,1.68Z"/>
  <path d="M59.21,87.55s-.08-.61-.11-1.7c-.02-1.1-.05-2.68-.08-4.64-.04-3.92-.07-9.34-.05-15.32,0-1.5.02-2.96.03-4.37.04-1.42.04-2.77.27-4.11.3-1.3.86-2.47,1.57-3.41.7-.95,1.49-1.71,2.23-2.37,1.49-1.3,2.81-2.2,3.7-2.83.9-.62,1.42-.95,1.44-.91.02.03-.45.42-1.31,1.1-.85.69-2.13,1.64-3.56,2.95-1.41,1.3-3.03,3.09-3.54,5.59-.2,1.22-.19,2.61-.22,4,0,1.41,0,2.87-.02,4.37-.01,5.98-.06,11.4-.12,15.32-.04,1.96-.08,3.55-.1,4.64-.04,1.1-.08,1.7-.12,1.7Z"/>
  <path d="M61.72,88.35s-.08-.61-.12-1.73c-.04-1.11-.07-2.72-.08-4.71-.03-3.98-.03-9.47.09-15.54.07-3.04.13-5.92.34-8.56.09-1.37.69-2.6,1.42-3.54.73-.95,1.57-1.69,2.36-2.31,1.59-1.23,2.99-2.03,3.93-2.62.95-.58,1.47-.91,1.49-.87.02.03-.45.42-1.37,1.06-.9.65-2.27,1.51-3.8,2.75-.75.63-1.55,1.36-2.23,2.28-.68.91-1.2,2.02-1.27,3.3-.18,2.6-.22,5.5-.29,8.52-.1,6.06-.2,11.55-.27,15.53-.04,1.99-.08,3.59-.1,4.71-.03,1.11-.07,1.73-.11,1.73Z"/>
  <path d="M64.33,89.22s-.08-.61-.11-1.7c-.02-1.1-.04-2.68-.07-4.64-.03-3.92-.04-9.34.03-15.32.02-1.5.05-2.96.07-4.37.02-.71.04-1.4.06-2.08,0-.67.08-1.39.2-2.01.22-1.28.56-2.53,1.16-3.56.61-1.03,1.39-1.82,2.12-2.48,1.48-1.32,2.77-2.24,3.65-2.89.89-.65,1.39-.98,1.42-.95.03.03-.43.43-1.28,1.13-.83.71-2.1,1.68-3.51,3.02-.7.67-1.43,1.45-1.97,2.42-.54.98-.84,2.15-1.05,3.42-.11.65-.17,1.26-.17,1.94-.01.68-.03,1.37-.04,2.07-.02,1.41-.04,2.87-.06,4.36-.08,5.98-.15,11.4-.2,15.32-.05,1.96-.09,3.55-.11,4.64-.04,1.1-.08,1.7-.12,1.7Z"/>
  <path d="M68.02,90.64s-.07-.61-.09-1.72c0-1.11-.02-2.71-.04-4.69,0-3.96.03-9.42.1-15.46.02-1.51.04-2.98.06-4.41,0-1.41.06-2.83.41-4.12.33-1.29.86-2.48,1.6-3.44.79-.93,1.62-1.61,2.36-2.27,1.5-1.3,2.75-2.29,3.63-2.97.88-.68,1.38-1.03,1.4-1,.03.03-.43.45-1.26,1.18-.83.73-2.04,1.78-3.5,3.11-.71.67-1.55,1.4-2.25,2.26-.67.9-1.16,2.03-1.46,3.27-.32,1.24-.37,2.59-.36,4.02-.02,1.42-.03,2.89-.05,4.4-.07,6.03-.17,11.49-.28,15.45-.06,1.98-.12,3.58-.15,4.68-.05,1.11-.09,1.72-.14,1.72Z"/>
  <path d="M70.34,91.2s-.08-.63-.11-1.78c-.02-1.15-.04-2.8-.07-4.85-.04-4.1-.05-9.75-.02-16,0-1.56,0-3.09.01-4.57.02-.74.04-1.47.12-2.19.03-.36.11-.72.19-1.07.06-.35.18-.69.29-1.02.95-2.65,2.81-4.45,4.36-5.77,1.59-1.32,2.99-2.22,3.95-2.85.96-.62,1.5-.96,1.52-.93.02.03-.47.43-1.39,1.11-.92.69-2.28,1.64-3.81,2.97-1.5,1.34-3.25,3.13-4.12,5.64-.11.31-.21.63-.27.96-.07.33-.15.66-.17,1-.07.69-.09,1.41-.1,2.14,0,1.47,0,2.99,0,4.55-.03,6.25-.08,11.91-.15,16.01-.05,2.05-.09,3.7-.11,4.85-.04,1.15-.08,1.78-.12,1.78Z"/>
  <path d="M98.73,37.94s-.1-.16-.18-.41c-.05-.13-.11-.22-.28-.31-.17-.11-.36-.24-.57-.34-.22-.11-.43-.18-.63-.1-.22.07-.45.27-.74.48-.55.39-1.16.83-1.8,1.28-2.57,1.79-4.73,3.13-4.83,3-.09-.13,1.92-1.69,4.49-3.48.65-.44,1.26-.86,1.83-1.24.27-.17.54-.4.91-.5.39-.11.76.06.97.2.24.15.42.31.57.44.18.12.3.37.3.52.02.31,0,.46-.04.47Z"/>
  <path d="M100.65,41.7c-.08,0-.16-.74-.21-1.95,0-.15-.01-.3-.02-.46-.01-.12-.06-.26-.13-.39-.15-.26-.39-.52-.68-.75-.07-.06-.15-.11-.23-.16l-.12-.07s-.03-.02-.05-.02c-.06-.02-.22.05-.39.17-.36.24-.73.49-1.12.75-3.04,2.04-5.59,3.59-5.68,3.46s2.31-1.9,5.37-3.95c.38-.25.76-.51,1.12-.74.19-.11.42-.29.79-.24.09.01.17.05.24.09l.14.09c.09.06.18.13.26.2.33.27.61.58.78.95.09.18.15.38.15.59,0,.17-.01.33-.01.48-.05,1.2-.12,1.95-.2,1.95Z"/>
  <path d="M99.3,45.1c.09.14-2.52,2.01-5.83,4.19-3.31,2.18-6.07,3.83-6.16,3.7-.09-.13,2.52-2.01,5.83-4.19,3.31-2.18,6.07-3.84,6.16-3.7Z"/>
  <path d="M89.41,53.15s-.1.06-.17.24c-.07.18-.11.47-.11.86.02.79.04,1.93.07,3.34.01,1.41.02,3.09.04,4.95,0,.47,0,.94,0,1.43,0,.2.04.55.06.55,0,0,0,0,.01,0,.05-.02.14-.08.22-.15.78-.64,1.58-1.32,2.38-2.03l.42-.38c.12-.11.32-.31.27-.26-.02-2.18-.03-4.24-.05-6.07-.01-.92.02-1.82.04-2.61,0-.4.01-.78,0-1.14,0-.15-.01-.3-.02-.44-.01-.06-.09-.09-.14-.05-1.84,1.14-3.01,1.82-3.04,1.75s1.01-.82,2.87-2.09c.21-.17.57-.08.67.19.03.06.03.14.04.21v.14s.03.28.03.28c.02.37.03.76.03,1.16,0,.81,0,1.67.03,2.59.03,1.87.07,3.96.12,6.18-.01.09-.08.16-.11.25l-.13.14-.22.21-.43.39c-.82.72-1.62,1.39-2.41,2.04-.11.09-.23.18-.42.25-.23.09-.51.01-.63-.2-.21-.44-.13-.61-.16-.9,0-.49.01-.97.02-1.44.03-1.87.06-3.55.09-4.96.04-1.42.07-2.54.12-3.34.03-.4.11-.72.23-.91.13-.2.28-.2.28-.18Z"/>
  <path d="M106.4,46.16c-.08,0-.14-.81-.19-2.12-.02-.66-.04-1.44-.06-2.32,0-.22,0-.44-.01-.67v-.34c-.02-.17,0-.06-.04-.12-.17-.16-.35-.32-.53-.48l-.28-.24c-.08-.07-.23-.17-.22-.17-.12-.04-.27-.03-.44.05-3.71,2.27-6.75,4.17-6.85,4.02-.05-.07.66-.61,1.85-1.45,1.21-.81,2.82-2,4.76-3.11.24-.11.57-.17.87-.06.24.11.28.18.4.27l.29.25c.19.17.37.33.55.51.17.09.21.45.19.51v.35c0,.23,0,.46,0,.68-.01.88-.04,1.67-.07,2.32-.06,1.32-.14,2.12-.21,2.12Z"/>
  <path d="M106.4,40.48c.09.13-1.27,1.25-3.05,2.49-1.78,1.25-3.29,2.15-3.38,2.01-.09-.13,1.27-1.25,3.05-2.49,1.78-1.25,3.29-2.15,3.38-2.01Z"/>
  <path d="M93.82,45.88s-.08-.24-.1-.67c0-.21-.02-.48-.03-.78-.01-.28-.01-.71-.06-.96-.16-.23-.59-.56-.98-.81-.18-.12-.45-.25-.55-.22-.06,0-.4.28-.61.41-.94.66-1.99,1.39-3.09,2.16-2.11,1.46-4.04,2.75-5.45,3.66-1.41.91-2.31,1.44-2.36,1.38-.05-.07.77-.72,2.12-1.72,1.35-1,3.25-2.35,5.36-3.81,1.11-.76,2.17-1.48,3.12-2.13l.34-.23c.1-.06.24-.2.47-.23.45-.02.65.19.9.33.43.34.79.56,1.08,1.06.08.51.01.79,0,1.12-.03.3-.05.57-.07.78-.04.43-.08.66-.12.66Z"/>
  <path d="M93.78,43.4s.04,0,.02.01c-.02-.02-.05,0,0-.02.02.03.03.05,0,.06-.06.06-.16.15-.28.26-.26.22-.65.52-1.14.9-.98.74-2.37,1.75-3.94,2.83-3.13,2.17-5.75,3.82-5.83,3.68-.09-.14,2.34-1.98,5.43-4.1,1.54-1.06,2.97-2,4.02-2.67.53-.33.96-.6,1.28-.77.16-.09.28-.15.37-.19.06.02-.01-.06.12-.03.03.07.01.07-.02.1-.09-.03-.03-.05-.04-.05Z"/>
  <path d="M72.01,91.71s-.07-.63-.1-1.75c-.02-1.13-.04-2.76-.07-4.78-.04-4.04-.07-9.62-.03-15.78.02-1.54.04-3.05.06-4.5.02-.73.04-1.44.07-2.15.03-.73.19-1.42.39-2.08.44-1.31,1.18-2.43,2-3.31.81-.89,1.66-1.63,2.45-2.26,1.59-1.27,2.94-2.19,3.88-2.82.94-.63,1.47-.96,1.49-.93.02.03-.46.42-1.36,1.11-.89.69-2.21,1.66-3.75,2.95-1.49,1.3-3.4,2.93-4.2,5.42-.17.62-.32,1.27-.34,1.94-.02.7-.04,1.41-.06,2.13-.02,1.45-.03,2.95-.05,4.49-.06,6.16-.11,11.74-.15,15.78-.03,2.02-.07,3.65-.12,4.78-.04,1.13-.09,1.75-.13,1.75Z"/>
  <path d="M73.88,92.32s-.08-.63-.11-1.78c-.02-1.15-.05-2.8-.09-4.85-.05-4.09-.09-9.75-.09-15.99.02-3.1-.16-6.16.73-8.82.22-.65.48-1.29.87-1.85.38-.56.86-1,1.33-1.4.94-.75,1.76-1.51,2.6-2.12,1.66-1.23,3.09-2.07,4.06-2.67.98-.59,1.53-.91,1.55-.87.02.03-.48.42-1.43,1.07-.94.66-2.33,1.55-3.93,2.81-.8.62-1.62,1.4-2.54,2.16-.45.39-.88.81-1.22,1.32-.34.5-.57,1.1-.78,1.73-.4,1.26-.57,2.66-.64,4.11-.05,1.45-.01,2.98-.02,4.54,0,6.25-.03,11.9-.09,16-.04,2.05-.07,3.7-.09,4.85-.04,1.14-.07,1.78-.11,1.78Z"/>
  <path d="M76.15,92.6s-.09-.62-.14-1.73c-.04-1.12-.09-2.73-.16-4.72-.1-3.99-.22-9.5-.29-15.6.02-1.53.07-3.02.16-4.46.05-.72.1-1.43.19-2.12.06-.69.29-1.42.6-2.03.69-1.2,1.62-2.1,2.5-2.88.9-.78,1.78-1.43,2.6-2.01,1.63-1.16,2.99-2.03,3.9-2.67.92-.63,1.42-.99,1.45-.95.01.02-.1.13-.32.32-.22.2-.56.47-1,.82-.88.69-2.2,1.63-3.79,2.82-.8.6-1.66,1.26-2.52,2.04-.85.78-1.74,1.67-2.35,2.77-.59,1.09-.58,2.5-.69,3.93-.08,1.43-.13,2.91-.14,4.43.04,6.09.09,11.6.11,15.58-.01,1.99-.02,3.61-.03,4.73-.02,1.12-.05,1.73-.09,1.73Z"/>
  <path d="M100.59,38.9c.06.11-1.37,1.16-3.19,2.43-1.82,1.25-3.35,2.19-3.45,2.06-.09-.13,1.29-1.28,3.11-2.54,1.81-1.27,3.43-2.12,3.52-1.94Z"/>
  <path d="M95.43,37.63s-.07-.19-.11-.45c-.04-.24-.42-.41-.87-.7-.23-.14-.46-.3-.69-.33-.23-.04-.45.06-.72.27-.56.42-1.18.89-1.82,1.37-2.59,1.92-4.77,3.37-4.87,3.24-.1-.13,1.93-1.79,4.54-3.73.65-.48,1.28-.94,1.84-1.33.29-.21.72-.4,1.12-.3.39.09.63.32.83.47.39.31.86.6.86,1.01-.02.33-.08.46-.11.47Z"/>
  <path d="M89.37,70.88s.07-.16.25-.43c.19-.26.49-.64.94-1.07.45-.42,1.05-.91,1.86-1.28.41-.18.87-.33,1.39-.38.52-.05,1.07.02,1.61.18,1.08.32,2.21.97,3.01,2.07.79,1.14,1.01,2.58,1.14,4.03.04.73.04,1.49-.05,2.26-.11.77-.28,1.53-.52,2.3-.48,1.52-1.28,3.07-2.58,4.23-.64.58-1.37,1.05-2.14,1.39-.8.39-1.64.44-2.45.48-.45-.01-.77-.04-1.22-.11-.44-.1-.8-.3-1.13-.54-.66-.46-1.16-1.1-1.52-1.76-.71-1.33-.94-2.77-.92-4.08,0-1.3.12-2.51.39-3.59.26-1.08.7-2.01,1.15-2.76.43-.76.9-1.37,1.35-1.8.45-.43.84-.71,1.11-.89.27-.18.42-.26.43-.24.04.05-.54.42-1.37,1.29-.41.44-.83,1.04-1.23,1.8-.42.76-.81,1.64-1.03,2.69-.23,1.05-.32,2.23-.31,3.5,0,1.25.24,2.61.91,3.82.33.6.78,1.16,1.36,1.56.29.21.6.37.92.44.31.05.77.09,1.1.09.74-.04,1.55-.1,2.22-.44.71-.32,1.39-.75,1.98-1.29,1.2-1.07,1.95-2.52,2.42-3.97.23-.73.4-1.48.51-2.2.1-.73.1-1.45.07-2.16-.1-1.4-.32-2.79-1-3.78-.7-1-1.74-1.64-2.73-1.96-1.01-.34-1.97-.23-2.75.11-.78.32-1.38.76-1.84,1.15-.91.79-1.29,1.36-1.34,1.32Z"/>
  <path d="M91.62,84.39s.28-.16.81-.38c.51-.23,1.31-.51,2.06-1.14.83-.63,1.69-1.41,2.35-2.57.68-1.13,1.08-2.53,1.22-4.06.14-1.52.02-2.99-.4-4.23-.4-1.24-1.16-2.19-1.88-2.86-.73-.68-1.47-1.02-2.01-1.09-.54-.06-.84.09-.86.04-.02-.02.26-.25.87-.26.61,0,1.46.33,2.27,1.01.8.67,1.66,1.66,2.12,3,.48,1.32.62,2.87.48,4.46-.14,1.58-.59,3.1-1.34,4.28-.71,1.2-1.72,2.05-2.55,2.61-.87.65-1.7.86-2.24,1.03-.56.15-.87.2-.88.17Z"/>
  <path d="M112.42,41.52c.08,0,.13.62.15,1.61,0,.5.02,1.08,0,1.75-.02.64-.15,1.56-.89,2.12-.35.27-.86.4-1.3.25-.44-.14-.74-.46-.92-.79-.18-.33-.27-.69-.26-1.01,0-.3,0-.58.02-.83.09-1.01.27-1.6.34-1.59.09,0,.05.63.07,1.6,0,.24.02.51.05.79.02.27.1.52.24.76.28.5.9.74,1.4.34.51-.38.65-1.06.7-1.68.05-.65.09-1.24.13-1.73.09-.99.18-1.6.26-1.6Z"/>
  <path d="M48.89,52.42c-.18-.02,0-1.91.16-4.22.13-2.3.1-4.2.28-4.2.15-.01.44,1.88.31,4.24-.17,2.35-.6,4.2-.75,4.18Z"/>
  <path d="M16.93,103.85c.06-.03.26.21.19.68-.02.11-.06.24-.13.36-.02.05-.09.14-.17.2-.07.06-.15.1-.25.13-.18.06-.43.05-.62-.08-.19-.12-.29-.31-.36-.47-.26-.62-.14-1.36.29-1.68.22-.17.5-.14.61-.05.12.09.12.19.09.21-.06.03-.27-.07-.41.15-.16.21-.21.69-.02,1.16.1.23.16.26.28.25.03,0,.06-.02.09-.03.02,0,.03-.01.07-.06.06-.07.1-.14.14-.21.14-.29.13-.53.21-.56Z"/>
  <path d="M44.58,84.24s-.19.17-.59.36c-.2.09-.44.21-.76.29-.31.09-.72.12-1.12.01-1.54-.45-3.51-1.23-5.74-2.09-2.21-.87-4.21-1.68-5.64-2.3-.71-.32-1.3-.53-1.67-.82-.37-.28-.46-.54-.43-.55.04-.03.19.17.55.36.36.2.98.36,1.71.63,1.47.52,3.48,1.27,5.69,2.13,2.2.85,4.21,1.71,5.63,2.23.69.24,1.28-.01,1.7-.12.42-.12.65-.18.67-.14Z"/>
  <path d="M103.63,138.26c.01.16-10.37,1.1-23.19,2.1-12.82,1-23.22,1.68-23.24,1.52-.01-.16,10.37-1.1,23.19-2.1,12.82-1,23.22-1.68,23.24-1.52Z"/>
  <path d="M103.63,143.52c.01.16-10.05,1.19-22.47,2.3-12.43,1.11-22.51,1.88-22.53,1.72-.01-.16,10.05-1.19,22.47-2.3,12.43-1.11,22.51-1.88,22.53-1.72Z"/>
  <path d="M104.76,149.26c.01.16-10.1,1.21-22.6,2.33-12.5,1.13-22.64,1.91-22.65,1.75-.01-.16,10.1-1.21,22.6-2.33,12.5-1.13,22.64-1.91,22.65-1.75Z"/>
  <ellipse cx="83.05" cy="158.02" rx="22.62" ry=".29" transform="translate(-10.75 6.14) rotate(-3.97)"/>
  <path d="M107.12,162.41c.01.16-10.05,1.15-22.48,2.21s-22.52,1.78-22.53,1.62c-.01-.16,10.05-1.15,22.48-2.21,12.43-1.06,22.52-1.78,22.53-1.62Z"/>
  <path d="M51.14,105.9s.05-.09.15-.14c.05-.03.1-.05.17-.08.06-.03.16-.06.15-.07.09.01-.18-.36-.11-1.17.09-.23.19-.35.43-.47.25-.06.31-.04.45-.05.24,0,.46.01.64.03.36.04.58.1.59.18.01.08-.22.17-.57.24-.18.03-.39.06-.62.09-.09.01-.28.04-.28.04.01,0-.09.08-.08.12-.02,0,0,.14,0,.26.01.13.02.25.03.37,0,.13.11.83-.3.74-.18.02-.25.01-.32,0-.07,0-.14-.01-.19-.02-.1-.02-.16-.05-.16-.09Z"/>
  <path d="M38.34,107.21c-.04.15-3.19-.55-6.99-1.76-3.8-1.2-6.75-2.55-6.69-2.7.06-.15,3.08.95,6.86,2.14,3.78,1.2,6.86,2.15,6.81,2.32Z"/>
  <path d="M42.51,108.6c-.05.15-.55.13-1.11-.06s-.98-.47-.93-.62.55-.13,1.11.06c.56.19.98.47.93.62Z"/>
  <path d="M6.31,68.39s.18-.09.54-.2c.36-.1.91-.27,1.64-.26.73,0,1.64.23,2.52.77.87.53,1.82,1.19,2.88,1.89,1.07.67,2.22,1.51,3.58,2,1.37.48,2.97.59,4.56.19,1.59-.39,3.16-1.23,4.5-2.41,1.34-1.19,2.41-2.75,3.26-4.47.84-1.72,1.43-3.52,1.8-5.29.36-1.78.54-3.53.74-5.21.39-3.37,1.14-6.34,1.84-8.79.73-2.45,1.5-4.38,2.08-5.68.29-.65.54-1.15.71-1.48.18-.33.28-.5.29-.49.04.02-.28.74-.8,2.07-.52,1.32-1.23,3.26-1.9,5.71-.65,2.45-1.35,5.41-1.7,8.74-.19,1.67-.35,3.44-.72,5.26-.37,1.82-.97,3.66-1.84,5.44-.87,1.77-1.99,3.39-3.41,4.64-1.42,1.23-3.07,2.1-4.75,2.5-1.69.42-3.41.28-4.86-.26-1.46-.55-2.58-1.41-3.65-2.11-1.05-.72-1.99-1.4-2.83-1.95-.83-.55-1.66-.79-2.35-.82-.7-.04-1.24.08-1.61.15-.37.07-.56.11-.57.09Z"/>
  <path d="M80.58,48.89s.02.2-.04.55c-.09.34-.14.85-.59,1.41-.24.29-.72.44-1.12.36-.4-.07-.75-.19-1.14-.29-.79-.21-1.65-.45-2.55-.69-.91-.26-1.76-.53-2.53-.82-.39-.14-.75-.29-1.08-.43-.17-.07-.37-.16-.52-.33-.15-.14-.24-.42-.22-.6.09-.7.36-1.11.5-1.43.16-.31.25-.47.29-.46.04,0,.02.21-.08.54-.08.32-.29.82-.3,1.35,0,.22.16.36.5.47.34.12.7.24,1.08.37.77.25,1.62.5,2.52.76.9.26,1.76.51,2.54.74.39.11.77.26,1.08.33.31.07.55,0,.73-.16.37-.38.53-.89.67-1.19.13-.32.22-.49.26-.48Z"/>
  <path d="M71.93,48.82c-.04.16-.82.1-1.74-.12-.92-.22-1.64-.53-1.6-.69.04-.16.81-.11,1.74.12.93.22,1.64.53,1.6.69Z"/>
  <path d="M84.44,51.85s.17-.15.52-.4c.35-.24.88-.6,1.55-1.05,1.36-.89,3.33-2.19,5.76-3.79,1.22-.79,2.56-1.66,4-2.59.33-.2.77-.58,1.36-.49.28.05.51.18.71.3.17.11.37.2.57.31l.62.31c.22.13.41.19.66.45.19.37.14.58.19.83l.05.72c.09,1.93.11,3.95.13,6.05,0,1.05,0,2.12-.01,3.2l-.02.82c-.01.25.01.6-.17.93-.19.32-.42.48-.6.67l-.64.55c-3.49,2.79-6.34,5.88-9.38,8.32-.39.29-.72.63-1.24.85-.26.1-.58.14-.87.03-.29-.11-.5-.32-.64-.54-.3-.47-.29-1.02-.26-1.46.05-.44.04-.85.04-1.29.01-1.71.02-3.31.03-4.76.02-1.46.03-2.77.05-3.93,0-.58.03-1.12.01-1.61,0-.24-.01-.48-.02-.7,0-.13,0-.18-.06-.25-.05-.07-.12-.14-.2-.21-1.28-.95-2.18-1.23-2.15-1.28,0-.02.23.03.63.2.39.17.99.4,1.67.91.08.07.17.14.24.24.09.09.12.28.12.37.01.23.03.47.04.72.03.5.02,1.04.04,1.62.01,1.16.03,2.47.04,3.93.01,1.46.02,3.05.04,4.76,0,.41.01.88-.03,1.32-.03.43-.01.84.19,1.15.21.32.53.46.88.3.35-.14.72-.49,1.09-.77,2.95-2.41,5.86-5.57,9.32-8.33l.62-.53c.2-.21.43-.39.51-.55.09-.15.09-.38.1-.67l.02-.81c0-1.08.01-2.14.02-3.19,0-2.09-.01-4.11-.09-6.02l-.04-.71c-.01-.21-.06-.51-.07-.55-.07-.08-.31-.22-.49-.32l-.61-.31c-.2-.1-.41-.2-.62-.34-.18-.12-.35-.21-.51-.23-.32-.06-.65.16-1.02.4-1.45.91-2.8,1.76-4.03,2.53-2.48,1.53-4.48,2.77-5.86,3.63-.7.42-1.24.74-1.61.96-.37.21-.57.32-.58.3Z"/>
  <path d="M92.02,62.67s.26-.57.13-1.6c-.06-1.03-.1-2.46-.11-4.03-.01-1.57,0-3,.03-4.03.03-1.03.08-1.67.12-1.66.24-.04.41,2.54.44,5.68.01,1.58-.01,3-.06,4.03.04,1.07-.46,1.71-.55,1.6Z"/>
  <path d="M91.12,73.11s.03-.22.34-.2c.3.04.57.31.79.68.21.38.32.94.17,1.51-.07.28-.2.57-.38.83-.18.24-.41.55-.86.64-.48.08-.86-.23-1.02-.54-.17-.32-.22-.6-.25-.89-.06-.57.07-1.1.29-1.47.22-.38.52-.6.76-.68.25-.07.39.02.38.05,0,.04-.13.05-.28.16-.15.11-.35.33-.49.66-.13.32-.2.75-.12,1.22.05.47.31.99.63.92.16-.02.35-.2.5-.4.15-.2.26-.42.33-.63.14-.44.1-.86-.03-1.19-.13-.32-.32-.57-.46-.63-.15-.07-.26,0-.29-.02Z"/>
  <path d="M93.67,75.92c0-.07.48-.05.8.54.16.28.21.72.06,1.13-.07.21-.19.41-.35.58-.16.17-.39.36-.75.36-.37-.02-.61-.29-.72-.51-.12-.23-.15-.46-.15-.67,0-.43.15-.8.33-1.05.18-.24.41-.43.63-.44.22.02.27.14.24.17-.02.03-.11.01-.21.06-.08.05-.2.2-.31.43-.1.22-.17.5-.14.81,0,.3.21.64.35.62.17.02.48-.3.58-.55.12-.27.13-.55.06-.77-.14-.46-.46-.63-.42-.7Z"/>
  <path d="M91.33,42.65c-.04.07-.62-.24-1.56-.8-.05-.03-.11-.06-.16-.08-.03,0-.03-.02-.06,0-.05.02-.22.13-.34.2-.26.17-.54.36-.84.55-.59.4-1.24.83-1.92,1.29-2.73,1.82-4.99,3.24-5.08,3.11-.1-.14,2.02-1.78,4.75-3.6.69-.46,1.35-.88,1.96-1.25.31-.19.6-.36.88-.51.17-.08.24-.15.48-.22.1-.05.25-.01.35.03.08.04.14.08.2.12.86.64,1.38,1.08,1.34,1.15Z"/>
  <path d="M88.14,42.36c-.06.06-.33-.18-.71-.54-.19-.17-.43-.39-.68-.5-.13-.05-.22-.05-.32,0-.13.07-.32.18-.49.28-1.41.84-2.61,1.45-2.7,1.31-.08-.14.97-.97,2.4-1.82.19-.11.34-.2.57-.3.26-.11.57-.06.77.04.4.21.6.49.77.72.32.46.45.77.4.82Z"/>
  <path d="M95.41,37.07c.09.13-1.49,1.39-3.54,2.8-2.05,1.41-3.78,2.45-3.87,2.31s1.5-1.39,3.54-2.8c2.05-1.41,3.78-2.45,3.87-2.31Z"/>
  <path d="M82.65,53.31c-.08,0-.15-.25-.2-.64-.03-.2-.05-.43-.06-.69,0-.13-.02-.27-.02-.41,0-.12-.02-.34-.03-.35h0c-.07-.09-.38-.28-.59-.39-.23-.12-.44-.24-.62-.33-.36-.19-.58-.36-.54-.43.03-.07.29-.05.69.05.2.05.44.12.7.23.26.14.53.18.86.57l.06.11c.06.28.03.36.04.53,0,.15,0,.29-.01.42-.01.27-.04.5-.06.7-.05.4-.13.64-.21.64Z"/>
  <path d="M66.11,89.76s-.07-.61-.09-1.71c0-1.1-.02-2.69-.04-4.66,0-3.93.03-9.36.1-15.36.02-1.5.04-2.96.06-4.38.01-.71.02-1.4.03-2.08.04-.69.13-1.37.26-2.02.27-1.3.73-2.5,1.38-3.5.67-1.02,1.54-1.69,2.25-2.36,1.48-1.3,2.73-2.29,3.59-2.97.87-.67,1.37-1.03,1.39-.99.03.03-.42.44-1.25,1.17-.82.73-2.02,1.77-3.46,3.1-.69.68-1.54,1.38-2.12,2.32-.6.95-1.02,2.1-1.26,3.34-.12.62-.2,1.27-.23,1.94,0,.68-.01,1.37-.02,2.08-.02,1.41-.03,2.88-.05,4.37-.07,5.99-.17,11.42-.27,15.35-.06,1.96-.11,3.55-.15,4.65-.05,1.1-.09,1.71-.13,1.71Z"/>
</svg>