<?xml version="1.0" encoding="UTF-8"?>
<svg id="Capa_1" data-name="Capa 1" xmlns="http://www.w3.org/2000/svg" version="1.1" viewBox="0 0 226.77 226.77">
  <defs>
    <style>
      .cls-1 {
        fill: none;
        stroke: #1d1d1b;
        stroke-miterlimit: 10;
        stroke-width: .41px;
      }

      .cls-2 {
        fill: #1d1d1b;
        stroke-width: 0px;
      }
    </style>
  </defs>
  <path class="cls-2" d="M94.98,102.9c.13-.02.66,2.16,1.19,4.88.53,2.72.86,4.94.73,4.96s-.66-2.16-1.19-4.88c-.53-2.72-.86-4.94-.73-4.96Z"/>
  <path class="cls-2" d="M102.99,112.51c-.13,0-.27-1.03-.32-2.3-.05-1.28,0-2.31.12-2.32.13,0,.3,1.02.35,2.3.05,1.28-.02,2.32-.15,2.32Z"/>
  <path class="cls-2" d="M104.42,112.85c-.1,0-.22-1.04-.26-2.32-.04-1.29.02-2.33.14-2.34.13,0,.29,1.03.32,2.32.04,1.29-.05,2.35-.21,2.34Z"/>
  <path class="cls-2" d="M105.9,113.18c-.13,0-.28-1.02-.34-2.31-.06-1.28,0-2.33.12-2.33.13,0,.28,1.03.34,2.31.06,1.28,0,2.32-.12,2.33Z"/>
  <path class="cls-2" d="M107.38,110.71c-.09.03-.47-.74-1.01-2.03-.14-.31-.27-.69-.44-1.02-.17-.33-.41-.53-.81-.67-.39-.14-.85-.2-1.37-.33-.51-.15-.98-.32-1.49-.49-.5-.17-1-.34-1.47-.51-.46-.19-.91-.38-1.34-.56-.85-.36-1.61-.7-2.25-.99-1.27-.58-2.03-.99-1.99-1.08.04-.09.87.15,2.18.62.65.23,1.43.52,2.28.85.43.16.88.34,1.34.52.47.16.96.32,1.46.49.5.17.98.33,1.45.49.45.12.95.2,1.42.39.48.16.94.58,1.1,1.01.18.42.27.77.39,1.1.42,1.33.64,2.17.55,2.2Z"/>
  <path class="cls-2" d="M95.53,103.2c-.08.18-1.71-.35-3.69-1.07-1.98-.72-3.57-1.37-3.51-1.55.05-.18,1.75.16,3.75.89,2,.73,3.53,1.55,3.45,1.73Z"/>
  <path class="cls-2" d="M96.39,109.18c-.07.11-1.82-.79-4.08-1.71-2.25-.93-4.12-1.57-4.08-1.7.03-.12,1.99.33,4.26,1.27,2.28.93,3.96,2.04,3.9,2.15Z"/>
  <path class="cls-2" d="M89.03,107.32c-.11.06-.39-.26-.62-.71-.23-.45-.32-.85-.19-.89.12-.04.4.28.62.71.22.43.31.83.19.89Z"/>
  <path class="cls-2" d="M96.49,109.91c-.04.12-1.76-.41-3.83-1.18-2.07-.77-3.72-1.5-3.67-1.62.05-.12,1.76.41,3.83,1.18s3.72,1.49,3.67,1.62Z"/>
  <path class="cls-2" d="M88.76,106.12c-.19.02-.46-1.22-.6-2.78-.14-1.56-.1-2.83.1-2.84.19-.01.46,1.23.6,2.78.14,1.54.09,2.82-.1,2.84Z"/>
  <path class="cls-2" d="M89.4,109.85c-.13,0-.33-.59-.44-1.33-.11-.74-.1-1.37.02-1.4.13-.03.32.57.44,1.33.12.77.11,1.39-.02,1.4Z"/>
  <path class="cls-2" d="M97.01,126.69s-.18-.21-.42-.63c-.24-.43-.55-1.07-.85-1.89-.62-1.65-.98-4.07-1.23-6.71-.11-1.31-.32-2.54-.91-3.49-.57-.95-1.32-1.67-1.94-2.26-1.27-1.17-2.17-1.76-2.13-1.82.02-.03.26.09.68.35.42.26,1,.66,1.67,1.23.66.57,1.46,1.28,2.09,2.29.66,1.01.9,2.35,1.01,3.66.24,2.64.55,5.01,1.08,6.65.51,1.65,1.03,2.6.96,2.63Z"/>
  <path class="cls-1" d="M89.39,109.6"/>
  <path class="cls-2" d="M161.67,112s-.23.12-.69.32c-.46.19-1.14.48-2.02.81-1.77.68-4.35,1.62-7.6,2.56-6.5,1.93-15.81,3.57-26.17,3.58-5.18-.01-10.11-.61-14.5-1.53-4.39-.95-8.24-2.25-11.34-3.62-1.56-.66-2.93-1.38-4.13-1.97-1.2-.6-2.25-1.08-3.11-1.49-.86-.4-1.52-.72-1.96-.95-.22-.12-.39-.21-.5-.27-.11-.06-.17-.1-.16-.11,0-.02.25.09.7.29.46.2,1.13.49,2,.87.87.38,1.93.84,3.15,1.42,1.22.57,2.58,1.27,4.14,1.9,3.1,1.32,6.94,2.58,11.3,3.5,4.37.89,9.26,1.47,14.41,1.49,10.31,0,19.59-1.59,26.08-3.43,3.26-.89,5.85-1.78,7.63-2.41.89-.32,1.58-.56,2.05-.73.47-.17.72-.24.73-.23Z"/>
  <path class="cls-2" d="M108.3,117c0,.06-.9.1-2.35-.03-1.45-.11-3.44-.51-5.55-1.15-2.1-.64-4.04-1.16-5.37-1.8-1.35-.61-1.95-1.36-1.89-1.4.05-.04.69.58,2.03,1.09,1.31.55,3.26,1.01,5.37,1.66,2.11.64,4.03,1.08,5.46,1.27,1.42.21,2.31.29,2.31.36Z"/>
  <path class="cls-2" d="M149.47,126.29c-.11-.09.55-1,1.19-2.68.33-.84.67-1.86,1.02-3,.37-1.15.71-2.42,1.28-3.76.3-.67.68-1.31,1.21-1.83.52-.53,1.18-.85,1.76-1.07,1.2-.39,2.21-.68,3.09-.95,1.75-.51,2.86-.76,2.9-.64s-1,.6-2.7,1.27c-.84.34-1.9.72-2.98,1.12-.53.22-1.03.49-1.43.91-.41.41-.73.96-1,1.56-.52,1.22-.9,2.52-1.32,3.65-.41,1.14-.82,2.17-1.24,3-.83,1.68-1.71,2.49-1.79,2.41Z"/>
  <path class="cls-2" d="M145.36,127.34c-.05-.07.72-.54,1.64-1.61.93-1.07,1.91-2.78,2.75-4.79.84-2.01,1.6-3.87,2.38-5.1.39-.62.82-1.06,1.18-1.28.36-.22.6-.24.6-.22.03.05-.85.38-1.5,1.66-.69,1.24-1.39,3.09-2.24,5.12-.84,2.03-1.91,3.78-2.93,4.83-1.02,1.06-1.87,1.44-1.89,1.39Z"/>
  <path class="cls-2" d="M92.14,126.45c-.13-.01-.16-.87-.2-2.25-.05-1.38-.13-3.28-.21-5.39-.09-2.11-.05-4.05-.1-5.39-.05-1.35-.35-2.14-.23-2.2.1-.07.65.7.89,2.12.22,1.42.28,3.31.37,5.43.08,2.11.07,4.05-.06,5.44-.13,1.39-.34,2.24-.46,2.23Z"/>
  <path class="cls-2" d="M106.23,127.3c-.13.22-2.25-.88-4.52-2.73-1.14-.91-2.1-1.89-2.62-2.73-.53-.84-.65-1.46-.54-1.5.13-.06.45.43,1.07,1.1.61.68,1.56,1.51,2.68,2.41,2.22,1.81,4.07,3.23,3.93,3.45Z"/>
  <path class="cls-2" d="M94.72,116.58c-.06.11-.64-.05-1.33-.32-.69-.28-1.23-.63-1.16-.76.06-.1.63.04,1.33.32.7.28,1.22.64,1.16.76Z"/>
  <path class="cls-2" d="M151.97,119.07s-.77.26-2.2.62c-1.43.35-3.5.84-6.08,1.37-5.15,1.04-12.36,2.43-20.45,2.31-4.03-.07-7.88-.55-11.28-1.37-3.4-.8-6.39-1.72-8.92-2.44-2.52-.75-4.56-1.35-5.97-1.77-1.41-.43-2.18-.69-2.16-.74.01-.05.81.13,2.24.48,1.43.37,3.49.9,6.03,1.55,2.55.66,5.56,1.53,8.93,2.29,3.37.77,7.16,1.23,11.15,1.3,7.99.13,15.18-1.18,20.34-2.09,2.58-.49,4.67-.88,6.12-1.15,1.45-.27,2.25-.4,2.26-.35Z"/>
  <path class="cls-2" d="M135.82,122.05c-.15-.03.05-.89.06-1.87.01-1-.5-1.65-.42-1.74.04-.04.26.06.48.36.22.3.4.8.41,1.37-.02,1.13-.43,1.9-.53,1.88Z"/>
  <path class="cls-2" d="M126.82,122.58c-.15-.06.32-.87.42-1.84.03-.48-.11-.91-.28-1.17-.17-.26-.36-.37-.33-.44.01-.05.28-.05.58.23.29.27.54.81.5,1.42-.05.6-.29,1.07-.48,1.37-.2.31-.35.47-.41.44Z"/>
  <path class="cls-2" d="M117.37,122.27c-.13-.04.08-.9.18-1.96.05-.53.04-.99-.02-1.32-.05-.33-.13-.53-.08-.58.05-.04.24.12.39.48.15.36.22.89.17,1.46-.11,1.14-.53,1.96-.65,1.92Z"/>
  <path class="cls-2" d="M107.58,120.83c-.11.05-.53-.84-.51-2.02,0-1.18.44-2.06.55-2.01.13.04-.08.92-.08,2.02-.02,1.09.17,1.98.04,2.02Z"/>
  <path class="cls-2" d="M143.83,118.7c-.04-.12,1.61-.75,3.72-1.27,2.11-.52,3.86-.74,3.88-.61.02.13-1.68.55-3.77,1.07-2.09.52-3.79.94-3.83.82Z"/>
  <path class="cls-2" d="M146.86,118.47c-.02-.13.82-.37,1.89-.54,1.07-.17,1.94-.2,1.96-.08.02.13-.83.37-1.89.54-1.06.17-1.94.2-1.96.08Z"/>
  <path class="cls-2" d="M137.54,119.18c-.01-.07.86-.26,2.26-.56,1.4-.3,3.33-.72,5.47-1.19,2.12-.5,4.05-.96,5.44-1.29,1.39-.34,2.26-.54,2.28-.47.02.06-.82.37-2.19.79-1.37.42-3.29.94-5.43,1.43-2.14.49-4.09.84-5.51,1.06-1.42.22-2.31.3-2.32.23Z"/>
  <path class="cls-2" d="M95.2,113.15c-.06.15-1.55-.47-3.18-1.55-1.64-1.06-2.86-2.07-2.78-2.17.08-.11,1.41.73,3.04,1.78,1.62,1.07,2.96,1.84,2.92,1.94Z"/>
  <path class="cls-2" d="M98.38,113.89c-.03.12-1.18-.07-2.56-.44-1.38-.37-2.47-.76-2.44-.89s1.18.07,2.56.44,2.47.76,2.44.89Z"/>
  <path class="cls-2" d="M98.24,114.34c-.06.12-1.12-.31-2.41-.86-1.29-.55-2.34-1.01-2.29-1.13.04-.12,1.17.15,2.48.7,1.31.55,2.29,1.18,2.23,1.29Z"/>
  <path class="cls-2" d="M101.65,115.28c-.02.1-2.09-.12-4.57-.89-2.48-.76-4.24-1.98-4.16-2.08.07-.12,1.88.89,4.3,1.64,2.42.75,4.46,1.19,4.42,1.33Z"/>
  <path class="cls-2" d="M102.64,115.18c0,.06-.84.03-2.1-.35-1.27-.37-2.96-1.03-4.78-1.87-3.64-1.68-6.36-3.49-6.28-3.62.04-.06.74.34,1.9.94,1.16.6,2.77,1.41,4.57,2.25,1.8.84,3.46,1.54,4.69,1.98,1.22.45,2.01.59,2,.66Z"/>
  <path class="cls-2" d="M97.65,113.94c.05-.08,1.43.43,3.17,1.04,1.73.62,3.13,1.13,3.11,1.24-.03.15-1.52-.17-3.26-.8-1.75-.61-3.1-1.33-3.02-1.48Z"/>
  <path class="cls-2" d="M105.6,116.55c-.04.12-1.32-.22-2.86-.76-1.53-.54-2.74-1.08-2.7-1.2.04-.12,1.32.22,2.86.76,1.53.54,2.74,1.08,2.7,1.2Z"/>
  <path class="cls-2" d="M151.54,118.37c-.12,0-.03-1.29.91-2.51.93-1.23,2.17-1.64,2.2-1.52.06.12-.98.68-1.82,1.81-.86,1.11-1.15,2.26-1.28,2.23Z"/>
  <path class="cls-2" d="M151.89,118.98c-.12-.04.09-1.02.68-2.1.59-1.08,1.31-1.79,1.41-1.71.1.08-.43.89-1,1.93-.57,1.04-.97,1.92-1.09,1.88Z"/>
  <path class="cls-2" d="M154.56,115.26c.06.12-.84.63-1.62,1.59-.79.95-1.12,1.93-1.25,1.9-.12-.01.02-1.14.89-2.19.86-1.06,1.94-1.42,1.98-1.3Z"/>
  <path class="cls-2" d="M156.7,113.85c.02.13-.55.32-1.23.6-.67.27-1.22.53-1.29.43-.08-.1.39-.56,1.12-.86.73-.3,1.39-.29,1.4-.16Z"/>
  <path class="cls-2" d="M158.26,113.53c-.03-.13.74-.45,1.69-.82.95-.37,1.74-.67,1.8-.55.06.11-.65.6-1.63.99-.98.39-1.83.51-1.86.39Z"/>
  <path class="cls-2" d="M153.61,114.54c-.05-.12,1.71-.93,3.96-1.7,2.25-.79,4.15-1.18,4.18-1.04.02.11-1.8.69-4.03,1.48-2.24.77-4.06,1.38-4.11,1.26Z"/>
  <path class="cls-1" d="M150.02,120.76"/>
  <path class="cls-2" d="M104.19,127.25c.05.07-.84.55-2.33.33-.73-.09-1.57-.32-2.47-.54-.9-.22-1.89-.31-2.97-.31-2.17,0-4.14-.02-5.58-.11-1.45-.09-2.31-.45-2.28-.53.03-.1.88.08,2.3.04,1.42-.04,3.39-.11,5.58-.1,1.1,0,2.19.12,3.12.39.93.26,1.72.53,2.4.67,1.36.33,2.21.05,2.24.16Z"/>
  <path class="cls-2" d="M122.94,129.47s-.26.09-.73.17c-.48.07-1.17.18-2.04.18-.87.02-1.94-.18-3-.6-1.07-.4-2.19-.89-3.49-.77-.33,0-.71-.03-1.03-.14-.3-.11-.6-.22-.89-.33-.57-.19-1.14-.3-1.69-.38-1.11-.14-2.13-.17-2.99-.23-1.71-.11-2.77-.2-2.77-.27s1.07-.08,2.78-.06c.86.02,1.88,0,3.03.13.57.06,1.18.17,1.78.37.63.21,1.13.48,1.77.43,1.36-.13,2.63.42,3.65.83,1.04.44,2.01.65,2.86.67,1.69.05,2.76-.12,2.76-.03Z"/>
  <path class="cls-2" d="M131.35,127.18c.01.06-.78.26-2.07.52-1.28.27-3.1.55-5.02.99-.24.06-.48.09-.72.17-.24.07-.52.13-.82.08-.3-.06-.51-.22-.7-.32-.18-.1-.37-.17-.56-.22-.78-.17-1.56.07-2.19.19-1.29.34-2.17.17-2.14.1.01-.06.81,0,2.06-.42.63-.16,1.41-.46,2.36-.29.23.05.47.13.69.25.21.12.39.23.56.26.34.07.83-.18,1.33-.25,1.99-.46,3.78-.67,5.09-.86,1.3-.18,2.12-.25,2.13-.19Z"/>
  <path class="cls-2" d="M137.52,129.75s-.47.46-1.49.63c-.5.08-1.13.06-1.78-.14-.64-.19-1.28-.53-1.96-.6-.69-.06-1.38.11-2.03.2-.65.1-1.25.13-1.74.11-1-.03-1.59-.21-1.58-.26,0-.07.61-.02,1.58-.07.48-.03,1.05-.08,1.68-.2.62-.11,1.34-.31,2.14-.24.82.08,1.46.46,2.05.65.58.2,1.14.25,1.61.22.94-.07,1.49-.37,1.52-.3Z"/>
  <path class="cls-2" d="M150.92,126.33c0,.11-.93.18-2.39.4-.73.12-1.56.31-2.46.68-.46.18-.94.39-1.49.53-.55.16-1.18.21-1.77.15-1.19-.12-2.21-.38-3.1-.17-.89.21-1.82.54-2.59.56-1.54.07-2.45-.14-2.45-.21,0-.12.95-.09,2.39-.28.74-.08,1.49-.41,2.51-.69,1.06-.29,2.23,0,3.3.1,1.08.13,2.03-.25,2.98-.59.95-.36,1.88-.51,2.63-.57,1.52-.1,2.44,0,2.45.09Z"/>
  <path class="cls-2" d="M163.99,126.24c0,.06-.76.02-1.95-.11-.59-.04-1.34-.19-2.07-.2-.36,0-.72.15-1.15.29-.43.14-.89.23-1.36.27-1.9.15-3.54-.25-4.73-.41-1.19-.2-1.92-.36-1.91-.42,0-.06.76-.02,1.96.09,1.2.08,2.86.42,4.64.27.44-.04.87-.12,1.27-.24.39-.12.83-.29,1.27-.29.86.04,1.52.21,2.13.3,1.19.21,1.92.37,1.91.43Z"/>
  <path class="cls-2" d="M89.46,128.73c-.03.08-.94-.36-2.51-.43-.79-.04-1.7.07-2.71.38-1,.27-2.12.73-3.42.7-1.35-.02-2.33-.86-3.3-1.06-.98-.24-1.94-.16-2.74-.16-.8,0-1.47-.04-1.91-.15-.44-.11-.67-.23-.66-.26.02-.06.96.23,2.56.08.79-.03,1.76-.16,2.85.08,1.11.23,2.05,1.01,3.21,1.01,1.16.03,2.26-.39,3.29-.64,1.03-.29,2.03-.38,2.84-.29.81.07,1.45.26,1.87.43.42.17.63.3.62.33Z"/>
  <path class="cls-2" d="M131.4,141.69c0,.06-1.09,0-2.84-.13-1.75-.14-4.17-.37-6.83-.64-.66-.07-1.3-.11-1.9-.04-.61.06-1.2.2-1.77.32-1.14.27-2.23.35-3.12.24-.89-.1-1.59-.31-2.05-.5-.46-.19-.69-.34-.68-.36.03-.08,1.03.42,2.75.53.86.06,1.88-.04,3-.33.56-.13,1.16-.28,1.81-.35.65-.08,1.33-.04,2,.03,2.67.28,5.07.56,6.82.78,1.74.22,2.82.4,2.81.46Z"/>
  <path class="cls-2" d="M142.57,124.82c.13.01.17.55-.08,1.14-.24.59-.65.94-.75.86-.1-.08.1-.51.32-1.04.22-.52.38-.97.51-.96Z"/>
  <path class="cls-2" d="M144.71,123.54c.12.03-.06,1.03-.62,2.13-.56,1.11-1.25,1.84-1.35,1.76-.11-.08.4-.91.93-1.97.54-1.06.91-1.96,1.04-1.92Z"/>
  <path class="cls-2" d="M145.91,122.05c.12,0,.17,1.28-.28,2.78-.44,1.5-1.19,2.55-1.29,2.48-.12-.07.42-1.17.85-2.61.43-1.44.59-2.66.73-2.65Z"/>
  <path class="cls-2" d="M147.77,120.78c.12-.01.23,1.46-.38,3.14-.6,1.68-1.63,2.74-1.71,2.66-.11-.09.71-1.22,1.27-2.82.58-1.59.68-2.99.82-2.98Z"/>
  <path class="cls-2" d="M144.5,125.03c-.05-.13,1.07-.65,2.26-1.58,1.2-.91,2-1.86,2.11-1.77.1.06-.57,1.18-1.82,2.14-1.25.97-2.51,1.32-2.54,1.21Z"/>
  <path class="cls-2" d="M139.23,127.84c-.03-.14,2.38-.65,5.08-1.99,2.71-1.32,4.59-2.92,4.68-2.8.08.08-1.7,1.87-4.47,3.22-2.76,1.37-5.28,1.69-5.29,1.57Z"/>
  <path class="cls-2" d="M142.64,127.83c-.04-.12.93-.58,2.09-1.26.58-.33,1.13-.62,1.58-.76.44-.14.74-.11.75-.05,0,.07-.25.15-.62.36-.38.2-.88.53-1.47.86-1.17.7-2.28.98-2.32.85Z"/>
  <path class="cls-2" d="M147.15,122.3c-.1-.08.18-.57.74-.95.55-.39,1.11-.47,1.15-.36.05.12-.39.39-.89.74-.5.34-.91.65-1.01.56Z"/>
  <path class="cls-2" d="M146.95,113.25s-.18.05-.52.09c-.34.04-.84.1-1.49.17-1.29.14-3.17.32-5.49.48-4.64.33-11.09.59-18.2.11-7.11-.46-13.46-1.77-17.93-3.09-2.25-.6-4.06-1.09-5.32-1.42-.63-.18-1.11-.31-1.44-.41-.33-.1-.5-.16-.5-.17s.18.01.52.08c.34.07.83.18,1.47.32,1.27.29,3.11.71,5.36,1.28,4.47,1.24,10.79,2.49,17.87,2.94,7.07.48,13.5.27,18.14.03,2.32-.14,4.2-.25,5.5-.33.65-.04,1.15-.07,1.5-.09.34-.01.52-.01.52,0Z"/>
  <path class="cls-2" d="M144.9,117.13c-.13,0-.23-.83-.23-1.84,0-1.02.1-1.84.23-1.84.13,0,.23.83.23,1.84,0,1.02-.1,1.84-.23,1.84Z"/>
  <path class="cls-2" d="M146.19,116.74c-.13,0-.22-.78-.21-1.74s.13-1.74.25-1.74c.13,0,.22.78.21,1.74-.01.96-.13,1.74-.25,1.74Z"/>
  <path class="cls-2" d="M146,116.31c-.09-.1.88-1.11,1.89-2.49.13-.18.25-.33.3-.47.05-.14.01-.19-.05-.23-.19-.09-.56.06-.82.13-.55.16-.9.22-.92.16-.02-.06.29-.24.81-.47.26-.08.54-.36,1.1-.22.31.1.42.52.32.77-.08.26-.23.44-.36.61-1.05,1.42-2.19,2.31-2.27,2.22Z"/>
  <path class="cls-2" d="M148.96,115.96c-.09-.1.87-1.03,1.59-2.47,0,.02,0-.13-.05-.23-.02-.05-.04-.11-.07-.15-.02-.04,0-.02-.01-.03-.54-.09-1.09-.15-1.43-.09-.36.05-.58.12-.6.07-.02-.04.16-.2.54-.34.4-.15.94-.16,1.62-.07.12.01.23.15.28.23.04.07.08.15.11.22.05.16.14.31.03.61-.77,1.54-1.94,2.36-2.01,2.26Z"/>
  <path class="cls-2" d="M151.75,114.9c-.06,0-.05-.36.23-.79.26-.42.79-.92.81-1.53,0-.16-.06-.27-.05-.25,0-.02-.2.03-.35.07-.3.08-.56.18-.79.26-.44.17-.72.3-.76.24-.03-.05.18-.28.61-.54.22-.13.48-.26.8-.38.16-.03.29-.17.63-.09.36.16.35.49.36.68-.07.94-.74,1.37-1.01,1.72-.32.34-.43.61-.5.59Z"/>
  <path class="cls-2" d="M161.85,113.74c-.07,0-.33-.84-.35-2.31,0-.37.04-.77.13-1.2.04-.21.1-.43.17-.66.03-.11.08-.22.12-.33.04-.1.05-.16.06-.25.01-.17-.03-.28-.12-.33-.09-.07-.28-.09-.4-.04-.46.2-.93.41-1.42.63-3.97,1.73-7.26,2.99-7.34,2.82-.08-.18,3.07-1.72,7.04-3.45.51-.22,1-.43,1.48-.64.36-.12.72-.08,1.04.13.33.23.42.66.37.95-.02.15-.07.31-.12.42l-.12.3c-.07.2-.14.39-.19.59-.1.38-.16.75-.2,1.09-.1,1.37-.03,2.28-.14,2.28Z"/>
  <path class="cls-2" d="M156.38,110.96s.19,0,.28.22c.04.11.06.26-.01.43-.07.17-.28.32-.49.31-.18,0-.39-.09-.47-.26-.14-.35.08-.56.23-.62.18-.06.26.04.24.08-.01.05-.08.08-.09.15-.03.05-.03.18,0,.17.02,0,.04.02.08.02.1,0,.16-.07.19-.21.02-.12,0-.23.04-.28Z"/>
  <path class="cls-2" d="M99.71,122.46c.11-.08,1.07,1.03,2.39,2.27,1.31,1.24,2.49,2.13,2.41,2.24-.06.1-1.39-.63-2.73-1.9-1.35-1.27-2.17-2.54-2.07-2.61Z"/>
  <path class="cls-2" d="M103.09,125.3c.07-.11.65.13,1.24.61.59.49.93,1.01.84,1.1-.1.09-.57-.28-1.13-.74-.56-.46-1.01-.86-.94-.97Z"/>
  <path class="cls-2" d="M107.68,116.67s0,.04-.05.05c-.06.01-.13-.04-.17-.11-.04-.07-.06-.15-.05-.27.02-.09.04-.18.07-.29.1-.41.28-.96.49-1.56.44-1.2.89-2.13,1.01-2.08.12.05-.14,1.06-.57,2.25-.22.6-.44,1.12-.62,1.5-.23.4-.16.47-.11.5Z"/>
  <path class="cls-2" d="M108.09,117.2c-.13-.02-.03-1.14.23-2.5.25-1.36.56-2.44.69-2.41s.03,1.14-.23,2.5c-.25,1.36-.56,2.44-.69,2.41Z"/>
  <path class="cls-2" d="M109.34,117.13c-.13-.03-.03-1.03.22-2.25.25-1.22.55-2.18.68-2.16.13.03.03,1.03-.22,2.25-.25,1.22-.55,2.18-.68,2.16Z"/>
  <path class="cls-2" d="M109.86,117.21c-.13-.01-.13-1.11,0-2.45.13-1.34.33-2.42.46-2.41.13.01.13,1.11,0,2.45-.13,1.34-.33,2.42-.46,2.41Z"/>
  <path class="cls-2" d="M111.17,117.54c-.13,0-.14-1.05.12-2.29.25-1.24.63-2.2.76-2.16.12.04-.05,1.03-.3,2.26-.26,1.22-.46,2.2-.58,2.2Z"/>
  <path class="cls-2" d="M111.76,117.64c-.13,0-.22-1.05-.11-2.33.12-1.27.24-2.29.36-2.29.13,0,.22,1.05.11,2.33-.12,1.27-.24,2.29-.36,2.29Z"/>
  <path class="cls-2" d="M113.15,117.83c-.13,0-.1-1.04.06-2.3.16-1.26.4-2.27.52-2.24.13.03.1,1.06-.06,2.3-.16,1.25-.39,2.25-.52,2.24Z"/>
  <path class="cls-2" d="M113.88,117.96c-.13,0-.23-1.05-.25-2.34,0-1.29-.02-2.32.1-2.34.14-.02.36,1.03.37,2.33.02,1.3-.1,2.34-.22,2.34Z"/>
  <path class="cls-2" d="M114.92,118.17c-.12-.02-.05-1.05.08-2.31.14-1.26.29-2.28.41-2.28.13,0,.2,1.05.05,2.33-.13,1.27-.42,2.29-.55,2.26Z"/>
  <path class="cls-2" d="M115.66,118.22c-.13.02-.29-1.02-.36-2.31-.07-1.29-.02-2.33.11-2.33.13,0,.29,1.04.36,2.31.07,1.27.02,2.32-.11,2.33Z"/>
  <path class="cls-2" d="M116.96,118.25c-.13,0-.14-1.02-.03-2.25.05-1.22.19-2.22.32-2.23s.2,1,.15,2.26c-.1,1.24-.31,2.23-.43,2.22Z"/>
  <path class="cls-2" d="M117.51,118.45c-.14.02-.36-1.06-.41-2.39-.06-1.34.08-2.43.22-2.42.12,0,.19,1.08.25,2.4.05,1.33.06,2.39-.06,2.41Z"/>
  <path class="cls-2" d="M118.47,118.6s.03.01.03.05c0,.02,0,.04-.02.06,0,.01-.01.03-.05.04-.04.03-.12-.05-.11-.07h0s0-.02,0-.02c-.07-.33-.08-1.24-.02-2.3.08-1.35.25-2.42.38-2.4.13.02.17,1.11.09,2.44-.06,1.05-.18,1.95-.29,2.27h-.03s-.03.01-.04,0c0-.02-.03-.04-.01-.03,0,0,.02,0,.03,0,.02,0,.03-.02.04-.02Z"/>
  <path class="cls-2" d="M118.93,118.58c-.13,0-.29-1.02-.36-2.3-.07-1.28-.02-2.32.11-2.33.13,0,.29,1.02.36,2.3.07,1.28.02,2.32-.11,2.33Z"/>
  <path class="cls-2" d="M109.66,118.38s.08,0,.08.1c-.01.09-.07.18-.2.22-.2.09-.57.02-.76-.28-.2-.32-.07-.66.07-.8.15-.15.3-.14.32-.09.04.1-.16.41,0,.64.07.12.21.19.31.21.07.02.12.04.18,0Z"/>
  <path class="cls-2" d="M111.2,118.35c.05.03.04.18-.14.26-.16.08-.52.06-.67-.29-.11-.36.13-.6.3-.66.19-.07.3.03.29.09-.01.06-.08.11-.11.19-.04.07-.06.18-.04.22,0,.04.08.11.16.13.07.03.16.02.21.06Z"/>
  <path class="cls-2" d="M113.45,118.76s.04.16-.1.25c-.13.09-.41.13-.63-.07-.21-.2-.2-.47-.13-.61.07-.15.19-.18.23-.14.08.08.1.31.21.4.09.1.31.09.41.16Z"/>
  <path class="cls-2" d="M115.35,118.95s.02.16-.12.27c-.13.11-.44.21-.72,0-.3-.27-.21-.6-.08-.76.15-.17.32-.11.32-.05,0,.07-.04.14-.03.21,0,.08.04.21.08.23.13.13.47.02.55.1Z"/>
  <path class="cls-2" d="M117.96,83.87s.08.4.13,1.13c.04.73.1,1.78.17,3.08.13,2.6.27,6.19.39,10.16.13,3.97.22,7.56.26,10.17.01,1.3.02,2.35.02,3.08,0,.73-.02,1.13-.05,1.13s-.08-.4-.13-1.13c-.04-.73-.1-1.78-.17-3.08-.13-2.6-.27-6.19-.39-10.16-.13-3.97-.22-7.57-.26-10.17-.01-1.3-.02-2.35-.02-3.08,0-.73.02-1.13.05-1.13Z"/>
  <path class="cls-2" d="M119.8,83.89c.13,0,.33,6.46.45,14.44.12,7.98.11,14.45-.02,14.45s-.33-6.46-.45-14.44-.11-14.45.02-14.45Z"/>
  <path class="cls-2" d="M149.32,112.55s-.14.04-.42.08c-.28.03-.69.08-1.22.15-1.06.12-2.6.26-4.5.39-3.81.26-9.08.43-14.9.19-5.82-.25-11.07-.87-14.83-1.47-1.88-.3-3.4-.58-4.45-.8-.52-.11-.92-.2-1.2-.26-.27-.06-.42-.11-.41-.12,0-.02.15,0,.43.03.28.04.69.1,1.22.17,1.05.17,2.58.39,4.46.65,3.77.52,9,1.09,14.8,1.33,5.8.24,11.06.12,14.87-.05,1.9-.1,3.44-.18,4.5-.24.53-.03.94-.05,1.23-.06.28,0,.43,0,.43.01Z"/>
  <path class="cls-2" d="M142.38,89.59s.06.33.09.92c.02.59.05,1.45.09,2.51.06,2.12.14,5.05.23,8.28.11,3.23.21,6.16.28,8.28.03,1.06.05,1.92.07,2.51,0,.59,0,.92-.03.92-.03,0-.08-.32-.15-.91-.06-.59-.14-1.45-.22-2.5-.16-2.12-.32-5.04-.42-8.28-.1-3.24-.12-6.17-.1-8.29.01-1.06.03-1.92.06-2.51.03-.59.06-.92.09-.92Z"/>
  <path class="cls-2" d="M143.69,89.58s.07.32.12.91c.03.59.09,1.44.15,2.49.1,2.11.22,5.02.31,8.24.09,3.22.15,6.13.17,8.24,0,1.05,0,1.91,0,2.5-.01.59-.03.92-.06.92-.03,0-.07-.32-.12-.91-.03-.59-.09-1.44-.15-2.49-.1-2.11-.22-5.02-.31-8.23-.09-3.22-.15-6.13-.17-8.24,0-1.05,0-1.91,0-2.5.01-.59.03-.92.06-.92Z"/>
  <path class="cls-2" d="M105.27,81.82s.08.34.15.97c.07.63.14,1.53.22,2.66.15,2.25.3,5.35.35,8.79.05,3.44,0,6.55-.09,8.8-.04,1.12-.09,2.03-.14,2.66-.05.63-.09.97-.12.97-.03,0-.05-.35-.06-.98,0-.63,0-1.54-.01-2.66,0-2.25,0-5.35-.05-8.78-.05-3.43-.15-6.53-.22-8.78-.03-1.12-.05-2.03-.07-2.66,0-.63,0-.98.03-.98Z"/>
  <path class="cls-2" d="M105.67,81.73s.09.36.16,1.01c.07.66.15,1.61.24,2.78.17,2.35.35,5.6.46,9.19.1,3.59.11,6.85.07,9.2-.02,1.18-.05,2.13-.08,2.79-.03.66-.07,1.02-.1,1.02s-.06-.36-.08-1.02c-.02-.66-.04-1.61-.07-2.79-.05-2.35-.12-5.6-.2-9.19-.12-3.59-.24-6.84-.32-9.19-.04-1.18-.07-2.13-.09-2.79-.01-.66,0-1.02.03-1.03Z"/>
  <path class="cls-2" d="M107.41,85.74c-.03.13-.84.06-1.83-.02-.99-.09-1.8-.17-1.8-.31,0-.13.82-.25,1.85-.16,1.02.09,1.81.36,1.79.49Z"/>
  <path class="cls-1" d="M140.12,81.73"/>
  <path class="cls-2" d="M114.63,98.4c-.08.1-5.17-4.19-11.35-9.57-6.18-5.38-11.13-9.83-11.04-9.92.08-.1,5.17,4.19,11.35,9.57s11.13,9.83,11.04,9.92Z"/>
  <path class="cls-2" d="M138.71,91.93c-.03.12-7.01-1.58-15.58-3.8-8.57-2.23-15.5-4.13-15.46-4.26.03-.12,7.01,1.58,15.58,3.8,8.57,2.23,15.5,4.13,15.46,4.26Z"/>
  <path class="cls-2" d="M157.27,96.35c-.02.13-5.75-.77-12.79-2.01-7.04-1.24-12.73-2.34-12.71-2.47.02-.13,5.75.77,12.79,2.01,7.04,1.24,12.73,2.34,12.71,2.47Z"/>
  <path class="cls-2" d="M114.63,98.4s-.37-.2-.98-.64c-.61-.44-1.48-1.08-2.55-1.89-2.13-1.62-5.04-3.91-8.1-6.64-.75-.72-1.51-1.27-2.29-1.9-.74-.65-1.38-1.3-2.03-1.91-1.27-1.23-2.42-2.33-3.38-3.26-.95-.94-1.72-1.7-2.25-2.23-.53-.53-.81-.84-.78-.86.02-.02.34.24.91.73.56.5,1.36,1.23,2.35,2.12.98.91,2.15,1.99,3.45,3.19.65.59,1.32,1.26,2.03,1.87.73.58,1.58,1.2,2.31,1.9,3.04,2.71,5.91,5.04,7.99,6.72,1.03.85,1.87,1.53,2.45,2.01.57.48.88.76.86.78Z"/>
  <path class="cls-2" d="M138.71,91.93s-.45-.02-1.26-.15c-.81-.13-1.97-.34-3.4-.61-2.86-.55-6.81-1.36-11.11-2.54-1.08-.33-2.09-.51-3.15-.74-1.04-.27-1.98-.6-2.91-.88-1.84-.58-3.49-1.1-4.88-1.54-1.38-.45-2.5-.82-3.28-1.08-.77-.26-1.19-.42-1.19-.46,0-.03.45.07,1.24.28.79.22,1.92.54,3.32.93,1.4.41,3.06.9,4.91,1.44.92.26,1.9.59,2.89.84.99.21,2.12.4,3.17.73,4.28,1.17,8.21,2.03,11.06,2.66,1.42.32,2.57.58,3.37.75.79.18,1.23.3,1.22.33Z"/>
  <path class="cls-2" d="M157.27,96.35s-.37.02-1.02-.02c-.65-.04-1.59-.12-2.75-.24-2.32-.23-5.53-.58-9.05-1.22-3.51-.62-6.65-1.37-8.93-1.88-1.13-.27-2.05-.49-2.69-.64-.63-.16-.98-.27-.97-.3,0-.03.37.01,1.01.12.64.12,1.57.29,2.72.5,2.29.43,5.45,1.12,8.94,1.74,3.49.63,6.69,1.04,9,1.35,1.15.16,2.09.29,2.74.38.65.1,1,.17,1,.2Z"/>
  <path class="cls-2" d="M98,84.71c-.03.06-.4-.04-1.02-.17-.59-.15-1.56-.31-2.31-1.07-.74-.73-1.06-1.62-1.22-2.24-.13-.64-.23-.97-.19-1.01.06-.05.31.32.51.91.24.57.59,1.37,1.24,2.01.63.65,1.49.85,2.08,1.09.6.22.95.43.92.49Z"/>
  <path class="cls-2" d="M97.08,83.85c-.03.12-1.14-.16-2.14-1.09-1.01-.92-1.38-2-1.27-2.04.12-.06.65.85,1.58,1.69.92.86,1.87,1.31,1.82,1.43Z"/>
  <path class="cls-2" d="M97.95,84.76c-.08.1-1.08-.63-2.15-1.71-1.07-1.08-1.79-2.08-1.69-2.16.1-.09.97.77,2.03,1.83,1.05,1.07,1.9,1.94,1.81,2.04Z"/>
  <path class="cls-2" d="M103.61,89.72c0,.05-.46.04-1.13-.23-.67-.27-1.5-.83-2.27-1.59-1.54-1.51-2.35-3.11-2.21-3.17.1-.05,1.04,1.37,2.54,2.84.74.74,1.49,1.3,2.08,1.63.59.34,1,.46.98.53Z"/>
  <path class="cls-2" d="M103.19,89.36c-.08.1-1.04-.58-2.13-1.51-1.09-.93-1.91-1.77-1.82-1.87.08-.1,1.04.58,2.13,1.51,1.09.93,1.91,1.77,1.82,1.87Z"/>
  <path class="cls-2" d="M106.64,91.58c-.02.12-1.11-.02-2.21-.76-1.11-.73-1.66-1.68-1.55-1.75.11-.08.79.68,1.81,1.36,1.02.69,1.99,1.02,1.95,1.15Z"/>
  <path class="cls-2" d="M109.68,94.41c-.01.06-.27.08-.69.03-.41-.05-1.03-.18-1.58-.63-.27-.22-.48-.5-.6-.78-.12-.28-.15-.54-.19-.74-.06-.4-.13-.63-.08-.67.05-.04.25.18.4.58.15.41.3.89.76,1.25.44.36.97.53,1.36.67.39.13.63.23.62.29Z"/>
  <path class="cls-2" d="M109.51,94.41c0,.06-.24.16-.67.15-.43-.01-1.03-.17-1.56-.6-.52-.42-.81-.98-.92-1.39-.11-.41-.07-.68-.02-.69.13-.03.33.99,1.23,1.71.9.74,1.94.68,1.94.81Z"/>
  <path class="cls-2" d="M113.52,97.4c-.05.06-.33-.13-.85-.3-.51-.19-1.27-.3-2.11-.64-.42-.17-.8-.42-1.07-.73-.27-.31-.43-.65-.51-.94-.15-.59-.02-.96.03-.95.07,0,.07.36.28.85.19.5.68,1.05,1.45,1.34.76.31,1.54.49,2.06.77.53.26.76.56.73.6Z"/>
  <path class="cls-2" d="M111.81,96.62c-.09.09-.74-.41-1.45-1.12-.71-.71-1.21-1.36-1.12-1.45.09-.09.74.41,1.45,1.12.71.71,1.22,1.36,1.12,1.45Z"/>
  <path class="cls-2" d="M110.98,95.99c-.08.1-.41-.04-.73-.31s-.51-.57-.43-.67.41.04.73.31.51.57.43.67Z"/>
  <path class="cls-1" d="M109.09,94.72"/>
  <path class="cls-2" d="M110.43,95.94c-.1.09-.55-.28-1.02-.81-.47-.53-.77-1.03-.67-1.12.1-.09.55.28,1.02.81.47.53.77,1.03.67,1.12Z"/>
  <path class="cls-2" d="M96.18,84.09c-.03.12-.63.04-1.19-.42-.56-.45-.77-1.01-.67-1.07.11-.07.47.32.96.71.48.4.94.65.9.78Z"/>
  <path class="cls-2" d="M97.22,84.36c-.02.12-.72.07-1.41-.38-.7-.45-1.04-1.05-.94-1.12.1-.08.56.33,1.19.73.62.41,1.19.65,1.16.78Z"/>
  <path class="cls-2" d="M94.21,82.1c-.11.06-.33-.17-.49-.53-.16-.35-.18-.67-.06-.72.12-.04.34.19.49.53.15.33.17.65.06.72Z"/>
  <path class="cls-2" d="M93.37,80.04c.12-.05.31.11.42.37.12.26.12.51,0,.56-.12.05-.31-.11-.42-.37-.12-.26-.12-.51,0-.56Z"/>
  <path class="cls-2" d="M106.09,103.33c.13,0,.2.75.15,1.66-.04.91-.19,1.64-.31,1.64-.13,0-.2-.75-.15-1.66.04-.91.19-1.64.31-1.64Z"/>
  <path class="cls-2" d="M106,98.61c.13,0,.21,1.85.17,4.14-.03,2.28-.17,4.13-.3,4.13-.13,0-.21-1.85-.17-4.14.03-2.28.17-4.13.3-4.13Z"/>
  <path class="cls-2" d="M106.07,104.69c.13,0,.27.62.32,1.38.05.77-.02,1.4-.15,1.41-.13.01-.27-.61-.32-1.38-.05-.78.02-1.41.15-1.41Z"/>
  <path class="cls-2" d="M118.77,112.31c.13,0,.24.29.24.65,0,.36-.1.65-.23.66-.13,0-.24-.29-.24-.65,0-.36.1-.65.23-.66Z"/>
  <path class="cls-2" d="M120.28,112.42c.13.01.21.27.23.58.01.31-.05.58-.17.6-.13.02-.28-.23-.29-.58-.02-.34.11-.61.24-.6Z"/>
  <path class="cls-2" d="M119.87,113.6c-.02.13-.21.17-.41.1-.2-.07-.32-.22-.26-.34.06-.11.25-.16.41-.1.17.06.28.21.26.34Z"/>
  <path class="cls-2" d="M119.92,112.98c0,.13-.2.24-.45.24-.25,0-.45-.1-.46-.23,0-.13.2-.24.45-.24.25,0,.45.1.46.23Z"/>
  <path class="cls-2" d="M119.72,112.61c.13-.02.26.13.29.33.04.21-.04.39-.17.41-.13.02-.26-.13-.29-.33-.04-.21.04-.39.17-.41Z"/>
  <path class="cls-2" d="M119.08,112.74c.13.02.21.17.22.33.01.16-.05.32-.18.36-.12.04-.28-.1-.29-.32-.02-.22.12-.38.24-.36Z"/>
  <path class="cls-2" d="M119.7,104.22c.13,0,.11,1.76-.04,3.9-.15,2.15-.38,3.88-.51,3.87s-.11-1.76.04-3.9c.15-2.15.38-3.88.51-3.87Z"/>
  <path class="cls-2" d="M119.53,90.43c.13,0,.31,4.99.4,11.15.09,6.16.06,11.15-.07,11.16-.13,0-.31-4.99-.4-11.15-.09-6.16-.06-11.15.07-11.16Z"/>
  <path class="cls-2" d="M118.87,86.72s.1.35.19,1c.09.65.18,1.59.26,2.76.17,2.34.24,5.57.29,9.14.05,3.57.07,6.8.07,9.14-.01,1.17-.03,2.11-.03,2.77-.02.65-.04,1.02-.08,1.02-.03,0-.07-.36-.11-1.01-.03-.66-.07-1.6-.12-2.77-.08-2.34-.15-5.57-.2-9.14-.05-3.57-.07-6.8-.15-9.13-.05-1.17-.09-2.11-.12-2.76-.03-.65-.04-1.02,0-1.02Z"/>
  <path class="cls-2" d="M118.61,86.09s.1.36.19,1.02c.1.66.19,1.61.28,2.8.18,2.37.22,5.65.16,9.27-.06,3.62-.13,6.88-.1,9.25.02,1.18.03,2.14.04,2.8.01.66,0,1.03-.03,1.03-.03,0-.09-.36-.15-1.02-.07-.66-.14-1.62-.19-2.8-.11-2.37-.1-5.65-.04-9.27.06-3.61.07-6.88-.02-9.24-.04-1.18-.09-2.14-.13-2.8-.04-.66-.04-1.03,0-1.03Z"/>
  <path class="cls-2" d="M118.95,98.14c-.12.01-.48-2.39-.6-5.39-.12-3,.04-5.42.17-5.42.13,0,.18,2.42.3,5.4.12,2.98.27,5.39.14,5.41Z"/>
  <path class="cls-2" d="M119.89,91.91c-.13,0-.28-1.79-.34-4s0-4.01.13-4.01c.13,0,.28,1.79.34,4,.06,2.21,0,4.01-.13,4.01Z"/>
  <path class="cls-2" d="M119.77,92.22c-.12.02-.56-1.84-.73-4.19-.17-2.35,0-4.26.12-4.25.13,0,.17,1.9.34,4.22.16,2.32.39,4.2.26,4.22Z"/>
  <path class="cls-2" d="M119.21,89.87c-.13.02-.39-1.35-.59-3.05-.2-1.7-.26-3.09-.13-3.1.13-.01.39,1.35.59,3.05.2,1.7.26,3.08.13,3.1Z"/>
  <path class="cls-2" d="M118.56,89.69c-.12.02-.41-1.26-.5-2.87-.09-1.61.06-2.91.19-2.91.13,0,.19,1.3.28,2.88.08,1.59.16,2.88.03,2.9Z"/>
  <path class="cls-2" d="M119.04,85.77c-.13,0-.26-.39-.3-.88s.04-.91.16-.92c.13,0,.26.39.3.88s-.04.91-.16.92Z"/>
  <path class="cls-2" d="M119.41,87.44c-.13,0-.23-.74-.22-1.65,0-.91.12-1.65.25-1.65.13,0,.23.74.22,1.65,0,.91-.12,1.65-.25,1.65Z"/>
  <path class="cls-2" d="M120.03,111.93c-.02.13-.23.21-.48.17-.25-.03-.44-.16-.42-.29s.23-.21.48-.17c.25.03.44.16.42.29Z"/>
  <path class="cls-2" d="M120.15,112.04c.02.13-.24.26-.58.26-.34,0-.59-.15-.57-.28.02-.13.28-.19.58-.19.3,0,.56.08.57.21Z"/>
  <path class="cls-2" d="M120.02,111.3c-.03.13-.22.18-.44.17-.21-.01-.39-.1-.41-.23-.02-.13.18-.26.44-.24.26.02.44.17.41.29Z"/>
  <path class="cls-2" d="M120.14,111.49c-.04.12-.09.22-.11.22-.02,0-.1-.07-.19-.17-.09-.1-.05-.26.1-.29.15-.03.25.11.2.23Z"/>
  <path class="cls-2" d="M119.78,84.01c0,.13-.41.22-.89.2-.48-.02-.85-.08-.87-.21-.03-.13.39-.28.89-.26.49.02.87.15.87.27Z"/>
  <path class="cls-2" d="M118.26,84.12c-.08.1-.22.12-.3.05-.08-.07-.08-.21,0-.3.08-.1.22-.12.3-.05.08.07.08.21,0,.3Z"/>
  <path class="cls-2" d="M143.44,100.58c.13,0,.19,2.72.13,6.07-.05,3.35-.2,6.06-.33,6.06s-.19-2.72-.13-6.07.2-6.06.33-6.06Z"/>
  <path class="cls-2" d="M143.4,97.78c.13,0,.29,3.28.36,7.33.07,4.05.02,7.33-.11,7.33-.13,0-.29-3.28-.36-7.33-.07-4.05-.02-7.33.11-7.33Z"/>
  <path class="cls-2" d="M143.91,104.05c.13,0,.27,1.93.32,4.31.05,2.38-.01,4.32-.14,4.32-.13,0-.27-1.93-.32-4.31-.05-2.38.01-4.32.14-4.32Z"/>
  <path class="cls-2" d="M143.08,90.33c.06,0,.12.84.17,2.19.04,1.36.07,3.23.07,5.3,0,2.07-.03,3.94-.07,5.3-.04,1.36-.1,2.19-.17,2.19-.06,0-.12-.84-.17-2.2-.04-1.36-.07-3.23-.07-5.29,0-2.07.03-3.94.07-5.29.04-1.36.1-2.19.17-2.2Z"/>
  <path class="cls-2" d="M143.67,90.32c.13,0,.21,2.2.17,4.92-.01,2.71-.23,4.92-.34,4.91-.14-.01-.14-2.2-.12-4.92.03-2.71.16-4.91.29-4.91Z"/>
  <path class="cls-2" d="M142.76,96.92c-.13,0-.29-1.56-.37-3.51-.03-.97-.06-1.85-.02-2.5.04-.66.22-1.04.28-1.02.06.02,0,.4.05,1.02.05.63.12,1.51.15,2.48.08,1.94.03,3.52-.1,3.52Z"/>
  <path class="cls-2" d="M142.83,93.87c-.13,0-.21-.88-.19-1.96.02-1.09.15-1.96.28-1.95.13,0,.21.89.19,1.96-.02,1.08-.15,1.95-.28,1.95Z"/>
  <path class="cls-2" d="M143.39,95.23c-.13,0-.32-1.19-.32-2.67,0-1.49.2-2.68.32-2.67.13,0,.15,1.2.15,2.67,0,1.47-.02,2.66-.15,2.67Z"/>
  <path class="cls-2" d="M143.51,89.75c.04.12-.2.3-.52.39-.08.02-.16.04-.23.05-.09.02-.19,0-.27-.02-.2-.08-.16-.24-.1-.27.13-.02.1-.08.48-.21.32-.09.61-.07.65.06Z"/>
  <path class="cls-2" d="M143.62,91.63c-.13.01-.28-.39-.33-.91-.05-.51,0-.94.13-.96s.28.39.33.91c.05.51,0,.94-.13.96Z"/>
  <path class="cls-2" d="M143.58,90.51c-.13,0-.24-.18-.24-.4,0-.22.1-.41.23-.41.13,0,.24.18.24.4,0,.22-.1.41-.23.41Z"/>
  <path class="cls-2" d="M142.71,90.71c-.13.02-.28-.21-.33-.52-.06-.31,0-.58.13-.6.13-.02.28.21.33.52.06.31,0,.58-.13.6Z"/>
  <path class="cls-2" d="M143.16,90.82c-.13.02-.24-.04-.26-.15s.07-.2.2-.23.24.04.26.15-.07.2-.2.23Z"/>
  <path class="cls-2" d="M143.5,110.08c.13,0,.24.55.25,1.24,0,.69-.09,1.24-.22,1.25s-.24-.55-.25-1.24c0-.69.09-1.24.22-1.25Z"/>
  <path class="cls-2" d="M143.82,111.7c.12-.05.31.12.34.41.03.29-.12.5-.24.47-.13-.03-.2-.21-.22-.42-.02-.21,0-.4.13-.46Z"/>
  <path class="cls-2" d="M144.67,112.61c.03.12-.2.29-.52.31-.32.03-.57-.1-.56-.23.01-.13.25-.22.53-.24.28-.02.53.03.56.15Z"/>
  <path class="cls-2" d="M142.92,112.44c.02-.13.12-.22.22-.2.1.02.16.13.14.26s-.12.22-.22.2c-.1-.02-.16-.13-.14-.26Z"/>
  <path class="cls-2" d="M142.97,112.52c.11-.07.24-.07.33-.06.09.02.2.07.28.17.09.1-.07.34-.37.29-.29-.06-.36-.34-.24-.4Z"/>
  <path class="cls-2" d="M112.87,85.43s-.17.34-.68.64c-.48.29-1.37.57-2.27.21-.43-.17-.81-.49-1.01-.83-.19-.32-.34-.64-.49-.84-.3-.43-.59-.63-.56-.69.02-.05.39.05.81.48.41.43.66,1.2,1.41,1.44.72.3,1.46.13,1.94-.07.49-.2.78-.4.82-.35Z"/>
  <path class="cls-2" d="M112.18,85.66c.03.05-.13.22-.48.35-.34.13-.88.19-1.42,0-.55-.18-.94-.54-1.15-.84-.21-.3-.25-.53-.19-.56.11-.07.57.66,1.49.96.91.3,1.71-.03,1.76.09Z"/>
  <path class="cls-2" d="M112.25,85.49c-.02.13-.76.14-1.64-.07-.88-.21-1.54-.55-1.5-.67.04-.12.75.02,1.61.22.85.2,1.55.4,1.53.53Z"/>
  <path class="cls-2" d="M117.32,87.31c.02.06-.27.22-.79.4-.51.16-1.34.35-2.19-.05-.83-.46-1.15-1.17-1.52-1.51-.34-.38-.65-.46-.64-.53,0-.06.4-.08.86.29.46.33.88,1.01,1.51,1.34.66.32,1.39.23,1.9.15.52-.09.85-.14.87-.08Z"/>
  <path class="cls-2" d="M117.87,86.99c.02.09-1.09.49-2.57.32-.74-.09-1.36-.44-1.72-.73-.37-.29-.56-.51-.52-.56.04-.05.3.07.7.29.4.22.94.46,1.61.55,1.33.15,2.49-.02,2.51.14Z"/>
  <path class="cls-2" d="M116.85,87.17c-.04.12-.85-.03-1.82-.34-.97-.31-1.72-.66-1.68-.78.04-.12.85.03,1.82.34s1.72.66,1.68.78Z"/>
  <path class="cls-2" d="M128.08,89.49s-.19.56-.79,1.28c-.31.35-.67.76-1.22,1.12-.27.17-.61.33-1,.34-.39.02-.78-.14-1.09-.38-.62-.48-.9-1.14-1.22-1.63-.31-.5-.65-.9-.97-1.22-.63-.63-1.12-.92-1.09-.98.02-.05.58.14,1.31.74.36.3.75.71,1.11,1.23.35.51.64,1.11,1.14,1.49.5.41,1.1.35,1.58.04.48-.29.88-.67,1.2-.98.64-.63.97-1.09,1.03-1.05Z"/>
  <path class="cls-2" d="M127.06,89.7s-.03.47-.55.96c-.25.24-.62.48-1.09.6-.23.06-.48.09-.76.06-.28-.02-.58-.18-.78-.39-.4-.43-.55-.9-.77-1.25-.22-.36-.46-.65-.67-.89-.44-.47-.78-.69-.75-.76.03-.05.44.08.97.51.26.22.55.52.81.89.27.38.44.84.74,1.15.28.31.71.31,1.11.24.39-.08.72-.25.97-.43.5-.37.69-.74.76-.71Z"/>
  <path class="cls-2" d="M127.26,89.52c.05.02-.01.39-.44.78-.4.39-1.26.71-2.12.4-.85-.28-1.35-1.01-1.55-1.48-.21-.47-.4-.71-.36-.76.04-.06.35.14.65.59.28.44.72.97,1.42,1.21.69.25,1.36.05,1.76-.22.41-.27.58-.55.64-.52Z"/>
  <path class="cls-2" d="M123.76,90.51c-.12.06-.49-.51-1.08-1.07-.58-.57-1.16-.91-1.11-1.03.04-.12.78.06,1.43.7.66.63.87,1.36.75,1.4Z"/>
  <path class="cls-2" d="M127.76,89.03c.09.08-.4.96-1.2,1.99-.22.26-.53.47-.83.56-.3.09-.57.09-.78.08-.43-.04-.68-.13-.68-.19,0-.07.27-.1.67-.14.4-.05.91-.15,1.27-.61.75-.97,1.45-1.77,1.55-1.69Z"/>
  <path class="cls-2" d="M126.79,90.02c-.05.12-.83-.06-1.75-.41-.92-.35-1.63-.73-1.59-.85.05-.12.83.06,1.75.41.92.35,1.63.73,1.59.85Z"/>
  <path class="cls-2" d="M126.38,90.01c.02.06-.16.18-.47.16-.31-.03-.66-.17-1.04-.32-.76-.32-1.33-.67-1.28-.79s.71.04,1.47.36c.38.16.71.34.93.43.22.1.38.1.4.17Z"/>
  <path class="cls-2" d="M126.47,90.13c.02.06-.17.2-.52.32-.35.12-.89.22-1.48.03-.59-.19-.98-.66-1.1-1.03-.13-.38-.04-.63.02-.63.07,0,.11.22.28.48.16.27.5.58.95.73.93.27,1.82-.06,1.85.1Z"/>
  <path class="cls-2" d="M126.59,89.71s0,.23-.27.36c-.27.14-.67.13-1.04.03-.72-.2-1.26-.46-1.22-.59.03-.13.64-.06,1.34.14.34.09.62.13.82.11.2-.02.32-.09.38-.05Z"/>
  <path class="cls-2" d="M127.39,89.48c.01.13-.18.25-.43.28-.25.02-.46-.06-.48-.19-.01-.13.18-.25.43-.28.25-.02.46.06.48.19Z"/>
  <path class="cls-2" d="M127.52,89.71c.12.05.13.28.03.52-.1.24-.28.39-.4.34-.12-.05-.13-.28-.03-.52.1-.24.28-.39.4-.34Z"/>
  <path class="cls-2" d="M131.89,90.99s-.07.34-.48.64c-.4.29-1.16.53-1.94.26-.79-.31-1.14-.9-1.47-1.22-.31-.36-.48-.6-.43-.65.04-.05.3.11.66.41.38.27.82.81,1.4,1.02.6.21,1.22.08,1.61-.1.39-.19.6-.4.65-.36Z"/>
  <path class="cls-2" d="M131.96,90.73s-.07.33-.51.54c-.43.22-1.12.26-1.79,0-.65-.27-1.12-.65-1.46-.91-.34-.26-.54-.43-.51-.49.03-.06.3.01.69.21.39.19.89.52,1.46.75.56.22,1.13.24,1.5.13.38-.1.57-.28.63-.23Z"/>
  <path class="cls-2" d="M131.62,90.63c.04.12-.65.38-1.49.17-.84-.2-1.33-.75-1.25-.84.08-.11.63.21,1.36.38.73.18,1.35.15,1.38.28Z"/>
  <path class="cls-2" d="M134.8,91.15c.05,0,.08.26-.17.54-.24.27-.76.5-1.32.33-.54-.18-.85-.59-.99-.88-.15-.3-.16-.51-.11-.53.13-.08.48.69,1.24.97.36.12.75,0,.96-.13.23-.14.32-.31.38-.29Z"/>
  <path class="cls-2" d="M134.17,91.31c0,.13-.34.25-.76.15-.42-.09-.69-.34-.63-.46.06-.12.37-.08.73,0,.36.08.66.17.66.3Z"/>
  <path class="cls-2" d="M133.99,91.55c-.07-.11-.05-.25.05-.32.1-.07.24-.04.31.07.07.11.05.25-.05.32-.1.07-.24.04-.31-.07Z"/>
  <path class="cls-2" d="M130.19,90.91c-.04.12-.43.07-.85-.12-.43-.19-.73-.43-.67-.54.06-.11.44-.06.85.12.41.18.71.42.67.54Z"/>
  <path class="cls-2" d="M138.85,94.04s-.26.39-.95.6c-.66.22-1.8.16-2.65-.56-.42-.33-.76-.67-1.1-.91-.35-.24-.7-.42-1-.54-.6-.24-1.02-.3-1.01-.37,0-.06.44-.12,1.12.06.34.09.73.25,1.13.49.4.24.77.6,1.16.9.75.63,1.67.72,2.29.61.63-.1.99-.34,1.03-.28Z"/>
  <path class="cls-2" d="M139.09,93.39c.04.11-1.05.52-2.42.28-1.37-.23-2.27-.96-2.19-1.05.07-.12,1.01.39,2.27.59,1.26.22,2.31.04,2.34.18Z"/>
  <path class="cls-2" d="M138.8,93.82c.08.1-.73.63-1.82.41-1.09-.21-1.63-1.01-1.52-1.07.1-.09.7.44,1.61.61.91.2,1.67-.07,1.72.05Z"/>
  <path class="cls-2" d="M136.62,94.25c-.03.12-.47.11-.95-.12-.48-.23-.77-.56-.69-.66.08-.11.46.04.89.24.43.21.78.41.75.54Z"/>
  <path class="cls-2" d="M142.96,95c.02.05-.2.23-.65.4-.23.08-.53.15-.87.09-.35-.05-.67-.23-.97-.42-1.18-.73-2.09-1.41-2.02-1.52.07-.11,1.08.39,2.27,1.12.29.18.56.33.81.39.25.06.5.04.71,0,.43-.07.71-.15.74-.08Z"/>
  <path class="cls-2" d="M142.46,94.48s-.07.27-.44.39c-.36.13-.9.04-1.36-.17-.92-.39-1.62-.8-1.57-.92.05-.12.84.1,1.75.49.45.2.82.3,1.11.28.29-.01.46-.12.5-.07Z"/>
  <path class="cls-2" d="M142.24,95.2c-.01.13-.4.19-.81,0-.41-.19-.61-.53-.52-.62.09-.1.38.04.72.19.34.16.63.3.61.43Z"/>
  <path class="cls-2" d="M145.47,94.56c.06.02.06.2-.11.41-.17.21-.51.39-.92.39-.8-.04-1.23-.47-1.19-.56.05-.14.6.08,1.19.1.6.02.92-.37,1.03-.33Z"/>
  <path class="cls-2" d="M150.15,96.26s-.09.38-.58.72c-.46.34-1.39.57-2.23.15-.42-.19-.75-.52-.96-.83-.22-.31-.38-.58-.53-.8-.28-.44-.55-.63-.52-.7.02-.06.39.06.78.49.4.41.74,1.1,1.43,1.41.69.34,1.42.21,1.87-.01.46-.22.69-.48.74-.43Z"/>
  <path class="cls-2" d="M150.58,95.73s-.07.35-.45.79c-.19.23-.52.36-.85.53-.17.08-.38.13-.6.18-.24.02-.47-.03-.68-.11-.43-.15-.78-.4-1.05-.68-.27-.29-.42-.57-.58-.77-.29-.43-.58-.53-.57-.6,0-.07.43-.05.82.39.39.42.79.99,1.53,1.22.18.06.35.1.49.09.16-.05.32-.07.47-.13.3-.13.61-.21.79-.38.39-.32.62-.59.67-.54Z"/>
  <path class="cls-2" d="M150.36,95.61s-.11.26-.45.5c-.35.22-.87.51-1.58.47-.75-.09-1.13-.63-1.39-.88-.26-.29-.43-.46-.4-.52.03-.06.29.03.62.27.33.22.72.62,1.22.67.51.04,1.03-.16,1.38-.29.35-.14.57-.26.61-.21Z"/>
  <path class="cls-2" d="M149.92,95.86c0,.13-.66.2-1.43,0-.77-.21-1.3-.61-1.24-.72.06-.12.65.07,1.36.27.72.2,1.32.33,1.31.46Z"/>
  <path class="cls-2" d="M149.2,96.48c-.07.11-.46,0-.88-.26-.42-.25-.7-.55-.64-.66.07-.11.46,0,.88.26.42.25.7.55.64.66Z"/>
  <path class="cls-2" d="M155.14,95.95c.02.06-.24.2-.7.37-.45.15-1.12.34-1.89.27-.38-.04-.75-.14-1.05-.3-.3-.16-.52-.35-.7-.47-.36-.27-.63-.27-.65-.34-.03-.06.34-.19.81.05.46.23.94.56,1.63.6.67.07,1.3-.05,1.76-.13.46-.08.76-.11.78-.05Z"/>
  <path class="cls-2" d="M136.36,93.96c-.1.08-.38-.09-.69-.32-.31-.23-.56-.45-.51-.57.05-.12.43-.07.78.19.36.27.51.61.41.69Z"/>
  <path class="cls-2" d="M168.63,102.14c.03.06-.89.63-2.39,1.5-1.51.87-3.6,2.05-5.93,3.32-2.34,1.26-4.45,2.4-5.98,3.22-1.52.83-2.31,1.56-2.36,1.51-.05-.04.68-.88,2.19-1.8,1.49-.91,3.6-2.06,5.93-3.35,2.33-1.28,4.45-2.41,6-3.21,1.55-.8,2.52-1.26,2.55-1.21Z"/>
  <path class="cls-2" d="M169.07,102.47c.03.06-.86.62-2.33,1.47s-3.52,2.02-5.79,3.27c-2.28,1.25-4.33,2.38-5.77,3.28-1.45.89-2.3,1.49-2.35,1.44-.04-.05.76-.75,2.17-1.72,1.41-.97,3.45-2.16,5.72-3.41,2.27-1.25,4.35-2.37,5.86-3.15s2.46-1.24,2.49-1.19Z"/>
  <path class="cls-2" d="M168.7,102.67c-.1.07-.29-.01-.33-.21-.04-.2.1-.35.22-.32.13.03.22.13.24.23.02.1-.02.23-.13.31Z"/>
  <path class="cls-2" d="M165.84,103.88c-.07-.11.46-.54,1.18-.98.35-.23.73-.37,1-.44.27-.07.45-.09.47-.03.02.06-.12.19-.34.33-.23.14-.55.31-.9.54-.71.42-1.34.68-1.41.57Z"/>
  <path class="cls-2" d="M155.81,109.59c.07.11-.78.79-1.89,1.52-1.11.73-2.07,1.24-2.15,1.13-.08-.1.77-.79,1.89-1.52,1.12-.74,2.08-1.24,2.15-1.13Z"/>
  <path class="cls-2" d="M154.36,110.21c.07.11-.48.62-1.23,1.14-.75.52-1.42.86-1.5.76-.08-.1.47-.61,1.23-1.14.76-.53,1.43-.87,1.5-.76Z"/>
  <path class="cls-2" d="M155.56,109.5c-.07-.11.23-.37.66-.57.43-.2.82-.27.86-.15s-.26.38-.66.57c-.41.19-.79.26-.86.15Z"/>
  <path class="cls-2" d="M169.88,107.55c-.01.13-4.15-.18-9.25-.69-5.09-.51-9.21-1.03-9.2-1.15s4.15.18,9.25.69c5.09.51,9.21,1.03,9.2,1.15Z"/>
  <path class="cls-2" d="M156.13,106s-.08.3-.46.58c-.37.28-1.01.53-1.73.46-.72-.06-1.3-.4-1.64-.69-.35-.3-.48-.55-.44-.59.09-.11.89.7,2.13.82,1.26.12,2.08-.68,2.15-.58Z"/>
  <path class="cls-2" d="M155.45,106.03c.05.11-.6.47-1.49.45-.89-.02-1.52-.41-1.46-.52.05-.12.69.04,1.47.05.79.02,1.43-.11,1.48.02Z"/>
  <path class="cls-2" d="M159.31,106.67s-.14.23-.5.34c-.36.12-.89.13-1.42.02-.53-.11-1-.23-1.34-.44-.33-.21-.42-.47-.36-.49.06-.04.21.1.51.2.29.1.77.17,1.28.28.51.1.95.14,1.27.11.32-.02.53-.08.56-.02Z"/>
  <path class="cls-2" d="M164.22,107.39s-.05.23-.28.48c-.22.25-.72.56-1.31.45-.58-.08-.98-.52-1.1-.85-.14-.34-.08-.57-.03-.57.07-.01.14.18.31.41.17.23.47.49.88.55.41.07.77-.09,1.03-.25.26-.16.44-.27.49-.22Z"/>
  <path class="cls-2" d="M164.26,106.82s0,.23-.22.44c-.21.22-.61.44-1.1.45-.48.02-.91-.19-1.12-.44-.22-.25-.19-.48-.13-.49.07-.02.15.12.36.24.2.12.52.23.88.22.75-.01,1.23-.5,1.33-.42Z"/>
  <path class="cls-2" d="M168.46,107.39c-.01.06-.28.09-.58.46-.16.17-.35.42-.68.6-.32.18-.72.27-1.13.24-.84-.05-1.46-.55-1.78-.92-.33-.39-.45-.68-.4-.72.06-.04.26.18.63.48.36.29.91.66,1.58.69.33.02.65-.04.91-.16.26-.11.45-.3.66-.46.4-.36.83-.29.8-.22Z"/>
  <path class="cls-2" d="M167.81,107.45s-.09.24-.38.48c-.27.25-.88.49-1.47.35-1.22-.22-1.76-1.16-1.64-1.21.1-.09.72.57,1.72.75.5.11.9,0,1.21-.17.31-.15.52-.26.56-.2Z"/>
  <path class="cls-2" d="M167.3,107.67c-.03.13-.58.1-1.25.03-.67-.08-1.21-.18-1.21-.31,0-.13.57-.23,1.26-.15.7.08,1.22.31,1.19.44Z"/>
  <path class="cls-2" d="M151.93,116.44c-.06-.03.14-.65.52-1.63.05-.12.1-.26.2-.41.11-.15.27-.25.41-.33.28-.14.58-.28.89-.44.63-.3,1.34-.59,2.09-.88,1.51-.57,2.9-.99,3.91-1.27,1.01-.28,1.65-.41,1.67-.35.04.14-2.43.94-5.42,2.05-.74.28-1.45.57-2.08.84-.32.14-.62.27-.9.39-.28.11-.36.26-.48.52-.45.95-.76,1.52-.82,1.5Z"/>
  <path class="cls-2" d="M161.35,111.84c-.13,0-.22-.15-.2-.35.02-.2.14-.34.26-.31s.22.19.2.35c-.02.17-.13.31-.26.31Z"/>
  <path class="cls-2" d="M157.98,112.8c-.09-.1.58-.72,1.61-1.05,1.01-.33,1.86-.38,1.89-.27.03.13-.78.39-1.74.71-.96.31-1.68.71-1.76.61Z"/>
  <path class="cls-2" d="M152.59,114.95c-.07-.1.23-.46.76-.72.55-.28,1.09-.16,1.07-.03-.01.13-.41.22-.87.45-.46.23-.89.41-.96.3Z"/>
  <path class="cls-2" d="M152.7,116.99c-.11-.06.14-.77.73-1.49.58-.72,1.23-1.11,1.31-1.02.08.1-.4.63-.94,1.31-.55.67-.97,1.26-1.09,1.19Z"/>
  <path class="cls-2" d="M152.24,117.17c.11.07-.03.55-.32,1.06-.29.52-.61.89-.73.84-.12-.06.03-.53.32-1.06.29-.53.62-.91.73-.84Z"/>
  <path class="cls-2" d="M152.56,118.4c.06.11-.23.39-.66.63-.21.12-.42.2-.58.24l-.11.02c-.07.02-.13,0-.16-.01-.03-.02-.08-.07-.06-.12.02-.04.04-.02.05-.02.04.02,0,.04.05-.04,0,0,0-.01,0-.02,0,0,0,0,0,.02v.02s0,0,0,0h0s0,0,0,0h0s-.03-.05-.03-.05h0s0,0,0,0l.08-.08c.12-.11.3-.24.51-.36.43-.23.82-.33.88-.22Z"/>
  <path class="cls-2" d="M136.75,111.8c0,.13-3.51.16-7.84.07-4.33-.09-7.83-.27-7.83-.4s3.51-.16,7.84-.07c4.33.09,7.83.27,7.83.4Z"/>
  <path class="cls-2" d="M122.39,113.05c-.13,0-.22-.36-.21-.8.01-.44.13-.79.26-.78.13,0,.22.37.21.8-.01.43-.13.78-.26.78Z"/>
  <path class="cls-2" d="M124.66,112.98c-.13-.01-.21-.4-.18-.87.03-.47.16-.84.29-.84s.21.39.18.87c-.03.47-.16.85-.29.84Z"/>
  <path class="cls-2" d="M127.31,113.08c-.13-.02-.19-.39-.19-.83,0-.44.06-.82.19-.83.13-.02.28.35.28.83,0,.48-.15.85-.28.83Z"/>
  <path class="cls-2" d="M129.48,113.17c-.13,0-.24-.34-.24-.76s.1-.77.23-.77c.13,0,.24.34.24.76s-.1.77-.23.77Z"/>
  <path class="cls-2" d="M132.3,112.97c-.13,0-.24-.3-.25-.66,0-.36.09-.66.22-.67.13-.01.24.28.25.66,0,.38-.09.67-.22.67Z"/>
  <path class="cls-2" d="M134.57,113.03c-.13,0-.24-.29-.24-.64,0-.35.1-.64.23-.64.13,0,.24.29.24.64,0,.35-.1.64-.23.64Z"/>
  <path class="cls-2" d="M121.77,116.87c-.12.04-.44-.62-.71-1.48-.27-.85-.39-1.58-.26-1.62s.44.62.71,1.48c.27.85.39,1.58.26,1.62Z"/>
  <path class="cls-2" d="M134.08,116.6c0,.14-2.75.24-6.15.34-3.4.09-6.16.05-6.16-.08s2.75-.3,6.15-.39c1.7-.05,3.24-.06,4.35-.02,1.11.03,1.8.08,1.81.15Z"/>
  <path class="cls-2" d="M134.08,116.59c-.13-.02-.15-.62-.05-1.34s.28-1.29.41-1.28c.13.02.15.62.05,1.34-.1.72-.28,1.29-.41,1.28Z"/>
  <path class="cls-2" d="M122.29,116.91c-.13,0-.25-.62-.27-1.4s.07-1.41.2-1.41c.13,0,.25.62.27,1.4.02.78-.07,1.41-.2,1.41Z"/>
  <path class="cls-2" d="M124.22,116.8c-.13,0-.25-.58-.28-1.3-.03-.72.06-1.31.19-1.31.13,0,.25.58.28,1.3.03.72-.06,1.31-.19,1.31Z"/>
  <path class="cls-2" d="M126.81,116.77c-.13,0-.25-.57-.27-1.28-.02-.7.06-1.28.19-1.29.13,0,.25.56.27,1.28.02.71-.06,1.29-.19,1.29Z"/>
  <path class="cls-2" d="M129.2,116.82c-.13-.01-.25-.58-.27-1.27-.02-.69.07-1.25.19-1.26.13,0,.25.56.27,1.27.02.71-.07,1.27-.19,1.26Z"/>
  <path class="cls-2" d="M131.95,116.75c-.13.01-.25-.57-.28-1.3-.03-.73.06-1.31.19-1.31.13,0,.25.58.28,1.3.02.71-.06,1.3-.19,1.31Z"/>
  <path class="cls-2" d="M135.37,118.45c-.13-.01-.05-1.05.17-2.32.22-1.27.51-2.27.63-2.25.13.03.05,1.06-.17,2.32-.22,1.25-.5,2.26-.63,2.25Z"/>
  <path class="cls-2" d="M137.09,118.07s.05.06-.04.07c.07-.06.03.04.04.09,0,.03,0,.07,0,.11v.06s0,.03,0,.03v.02s0,.02,0,.02h0s-.01.03-.01.03c-.43.05-.17-.15-.24-.08h0s0,0,0,0c0-.09,0-.2,0-.31,0-.46.07-1.09.17-1.78.22-1.37.44-2.46.56-2.46.14,0,.12,1.16-.1,2.53-.1.69-.21,1.3-.3,1.74-.02.11-.04.21-.06.3h0s0,0,0,0c-.21-.02-.12-.02-.17-.02l-.06-.02c-.05-.02-.01,0-.03,0,0,0,0-.01,0-.01v-.03s.04-.06.04-.06c.02-.04.03-.07.05-.1.05-.04.01-.14.15-.12,0,0,.02.02.03,0Z"/>
  <path class="cls-2" d="M138.63,118.07c-.13-.02-.12-.98.02-2.16.07-.57.14-1.09.19-1.48.06-.38.13-.62.19-.63.06,0,.11.23.14.63.03.4.03.96-.06,1.54-.14,1.18-.36,2.12-.48,2.1Z"/>
  <path class="cls-2" d="M140.2,118.02c-.13,0-.16-.95-.08-2.09.09-1.15.26-2.07.39-2.06.13,0,.16.95.08,2.09-.09,1.15-.26,2.07-.39,2.06Z"/>
  <path class="cls-2" d="M141.69,117.54c-.13,0-.18-.88-.11-1.94.07-1.06.22-1.92.35-1.91s.18.88.11,1.94c-.07,1.06-.22,1.92-.35,1.91Z"/>
  <path class="cls-2" d="M143.85,111.31s.1-.66.92-1.24c.4-.28.97-.51,1.63-.55.65-.05,1.38.1,2.05.41.69.3,1.23.76,1.72,1.1.49.35.97.56,1.4.58.88.05,1.37-.37,1.4-.29.05.02-.38.58-1.41.63-.51.02-1.1-.21-1.63-.55-.54-.34-1.05-.76-1.68-1.03-1.25-.6-2.55-.47-3.31,0-.78.44-1.03,1-1.1.96Z"/>
  <path class="cls-2" d="M144.85,113.48c-.05,0-.13-.39.08-.98.21-.59.72-1.27,1.41-1.87.35-.3.82-.56,1.29-.51.44.05.74.18,1.03.26.56.18.89.32.88.38-.02.06-.38.04-.96-.06-.28-.04-.65-.14-.97-.15-.32-.01-.65.16-.96.44-.65.56-1.16,1.16-1.41,1.65-.27.49-.31.85-.39.84Z"/>
  <path class="cls-2" d="M148.02,109.65c.07-.09,1.22.49,2.82.79.81.21,1.44.24,1.97.08.54-.15.94,0,.9.07-.03.06-.32.03-.81.24-.24.1-.59.22-.97.22-.38,0-.79-.07-1.19-.16-.81-.17-1.53-.43-2.02-.69-.49-.26-.73-.51-.7-.56Z"/>
  <path class="cls-2" d="M89.49,105.39c-.13.02-.27-.22-.31-.53s.03-.57.16-.59c.13-.02.27.22.31.53.04.31-.03.57-.16.59Z"/>
  <path class="cls-2" d="M90.65,106c-.13.02-.24-.3-.26-.71-.01-.41.08-.73.21-.72s.24.33.26.71c.01.38-.08.71-.21.72Z"/>
  <path class="cls-2" d="M92.46,106.41c-.13,0-.28-.23-.33-.52-.05-.3.01-.57.13-.6s.27.2.33.52c.06.33,0,.6-.13.6Z"/>
  <path class="cls-2" d="M94.16,107.14c-.13.02-.24-.23-.25-.55,0-.32.09-.58.22-.57.13,0,.24.26.25.55,0,.3-.09.55-.22.57Z"/>
  <path class="cls-2" d="M90.14,103.03c-.13.02-.26-.14-.31-.36-.04-.22.02-.43.15-.45.13-.02.26.14.31.36.04.22-.02.43-.15.45Z"/>
  <path class="cls-2" d="M91.45,103.75c-.12.04-.3-.19-.32-.51-.02-.33.14-.57.27-.54.13.03.19.26.2.52.01.26-.03.5-.15.54Z"/>
  <path class="cls-2" d="M93.06,104.29c-.13.02-.27-.2-.31-.5-.04-.29.02-.55.15-.56.13-.02.27.2.31.5.04.29-.02.55-.15.56Z"/>
  <path class="cls-2" d="M94.29,104.65c-.13.02-.25-.11-.27-.28-.02-.17.06-.32.19-.34.13-.02.25.11.27.28.02.17-.06.32-.19.34Z"/>
  <path class="cls-2" d="M97.06,105.47c-.13.03-.25-.06-.28-.2s.05-.27.18-.3c.13-.03.25.06.28.2.03.14-.05.27-.18.3Z"/>
  <ellipse class="cls-2" cx="98.45" cy="105.8" rx=".23" ry=".37" transform="translate(-9.14 9.31) rotate(-5.17)"/>
  <path class="cls-2" d="M100.12,106.69c-.13,0-.23-.16-.26-.34-.03-.18,0-.36.13-.41.12-.05.29.09.33.32.04.23-.07.42-.2.42Z"/>
  <path class="cls-2" d="M101.68,107.2c-.13.03-.26-.07-.29-.23-.04-.15.04-.3.16-.33.13-.03.26.07.29.23.04.15-.04.3-.16.33Z"/>
  <path class="cls-2" d="M97.95,107.86c-.11.06-.3-.08-.34-.33-.04-.25.1-.44.22-.42.13.02.21.18.24.35.02.17,0,.34-.12.4Z"/>
  <path class="cls-2" d="M99.44,107.95c-.13.02-.25-.13-.27-.32s.06-.36.19-.37.25.13.27.32-.06.36-.19.37Z"/>
  <path class="cls-2" d="M101.25,108.08s-.06,0-.09-.01c-.01,0-.03-.02-.04-.05,0-.01.01-.06.03-.08-.02-.03.17-.06.18-.02.06.04.07.06.09.11.03.02,0,.2-.13.22-.1.02-.1,0-.14,0-.03,0-.07-.02-.08-.02-.04-.02-.08-.04-.1-.06-.11-.1-.1-.25,0-.34.1-.09.24-.08.32,0,.02.02.03.04.04.06h0s-.04.08-.06.12c-.04.07,0,.08-.03.08,0,0,0-.02.04,0,.03,0,.05,0,.08,0,0,0-.01,0-.02,0-.03,0-.06.02-.09.02Z"/>
  <path class="cls-2" d="M88.59,102.61c-.06.12-1.11-.29-2.35-.91-1.24-.62-2.2-1.22-2.14-1.33.06-.12,1.11.29,2.35.91,1.24.62,2.2,1.22,2.14,1.33Z"/>
  <path class="cls-2" d="M88.59,102.61c-.05.12-1.1-.22-2.33-.76-1.24-.54-2.2-1.07-2.15-1.19s1.1.22,2.33.76,2.2,1.07,2.15,1.19Z"/>
  <path class="cls-2" d="M84.17,100.3c.12.04.21.11.19.16-.02.05-.13.06-.25.02-.12-.04-.21-.11-.19-.16.02-.05.13-.06.25-.02Z"/>
  <path class="cls-2" d="M92.11,78.89c.13.02-.55,4.89-1.52,10.88-.97,5.99-1.85,10.82-1.98,10.8-.13-.02.55-4.89,1.52-10.88.97-5.99,1.85-10.82,1.98-10.8Z"/>
  <path class="cls-2" d="M89.73,95.73c.08.1-.97,1.16-2.14,2.59-1.18,1.43-2.22,2.54-2.32,2.45-.09-.08.77-1.31,1.96-2.75,1.19-1.45,2.42-2.39,2.5-2.29Z"/>
  <path class="cls-2" d="M104.12,88.86c.06.03-.3.88-.92,2.24-.63,1.36-1.52,3.23-2.53,5.28-1.01,2.05-1.95,3.9-2.65,5.22-.7,1.32-1.16,2.13-1.22,2.1-.06-.03.3-.89.93-2.25.63-1.36,1.52-3.23,2.53-5.28s1.95-3.89,2.65-5.22c.7-1.32,1.16-2.13,1.22-2.1Z"/>
  <path class="cls-2" d="M114.83,67.93c.05.04-.37.68-1.09,1.69-.72,1.01-1.74,2.38-2.89,3.88-1.15,1.5-2.21,2.84-3,3.8-.79.96-1.3,1.53-1.35,1.49-.05-.04.37-.68,1.09-1.69.72-1.01,1.74-2.38,2.89-3.88s2.21-2.84,3-3.79c.79-.96,1.3-1.53,1.35-1.49Z"/>
  <path class="cls-2" d="M106.34,73.91c.13,0,.27,2.62.31,5.85.04,3.23-.03,5.85-.16,5.85s-.27-2.62-.31-5.85c-.04-3.23.03-5.85.16-5.85Z"/>
  <path class="cls-2" d="M106.41,81.82c.02.13-.24.26-.58.26-.34,0-.59-.16-.57-.28.02-.13.28-.19.58-.19.3,0,.55.08.57.21Z"/>
  <path class="cls-2" d="M105.83,85.5c-.13.02-.31-.76-.41-1.75-.1-.98-.08-1.79.05-1.79.13,0,.31.77.41,1.75.1.97.08,1.78-.05,1.79Z"/>
  <path class="cls-2" d="M105.38,82.34s.02.34-.03.95c-.06.61-.14,1.48-.25,2.56-.22,2.16-.53,5.15-.87,8.44-.32,3.3-.6,6.29-.81,8.45-.11,1.08-.2,1.95-.26,2.56-.07.6-.12.94-.16.94-.03,0-.04-.34-.02-.95.01-.61.05-1.49.12-2.57.12-2.17.35-5.17.67-8.47.33-3.3.7-6.28,1.01-8.44.15-1.08.29-1.95.39-2.55.11-.6.18-.93.21-.92Z"/>
  <path class="cls-2" d="M105.26,82.52c.13,0-.03,5.58-.35,12.44-.32,6.87-.69,12.43-.82,12.42-.13,0,.03-5.58.35-12.44.32-6.87.69-12.43.82-12.42Z"/>
  <path class="cls-1" d="M106.4,108.36"/>
  <path class="cls-2" d="M152.15,111.54s-.16.04-.46.08c-.3.03-.75.08-1.32.15-1.15.11-2.81.24-4.87.35-4.11.2-9.81.27-16.09-.03-6.28-.32-11.95-.78-16.04-1.35-2.04-.29-3.68-.61-4.8-.87-.56-.13-1-.23-1.29-.32-.29-.08-.44-.13-.44-.15,0-.02.16,0,.46.05.3.05.74.13,1.3.23,1.13.2,2.77.47,4.81.72,4.08.48,9.75.9,16.02,1.21,6.27.3,11.95.29,16.06.17,2.05-.08,3.72-.15,4.87-.2.57-.02,1.02-.04,1.32-.06.3,0,.46,0,.46.01Z"/>
  <path class="cls-2" d="M118.24,86.69s-.09.36-.34.97c-.26.61-.62,1.49-1.08,2.58-.93,2.17-2.24,5.16-3.72,8.45-1.48,3.29-2.82,6.26-3.86,8.39-.52,1.06-.98,1.91-1.33,2.47-.34.57-.57.86-.59.85-.03-.02.14-.34.43-.93.29-.59.7-1.45,1.19-2.53.96-2.16,2.28-5.15,3.73-8.44,1.48-3.29,2.84-6.26,3.84-8.4.51-1.06.93-1.93,1.21-2.52.3-.59.47-.91.5-.9Z"/>
  <path class="cls-2" d="M117.54,87.43s-.05.36-.23.98c-.19.62-.46,1.51-.79,2.62-.69,2.2-1.67,5.24-2.78,8.58-1.11,3.34-2.14,6.36-2.91,8.54-.39,1.08-.71,1.96-.93,2.57-.23.6-.37.93-.4.92-.03-.01.05-.36.23-.98.19-.62.46-1.51.79-2.62.69-2.2,1.67-5.24,2.78-8.58s2.14-6.36,2.91-8.53c.39-1.08.71-1.96.93-2.57.23-.6.37-.93.4-.92Z"/>
  <path class="cls-2" d="M117.55,88.94s-.02.34-.14.94c-.12.6-.31,1.45-.56,2.51-.5,2.11-1.23,5.02-2.11,8.21-.88,3.19-1.74,6.07-2.4,8.13-.33,1.03-.6,1.87-.81,2.44-.2.57-.33.88-.36.88-.03,0,.04-.34.19-.93.16-.59.38-1.44.66-2.48.58-2.09,1.38-4.98,2.26-8.17.88-3.19,1.67-6.08,2.24-8.17.3-1.04.54-1.89.7-2.47.17-.58.29-.9.32-.89Z"/>
  <path class="cls-2" d="M117.95,88.71s-.02.34-.15.94c-.13.6-.32,1.47-.55,2.54-.47,2.14-1.11,5.1-1.83,8.36-.68,3.27-1.3,6.23-1.75,8.38-.23,1.07-.42,1.94-.55,2.54-.14.6-.23.93-.26.92-.03,0,0-.34.08-.95.08-.61.22-1.49.4-2.57.36-2.16.92-5.14,1.62-8.41.7-3.27,1.4-6.22,1.96-8.34.28-1.06.52-1.92.69-2.5.18-.59.29-.91.32-.9Z"/>
  <path class="cls-2" d="M117.63,90.07s.03.32,0,.9c-.03.57-.1,1.4-.19,2.43-.18,2.05-.49,4.87-.89,7.98-.4,3.11-.83,5.91-1.18,7.94-.17,1.01-.32,1.83-.44,2.39-.12.56-.19.87-.23.87-.03,0-.01-.32.05-.89.07-.57.17-1.4.29-2.41.27-2.04.63-4.85,1.04-7.95.4-3.11.76-5.92,1.03-7.95.14-1.02.26-1.84.34-2.41.09-.57.15-.88.18-.88Z"/>
  <path class="cls-2" d="M118.19,87.95s.04.35.02.98c-.03.63-.06,1.55-.11,2.67-.11,2.26-.3,5.37-.54,8.81-.24,3.44-.49,6.55-.67,8.8-.11,1.12-.19,2.03-.25,2.67-.07.63-.12.97-.15.97-.03,0-.04-.35-.03-.99.02-.63.06-1.55.1-2.67.1-2.25.3-5.37.54-8.81.24-3.44.48-6.55.68-8.8.11-1.12.2-2.03.26-2.66.07-.63.13-.97.16-.97Z"/>
  <path class="cls-2" d="M118.69,89.13c.13,0,.03,5.34-.23,11.91-.25,6.57-.56,11.89-.69,11.89-.13,0-.03-5.34.23-11.91.25-6.57.56-11.89.69-11.89Z"/>
  <path class="cls-2" d="M136.78,94.34c.09.09-3.41,3.98-7.83,8.68-4.42,4.71-8.08,8.45-8.17,8.36-.09-.09,3.41-3.98,7.83-8.68,4.42-4.71,8.08-8.45,8.17-8.36Z"/>
  <path class="cls-2" d="M143.46,110.64s-.31-.22-.81-.67c-.51-.45-1.21-1.12-2.08-1.97-1.73-1.69-4.06-4.07-6.59-6.75-2.53-2.68-4.77-5.15-6.36-6.96-1.59-1.81-2.53-2.99-2.46-3.04.03-.01.27.26.74.74.46.49,1.13,1.2,1.96,2.08,1.65,1.76,3.94,4.18,6.46,6.87,2.53,2.67,4.82,5.09,6.48,6.84.83.87,1.5,1.58,1.97,2.07.46.49.71.77.69.8Z"/>
  <path class="cls-2" d="M141.31,94.66c.06.03-.37,1.03-1.09,2.62-.73,1.59-1.77,3.78-2.94,6.18-1.86,3.81-3.5,7.03-4.15,8.16-.03.05-.01.12-.04.21-.02.07-.11.16-.2.09-.07-.17.11-.14.06-.11-.02,0-.03.03-.02.06,0-.01.03-.02.04-.07.01-.03-.03-.12.01-.24.49-1.21,2.01-4.48,3.87-8.3,1.17-2.4,2.26-4.57,3.06-6.13.81-1.56,1.33-2.5,1.39-2.47Z"/>
  <path class="cls-2" d="M140.44,94.02c.06.01-.04,1.11-.25,2.87-.22,1.76-.54,4.19-.94,6.87-.39,2.68-.77,5.1-1.07,6.85-.22,1.77-.61,2.83-.68,2.8-.03-.01.03-.28.11-.76.08-.49.16-1.19.24-2.08.21-1.76.54-4.19.94-6.88.39-2.68.77-5.11,1.07-6.86.3-1.75.52-2.83.58-2.82Z"/>
  <path class="cls-2" d="M140.73,94.18c.07,0-.02,1.08-.14,2.82-.12,1.73-.25,4.13-.39,6.78-.14,2.65-.3,5.06-.5,6.79-.19,1.73-.38,2.8-.44,2.79-.07,0,0-1.08.11-2.82.09-1.74.22-4.14.36-6.79.14-2.65.32-5.06.52-6.79.2-1.73.41-2.79.47-2.79Z"/>
  <path class="cls-2" d="M141.2,93.98c.06,0,.1,1.07.11,2.8,0,1.73-.01,4.12-.07,6.76s-.13,5.03-.2,6.75c-.08,1.73-.16,2.8-.22,2.79-.06,0-.1-1.07-.11-2.8,0-1.73.01-4.12.07-6.75.05-2.64.13-5.02.2-6.75.08-1.73.16-2.8.22-2.8Z"/>
  <path class="cls-2" d="M141.26,93.94c.13,0,.44,4.28.69,9.57.25,5.29.35,9.59.22,9.59-.13,0-.44-4.28-.69-9.57-.25-5.29-.35-9.59-.22-9.59Z"/>
  <path class="cls-2" d="M156.75,96.36c.06.11-3.97,2.33-8.99,4.94-5.03,2.62-9.15,4.64-9.21,4.53-.06-.11,3.97-2.33,8.99-4.94s9.15-4.64,9.21-4.53Z"/>
  <path class="cls-2" d="M151.65,106.93c.12.05-.05.84-.37,1.77-.33.93-.69,1.65-.81,1.61-.12-.04.04-.83.37-1.77.33-.94.7-1.66.81-1.61Z"/>
  <path class="cls-2" d="M151.59,107.02c.12.05-.07.81-.42,1.71-.35.9-.73,1.59-.85,1.54-.12-.05.07-.81.42-1.71.35-.9.73-1.59.85-1.54Z"/>
  <path class="cls-2" d="M170.19,109.49s.1.03.05.15c-.02.05-.07.1-.15.12-.09.03-.2,0-.27-.06-.15-.12-.19-.25-.25-.38-.06-.14-.12-.29-.18-.45-.12-.33-.2-.63-.23-.86-.02-.1-.02-.23.02-.32.04-.09.11-.09.13-.07.04.06.04.1.17.3.11.2.24.47.35.78.11.29.19.67.23.76-.03.07.1.08.14.03Z"/>
  <path class="cls-2" d="M169.98,109.33c-.12.04-.34-.33-.49-.84s-.17-.94-.05-.97.35.34.49.84c.15.49.17.93.05.97Z"/>
  <path class="cls-2" d="M152.54,116.39c.02-.07,1.1.33,2.92.19.9-.06,1.98-.22,3.17-.4.59-.1,1.21-.22,1.82-.4.61-.2,1.22-.51,1.85-.77.64-.25,1.23-.6,1.81-.89.59-.28,1.11-.62,1.59-.98.95-.71,1.71-1.49,2.27-2.19,1.13-1.42,1.56-2.48,1.64-2.44.02.01-.05.29-.26.76-.21.47-.56,1.14-1.11,1.88-.55.75-1.3,1.58-2.27,2.33-.49.38-1.03.74-1.62,1.03-.59.3-1.18.66-1.84.92-.66.27-1.27.58-1.91.79-.65.19-1.28.3-1.89.39-1.21.16-2.29.29-3.22.3-.93.02-1.68-.09-2.18-.23-.5-.14-.76-.27-.75-.3Z"/>
  <path class="cls-2" d="M166.85,103.46s-.36-.34-.96-1c-.59-.66-1.43-1.64-2.44-2.87-2.03-2.46-4.74-5.92-7.67-9.79-2.93-3.88-5.51-7.44-7.33-10.05-.91-1.31-1.63-2.38-2.1-3.14-.24-.38-.42-.67-.52-.89-.11-.21-.16-.32-.14-.33.04-.02.29.4.81,1.12.52.72,1.28,1.76,2.21,3.05,1.9,2.55,4.53,6.07,7.44,9.96,2.93,3.87,5.6,7.36,7.56,9.87.98,1.25,1.77,2.26,2.32,2.96.55.7.85,1.09.82,1.12Z"/>
  <path class="cls-2" d="M153.72,96.42s-.25-.22-.63-.66c-.38-.45-.9-1.13-1.49-2.01-1.19-1.75-2.59-4.33-3.78-7.33-1.18-3-2.07-5.78-2.47-7.87-.2-1.04-.27-1.9-.28-2.49,0-.59.03-.92.06-.92.08,0,.06,1.31.54,3.34.47,2.03,1.41,4.79,2.58,7.76,1.18,2.97,2.52,5.55,3.62,7.32,1.09,1.79,1.91,2.8,1.85,2.85Z"/>
  <path class="cls-2" d="M160.97,106.58c-.12.05-2.46-5.21-5.24-11.75s-4.93-11.88-4.81-11.93c.12-.05,2.46,5.21,5.24,11.75s4.93,11.88,4.81,11.93Z"/>
  <path class="cls-2" d="M129.46,90.87s.26-.22.83-.33c.28-.07.63-.11.99-.24.35-.13.73-.4,1.12-.69.8-.59,1.56-1.53,2.48-2.51.91-.99,1.91-2.07,2.84-3.29,3.1-4.44,4.7-8.88,5.62-9.45l.18-.11-.11.16c-.08.11-.12.16-.14.15-.01,0,0-.07.06-.18l.07.04c-.74.69-2.13,5.1-5.32,9.68-.95,1.25-1.97,2.33-2.9,3.3-.93.95-1.74,1.89-2.6,2.48-.43.29-.82.55-1.24.68-.41.12-.76.14-1.04.17-.56.06-.84.19-.86.15Z"/>
  <path class="cls-2" d="M129.48,89.7s-.17-.23-.39-.69c-.23-.45-.52-1.13-.83-1.99-.63-1.71-1.29-4.16-1.57-6.93-.28-2.77-.13-5.3.14-7.1.13-.9.28-1.62.41-2.11.13-.49.21-.76.24-.75.08.02-.14,1.12-.32,2.91-.18,1.79-.28,4.28,0,7.01.28,2.73.88,5.15,1.42,6.87.54,1.72.98,2.75.91,2.78Z"/>
  <path class="cls-2" d="M149.37,96.7s-.49-.37-1.26-1.15c-.78-.78-1.88-1.92-3.23-3.34-2.71-2.84-6.41-6.81-10.47-11.21-4.06-4.4-7.71-8.41-10.34-11.33-1.3-1.47-2.36-2.65-3.09-3.47-.36-.42-.63-.74-.82-.96-.18-.22-.28-.35-.26-.36.01-.01.13.09.33.29.2.21.5.51.89.9.76.8,1.85,1.95,3.2,3.37,2.67,2.88,6.36,6.85,10.44,11.24,4.05,4.41,7.71,8.41,10.36,11.3,1.32,1.45,2.39,2.63,3.12,3.44.74.81,1.13,1.27,1.13,1.27Z"/>
  <path class="cls-2" d="M131.64,72c.06,0,.12.14.02.34-.05.09-.15.2-.32.25-.17.05-.39-.02-.52-.16-.14-.14-.2-.36-.12-.54.08-.18.23-.26.35-.28.27-.03.35.16.3.19-.11.03-.34.19-.18.3.07.07.13.08.25.02.1-.05.17-.13.23-.12Z"/>
  <path class="cls-2" d="M107.05,66.63s.07-.03.13.04c.05.07.07.2,0,.33-.05.11-.23.27-.46.23-.21-.04-.36-.2-.43-.37-.15-.31-.11-.76.23-.89.31-.09.41.16.34.18-.04.04-.15.03-.19.11-.03.04-.04.21.04.39.04.09.09.13.12.15,0,.02.04.03.09,0,.09-.04.1-.11.14-.17Z"/>
  <path class="cls-2" d="M136.89,73.89s0,.16-.09.29c-.05.05-.19.28-.39.17-.21-.07-.32-.19-.4-.36-.17-.36.09-.72.28-.78.21-.09.35,0,.33.06-.02.1-.31.31-.19.53.1.12.03.15.15.12.15-.07.26-.09.3-.04Z"/>
  <path class="cls-2" d="M151.71,76.49c.06-.01.14.16-.03.35-.08.08-.21.16-.4.15-.19-.02-.35-.15-.43-.31-.18-.34.03-.7.2-.79.18-.11.31-.07.33-.02.03.1-.25.38-.12.59.07.22.33.06.43.03Z"/>
  <path class="cls-2" d="M137.14,108.46c0,.13-.78.24-1.75.25-.97.01-1.75-.08-1.75-.21,0-.13.78-.24,1.75-.25.97-.01,1.75.08,1.75.21Z"/>
  <path class="cls-2" d="M143.2,110.69c0,.13-1.69.21-3.78.19-2.09-.02-3.78-.15-3.77-.28,0-.13,1.7-.21,3.78-.19,2.08.02,3.77.15,3.77.28Z"/>
  <path class="cls-2" d="M156.76,96.81c.06-.02.17.15.04.38-.06.11-.19.23-.39.26-.21.03-.43-.08-.55-.25-.13-.17-.16-.4-.1-.58.06-.18.19-.29.3-.34.24-.11.39,0,.38.05,0,.07-.11.11-.19.22-.08.12-.11.24-.02.37.09.12.18.12.31.05.11-.06.16-.17.22-.18Z"/>
  <path class="cls-2" d="M89.37,97.26c-.03-.1.26-.43.19-.98-.07-.53-.37-.24-.43-.18-.03,0-.08-.02-.1-.1-.02-.09.03-.23.15-.32.1-.1.38-.15.56,0,.18.13.26.34.28.54.04.39-.09.72-.27.91-.18.19-.36.19-.38.13Z"/>
  <path class="cls-2" d="M117.2,107c-.01.13-1.95.02-4.32-.25-2.37-.27-4.28-.59-4.27-.72.01-.13,1.95-.02,4.32.25s4.28.59,4.27.72Z"/>
  <path class="cls-2" d="M118.87,110.05c0,.06-.54.13-1.42.09-.88-.04-2.08-.24-3.37-.54-1.29-.29-2.45-.57-3.3-.73-.85-.16-1.38-.24-1.37-.31,0-.06.55-.1,1.42-.02.87.08,2.06.31,3.35.6,1.29.29,2.45.54,3.3.66.85.13,1.38.17,1.38.24Z"/>
  <path class="cls-2" d="M107.15,105.08c-.02.13-1.19.04-2.63-.05-1.44-.1-2.61-.16-2.62-.3,0-.13,1.18-.27,2.65-.17,1.47.1,2.62.39,2.6.52Z"/>
  <path class="cls-2" d="M119.86,64.32c.06,0,.09,1.12.09,2.94,0,1.82-.05,4.33-.12,7.11-.07,2.78-.17,5.29-.26,7.11-.09,1.82-.18,2.94-.24,2.94-.06,0-.09-1.13-.09-2.95,0-1.82.05-4.33.12-7.1.07-2.77.17-5.28.26-7.1.09-1.82.18-2.94.24-2.94Z"/>
  <path class="cls-2" d="M131.58,70.64c-.03.13-5.62-.96-12.49-2.43-6.87-1.47-12.42-2.76-12.39-2.89.03-.13,5.62.96,12.49,2.43,6.87,1.47,12.42,2.76,12.39,2.89Z"/>
  <path class="cls-1" d="M123.19,70.68"/>
  <path class="cls-2" d="M114.96,67.7c.02.05-.42.28-1.2.47-.76.17-1.99.28-3.1-.42-.55-.36-.89-.84-1.27-1.12-.38-.3-.79-.49-1.14-.6-.71-.23-1.21-.19-1.21-.26-.01-.05.49-.22,1.3-.06.4.08.87.26,1.32.58.46.32.81.78,1.27,1.07.94.6,2.05.58,2.79.49.76-.1,1.23-.21,1.25-.15Z"/>
  <path class="cls-2" d="M115.02,67.5c.03.05-.25.26-.78.36-.53.1-1.29.04-2.05-.25-.75-.29-1.35-.67-1.78-.94-.43-.28-.68-.47-.65-.52.03-.06.34.03.81.23.47.2,1.09.53,1.79.79.7.27,1.37.37,1.85.36.48,0,.79-.09.81-.03Z"/>
  <path class="cls-2" d="M114.52,67.21c0,.13-1.04.18-2.3-.04-1.26-.22-2.22-.62-2.18-.74.04-.13,1.03.07,2.26.28,1.22.21,2.23.36,2.22.5Z"/>
  <path class="cls-2" d="M113.13,67.62c.04.12-.86.42-1.92.04-1.06-.37-1.58-1.16-1.48-1.22.1-.09.71.47,1.63.78.92.33,1.74.27,1.76.4Z"/>
  <path class="cls-2" d="M119.41,68.36s.08.48-.32,1.13c-.2.31-.54.66-1.03.85-.47.19-1.12.21-1.65-.12-.52-.32-.82-.8-1.07-1.19-.25-.4-.45-.75-.67-1-.42-.53-.85-.64-.83-.7,0-.06.53-.06,1.07.48.57.48.94,1.5,1.74,2.02.39.24.87.25,1.26.12.4-.13.69-.38.9-.64.42-.52.52-.96.59-.94Z"/>
  <path class="cls-2" d="M119.12,68.31s-.09.38-.53.77c-.22.19-.53.38-.91.51-.19.06-.41.11-.66.08-.26-.03-.49-.17-.66-.31-1.3-1.12-2.26-2.12-2.17-2.21.09-.1,1.19.74,2.46,1.84.3.26.58.27.92.18.33-.08.61-.22.83-.36.45-.28.67-.55.73-.5Z"/>
  <path class="cls-2" d="M118.82,68.12s-.09.27-.47.44c-.38.16-.97.18-1.54-.04-.56-.22-.97-.54-1.26-.76-.29-.23-.45-.39-.42-.44.03-.06.26,0,.6.16.34.16.77.42,1.25.61.48.19.95.22,1.27.16.33-.05.52-.17.57-.12Z"/>
  <path class="cls-2" d="M118.98,68.16s-.08.29-.44.54c-.35.25-1.02.44-1.68.25-.66-.19-1.12-.59-1.42-.87-.3-.29-.44-.5-.4-.55.04-.05.27.08.61.29.34.21.8.52,1.34.68.54.16,1.05.06,1.4-.09.35-.14.55-.3.6-.25Z"/>
  <path class="cls-2" d="M116.28,69.62c.03-.16.89.13,1.79-.08.44-.12.78-.39.95-.63.19-.24.24-.45.31-.44.06,0,.13.24-.02.6-.14.36-.55.77-1.12.92-.57.15-1.08.04-1.41-.07-.34-.12-.52-.24-.5-.3Z"/>
  <path class="cls-2" d="M118.06,69.29c-.04-.13.26-.33.58-.6.33-.27.58-.52.7-.46.11.05,0,.49-.4.82-.4.34-.85.36-.88.24Z"/>
  <path class="cls-2" d="M118.58,68.25c-.03.13-.49.12-1.02,0-.54-.13-.95-.33-.92-.46s.49-.12,1.02,0c.54.13.95.33.92.46Z"/>
  <path class="cls-2" d="M119.1,69.4c-.1-.08,0-.38.22-.69s.49-.48.6-.4c.1.08,0,.38-.22.69-.23.3-.49.48-.6.4Z"/>
  <path class="cls-2" d="M118.36,70.07c-.07-.11.23-.41.6-.76.37-.34.7-.61.81-.53.1.07-.08.5-.49.87-.41.38-.85.52-.92.41Z"/>
  <path class="cls-2" d="M129.7,70.33c0,.08-.67-.03-1.67.2-.5.11-1.06.34-1.66.68-.61.32-1.28.77-2.16.91-.44.06-.9,0-1.27-.18-.37-.16-.69-.36-.99-.57-.59-.43-1.03-.92-1.34-1.36-.62-.9-.75-1.58-.7-1.59.07-.03.31.59.97,1.39.33.4.77.83,1.32,1.21.56.37,1.23.76,1.95.64.73-.11,1.39-.52,2.02-.83.62-.33,1.26-.55,1.8-.62,1.09-.15,1.75.08,1.73.12Z"/>
  <path class="cls-2" d="M126.28,70.67c.02.06-.34.23-.93.44-.29.1-.65.25-1.11.28-.46.03-.96-.09-1.41-.32-.91-.49-1.46-1.21-1.87-1.67-.41-.48-.63-.8-.59-.84.05-.04.36.19.82.61.47.41,1.06,1.06,1.85,1.48.4.21.81.31,1.18.31.37,0,.73-.11,1.04-.17.61-.13,1-.18,1.02-.12Z"/>
  <path class="cls-2" d="M124.22,71.29s-.02.1-.15.18c-.13.08-.37.1-.62.03-.51-.15-1.02-.54-1.58-1-1.1-.94-1.69-1.97-1.58-2.04.11-.08.84.79,1.89,1.68.53.44,1.02.86,1.38,1.04.37.19.62.05.66.1Z"/>
  <path class="cls-2" d="M122.57,71.1c-.08.1-.76-.28-1.51-.85-.38-.31-.66-.69-.78-1-.13-.31-.12-.52-.06-.54.12-.02.43.62,1.14,1.18.75.56,1.3,1.1,1.21,1.2Z"/>
  <path class="cls-2" d="M125.25,71.08c-.03.13-1.13-.1-2.29-.81-1.16-.69-1.96-1.42-1.89-1.52.08-.11,1.01.44,2.13,1.11,1.12.68,2.09,1.08,2.06,1.21Z"/>
  <path class="cls-2" d="M128.45,69.76c0,.11-1.77.32-3.99.14-2.24-.16-3.9-1.02-3.83-1.13.05-.12,1.7.51,3.87.67,2.16.17,3.94.17,3.94.32Z"/>
  <path class="cls-2" d="M127.83,70.02c.03.12-1.38.47-3.12.21-1.74-.25-2.99-.99-2.93-1.09.06-.13,1.33.4,2.99.63,1.66.25,3.03.11,3.05.25Z"/>
  <path class="cls-2" d="M127.22,69.98c.05.11-1.25.69-2.97.65-.85,0-1.64-.19-2.14-.5-.5-.3-.68-.63-.63-.66.05-.05.3.18.78.37.48.2,1.19.32,2,.32,1.62.04,2.92-.31,2.96-.18Z"/>
  <path class="cls-2" d="M127.04,70.31c.09.09-.97.87-2.49.68-1.52-.17-2.37-1.18-2.26-1.24.09-.11.98.63,2.32.77,1.34.17,2.37-.34,2.43-.22Z"/>
  <path class="cls-2" d="M123.44,69.31c-.08.09-.62-.07-1.42-.1-.4-.03-.78-.11-1.04-.23-.26-.12-.38-.26-.35-.31.07-.09.63.05,1.43.08.4.03.78.11,1.04.24.26.13.37.27.34.32Z"/>
  <path class="cls-2" d="M125.11,71.32c.11.07,0,.41-.39.53-.38.12-.68-.09-.62-.21.05-.12.26-.16.48-.24.22-.07.42-.16.53-.09Z"/>
  <path class="cls-2" d="M151.15,76c-.03.22-3.36-.34-7.42-1.18-2.03-.42-3.86-.84-5.18-1.17-1.32-.33-2.13-.56-2.12-.62.01-.06.85.06,2.18.3,1.34.24,3.18.61,5.21,1.03,2.02.44,3.85.84,5.18,1.13.66.15,1.19.28,1.57.36.38.09.55.14.57.15Z"/>
  <path class="cls-2" d="M142.91,74.41s-.16.44-.78.74c-.61.31-1.6.42-2.6.11-1-.3-1.75-.91-2.16-1.42-.43-.52-.55-.92-.5-.95.1-.09.96,1.38,2.79,1.92.89.27,1.77.23,2.34.03.58-.19.85-.49.91-.44Z"/>
  <path class="cls-2" d="M142.2,74.3c.03.05-.19.24-.62.37-.43.13-1.08.15-1.74-.03-1.31-.4-2.13-1.12-2.07-1.2.07-.14,1.01.4,2.2.75,1.21.37,2.19,0,2.24.11Z"/>
  <path class="cls-2" d="M142.42,74.4c.09.09-1.01.81-2.52.56-1.51-.23-2.33-1.26-2.22-1.32.09-.11.96.66,2.29.86,1.33.23,2.39-.23,2.44-.1Z"/>
  <path class="cls-2" d="M145.97,75.35s-.12.23-.46.39c-.33.16-.86.27-1.43.17-.57-.1-1.03-.37-1.29-.63-.27-.26-.35-.48-.31-.52.1-.09.7.54,1.68.69.98.18,1.74-.22,1.81-.1Z"/>
  <path class="cls-2" d="M145.64,75.19c.02.12-.64.32-1.46.18-.82-.13-1.38-.53-1.32-.64.06-.12.66.06,1.4.18.74.13,1.37.15,1.38.28Z"/>
  <path class="cls-2" d="M150.84,75.98c0,.07-.3.1-.75.26-.45.13-1.11.47-1.95.38-.82-.09-1.45-.49-1.84-.79-.4-.32-.59-.57-.55-.62.04-.05.31.11.73.34.42.23,1.02.53,1.71.6.68.08,1.32-.17,1.83-.24.51-.08.84,0,.83.06Z"/>
  <path class="cls-2" d="M149.15,75.99c0,.13-.63.13-1.4.01-.76-.12-1.35-.32-1.32-.45s.66-.13,1.4-.01c.74.12,1.33.32,1.32.45Z"/>
  <path class="cls-2" d="M149.39,75.9c0-.13.02-.23.06-.23.03,0,.06.1.06.23,0,.13-.02.23-.06.23-.03,0-.06-.1-.06-.23Z"/>
  <path class="cls-2" d="M142.92,74.79c-.02.13-.68.09-1.48-.08-.79-.17-1.41-.41-1.38-.54.03-.12.69-.09,1.48.08.78.17,1.4.41,1.38.54Z"/>
  <path class="cls-2" d="M143.74,66.64s.06.34.08.94c0,.61.02,1.48.04,2.56.01,2.16,0,5.15-.04,8.44-.04,3.3-.11,6.28-.18,8.44-.04,1.08-.08,1.95-.11,2.56-.04.6-.07.94-.1.94-.03,0-.06-.33-.08-.94,0-.61-.02-1.48-.04-2.56-.01-2.16,0-5.15.04-8.44.04-3.3.11-6.28.18-8.44.04-1.08.08-1.95.11-2.56.04-.6.07-.94.1-.94Z"/>
  <path class="cls-2" d="M143.78,73.04c-.13.01-.28-1.36-.35-3.06-.06-1.7,0-3.08.12-3.08s.28,1.37.35,3.06c.06,1.69,0,3.07-.12,3.08Z"/>
  <path class="cls-2" d="M143.94,74.66c-.13.01-.38-1.7-.55-3.83s-.22-3.86-.09-3.87c.13-.01.38,1.7.55,3.83.18,2.13.22,3.86.09,3.87Z"/>
  <path class="cls-2" d="M143.02,90.83c-.1.01-.18-1.34-.17-3.5,0-2.16.06-5.15.16-8.45.12-3.29.24-6.27.32-8.44.04-1.08.08-1.95.11-2.56.04-.6.07-.94.1-.94.03,0,.06.33.08.94.01.61.03,1.48.04,2.56.02,2.17-.09,5.15-.18,8.45-.12,3.29-.22,6.28-.29,8.44-.04,1.08-.08,1.95-.1,2.56-.03.61-.02.93-.05.94Z"/>
  <path class="cls-2" d="M143.9,66.86c0,.13-.15.24-.35.24-.19,0-.36-.1-.36-.22,0-.13.15-.24.35-.24.19,0,.36.1.36.22Z"/>
  <path class="cls-1" d="M143.32,66.77"/>
  <path class="cls-2" d="M143.48,70.77c-.13.01-.26-.92-.24-2.09.03-1.17.11-1.99.17-1.87.06.11.18,1.07.24,2.09.06,1.02-.04,1.86-.17,1.87Z"/>
  <path class="cls-2" d="M143.68,67.84c-.13,0-.26-2.03-.3-4.54-.04-2.51.04-4.55.17-4.55.13,0,.26,2.03.3,4.54.04,2.51-.04,4.55-.17,4.55Z"/>
  <path class="cls-2" d="M139.14,65.4c-.05.05-.33-.45.04-1.13.37-.66,1.21-1.18,1.91-1.86.4-.29.46-.72.58-1.16.1-.44.24-.85.44-1.16.43-.64.99-.65.98-.58.02.06-.41.18-.69.75-.14.28-.23.65-.31,1.09-.04.22-.09.46-.18.71-.05.13-.11.25-.19.38-.09.11-.19.2-.29.3-.78.75-1.61,1.21-1.97,1.71-.37.51-.26.95-.32.96Z"/>
  <path class="cls-1" d="M143.46,63.54"/>
  <path class="cls-2" d="M139.63,68.2s-.1-.14-.17-.41c-.07-.27-.19-.7-.05-1.24.15-.58.69-.99,1.14-1.44.49-.45,1.02-.95,1.58-1.47.27-.25.51-.5.59-.79.1-.28.07-.61.02-.92-.12-.62-.32-1.24-.22-1.8.09-.56.44-.9.68-1.06.26-.16.43-.17.43-.14.01.03-.13.1-.32.29-.19.18-.43.51-.47.96-.05.46.15,1,.31,1.67.07.33.13.73,0,1.14-.12.42-.43.73-.71.99-.57.51-1.12,1-1.61,1.44-.5.45-.98.79-1.12,1.22-.15.43-.1.84-.09,1.11.02.28.03.44,0,.44Z"/>
  <path class="cls-2" d="M139.56,67.13c-.13.03-.34-.4-.47-.97s-.15-1.05-.02-1.08c.13-.03.34.4.47.97.14.57.15,1.05.02,1.08Z"/>
  <path class="cls-2" d="M119.21,64.27c.06,0,.12,1.14.1,2.98,0,1.84-.07,4.37-.16,7.18-.09,2.8-.17,5.33-.22,7.17-.06,1.83-.05,2.97-.12,2.97-.06,0-.18-1.13-.21-2.97-.03-1.84,0-4.38.09-7.18.09-2.8.2-5.34.3-7.17.1-1.83.16-2.97.23-2.97Z"/>
  <path class="cls-2" d="M119.95,69.23c-.13.01-.33-1.02-.45-2.31-.12-1.29-.12-2.34.01-2.35.13,0,.33,1.02.45,2.31.12,1.28.12,2.33-.01,2.35Z"/>
  <path class="cls-2" d="M119.93,64.65c.06.11-.07.3-.31.3-.24,0-.37-.2-.3-.31.07-.11.2-.16.31-.16.11,0,.24.06.3.17Z"/>
  <path class="cls-1" d="M119.75,64.88"/>
  <path class="cls-2" d="M113.02,63.2s-.12-.61.06-1.6c.1-.49.31-1.1.8-1.6.48-.5,1.13-.83,1.66-1.31,1.1-.94,1.8-2.09,2.18-2.96.39-.87.52-1.47.59-1.45.05,0,.04.63-.28,1.57-.32.94-1.01,2.19-2.19,3.19-.58.52-1.23.84-1.66,1.26-.44.41-.65.93-.79,1.38-.25.91-.31,1.53-.39,1.52Z"/>
  <path class="cls-2" d="M114.8,65.51s-.23-.71-.02-1.88c.21-1.14.9-2.74,2.38-3.85.36-.28.78-.48,1.05-.7.29-.22.33-.5.29-.87-.06-.75-.12-1.43-.17-2-.08-1.14-.1-1.85-.04-1.86.06,0,.2.69.37,1.82.08.57.17,1.24.27,1.99.02.19.05.41-.02.66-.06.25-.23.46-.4.61-.37.3-.74.46-1.07.72-1.36,1.02-2.06,2.48-2.34,3.54-.28,1.08-.22,1.8-.3,1.8Z"/>
  <path class="cls-2" d="M114.88,65.48c-.1.09-.67-.39-1.29-1.06-.31-.33-.58-.71-.67-1.03-.09-.32-.03-.53.03-.53.07,0,.13.17.28.4.14.23.4.52.71.85.62.67,1.04,1.29.95,1.38Z"/>
  <path class="cls-2" d="M119.44,64.74c-.13.02-.4-1.29-.61-2.93-.21-1.64-.28-2.98-.15-2.99s.4,1.3.61,2.93c.21,1.63.28,2.96.15,2.99Z"/>
  <path class="cls-2" d="M143.53,67.49c-.13.01-.34-1.05-.48-2.38-.14-1.33-.14-2.42-.01-2.43.13-.01.34,1.05.48,2.38.14,1.33.14,2.42.01,2.43Z"/>
  <g>
    <path class="cls-2" d="M119.82,52.22c.06,0,.11.78.13,2.03s.02,2.99-.01,4.9c-.05,2.84-.15,5.28-.25,6.35l-.06.59-.13-.56c-.08-.34-.22-.5-.19-.52.01-.02.22.09.37.47l-.18.02c-.06-1.07-.08-3.51-.03-6.36.03-1.91.09-3.65.15-4.9.06-1.25.14-2.03.2-2.03Z"/>
    <path class="cls-2" d="M119.97,52.2c.06,0,.11.78.13,2.03.02,1.25.02,2.99-.01,4.9-.05,2.84-.15,5.28-.25,6.35l-.06.59-.13-.56c-.08-.34-.22-.5-.19-.52.01-.02.22.09.37.47l-.18.02c-.06-1.07-.08-3.51-.03-6.36.03-1.91.09-3.65.15-4.9.06-1.25.14-2.03.2-2.03Z"/>
  </g>
  <path class="cls-2" d="M143.79,67.85c-.13,0-.26-2.03-.3-4.54-.04-2.51.04-4.55.17-4.55.13,0,.26,2.03.3,4.54.04,2.51-.04,4.55-.17,4.55Z"/>
  <path class="cls-2" d="M105.59,82.05c-.07.11-.16.19-.17.19-.02,0-.03-.13-.03-.26,0-.13.08-.22.17-.19.09.03.11.15.03.26Z"/>
  <path class="cls-2" d="M105.45,82.56c-.12.06-.28-.06-.32-.27-.03-.21.09-.37.22-.35.13.02.22.14.24.28.02.14-.03.29-.14.34Z"/>
  <path class="cls-2" d="M105.62,82.48c-.12.04-.26-.08-.29-.26-.04-.18.03-.35.16-.36.13-.01.26.1.29.26.03.16-.04.32-.16.36Z"/>
  <path class="cls-2" d="M105.33,82.13c-.13.03-.23-.03-.23-.12,0-.09.12-.13.24-.09.12.04.23.1.23.12,0,.02-.11.06-.24.09Z"/>
  <path class="cls-2" d="M109.32,84.76c-.01.13-.22.21-.41.09-.19-.12-.21-.34-.1-.41.11-.07.25-.05.35,0,.1.06.18.18.16.31Z"/>
  <path class="cls-2" d="M111.81,85.6c0,.13-.41.22-.9.13-.49-.09-.84-.31-.8-.43.04-.12.43-.11.88-.03.45.08.82.2.82.33Z"/>
  <path class="cls-2" d="M113.69,86.37c-.06.11-.3.09-.48-.1-.18-.19-.17-.43-.06-.49.12-.06.28.04.4.17.12.14.2.3.13.42Z"/>
  <path class="cls-2" d="M77.82,128.71c-.07-.17,3.79-1.26,7.79-4.01,4-2.76,6.34-6.02,6.48-5.9.04.03-.5.87-1.54,2.09-1.05,1.21-2.64,2.8-4.67,4.2-2.03,1.4-4.07,2.33-5.57,2.89-1.51.56-2.47.79-2.49.73Z"/>
  <path class="cls-2" d="M57.92,124.1s-.17-.17-.32-.56c-.15-.38-.26-.98-.41-1.67-.16-.66-.44-1.55-1.21-1.92-.77-.36-1.82.12-2.44.93-.67.82-1.02,1.82-1.73,2.6-.19.19-.48.32-.72.36-.24.04-.45.05-.61.12-.34.13-.6.42-.84.68-.96,1.08-1.58,1.72-1.63,1.68-.05-.04.48-.76,1.38-1.9.23-.28.49-.63.95-.82.48-.18.91-.11,1.18-.42.57-.64.95-1.69,1.67-2.58.36-.45.83-.83,1.36-1.03.52-.21,1.14-.23,1.63.01.5.24.81.67,1,1.07.19.41.29.81.35,1.17.11.73.17,1.29.26,1.68.09.39.17.59.14.61Z"/>
  <path class="cls-2" d="M60.34,125.53c-.11.06-.69-.82-1.29-1.96-.15-.27-.3-.52-.43-.75-.13-.22-.31-.36-.47-.48-.32-.22-.57-.29-.56-.36,0-.06.3-.11.73.07.21.09.46.25.64.49.16.24.36.52.51.8.6,1.14.99,2.12.88,2.18Z"/>
  <path class="cls-2" d="M63.4,126.5c-.09.09-1.19-.66-2.5-1.71-.35-.25-.66-.57-.85-.89-.21-.31-.37-.58-.52-.79-.3-.43-.59-.59-.56-.65.01-.06.41.01.81.44.43.4.74,1.1,1.41,1.53,1.29,1.04,2.3,1.98,2.21,2.08Z"/>
  <path class="cls-2" d="M56.07,127.31c-.02.07-.59-.08-1.51-.26-.46-.09-1-.17-1.6-.16-.3,0-.6.04-.93.1-.33.06-.71.14-1.13.06-.44-.1-.7-.34-.95-.32-.27,0-.58.12-.9.18-.63.14-1.22.16-1.7.12-.97-.08-1.52-.35-1.5-.4.02-.07.59.08,1.51.07.46,0,1.01-.06,1.59-.21.29-.06.59-.21,1.01-.22.46,0,.77.29,1.04.32.59.1,1.32-.18,1.97-.13.65.02,1.22.14,1.68.27.92.27,1.45.53,1.43.58Z"/>
  <path class="cls-1" d="M57.52,126.53"/>
  <path class="cls-2" d="M55.3,127.04c0-.08.36-.04.72-.22.16-.1.32-.3.2-.5-.07-.11-.12-.3-.16-.5-.06-.2-.07-.37-.1-.56-.21-1.5-.28-2.72-.15-2.74.13-.02.4,1.18.61,2.68.03.18.04.38.08.52.03.15.05.3.13.48.09.17.03.46-.08.6-.11.16-.25.26-.4.31-.58.15-.86-.05-.86-.08Z"/>
  <path class="cls-2" d="M59.5,126.81c.08,0-.03.32-.41.29-.4,0-.66-.45-.89-.6-.55-.33-1.29-.25-1.28-.41,0-.06.15-.14.43-.18.26-.04.7-.06,1.12.21.41.32.51.62.69.66.18.08.29,0,.35.03Z"/>
  <path class="cls-2" d="M69.47,128.13c-.02.06-.72-.11-1.84-.44-.56-.17-1.22-.38-1.96-.6-.37-.11-.76-.27-1.12-.33-.19-.03-.34-.02-.54.04-.19.05-.41.15-.7.15-.29,0-.51-.11-.69-.14-.16-.03-.33,0-.52.06-.36.13-.82.28-1.23.28-.41.01-.78-.04-1.13-.1-.17-.04-.32-.03-.54-.14-.23-.14-.26-.36-.3-.49-.32-1.12-.49-1.82-.43-1.84.06-.02.34.65.75,1.74.05.14.1.25.16.27.06.03.26.05.42.07.34.04.69.08,1.05.06.37-.01.69-.12,1.11-.28.21-.07.47-.13.74-.08.25.05.44.13.6.13.16,0,.36-.07.58-.13.22-.07.5-.08.73-.04.46.09.82.25,1.19.37.72.26,1.38.5,1.92.7,1.09.41,1.76.69,1.74.76Z"/>
  <path class="cls-2" d="M50.09,126.62c-.03-.06.27-.22.71-.47.44-.27,1.01-.6,1.27-1.35.14-.36.41-.68.62-.97.22-.28.44-.49.62-.68.37-.37.62-.58.67-.54.05.04-.11.33-.41.75-.15.21-.34.46-.54.73-.18.27-.41.54-.55.93-.14.35-.4.74-.7.96-.29.23-.59.37-.84.47-.5.19-.83.23-.85.17Z"/>
  <path class="cls-2" d="M75.05,122.07c-.06.03-.45-.62-1.03-1.68-.31-.51-.57-1.25-1.13-1.69-.55-.45-1.47-.23-2.09.36-.33.29-.61.63-.91.96-.28.31-.62.71-1.13.79-.48.05-.84-.07-1.12.01-.29.08-.52.29-.71.5-.73.93-1.2,1.56-1.25,1.51-.04-.04.3-.69,1-1.72.19-.25.45-.53.86-.66.42-.13.84,0,1.16-.07.31-.05.58-.34.86-.67.28-.33.57-.69.94-1.01.36-.33.82-.58,1.3-.67.48-.1,1.01.02,1.37.32.69.62.87,1.35,1.16,1.88.51,1.11.79,1.8.74,1.83Z"/>
  <path class="cls-2" d="M78.05,123.1c-.12.06-.69-.94-1.65-1.93-.47-.5-.96-.87-1.36-1.04-.4-.18-.68-.17-.69-.24-.02-.05.29-.19.79-.08.5.11,1.09.5,1.59,1.03,1.03,1.06,1.43,2.21,1.31,2.25Z"/>
  <path class="cls-2" d="M73.43,120.06c.06-.01.19.34.35.93.07.29.19.65.17,1.1-.02.43-.25,1.03-.87,1.2-.58.12-1-.1-1.35-.1-.36-.02-.69.06-1.01.11-.16.03-.41-.02-.5-.17-.09-.13-.11-.23-.14-.3-.05-.15-.11-.2-.1-.23,0-.03.14-.02.26.14.06.07.11.16.18.22.06.05.12.05.25.02.27-.08.63-.21,1.08-.21.45,0,.89.17,1.22.08.33-.07.52-.44.55-.78.04-.35-.03-.7-.06-1-.08-.6-.09-.98-.03-.99Z"/>
  <path class="cls-2" d="M75.01,121.7c0-.06.2-.1.33.11.06.1.1.24.06.41-.05.17-.17.3-.31.38-.31.17-.55.08-.71.05-.17-.04-.27-.1-.27-.16,0-.06.09-.12.25-.17.15-.05.39-.05.51-.13.26-.13.16-.39.15-.49Z"/>
  <path class="cls-2" d="M70.73,123.01c-.04.06-.38-.12-.99-.07-.3.02-.66.09-1.09.15-.42.06-.92.12-1.46-.06-.29-.1-.46-.25-.56-.22-.14.01-.37.13-.58.19-.42.13-.82.18-1.15.19-.66.01-1.05-.14-1.04-.2,0-.07.4-.04,1.01-.13.3-.05.66-.13,1.03-.27.19-.06.35-.18.67-.24.16-.03.36.03.47.09.12.07.2.1.3.14.81.25,1.73-.05,2.39.02.69.03,1.03.36.99.4Z"/>
  <path class="cls-2" d="M81.99,122.21c.04.05-.26.32-.77.71-.13.09-.26.21-.47.3-.21.1-.53.07-.73-.03-.39-.18-.78-.31-1.23-.34-.44-.04-.88.08-1.3.15-.43.08-.84.06-1.17,0-.66-.13-.99-.39-.97-.44.03-.07.4.07,1.01.11.31.02.66,0,1.06-.09.4-.09.86-.23,1.4-.19.51.02,1.02.21,1.38.41.18.08.28.1.43.06.14-.04.28-.13.42-.21.55-.32.91-.49.95-.43Z"/>
  <path class="cls-2" d="M95.52,134.94c.02.05-.31.25-.92.25-.3,0-.67-.08-1.03-.24-.36-.15-.71-.35-1.09-.44-.38-.09-.76-.08-1.07.02-.32.1-.62.28-.9.38-.58.25-1,.04-.96-.02.02-.06.35,0,.82-.28.24-.13.51-.33.89-.49.39-.15.87-.18,1.33-.06.47.12.83.35,1.16.5.32.16.61.26.88.3.53.08.88.01.89.08Z"/>
  <path class="cls-2" d="M65.14,133.27s-.16-.02-.34-.2c-.18-.18-.36-.51-.51-.9-.15-.4-.34-.84-.69-1.23-.34-.38-.85-.76-1.39-.82-.28-.03-.49.04-.69.23-.19.18-.44.44-.7.58-.51.27-.85.54-1.1.87-.49.64-.55,1.19-.62,1.17-.05,0-.12-.58.35-1.36.22-.38.67-.78,1.14-1.05.23-.14.38-.32.63-.56.24-.25.67-.41,1.04-.35,1.5.28,2.17,1.61,2.35,2.41.19.83.56,1.16.54,1.21Z"/>
  <path class="cls-2" d="M68.7,133.23c-.04.13-1.18-.25-2.5-.78-.16-.05-.31-.09-.47-.12-.18-.03-.36-.06-.52-.09-.38-.15-.55-.4-.72-.56-.32-.35-.5-.59-.46-.64s.3.1.68.39c.19.14.4.34.63.4.14.02.29.03.45.05.18.02.38.07.56.13,1.38.54,2.39,1.1,2.35,1.22Z"/>
  <path class="cls-2" d="M66.44,133.16c0,.11-1.64.27-3.72.22-.53,0-.99-.07-1.42-.12-.44-.03-.84.01-1.18,0-.75-.03-1.06-.51-.99-.53.05-.05.35.26.99.2.34-.03.72-.12,1.17-.1.45.02.96.08,1.46.08,2.01.06,3.7.11,3.69.25Z"/>
  <path class="cls-2" d="M65.87,137.62c.02.05-.41.23-1.13.21-.72,0-1.67-.26-2.67-.3-1.01-.09-1.8.49-2.58.56-.77.09-1.16-.32-1.1-.35.03-.06.41.18,1.05.03.31-.07.67-.24,1.1-.42.43-.19.99-.31,1.54-.28,1.11.06,2.01.37,2.69.44.67.1,1.09.05,1.1.12Z"/>
  <g>
    <path class="cls-2" d="M22.76,144.73s-.51.34-1.43.18c-.45-.07-.96-.24-1.49-.47-.55-.22-1.08-.57-1.66-.48-.3.03-.61.12-.94.17-.33.05-.65.05-.95.02-.59-.06-1.09-.16-1.52-.24-.86-.16-1.38-.29-1.37-.35s.55-.05,1.42.02c.43.03.95.1,1.51.13.57.06,1.09-.12,1.81-.23.36-.05.75.03,1.05.16.31.13.57.27.83.39.51.25.98.44,1.38.54.81.23,1.34.07,1.36.14Z"/>
    <path class="cls-2" d="M23.62,142.86c-.06.04-.2-.12-.48-.22-.29-.11-.69-.12-1.17.02-.47.13-.95.3-1.32.31-.37.02-.59-.08-.58-.14.01-.07.22-.09.53-.18.31-.09.72-.28,1.25-.44.53-.16,1.12-.1,1.44.13.33.23.38.5.33.52Z"/>
    <path class="cls-2" d="M27.09,124.07s-.12.31-.4.82c-.3.51-.72,1.24-1.25,2.14-1.07,1.8-2.58,4.27-4.27,6.98-1.69,2.71-3.24,5.15-4.39,6.9-.58.87-1.03,1.59-1.39,2.06-.37.47-.64.66-.66.64-.02-.03.2-.26.51-.75.31-.49.72-1.23,1.26-2.13,1.07-1.8,2.58-4.27,4.27-6.98s3.24-5.15,4.39-6.9c.58-.87,1.05-1.57,1.37-2.06.33-.48.53-.74.56-.72Z"/>
    <path class="cls-2" d="M27.58,124.64c.06.04-.57,1.12-1.59,2.85-1.03,1.74-2.45,4.13-4.02,6.78-1.56,2.65-2.96,5.06-3.98,6.8-1.02,1.74-1.67,2.81-1.73,2.78-.03-.02.09-.3.34-.81.25-.51.62-1.24,1.09-2.13.95-1.78,2.3-4.22,3.87-6.88,1.57-2.65,3.04-5.02,4.14-6.71.55-.85,1.01-1.53,1.33-1.99.32-.46.52-.71.54-.69Z"/>
    <path class="cls-2" d="M27.69,124.68c-.07.11-.34.06-.61-.12-.26-.17-.42-.4-.35-.51s.34-.06.61.12c.26.17.42.4.35.51Z"/>
    <path class="cls-2" d="M20.16,136.04c.11.07-.88,1.75-2.19,3.75-1.32,2-2.47,3.56-2.58,3.49-.11-.07.87-1.75,2.19-3.75,1.32-2,2.48-3.57,2.58-3.49Z"/>
    <path class="cls-2" d="M18.58,138.95c.12.05-.28,1.19-1.01,2.47-.73,1.28-1.52,2.2-1.62,2.12-.11-.08.49-1.1,1.21-2.35.72-1.26,1.3-2.29,1.42-2.24Z"/>
    <path class="cls-2" d="M27.23,124.37c.06.03-.3.73-.91,1.83-.62,1.1-1.49,2.61-2.49,4.26-.99,1.65-1.92,3.13-2.61,4.19-.69,1.06-1.14,1.7-1.2,1.66s.3-.73.91-1.84c.62-1.1,1.49-2.61,2.49-4.26.99-1.65,1.92-3.13,2.6-4.19.69-1.06,1.14-1.7,1.2-1.67Z"/>
    <path class="cls-2" d="M16.48,143.44c-.03.12-.31.19-.61.15-.3-.04-.55-.18-.55-.31,0-.13.27-.2.61-.15.33.05.58.18.55.31Z"/>
    <path class="cls-2" d="M16.77,141.07c.1.08-.18.65-.64,1.29s-.91,1.09-1.02,1.02c-.1-.08.18-.65.64-1.29.46-.64.91-1.09,1.02-1.02Z"/>
    <path class="cls-2" d="M16.66,141.86c.11.07-.1.52-.47,1.02-.37.49-.75.82-.85.73-.1-.09.12-.54.47-1.02.36-.47.74-.8.85-.73Z"/>
    <path class="cls-2" d="M20.5,135.53c.11.07-.26.8-.72,1.67-.47.87-.87,1.57-.99,1.52-.12-.05.1-.85.58-1.74.48-.89,1.03-1.52,1.14-1.44Z"/>
    <path class="cls-2" d="M27.55,124.5c.12.06-.03.52-.33,1.03-.3.51-.62.86-.73.79-.11-.07.04-.53.33-1.03.29-.5.62-.85.73-.79Z"/>
    <path class="cls-2" d="M25.96,126.33c-.12-.04-.03-.58.28-1.16.3-.58.7-.95.8-.88.11.08-.1.55-.39,1.1-.29.55-.57.98-.69.94Z"/>
    <path class="cls-2" d="M35.55,131.47c-.06.11-4.21-2.06-9.25-4.84-5.05-2.79-9.09-5.14-9.03-5.25s4.21,2.06,9.25,4.84c5.05,2.79,9.09,5.14,9.03,5.25Z"/>
    <path class="cls-2" d="M34.67,126.19s-.48-.22-.96-.9c-.47-.67-.95-1.73-1.06-2.99-.07-1.27.18-2.33.02-3.09-.12-.75-.41-1.17-.34-1.21.04-.04.44.33.66,1.14.25.82.05,1.97.12,3.12.1,1.17.5,2.19.88,2.86.38.68.73,1.02.68,1.08Z"/>
    <path class="cls-2" d="M34.74,126.21s-.46.27-1.25.12c-.78-.12-1.85-.81-2.27-2-.42-1.2-.21-2.28-.09-3.02.17-.73-.06-1.12-.02-1.16.02-.02.13.05.24.26.1.21.14.55.11.93-.04.73-.17,1.82.2,2.82.38,1.03,1.23,1.65,1.92,1.84.69.21,1.16.12,1.17.2Z"/>
    <path class="cls-2" d="M31.1,120.28c-.11-.06.07-.62.41-1.25.34-.63.71-1.09.82-1.03.11.06-.07.63-.41,1.25-.34.63-.71,1.09-.82,1.03Z"/>
    <ellipse class="cls-2" cx="25.58" cy="126.19" rx="2.55" ry=".23" transform="translate(-96.62 85.62) rotate(-60.18)"/>
    <path class="cls-2" d="M25.33,128.41c-.11-.07.34-.99,1.01-2.06.67-1.07,1.3-1.89,1.41-1.82.11.07-.34.99-1.01,2.06s-1.3,1.89-1.41,1.82Z"/>
    <path class="cls-2" d="M33.17,115.12c.11.07-1.11,2.17-2.72,4.7-1.61,2.53-3.01,4.52-3.12,4.45-.11-.07,1.11-2.18,2.72-4.7,1.61-2.53,3.01-4.52,3.12-4.45Z"/>
    <path class="cls-2" d="M32.33,118.09c-.14.02-.28-.7-.03-1.5.24-.81.65-1.35.76-1.29.12.06-.09.68-.31,1.42-.23.74-.3,1.36-.42,1.37Z"/>
    <path class="cls-2" d="M31.19,120.15c.09.09-.72,1.12-1.82,2.31-1.1,1.19-2.07,2.08-2.16,1.99-.09-.09.72-1.12,1.82-2.31,1.1-1.19,2.07-2.08,2.16-1.99Z"/>
    <path class="cls-2" d="M41.04,145.66c0,.13-1.85.14-4.12.03-.55-.02-1.17-.07-1.64-.32-.45-.24-.8-.39-1.15-.4-.7-.03-1.18.08-1.19,0,0-.04.4-.27,1.19-.33.4-.04.9.14,1.32.34.42.2.9.23,1.48.25,2.27.11,4.1.31,4.09.44Z"/>
    <path class="cls-2" d="M41.19,137.92c.1.09-1.23,1.72-2.96,3.66-1.73,1.94-3.21,3.43-3.31,3.35-.1-.09,1.23-1.72,2.96-3.66,1.73-1.94,3.21-3.43,3.31-3.35Z"/>
    <path class="cls-2" d="M41.48,138.21c.1.08-1.19,1.72-2.88,3.67-1.69,1.95-3.14,3.45-3.24,3.36-.09-.09,1.2-1.73,2.88-3.67,1.69-1.94,3.14-3.44,3.24-3.36Z"/>
    <path class="cls-2" d="M46.8,142.83c-.08.1-2.49-1.8-5.39-4.24-2.89-2.44-5.17-4.5-5.08-4.6.08-.1,2.49,1.8,5.39,4.24,2.89,2.44,5.17,4.5,5.08,4.6Z"/>
    <path class="cls-2" d="M36.41,143.48c.1.08-.11.52-.47.99-.25.32-.5.57-.67.67l-.14.08-.03-.08c-.08-.22.11-.23.1-.19-.01.04.09.07.03.07l-.13-.03c.05-.19.23-.5.48-.82.36-.47.74-.79.84-.71Z"/>
    <path class="cls-2" d="M40.57,139.22c-.11-.06-.06-.37.17-.65.23-.28.52-.39.6-.29.08.1-.04.35-.24.59-.2.24-.42.41-.53.35Z"/>
    <path class="cls-2" d="M37.54,135.24s.07.05.02.13c-.04.07-.15.12-.26.12-.21,0-.47-.11-.65-.35-.19-.23-.19-.55-.17-.65.02-.12,0-.18.03-.25.02-.07.2-.03.29.16.09.19.11.32.22.46.1.14.24.24.33.3.07.05.1.08.18.08Z"/>
    <path class="cls-2" d="M40.3,137.45c0,.06-.22.12-.58.12-.35,0-.89-.04-1.4-.36-.51-.3-.8-.88-.78-1.24-.04-.37,0-.58.05-.59.07-.02.15.2.27.51.08.33.31.66.71.92.81.47,1.75.46,1.72.63Z"/>
    <path class="cls-2" d="M39.77,136.96c.02.13-.72.23-1.34-.35-.58-.56-.75-1.15-.66-1.21.12-.08.49.41.97.86.48.45,1.04.56,1.03.69Z"/>
    <path class="cls-2" d="M44.65,141.03s-.22.26-.73.32c-.49.06-1.25-.08-1.82-.64-.57-.59-.69-1.28-.84-1.71-.13-.45-.18-.74-.12-.76.06-.02.22.22.43.64.22.41.41,1.05.86,1.49.46.45,1.06.62,1.48.65.43.03.71-.06.74,0Z"/>
    <path class="cls-2" d="M44.28,140.87c.01.06-.19.16-.51.1-.32-.05-.74-.3-1.03-.66-.57-.74-.84-1.39-.74-1.46.11-.09.59.5,1.1,1.16.51.68,1.17.76,1.19.87Z"/>
    <path class="cls-2" d="M43.15,140.76c-.08.1-.51-.14-.9-.59-.38-.45-.55-.91-.44-.98.11-.07.44.25.8.67.36.42.63.79.54.89Z"/>
    <path class="cls-2" d="M42.17,139.49c-.1.09-.29.03-.43-.13-.14-.16-.18-.36-.09-.45s.29-.03.43.13.18.36.09.45Z"/>
    <path class="cls-2" d="M44.71,134.5c.09.09-.58.97-1.52,1.96-.93,1-1.76,1.73-1.86,1.65s.58-.97,1.52-1.96c.93-1,1.76-1.73,1.86-1.65Z"/>
    <path class="cls-2" d="M44.68,134.5c.1.1-.65.93-1.55,1.94-.91,1.01-1.54,1.9-1.65,1.84-.12-.06.36-1.11,1.3-2.15.93-1.04,1.82-1.72,1.9-1.63Z"/>
    <path class="cls-2" d="M43.14,147.32s-.45-.31-.98-1.01c-.52-.69-1.15-1.76-1.47-3.07-.33-1.31-.24-2.57,0-3.41.23-.85.56-1.3.61-1.28.07.03-.14.52-.28,1.35-.15.82-.18,1.99.13,3.23.64,2.49,2.14,4.1,2,4.19Z"/>
    <path class="cls-2" d="M16.2,138.43c-.06,0-.13-.91-.13-2.4,0-1.48.11-3.53.4-5.77.29-2.24.7-4.25,1.07-5.69.37-1.44.67-2.3.73-2.29.07.02-.12.91-.4,2.36-.28,1.45-.64,3.45-.93,5.68-.28,2.23-.44,4.26-.53,5.73-.09,1.47-.14,2.38-.2,2.38Z"/>
    <path class="cls-2" d="M29.63,144.62s-.34-.08-.89-.35c-.56-.26-1.33-.73-2.18-1.43-1.71-1.38-3.66-3.88-4.73-7.1-1.08-3.21-1.19-6.3-1.09-8.48.05-1.1.14-1.98.23-2.58.09-.61.16-.94.19-.93.08,0-.07,1.35-.08,3.52,0,2.16.16,5.19,1.21,8.32,1.04,3.13,2.89,5.58,4.5,6.99,1.62,1.44,2.9,1.94,2.85,2.02Z"/>
    <path class="cls-2" d="M36.65,138.13s-.25.11-.74.16c-.48.05-1.2.06-2.06-.11-.86-.17-1.86-.51-2.84-1.16-.97-.64-1.92-1.57-2.53-2.78-1.19-2.42-1.41-4.88-1.32-6.61.05-.87.16-1.56.27-2.03.11-.47.2-.72.23-.72.08.02-.16,1.06-.18,2.75,0,1.68.27,4.08,1.4,6.38,1.17,2.29,3.42,3.46,5.02,3.83,1.64.4,2.72.18,2.72.27Z"/>
    <path class="cls-2" d="M35.47,148.55s-.34-.15-.87-.55c-.53-.4-1.25-1.05-1.99-1.97-1.53-1.83-2.96-4.85-3.9-8.32-.51-1.72-.86-3.4-1.18-4.93-.23-1.56-.24-2.97-.19-4.15.05-1.18.14-2.13.21-2.78.07-.65.13-1.01.17-1.01.08,0-.02,1.46-.05,3.8,0,1.17.04,2.56.29,4.07.34,1.5.7,3.16,1.2,4.88.93,3.44,2.28,6.4,3.71,8.24,1.4,1.86,2.66,2.65,2.6,2.72Z"/>
    <path class="cls-2" d="M31.99,148.74c-.03.07-.36-.09-.88-.07-.26,0-.54.1-.91.22-.18.05-.4.11-.65.1-.26,0-.44-.13-.67-.19-.76-.31-1.53-.31-2.1-.4-.28-.04-.51-.07-.68-.16-.17-.09-.19-.22-.16-.23.03-.02.09.04.22.06.13.02.36,0,.64,0,.55,0,1.38-.06,2.24.29.18.05.38.17.53.17.16.01.34-.02.51-.06.34-.09.72-.17,1.03-.13.62.07.9.35.87.4Z"/>
    <path class="cls-2" d="M57.65,148.55s-.33.07-.93.11c-.6.04-1.47.08-2.55.09-1.08.02-2.36.01-3.78-.08-1.43-.05-2.99-.42-4.56-.24-.75.1-1.61.38-2.41.26-.78-.1-1.48-.12-2.18-.04-1.39.16-2.7.31-3.78.28-1.08-.01-1.95-.11-2.55-.21-.6-.1-.92-.19-.91-.22.01-.08,1.33.14,3.46.09,1.07-.01,2.31-.18,3.74-.37.71-.09,1.51-.07,2.26.01.75.11,1.46-.15,2.32-.27,1.71-.18,3.24.21,4.65.28,1.41.11,2.68.15,3.76.18,1.07.02,1.94.04,2.54.06.6.02.93.04.93.08Z"/>
    <path class="cls-1" d="M33.39,139.03"/>
  </g>
  <path class="cls-2" d="M146.35,130.46s-.05-.19-.18-.5c-.12-.32-.39-.72-.69-1.29-.06-.15-.15-.31-.14-.55,0-.27.28-.47.48-.51.42-.14.89.01,1.26.19.38.16.81.43,1.11.79.29.35.58.52,1.04.58.43.06.93.07,1.38.2.45.11.87.28,1.24.48.75.4,1.33.89,1.79,1.31.91.86,1.37,1.48,1.33,1.52-.05.05-.61-.49-1.55-1.27-.95-.78-2.34-1.76-4.27-1.78-.25-.04-.51-.1-.74-.24-.24-.13-.42-.33-.56-.49-.27-.33-.59-.53-.95-.71-.36-.18-.69-.29-.98-.2-.15.04-.21.09-.22.18-.02.1.03.25.08.38.24.55.49,1.01.56,1.37.08.35.03.56,0,.56Z"/>
  <path class="cls-2" d="M140.11,132.48s.17-.38.69-.75c.51-.37,1.29-.75,2.18-1.06.88-.31,1.74-.52,2.37-.52.63-.02,1.01.11,1,.17,0,.07-.38.06-.97.16-.59.08-1.37.32-2.25.63-.87.3-1.63.62-2.16.9-.53.27-.81.51-.86.47Z"/>
  <path class="cls-2" d="M149.99,132.63c0,.06-.83.13-2.17.14-.67,0-1.48-.03-2.37-.15-.91-.06-1.85-.57-2.75-.34-1.99.45-3.81.82-5.17.9-.68.04-1.24-.02-1.61-.12-.37-.1-.56-.19-.55-.22.02-.09.82.18,2.13,0,1.31-.16,3.11-.58,5.1-1.03.55-.15,1.11-.04,1.58.08.48.13.9.23,1.33.3.86.14,1.65.2,2.31.25,1.33.08,2.16.12,2.16.19Z"/>
  <path class="cls-2" d="M156.92,132.89c0,.06-.33.16-.9.15-.28,0-.65-.07-.98-.21-.16-.06-.33-.13-.51-.2-.16-.05-.33-.05-.52-.04-.38.03-.76.14-1.14.18-.37.05-.71.05-.99.04-.56-.04-.89-.15-.88-.21,0-.07.35-.07.88-.12.27-.03.58-.06.92-.13.34-.06.72-.19,1.17-.22.23-.02.47,0,.68.07.19.08.36.17.54.24.32.16.6.23.86.29.52.09.86.11.86.18Z"/>
  <path class="cls-2" d="M162.36,131.33c-.03.06-.25.02-.6.02-.35,0-.83.06-1.38.16-.55.09-1.11.12-1.48.04-.36-.06-.59-.13-.59-.2,0-.06.22-.11.6-.13.37,0,.83-.08,1.4-.17.56-.09,1.11-.12,1.49-.02.39.09.59.25.56.31Z"/>
  <path class="cls-2" d="M156.24,136.99c-.05.13-1.16-.25-2.57-.36-1.41-.12-2.56.09-2.6-.05-.04-.11,1.13-.54,2.63-.42,1.5.11,2.59.72,2.53.82Z"/>
  <path class="cls-2" d="M175.19,137.27c-.06.04-.44-.44-1.12-1.14-.68-.68-1.72-1.6-3.11-2.02-.68-.21-1.42-.25-2.07-.48-.68-.21-1.15-.69-1.48-1.04-.65-.75-1.21-.93-1.21-.99,0-.03.17-.04.44.07.28.1.62.35.99.68.38.33.79.7,1.38.87.59.19,1.31.21,2.07.44,1.53.47,2.58,1.49,3.22,2.25.64.77.93,1.33.88,1.36Z"/>
  <path class="cls-2" d="M166.94,134.49c-.07-.02-.06-.19-.12-.44-.05-.25-.18-.57-.36-.94-.18-.37-.34-.75-.37-1.05-.04-.3.03-.49.09-.49.07,0,.12.16.23.4.1.24.29.55.48.94.19.39.3.81.26,1.12-.03.31-.16.47-.21.45Z"/>
  <path class="cls-2" d="M160.75,137.24c-.1-.07.9-1.36,2.68-2.21,1.77-.87,3.41-.84,3.4-.72.02.14-1.52.31-3.2,1.14-1.69.8-2.79,1.89-2.89,1.79Z"/>
  <path class="cls-2" d="M166.49,138.22c-.04.13-1.77-.5-3.98-.43-1.1.01-2.07.28-2.85.28-.78.01-1.21-.26-1.18-.31.03-.07.46.07,1.16-.02.7-.08,1.7-.4,2.86-.41,2.33-.07,4.06.79,3.99.89Z"/>
  <path class="cls-2" d="M171.7,136.33c-.06.04-.2-.1-.47-.26-.26-.16-.66-.33-1.12-.49-.47-.16-.92-.35-1.2-.58-.28-.22-.38-.43-.34-.47.05-.05.22.06.51.18.29.13.7.25,1.19.42.49.17.93.41,1.18.67.25.26.31.49.26.52Z"/>
  <path class="cls-2" d="M189.83,135.32c-.07.02-.22-.57-.88-1.23-.32-.33-.76-.67-1.28-1.03-.52-.36-1.08-.76-1.71-1.06-.34-.15-.67-.3-.99-.45-.33-.16-.6-.41-.83-.63-.46-.46-.82-.87-1.2-1.14-.75-.54-1.35-.66-1.33-.73,0-.05.64-.06,1.51.46.43.25.85.68,1.31,1.1.23.2.46.41.76.54.31.14.63.28.96.42.7.32,1.26.76,1.77,1.13.51.38.96.77,1.27,1.16.65.78.68,1.45.63,1.45Z"/>
  <path class="cls-2" d="M183.24,131.91c-.12,0-.33-.6-.82-1.3-.47-.72-.77-1.37-.66-1.44.11-.07.58.46,1.06,1.19.52.74.57,1.55.42,1.55Z"/>
  <path class="cls-2" d="M175.28,134.19c-.09-.07,1.25-1.53,3.53-2.24,2.27-.74,4.22-.31,4.18-.21,0,.15-1.88-.05-4.03.65-2.16.67-3.58,1.91-3.67,1.8Z"/>
  <path class="cls-2" d="M191.48,135.07c0,.06-.32.16-.87.17-.27,0-.63-.03-.98-.16-.35-.12-.69-.28-1.03-.3-.71-.02-1.44.33-2.02.29-.59,0-.89-.28-.85-.32.03-.06.33.07.83,0,.5-.03,1.14-.44,2.07-.43.48.03.85.24,1.16.36.31.13.59.19.85.23.51.07.85.09.85.16Z"/>
  <path class="cls-2" d="M180.07,118.32c-.06.02-.38-.67-.86-1.81-.27-.53-.42-1.37-.97-1.75-.28-.2-.59-.14-.94.11-.35.23-.66.53-.95.88-.58.7-1.01,1.48-1.45,2.17-.44.69-.83,1.3-1.16,1.82-.67,1.03-1.12,1.65-1.17,1.62-.06-.03.29-.71.89-1.79.31-.53.67-1.17,1.08-1.87.42-.69.84-1.49,1.46-2.25.31-.37.67-.71,1.06-.96.2-.13.42-.25.69-.28.28-.03.54.06.74.2.4.28.58.7.71,1.04.12.34.23.66.33.95.39,1.17.61,1.9.55,1.92Z"/>
  <path class="cls-2" d="M177.04,117.41c-.06.01-.16-.16-.18-.47-.02-.3.06-.73.24-1.13.37-.81.8-1.34.91-1.29.12.06-.13.73-.48,1.48-.36.75-.37,1.38-.49,1.41Z"/>
  <path class="cls-2" d="M183.36,122.42s.05-.12.07-.31c.02-.19-.03-.47-.19-.79-.34-.63-.9-1.58-1.87-2.04-.48-.22-1.03-.26-1.52-.33-.49-.06-.94-.1-1.32-.13-.75-.06-1.23-.08-1.23-.15,0-.06.47-.16,1.24-.18.39-.01.85,0,1.36.03.5.05,1.08.07,1.68.33,1.17.57,1.69,1.63,1.99,2.34.14.38.15.74.06.97-.09.23-.23.29-.24.27Z"/>
  <path class="cls-2" d="M176.91,121.9c-.05.13-1.29-.47-2.9-.32-.78.04-1.49.38-2.11.32-.59-.05-.88-.3-.86-.34.03-.07.35.05.86.01.49-.01,1.18-.39,2.07-.46,1.77-.16,3.03.69,2.94.79Z"/>
  <path class="cls-2" d="M186.01,122.53c-.03.06-.39-.09-1-.18-.6-.1-1.45-.11-2.39.01-.94.12-1.8.29-2.44.33-.64.05-1.04,0-1.04-.05,0-.07.38-.14.99-.27.61-.13,1.46-.34,2.43-.47.97-.13,1.9-.07,2.52.13.63.19.95.45.92.5Z"/>
  <path class="cls-2" d="M190.98,118.65c-.07.02-.22-.42-.63-1.03-.2-.28-.47-.71-.8-.85-.25-.17-.6.39-.91.82-.58.93-.97,1.92-1.41,2.55-.43.64-.84.92-.87.88-.05-.05.25-.4.59-1.05.35-.64.67-1.62,1.3-2.64.16-.25.34-.48.53-.69.1-.1.21-.22.4-.29.18-.07.39-.04.53.03.29.14.46.36.59.54.13.19.24.37.33.54.35.69.4,1.18.34,1.19Z"/>
  <path class="cls-2" d="M194.84,122.19c.01.05-.44.1-.85-.41-.2-.26-.27-.62-.4-.91-.13-.31-.33-.64-.56-.99-.22-.36-.41-.64-.69-.71-.3-.08-.66-.13-.92-.19-.54-.12-.87-.22-.86-.29s.35-.07.9-.04c.28.03.58.03.99.11.46.1.77.54.97.88.22.36.43.72.56,1.09.13.38.16.69.28.89.24.43.6.52.57.59Z"/>
  <path class="cls-2" d="M196.53,122.18c0,.06-.64.21-1.71.24-.53.01-1.17,0-1.88-.09-.71-.08-1.46-.25-2.23-.26-.39-.01-.73.05-1.13.12-.39.06-.87.04-1.21-.25-.17-.13-.3-.34-.33-.56-.03-.21,0-.4.05-.56.09-.31.21-.59.33-.83.5-.98,1.05-1.4,1.08-1.36.06.05-.39.54-.78,1.5-.14.45-.52,1.18-.08,1.47.44.38,1.22-.03,2.08,0,.85.01,1.6.2,2.28.3.68.1,1.3.16,1.82.18,1.04.05,1.7.02,1.71.09Z"/>
  <path class="cls-2" d="M184.73,121.4c0-.07.18-.14.46-.28.28-.13.68-.39,1.27-.41.29-.01.6.12.77.26.18.13.31.24.43.28.25.1.39,0,.45.03.08.02-.09.34-.52.29-.21-.02-.41-.14-.59-.24-.18-.1-.33-.15-.54-.15-.42,0-.83.19-1.17.26-.34.08-.56.03-.56-.03Z"/>
  <path class="cls-1" d="M191.46,118.85"/>
  <path class="cls-2" d="M190.62,120.25c.14-.04.31.5.58,1,.28.51.73.65.73.77,0,.06-.15.13-.4.06-.25-.06-.54-.27-.73-.6-.35-.66-.29-1.22-.18-1.24Z"/>
  <path class="cls-2" d="M179.88,120.56c.09.04.04.65.67.97.29.16.65.26.88.39.23.11.36.21.34.27-.02.06-.2.07-.45.04-.25-.04-.6-.07-1-.29-.4-.21-.64-.63-.64-.94,0-.32.14-.47.2-.44Z"/>
  <g>
    <path class="cls-2" d="M196.08,139.43c.01.05-.78.32-2.13.45-1.33.16-3.26.05-5.22-.41-.98-.22-1.93-.17-2.8-.1-.87.07-1.67.15-2.35.16-1.36.04-2.18-.26-2.16-.3.02-.08.82.1,2.14-.03.66-.05,1.44-.17,2.32-.26.87-.09,1.9-.16,2.91.07,2.01.46,3.8.61,5.13.54,1.32-.05,2.14-.2,2.15-.12Z"/>
    <path class="cls-2" d="M211.74,132.01s-.41.43-1.39.37c-.48-.02-1.03-.19-1.66-.32-.62-.13-1.42-.16-2.18-.58-.77-.39-1.45-1.04-2.13-1.72-.68-.66-1.42-1.48-2.33-1.84-.2-.07-.48,0-.76,0-.32.01-.65-.09-.92-.24-.55-.31-.97-.74-1.37-1.21-.2-.24-.38-.48-.55-.75-.17-.26-.33-.6-.33-.98,0-.38.17-.71.35-.98.16-.24.31-.53.5-.8.1-.14.21-.27.35-.4.14-.13.35-.22.53-.24.38-.05.67,0,.98.03.61.06,1.22.11,1.81.17.59.06,1.18.1,1.76.28.6.16,1.1.58,1.46.99.19.2.38.41.54.65.17.24.26.52.35.75.15.46.48.78.83,1.13.7.68,1.32,1.34,1.94,1.85.61.52,1.3.81,1.86,1.19.56.39.92.92,1,1.4.09.5-.16.87-.34,1.03-.19.17-.32.2-.32.2-.01-.02.1-.09.25-.27.15-.17.34-.5.23-.93-.1-.42-.44-.89-.97-1.22-.53-.35-1.25-.62-1.92-1.15-.67-.52-1.3-1.17-2.01-1.83-.34-.32-.76-.72-.95-1.26-.16-.51-.42-.86-.81-1.26-.37-.4-.76-.72-1.28-.86-.51-.15-1.09-.2-1.68-.25-.59-.05-1.19-.11-1.79-.16-.3-.02-.63-.07-.87-.03-.24.03-.4.2-.58.45-.17.24-.32.51-.5.79-.16.24-.28.49-.28.73,0,.48.42.98.76,1.43.37.44.78.86,1.23,1.11.23.12.46.2.7.19.28,0,.56-.08.89.02,1.13.47,1.79,1.3,2.48,1.98.67.7,1.31,1.32,2.01,1.7.69.4,1.44.46,2.08.61.65.16,1.18.34,1.62.39.91.12,1.36-.23,1.37-.19Z"/>
    <path class="cls-2" d="M195.62,130.85s-.28-.35-.29-1.05c0-.35.1-.77.32-1.17.22-.41.54-.77.8-1.15.25-.38.39-.85.58-1.22.19-.41.41-.74.61-1,.4-.52.7-.8.75-.76.06.04-.15.39-.47.94-.16.28-.34.61-.49.99-.18.4-.29.86-.58,1.31-.29.43-.61.77-.82,1.11-.21.34-.32.68-.37.98-.08.6.03,1.01-.04,1.02Z"/>
    <path class="cls-1" d="M201.6,129.83"/>
    <path class="cls-2" d="M215.14,137.74s.02.35-.46.67c-.48.3-1.28.34-2.19.28-1.81-.1-4.44-.18-7.06-1.43-.64-.32-1.24-.74-1.68-1.29-.45-.55-.68-1.22-.77-1.84-.18-1.25,0-2.35-.04-3.24-.02-.9-.2-1.61-.42-2.06-.21-.45-.43-.65-.39-.68.01-.02.27.14.55.59.29.45.53,1.2.59,2.13.08.93-.05,2.03.14,3.19.1.57.31,1.15.7,1.62.39.48.93.86,1.54,1.16,2.48,1.19,5.06,1.33,6.87,1.51.9.1,1.64.1,2.08-.11.44-.22.51-.54.55-.51Z"/>
    <path class="cls-2" d="M200.81,134.83s.03-.22.27-.41c.24-.19.66-.36,1.14-.31.48.05.87.32,1.04.58.18.26.18.46.13.48-.12.06-.47-.53-1.22-.59-.74-.08-1.27.35-1.37.26Z"/>
    <path class="cls-2" d="M195.63,130.45s.03.2.14.51c.12.3.42.69.93,1,.5.34,1.2.49,1.99.83.39.17.8.4,1.14.77.36.35.45,1.02.67,1.07.09.05.27-.01.38-.13.11-.11.17-.28.19-.48.03-.38-.05-.84-.05-1.26-.03-.83,0-1.58.08-2.21.14-1.25.38-1.99.44-1.98.07.01-.05.77-.11,2.01-.03.62-.03,1.35.02,2.16.01.41.1.81.08,1.32,0,.47-.44,1.23-1.2,1-.36-.15-.45-.48-.53-.68-.08-.21-.17-.37-.3-.52-.26-.3-.61-.51-.97-.68-.71-.33-1.47-.54-2-.95-.53-.38-.84-.86-.92-1.22-.07-.37.01-.57.03-.56Z"/>
    <path class="cls-2" d="M214.88,138.15c-.06-.04.26-.43.13-1.13-.09-.69-.79-1.51-1.22-2.62-.44-1.1-.61-2.12-.93-2.78-.28-.68-.61-1.01-.56-1.06.03-.05.47.22.86.91.42.67.66,1.72,1.07,2.75.39,1.04,1.07,1.9,1.12,2.76.05.85-.43,1.23-.46,1.17Z"/>
    <path class="cls-2" d="M212.96,136.1c-.11.07-.7-.76-.96-1.96-.12-.61-.14-1.13-.2-1.5-.05-.37-.12-.59-.06-.63.05-.04.24.16.38.55.15.38.23.93.34,1.48.24,1.13.62,2,.5,2.06Z"/>
    <path class="cls-2" d="M207.77,136.27c-.09.07-.87-.87-1.19-2.32-.32-1.46.08-2.64.19-2.6.14.03-.03,1.16.26,2.5.29,1.34.85,2.34.73,2.41Z"/>
  </g>
  <path class="cls-2" d="M119.41,68.21c.06,0,.09.9.09,2.35,0,1.45-.06,3.44-.11,5.65-.05,2.21-.12,4.2-.2,5.65-.08,1.44-.15,2.34-.22,2.34-.06,0-.1-.9-.11-2.34s0-3.45.06-5.65c.05-2.21.16-4.21.24-5.65.09-1.44.18-2.34.24-2.33Z"/>
  <path class="cls-2" d="M119.09,81.34c.13,0,.24.65.26,1.47.01.82-.08,1.48-.21,1.48-.13,0-.24-.66-.26-1.47-.01-.81.08-1.47.21-1.48Z"/>
  <path class="cls-2" d="M140.54,73.95c-.05.12-.68.07-1.54.11-.43.04-.87-.1-1.11-.23-.26-.13-.39-.25-.37-.31.06-.15.7.13,1.5.07.85-.05,1.57.23,1.52.36Z"/>
  <path class="cls-2" d="M143.26,83.86c.13,0,.21,1.42.19,3.17s-.15,3.16-.28,3.16c-.13,0-.21-1.42-.19-3.17s.15-3.16.28-3.16Z"/>
</svg>