<?xml version="1.0" encoding="UTF-8"?>
<svg id="Capa_1" data-name="Capa 1" xmlns="http://www.w3.org/2000/svg" version="1.1" viewBox="0 0 226.77 226.77">
  <defs>
    <style>
      .cls-1 {
        fill: #1d1d1b;
        stroke-width: 0px;
      }
    </style>
  </defs>
  <g>
    <g>
      <path class="cls-1" d="M73.2,78.91s.51.21,1.4.73c.89.52,2.2,1.3,3.89,2.29,1.66,1.03,3.78,2.16,6.05,3.86,1.12.85,2.27,1.87,3.28,3.14.51.62,1,1.37,1.27,2.25.13.43.2.93.2,1.35.01.43.03.86.04,1.29.01.44.03.88.04,1.32.03.42.1.83.22,1.25.23.82.64,1.61,1.22,2.27,1.24,1.33,2.89,2.44,4.6,3.56,3.43,2.25,7.23,4.47,11.25,6.78,4.01,2.32,8.25,4.73,12.49,7.53.52.35,1.07.69,1.6,1.11.52.4.99.8,1.48,1.1.88.58,2.15.59,3.36.45,2.43-.29,4.78-1.56,6.24-3.59,1.49-2.04,2.14-4.56,2.01-7.09-.03-.64.07-1.41.04-1.9-.04-.55-.2-1.06-.5-1.51-.6-.93-1.62-1.63-2.67-2.3-4.29-2.75-8.06-5.9-11.58-8.92-3.52-3.03-6.81-5.95-10.04-8.47-1.63-1.24-3.18-2.52-4.81-3.34-1.62-.81-3.44-1.07-5.13-1.15-1.7-.08-3.3.3-4.94.41-.83.03-1.61.05-2.44-.25-.75-.31-1.35-.73-1.94-1.08l-.43-.25c-.06-.04-.14-.06-.26-.14l-.21-.16c-.27-.21-.53-.41-.78-.61-.51-.4-1-.78-1.47-1.15-.94-.74-1.8-1.41-2.57-2.02-1.53-1.23-2.72-2.18-3.53-2.83-.8-.66-1.2-1.02-1.17-1.05.03-.03.49.26,1.33.85.84.6,2.08,1.49,3.67,2.63.79.58,1.67,1.22,2.63,1.93.48.35.98.72,1.5,1.11.26.19.53.39.8.59l.19.14s.11.05.19.09l.47.26c.61.35,1.22.74,1.85.98.58.21,1.37.21,2.11.16,1.51-.12,3.2-.55,5.01-.5.9.01,1.82.1,2.75.28.92.17,1.9.44,2.79.89,1.81.89,3.36,2.16,5.02,3.39,3.3,2.51,6.63,5.42,10.16,8.41,3.53,2.99,7.28,6.07,11.5,8.76,1.06.69,2.23,1.43,3.05,2.66.41.61.66,1.37.71,2.11.03.79-.06,1.32-.03,1.99.14,2.66-.56,5.57-2.25,7.85-1.69,2.33-4.38,3.77-7.11,4.09-.68.08-1.38.12-2.08.05-.35-.04-.71-.1-1.07-.2-.38-.12-.72-.29-1.02-.47-.61-.37-1.11-.8-1.6-1.18-.47-.37-1-.7-1.52-1.06-4.18-2.78-8.39-5.21-12.39-7.55-4-2.34-7.8-4.6-11.24-6.91-1.71-1.16-3.39-2.3-4.75-3.8-.68-.79-1.13-1.72-1.39-2.66-.12-.47-.2-.96-.23-1.43,0-.45-.01-.9-.02-1.34,0-.44-.01-.88-.02-1.3,0-.43-.04-.78-.14-1.15-.2-.73-.61-1.38-1.08-1.99-.93-1.22-2.01-2.22-3.08-3.08-2.16-1.7-4.25-2.91-5.88-4-1.64-1.08-2.91-1.92-3.77-2.49-.85-.58-1.29-.91-1.27-.94Z"/>
      <path class="cls-1" d="M126.02,120.1c-.03-.13.95-.37,2.46-.84.75-.25,1.62-.58,2.47-1.13.84-.55,1.65-1.33,2.3-2.31,1.31-1.96,1.65-4.16,1.71-5.72.06-1.57-.07-2.56.06-2.59.1-.02.45.94.54,2.58.09,1.61-.16,4.03-1.6,6.19-.71,1.07-1.63,1.93-2.59,2.5-.97.57-1.93.86-2.72,1.04-1.6.34-2.6.36-2.62.26Z"/>
      <path class="cls-1" d="M73.97,77.14c0-.06.15-.1.38-.3.23-.18.56-.48.93-.88.19-.2.39-.42.6-.67.22-.25.37-.47.55-.8.34-.65.77-1.35,1.05-2.1.15-.38.26-.76.32-1.12l.04-.26s0,0,0,0l-.03-.08c-.04-.1-.14-.22-.27-.35-.51-.49-.96-1.02-1.38-1.27-.41-.27-.8-.27-1.06-.19-.26.08-.37.22-.43.19-.05-.02-.03-.25.27-.48.28-.23.91-.34,1.5-.05.59.27,1.07.75,1.66,1.25.14.13.31.29.44.54.03.07.06.13.08.2.03.09.05.19.04.28l-.04.34c-.06.44-.19.87-.35,1.3-.33.86-.78,1.55-1.17,2.2-.19.31-.47.66-.71.88-.24.24-.48.45-.71.63-.45.36-.86.61-1.18.73-.32.13-.55.06-.54,0Z"/>
      <path class="cls-1" d="M69.1,76.25c.07-.09.94.42,2.3,1.34.34.23.71.48,1.1.76.2.14.39.28.56.34.08.03.15.04.21.03.09-.03.18-.06.28-.08.97-.36,1.98-.92,2.88-1.69.91-.77,1.62-1.68,2.15-2.57.54-.89.86-1.78.59-2.39-.11-.3-.37-.53-.61-.75-.24-.22-.44-.41-.61-.57-.33-.32-.5-.52-.46-.57.04-.05.27.06.66.3.19.12.43.28.7.45.26.18.63.41.86.87.24.43.27,1,.15,1.52-.11.52-.34,1.03-.6,1.51-.53.99-1.29,1.99-2.28,2.83-.99.85-2.11,1.44-3.18,1.79-.16.04-.33.08-.49.11-.2,0-.39-.04-.54-.11-.31-.14-.51-.32-.69-.46-.37-.3-.72-.58-1.04-.84-1.26-1.04-2.01-1.73-1.94-1.82Z"/>
      <path class="cls-1" d="M72.63,75.22c-.1-.19,1.24-1.15,2.24-2.85.51-.86.9-1.67,1.1-2.28.21-.6.26-1.02.39-1.03.11-.01.28.43.2,1.15-.07.73-.42,1.66-.96,2.58-1.14,1.91-2.89,2.66-2.97,2.42Z"/>
      <path class="cls-1" d="M68.71,74.97c.06,0,.09.25.25.59.07.18.2.35.34.46.17.09.46.14.73.14,1.17.02,2-.53,2.06-.45.11.08-.73.89-2.07.87-.33-.01-.64-.06-.93-.23-.27-.23-.37-.49-.42-.7-.1-.43-.02-.69.04-.69Z"/>
      <path class="cls-1" d="M67.19,73.87c.08-.11.66.3,1.52.92.22.15.46.3.72.43.16.07.2.09.31.08.11,0,.24-.04.38-.09.26-.1.6-.33.97-.5.19-.09.33-.15.46-.25.14-.1.3-.23.46-.36,1.19-1,1.99-2.3,2.4-3.23.42-.95.28-1.6.4-1.64.1-.07.5.68.17,1.83-.32,1.11-1.07,2.53-2.43,3.7-.16.13-.32.26-.51.4-.19.14-.43.24-.59.32-.35.15-.65.34-1.07.48-.2.06-.42.11-.65.1-.23,0-.51-.13-.63-.21-.31-.18-.55-.39-.76-.58-.81-.79-1.21-1.31-1.15-1.39Z"/>
      <path class="cls-1" d="M68.96,73.14s-.04.24-.33.51c-.14.13-.34.27-.57.41-.11.07-.32.17-.57.15-.24-.02-.46-.2-.53-.47-.18-.79-.1-1.59.2-2.48.32-.85.71-1.73,1.34-2.59.31-.42.7-.83,1.1-1.11.4-.3.87-.56,1.41-.63.54-.07,1.05.13,1.4.33.36.2.63.44.89.65,1.04.83,1.64,1.38,1.56,1.47-.07.09-.8-.29-1.89-.97-.54-.33-1.23-.84-1.85-.71-.65.13-1.41.75-1.94,1.48-.55.75-.96,1.61-1.29,2.36-.31.73-.4,1.52-.36,2.02,0,.05.03.11.08.12.04.02.11,0,.23-.04.24-.09.43-.17.59-.25.31-.16.47-.28.52-.24Z"/>
      <path class="cls-1" d="M69.41,72.37c-.18-.16.58-1.21,1.36-2.53.4-.66.66-1.25.75-1.71.1-.46.08-.79.2-.82.1-.03.34.26.4.85.07.6-.19,1.41-.62,2.11-.86,1.43-1.93,2.26-2.1,2.1Z"/>
      <path class="cls-1" d="M86.17,79.76c.05-.11,1.33.4,3.37,1.31,1.02.44,2.2,1.08,3.56,1.39,1.37.32,2.96.24,4.69.29,3.52.11,6.46,1.46,8.42,2.49,1.97,1.07,3.1,1.87,3.04,1.96-.06.11-1.3-.51-3.31-1.42-2.01-.88-4.86-2.08-8.19-2.18-1.66-.05-3.34.01-4.84-.38-1.51-.4-2.65-1.12-3.64-1.61-1.96-1.05-3.15-1.75-3.1-1.85Z"/>
      <path class="cls-1" d="M122.31,99.7s.76.34,1.91,1.02,2.73,1.64,4.46,2.72c.86.55,1.68,1.07,2.43,1.54.74.49,1.43.88,1.95,1.35.53.47.76,1.04.79,1.43.03.4-.09.6-.1.59-.04,0,.02-.21-.06-.56-.08-.35-.32-.82-.82-1.23-.5-.4-1.21-.78-1.96-1.25-.75-.47-1.58-.98-2.45-1.51-1.73-1.08-3.28-2.08-4.4-2.83-1.11-.74-1.79-1.23-1.76-1.28Z"/>
      <path class="cls-1" d="M124.08,116.71c-.08-.03.47-.71.37-1.96-.03-.63-.4-1.24-.77-2.04-.39-.82-.28-1.96.34-2.81.61-.87,1.6-1.29,2.47-1.4.89-.13,1.65.14,2.29.24,1.24.3,2.01.52,2,.58s-.8-.05-2.06-.28c-.63-.06-1.37-.29-2.17-.14-.79.12-1.65.51-2.18,1.26-.54.75-.64,1.68-.32,2.42.31.73.72,1.48.71,2.17.02,1.37-.67,2.02-.67,1.98Z"/>
      <path class="cls-1" d="M121.96,115.34c.21.13-.13,1.02-.04,2.13.06,1.11.52,1.95.34,2.11-.09.07-.34-.07-.61-.42-.27-.35-.52-.94-.57-1.62-.05-.68.12-1.3.34-1.69.22-.39.45-.56.55-.5Z"/>
      <path class="cls-1" d="M93.6,84.15c.06.11-1.29.7-2.4,2.06-.55.67-.94,1.36-1.15,1.89-.21.52-.24.88-.3.88-.05,0-.14-.38.01-.98.15-.59.52-1.35,1.11-2.06,1.19-1.45,2.71-1.9,2.72-1.79Z"/>
      <path class="cls-1" d="M78.62,82.09c0-.13.49-.22,1.13-.67.64-.43,1.43-1.24,2.14-2.23.71-.98,1.08-2.01,1.19-2.79.12-.78.04-1.29.16-1.32.1-.04.41.45.44,1.36.05.89-.3,2.16-1.09,3.24-.78,1.08-1.71,1.89-2.54,2.26-.84.38-1.43.25-1.42.15Z"/>
      <path class="cls-1" d="M80.63,79.11c.11-.21.45-.24.76-.07s.47.47.36.68c-.11.21-.45.24-.76.07-.31-.17-.47-.47-.36-.68Z"/>
    </g>
    <g>
      <g>
        <path class="cls-1" d="M94.13,93.12s-.03-.19-.38-.36c-.17-.08-.36-.24-.57-.34-.22-.1-.51-.17-.81-.19-.57-.03-1.26.47-1.72,1.12-.45.67-.63,1.65-.33,2.52.14.4.54.63.96.75.42.12.85.11,1.24,0,.78-.2,1.33-.79,1.6-1.34.14-.28.23-.56.24-.79,0-.22-.06-.47-.08-.64-.06-.36-.14-.53-.13-.55.03-.02.17.15.29.51.05.19.13.38.16.68,0,.29-.07.6-.2.92-.26.63-.85,1.33-1.77,1.59-.45.13-.96.15-1.45.01-.47-.13-1.04-.43-1.24-1-.37-1.04-.13-2.13.4-2.89.27-.38.6-.68.95-.89.33-.21.75-.36,1.11-.31.35.04.65.14.89.28.25.15.39.31.55.41.15.11.26.22.3.33.04.11,0,.17-.02.16Z"/>
        <path class="cls-1" d="M108.88,103.15s-.88-.49-2.23-1.39c-1.35-.9-3.19-2.17-5.21-3.59-2.03-1.41-3.82-2.76-5.16-3.64-1.34-.89-2.26-1.3-2.23-1.36.01-.03.25.04.68.22.42.18,1.01.47,1.72.89,1.4.83,3.22,2.14,5.25,3.55,2.02,1.42,3.84,2.73,5.14,3.69,1.3.96,2.09,1.58,2.06,1.63Z"/>
        <path class="cls-1" d="M107.53,106.42s-.27-.06-.74-.24c-.46-.18-1.12-.47-1.93-.85-1.61-.76-3.77-1.92-6.1-3.3-2.33-1.39-4.38-2.72-5.85-3.71-1.47-.99-2.36-1.64-2.33-1.69.03-.05.98.51,2.49,1.43,1.51.92,3.6,2.2,5.91,3.6,2.32,1.38,4.45,2.58,6.02,3.4,1.56.83,2.55,1.3,2.53,1.36Z"/>
        <path class="cls-1" d="M107.19,106.3c0-.06.29-.05.7-.15.21-.05.42-.13.63-.3.22-.17.43-.39.58-.65.3-.51.15-1.13.02-1.52-.14-.4-.32-.61-.27-.66.03-.04.31.11.55.53.21.4.48,1.13.07,1.85-.19.33-.46.58-.72.76-.27.2-.58.27-.82.29-.48.02-.75-.1-.75-.15Z"/>
        <path class="cls-1" d="M107.01,106.16c0-.07.23-.09.51-.22.14-.07.28-.18.43-.33.15-.17.3-.34.4-.56.43-.92.39-1.79.49-1.81.13-.05.39.92-.1,1.99-.13.28-.33.49-.51.65-.18.17-.41.3-.6.34-.39.08-.61-.02-.61-.07Z"/>
        <path class="cls-1" d="M105.9,105.73c0-.06.21-.14.53-.31.32-.17.73-.47,1.16-.84.9-.7,1.23-1.55,1.3-1.55.06,0,.1.28-.07.65-.15.37-.49.85-.95,1.22-.45.39-.93.68-1.32.8-.39.12-.64.09-.65.04Z"/>
        <path class="cls-1" d="M107.72,106.8c0-.08.36.03.79-.09.41-.17,1.17-.49,1.3-1.14.12-.67-.14-1.4-.34-1.81-.22-.43-.5-.59-.47-.65.01-.05.39.03.73.49.17.22.31.52.41.87.1.34.19.75.09,1.2-.09.46-.44.8-.75.98-.32.19-.61.3-.9.36-.6.06-.87-.18-.86-.2Z"/>
        <path class="cls-1" d="M120.77,115s.27-.02.64-.28c.35-.24.86-.8.64-1.58-.04-.19-.12-.38-.23-.52-.13-.14-.32-.28-.52-.41-.42-.24-.87-.5-1.35-.78-.95-.56-1.98-1.21-3.03-1.92-2.1-1.43-3.91-2.86-5.18-3.93-1.27-1.08-2-1.81-1.96-1.85.04-.05.84.6,2.15,1.61,1.31,1.01,3.14,2.39,5.23,3.82,1.04.71,2.06,1.37,2.99,1.94.47.29.91.54,1.34.82.21.14.4.29.57.49.17.22.24.45.28.67.09.43,0,.88-.2,1.17-.19.3-.43.49-.65.61-.44.24-.74.16-.72.14Z"/>
        <path class="cls-1" d="M106.86,106.17s.81.46,2.05,1.27c1.25.82,2.97,1.93,4.9,3.13,1.93,1.2,3.68,2.28,4.95,3.07,1.26.79,2.03,1.31,2,1.36-.03.05-.85-.37-2.15-1.1-1.3-.73-3.08-1.76-5.02-2.97-1.93-1.2-3.64-2.36-4.85-3.24-1.21-.88-1.92-1.48-1.88-1.52Z"/>
        <path class="cls-1" d="M121.97,109.24c.11-.05.38.68.07,1.51-.31.81-.84,1.26-.92,1.19-.1-.08.25-.63.52-1.34.27-.7.21-1.34.33-1.36Z"/>
        <path class="cls-1" d="M108.57,102.9c.03-.05.76.36,1.94,1.01,1.18.65,2.83,1.5,4.69,2.37,1.86.86,3.58,1.58,4.82,2.1,1.24.52,2.01.85,1.99.91-.02.05-.82-.18-2.1-.63-1.27-.45-3.02-1.13-4.89-1.99-1.87-.87-3.51-1.78-4.66-2.49-1.15-.72-1.82-1.22-1.79-1.27Z"/>
        <path class="cls-1" d="M85.13,83.35s-.06.53.19,1.41c.24.87.94,2.08,2.31,2.99,1.35.94,3.25,1.51,5.35,2.18,1.05.34,2.15.76,3.21,1.33,1.07.56,2.12,1.21,3.26,1.75.56.27,1.15.48,1.72.75.56.26,1.11.53,1.65.8.54.27,1.06.54,1.56.85.51.33.93.67,1.38,1,.88.67,1.73,1.25,2.5,1.9.78.67,1.16,1.6,1.38,2.4.41,1.66.14,3.08-.23,3.94-.19.43-.4.75-.59.91-.18.17-.31.22-.31.22-.03-.03.44-.31.75-1.19.31-.85.52-2.23.09-3.8-.23-.77-.6-1.62-1.33-2.22-.73-.6-1.62-1.19-2.5-1.85-.44-.31-.9-.68-1.36-.97-.48-.29-1.01-.55-1.54-.82-1.07-.55-2.17-1.02-3.36-1.54-1.16-.55-2.22-1.21-3.27-1.76-1.04-.56-2.11-.98-3.15-1.33-2.07-.69-4.01-1.3-5.39-2.31-1.41-.97-2.1-2.28-2.3-3.19-.11-.46-.11-.83-.09-1.08.02-.25.05-.37.07-.37Z"/>
        <path class="cls-1" d="M81.12,81.71c.05-.1,1.57,1.53,4.79,2.68,1.59.58,3.65.92,5.69,2.01,2.04,1.08,3.94,2.81,5.56,4.88,1.63,2.07,2.91,4.23,4.11,6.14,1.21,1.91,2.24,3.69,3.19,5.09.44.72.95,1.34,1.54,1.57.62.19,1.2.03,1.62-.16.85-.41,1.23-.81,1.26-.77,0,0-.08.11-.27.28-.19.17-.48.41-.92.64-.43.22-1.05.43-1.77.23-.71-.26-1.24-.9-1.71-1.62-1.01-1.41-2.05-3.15-3.28-5.06-1.22-1.91-2.5-4.05-4.11-6.09-1.6-2.04-3.45-3.74-5.42-4.8-1.96-1.07-4-1.44-5.61-2.07-1.63-.6-2.81-1.38-3.58-1.96-.38-.29-.66-.54-.85-.72-.18-.18-.27-.28-.26-.29Z"/>
      </g>
      <path class="cls-1" d="M90.77,96.41c-.05.02-.24-.35-.27-1-.01-.32,0-.71.13-1.14.14-.44.43-.84.82-1.17.78-.66,1.89-.79,2.47-.31.57.48.4,1.02.35.98-.06,0-.05-.43-.53-.73-.45-.3-1.35-.17-2.03.4-.34.28-.59.63-.72.97-.13.36-.18.72-.2,1.01-.05.6.03.98-.03.99Z"/>
    </g>
    <path class="cls-1" d="M71.72,70.84c-.08-.09.45-.6.53-1.41.09-.81-.32-1.42-.22-1.49.06-.1.74.5.65,1.53-.12,1.03-.91,1.48-.95,1.36Z"/>
    <path class="cls-1" d="M70.64,72.33c.08-.09.53.12,1.01.46.48.34.82.71.76.81-.06.1-.51-.1-1.01-.46-.5-.36-.84-.72-.76-.81Z"/>
    <path class="cls-1" d="M71.48,72.01c.06-.1.47.03.88.37.41.33.63.71.54.79-.09.08-.43-.15-.81-.46-.38-.31-.68-.59-.62-.7Z"/>
    <path class="cls-1" d="M69.57,72.47c.08-.09.61.28,1.18.82.54.56,1.06.78,1.06.88,0,.05-.19.09-.46,0-.27-.08-.6-.3-.89-.57-.58-.54-.98-1.05-.9-1.13Z"/>
    <path class="cls-1" d="M70.52,73c.06-.1.41,0,.79.22s.63.49.57.59c-.06.1-.41,0-.79-.22-.38-.22-.63-.49-.57-.59Z"/>
    <path class="cls-1" d="M71.66,72.79c.06-.1.31-.06.55.08.24.15.39.35.33.45-.06.1-.31.06-.55-.08-.24-.15-.39-.35-.33-.45Z"/>
    <path class="cls-1" d="M71.69,72.36c.05-.1.38-.04.67.22.29.26.39.58.29.65-.1.07-.33-.11-.58-.33-.25-.22-.44-.43-.39-.54Z"/>
    <path class="cls-1" d="M70.75,72.76c.05-.1.45-.02.85.27.4.29.61.64.53.72-.09.08-.41-.12-.77-.38-.36-.27-.65-.51-.6-.62Z"/>
    <path class="cls-1" d="M70.89,73.52c.09-.08.31.02.54.14.23.13.43.26.41.38-.02.11-.32.16-.62,0-.3-.17-.43-.44-.34-.52Z"/>
    <path class="cls-1" d="M72.79,73.29c.08.08-.05.31-.3.51-.25.2-.5.28-.57.18-.06-.1.07-.33.3-.51.23-.18.48-.27.57-.18Z"/>
    <path class="cls-1" d="M72.78,72.7c.1.05,0,.45-.29.84-.29.39-.65.59-.73.5-.08-.09.12-.4.39-.76.27-.35.52-.64.63-.58Z"/>
    <path class="cls-1" d="M72.85,73.35c.09.07-.02.39-.33.63-.31.25-.65.28-.69.18-.05-.11.17-.3.43-.51.26-.2.5-.37.6-.3Z"/>
    <path class="cls-1" d="M75.15,74.99c-.03.11-.36.11-.67-.12-.31-.23-.4-.54-.31-.6.1-.07.32.08.56.26.24.18.45.35.41.46Z"/>
    <path class="cls-1" d="M76.1,75.04c-.07.09-.47-.09-.9-.42s-.71-.66-.64-.76c.07-.09.47.09.9.42s.71.66.64.76Z"/>
    <path class="cls-1" d="M75.68,74.1c-.07.1-.29.08-.49-.03-.21-.11-.34-.29-.29-.4.04-.11.27-.1.49.03.23.12.36.3.29.4Z"/>
    <ellipse class="cls-1" cx="79.75" cy="76.92" rx=".42" ry="1.58" transform="translate(-27.53 104.63) rotate(-58.45)"/>
    <path class="cls-1" d="M79.48,78.31c-.13.19-.66.03-1.18-.36-.52-.39-.82-.86-.67-1.04.15-.18.68-.02,1.18.36.5.38.8.85.67,1.04Z"/>
    <path class="cls-1" d="M81.09,80.43c-.12.2-1.19-.25-2.38-1-1.19-.75-2.05-1.52-1.92-1.72.13-.2,1.19.25,2.38,1,1.19.75,2.05,1.52,1.92,1.72Z"/>
    <path class="cls-1" d="M79.78,78.82c-.08.22-.79.16-1.55-.23-.75-.39-1.21-.95-1.07-1.14.14-.19.77.02,1.47.39.7.37,1.23.76,1.15.99Z"/>
    <path class="cls-1" d="M82.29,79.09c-.06.23-1.24.07-2.46-.63-1.22-.69-2.02-1.48-1.89-1.67.13-.2,1.15.27,2.31.93,1.15.66,2.11,1.15,2.05,1.37Z"/>
    <path class="cls-1" d="M80.44,77.74c-.09.22-.69.11-1.35-.24-.65-.35-1.07-.79-.95-.99.13-.2.73-.09,1.35.24.61.33,1.04.77.95.99Z"/>
    <path class="cls-1" d="M78.28,76.29c.18.14.04.63-.39,1.01-.43.38-.92.47-1.05.27-.13-.2.11-.58.48-.91.37-.33.77-.52.95-.38Z"/>
    <path class="cls-1" d="M77.93,76.95c-.16-.17-.17-.43-.05-.61.12-.18.35-.29.58-.22.22.07.32.39.14.67-.18.28-.51.33-.66.16Z"/>
    <path class="cls-1" d="M78.03,77.45c.09.22.03.44-.12.5-.15.06-.34-.07-.42-.29-.09-.22-.03-.44.12-.5.15-.06.34.07.42.29Z"/>
  </g>
  <path class="cls-1" d="M194.97,84.05c.04.07-.92.68-2.73,1.65-1.82.95-4.52,2.21-8,3.42-6.91,2.43-17.13,4.5-28.38,3.39-5.62-.54-10.8-1.83-15.55-2.44-2.37-.31-4.64-.48-6.75-.43-2.11.03-4.06.36-5.87.63-3.61.58-6.61.85-8.68.71-2.08-.12-3.16-.61-3.13-.67.03-.11,1.12.21,3.14.17,2.02-.01,4.93-.41,8.51-1.1,1.78-.33,3.8-.73,5.99-.8,2.18-.1,4.51.03,6.94.32,4.85.56,10.03,1.82,15.52,2.34,11.04,1.09,21.08-.8,27.98-2.98,6.94-2.19,10.9-4.43,11.01-4.21Z"/>
  <path class="cls-1" d="M140.75,116.4s-.73.1-2.06,0c-1.33-.09-3.23-.43-5.51-1.06-2.29-.62-4.93-1.59-7.88-2.56-2.94-.96-6.24-1.88-9.78-1.94-3.53-.02-6.88.82-9.98,1.24-3.1.44-5.93.59-8.3.59-2.37,0-4.28-.15-5.59-.3-1.31-.15-2.03-.3-2.03-.35,0-.06.74-.03,2.05.02,1.31.04,3.22.1,5.56.03,2.34-.07,5.13-.28,8.19-.76,3.05-.45,6.42-1.33,10.1-1.32,3.69.07,7.06,1.05,10.01,2.05,2.96,1.02,5.57,2.04,7.8,2.73,4.47,1.46,7.41,1.48,7.4,1.64Z"/>
  <path class="cls-1" d="M48.51,104.91c-.05-.05.42-.62,1.48-1.4,1.06-.77,2.77-1.7,5.06-2.31,2.28-.61,5.12-.89,8.22-.62,3.1.24,6.42.98,9.84,1.78,3.42.82,6.67,1.48,9.68,1.85,3,.38,5.73.54,8.02.59,4.59.09,7.44-.18,7.46.02,0,.08-.69.26-1.97.44-1.28.18-3.16.37-5.48.44-2.32.07-5.1,0-8.16-.33-3.06-.31-6.41-.95-9.83-1.78-3.43-.81-6.67-1.56-9.66-1.86-2.98-.32-5.69-.14-7.9.33-4.46.95-6.62,3.03-6.75,2.83Z"/>
  <path class="cls-1" d="M162.4,123.39c0,.21-1.17.52-3.19.46-.51-.02-1.07-.09-1.67-.22-.61-.14-1.22-.37-1.81-.6-.59-.23-1.18-.46-1.76-.57-.57-.12-1.12-.09-1.78.05-.65.14-1.33.37-2.03.55-.7.18-1.38.32-2.03.42-1.3.2-2.49.25-3.48.22-1.99-.07-3.17-.44-3.15-.66.02-.25,1.22-.31,3.1-.54.94-.12,2.04-.29,3.25-.56.6-.14,1.23-.29,1.87-.48.64-.18,1.32-.43,2.11-.61.78-.18,1.7-.22,2.49-.02.78.18,1.44.49,2.02.76,1.15.57,2.08.88,3.01,1.07,1.82.34,3.06.47,3.05.73Z"/>
  <path class="cls-1" d="M54.86,120.99c-.13.22-1.34-.33-3.33-.99-1.98-.66-4.79-1.36-7.94-1.46-3.12-.09-6.12.37-8.32.19-2.22-.12-3.51-.71-3.45-.91.06-.25,1.36-.1,3.44-.29,1.04-.08,2.28-.24,3.69-.41,1.41-.16,3-.34,4.7-.27,3.4.11,6.38,1.07,8.34,2.05,1.98.99,2.99,1.92,2.87,2.1Z"/>
</svg>