<?xml version="1.0" encoding="UTF-8"?>
<svg id="Capa_1" data-name="Capa 1" xmlns="http://www.w3.org/2000/svg" version="1.1" viewBox="0 0 226.77 226.77">
  <defs>
    <style>
      .cls-1 {
        fill: none;
        stroke: #1d1d1b;
        stroke-miterlimit: 10;
        stroke-width: .33px;
      }

      .cls-2 {
        fill: #1d1d1b;
        stroke-width: 0px;
      }
    </style>
  </defs>
  <path class="cls-1" d="M29.18,116.33"/>
  <path class="cls-2" d="M48.11,112.09s.05-.33.23-.94c.17-.61.48-1.49.94-2.62.5-1.1,1.07-2.49,2.28-3.82.32-.31.68-.64,1.19-.81.48-.2,1.12-.18,1.61.12.5.27.85.78,1.1,1.21.28.44.54.9.79,1.39,1.01,1.94,1.75,4.24,2.26,6.74.48,2.5.89,5.18,1.14,8.03.48,5.67.43,12.1-1.49,18.49-.5,1.58-1.06,3.14-1.79,4.59-.34.74-.74,1.49-1.38,2.13-.31.31-.75.64-1.36.66-.29,0-.61-.1-.79-.22l-.54-.33c-1.37-.98-2.28-2.37-2.91-3.75-.65-1.4-1.06-2.83-1.37-4.24-.6-2.83-.78-5.54-.93-8.07-.13-2.53-.15-4.89-.12-7.05.07-4.31.4-7.79.86-10.17.1-.6.25-1.12.36-1.57.13-.45.27-.82.37-1.12.28-.58.45-.87.48-.85.03.02-.08.33-.29.92-.07.31-.17.68-.28,1.13-.07.45-.19.97-.26,1.56-.33,2.36-.55,5.83-.53,10.11.01,2.14.08,4.49.24,7,.18,2.5.39,5.2,1,7.92.31,1.36.72,2.74,1.33,4.04.6,1.3,1.44,2.53,2.6,3.35l.45.27c.15.08.21.09.31.1.18,0,.45-.14.68-.38.47-.48.85-1.14,1.17-1.85.7-1.4,1.24-2.91,1.73-4.45,1.86-6.21,1.95-12.52,1.53-18.13-.53-5.6-1.2-10.74-3.11-14.53-.23-.47-.47-.93-.73-1.36-.25-.46-.49-.79-.84-1.01-.69-.45-1.52-.01-2.08.54-1.14,1.17-1.78,2.53-2.32,3.58-1.01,2.16-1.43,3.43-1.52,3.4Z"/>
  <path class="cls-2" d="M46.93,113.32s0-.37.1-1.05c.11-.68.3-1.69.68-2.96.39-1.26.91-2.81,1.92-4.43.52-.79,1.11-1.66,2.08-2.29.47-.33,1.18-.47,1.76-.39.61.05,1.25.32,1.74.74.98.87,1.52,2,2.17,3.11.62,1.14,1.17,2.39,1.6,3.73.43,1.34.75,2.75,1.02,4.2.27,1.44.56,2.94.76,4.49.41,3.09.66,6.36.69,9.75.01,1.7-.03,3.43-.22,5.19-.17,1.78-.64,3.53-1.12,5.26-.5,1.73-1.04,3.43-1.71,5.07-.66,1.63-1.54,3.31-3.12,4.36-.77.55-1.97.7-2.84.24-.88-.43-1.47-1.08-2.03-1.71-1.13-1.33-1.68-2.93-2.22-4.36-1.11-2.93-1.8-5.86-2.09-8.63-.16-1.38-.18-2.75-.17-4.02-.01-1.28-.02-2.5-.03-3.68-.08-4.7.25-8.52.69-11.11.21-1.3.43-2.3.6-2.97.17-.67.28-1.02.31-1.01.08.02-.21,1.44-.53,4.03-.32,2.59-.54,6.37-.37,11.04.03,1.17.06,2.4.1,3.68,0,1.29.05,2.58.22,3.94.32,2.7,1.02,5.54,2.13,8.4.55,1.44,1.09,2.92,2.09,4.07.51.58,1.07,1.16,1.7,1.44.63.31,1.3.22,1.91-.19.61-.39,1.15-1.03,1.61-1.68.43-.66.78-1.44,1.11-2.23.64-1.59,1.18-3.26,1.67-4.97.48-1.72.93-3.39,1.09-5.09.18-1.7.23-3.41.23-5.08-.02-3.35-.25-6.59-.63-9.64-.18-1.52-.46-3-.71-4.45-.26-1.44-.55-2.82-.95-4.11-.4-1.29-.91-2.5-1.49-3.61-.61-1.1-1.16-2.24-1.95-2.94-.76-.68-1.95-.85-2.71-.35-.83.5-1.44,1.31-1.94,2.04-1.01,1.52-1.58,3.03-2.02,4.24-.84,2.47-1.06,3.91-1.15,3.89Z"/>
  <path class="cls-2" d="M56.99,141.4s-.06.13-.25.29c-.1.08-.22.18-.41.26-.19.09-.51.06-.73-.09-.43-.27-.85-.7-1.2-1.31-.35-.6-.6-1.33-.84-2.12-1.01-3.16-1.93-7.71-1.94-12.8-.03-5.09.87-9.65,1.86-12.81.41-1.62,1.19-2.86,1.89-3.51.71-.69,1.34-.68,1.33-.62.02.08-.49.19-1.05.89-.56.69-1.17,1.82-1.49,3.43-.8,3.16-1.57,7.64-1.54,12.61.01,4.98.8,9.45,1.62,12.6.19.8.39,1.5.65,2.06.25.56.61.98.92,1.25.28.27.59.08.81-.01.22-.1.34-.15.36-.12Z"/>
  <path class="cls-2" d="M68.23,131.84c0,.06-.53,0-1.43.29-.44.15-.97.45-1.29,1.05-.34.59-.35,1.39-.39,2.33-.11,1.85-.36,4.12-.92,6.7-.28,1.29-.63,2.66-1.05,4.09-.22.72-.41,1.44-.69,2.21-.29.76-.65,1.5-1.08,2.22-.86,1.44-1.94,2.87-3.36,4.08-.35.3-.74.58-1.16.83-.22.12-.42.23-.66.35-.27.11-.52.16-.78.2-1.03.14-2.15-.13-2.99-.81-.44-.35-.75-.72-1.09-1.07-.34-.36-.68-.73-1.02-1.11-.67-.76-1.33-1.57-1.93-2.44-1.2-1.75-2.13-3.7-2.97-5.75-.83-2.06-1.34-4.32-1.62-6.61-.28-2.29-.48-4.61-.62-7-.28-4.77-.16-9.74.45-14.77.57-5.02,1.69-9.98,4.06-14.24.59-1.06,1.24-2.06,1.94-3.02.71-.96,1.48-1.87,2.44-2.63.49-.37,1.03-.69,1.64-.88.61-.19,1.27-.22,1.88-.11.58.09,1.26.34,1.73.75.48.4.85.87,1.16,1.35.63.96,1.07,1.97,1.5,2.95.42.98.85,1.93,1.24,2.91.78,1.94,1.36,3.89,1.85,5.78.49,1.89.9,3.71,1.39,5.44.24.86.51,1.7.78,2.51.31.81.52,1.63,1.07,2.04.26.21.58.31.93.33.32,0,.8-.04,1.17-.03.77,0,1.53-.05,2.27-.11,1.48-.11,2.87-.26,4.17-.41,2.6-.3,4.85-.58,6.69-.74.91-.13,1.81,0,2.32-.36.52-.38.52-1.06.52-1.51-.06-.95-.22-1.45-.17-1.46.02,0,.06.11.14.35.07.24.18.6.23,1.09.02.25.04.53-.02.84-.05.31-.2.67-.53.92-.31.26-.76.33-1.16.37-.41.04-.84.09-1.29.14-1.83.22-4.06.56-6.66.91-1.3.17-2.7.35-4.19.49-.75.07-1.51.12-2.31.14-.41,0-.73.04-1.21.04-.45-.01-.95-.16-1.34-.46-.39-.3-.66-.71-.85-1.13-.19-.42-.32-.81-.48-1.22-.29-.82-.58-1.67-.83-2.54-.52-1.74-.95-3.57-1.45-5.44-.5-1.87-1.09-3.77-1.86-5.66-.38-.94-.83-1.9-1.25-2.87-.43-.96-.87-1.94-1.44-2.8-.29-.43-.61-.83-.98-1.13-.37-.31-.77-.46-1.3-.54-.98-.19-1.95.16-2.79.82-1.67,1.35-2.95,3.37-4.11,5.36-2.26,4.09-3.36,8.92-3.92,13.88-.6,4.98-.73,9.88-.46,14.6.34,4.71.52,9.34,2.12,13.33.8,1.99,1.71,3.92,2.84,5.59.56.84,1.19,1.62,1.84,2.37.32.37.66.74.99,1.1.34.36.67.74.99.99.67.55,1.55.77,2.38.67.2-.02.41-.07.58-.14.17-.08.38-.19.56-.29.37-.23.73-.47,1.06-.75,1.34-1.11,2.4-2.48,3.25-3.85.42-.69.78-1.39,1.06-2.1.26-.7.48-1.46.71-2.16.44-1.42.81-2.76,1.11-4.03.6-2.54.9-4.77,1.08-6.6.07-.89.11-1.79.53-2.45.39-.66,1.02-.96,1.49-1.09.98-.24,1.49-.1,1.49-.1Z"/>
  <path class="cls-2" d="M52.85,157.14s.15.2.47.51c.33.32.87.64,1.76.54,1.76,0,4.29.14,7.42.31,1.56.08,3.27.18,5.1.22.91.02,1.87.03,2.79-.05.24-.01.44-.06.63-.1.21-.07.44-.16.65-.26.42-.19.8-.46,1.17-.78,2.88-2.81,5.94-6.28,8.07-10.46,2.19-4.18,3.21-8.63,3.44-12.7.03-.51.03-1,0-1.48-.02-.47-.1-.96-.25-1.24-.04-.05-.07-.09-.08-.09-.04-.03-.17-.06-.25-.09-.2-.05-.41-.08-.63-.1-.44-.04-.89-.02-1.34,0-1.79.12-3.48.49-5.08.58-1.59.09-3.01.04-4.25.01-1.24-.03-2.3,0-3.17-.03-.88-.11-1.32.45-1.47.85-.15.41-.14.66-.18.66-.02,0-.12-.24-.01-.72.06-.24.18-.53.46-.79.26-.26.76-.41,1.17-.39.88-.04,1.96-.13,3.2-.14,1.24-.02,2.66-.02,4.19-.16,1.53-.13,3.2-.53,5.07-.7.47-.04.95-.07,1.46-.04.26.02.52.05.79.11.14.05.26.07.43.15.21.11.33.26.44.42.31.59.35,1.11.4,1.64.04.53.03,1.05.01,1.58-.1,2.1-.39,4.29-.95,6.51-.57,2.22-1.4,4.45-2.52,6.6-1.11,2.16-2.43,4.13-3.87,5.9-.71.89-1.47,1.72-2.2,2.52-.74.8-1.46,1.59-2.28,2.29-.42.35-.88.67-1.38.9-.25.12-.49.21-.75.29-.29.07-.58.12-.83.13-1.03.07-1.98.04-2.91,0-1.85-.08-3.56-.22-5.12-.35-3.12-.26-5.64-.51-7.38-.63-.41-.02-.88-.04-1.2-.23-.33-.16-.55-.38-.7-.57-.3-.38-.34-.64-.32-.65Z"/>
  <path class="cls-2" d="M53.44,94.5s.11-.14.35-.37c.24-.23.63-.55,1.18-.9.56-.35,1.3-.7,2.23-.95.93-.25,2.03-.41,3.26-.53,1.24-.11,2.59-.2,4.11-.28,1.51-.03,3.14-.04,4.9.01.44.02.89.03,1.35.07.47.02.99.19,1.42.41.89.45,1.63,1.15,2.33,1.86,1.4,1.42,2.81,3.02,4.09,4.84,1.28,1.83,2.4,3.91,3.28,6.17.89,2.25,1.56,4.73,2.19,7.2.19.61.4,1.25.53,1.93.12.68.23,1.41-.04,2.2-.16.38-.43.78-.83.97-.38.22-.78.29-1.16.31-.72.03-1.36.03-2.05.08-2.73.16-5.53.65-8.47.87-.71.04-1.42.16-2.19.22-.75.03-1.6.14-2.46-.4-.78-.56-1.11-1.37-1.37-2.1-.26-.75-.43-1.5-.62-2.22-.96-2.86-1.7-5.96-2.54-8.98-.43-1.51-.91-3.02-1.52-4.49-.59-1.48-1.34-2.85-2.4-4.01-.52-.57-1.13-1.11-1.75-1.53-.53-.34-1.33-.4-2.06-.29-1.5.23-2.84,1.19-3.93,2.37-1.09,1.2-1.97,2.6-2.83,4.01-.43.71-.86,1.42-1.29,2.13-.23.36-.45.71-.61,1.02-.17.35-.33.71-.47,1.09-1.14,3.01-2.01,6.14-2.67,9.2-.15.77-.3,1.54-.37,2.28-.07.71-.04,1.53-.05,2.3-.02,1.56-.05,3.11-.11,4.63-.11,3.06-.26,6.02-.05,8.9.21,2.88.69,5.66,1.25,8.36.28,1.36.54,2.67.97,3.91.41,1.25.94,2.44,1.5,3.59,1.16,2.3,2.29,4.54,3.81,6.32,1.48,1.77,3.59,3.03,5.66,2.56,2.07-.37,3.64-1.9,5.01-3.26,1.35-1.41,2.33-2.99,3.04-4.56.71-1.58,1.19-3.13,1.62-4.56.42-1.44.8-2.75,1.07-3.95.55-2.39.68-4.3.77-5.59.03-.65.06-1.14.08-1.47.02-.33.04-.5.05-.5.02,0,.03.17.05.5.01.33.02.83.02,1.48-.02,1.3-.09,3.23-.59,5.67-.24,1.22-.6,2.55-.99,4-.4,1.45-.87,3.03-1.57,4.66-.71,1.63-1.71,3.29-3.09,4.77-.68.75-1.47,1.43-2.3,2.1-.87.66-1.89,1.18-3.04,1.42-1.14.25-2.43.08-3.52-.47-1.1-.53-2.05-1.35-2.86-2.28-1.63-1.88-2.79-4.15-3.97-6.46-.58-1.17-1.13-2.39-1.57-3.69-.46-1.29-.73-2.66-1.02-4-.57-2.71-1.08-5.53-1.3-8.47-.22-2.94-.08-5.96.02-9,.05-1.52.08-3.06.09-4.61.02-.79-.02-1.53.05-2.39.08-.82.23-1.6.38-2.39.67-3.14,1.53-6.25,2.71-9.37.15-.39.32-.78.51-1.17.22-.42.44-.76.66-1.1.42-.7.85-1.41,1.28-2.12.86-1.43,1.77-2.87,2.94-4.17,1.17-1.27,2.69-2.4,4.52-2.68.89-.12,1.87-.1,2.75.44.74.5,1.37,1.07,1.95,1.7,1.16,1.26,1.98,2.8,2.58,4.31.63,1.52,1.12,3.06,1.55,4.6.86,3.09,1.55,6.07,2.52,9,.2.75.36,1.48.6,2.16.23.67.55,1.32,1,1.63.42.3,1.17.3,1.86.25.7-.05,1.45-.18,2.19-.21,2.88-.2,5.69-.67,8.48-.82.68-.05,1.42-.04,2.06-.07.61-.02,1.06-.24,1.24-.71.17-.49.13-1.13,0-1.73-.12-.62-.31-1.22-.5-1.85-.63-2.55-1.25-4.93-2.11-7.16-.84-2.23-1.91-4.25-3.14-6.05-1.24-1.79-2.6-3.38-3.97-4.8-.68-.71-1.36-1.36-2.14-1.77-.4-.2-.77-.34-1.21-.37-.44-.04-.88-.07-1.32-.09-1.74-.08-3.37-.1-4.86-.09-1.48.05-2.86.12-4.09.19-2.45.13-4.31.6-5.42,1.26-1.12.64-1.6,1.14-1.63,1.1Z"/>
  <path class="cls-2" d="M68.68,131.05c-.29,0-.47-2.45-.65-5.45-.18-3-.37-5.43-.09-5.48.27-.05.91,2.37,1.09,5.42.19,3.05-.08,5.52-.35,5.51Z"/>
  <path class="cls-2" d="M84.8,131.84c-.19-.03-.34-3.03-.6-6.78-.11-1.86-.22-3.54-.29-4.79-.06-1.23-.13-1.97,0-2.01.13-.04.45.69.69,1.92.26,1.22.47,2.93.59,4.81.27,3.76-.04,6.89-.4,6.84Z"/>
  <path class="cls-2" d="M83.03,173.8c-.02.12-1.51-.06-3.72-.99-2.2-.92-5.07-2.56-7.96-4.72-5.84-4.31-9.54-8.93-9.33-9.09.21-.2,4.19,4.05,9.93,8.29,2.85,2.13,5.6,3.83,7.66,4.89,2.07,1.07,3.45,1.48,3.42,1.64Z"/>
  <path class="cls-2" d="M97.53,123.2c.06,0,.17.2.26.63.03.22.09.47,0,.84-.03.18-.17.43-.42.56-.24.12-.46.12-.64.15-.19,0-.28.06-.61.07-.26,0-.49-.05-.71-.1-.45-.11-.9-.27-1.37-.45-.9-.37-1.9-.69-2.97-1.07-2.13-.73-4.07-1.54-5.34-2.36-1.28-.8-1.93-1.47-1.86-1.58.09-.12.88.34,2.2.95,1.31.64,3.19,1.31,5.33,2.04,1.05.38,2.1.75,2.99,1.17.44.19.86.37,1.24.5.19.06.37.11.52.13.08.02.37-.02.55,0,.41,0,.46.02.55-.17.09-.2.11-.46.13-.65.04-.4.06-.64.13-.65Z"/>
  <path class="cls-2" d="M82.73,173.8s.23.07.64.13c.41.06,1.01-.1,1.42-.78.94-1.33,1.9-3.49,3.12-6.15,2.3-5.38,5.69-12.79,7.72-21.46,1.02-4.33,1.54-8.55,1.59-12.39,0-.48.02-.95.01-1.42-.02-.47-.05-.93-.07-1.38-.07-.86.02-1.95-.37-2.29-.21-.21-.6-.37-.97-.51-.38-.14-.76-.25-1.15-.38-.77-.24-1.5-.48-2.2-.73-2.8-.96-4.95-2.07-6.34-2.96-1.4-.89-2.09-1.48-2.06-1.53.1-.18,3.03,2.09,8.62,3.81.7.22,1.43.44,2.2.66.38.11.78.22,1.19.36.41.15.84.29,1.27.66.21.19.37.48.45.73.08.26.11.5.13.73.03.45.06.91.1,1.37.03.46.06.93.09,1.41.02.48,0,.96,0,1.45,0,3.92-.5,8.22-1.54,12.61-2.06,8.81-5.58,16.22-8.05,21.54-1.3,2.63-2.38,4.79-3.44,6.08-.25.35-.58.61-.92.73-.34.12-.64.08-.86.03-.44-.14-.61-.31-.6-.33Z"/>
  <path class="cls-2" d="M82.73,173.8s.17-.05.45-.22c.26-.17.68-.45.96-.97.63-1.1,1.54-2.68,2.49-4.73,1.95-4.08,4.2-9.93,6.35-16.5.54-1.64,1.04-3.26,1.52-4.81.23-.78.46-1.55.68-2.3.11-.38.21-.75.32-1.12.1-.33.16-.72.23-1.08.54-2.92.71-5.61.8-7.87,0-2.25.02-4.08.02-5.35-.02-.61-.26-1.01-.49-1.22-.24-.21-.41-.28-.39-.32,0-.02.2-.02.51.16.31.17.68.66.76,1.33.13,1.31.2,3.1.3,5.41,0,2.28-.09,5.02-.6,8.02-.07.38-.12.74-.23,1.16-.1.37-.2.75-.31,1.13-.22.76-.44,1.53-.66,2.32-.47,1.57-.96,3.19-1.51,4.84-2.16,6.61-4.53,12.47-6.67,16.51-1.04,2.03-2.06,3.59-2.8,4.63-.84,1.12-1.78,1.06-1.74.97Z"/>
  <path class="cls-2" d="M83.32,174.11c.02-.08.82.19,2.19.65.16.04.37.1.45.06.12-.04.28-.17.42-.31.29-.3.56-.69.82-1.13.54-.88,1.12-1.91,1.71-3.08,1.18-2.33,2.36-5.22,3.7-8.43,1.34-3.21,2.86-6.71,3.97-10.52,1.91-7.72,3.39-14.89,3.55-20.1.01-.28-.02-.62-.03-.94,0-.33-.02-.65.16-1.06.5-.73,1.26-.71,1.78-.7,1.05.08,1.95.16,2.69.22,1.46.13,2.27.23,2.26.3s-.83.1-2.3.09c-.73,0-1.66,0-2.67-.04-.48-.02-1.02.12-1.2.43-.06.14-.07.45-.05.74.01.3.06.6.06.98-.01,2.65-.32,5.81-.92,9.25-.3,1.72-.66,3.52-1.04,5.37-.38,1.84-.75,3.8-1.34,5.74-1.13,3.9-2.7,7.42-4.08,10.61-1.38,3.18-2.64,6.08-3.92,8.4-.64,1.16-1.27,2.19-1.86,3.06-.3.44-.61.84-.96,1.17-.18.16-.37.31-.64.39-.32.06-.5-.05-.68-.11-1.38-.59-2.08-.97-2.07-1.02Z"/>
  <path class="cls-2" d="M146.64,122.58c.05.11-1.14.81-3.23,1.54-2.08.74-5.05,1.49-8.35,2.06-6.62,1.15-12.07,1.28-12.09,1.02-.02-.29,5.36-.87,11.92-2.01,3.28-.57,6.22-1.2,8.32-1.75,2.1-.54,3.37-1,3.44-.86Z"/>
  <path class="cls-2" d="M97.53,124.43c.02.06-.18.19-.58.21-.4.02-.96-.09-1.59-.3-.64-.23-1.31-.46-2.15-.71-.82-.26-1.72-.58-2.65-.94-3.75-1.42-6.49-3.26-6.34-3.5.14-.23,3.01,1.17,6.7,2.56.92.36,1.8.69,2.6,1,.79.29,1.56.63,2.11.93.57.29,1.03.48,1.36.57.33.1.53.11.54.18Z"/>
  <path class="cls-2" d="M148.62,123.87c.05.11-1.55.91-4.27,1.84-2.72.94-6.57,1.94-10.9,2.67-4.33.72-8.29,1.04-11.16,1.13-2.87.09-4.64-.01-4.65-.14,0-.15,1.76-.29,4.6-.56,2.84-.27,6.75-.7,11.04-1.41,4.28-.72,8.11-1.6,10.86-2.36,2.75-.74,4.42-1.3,4.48-1.16Z"/>
  <path class="cls-2" d="M145.76,121.96c.05.12-1.05.68-2.93,1.32-1.88.64-4.53,1.33-7.51,1.83-5.96,1-10.85,1.11-10.87.86-.03-.31,4.81-.86,10.7-1.85,2.94-.5,5.58-1.07,7.48-1.53,1.9-.46,3.08-.77,3.13-.64Z"/>
  <path class="cls-2" d="M103.33,154.99c.02-.06.33-.03.84.22.5.25,1.17.77,1.69,1.65.52.86.84,2.19.43,3.54-.39,1.31-1.47,2.68-3.13,3.08-1.65.36-3.27-.36-4.14-1.48-.89-1.14-.98-2.51-.75-3.5.24-1.01.8-1.71,1.31-2.01.52-.31.87-.23.87-.17.01.08-.28.14-.63.48-.35.33-.73.97-.85,1.83-.12.85.05,1.95.76,2.78.7.83,1.99,1.36,3.2,1.09,1.21-.28,2.12-1.33,2.47-2.38.37-1.07.2-2.14-.18-2.93-.77-1.62-1.99-2.05-1.9-2.2Z"/>
  <path class="cls-1" d="M98.64,157.22"/>
  <path class="cls-2" d="M102.68,163.96c.04.05-.03.2-.26.37-.23.17-.64.33-1.17.32-.52,0-1.16-.19-1.7-.63-.55-.42-.98-1.04-1.3-1.71-.63-1.33-.78-2.74-.52-3.71.26-.99.81-1.38.9-1.29.12.09-.16.58-.2,1.41-.05.82.17,2,.73,3.18.53,1.19,1.38,1.92,2.16,2.06.77.18,1.27-.12,1.36,0Z"/>
  <path class="cls-2" d="M103.53,134.96c-.06-.02-.05-.39.18-1,.24-.59.69-1.54,1.81-2.18,1.12-.68,3.02-.4,4.08.99.53.68.83,1.56.86,2.47.01.45-.04.93-.17,1.38-.16.43-.29.88-.52,1.29-.22.42-.5.82-.87,1.16-.37.34-.87.6-1.4.64-1.08.07-1.86-.51-2.47-.97-.61-.48-1.18-1.04-1.52-1.74-.35-.7-.34-1.48-.18-2.08.34-1.21,1.07-1.97,1.69-2.28.63-.32,1.05-.19,1.03-.14,0,.08-.36.11-.82.47-.45.35-1.01,1.09-1.2,2.11-.09.5-.06,1.05.22,1.54.27.5.76.96,1.34,1.38.56.42,1.22.79,1.81.73.58-.05,1.12-.59,1.48-1.29.35-.72.63-1.45.59-2.17,0-.72-.23-1.41-.61-1.93-.77-1.06-2.15-1.36-3.04-.91-.93.42-1.45,1.2-1.77,1.71-.32.53-.46.86-.53.83Z"/>
  <path class="cls-2" d="M107.88,141.62c-.03.13-.53.15-1.25-.18-.72-.32-1.56-1.03-2.25-1.96-.68-.9-1.18-1.9-1.25-2.71-.08-.82.22-1.28.34-1.24.14.04.13.48.36,1.09.22.62.72,1.4,1.37,2.26.63.85,1.28,1.53,1.81,1.95.53.43.92.64.88.78Z"/>
  <path class="cls-2" d="M118.24,133.07s.2-.5,1.01-1.06c.41-.27,1-.48,1.7-.57.71-.08,1.49-.11,2.39-.2,3.58-.3,8.77-.91,14.98-2.55,1.56-.41,3.2-.83,4.9-1.27.87-.2,1.67-.46,2.6-.71.46-.11.94-.21,1.46-.22.49-.02,1.17.09,1.6.6.73.94.76,2.03.82,3,.03,1.04-.08,2.02-.15,3.04-.18,2.02-.46,4.09-.79,6.21-.66,4.23-1.6,8.63-2.9,13.11-.67,2.23-1.41,4.49-2.34,6.73-.44,1.13-.97,2.23-1.5,3.33-.14.3-.26.52-.35.78l-.31.86c-.12.3-.25.62-.48.93-.22.27-.42.51-.65.75-1.84,1.87-4.22,2.88-6.5,3.65-1.15.39-2.3.72-3.43,1.05-1.12.34-2.26.69-3.39.97-4.54,1.18-9.01,1.7-13.27,2.18-.27.02-.55.04-.84.04-.29-.02-.56.02-.99-.18-.67-.35-.93-1.09-.98-1.66-.06-.59.01-1.15.13-1.68.12-.51.24-1,.37-1.5.52-1.97,1.12-3.84,1.65-5.65.26-.91.51-1.8.72-2.68.21-.88.32-1.77.48-2.63.28-1.73.61-3.37.83-4.97.95-6.38,1.71-11.54,2.24-15.1.33-1.75.2-3.19.62-4.12.2-.45.45-.74.64-.9.19-.16.3-.22.31-.21.05.04-.44.31-.76,1.18-.34.86-.15,2.3-.42,4.1-.45,3.58-1.11,8.75-1.92,15.15-.2,1.6-.5,3.27-.77,5.02-.15.87-.25,1.77-.46,2.67-.21.9-.44,1.81-.7,2.72-.51,1.83-1.1,3.7-1.59,5.64-.23.98-.56,1.97-.45,2.86.05.45.22.8.51.95.05.04.33.07.56.07.24,0,.5-.02.75-.04,4.2-.49,8.65-1.03,13.1-2.21,1.12-.29,2.21-.63,3.35-.97,1.13-.34,2.27-.67,3.39-1.05,2.23-.75,4.46-1.73,6.09-3.4.19-.21.39-.44.56-.64.14-.19.25-.43.35-.7l.31-.86c.11-.31.28-.62.4-.88.52-1.08,1.04-2.16,1.47-3.26.92-2.19,1.66-4.42,2.32-6.62,1.3-4.42,2.25-8.79,2.93-12.98.34-2.09.63-4.15.83-6.14.08-.99.19-2,.17-2.92-.03-.95-.14-1.92-.6-2.5-.39-.48-1.41-.33-2.23-.14-.43.1-.86.23-1.3.35-.44.11-.88.22-1.31.33-1.71.42-3.34.82-4.91,1.21-6.29,1.56-11.53,2.07-15.13,2.25-.9.04-1.7.07-2.39.11-.68.05-1.23.21-1.63.44-.8.47-1.07.92-1.12.88Z"/>
  <path class="cls-2" d="M138.65,165.47s-.16.17-.53.42c-.19.12-.42.27-.69.45-.29.15-.62.33-.99.53-1.5.77-3.77,1.69-6.65,2.57-2.88.88-6.36,1.75-10.28,2.43-.98.16-1.99.32-3.04.44-.53.05-1.05.12-1.6.13-.27.02-.55.03-.86,0-.25.02-.74-.09-1.01-.34-.3-.23-.48-.52-.63-.81-.12-.3-.29-.57-.23-1.06.06-.57.17-1.12.28-1.68.24-1.11.55-2.21.87-3.31,2.51-8.72,3.41-17.01,4.09-22.93.15-1.49.24-2.82.35-4.03.12-1.2.3-2.23.56-3.04.25-.82.59-1.41.89-1.76.3-.35.53-.45.54-.43.06.06-.71.66-1.06,2.29-.19.8-.32,1.8-.38,2.98-.05,1.17-.09,2.55-.2,4.04-.2,3-.63,6.56-1.15,10.48-.21,1.97-.65,4.02-1.07,6.15-.38,2.13-.96,4.34-1.61,6.52-.32,1.1-.62,2.17-.85,3.24-.11.53-.21,1.06-.27,1.59-.04.06.05.33.14.51.1.19.22.37.35.47.14.11.21.13.49.14.23.02.48.02.74,0,.51,0,1.03-.07,1.53-.11,1.02-.11,2.02-.25,2.99-.4,3.89-.63,7.36-1.42,10.24-2.2,2.88-.78,5.15-1.59,6.69-2.24.38-.16.72-.31,1.02-.44.29-.14.53-.26.72-.36.4-.19.61-.28.63-.25Z"/>
  <path class="cls-2" d="M148.39,133.25c-.07-.01-.02-.5-.01-1.36,0-.43-.01-.96-.08-1.56-.04-.3-.08-.62-.15-.96-.06-.33-.16-.67-.33-.85-.07-.09-.47-.12-.84-.03-.39.07-.79.2-1.26.33-.89.23-1.84.48-2.84.74-2.01.51-4.22,1.07-6.54,1.65-4.65,1.25-9.08,1.46-12.22,1.34-1.56-.08-2.78.01-3.57.31-.79.29-1.14.64-1.2.58-.04-.03.22-.5,1.04-.93.82-.45,2.16-.65,3.73-.66,3.11-.06,7.4-.37,12-1.61,2.32-.56,4.53-1.09,6.53-1.57,1.01-.23,1.97-.45,2.87-.65.43-.1.88-.23,1.33-.29.23-.03.46-.05.71-.03.24.03.55.09.78.35.34.42.38.87.43,1.22.05.36.07.7.08,1.02.02.64-.02,1.19-.09,1.63-.13.89-.32,1.35-.38,1.33Z"/>
  <path class="cls-2" d="M116.62,166.61c.05.01-.16.3.04.81.1.24.31.52.64.69.34.17.8.2,1.31.12,2.09-.45,5.18-1.11,8.91-2.08,1.87-.49,3.89-1.08,6.02-1.85,1.06-.39,2.15-.81,3.24-1.31,1.09-.48,2.19-1.03,3.02-1.87.74-.8,1.12-2.1,1.48-3.35.33-1.29.73-2.63,1.09-3.95.73-2.68,1.39-5.48,1.97-8.36.58-2.89,1.06-5.72,1.47-8.47.1-.69.2-1.37.29-2.05.1-.68.17-1.31.14-1.92-.02-.29-.08-.59-.17-.76-.05-.09-.07-.11-.15-.15-.07-.04-.19-.07-.32-.09-.52-.06-1.16.06-1.71.23-.51.16-1.13.51-1.71.74-.59.24-1.19.44-1.78.63-1.19.36-2.36.61-3.5.79-2.28.37-4.41.49-6.35.59-1.95.08-3.67.19-5.23.23-.77,0-1.47.02-2.1.13-.62.11-1.16.31-1.41.73-.51.86-.53,1.77-.66,2.31-.1.57-.23.85-.26.84-.03-.01.03-.3.06-.87.02-.28.04-.64.1-1.06.06-.42.14-.92.43-1.44.3-.56.99-.85,1.64-.99.67-.15,1.41-.19,2.17-.22,1.51-.09,3.28-.25,5.2-.38,3.85-.32,8.45-.58,13.08-2.92.66-.21,1.33-.36,2.12-.29.2.02.41.07.63.18.22.1.45.32.55.52.23.41.27.8.3,1.17.05.73-.03,1.45-.13,2.12-.09.68-.19,1.36-.28,2.06-.4,2.77-.87,5.62-1.46,8.53-.59,2.91-1.26,5.73-2.01,8.42-.37,1.36-.77,2.64-1.11,3.95-.4,1.29-.72,2.64-1.74,3.75-1,.98-2.2,1.54-3.32,2.02-1.12.49-2.24.9-3.32,1.28-2.17.75-4.23,1.3-6.12,1.75-3.79.89-6.86,1.44-9.03,1.78-.56.06-1.1,0-1.5-.25-.4-.25-.6-.6-.69-.89-.16-.62.15-.9.15-.87Z"/>
  <path class="cls-2" d="M117.81,158.41s.2-.39.86-.23c.34.1.6.53.64.95.06.42-.04.9-.12,1.34-.17.92-.36,2.01-.58,3.21-.12.61-.24,1.25-.4,1.91-.08.33-.16.67-.27,1.02-.05.17-.12.35-.19.54-.05.1-.08.19-.15.3-.07.11-.18.27-.33.36-.35.2-.56.18-.81.18-.21,0-.6-.09-.83-.34-.12-.12-.19-.28-.22-.44-.03-.15,0-.38.01-.43l.07-.51c.1-.67.21-1.32.34-1.93.25-1.22.55-2.3.83-3.2.29-.9.57-1.61.79-2.09.11-.23.19-.43.3-.55.11-.12.2-.14.22-.11.02.06-.07.25-.15.79-.12.52-.28,1.25-.47,2.15-.19.9-.41,1.98-.61,3.19-.1.6-.19,1.23-.27,1.89l-.06.5c-.01.12,0,.06,0,.08h0s-.03,0,.11.02c.09.01.26-.03.21-.02,0,0,0,0,.02-.03l.09-.18c.06-.14.11-.29.16-.45.1-.31.19-.63.27-.95.16-.65.31-1.27.45-1.86.28-1.2.53-2.28.8-3.19.31-.87.35-1.58.02-1.77-.36-.2-.67-.05-.7-.12Z"/>
  <path class="cls-2" d="M120.9,138.93c.13,0,.26.93.25,2.46,0,.76-.04,1.68-.11,2.69-.04.51-.09,1.04-.15,1.6-.03.28-.07.56-.11.85l-.07.44-.04.24c-.02.15-.1.27-.16.4-.2.25-.55.38-.76.4-.25.03-.4.02-.66-.01h-.07c-.25-.04-.46-.27-.57-.43-.1-.13-.26-.42-.22-.66.38-2.48.59-4.51.63-6.06,0-.75.07-1.53.52-1.9.22-.18.45-.18.58-.15.13.03.18.08.17.11,0,.07-.3.03-.49.3-.2.27-.2.83-.1,1.61.15,1.55.03,3.83-.3,6.12-.02-.03.07.1.05.06h0c.07,0,.25.02.32,0,.11-.02.08-.02.08-.02h0s.04-.2.04-.2l.07-.42c.04-.28.08-.56.12-.83.07-.55.15-1.07.21-1.57.12-1,.24-1.89.33-2.64.19-1.5.29-2.42.42-2.42Z"/>
  <path class="cls-2" d="M118.83,158.68c-.29-.06.07-2.54.41-5.58.33-3.03.49-5.53.78-5.53.26,0,.56,2.52.22,5.64-.35,3.12-1.15,5.52-1.4,5.47Z"/>
  <path class="cls-2" d="M126.7,139.89s.16-.68,1.2-1.08c1.01-.43,2.57-.27,4.28-.5,1.76-.27,3.78-.97,6.15-1.54.31-.07.56-.14.96-.19.19-.01.41-.02.66.07.25.08.51.31.61.57.17.53.1.77.14,1.11,0,.33.01.65.02.99,0,1.33-.09,2.7-.29,4.1-.06.36-.13.75-.33,1.14-.2.39-.51.71-.83.93-.66.45-1.3.64-1.91.89-1.23.47-2.45.86-3.62,1.17-1.17.31-2.3.56-3.36.74-1.06.18-2.26.26-3.16-.46-.43-.36-.63-.9-.68-1.34-.06-.44-.06-.81-.08-1.18-.03-.73-.02-1.35,0-1.86.05-1.02.16-1.58.22-1.58.07,0,.1.57.17,1.57.04.5.08,1.12.16,1.83.11.7.08,1.6.66,2.01.57.43,1.57.41,2.56.19,1.03-.21,2.13-.48,3.27-.81,1.14-.33,2.32-.73,3.52-1.2.6-.24,1.23-.46,1.69-.79.47-.32.65-.74.74-1.41.2-1.34.29-2.67.3-3.95,0-.32,0-.64-.01-.95-.01-.29-.01-.7-.05-.77-.02-.03,0-.03-.05-.05-.04-.02-.14-.03-.26-.02-.22.02-.55.1-.83.15-2.3.51-4.41,1.15-6.26,1.34-1.89.15-3.32-.11-4.26.17-.94.23-1.25.77-1.32.7Z"/>
  <path class="cls-2" d="M162.92,123.51s.07.38.11,1.1c.02.36.04.81.06,1.34,0,.53,0,1.15-.01,1.84-.07,2.75-.34,6.78-1.58,11.59-1.2,4.8-3.41,10.37-7,15.87-.89,1.38-1.86,2.75-2.91,4.11-1.02,1.39-2.26,2.69-3.6,3.89-2.7,2.38-5.76,4.46-9,6.4-3.26,1.92-6.57,3.57-9.9,4.87-1.66.65-3.36,1.19-5.02,1.59-1.65.43-3.29.81-4.89,1.13-6.42,1.32-12.37,1.6-17.31,1.22-4.94-.39-8.86-1.31-11.51-2.05-1.33-.36-2.35-.71-3.03-.95-.69-.24-1.04-.38-1.03-.41.03-.09,1.48.36,4.16.98,2.67.62,6.58,1.43,11.46,1.72,4.88.29,10.74-.07,17.07-1.42,1.58-.33,3.2-.71,4.84-1.15,1.65-.41,3.27-.94,4.91-1.58,3.26-1.28,6.53-2.92,9.75-4.82,3.2-1.91,6.24-3.97,8.86-6.27,1.31-1.16,2.49-2.39,3.49-3.74,1.04-1.33,2.01-2.68,2.9-4.02,3.58-5.39,5.82-10.83,7.09-15.55,1.31-4.72,1.69-8.69,1.87-11.42.04-.68.07-1.29.1-1.82.01-.53.03-.98.04-1.34.03-.72.06-1.11.09-1.11Z"/>
  <path class="cls-2" d="M97.53,108.7s-.09-.35-.18-1.03c-.07-.68-.16-1.7-.12-3.01.03-1.31.17-2.92.68-4.73.53-1.8,1.43-3.8,3.04-5.59,1.64-1.74,3.76-3.24,6.21-4.54.62-.32,1.26-.62,1.98-.85.76-.23,1.51-.23,2.25-.26,1.49,0,3.02.15,4.56.52,3.07.68,6.15,2.42,8.27,5.19,1.01,1.4,1.81,3.01,2.38,4.65.6,1.65,1.05,3.41,1.22,5.22.18,1.81.12,3.62-.2,5.37-.33,1.75-.92,3.4-1.65,4.95-.43.74-.77,1.52-1.27,2.2-.23.35-.46.69-.69,1.04-.24.34-.52.65-.78.98-1.09,1.26-2.4,2.29-3.82,3.01-2.86,1.45-6.01,1.7-8.77,1.21-.69-.13-1.37-.3-2.01-.56-.64-.26-1.22-.56-1.79-.87-1.14-.61-2.14-1.36-3.05-2.11-3.64-3.09-5.28-6.75-5.98-9.24-.34-1.27-.5-2.28-.56-2.96-.05-.69-.06-1.05-.03-1.05.11-.02.18,1.44.96,3.89.8,2.41,2.49,5.91,6.06,8.81.9.7,1.87,1.41,2.97,1.97,1.11.59,2.25,1.11,3.57,1.29,2.6.42,5.57.15,8.2-1.22,1.31-.68,2.51-1.63,3.52-2.81.24-.31.5-.6.73-.92l.66-1c.47-.65.79-1.4,1.2-2.11.68-1.48,1.24-3.05,1.55-4.7.3-1.65.36-3.37.18-5.09-.17-1.72-.59-3.39-1.16-4.98-.57-1.62-1.3-3.08-2.23-4.4-1.95-2.57-4.79-4.21-7.7-4.88-1.45-.36-2.92-.52-4.33-.53-.71.02-1.41.02-2.01.2-.63.19-1.26.47-1.85.77-2.38,1.22-4.5,2.67-6.07,4.28-1.54,1.64-2.47,3.55-3.02,5.27-.55,1.73-.74,3.3-.83,4.59-.17,2.58,0,4.02-.09,4.02Z"/>
  <path class="cls-2" d="M162.92,120.11s.09-.17.31-.4c.11-.11.25-.25.41-.42.15-.18.3-.4.49-.63.72-.95,1.57-2.48,2.27-4.52.7-2.03,1.32-4.54,1.62-7.37.15-1.41.22-2.91.14-4.44-.07-1.55-.38-3.03-1.05-4.55-1.24-3.02-3.01-5.65-4.95-7.7-1.95-2.05-4.1-3.48-6.03-4.41-3.91-1.8-6.69-1.92-6.65-2.15,0-.07.68-.03,1.91.1,1.22.15,2.98.56,5.03,1.4,2.04.88,4.33,2.31,6.4,4.41,2.06,2.1,3.92,4.82,5.21,7.96.32.79.62,1.57.8,2.42.18.83.27,1.65.3,2.46.06,1.61-.02,3.15-.2,4.6-.36,2.9-1.06,5.46-1.87,7.52-.81,2.06-1.79,3.6-2.64,4.52-.22.23-.4.43-.58.59-.19.14-.36.26-.49.36-.27.19-.42.27-.44.24Z"/>
  <path class="cls-2" d="M162.62,119.8s-.62.44-1.91.53c-1.29.1-3.17-.1-5.35-.84-2.17-.74-4.66-2.01-6.92-4.09-2.25-2.07-4.11-5.07-4.89-8.54-.75-3.4-1.08-6.73-.9-9.76.15-3.04,1.02-5.73,2.09-7.75,1.08-2.03,2.24-3.47,3.04-4.45.81-.98,1.29-1.48,1.35-1.44.06.04-.33.63-1.03,1.67-.7,1.04-1.76,2.53-2.72,4.53-.95,2-1.7,4.56-1.8,7.49-.12,2.92.23,6.17.96,9.5.74,3.26,2.44,6.08,4.54,8.09,2.11,2,4.46,3.3,6.52,4.09,2.07.8,3.87,1.09,5.1,1.11,1.24.03,1.89-.23,1.92-.14Z"/>
  <path class="cls-2" d="M162.92,120.11s-.05.24-.28.64c-.23.39-.58.97-1.2,1.61-.3.3-.72.69-1.3.79-.51.12-1.07.25-1.68.36-1.21.22-2.63.38-4.2.3-1.57-.1-3.31-.46-4.97-1.35-1.62-.92-3.21-2.02-4.79-3.38-3.13-2.71-5.73-6.78-6.66-11.51-.92-4.73-.46-9.3.2-13.33.37-2.04.97-3.92,1.71-5.6.37-.84.77-1.63,1.18-2.38.41-.73.86-1.46,1.37-2.06.51-.61,1.02-1.13,1.49-1.63.46-.49.88-1.03,1.39-1.43.5-.4,1.06-.71,1.65-.77.31-.03.58.03.83.09.25.07.5.2.68.38,1.02,1.53,1.04,2.53.97,2.54-.04,0-.09-.23-.27-.63-.09-.2-.22-.45-.38-.73-.17-.28-.32-.66-.59-.89-.25-.23-.75-.33-1.18-.28-.45.07-.92.35-1.35.73-.44.37-.81.89-1.28,1.42-.46.53-.95,1.06-1.41,1.65-.91,1.16-1.65,2.69-2.34,4.31-.68,1.64-1.23,3.47-1.56,5.44-.59,3.96-1.01,8.46-.12,12.97.88,4.51,3.33,8.38,6.29,11.02,1.48,1.32,3.07,2.45,4.57,3.34,1.52.85,3.14,1.24,4.63,1.37,1.5.12,2.87.02,4.06-.15.6-.08,1.15-.18,1.66-.27.47-.05.82-.34,1.14-.61,1.22-1.15,1.67-2.03,1.75-1.97Z"/>
  <path class="cls-2" d="M162.92,120.11s.17.21.19.69c.01.47-.07,1.21-.62,1.97-.26.39-.73.7-1.2.95-.48.26-1,.51-1.59.74-.29.11-.62.22-.96.29-.32.07-.65.14-1,.22-.7.13-1.44.28-2.24.32-1.58.13-3.37,0-5.17-.58-1.8-.56-3.61-1.51-5.25-2.82-1.65-1.3-3.19-2.89-4.59-4.68-1.42-1.79-2.58-3.9-3.4-6.17-1.67-4.56-1.88-9.3-1.28-13.42.56-4.15,1.93-7.69,3.29-10.5,1.37-2.83,2.99-4.88,4.37-6,.7-.56,1.23-.95,1.71-1.12.24-.07.46-.03.56.07.1.09.09.17.08.18,0,.03-.17-.25-.58-.06-.36.18-.9.64-1.52,1.22-1.25,1.17-2.72,3.2-3.99,6.02-1.26,2.81-2.52,6.29-3.02,10.32-.53,4-.3,8.57,1.31,12.95,1.54,4.4,4.55,7.9,7.62,10.47,3.12,2.56,6.78,3.63,9.8,3.41.76-.02,1.48-.14,2.16-.24.34-.06.68-.12,1-.18.31-.05.59-.13.88-.23.57-.19,1.1-.41,1.56-.63.48-.23.85-.44,1.11-.76.52-.63.68-1.3.72-1.73.05-.44-.03-.67.02-.69Z"/>
  <path class="cls-1" d="M130.75,95.43"/>
  <path class="cls-2" d="M136.8,93.72c.19.24-.96,1.2-2.6,1.69-.81.26-1.58.4-2.17.4-.58.02-1-.19-.93-.33.06-.13.32-.19.82-.37.55-.18,1.22-.4,1.97-.65,1.57-.48,2.75-.94,2.91-.74Z"/>
  <path class="cls-2" d="M136.55,95.27c.19.2-.68,1.19-2.13,1.64-1.43.44-2.6.4-2.66.15-.07-.28,1.05-.7,2.35-1.1,1.29-.4,2.26-.91,2.45-.69Z"/>
  <path class="cls-2" d="M137.17,92.65c.17.24-1.08,1.23-2.86,1.8-1.76.6-3.31.64-3.35.36-.04-.27,1.34-.74,3.03-1.32,1.71-.55,3.03-1.06,3.18-.84Z"/>
  <path class="cls-2" d="M92.2,103.14s.04-.47.22-1.34c.19-.87.48-2.14,1-3.75.54-1.59,1.25-3.58,2.72-5.54.37-.5.82-.94,1.29-1.38.46-.45.93-.92,1.43-1.38.53-.43,1.08-.87,1.65-1.32.56-.46,1.22-.82,1.85-1.25,1.29-.81,2.76-1.48,4.34-2.03,1.6-.46,3.32-.86,5.14-.84,3.61-.07,7.49,1.01,10.9,3.22,3.46,2.18,6.19,5.75,7.72,9.88.38,1.03.71,2.1.95,3.2.25,1.08.41,2.26.42,3.38.06,2.26-.03,4.53-.22,6.84-.11,1.15-.23,2.3-.47,3.44-.11.57-.31,1.17-.53,1.69-.2.54-.44,1.06-.69,1.57-1.01,2.05-2.3,3.91-3.8,5.53-1.51,1.6-3.21,3.02-5.13,3.98-1.91.96-3.95,1.57-6,1.73-4.11.31-7.9-1.05-11.04-2.71-3.15-1.7-5.78-3.89-7.58-6.37-1.83-2.46-2.89-5.06-3.46-7.4-.57-2.35-.69-4.44-.69-6.12.03-1.69.17-3,.31-3.87.15-.88.24-1.33.27-1.33.11.01-.24,1.85-.19,5.19.06,1.66.23,3.71.84,5.99.61,2.27,1.69,4.77,3.48,7.11,1.77,2.37,4.33,4.45,7.41,6.07,3.07,1.58,6.7,2.83,10.57,2.52,1.92-.17,3.83-.75,5.63-1.66,1.8-.91,3.42-2.26,4.85-3.8,1.43-1.55,2.66-3.34,3.62-5.3.24-.49.47-.98.66-1.5.21-.52.38-.99.48-1.54.22-1.07.35-2.19.45-3.32.19-2.26.28-4.52.22-6.72,0-1.11-.15-2.13-.39-3.2-.22-1.05-.54-2.08-.9-3.07-1.46-3.96-4.04-7.37-7.3-9.45-3.25-2.13-6.95-3.2-10.39-3.16-1.73-.04-3.37.33-4.92.75-1.52.51-2.94,1.13-4.2,1.9-.62.41-1.26.74-1.81,1.18-.56.43-1.1.85-1.63,1.26-.5.44-.97.9-1.43,1.33-.47.43-.91.84-1.27,1.3-1.45,1.83-2.2,3.77-2.79,5.32-.57,1.57-.93,2.82-1.18,3.67-.25.85-.38,1.29-.42,1.29Z"/>
  <path class="cls-2" d="M91.61,99.44s0-.13.03-.38c.04-.25.11-.61.23-1.08.24-.94.7-2.32,1.56-3.96.43-.82.95-1.71,1.58-2.64.59-.94,1.39-1.94,2.37-2.83.96-.9,2.15-1.73,3.39-2.51,1.23-.81,2.54-1.75,4.16-2.32,3.19-.96,6.86-1.64,10.79-1.01,3.9.61,7.87,2.51,11.07,5.59,1.59,1.54,3.03,3.36,4.06,5.45,1.04,2.11,1.68,4.37,2.23,6.7,1.05,4.66,1.16,9.8-.26,14.72-.34,1.24-.75,2.41-1.24,3.6-.55,1.2-1.31,2.22-2.1,3.18-1.57,1.93-3.39,3.6-5.39,4.96-2,1.37-4.24,2.27-6.45,2.93-1.12.33-2.28.54-3.44.56-1.16.02-2.3-.13-3.38-.36-2.16-.48-4.18-1.17-6.13-1.83-.96-.35-1.95-.63-2.89-1.11-.92-.47-1.77-1.01-2.56-1.61-.79-.59-1.51-1.31-2.11-2.01-.63-.7-1.25-1.38-1.85-2.05-1.17-1.4-2.06-2.93-2.77-4.44-1.39-3.04-2-6.02-2.29-8.63-.14-1.31-.19-2.53-.19-3.66.02-1.14.22-2.17.45-3.07.48-1.8,1.04-3.11,1.4-4.01.37-.89.58-1.36.61-1.35.03.01-.11.5-.42,1.42-.3.92-.8,2.26-1.21,4.03-.19.89-.36,1.89-.35,2.98.03,1.1.1,2.31.27,3.59.33,2.56.98,5.47,2.37,8.4.71,1.45,1.58,2.91,2.73,4.25.6.65,1.22,1.32,1.85,2,.62.7,1.25,1.33,2.02,1.89.75.56,1.57,1.08,2.43,1.5.85.43,1.82.69,2.79,1.04,1.95.65,3.95,1.31,6.04,1.76,2.08.47,4.24.46,6.36-.21,2.14-.65,4.26-1.51,6.16-2.82,1.9-1.3,3.66-2.92,5.17-4.78.75-.93,1.47-1.9,1.95-2.96.45-1.09.87-2.28,1.19-3.46,1.37-4.75,1.27-9.7.27-14.24-.53-2.27-1.16-4.51-2.13-6.48-.97-1.99-2.33-3.73-3.85-5.22-3.04-2.97-6.84-4.82-10.56-5.44-3.73-.64-7.35-.02-10.43.86-1.5.5-2.79,1.39-4.04,2.18-1.28.78-2.4,1.53-3.36,2.4-.98.85-1.73,1.75-2.35,2.68-.64.91-1.18,1.77-1.63,2.56-1.79,3.19-2.05,5.27-2.16,5.23Z"/>
  <path class="cls-2" d="M92.2,97.59c-.02.12-1.87-.04-4.78-.77-2.91-.71-6.85-2.11-10.89-4.29-4.04-2.17-7.36-4.71-9.61-6.67-.29-.25-.54-.48-.8-.68-.26-.21-.55-.43-.73-.79-.09-.17-.12-.43-.04-.62.07-.18.16-.29.24-.41.17-.22.35-.38.52-.52.33-.28.64-.44.89-.49.12-.03.23,0,.29.03.05.05.07.08.06.09-.02.03-.12-.04-.29.07-.17.1-.42.29-.68.59-.13.15-.28.32-.4.51-.06.09-.12.21-.13.29-.02.07,0,.12.05.21.1.17.33.35.61.53.29.19.58.43.87.64,2.34,1.81,5.67,4.21,9.64,6.34,3.96,2.14,7.78,3.61,10.61,4.49,2.82.89,4.62,1.3,4.59,1.45Z"/>
  <path class="cls-2" d="M92.79,95.74c-.02.12-1.71.03-4.4-.5-2.68-.52-6.38-1.57-10.11-3.53-1.87-.96-3.55-2.05-5.04-3.06-1.49-1.02-2.85-1.89-3.94-2.74-1.08-.85-1.92-1.62-2.32-2.35-.22-.34-.21-.85.04-.97.2-.13.32-.13.32-.11.02.04-.07.11-.17.24-.11.14-.07.36.14.64.42.56,1.3,1.23,2.41,1.98,1.11.76,2.52,1.57,4.03,2.54,1.51.97,3.17,2.01,5,2.95,3.64,1.91,7.2,3.04,9.81,3.73,2.61.7,4.27,1.04,4.24,1.19Z"/>
  <path class="cls-2" d="M93.38,94.81c-.02.12-1.68.08-4.34-.43-2.65-.5-6.25-1.65-9.92-3.5-3.68-1.82-6.88-3.71-9.09-5.25-1.1-.78-1.96-1.46-2.48-2.05-.24-.28-.45-.57-.42-.84.04-.24.2-.29.21-.27.03.02-.04.1-.01.27.03.15.21.34.5.57.55.46,1.45,1.05,2.59,1.73,2.28,1.37,5.5,3.15,9.14,4.94,3.63,1.82,7.08,3.04,9.64,3.71,2.57.68,4.2.97,4.18,1.12Z"/>
  <path class="cls-2" d="M65.67,84.13c.22.19-1.07,1.92-2.59,4.05-1.51,2.13-2.58,3.97-2.85,3.85-.24-.1.45-2.22,2.02-4.43,1.57-2.2,3.21-3.64,3.41-3.47Z"/>
  <path class="cls-2" d="M78,73.52c.16.26-2.53,1.97-5.5,4.45-3,2.46-4.91,4.96-5.15,4.81-.24-.13,1.4-3.03,4.51-5.57,3.07-2.56,6.03-3.9,6.15-3.68Z"/>
  <path class="cls-2" d="M78.88,72.59c.06-.09,1.62,1,4.75,2.33,3.11,1.37,7.89,2.69,13.94,3.42,6.05.7,13.3,1.52,21.33,1.19,4.01-.18,8.2-.69,12.39-1.91,2.09-.59,4.18-1.33,6.09-2.45.96-.54,1.82-1.25,2.89-1.86.14-.07.28-.15.46-.22.18-.07.46-.13.74-.04.58.2.76.7.83,1.05.04.16.06.45-.02.67-.07.23-.19.4-.31.55-.25.29-.52.48-.75.65-3.3,2.44-7.13,3.81-10.86,4.67-3.76.83-7.47,1.19-11.04,1.34-7.16.27-13.72-.42-19.47-1.07-5.76-.67-10.69-1.82-14.46-3.22-1.89-.69-3.49-1.43-4.79-2.12-.66-.34-1.23-.68-1.74-.98-.48-.32-1.02-.48-1.25-1-.07-.17,0-.36.06-.48.07-.13.15-.23.24-.31.17-.17.36-.26.52-.29.34-.06.48.1.46.1,0,.03-.16-.07-.43.02-.13.04-.29.14-.43.3-.13.16-.29.38-.2.6.15.33.68.52,1.19.81.52.28,1.1.59,1.76.9,1.31.64,2.91,1.32,4.79,1.96,3.76,1.29,8.65,2.35,14.37,2.95,5.74.57,12.27,1.2,19.34.9,3.53-.16,7.19-.53,10.86-1.36,3.65-.84,7.34-2.18,10.49-4.51.24-.17.45-.32.57-.48.06-.08.1-.15.12-.2.02-.06.02-.07,0-.19-.03-.2-.14-.3-.14-.28,0,0-.02,0-.11.02-.09.03-.21.09-.32.15-.93.52-1.85,1.27-2.87,1.85-2.01,1.18-4.19,1.94-6.32,2.53-4.27,1.23-8.56,1.73-12.62,1.89-8.13.29-15.4-.61-21.47-1.41-6.08-.82-10.9-2.27-14-3.76-1.56-.73-2.71-1.4-3.47-1.89-.75-.5-1.14-.77-1.12-.8Z"/>
  <path class="cls-2" d="M84.25,68.64c.07.24-1.11,1.01-2.53,2.15-1.44,1.1-2.57,2.03-2.78,1.86-.23-.18.66-1.5,2.16-2.65.75-.58,1.49-1.02,2.09-1.25.59-.23,1.02-.25,1.06-.12Z"/>
  <path class="cls-2" d="M140.73,73.52c-.21.14-1.19-.64-2.54-1.56-1.33-.93-2.35-1.87-2.18-2.1.16-.21,1.38.32,2.76,1.29.68.49,1.26,1.02,1.6,1.48.35.46.46.82.35.9Z"/>
  <path class="cls-2" d="M135.99,69.82s.05.26-.27.49c-.29.24-.78.47-1.43.7-1.3.46-3.21.86-5.58,1.31-4.75.91-11.42,1.68-18.81,1.57-3.69-.05-7.21-.29-10.38-.73-3.17-.44-6.01-1.01-8.35-1.66-1.17-.33-2.21-.67-3.12-.98-.9-.36-1.68-.64-2.29-.92-1.22-.59-1.88-.95-1.85-1.01.08-.17,2.76,1.16,7.43,2.23,2.33.55,5.14,1.04,8.28,1.43,3.14.38,6.63.59,10.28.64,7.32.11,13.94-.54,18.68-1.27,2.37-.35,4.3-.65,5.59-.98.64-.16,1.13-.33,1.43-.49.31-.15.34-.33.38-.33Z"/>
  <path class="cls-2" d="M86.05,71.18c.04.13-.01.29-.15.56-.09.14-.16.31-.46.51-.14.08-.29.15-.5.16-.19.02-.48-.04-.69-.25-.2-.19-.28-.5-.24-.72.03-.22.13-.39.25-.53.26-.29.62-.33.82-.3.42.08.55.29.52.41-.03.14-.27.19-.47.29-.26.11,0,.24-.26.22-.01.01,0,0,.02-.05,0-.02.01-.05.02-.08,0,0,0,0,0,0,.02,0,.07,0,.12,0,.07,0,.24-.11.38-.19.3-.18.6-.19.64-.05Z"/>
  <path class="cls-2" d="M94.31,73.73c.13,0,.26.28.05.67-.1.18-.29.38-.57.49-.28.11-.66.14-1.03-.09-.2-.11-.39-.41-.38-.67,0-.26.1-.45.21-.59.24-.3.62-.36.81-.32.41.08.52.28.51.4-.02.14-.26.2-.46.3-.11.06-.11.11-.1.15,0,.01,0,.02,0,.02-.03-.01-.08-.02-.11-.02-.08,0-.03.04.07-.11.08.03.34.05.53-.05.2-.07.34-.21.48-.19Z"/>
  <path class="cls-2" d="M103.59,74.97c.13.02.26.25.12.64-.07.19-.22.42-.53.57-.3.13-.71.15-1.07-.12-.38-.28-.44-.78-.32-1.09.09-.35.51-.6.76-.56.48.08.53.32.51.43-.02.14-.31.17-.42.27,0,.01-.01.03-.01.04h0s0,0,0,0c-.03-.06,0-.01-.01-.03h0s0,.01,0,.01c.04.04.06.04.06.06.02.06.04.06.04.05.03.03.21.09.39-.04.18-.11.33-.27.47-.25Z"/>
  <path class="cls-2" d="M113.49,75.31c0-.09.19-.18.42,0,.21.16.43.55.19,1.06-.22.43-.75.65-1.23.58-.42-.07-.79-.3-.93-.79-.06-.25.02-.51.16-.67.15-.18.34-.24.48-.25.53,0,.67.28.63.39-.04.13-.31.17-.45.3-.01.02-.02.03-.01.04-.01-.02-.04-.04-.04-.04.08.03-.05,0,.05,0,.13-.06.07-.03.13-.01.04.02.07.03.12.04.17.02.29-.02.36-.06.06,0,.13-.18.13-.27.02-.11-.03-.21-.01-.31Z"/>
  <path class="cls-2" d="M123.6,74.38c-.01-.13.32-.28.7.03.17.15.35.42.33.79-.02.37-.24.73-.6.92-.36.2-.87.17-1.18-.16-.17-.17-.24-.42-.21-.62.03-.21.13-.34.21-.42.35-.3.6-.24.67-.13.08.11-.05.33-.08.53-.02.05.05.07-.03.05-.02,0,0,0,.03-.01-.09.04,0,0,0-.02.07-.09.05-.08.07-.09l.06-.03c.13-.08.21-.17.18-.38-.02-.19-.15-.33-.15-.47Z"/>
  <path class="cls-2" d="M131.67,73.02s-.06-.14.02-.24c.08-.1.28-.19.51-.15.22.03.5.18.65.51.14.33.06.73-.16,1-.2.27-.55.44-.85.43-.29,0-.52-.12-.66-.23-.28-.25-.29-.5-.19-.58.1-.09.3-.05.51-.06.1,0,.2-.02.27-.05.06-.03.09-.07.14-.12.04-.06.05-.09.07-.1.02-.02.02-.08,0-.14-.04-.13-.18-.19-.29-.27Z"/>
  <path class="cls-2" d="M137.14,72.35c.12.06.2.23.07.44-.11.19-.49.39-.89.18-.39-.23-.42-.61-.34-.82.09-.22.26-.26.39-.21.13.05.23.15.32.18.05.01.09.02.11.01.05-.03-.06.04-.05.07,0,0,.01-.05,0-.07,0,0,.02.05.06.08.07.07.21.09.33.15Z"/>
  <path class="cls-2" d="M123.56,107.77c-.14-.07.16-.89.25-2.28.09-1.38.05-3.35-.54-5.35-.68-1.99-1.55-3.77-2.29-4.94-.74-1.18-1.36-1.81-1.26-1.93.07-.1.9.36,1.84,1.51.95,1.15,1.94,2.91,2.68,5.06.65,2.21.57,4.29.29,5.74-.28,1.47-.85,2.25-.95,2.19Z"/>
  <path class="cls-2" d="M161.93,97.5c.07-.02.16.21.34.52.19.34.57.46.85-.01.25-.4-.06-1.14-.52-1.96-.43-.81-.97-1.67-1.62-2.5-2.59-3.41-5.92-4.83-5.79-5.09.04-.11.94.06,2.24.76,1.3.68,2.96,1.93,4.34,3.72.69.89,1.24,1.82,1.65,2.7.2.44.4.85.51,1.34.11.46.08,1.04-.23,1.43-.27.37-.76.6-1.19.46-.41-.15-.55-.49-.6-.69-.1-.44-.04-.66.02-.67Z"/>
  <path class="cls-2" d="M145.07,80.53c-.26.11-.98-1-1.88-2.33-.89-1.33-1.66-2.42-1.46-2.61.19-.19,1.34.63,2.29,2.05.96,1.42,1.3,2.79,1.05,2.89Z"/>
  <path class="cls-2" d="M173.87,126.9c-.06-.04.34-.71,1.09-1.89.77-1.18,1.88-2.87,3.25-4.96,1.38-2.09,3.03-4.57,4.86-7.32.9-1.38,1.85-2.84,2.83-4.34.95-1.51,2.01-3.1,2.83-4.71.2-.43.4-.87.49-1.23.09-.39.06-.6-.18-.85-.51-.56-1.33-.82-2.18-.98-1.76-.39-3.44-.63-5.07-.74-.81-.05-1.61-.07-2.38-.06-.77.04-1.55,0-2.11.23-.33.14-.66.28-.98.42-.29.12-.58.29-.86.46-.55.35-1.06.75-1.53,1.14-1.85,1.62-3.21,3.15-4.17,4.16-.95,1.02-1.47,1.6-1.53,1.56-.05-.04.36-.7,1.23-1.81.88-1.1,2.14-2.68,3.99-4.44.47-.43.99-.86,1.58-1.26.3-.2.61-.39.96-.55.33-.15.66-.3,1-.46.38-.16.83-.24,1.21-.26.39-.03.78-.06,1.18-.07.8-.03,1.62-.02,2.46.02,1.67.08,3.44.32,5.21.7.89.17,1.95.44,2.72,1.27.2.2.39.52.45.84.07.33.03.65-.04.92-.14.55-.35.97-.55,1.41-.91,1.79-1.95,3.3-2.92,4.83-.99,1.51-1.96,2.95-2.89,4.32-1.87,2.74-3.58,5.18-5.04,7.21-1.46,2.04-2.66,3.67-3.51,4.78-.85,1.11-1.36,1.7-1.41,1.66Z"/>
  <path class="cls-2" d="M189.84,101.6c-.27.13.14-1.89-2.2-2.35-1.08-.25-2.45-.42-3.95-.57-1.5-.14-3.17-.24-4.89-.19-.85.05-1.7.12-2.38.36-.66.26-1.34.74-1.94,1.16-1.2.89-2.22,1.8-3.08,2.57-1.7,1.55-2.77,2.52-2.87,2.41-.09-.09.78-1.23,2.38-2.92.8-.84,1.79-1.83,3.01-2.8.63-.48,1.26-.97,2.14-1.34.89-.33,1.78-.39,2.69-.45,1.81-.06,3.5.07,5.04.27,1.53.21,2.9.45,4.04.81.6.18,1.09.49,1.46.83.39.35.58.82.6,1.16.06.68,0,1.02-.06,1.04Z"/>
  <path class="cls-2" d="M162.62,132.45c.04-.06.79.3,2.15.95,1.36.63,3.35,1.58,6,1.72,1.32.1,2.78,0,4.37-.09,1.58-.1,3.28-.2,5.06-.3,1.78-.12,3.65-.25,5.59-.38.97-.08,1.95-.16,2.94-.25.51-.05,1.01-.11,1.53-.16.62,0,.59-.13.61-.18h0c-3.74-1.46-7.3-2.84-10.54-4.1-1.65-.65-3.21-1.26-4.67-1.88-.41-.18-.67-.33-1-.39-.18-.03-.36-.07-.54-.1-.07,0-.3,0-.47.01-.73.04-1.42.08-2.09.12-2.66.16-4.82.29-6.31.39-1.49.08-2.32.09-2.33.02,0-.07.81-.21,2.29-.41,1.48-.19,3.63-.44,6.29-.7.67-.06,1.37-.12,2.1-.18.2,0,.34-.04.64-.02.19.03.38.06.57.09.42.06.85.28,1.16.41,1.45.57,3.03,1.16,4.68,1.78,1.66.62,3.39,1.28,5.2,1.96.9.34,1.82.69,2.75,1.04.46.18.93.36,1.4.54l.71.28c.26.12.41.12.87.42.15.14.25.33.28.53.06.55-.17.93-.58,1.18-.4.21-.75.17-.96.19-.5.05-1,.1-1.49.15-1.01.09-1.99.17-2.97.23-1.94.13-3.82.24-5.6.33-1.79.07-3.48.15-5.07.21-1.58.05-3.09.12-4.46-.03-2.78-.24-4.82-1.34-6.12-2.08-1.31-.76-2-1.24-1.97-1.3Z"/>
  <path class="cls-2" d="M191.32,134.61c.05-.05.36.47-.05,1.28-.1.19-.28.41-.55.54-.26.13-.55.18-.84.21-.56.04-1.2.08-1.9.13-2.81.2-6.7.48-11,.69-2.15.1-4.2.18-6.09.15-.24,0-.48-.02-.71-.03-.24-.02-.53-.05-.74-.11-.44-.11-.87-.24-1.27-.38-.81-.28-1.53-.62-2.16-.97-1.26-.69-2.2-1.33-2.86-1.76-.66-.44-1.02-.69-.98-.75.03-.06.45.08,1.17.41.72.33,1.73.88,2.99,1.47.63.29,1.33.58,2.1.81.38.12.79.22,1.21.31.22.06.39.05.59.07.22,0,.44,0,.67,0,1.84-.03,3.89-.13,6.04-.23,4.3-.2,8.19-.37,11.02-.39,1.4-.07,2.66.24,3-.38.43-.59.31-1.06.38-1.06Z"/>
  <path class="cls-2" d="M175.95,137.22c.16-.09,1.87,2.9,4.27,7.89,1.21,2.49,2.62,5.48,4.12,8.82.37.84.74,1.7,1.13,2.58.19.45.37.9.56,1.35l.27.71c.04.11.09.24.13.43.05.17.08.34.04.53-.04.38-.31.76-.6.94-.29.2-.59.29-.86.35-.56.13-1.09.15-1.59.2-1.02.09-2.06.18-3.12.27-2.1.18-4.16.35-6.14.52-.99.07-1.96.19-2.96.21-.99,0-2.04-.11-2.96-.65-.88-.57-1.47-1.23-2.05-1.94-.58-.77-.94-1.47-1.38-2.18-.83-1.41-1.55-2.75-2.19-3.98-1.28-2.47-2.23-4.5-2.87-5.9-.64-1.41-.97-2.2-.91-2.23.06-.03.51.7,1.26,2.06.75,1.36,1.82,3.32,3.15,5.74.68,1.2,1.43,2.51,2.28,3.89.43.66.87,1.45,1.36,2.06.52.62,1.17,1.28,1.83,1.7.68.39,1.57.5,2.48.48.91-.02,1.89-.15,2.88-.23,1.98-.18,4.04-.36,6.14-.54,1.05-.09,2.09-.18,3.12-.27.53-.05,1.02-.07,1.45-.17.21-.05.41-.12.53-.2.13-.09.16-.16.19-.28,0-.19-.22-.72-.38-1.16-.18-.45-.36-.9-.54-1.34-.37-.88-.74-1.74-1.09-2.58-1.47-3.35-2.8-6.36-3.91-8.89-1.13-2.52-2.05-4.56-2.68-5.98-.63-1.41-1-2.18-.95-2.21Z"/>
  <path class="cls-2" d="M186.29,159.61c.06-.03.34.51.33,1.56,0,.26-.03.56-.15.89-.06.16-.14.33-.28.5-.09.07-.25.16-.35.18l-.27.07c-.72.17-1.53.28-2.42.4-1.79.23-3.92.45-6.29.65-1.19.1-2.43.2-3.73.26-1.27.05-2.66.22-4.12-.12-.72-.18-1.42-.49-2.01-.94-.6-.47-1.02-1.03-1.41-1.57-.77-1.1-1.34-2.21-1.93-3.24-1.14-2.08-2.17-3.96-3.03-5.53-1.7-3.17-2.69-5.16-2.57-5.23.12-.07,1.33,1.8,3.19,4.87.92,1.55,2.01,3.39,3.22,5.43.61,1.02,1.2,2.12,1.92,3.13.36.5.76,1,1.22,1.35.47.36,1.03.62,1.64.76,1.22.29,2.55.16,3.84.12,1.29-.07,2.53-.14,3.71-.2,2.37-.15,4.5-.29,6.28-.43.89-.08,1.7-.14,2.38-.24l.24-.04c.07-.02.06,0,.11-.02.09-.09.16-.2.21-.32.11-.24.17-.51.2-.74.12-.96,0-1.51.06-1.53Z"/>
  <path class="cls-2" d="M135.99,69.82c-.09.02-.26-.99-.84-2.71-.58-1.72-1.63-4.16-3.55-6.78-1.93-2.59-4.58-5.5-8.25-7.69-1.83-1.1-3.87-2.07-6.07-2.79-2.17-.69-4.6-.85-7.06-.78-4.95.15-9.65,1.04-13.51,2.88-1.93.89-3.67,1.98-5.13,3.17-1.46,1.19-2.6,2.56-3.54,3.87-1.86,2.65-2.82,5.14-3.36,6.87-.53,1.74-.68,2.75-.76,2.74-.03,0-.03-.26.02-.74.05-.48.16-1.2.37-2.1.43-1.79,1.31-4.38,3.15-7.16.93-1.38,2.09-2.82,3.59-4.1,1.5-1.28,3.27-2.43,5.27-3.37,3.97-1.94,8.84-2.9,13.88-3.04,2.53-.07,5.06.09,7.39.85,2.28.76,4.37,1.77,6.25,2.93,1.87,1.16,3.52,2.49,4.88,3.9,1.38,1.38,2.52,2.81,3.47,4.17,1.9,2.74,2.87,5.29,3.35,7.07.24.89.37,1.6.43,2.08.06.48.07.74.04.74Z"/>
  <path class="cls-2" d="M129.49,63.55c-.14.08-.88-1.01-2.26-2.59-1.39-1.57-3.5-3.59-6.21-5.27-1.36-.83-2.72-1.5-4-2.04-1.29-.5-2.47-.9-3.49-1.15-2.03-.52-3.35-.66-3.34-.82,0-.11,1.35-.23,3.49.13,1.07.16,2.32.5,3.68.98,1.34.51,2.78,1.18,4.19,2.05,2.83,1.75,4.95,3.94,6.23,5.67,1.29,1.74,1.81,2.98,1.71,3.04Z"/>
</svg>