<?xml version="1.0" encoding="UTF-8"?>
<svg id="Capa_1" data-name="Capa 1" xmlns="http://www.w3.org/2000/svg" version="1.1" viewBox="0 0 226.77 226.77">
  <defs>
    <style>
      .cls-1 {
        fill: none;
        stroke: #1d1d1b;
        stroke-miterlimit: 10;
        stroke-width: .32px;
      }

      .cls-2 {
        fill: #1d1d1b;
        stroke-width: 0px;
      }
    </style>
  </defs>
  <path class="cls-1" d="M192.01,95.63"/>
  <path class="cls-2" d="M165.84,100.1s.21-.54,1.04-1.1c.81-.56,2.21-1.04,3.94-1.15,1.7-.16,3.79.06,5.72-.8.95-.42,1.82-1.15,2.16-2.17.36-.99.21-2.31-.05-3.43-.29-1-1.55-1.47-2.62-2.03-1.09-.54-2.15-1.05-3.16-1.52-2.03-.94-3.89-1.73-5.46-2.36-3.14-1.28-5.12-1.99-5.08-2.12.04-.12,2.09.37,5.32,1.49,1.61.56,3.51,1.29,5.58,2.19,1.03.45,2.11.94,3.22,1.48.55.27,1.11.52,1.7.89.57.35,1.18.92,1.42,1.68.12.39.15.7.2,1.03.05.33.08.66.09,1,.03.67-.04,1.37-.27,2.01-.47,1.33-1.6,2.21-2.69,2.66-1.11.48-2.25.61-3.26.64-1.02.04-1.95,0-2.78.02-1.67.01-2.97.36-3.79.79-.82.42-1.16.84-1.22.78Z"/>
  <path class="cls-2" d="M160.12,105.4c-.09-.06.59-1.18,2.29-2.38,1.68-1.21,4.36-2.26,7.36-2.98,1.49-.38,2.93-.65,4.16-1.02,1.24-.37,2.27-.87,3.02-1.46,1.54-1.19,1.81-2.48,1.95-2.43.06.01.07.34-.11.9-.19.55-.62,1.32-1.4,2.04-.77.73-1.9,1.35-3.19,1.78-1.3.44-2.73.73-4.2,1.11-2.96.71-5.54,1.61-7.22,2.62-1.69.99-2.53,1.92-2.65,1.81Z"/>
  <path class="cls-2" d="M153.95,117.5s-.39-.04-.64-.61c-.11-.27-.18-.65-.11-1.07.07-.43.29-.86.59-1.27,1.24-1.52,3.08-3.37,5.28-5.29,1.1-.95,2.19-1.81,3.21-2.56,1.02-.74,1.89-1.39,2.37-2.12.48-.72.6-1.47.71-1.98.1-.52.17-.81.23-.81.06,0,.12.3.14.84,0,.53,0,1.37-.5,2.3-.49.92-1.44,1.7-2.41,2.47-.97.78-2.03,1.65-3.12,2.59-2.16,1.87-4.1,3.68-5.38,4.99-.61.65-.76,1.34-.66,1.81.09.47.33.66.28.72Z"/>
  <path class="cls-1" d="M159.9,81.98"/>
  <path class="cls-2" d="M165.69,95.13c-.12-.09.45-.83.7-2.22.29-1.37.06-3.36-1-5.25-1.03-1.91-2.49-3.3-3.63-4.16-1.15-.87-1.97-1.27-1.91-1.41.04-.11.97.07,2.29.85,1.3.76,2.97,2.19,4.09,4.26.56,1.03.92,2.13,1.04,3.15.12,1.03,0,1.98-.23,2.72-.47,1.51-1.29,2.14-1.36,2.05Z"/>
  <path class="cls-2" d="M153.46,127.79c-.07-.03.19-.59.46-1.64.3-1.04.32-2.62.23-4.58-.12-1.89-.67-4.28-2.8-5.7-.5-.38-1.06-.72-1.64-1.06-.59-.37-1.17-.64-1.84-1.14-.31-.25-.69-.71-.66-1.28.03-.48.15-.84.28-1.22.27-.73.71-1.46,1.27-2.04,4.45-4.2,8.71-7.57,11.75-10.11,3.05-2.51,4.92-4.09,5.01-3.99.04.05-.36.51-1.15,1.29-.78.78-1.95,1.88-3.42,3.21-2.92,2.66-7.17,6.17-11.5,10.25-.49.51-.84,1.08-1.08,1.72-.12.31-.22.65-.23.9-.01.17.09.35.32.54.46.36,1.14.72,1.71,1.08.59.36,1.17.73,1.71,1.15,1.08.8,1.97,1.92,2.37,3.08.42,1.15.56,2.27.58,3.29,0,1.99-.12,3.65-.55,4.71-.4,1.06-.77,1.56-.82,1.54Z"/>
  <path class="cls-2" d="M142.43,113.08c.04-.13.41-.12.95-.05.54.06,1.25.14,1.89-.09.16-.06.3-.13.43-.21.12-.1.24-.24.36-.34.24-.2.48-.49.69-.66.42-.38.73-.57.83-.49.1.08-.02.43-.31.91-.16.25-.29.51-.57.84-.14.16-.26.33-.44.49-.2.16-.43.28-.67.37-.99.34-1.87.07-2.39-.16-.53-.24-.81-.47-.77-.6Z"/>
  <path class="cls-2" d="M152.87,128.27s0,.09-.06.22c-.04.11-.26.36-.61.31-.17-.03-.36-.12-.48-.31-.06-.09-.09-.21-.11-.33,0-.08-.02-.17-.02-.26-.03-.35-.05-.76-.07-1.2-.03-.89-.02-1.95.08-3.14.1-1.15.28-2.44-.45-3.31-.36-.44-.9-.83-1.38-1.24-.49-.39-.96-.77-1.42-1.14-.92-.73-1.73-1.24-2.53-1.77-.4-.29-.68-.72-.79-1.09-.12-.37-.13-.7-.13-.95,0-.51.08-.78.14-.79.07,0,.13.28.23.75.11.46.27,1.15.94,1.53.72.38,1.73.93,2.67,1.62.48.34.97.72,1.48,1.11.49.4,1.04.77,1.54,1.37.51.61.72,1.42.73,2.1.02.69-.08,1.32-.15,1.89-.14,1.14-.22,2.18-.28,3.06-.03.44-.05.83-.07,1.18,0,.09-.01.17-.02.25,0,.05,0,.08.01.12.03.08.09.14.16.17.15.06.29,0,.39-.07.11-.07.17-.11.2-.09Z"/>
  <path class="cls-2" d="M152.68,120.9c-.19-.18-.03-.65.4-.99.43-.34.92-.37,1.05-.14.13.23-.09.61-.47.9-.37.29-.8.42-.99.23Z"/>
  <path class="cls-2" d="M150.02,117.61c-.21-.16-.02-.76.49-1.28.51-.52,1.1-.72,1.26-.52.17.21-.12.71-.58,1.19-.46.47-.96.77-1.17.61Z"/>
  <path class="cls-2" d="M110.1,97.79c.06-.12,1.73.58,4.41,1.76,2.68,1.2,6.36,2.85,10.42,4.67,4.07,1.83,7.74,3.51,10.38,4.77,2.64,1.26,4.24,2.11,4.19,2.23-.05.12-1.75-.51-4.46-1.61-2.71-1.11-6.43-2.69-10.5-4.52-4.07-1.83-7.72-3.59-10.32-4.93-2.6-1.34-4.17-2.25-4.12-2.37Z"/>
  <path class="cls-2" d="M55.82,129.44s.04.38.29,1.04c.24.65.79,1.56,1.82,2.39.51.43,1.15.77,1.89,1.14.73.37,1.53.78,2.39,1.21,1.72.86,3.68,1.84,5.85,2.93,4.34,2.16,9.5,4.73,15.23,7.59,1.44.71,2.91,1.43,4.41,2.18.74.35,1.55.77,2.24,1.06.77.26,1.6.44,2.43.55,1.68.2,3.44.26,4.94-.51,1.54-.74,2.86-1.99,4.24-3.22,11.03-9.85,21.04-18.73,28.33-25.12,1.82-1.59,3.48-3.04,4.93-4.3.73-.62,1.39-1.21,1.9-1.83.5-.61.86-1.28.85-1.89-.02-.61-.43-1.06-.83-1.35-.41-.3-.81-.48-1.13-.61-.66-.26-1.02-.36-1.01-.39,0-.03.38,0,1.08.21.34.11.77.27,1.23.56.44.28.98.78,1.04,1.56.05.77-.35,1.52-.86,2.19-.52.68-1.19,1.3-1.9,1.95-1.42,1.3-3.04,2.77-4.83,4.4-7.17,6.52-17.12,15.48-28.14,25.33-1.37,1.21-2.74,2.53-4.47,3.36-.85.42-1.83.66-2.75.7-.93.06-1.83,0-2.72-.12-.89-.12-1.76-.31-2.61-.6-.88-.37-1.57-.75-2.34-1.12-1.5-.75-2.97-1.49-4.4-2.21-5.72-2.89-10.85-5.53-15.14-7.77-2.14-1.13-4.08-2.15-5.78-3.05-.85-.46-1.63-.89-2.36-1.28-.72-.39-1.41-.79-1.91-1.26-1.05-.92-1.57-1.92-1.76-2.62-.1-.35-.13-.63-.13-.81,0-.19,0-.28.03-.28Z"/>
  <path class="cls-2" d="M120.47,122.62c-.05-.14.94-.6,2.39-1.62,1.46-1,3.39-2.52,5.46-4.27,2.06-1.76,3.92-3.41,5.16-4.62.53-.55.63-1.29.57-1.71-.07-.45-.26-.66-.2-.71.03-.04.35.09.56.62.2.51.23,1.41-.41,2.25-1.19,1.41-2.97,3.12-5.06,4.91-2.1,1.77-4.13,3.24-5.72,4.12-1.58.9-2.72,1.16-2.75,1.04Z"/>
  <path class="cls-2" d="M120.16,122.33c-.01.05-.32.11-.89-.08-.26-.1-.69-.31-.81-.85-.11-.55.26-1.06.62-1.41,1.46-1.33,3.49-3.07,5.79-4.97,2.31-1.89,4.37-3.59,6-4.73.84-.53,1.64-.92,2.3-.8.31.05.55.22.62.38.07.16.03.25,0,.26-.07.01-.15-.3-.65-.27-.47,0-1.13.41-1.87.98-1.47,1.23-3.49,3.04-5.79,4.91-2.29,1.89-4.41,3.57-5.95,4.74-.35.29-.57.58-.55.83,0,.26.23.46.44.59.44.26.75.34.73.42Z"/>
  <path class="cls-2" d="M165.17,94.15c-.12.05-.37-.24-.68-.76-.15-.27-.34-.54-.52-.87-.17-.34-.37-.66-.66-.97-.58-.62-1.15-1.26-1.53-1.57-.39-.33-.73-.36-.76-.5-.05-.12.42-.37,1.09-.09.32.13.65.35.96.62.3.26.64.55.96.92.34.36.57.79.71,1.18.15.38.31.74.37,1.03.15.58.18.97.06,1.02Z"/>
  <path class="cls-2" d="M157.02,99.65c-.23.13-.96-.8-1.62-2.03-.32-.6-.63-1.02-.93-1.28-.29-.26-.55-.37-.55-.51,0-.12.35-.27.88-.08.53.17,1.1.75,1.44,1.4.68,1.27,1.02,2.37.79,2.5Z"/>
  <path class="cls-2" d="M148.26,107.43c-.27,0-.51-1.16-1.12-2.44-.59-1.29-1.34-2.22-1.16-2.42.15-.2,1.33.52,2.03,2.02.7,1.49.51,2.86.25,2.85Z"/>
  <path class="cls-2" d="M139.96,107.44c-.24-.13.18-1.33.45-2.83.28-1.5.32-2.77.59-2.81.25-.05.67,1.31.35,2.98-.3,1.67-1.17,2.79-1.39,2.66Z"/>
  <path class="cls-2" d="M150.41,98.97c-.17-.22,3.52-3.14,7.65-7.16,1.01-1.01,2.05-1.98,2.8-2.89.37-.46.63-.93.74-1.41.12-.52.19-1.01.2-1.45.01-.88-.3-1.54-.59-1.95-.29-.42-.5-.63-.46-.69.03-.05.32.07.74.45.41.37.91,1.13.99,2.17.04.51,0,1.06-.1,1.64-.11.63-.42,1.24-.82,1.77-.82,1.06-1.79,2-2.83,3.04-4.19,4.09-8.18,6.68-8.32,6.48Z"/>
  <path class="cls-2" d="M152.24,95.32c-.17-.2,2.18-2.48,5.23-5.09.75-.65,1.54-1.26,2.12-1.82.59-.57.88-1.16.93-1.76.06-.59-.03-1.12-.06-1.48-.04-.37-.04-.58.02-.6.06-.02.18.16.34.5.14.35.35.87.38,1.6.06.73-.32,1.67-.96,2.34-.64.69-1.37,1.27-2.13,1.94-3.07,2.62-5.69,4.57-5.86,4.37Z"/>
  <path class="cls-2" d="M140.12,101.73c.16-.21,1.63.81,3.64.6,1-.08,1.81-.44,2.42-.78.61-.33,1.02-.54,1.11-.43.08.1-.17.48-.72.98-.53.5-1.53,1.09-2.72,1.18-1.19.11-2.25-.24-2.9-.64-.65-.41-.91-.82-.83-.91Z"/>
  <path class="cls-2" d="M112.79,88.35c.06-.13,2.01.6,5.11,1.88,3.11,1.28,7.37,3.1,12.07,5.16,2.34,1.04,4.58,2.02,6.61,2.92,2.02.88,3.86,1.77,5.38,2.31,1.51.51,2.84.02,3.7-.27.87-.32,1.36-.52,1.39-.45.03.05-.4.36-1.25.8-.43.21-.97.45-1.65.62-.67.16-1.53.21-2.39-.04-1.67-.51-3.47-1.31-5.54-2.15-2.05-.86-4.29-1.82-6.64-2.85-4.7-2.06-8.92-3.98-11.96-5.42-3.04-1.44-4.89-2.38-4.84-2.5Z"/>
  <path class="cls-2" d="M112.07,89.46c.05-.11,1.47.38,3.72,1.27,2.25.89,5.34,2.17,8.73,3.66,6.77,2.96,12.17,5.62,11.98,5.98-.03.03-.36-.09-1-.34-.64-.26-1.55-.62-2.66-1.07-2.24-.92-5.32-2.22-8.7-3.71-6.77-2.97-12.19-5.54-12.07-5.8Z"/>
  <path class="cls-2" d="M96.6,94.83c-.03-.15,1.04-.43,2.6-1.23,1.56-.78,3.59-2.18,5.2-4.28.84-1.03,1.27-2.13,1.26-3.23,0-1.09-.34-2.07-.73-2.82-.8-1.52-1.74-2.19-1.63-2.31.04-.09,1.17.39,2.22,1.97.51.78.97,1.86,1.03,3.15.02.64-.07,1.33-.32,1.99-.24.67-.64,1.28-1.07,1.84-1.73,2.26-3.98,3.66-5.68,4.31-1.72.67-2.87.73-2.88.62Z"/>
  <path class="cls-2" d="M91.14,98.08s-.18.1-.54.19c-.18.05-.41.1-.67.17-.27.04-.58.07-.94.11-1.41.13-3.51.05-5.95-.76-1.2-.45-2.5-1.01-3.72-1.93-1.21-.92-2.37-2.16-3.05-3.79-.7-1.62-.75-3.56-.26-5.38.52-1.83,1.63-3.53,3.12-4.85,1.5-1.35,3.32-2.13,5-2.76.85-.32,1.71-.61,2.59-.81.85-.19,1.68-.38,2.48-.57.82-.18,1.64-.33,2.47-.36.81-.03,1.6.02,2.34.1,1.48.17,2.84.4,4.08.69,1.23.29,2.34.64,3.26,1.09.92.44,1.64.98,2.15,1.49.51.51.83.96,1.03,1.27.2.32.28.49.26.51-.07.06-.51-.61-1.54-1.51-.52-.44-1.22-.9-2.12-1.28-.89-.37-1.97-.67-3.18-.91-1.21-.24-2.56-.42-4.01-.56-1.45-.15-2.94-.09-4.53.32-.8.19-1.63.39-2.47.6-.82.2-1.64.48-2.47.8-1.67.64-3.34,1.37-4.7,2.6-1.37,1.21-2.37,2.76-2.85,4.4-.44,1.65-.42,3.35.18,4.79.58,1.45,1.61,2.61,2.71,3.49,1.12.89,2.34,1.46,3.47,1.93,2.3.85,4.33,1.03,5.7,1.02.35,0,.65-.02.92-.02.26-.03.49-.05.67-.07.37-.03.56-.04.57,0Z"/>
  <path class="cls-2" d="M81.57,101.76c-.04.11-.98-.05-2.35-.78-.67-.37-1.46-.9-2.15-1.69-.71-.78-1.26-1.87-1.5-3.05-.48-2.39-.03-4.49.16-5.95.23-1.47.32-2.38.45-2.39.13,0,.28.94.22,2.45-.03,1.5-.33,3.56.1,5.68.4,2.15,1.89,3.56,3.08,4.38,1.19.83,2.05,1.22,1.99,1.35Z"/>
  <path class="cls-2" d="M88.64,87.81c-.12-.03-.09-.57.34-1.27.42-.71,1.27-1.47,2.25-2.12,1.94-1.28,3.63-2.13,3.78-1.91.15.22-1.31,1.43-3.24,2.71-.96.63-1.75,1.22-2.25,1.73-.5.51-.74.91-.88.86Z"/>
  <path class="cls-2" d="M86.98,83.49c.02-.25,2.09-.27,4.47.58,2.38.84,3.98,2.18,3.83,2.38-.15.23-1.89-.68-4.15-1.48-2.25-.81-4.18-1.21-4.15-1.49Z"/>
  <path class="cls-2" d="M93.21,98.36c0-.14.66-.29,1.72-.59,1.06-.3,2.49-.77,4.05-1.39,1.58-.6,2.93-1.2,3.84-1.79.93-.56,1.34-1.07,1.46-1,.12.05-.16.8-1.06,1.55-.86.78-2.31,1.53-3.9,2.14-1.6.63-3.13,1.03-4.27,1.16-1.13.14-1.85.05-1.85-.07Z"/>
  <path class="cls-2" d="M105.33,97.84c-.12-.1.51-.88,1.19-2.29.67-1.41,1.32-3.5,1.26-5.88-.03-2.37-.79-4.43-1.55-5.78-.76-1.36-1.64-1.84-1.58-1.96.02-.13,1.15.19,2.14,1.59.97,1.34,1.91,3.56,1.94,6.13.06,2.57-.76,4.81-1.63,6.21-.88,1.41-1.71,2.05-1.78,1.97Z"/>
  <path class="cls-2" d="M89.52,103.64c0-.14,1.05-.23,2.72-.47,1.66-.24,3.95-.67,6.29-1.64,2.35-.97,4.33-2.19,5.66-3.19,1.33-1,2.03-1.79,2.14-1.7.1.07-.43,1.03-1.71,2.22-1.27,1.19-3.28,2.55-5.73,3.56-2.47,1.02-4.87,1.36-6.59,1.43-1.72.07-2.78-.09-2.78-.21Z"/>
  <path class="cls-2" d="M96.62,104.05c-.07-.27,2.11-1.05,4.58-2.44,2.48-1.37,4.29-2.82,4.48-2.61.18.17-1.42,2.01-4.02,3.45-2.59,1.45-4.99,1.85-5.04,1.6Z"/>
  <path class="cls-2" d="M77.14,98.78c.13-.07.65.78,1.75,1.88,1.09,1.1,2.84,2.4,5.07,3.17,2.23.77,4.42.86,5.97.79,1.57-.08,2.54-.27,2.58-.13.03.11-.89.54-2.51.8-1.6.26-3.95.27-6.35-.55-2.41-.83-4.24-2.33-5.26-3.62-1.04-1.29-1.35-2.28-1.25-2.33Z"/>
  <path class="cls-2" d="M80.99,106.22c-.08,0-.09-.26-.33-.58-.23-.33-.73-.66-1.45-.99-.71-.31-1.66-.78-2.49-1.5-.85-.72-1.66-1.67-2.26-2.82-1.23-2.32-1.18-4.81-.75-6.4.43-1.62,1.11-2.44,1.2-2.38.14.07-.3.97-.54,2.52-.24,1.52-.17,3.75.93,5.82.54,1.03,1.25,1.91,1.99,2.6.75.7,1.51,1.16,2.23,1.57.71.42,1.27.92,1.45,1.4.19.49.05.77,0,.76Z"/>
  <path class="cls-2" d="M55.7,130.25s-.33-.46-.13-1.37c.1-.44.34-.97.74-1.47.39-.51.93-.99,1.5-1.5,2.27-2.07,5.43-4.92,8.96-8.02,3.53-3.1,6.76-5.86,9.15-7.81,2.38-1.96,3.93-3.08,4.02-2.97.07.1-1.31,1.39-3.57,3.48-2.27,2.08-5.43,4.92-8.96,8.02-3.53,3.1-6.76,5.86-9.15,7.81-.6.49-1.14.9-1.53,1.33-.4.42-.65.85-.8,1.23-.29.77-.15,1.25-.23,1.27Z"/>
  <path class="cls-2" d="M109.19,97.89c-.11-.11.87-.94,1.61-2.74.36-.89.65-2.02.68-3.29.04-1.27-.17-2.68-.62-4.1-.4-1.41-1.2-2.57-2.06-3.51-.88-.94-1.79-1.67-2.64-2.12-1.72-.91-2.99-1.06-2.96-1.22,0-.1,1.32-.2,3.26.61.97.41,2,1.15,2.98,2.12.96.97,1.9,2.28,2.34,3.83.48,1.51.68,3.04.58,4.42-.08,1.39-.47,2.61-.94,3.54-.98,1.88-2.18,2.55-2.23,2.46Z"/>
  <path class="cls-2" d="M113.25,88.81c-.14.04-.44-.85-1.06-2.18-.62-1.31-1.58-3.17-3.32-4.43-1.81-1.26-3.75-1.93-5.16-2.3-1.42-.37-2.34-.5-2.34-.65,0-.12.95-.23,2.47-.02,1.51.22,3.61.81,5.57,2.18,2.01,1.46,2.92,3.54,3.4,4.96.47,1.46.55,2.4.43,2.43Z"/>
  <path class="cls-2" d="M121.68,122.43c.12.09-1.48,1.76-4.52,4.54-3.03,2.8-7.48,6.78-13.03,11.63-1.39,1.21-2.85,2.47-4.38,3.79-.38.33-.77.66-1.17.99-.39.33-.83.69-1.31.95-.95.55-2,.92-3.1,1.15-.55.11-1.11.18-1.69.21-.58.02-1.15.02-1.78-.2-1.1-.39-2.13-.85-3.2-1.32-2.12-.94-4.27-1.96-6.47-3.01-4.4-2.11-8.98-4.39-13.7-6.83-2.36-1.23-4.75-2.47-7.15-3.83-.6-.36-1.2-.67-1.79-1.08l-.45-.29c-.16-.12-.33-.26-.49-.46-.15-.2-.28-.51-.23-.82.04-.31.19-.53.32-.7.57-.65,1.22-.95,1.71-1.36l1.61-1.34c4.29-3.62,8.45-7.21,12.47-10.67,2.02-1.74,3.98-3.41,5.9-5.11.98-.84,1.95-1.65,3.09-2.33,1.2-.67,2.54-.83,3.79-.85,1.25-.02,2.46.11,3.63.16,1.17.05,2.33.04,3.47-.02,1.14-.06,2.26-.17,3.36-.32,1.05-.15,2.06-.53,3.09-.9,1.06-.37,2.06-.61,2.99-1.04.94-.41,1.83-.89,2.66-1.42.81-.51,1.46-1.22,2.18-1.89.38-.34.68-.66,1.19-.95.5-.27,1.1-.3,1.6-.17,1.01.27,1.73.83,2.49,1.24.76.43,1.51.84,2.23,1.25,1.45.79,2.84,1.51,4.15,2.16,2.62,1.3,4.92,2.33,6.81,3.13,1.89.82,3.4,1.34,4.38,1.85.49.26.81.55.99.77.18.22.24.36.23.36-.04.04-.33-.5-1.3-.96-.97-.44-2.52-.9-4.43-1.67-1.92-.75-4.25-1.74-6.9-2.99-1.33-.63-2.73-1.33-4.2-2.11-.73-.4-1.48-.8-2.26-1.22-.77-.41-1.54-.95-2.33-1.14-.4-.1-.78-.06-1.12.12-.32.18-.69.54-1.03.85-.68.65-1.37,1.41-2.26,2-.86.56-1.77,1.07-2.75,1.51-.97.46-2.05.73-3.03,1.09-1.01.36-2.07.79-3.24.96-1.12.17-2.26.28-3.43.35-1.17.07-2.35.08-3.55.04-1.21-.04-2.4-.16-3.58-.14-1.18.02-2.37.19-3.36.75-1,.61-1.98,1.42-2.93,2.24-1.9,1.69-3.89,3.4-5.89,5.13-4.01,3.47-8.16,7.06-12.47,10.69l-1.62,1.35c-.59.47-1.22.81-1.57,1.22-.08.1-.12.18-.12.22-.01.04,0,.07.05.15.06.08.15.16.27.24l.42.27c.55.37,1.16.7,1.74,1.04,2.37,1.34,4.76,2.59,7.11,3.82,4.7,2.44,9.27,4.73,13.65,6.86,2.19,1.06,4.33,2.09,6.43,3.04,1.05.47,2.09.94,3.1,1.3.43.17.98.2,1.5.18.53-.02,1.05-.08,1.56-.18,1.02-.2,2.01-.54,2.87-1.03.44-.24.82-.54,1.21-.87.39-.33.78-.65,1.17-.97,1.53-1.3,3.01-2.55,4.41-3.74,5.6-4.79,10.12-8.69,13.22-11.4,1.54-1.36,2.74-2.42,3.56-3.14.4-.37.7-.64.9-.83.18-.2.29-.3.31-.29Z"/>
  <path class="cls-2" d="M72.5,105.1c.03.06-.06.18-.21.35-.15.17-.36.44-.34.7,0,.26.25.61.64.97.36.35.76.48,1.37.48.56-.03,1.34-.05,1.53-.22.29-.2.42-.63.38-.96-.1-.71-.53-1.13-.42-1.23.04-.05.19-.01.41.14.21.16.51.44.67.94.16.49.13,1.25-.49,1.8-.32.28-.75.35-1.06.39-.31.04-.65.09-1.02.09-.37,0-.75-.04-1.11-.19-.37-.14-.68-.39-.88-.63-.4-.44-.8-1.02-.69-1.66.14-.62.57-.83.79-.93.24-.1.39-.11.43-.05Z"/>
  <path class="cls-2" d="M72.74,106.31c-.05-.12.11-.32.45-.53.32-.19.94-.45,1.66-.21.35.12.66.35.84.66.18.31.19.62.16.83-.07.43-.23.62-.36.62-.14,0-.22-.27-.32-.57-.11-.32-.26-.5-.63-.63-.36-.13-.79-.08-1.14-.05-.35.03-.61.01-.66-.11Z"/>
  <path class="cls-2" d="M91.26,140.04s0,.18-.11.39c-.1.2-.28.49-.3.8-.03.29.12.64.46.91.32.27.8.38,1.37.37.55-.03,1.23-.1,1.52-.26.28-.13.35-.5.25-.78-.23-.58-.84-.71-.8-.84,0-.06.14-.13.41-.1.26.03.68.16.99.64.14.24.23.54.19.88-.02.33-.25.73-.57.94-.32.22-.67.3-.98.36-.31.06-.64.11-.99.12-.7.03-1.49-.17-1.98-.67-.5-.46-.71-1.18-.53-1.71.17-.52.49-.75.68-.9.2-.14.34-.19.39-.14Z"/>
  <path class="cls-2" d="M91.65,141.33c-.1-.08-.05-.35.27-.62.3-.25.95-.49,1.62-.16.69.39.81,1.12.68,1.53-.14.45-.46.54-.54.45-.1-.09-.06-.3-.14-.52-.06-.22-.23-.51-.45-.62-.25-.13-.59-.13-.86-.09-.27.04-.48.11-.58.02Z"/>
  <path class="cls-2" d="M131.27,120.45c.07-.13,1.92.8,4.85,2.34,1.47.74,3.24,1.61,5.32,2.11,1.03.25,2.15.39,3.29.33.57-.03,1.13-.09,1.62-.3.48-.2.91-.56,1.29-1.01.38-.45.71-.96,1.03-1.48.33-.53.5-.91.35-1.31-.15-.43-.5-.95-.81-1.37-.33-.43-.69-.83-1.09-1.18-1.57-1.41-3.38-2.24-4.87-2.92-1.52-.66-2.73-1.24-3.61-1.28-.89-.07-1.32.28-1.36.21-.05-.02.35-.53,1.36-.58,1.01-.06,2.32.45,3.87,1.03,1.55.61,3.45,1.38,5.2,2.88.44.37.85.8,1.22,1.27.19.24.37.49.53.75.17.26.33.53.45.89.13.34.14.81.02,1.17-.11.37-.29.67-.46.94-.33.53-.67,1.08-1.11,1.6-.44.52-.99.99-1.65,1.27-.66.27-1.33.33-1.95.36-1.25.04-2.45-.13-3.54-.41-2.19-.59-3.98-1.55-5.43-2.37-2.87-1.71-4.58-2.83-4.53-2.93Z"/>
  <path class="cls-2" d="M142.52,127.06c.08-.1.57.08,1.44-.15.44-.1,1-.21,1.54-.38.55-.17,1.01-.46,1.53-.93,1.06-.95,1.95-1.78,2.28-2.57.36-.77.28-1.35.42-1.38.11-.06.48.57.22,1.6-.12.5-.41,1.07-.83,1.58-.42.52-.91.99-1.45,1.48-.53.51-1.26.93-1.92,1.07-.66.15-1.21.18-1.7.21-.49.02-.93-.06-1.19-.19-.27-.13-.36-.28-.33-.33Z"/>
  <path class="cls-2" d="M124.17,126.97c.07-.12,1.33.47,3.34,1.43,2.02.93,4.81,2.27,8.09,2.9.41.08.82.14,1.22.19.41.06.78.09,1.09.04.59-.08,1.23-.63,1.8-1.04.58-.42,1.19-.82,1.49-1.26.31-.43.36-.97.27-1.46-.19-.99-.85-1.65-1.25-2.1-.42-.45-.66-.71-.62-.76.04-.05.35.11.87.49.48.38,1.31,1,1.66,2.23.16.59.17,1.38-.27,2.05-.43.67-1.03,1.05-1.62,1.53-.62.44-1.15,1.04-2.18,1.25-.49.08-.94.03-1.35-.02-.42-.05-.85-.11-1.28-.19-3.46-.67-6.27-2.15-8.23-3.24-1.95-1.12-3.09-1.92-3.03-2.03Z"/>
  <path class="cls-2" d="M134.81,132.86c.08-.12.61.16,1.48.11.88-.01,2.01-.45,3.15-1.29.55-.41,1.2-.83,1.52-1.18.31-.31.3-.84.35-1.33.09-.96.21-1.55.34-1.55.13,0,.25.59.33,1.55.02.24.05.5.04.82,0,.31-.12.74-.37,1.05-.51.62-1.05.95-1.66,1.41-.61.43-1.27.8-1.92,1.01-.66.21-1.3.25-1.82.18-1.06-.15-1.52-.71-1.44-.79Z"/>
  <path class="cls-2" d="M116.06,133.54c.07-.12,1.87.84,4.73,2.44,1.43.78,3.14,1.74,5.15,2.38,1,.32,2.09.55,3.22.59.56.03,1.13,0,1.64-.14.54-.14.9-.4,1.36-.85.45-.42.88-.85,1.3-1.29.2-.22.4-.43.6-.65.21-.23.27-.33.31-.54.07-.4-.09-.88-.39-1.22-.31-.36-.74-.65-1.2-.92-1.87-1.08-3.56-2.06-4.99-2.88-2.83-1.66-4.55-2.75-4.49-2.87.06-.12,1.9.76,4.81,2.28,1.46.76,3.19,1.67,5.1,2.71.48.28,1,.59,1.44,1.09.44.5.75,1.21.62,1.99-.04.38-.33.8-.52,1-.21.23-.42.45-.63.69-.43.45-.86.89-1.33,1.33-.43.44-1.1.92-1.76,1.06-.66.17-1.32.2-1.93.16-1.24-.05-2.4-.32-3.45-.68-2.12-.73-3.81-1.77-5.22-2.63-2.78-1.76-4.45-2.91-4.39-3.03Z"/>
  <path class="cls-2" d="M134.84,119.09c.06-.12.63,0,1.51.29.44.14.96.36,1.5.47.55.11,1.11.12,1.54-.21.53-.44,1.04-.86,1.51-1.25.5-.39.89-.68,1-.99.12-.31.08-.73.13-1,.04-.28.13-.43.19-.42.07.01.11.15.18.39.05.24.24.59.15,1.2-.12.63-.65,1.08-1.07,1.48-.47.43-.9.86-1.53,1.36-.34.26-.81.41-1.21.42-.41.02-.77-.05-1.1-.14-.66-.18-1.13-.48-1.55-.7-.83-.46-1.31-.79-1.25-.91Z"/>
  <path class="cls-2" d="M126.87,125.71c.03-.13.61-.04,1.36.32.38.17.81.38,1.25.46.44.09.9-.01,1.39-.28.95-.57,1.77-1.47,2.44-1.95.65-.49.95-.85,1.08-.8.13.04-.03.64-.6,1.28-.27.32-.6.69-.98,1.09-.39.4-.84.86-1.46,1.21-.61.36-1.42.5-2.05.31-.63-.18-1.06-.5-1.4-.74-.66-.51-1.06-.78-1.02-.91Z"/>
  <path class="cls-2" d="M118.9,132.83c.08-.11.51.06,1.17.33.34.13.73.29,1.16.45.43.15.97.38,1.3.36.3,0,.78-.33,1.17-.56.39-.24.74-.48,1.03-.69.58-.41.96-.67,1.06-.58.1.08-.11.52-.62,1.08-.25.28-.58.6-.98.9-.2.15-.41.3-.65.45-.24.15-.57.32-.97.34-.79-.01-1.23-.31-1.69-.5-.45-.22-.84-.45-1.14-.67-.61-.44-.92-.81-.84-.92Z"/>
  <path class="cls-2" d="M108.09,141.09c.03-.06.51.1,1.32.51.81.4,1.92,1.1,3.35,1.77,1.49.69,3.09,1.78,5,2.53.95.36,2.01.63,3.03.48,1.03-.15,2.01-.74,2.87-1.53.85-.8,1.74-1.68,2.34-2.54.07-.1.13-.22.14-.26,0-.02,0,.02,0-.04,0-.05,0-.11-.02-.16-.04-.21-.13-.41-.26-.61-.26-.39-.65-.72-1.06-1.01-1.72-1.17-3.39-2.13-4.78-2.9-2.81-1.53-4.63-2.33-4.58-2.46.04-.11,1.97.47,4.89,1.86,1.46.71,3.15,1.6,4.98,2.78.46.32.93.68,1.31,1.22.19.27.34.58.42.93.02.09.03.17.04.26.02.09,0,.27-.03.39-.08.24-.16.36-.25.51-.72,1.05-1.56,1.86-2.49,2.74-.93.86-2.09,1.57-3.38,1.75-1.29.17-2.47-.18-3.49-.58-2.04-.86-3.58-2.01-4.98-2.75-1.44-.78-2.49-1.56-3.24-2.05-.74-.51-1.16-.77-1.13-.83Z"/>
  <path class="cls-2" d="M111.21,140.32c.1-.1.49.14,1.21.31.35.09.82.18,1.31.28.48.09.98.14,1.34-.04.37-.17.69-.62,1.06-1.03.37-.44.87-.71,1.18-.88.68-.33.83-.69.97-.69.06,0,.12.15.04.41-.07.26-.31.56-.62.83-.32.29-.63.51-.9.9-.3.37-.6.95-1.32,1.32-.74.35-1.46.18-1.96.04-.51-.16-.95-.31-1.33-.5-.77-.37-1.07-.86-.98-.94Z"/>
  <path class="cls-2" d="M127.2,140.41c.03-.13.67-.09,1.68.06.5.08,1.08.2,1.58.05.48-.12,1.03-.63,1.66-1.1.6-.47,1.27-.9,1.67-1.29.39-.38.55-.9.64-1.37.09-.47.12-.88.16-1.16.04-.15,0-.25.11-.28.06-.01-.05-.01,0,.01.02,0-.02.06-.07,0-.01-.02-.02-.05,0-.08-.01-.04.12-.09.15-.05.18.16.13.25.19.39.07.28.15.7.14,1.25,0,.53-.13,1.27-.67,1.89-.54.59-1.13.96-1.74,1.45-.31.24-.6.46-.92.68-.32.22-.7.43-1.11.51-.84.15-1.47-.11-1.95-.25-.97-.33-1.55-.59-1.52-.72Z"/>
  <path class="cls-2" d="M118.78,148.54c0-.14.64-.25,1.63-.41,1.01-.17,2.27-.48,3.39-1.49,1.2-.97,2.12-1.94,2.47-2.83.38-.87.3-1.51.44-1.54.11-.05.47.63.2,1.75-.24,1.13-1.27,2.36-2.5,3.35-.62.52-1.35.96-2.06,1.16-.7.21-1.35.26-1.88.27-1.06,0-1.69-.14-1.69-.26Z"/>
  <path class="cls-2" d="M99.66,148.5c.07-.13,1.87.8,4.73,2.3,1.43.75,3.19,1.48,5.19,2.24.5.18,1.01.37,1.53.52.52.14,1.06.31,1.49.23.98-.17,2.02-.84,2.98-1.54.42-.31.83-.64,1.2-.97l.66.69-.08.08-.03.03-.06.05c-.21.31-1.08-1.31-.68-.65l.02-.03.05-.06.13-.16.24-.32c.15-.22.3-.44.41-.65.11-.22.2-.44.23-.62.02-.17,0-.3-.11-.5-.44-.74-1.35-1.34-2.14-1.8-1.7-.94-3.28-1.69-4.6-2.34-2.66-1.28-4.19-2.25-4.13-2.36.06-.11,1.68.64,4.4,1.77,1.36.57,2.98,1.26,4.75,2.18.45.24.9.51,1.33.84.43.33.87.7,1.21,1.27.17.27.28.69.22,1.06-.05.36-.18.65-.32.93-.14.27-.3.53-.47.77l-.27.36-.14.17s-.01.04-.03.02c-.12-.12-.33-.21-.41-.31-.05-.07-.1-.13-.16-.19-.05-.06-.15-.14-.12-.11h.01s.07-.09.07-.09l.66.69c-.41.37-.83.7-1.27,1.04-1.03.74-2.07,1.46-3.42,1.7-.74.1-1.34-.13-1.88-.28-.55-.18-1.07-.37-1.58-.57-2-.8-3.79-1.63-5.19-2.46-2.81-1.67-4.46-2.79-4.41-2.9Z"/>
  <path class="cls-1" d="M117.02,154.72"/>
  <path class="cls-2" d="M110.33,155.63c0-.14.66-.17,1.64-.23.49-.04,1.06-.1,1.64-.29.58-.18,1.15-.52,1.72-.99.56-.47,1.12-.97,1.52-1.42.4-.46.62-.94.78-1.4.29-.92.41-1.57.56-1.55.12.01.24.64.1,1.7-.07.52-.3,1.2-.74,1.79-.45.59-.98,1.1-1.61,1.62-.63.51-1.36.93-2.08,1.09-.72.18-1.37.16-1.89.12-1.05-.11-1.64-.32-1.63-.45Z"/>
  <path class="cls-2" d="M108.58,171.52c-.02-.07.41-.23,1.12-.58.68-.35,1.76-.98,1.86-2.35.11-1.39.16-3.15.18-5.04,0-.95,0-1.95-.03-2.99-.02-.52-.02-1.05-.1-1.51-.08-.46-.29-.86-.6-1.25-1.36-1.54-3.25-2.58-4.89-3.51-1.66-.95-3.16-1.81-4.43-2.53-2.51-1.46-4.02-2.43-3.96-2.54s1.7.64,4.29,1.95c1.29.67,2.82,1.46,4.52,2.35,1.68.92,3.62,1.89,5.22,3.69.38.47.69,1.07.79,1.67.11.6.09,1.14.1,1.66.01,1.05,0,2.06-.03,3.03-.07,1.94-.19,3.64-.39,5.13-.11.77-.52,1.47-1.02,1.86-.48.4-.97.6-1.37.74-.79.26-1.25.29-1.26.23Z"/>
  <path class="cls-2" d="M105.52,171.72c.03-.06.46.09,1.29.09.39-.02.95,0,1.28-.34.43-.34.49-.85.35-1.61-.12-.79-.07-1.61-.1-2.5-.01-.88-.03-1.86,0-2.84.01-.98.02-2.02-.26-2.95-.31-.97-.83-1.9-1.59-2.67-1.52-1.57-3.57-2.36-5.37-3.25-1.8-.88-3.38-1.73-4.7-2.48-2.63-1.5-4.16-2.58-4.1-2.68.07-.12,1.72.75,4.41,2.09,1.35.67,2.95,1.45,4.76,2.28,1.76.83,3.95,1.62,5.68,3.38.86.88,1.46,1.96,1.79,3.06.33,1.16.28,2.25.25,3.25-.05,1-.07,1.92-.09,2.81,0,.88-.09,1.72-.02,2.43.03.37.06.78-.04,1.18-.11.4-.37.73-.64.92-.12.09-.29.21-.46.25-.16.05-.31.07-.45.08-.28.02-.52,0-.74-.03-.87-.12-1.29-.41-1.26-.46Z"/>
  <ellipse class="cls-2" cx="107.91" cy="156.74" rx="1.48" ry=".48" transform="translate(-76.99 111.75) rotate(-41.78)"/>
  <path class="cls-2" d="M100.63,159.48c.05.05-.46.12-.69.81-.25.68-.01,1.8-.03,3.23.01.71.02,1.5.04,2.36,0,.43.01.88.02,1.35,0,.47,0,.96.13,1.38.22.83,1.43,1.18,2.38,1.74.51.26,1.01.57,1.55.72.54.16,1.15.27,1.63.12.48-.16.67-.59.59-1.22-.06-.66-.11-1.35-.14-2.05-.03-.7-.05-1.41-.05-2.14-.01-.72.05-1.5.01-2.17-.09-1.34-1.23-2.45-2.59-3.08-1.44-.69-2.92-1.4-4.44-2.12-6.07-2.91-12.75-6.1-19.68-9.62-3.46-1.77-6.83-3.5-10.04-5.3-3.2-1.8-6.23-3.62-9.14-5.29-2.92-1.65-5.71-3.23-8.44-4.33-2.73-1.1-5.48-1.52-8-1.72-1.26-.1-2.46-.14-3.61-.16-1.14-.02-2.26-.03-3.28-.32-1.03-.27-1.88-.87-2.49-1.52-.62-.65-1.08-1.29-1.46-1.93-.66-1.34-.66-2.51-.63-3.26.06-.76.24-1.14.26-1.12.04.01-.08.39-.07,1.13.02.72.11,1.87.76,3.07.77,1.1,1.86,2.65,3.76,3.11.94.24,2,.24,3.15.23,1.15,0,2.37.01,3.65.09,2.55.16,5.39.55,8.24,1.66,2.83,1.11,5.64,2.67,8.59,4.3,2.92,1.67,5.99,3.42,9.17,5.24,3.19,1.77,6.56,3.5,10.02,5.27,6.92,3.51,13.58,6.73,19.63,9.68,1.51.74,2.99,1.46,4.42,2.16.75.37,1.46.84,2.02,1.48.56.63.95,1.45.99,2.29.04.82-.04,1.51-.03,2.24,0,.72,0,1.42.02,2.11.02.69.06,1.36.11,2.03.02.34.03.76-.17,1.14-.18.38-.55.67-.92.77-1.5.33-2.69-.4-3.67-.94-.51-.28-1-.55-1.48-.82-.47-.26-.99-.72-1.13-1.3-.15-.56-.12-1.06-.12-1.53,0-.47.02-.92.02-1.36.02-.87.03-1.66.05-2.37.08-1.4-.1-2.53.23-3.29.15-.37.4-.59.58-.66.18-.08.28-.09.29-.08Z"/>
  <path class="cls-2" d="M65.28,148.74s-.71-.15-1.28-1.21c-.25-.51-.47-1.3-.13-2.14.17-.4.45-.81.91-1.09.45-.29,1.1-.33,1.62-.14,3.57,1.75,8.49,4.15,13.92,6.81,5.41,2.68,10.29,5.14,13.8,6.98,3.5,1.84,5.64,3.06,5.55,3.22-.03.01-.19-.04-.43-.14-.27-.11-.66-.28-1.17-.51-1.01-.47-2.46-1.14-4.25-1.96-3.58-1.68-8.51-4.05-13.92-6.73-5.4-2.66-10.33-5.19-13.72-7.03-.8-.36-1.52.17-1.82.81-.32.63-.2,1.29-.02,1.77.39.98.99,1.29.93,1.36Z"/>
  <path class="cls-2" d="M97.03,167.2c.13-.23.96.01,1.85.54.89.52,1.5,1.13,1.37,1.36-.13.23-.96-.01-1.85-.54-.89-.52-1.5-1.13-1.37-1.36Z"/>
  <path class="cls-2" d="M96.03,168.61c-.22-.18.44-1.28,1.46-2.46,1.02-1.18,2-1.98,2.2-1.81.2.17-.47,1.26-1.48,2.44-1.02,1.18-1.99,1.98-2.18,1.83Z"/>
  <path class="cls-2" d="M64.29,150.69c.07-.11,1.9.78,4.81,2.33,2.91,1.54,6.9,3.73,11.28,6.2,4.38,2.47,8.32,4.75,11.14,6.44,2.83,1.69,4.54,2.8,4.48,2.91-.06.12-1.9-.78-4.81-2.32-2.91-1.54-6.91-3.73-11.29-6.2-4.38-2.47-8.32-4.75-11.15-6.44-2.83-1.69-4.54-2.8-4.48-2.91Z"/>
  <path class="cls-2" d="M64.43,150.84c-.07,0-.13-.09-.2-.27-.03-.09-.07-.2-.1-.32-.02-.06-.03-.13-.05-.2l-.02-.11c0-.06-.03-.13,0-.19.03-.31.18-.46.27-.63.11-.18.24-.34.37-.51.27-.34.59-.69.94-1.05,1.39-1.41,2.7-2.33,2.87-2.16.2.2-.82,1.44-2.19,2.83-.34.34-.66.66-.96.96-.14.14-.27.28-.4.41-.09.09-.17.18-.25.27-.01.01-.01.02-.02.04v.11c-.02.07-.03.14-.03.21-.02.13-.04.24-.06.33-.05.18-.1.29-.17.29Z"/>
  <path class="cls-2" d="M95.85,167.46c-.18-.19.52-1.27,1.57-2.42,1.05-1.15,2.07-1.93,2.27-1.76.2.17-.5,1.26-1.57,2.42-1.07,1.16-2.08,1.95-2.27,1.76Z"/>
  <path class="cls-1" d="M95.75,167.48"/>
  <path class="cls-2" d="M96.01,168.57c-.26,0-.49-.28-.5-.63-.01-.34.19-.66.45-.71.26-.05.49.23.5.63.02.39-.19.71-.45.71Z"/>
  <path class="cls-2" d="M64.41,149.51c.07-.11,1.89.82,4.76,2.41,2.88,1.58,6.89,3.73,11.26,6.19,4.38,2.46,8.32,4.73,11.13,6.43,2.82,1.7,4.52,2.83,4.44,2.97-.04.04-.49-.16-1.32-.57-.82-.41-2-1.03-3.45-1.81-2.9-1.56-6.89-3.73-11.27-6.19-4.37-2.47-8.32-4.71-11.13-6.44-2.8-1.75-4.49-2.88-4.42-3Z"/>
  <path class="cls-2" d="M102.25,169.56c0-.12.51-.22.7-.86.09-.31.08-.73.04-1.27-.03-.54-.05-1.13-.05-1.76-.02-.62.04-1.26-.05-1.63-.05-.19-.11-.31-.25-.44-.13-.13-.33-.26-.49-.38-.66-.49-1.03-.86-.96-.97.07-.11.56.04,1.31.39.18.09.39.17.63.34.25.16.51.48.6.81.2.68.13,1.25.16,1.87,0,.62,0,1.22-.02,1.76-.01.53-.06,1.11-.31,1.55-.25.45-.63.67-.91.71-.28.04-.42-.06-.41-.12Z"/>
  <path class="cls-2" d="M103.86,170.37c-.18.19-.63.04-.84-.43-.21-.47,0-.9.26-.91.27,0,.49.24.62.52.12.29.15.62-.04.81Z"/>
  <path class="cls-2" d="M104.88,162.56c.16.21-.06.65-.49.98-.11.08-.22.15-.33.2-.11.04-.19.1-.4.14-.16.01-.32-.01-.44-.15-.1-.16.02-.22.07-.22.03,0,.07,0,.1,0,0,0-.03.02-.01,0,.01-.01.03-.07.03-.15,0-.07,0-.06,0-.09,0,0,0-.03,0-.02l.02.03v.02s.02,0,.02,0h0s-.05-.07-.05-.07h0s0,0,0,0h0s.02-.04.02-.04c.03-.05.07-.09.11-.14.08-.09.17-.18.28-.26.43-.33.91-.43,1.07-.22Z"/>
  <path class="cls-2" d="M63.32,144.4c-.05.02-.19-.16-.16-.53.04-.36.31-.89.92-1.21.62-.31,1.43-.28,2.18-.08.75.19,1.54.49,2.33.86,3.09,1.53,5.43,2.99,5.32,3.22-.12.25-2.69-.85-5.73-2.35-1.5-.68-2.98-1.32-3.84-1.02-.43.14-.7.45-.82.68-.12.24-.13.42-.2.43Z"/>
  <path class="cls-2" d="M64.81,149.11c.05.16-.39.26-.87.09-.25-.1-.5-.17-.85-.5-.21-.26-.22-.47-.27-.65-.04-.19-.06-.37-.07-.56-.04-1.47.2-2.58.46-2.6.27-.01.47,1.17.5,2.54.01.16.03.32.04.47.02.14.05.27.03.25.08.12.32.33.47.45.35.28.51.4.55.51Z"/>
  <path class="cls-2" d="M32.56,127.53c.07,0,.14.53.38,1.47.26.91.62,2.34,1.6,3.66.47.65,1.31,1.02,2.23,1.45.92.42,1.95.81,3.02,1.23,1.07.43,2.23.82,3.39,1.45,1.11.6,2.26,1.23,3.42,1.89,4.65,2.65,8.77,5.18,11.79,6.94,3.01,1.78,4.9,2.84,4.83,2.97-.06.11-2.05-.75-5.16-2.38-3.12-1.62-7.3-4.06-11.94-6.7-1.16-.65-2.3-1.28-3.4-1.9-1.05-.6-2.2-1-3.27-1.46-1.07-.44-2.09-.87-3.03-1.33-.47-.23-.92-.47-1.34-.74-.43-.26-.83-.64-1.09-1.02-.54-.77-.82-1.54-1.04-2.22-.21-.68-.32-1.28-.39-1.77-.13-.99-.07-1.54-.01-1.54Z"/>
  <path class="cls-2" d="M47.89,132.55c.07.02.04.27.18.65.14.39.48.86,1.13,1.24,1.34.75,3.34,1.75,5.49,2.87,2.16,1.12,4.1,2.22,5.44,3.1,1.35.88,2.11,1.53,2.04,1.64-.07.11-.96-.33-2.38-1.05-1.44-.73-3.39-1.73-5.55-2.84-2.17-1.14-4.08-2.2-5.44-3.17-.69-.51-1.07-1.22-1.1-1.71-.05-.51.13-.75.18-.73Z"/>
  <path class="cls-2" d="M109.35,160.91c-.1-.24.26-.67.82-.96.56-.28,1.12-.33,1.26-.1s-.23.65-.82.96c-.59.3-1.15.35-1.26.1Z"/>
  <path class="cls-2" d="M111.84,168.01c-.07-.02.46-.67,1.41-1.69.96-1.04,2.37-2.51,4.13-4.32,3.52-3.61,8.44-8.56,13.92-13.97,5.48-5.41,10.48-10.27,14.14-13.74,1.83-1.74,3.33-3.13,4.38-4.07.53-.47.93-.83,1.24-1.07.32-.25.48-.34.48-.31-.01.08-.46.61-1.45,1.65-.97,1.03-2.39,2.49-4.16,4.29-3.54,3.6-8.46,8.53-13.94,13.94-5.48,5.41-10.47,10.28-14.11,13.77-1.82,1.75-3.31,3.15-4.34,4.1-1.05.97-1.61,1.44-1.67,1.42Z"/>
  <path class="cls-2" d="M151.57,123.32c-.25.1-.65-.29-1.09-.74-.43-.46-.81-.88-.69-1.12.1-.24.81-.14,1.39.46.57.6.64,1.31.4,1.4Z"/>
  <path class="cls-2" d="M111.39,157.81c.02-.09.76.13,2.07-.06.65-.1,1.44-.31,2.28-.7.37-.14.74-.54,1.15-.88.4-.36.83-.75,1.27-1.16,3.54-3.3,8.42-7.85,13.81-12.87,5.4-5.02,10.32-9.54,13.92-12.77,3.6-3.23,5.88-5.18,5.99-5.04.03.03-.48.58-1.44,1.53-.96.96-2.35,2.32-4.09,4-3.48,3.36-8.32,7.95-13.73,12.98-5.41,5.02-10.34,9.52-14.01,12.68-.46.39-.91.76-1.33,1.11-.44.33-.79.71-1.33.91-.92.37-1.76.53-2.45.58-1.4.08-2.13-.27-2.1-.31Z"/>
  <path class="cls-2" d="M114.95,162.87s-.1-.17-.11-.52c-.01-.35.08-.9.43-1.48.33-.59.88-1.2,1.51-1.86.61-.67,1.37-1.43,2.2-2.22,3.32-3.21,7.96-7.59,13.13-12.38,5.17-4.79,9.88-9.09,13.32-12.17,1.72-1.54,3.12-2.78,4.1-3.62.98-.84,1.54-1.28,1.58-1.24.11.11-1.9,2.15-5.22,5.36-3.32,3.21-7.96,7.58-13.13,12.38-5.17,4.79-9.88,9.09-13.32,12.17-.87.78-1.62,1.45-2.28,2.11-.67.62-1.22,1.17-1.57,1.68-.72,1.03-.53,1.81-.63,1.8Z"/>
  <path class="cls-2" d="M83.37,72.34c.13.06-.06.57.13,1.29.1.36.3.72.66,1.03.36.32.86.59,1.44.91,1.15.65,2.11,1.31,2.81,1.79.69.49,1.11.82,1.05.94-.05.12-.59,0-1.38-.35-.79-.34-1.83-.92-2.94-1.55-.56-.31-1.15-.64-1.59-1.12-.46-.46-.69-1.08-.71-1.56-.04-1.01.45-1.46.54-1.39Z"/>
  <path class="cls-2" d="M81.95,76.32c-.11-.25.2-.61.59-.94.4-.33.81-.56,1.03-.41.22.14.1.72-.42,1.15-.51.43-1.1.45-1.2.21Z"/>
  <path class="cls-2" d="M78.37,74.1c.13.05.1.42.15.96.03.54.23,1.3.27,2.27,0,.49.02.76.16.99.13.24.37.44.59.61.45.32.78.53.73.66-.04.12-.43.15-1.04-.07-.3-.11-.69-.3-1-.71-.34-.41-.39-1.05-.39-1.46-.03-.84-.14-1.71.01-2.35.14-.64.41-.96.52-.91Z"/>
  <path class="cls-2" d="M78.09,74.5c-.13.01-.25-.36.06-.77.3-.4.82-.65,1.32-.88,1.05-.47,1.98-.66,2.09-.42.11.24-.65.82-1.7,1.29-.54.24-1.01.37-1.26.5-.26.11-.39.28-.52.27Z"/>
  <path class="cls-2" d="M71.63,64.62c.05.1-.24.55-.12,1.54.06.46.13,1.09.43,1.5.37.55.77,1.17,1.24,1.73,2.05,2.06,4.63,2.72,4.5,3.04-.04.12-.68.06-1.69-.24-.5-.16-1.09-.39-1.71-.76-.29-.18-.6-.37-.92-.57-.35-.23-.66-.54-.92-.85-.53-.64-.92-1.29-1.26-1.89-.41-.75-.36-1.41-.35-1.96.04-.55.18-.99.37-1.26.19-.28.4-.33.43-.28Z"/>
  <path class="cls-2" d="M91.56,69.32c-.13-.11.76-.93,1.41-2.57.31-.82.48-1.86.16-2.94-.28-1.1-.99-2.2-1.95-3.12-.97-.92-2.12-1.55-3.22-1.93-1.1-.38-2.17-.48-3.06-.46-.9.02-1.62.14-2.1.26-.49.12-.71.27-.76.22-.05-.04.14-.33.63-.57.49-.25,1.24-.48,2.19-.59.95-.11,2.13-.07,3.37.3,1.23.37,2.52,1.04,3.61,2.07,1.08,1.03,1.87,2.3,2.15,3.6.33,1.31.04,2.56-.39,3.42-.43.88-.96,1.47-1.34,1.83-.39.36-.65.51-.69.47Z"/>
  <path class="cls-2" d="M78.07,60.4s.04-.33.46-.67c.42-.35,1.1-.64,1.96-.93.43-.13.99-.28,1.55-.18.57.06,1.14.15,1.74.4.58.23,1.23.64,1.62,1.31.41.63.51,1.65-.02,2.36-.5.7-1.22,1.04-1.93,1.2-.71.15-1.37.1-1.96.05-1.2-.1-2.29-.36-3.13-.87-.41-.25-.77-.61-.9-1.03-.14-.42-.05-.8.07-1.03.24-.49.5-.64.54-.62.07.05-.09.29-.18.73-.13.45.06,1.01.81,1.35.72.35,1.73.54,2.85.58.57.03,1.15.04,1.69-.09.52-.12,1.06-.42,1.34-.83.29-.4.26-.91,0-1.35-.25-.44-.68-.75-1.16-.97-.48-.23-1.01-.34-1.46-.42-.46-.12-.89-.03-1.3.04-.83.19-1.52.38-1.92.59-.42.2-.6.41-.66.36Z"/>
  <path class="cls-2" d="M86.46,70.61c-.27-.03-.21-2.27-.23-5.01,0-.69-.01-1.34-.02-1.94,0-.59-.08-.97-.29-1.34-.41-.71-.83-1.16-.72-1.26.08-.08.61.13,1.28.89.34.37.58,1.06.61,1.68.05.61.09,1.27.09,1.98.02,2.81-.47,5.05-.73,5.02Z"/>
  <path class="cls-2" d="M67.85,56.03s.08-.26.46-.39c.39-.13.91-.12,1.52-.14,1.26-.02,2.95-.03,4.89.11.97.09,1.92.27,2.73.61.81.33,1.46.77,1.96,1.16,1,.8,1.5,1.39,1.43,1.49-.08.11-.75-.3-1.81-.93-.53-.3-1.16-.65-1.89-.9-.73-.25-1.58-.4-2.51-.48-1.86-.13-3.61-.23-4.84-.38-.63-.07-1.12-.17-1.42-.16-.31,0-.48.08-.53.03Z"/>
  <path class="cls-2" d="M86.27,65.11s.09.37-.27.9c-.35.54-1.2,1.03-2.26,1.2-.53.1-1.12.14-1.74.13-.61,0-1.33-.08-2.01-.3-1.35-.45-2.69-1.02-4.15-1.67-1.44-.66-2.78-1.42-3.88-2.3-1.1-.87-1.95-1.83-2.52-2.73-1.15-1.82-1.17-3.21-1.06-3.21.15-.04.41,1.24,1.62,2.83.6.79,1.44,1.64,2.5,2.42,1.06.78,2.35,1.48,3.75,2.13,1.4.63,2.8,1.25,4.02,1.7,1.19.41,2.42.41,3.39.34.98-.08,1.7-.4,2.07-.77.37-.37.47-.69.55-.66Z"/>
  <path class="cls-2" d="M86.27,67.75c.05,0,.05.4-.43.82-.46.42-1.29.73-2.31.93-.51.1-1.07.17-1.68.2-.59.04-1.33.02-2.01-.21-1.35-.44-2.6-1.14-4.02-1.79-1.38-.66-2.75-1.41-3.74-2.4-1-.97-1.71-1.95-2.33-2.73-1.21-1.6-2.15-2.38-2.08-2.49.06-.11,1.22.53,2.59,2.05.7.74,1.46,1.66,2.42,2.52.94.87,2.18,1.52,3.57,2.19,1.37.64,2.69,1.38,3.86,1.81.59.22,1.13.25,1.72.26.58,0,1.12-.02,1.6-.07.97-.1,1.74-.3,2.19-.56.45-.25.57-.55.65-.52Z"/>
  <path class="cls-2" d="M55.7,88.41c-.08-.09,1.26-1.48,3.69-3.46,1.21-.99,2.7-2.11,4.39-3.29.85-.58,1.74-1.19,2.67-1.82.92-.63,1.73-1.26,1.9-2.34.24-1.08.31-2.24.11-3.24-.21-1.05-.58-2.04-.92-3.01-.72-1.92-1.24-3.86-.95-5.51.35-1.69,1.35-2.66,2.04-3.21.73-.55,1.27-.6,1.27-.55.03.07-.43.24-1.03.83-.57.57-1.41,1.61-1.61,3.02-.17,1.47.34,3.22,1.11,5.11.37.96.78,1.99,1.02,3.14.24,1.2.16,2.41-.1,3.64-.12.6-.44,1.31-.89,1.76-.44.47-.94.82-1.41,1.13-.93.62-1.83,1.21-2.69,1.77-1.71,1.13-3.22,2.18-4.48,3.1-2.5,1.82-4,3.03-4.1,2.93Z"/>
  <path class="cls-2" d="M53.54,88.85c-.05.02-.14-.52.45-1.13.28-.29.67-.55,1.07-.89.42-.34.89-.72,1.41-1.15,2.11-1.68,5.07-3.95,8.36-6.41.8-.61,1.65-1.24,2.29-1.83.03-.03.01-.01,0,0h0s.12.08.18.11l.11.05.06.02c-.69-.32-.19-.09-.34-.16h0c.02-.05.03-.09.04-.13.03-.08.04-.17.05-.27.02-.19.02-.4,0-.62-.03-.42-.13-.84-.25-1.25-.24-.82-.59-1.6-.83-2.38-.25-.77-.36-1.6-.31-2.29.07-1.39.31-2.46.49-3.2.18-.74.33-1.13.4-1.12.07.01.04.43-.03,1.18-.06.75-.2,1.83-.18,3.14,0,.66.12,1.31.39,2.04.25.72.62,1.48.92,2.37.14.44.27.92.32,1.43.03.25.04.51.01.8-.01.14-.04.29-.08.44-.02.07-.05.15-.08.22-.02.06-.16.25-.2.28-.78.73-1.56,1.29-2.39,1.93-3.3,2.47-6.32,4.64-8.53,6.19-.55.38-1.06.73-1.5,1.03-.45.32-.86.53-1.14.74-.57.42-.62.87-.7.85Z"/>
  <path class="cls-2" d="M67.43,64.19c-.26,0-.45-.93-.41-2.08.04-1.15.29-2.06.55-2.04.26.02.45.95.41,2.08-.04,1.13-.29,2.04-.55,2.04Z"/>
  <path class="cls-2" d="M66.22,70.43c-.13.03-.43-.99-.57-2.67-.15-1.68-.14-3.99-.07-6.53.04-1.28.07-2.46.06-3.56.01-1.12.13-2.23.81-3.03.09-.09.19-.18.31-.25.13-.08.27-.12.4-.13.26-.02.47.03.65.1.36.14.6.35.77.54.35.4.31.75.25.74-.07.01-.15-.23-.5-.47-.17-.12-.41-.24-.68-.31-.14-.03-.28-.04-.4,0-.06.01-.1.04-.14.06-.05.04-.1.09-.15.15-.38.53-.49,1.52-.44,2.57.06,1.09.05,2.34.02,3.6-.08,2.52-.15,4.81-.21,6.48-.04,1.65.03,2.67-.11,2.7Z"/>
  <path class="cls-2" d="M95.78,59.41c-.05.12-1.06-.14-2.67-.68-.8-.27-1.75-.58-2.8-.93-.52-.18-1.07-.37-1.64-.57-.57-.17-1.17-.33-1.79-.48-2.46-.58-4.77-.81-6.41-.83-1.65-.01-2.63.33-2.68.2-.06-.1.9-.71,2.65-.87,1.73-.16,4.11-.02,6.67.57.64.15,1.26.32,1.84.51.57.22,1.12.43,1.65.63,1.05.41,2,.77,2.76,1.13,1.54.69,2.47,1.18,2.42,1.31Z"/>
  <path class="cls-2" d="M91.05,77.77s-.33-.12-.91-.42c-.59-.29-1.45-.72-2.56-1.26-.56-.28-1.17-.59-1.84-.97-.32-.19-.69-.36-1.03-.69-.17-.16-.33-.38-.39-.66-.06-.27,0-.57.13-.81.26-.48.8-.77,1.3-.85.52-.09,1-.05,1.48-.1.96-.07,1.97-.3,2.97-.71,1.96-.81,3.96-2.36,4.95-4.66.49-1.13.73-2.44.47-3.7-.07-.31-.17-.62-.29-.92-.13-.31-.3-.64-.41-1.05-.13-.4-.06-.94.08-1.31.15-.4.43-.84.88-1.07.44-.24.91-.24,1.33-.2.42.04.81.14,1.19.27.76.25,1.44.59,2.14.87,1.42.59,2.87,1.19,4.34,1.79,2.95,1.22,6,2.48,9.13,3.77,3.13,1.28,6.19,2.53,9.14,3.73,1.48.59,2.94,1.17,4.36,1.7.73.28,1.35.47,2.09.52.75.04,1.49.08,2.22.11.75.03,1.56.27,2.21.51.68.24,1.35.48,2,.73,1.3.5,2.56.99,3.78,1.46,2.42.98,4.67,1.89,6.73,2.72,4.1,1.69,7.4,3.11,9.67,4.11,1.13.5,2.01.9,2.6,1.19.59.28.89.45.88.48-.01.03-.34-.07-.95-.3-.61-.23-1.51-.58-2.67-1.02-2.31-.91-5.65-2.21-9.78-3.83-2.07-.8-4.33-1.67-6.76-2.61-1.22-.46-2.48-.93-3.78-1.41-.65-.23-1.31-.46-1.98-.7-.69-.24-1.29-.42-2.01-.45-.71-.05-1.45-.04-2.23-.1-.77-.03-1.63-.28-2.32-.55-1.46-.53-2.91-1.1-4.4-1.69-2.96-1.2-6.02-2.44-9.16-3.72-3.13-1.3-6.18-2.57-9.13-3.79-1.47-.62-2.92-1.22-4.33-1.82-.72-.29-1.41-.63-2.08-.86-.66-.23-1.38-.36-1.82-.14-.4.2-.68.89-.53,1.39.15.55.57,1.27.69,2.01.29,1.48,0,2.95-.56,4.19-1.14,2.52-3.32,4.14-5.43,4.97-1.07.41-2.15.63-3.18.69-.52.04-1.01,0-1.42.06-.42.06-.76.25-.94.55-.18.29-.11.6.14.85.24.25.6.44.91.64.64.39,1.24.73,1.78,1.03,1.08.6,1.93,1.07,2.48,1.42.55.35.83.56.81.59Z"/>
  <path class="cls-2" d="M137.21,91.18c-.04-.05.72-.78,2.13-2.05.71-.63,1.56-1.41,2.6-2.3.53-.42,1.09-.87,1.69-1.34.29-.24.59-.49.88-.75.14-.13.29-.27.43-.42.15-.15.28-.29.34-.42.31-.58.17-1.51-.3-2.14-.25-.34-.52-.52-.97-.7-.44-.19-.89-.38-1.35-.57-1.84-.77-3.81-1.55-5.91-2.32-2.09-.75-4.32-1.57-6.65-2.05-.59-.1-1.14-.18-1.6-.05-.54.17-1.09.44-1.62.73-.53.3-1.07.62-1.56.98-.49.37-1,.79-1.5,1.19-2.02,1.61-4,3.18-5.91,4.7-.48.38-.95.75-1.42,1.13-.47.38-.95.72-1.21,1.11-.28.42-.28.72,0,1.05.29.34.77.6,1.25.82.49.22,1,.4,1.51.58.51.16,1.07.39,1.54.6.98.42,1.92.83,2.84,1.22.92.4,1.8.78,2.65,1.15.87.38,1.65.81,2.41,1.18,1.49.76,2.91,1.33,4.2,1.33,1.29.02,2.33-.52,3.12-1,1.58-1,2.37-1.72,2.43-1.65.02.02-.16.22-.52.57-.37.34-.91.85-1.7,1.4-.78.53-1.87,1.19-3.32,1.22-1.43.06-2.97-.52-4.5-1.25-.77-.36-1.56-.76-2.4-1.11-.86-.35-1.75-.72-2.67-1.09-.92-.38-1.88-.77-2.86-1.18-.51-.21-.95-.39-1.48-.55-.52-.17-1.06-.35-1.6-.59-.53-.25-1.09-.51-1.57-1.04-.24-.26-.42-.66-.43-1.08.01-.43.16-.77.36-1.07.41-.59.93-.94,1.38-1.31.47-.38.94-.75,1.42-1.14,1.91-1.53,3.89-3.11,5.91-4.73.51-.4.99-.81,1.53-1.2.54-.39,1.1-.72,1.67-1.04.57-.31,1.15-.59,1.8-.8.75-.21,1.45-.07,2.05.03,2.46.52,4.67,1.36,6.78,2.14,2.1.8,4.08,1.62,5.91,2.42.46.2.91.4,1.35.6.45.17.98.53,1.26.97.58.87.78,1.96.29,2.9-.05.12-.16.22-.23.32l-.23.23c-.15.15-.31.29-.46.43-.31.27-.63.52-.93.75-.61.45-1.19.88-1.74,1.28-1.05.84-1.95,1.57-2.69,2.16-1.48,1.19-2.32,1.82-2.37,1.77Z"/>
  <path class="cls-2" d="M115.19,87.27c-.08-.1,1.39-1.44,3.84-3.52,1.24-1.03,2.71-2.26,4.34-3.62.82-.67,1.68-1.39,2.63-2.08.48-.35.97-.68,1.51-1,.53-.32,1.27-.59,1.96-.56.34,0,.67.04.98.08.32.05.65.13.94.21.59.16,1.15.35,1.71.53,1.1.37,2.15.76,3.15,1.14,1.99.75,3.77,1.47,5.25,2.1.73.31,1.44.61,1.98,1,.55.37.96.76,1.27,1.11.61.69.81,1.17.76,1.2-.06.04-.36-.36-1.02-.94-.66-.6-1.7-1.26-3.24-1.74-1.51-.54-3.31-1.19-5.31-1.9-1-.34-2.05-.7-3.14-1.08-1.11-.34-2.2-.76-3.33-.76-.54-.01-.99.15-1.49.43-.49.28-.98.61-1.44.93-.93.66-1.79,1.35-2.63,2.01-1.68,1.3-3.19,2.47-4.46,3.46-2.56,1.95-4.18,3.1-4.27,2.99Z"/>
  <path class="cls-2" d="M140.21,99.32c-.01-.09.76-.12,1.99-.66.61-.28,1.32-.69,2.08-1.27.74-.59,1.57-1.34,2.49-2.15,1.83-1.63,4-3.57,6.42-5.72.59-.55,1.2-1.1,1.82-1.68.63-.58,1.21-1.12,1.47-1.84.13-.34.11-.61-.05-.89-.16-.28-.47-.56-.8-.81-.68-.49-1.52-.86-2.36-1.21-6.92-2.7-13.35-4.89-17.92-6.63-2.3-.85-4.15-1.57-5.41-2.09-1.27-.52-1.95-.86-1.93-.92.03-.06.75.15,2.06.57,1.31.43,3.19,1.04,5.51,1.81,4.64,1.58,11.06,3.65,18.07,6.38.88.37,1.74.75,2.55,1.33.39.29.79.62,1.07,1.12.3.49.31,1.2.1,1.68-.21.5-.43.86-.77,1.25-.33.36-.64.63-.96.93-.63.57-1.25,1.12-1.86,1.67-2.44,2.14-4.67,4.02-6.56,5.57-.95.77-1.8,1.48-2.61,2.06-.82.57-1.59.95-2.25,1.18-1.33.46-2.14.36-2.13.32Z"/>
  <path class="cls-2" d="M154.85,86.44c.07.1-.06.39-.52.65-.41.25-1.44.37-2.04-.5-.29-.44-.24-1.01-.01-1.37.22-.4.72-.56.98-.51.52.09.68.21.73.32.05.14-.33.27-.68.35-.17.06-.21.13-.26.26-.05.14-.04.31.04.43.2.31.66.42,1.02.37.37-.03.65-.12.73,0Z"/>
  <path class="cls-2" d="M139.1,97.85c0,.12-.36.22-.71-.15-.16-.18-.3-.45-.28-.81.02-.36.21-.7.5-.94.29-.23.64-.34.95-.32.31,0,.55.11.73.22.35.23.44.49.36.59-.14.2-.98-.16-1.44.27-.24.2-.28.39-.25.64.03.23.17.38.14.51Z"/>
  <path class="cls-2" d="M93.99,77.2s-.18,0-.48-.1c-.3-.1-.75-.26-1.27-.63-.48-.37-1.12-1.05-1.01-2.08.06-.5.35-.96.7-1.34.35-.38.75-.7,1.15-1.05,1.64-1.39,3.52-3.08,5.76-4.86,1.13-.88,2.4-1.74,3.86-2.39.37-.16.77-.32,1.22-.39.45-.08.93-.05,1.35.03.84.18,1.58.44,2.38.67,6.26,2.02,11.68,4.4,15.63,6.06,1.96.85,3.54,1.54,4.65,2.03,1.09.49,1.69.78,1.66.85-.02.06-.66-.12-1.8-.5-1.14-.38-2.76-.98-4.77-1.75-4.01-1.5-9.48-3.78-15.66-5.77-.77-.23-1.56-.5-2.27-.65-.71-.16-1.32-.02-2,.28-1.36.59-2.58,1.4-3.7,2.24-2.22,1.71-4.18,3.36-5.86,4.68-.84.66-1.63,1.23-1.76,1.95-.13.71.32,1.35.72,1.71.89.72,1.56.93,1.52,1.02Z"/>
  <path class="cls-2" d="M97.39,63.2c.19-.19.77.04,1.3.51.53.47.84,1.02.67,1.23-.16.21-.75-.02-1.3-.51-.56-.49-.86-1.04-.67-1.23Z"/>
  <ellipse class="cls-2" cx="104.05" cy="63.59" rx=".48" ry="1.14" transform="translate(-15.01 37.25) rotate(-18.96)"/>
  <path class="cls-2" d="M95.11,76.14c-.02.06-.22.07-.57-.05-.17-.07-.39-.16-.6-.41-.23-.23-.29-.75-.06-1.1.21-.35.46-.55.7-.82.25-.26.53-.53.82-.81.59-.56,1.27-1.14,2.01-1.72,3.02-2.23,5.62-3.72,5.76-3.52.17.23-2.23,2.1-5.17,4.27-.72.56-1.4,1.11-2.01,1.62-.3.26-.59.5-.86.73-.26.23-.55.45-.67.61-.12.16-.14.28-.07.44.07.15.22.28.34.38.25.2.42.31.39.38Z"/>
  <path class="cls-2" d="M102.25,68.2c-.07-.1.21-.45.84-.75.62-.3,1.61-.48,2.66-.28,1.04.2,1.88.68,2.39,1.11.52.43.74.79.66.89-.18.23-1.47-.71-3.23-1.05-1.78-.36-3.18.3-3.32.09Z"/>
  <path class="cls-2" d="M76.69,88.88c.16-.04.39,1.17,1.54,2.67.57.74,1.37,1.54,2.4,2.22,1.02.69,2.28,1.2,3.69,1.53,2.81.68,5.5.57,7.4.38,1.91-.17,3.01-.61,3.08-.5.07.11-1.01.81-2.98,1.17-1.93.36-4.73.59-7.72-.12-1.48-.35-2.88-.94-3.97-1.74-1.09-.78-1.9-1.7-2.45-2.55-1.1-1.73-1.08-3.06-.98-3.06Z"/>
  <path class="cls-2" d="M77.83,70.94c-.26,0-.45-.58-.42-1.28.04-.7.28-1.24.54-1.2.26.04.45.61.42,1.28-.03.67-.27,1.21-.54,1.2Z"/>
  <path class="cls-2" d="M86.79,63.52s-.08-.09-.12-.3c-.03-.18-.1-.57.27-.92.4-.31.86-.28,1.29-.54.57-.23,1.25-.27,1.98-.03.36.12.71.33,1.01.64.29.31.5.68.66,1.08.31.8.44,1.71.31,2.67-.07.48-.2.97-.47,1.44-.31.51-.68.79-1.01,1.14-.7.67-1.42,1.38-2.37,1.96-1.02.55-2.02.73-2.99.9-.97.16-1.9.24-2.79.29-.88.05-1.74.09-2.57-.02-.83-.11-1.59-.4-2.18-.8-1.18-.85-1.71-1.89-1.97-2.61-.25-.74-.18-1.19-.13-1.19.08,0,.14.4.47,1.04.33.62.94,1.53,1.99,2.19.53.31,1.18.52,1.91.58.73.07,1.55,0,2.42-.07.87-.08,1.77-.18,2.7-.34.91-.17,1.89-.38,2.66-.8.78-.48,1.52-1.17,2.2-1.81.33-.33.72-.66.88-.94.2-.32.32-.71.38-1.1.24-1.56-.26-3.25-1.36-3.63-.53-.22-1.12-.23-1.55-.1-.51.22-1.04.18-1.26.34-.23.14-.28.44-.3.62-.02.19-.04.3-.07.3Z"/>
  <path class="cls-2" d="M56.23,87.88c.05.05-.12.26-.28.69-.17.42-.29,1.08-.3,1.93.02,1.7-.02,4.14-.14,6.78-.03.6-.05,1.18-.08,1.75-.02.28-.03.56-.04.84l-.02.41c0,.09,0,.09,0,.09h0s0,.02.01.03c0,0,0,0,.11.02.18.02.36.04.53.06l.27.03.14.02.23.04c.32.05.53.27.54.55-.01.35-.02.69-.03,1.01-.01.28-.03.54-.04.79-.03.5-.06.93-.09,1.28-.07.71-.14,1.11-.22,1.11s-.16-.4-.23-1.11c-.03-.35-.07-.79-.1-1.28-.02-.46-.05-.98-.08-1.54,0-.03-.03-.04-.06-.04h-.03s-.12,0-.12,0l-.26-.02c-.18-.01-.37-.02-.56-.03-.07,0-.27-.03-.44-.08-.18-.04-.28-.18-.4-.3-.05-.1-.08-.22-.09-.35,0-.13,0-.27,0-.31v-.41c.02-.27.03-.55.04-.84.02-.57.04-1.15.06-1.75.11-2.66.26-5.02.42-6.79.11-.89.35-1.62.65-2.05.3-.43.58-.56.61-.52Z"/>
  <path class="cls-2" d="M33.6,124.36c.07.01,0,.52.25,1.39.12.42.3.98.68,1.38.17.19.44.18.82.26.37.05.75.1,1.16.15,3.28.37,7.84.81,12.86,1.29,1.45.27,2.65-.79,3.24-1.99.28-.56.36-1.28.46-1.96.09-.69.16-1.36.23-2.01.14-1.31.24-2.51.47-3.63.11-.56.4-1.2.99-1.46.56-.24,1.11-.13,1.44-.08.12.04.2-.05.24-.17.06-.16.1-.35.13-.52.06-.35.08-.65.1-.9.04-.5.07-.77.12-.77.05,0,.1.27.15.77.02.25.04.57.02.94-.01.19-.03.39-.09.63-.06.26-.3.62-.68.55-.46-.05-.85-.06-1.18.1-.31.16-.5.55-.57,1.05-.16,1.03-.22,2.26-.33,3.56-.05.66-.1,1.34-.18,2.05-.1.7-.14,1.46-.51,2.25-.35.74-.87,1.42-1.59,1.93-.36.25-.77.45-1.22.56-.44.12-.96.1-1.34.06-5.05-.48-9.59-1.03-12.87-1.58-.41-.07-.8-.14-1.17-.22-.2-.05-.35-.06-.57-.14-.21-.05-.41-.19-.53-.34-.48-.61-.57-1.2-.66-1.67-.14-.95.05-1.49.11-1.47Z"/>
  <path class="cls-2" d="M55.44,116.64c-.13,0-.21-1-.23-2.6-.05-1.6-.08-3.81-.04-6.26.02-.91.04-1.79.06-2.61.02-.41.03-.81.04-1.2,0-.19.02-.38.02-.56v-.27c.02-.11.02-.05.02-.09.01-.03,0-.06-.03-.06-.02,0-.03-.01-.21-.03-.26-.02-.52-.03-.75-.05-.47-.03-.88-.05-1.23-.07-.68-.05-1.07-.09-1.08-.17,0-.08.38-.2,1.06-.29.34-.05.76-.09,1.24-.12.24-.01.5-.02.77-.03.08,0,.11,0,.24,0,.11.02.27-.01.35.05.11.04.18.1.24.18h0s.11-.09.06-.05h0s0,.01,0,.01v.02s.02.04.02.04l.03.08.05.15c0,.76.01,1.6.02,2.49,0,.83-.01,1.71-.02,2.62-.04,2.44-.12,4.65-.24,6.25-.15,1.6-.32,2.58-.45,2.57Z"/>
  <path class="cls-2" d="M55.53,116.71c0,.13-.95.29-2.51.43-.2.01-.37.06-.68.03-.33-.01-.7-.34-.79-.64-.2-.62-.11-1.07-.15-1.59-.02-1.03-.03-2.16-.03-3.35.01-4.75.24-8.61.5-8.61.26,0,.47,3.86.45,8.61,0,1.19-.02,2.32-.05,3.35,0,.51-.07,1.06.01,1.32.05.13.06.15.16.18.11.03.35.02.54.02,1.56.03,2.53.11,2.53.24Z"/>
  <path class="cls-2" d="M53.62,102.67s-.06-.31-.08-.9c0-.59-.02-1.46-.03-2.57,0-1.12,0-2.48-.01-4.06,0-.79-.01-1.64-.02-2.53-.03-.94.23-1.9.1-2.78-.02-.86-1.22-.83-1.93-.21-.39.3-.74.72-1.15,1.13-.41.41-.84.81-1.29,1.2-.9.78-1.86,1.52-2.84,2.29-.97.77-1.94,1.61-2.96,2.45-2.03,1.69-4.15,3.46-6.36,5.29-1.12.91-2.31,1.76-3.12,2.87-.87,1.04-.7,2.5-.77,4.08-.08,1.52-.15,3.01-.22,4.49-.05,1.48-.1,2.93-.15,4.37-.05,1.43-.1,2.84-.15,4.21-.02.68,0,1.31.27,1.73.26.4.85.71,1.41.95.58.24,1.21.42,1.81.64.59.2,1.19.34,1.78.46,1.2.23,2.4.36,3.57.51,2.31.29,4.51.6,6.44.81.95.06,1.86-.07,2.54-.53.69-.44,1.1-1.16,1.36-1.87.51-1.44.55-2.82.59-3.92.03-2.23.33-3.47.4-3.45.04,0,0,.31-.03.9-.03.58-.03,1.44,0,2.56,0,1.11.04,2.52-.46,4.09-.26.77-.7,1.63-1.52,2.19-.82.58-1.88.74-2.91.7-2.03-.18-4.16-.45-6.5-.7-1.16-.14-2.37-.25-3.63-.47-.63-.12-1.26-.26-1.9-.47-.61-.21-1.23-.38-1.87-.64-.63-.27-1.32-.55-1.84-1.28-.47-.74-.43-1.56-.42-2.24.04-1.38.08-2.79.12-4.22.04-1.43.09-2.89.13-4.38.07-1.48.15-2.98.22-4.5.04-.73,0-1.49.09-2.29.04-.4.11-.81.26-1.21.15-.41.37-.76.6-1.09.96-1.29,2.21-2.14,3.3-3.04,2.21-1.82,4.35-3.57,6.38-5.25,1.03-.83,2-1.66,3-2.43.99-.77,1.96-1.49,2.84-2.24.44-.37.86-.75,1.26-1.14.39-.38.76-.81,1.24-1.18.47-.36,1.09-.63,1.73-.57.33.04.63.12.92.38.27.27.35.6.4.87.13,1.12-.18,2.04-.15,2.89-.02.9-.04,1.74-.06,2.54-.03,1.58-.1,2.95-.15,4.06-.06,1.11-.11,1.97-.15,2.56-.04.59-.08.89-.12.89Z"/>
  <path class="cls-1" d="M53.89,117.74"/>
  <path class="cls-2" d="M55.39,131.52c.09.09-.04.38-.47.52-.42.16-1.07.02-1.53-.3-.89-.6-1.43-1.24-1.29-1.46.14-.22.97.1,1.8.65.4.26.69.38.95.44.25.06.46.04.54.15Z"/>
  <path class="cls-2" d="M61.11,146.47c-.07.11-.66-.11-1.54-.56-.44-.22-.96-.5-1.52-.83-.14-.08-.29-.16-.43-.25l-.11-.07c-.08-.04-.15-.08-.22-.14-.13-.11-.24-.25-.26-.42-.02-.08-.02-.17-.02-.26v-.16s0-.29,0-.29c0-.19.02-.39.05-.59.02-.2.05-.4.1-.61.04-.2.22-.67.56-.75.16-.06.34-.07.51-.05.14.02.25.06.35.1.21.08.37.18.5.27.56.36,1.06.7,1.46.99.82.59,1.28,1.01,1.21,1.12-.07.11-.67-.1-1.56-.54-.45-.22-.97-.49-1.54-.8-.15-.08-.28-.15-.4-.19-.06-.02-.11-.03-.15-.03,0,0,0,0,0,0h0s0,0-.02.09c-.03.15-.06.32-.08.5-.02.18-.03.36-.05.53v.26s-.02.11-.02.11h0s0,.02,0,.02h0s.11.07.11.07c.15.1.29.19.43.28.55.37,1.04.72,1.45,1.02.81.6,1.27,1.03,1.19,1.14Z"/>
  <path class="cls-2" d="M51.34,141.07c-.26-.03-.43-.82-.37-1.76.06-.94.32-1.7.59-1.7s.43.79.37,1.76c-.06.97-.33,1.73-.59,1.7Z"/>
  <path class="cls-2" d="M50.04,139.86c-.26-.02-.45-.7-.42-1.53.03-.83.27-1.5.53-1.49.26,0,.45.69.42,1.53-.03.84-.27,1.51-.53,1.49Z"/>
  <path class="cls-2" d="M168.16,85.57c-.18-.2.24-.86.83-1.59.59-.72,1.16-1.26,1.39-1.12.23.13-.01.95-.65,1.73-.64.78-1.39,1.18-1.57.98Z"/>
  <path class="cls-2" d="M161.98,83.52c-.09-.09.32-.67,1.05-1.53.37-.43.82-.93,1.33-1.47.26-.27.51-.55.83-.85.31-.3.79-.62,1.3-.72,1.02-.22,1.98.12,2.66.61.69.5,1.11,1.18,1.28,1.77.34,1.22-.06,1.96-.16,1.91-.15-.02-.04-.74-.47-1.67-.22-.46-.59-.94-1.14-1.28-.54-.34-1.28-.55-1.95-.4-.34.07-.59.23-.87.48-.29.27-.57.53-.84.79-.55.51-1.05.96-1.48,1.32-.86.73-1.44,1.14-1.53,1.05Z"/>
  <path class="cls-2" d="M166.7,84.42c-.23-.13.07-1.05.91-1.83.21-.19.42-.36.63-.48.09-.04.12,0,.17-.08.03-.06.03-.13,0-.22-.04-.1-.05-.18-.02-.23.03-.06.11-.09.24-.07.13.03.38.14.49.41.05.13.06.3,0,.47-.05.15-.25.34-.35.43-.16.15-.34.31-.52.48-.73.67-1.33,1.26-1.56,1.13Z"/>
  <path class="cls-2" d="M164.28,83.73c-.17-.2.4-.99,1.28-1.76.5-.4.7-.61.7-.73.04-.21-.14-.33-.16-.44,0-.06.06-.16.23-.17.16-.02.42.1.56.36.07.13.13.3.11.51-.02.17-.08.35-.17.5-.18.3-.42.5-.63.69-.88.77-1.74,1.24-1.91,1.04Z"/>
  <path class="cls-2" d="M170.05,82.31c-.14-.12,1.49-1.91,4.21-4.7,2.72-2.79,6.54-6.59,10.8-10.73,4.26-4.15,8.16-7.86,11.01-10.52,1.43-1.33,2.59-2.39,3.41-3.11.82-.72,1.28-1.1,1.33-1.06.1.1-1.53,1.88-4.26,4.66-2.73,2.78-6.55,6.57-10.81,10.72-4.26,4.15-8.15,7.86-10.99,10.53-1.42,1.33-2.58,2.4-3.39,3.13-.81.73-1.27,1.12-1.3,1.09Z"/>
  <path class="cls-2" d="M167.08,79.18s.15-.04.39-.26c.23-.2.56-.53.96-.98.41-.44.84-1.02,1.47-1.66.61-.61,1.29-1.31,2.05-2.07,3.08-3.05,7.32-7.25,12.01-11.89,2.37-2.3,4.62-4.49,6.68-6.48,1.03-.99,2.01-1.93,2.92-2.82.46-.45.91-.84,1.29-1.28.39-.43.77-.87,1.17-1.26.4-.39.81-.74,1.28-1,.46-.26,1-.42,1.5-.32.12.03.24.07.36.1.1.06.21.13.31.19.2.13.31.23.47.35.3.22.57.43.8.65.23.22.41.46.5.72.09.26.03.5-.05.66-.18.3-.36.37-.37.36-.04-.03.09-.16.19-.43.1-.28-.05-.68-.52-1.03-.22-.18-.5-.36-.81-.55-.15-.09-.34-.23-.48-.3l-.22-.12-.26-.05c-.72-.09-1.52.51-2.22,1.27-.36.38-.71.81-1.1,1.27-.38.47-.85.91-1.28,1.36-.9.9-1.86,1.87-2.86,2.88-2.04,2.01-4.28,4.22-6.63,6.54-4.72,4.62-9.02,8.77-12.21,11.69-.8.73-1.52,1.39-2.15,1.97-.61.55-1.12,1.13-1.57,1.53-.45.42-.82.72-1.11.88-.28.19-.52.14-.5.1Z"/>
  <path class="cls-2" d="M201.22,51.4c-.1-.08-.05-.42.11-.86.04-.11.05-.23.03-.25-.02-.02-.04-.07-.14-.17-.21-.22-.46-.48-.71-.66-.26-.19-.47-.27-.69-.26-.23,0-.47.1-.69.18-.43.2-.74.34-.83.24-.08-.09.05-.41.46-.8.21-.18.51-.41.96-.5.46-.09,1,.08,1.36.37.38.28.63.59.84.9.11.16.25.41.24.7-.02.28-.13.43-.21.54-.35.45-.62.66-.72.58Z"/>
  <path class="cls-2" d="M174.3,90.08c-.03.07-.24,0-.6,0-.35,0-.88.07-1.34.42-.46.33-.8,1.02-.69,1.75.06.35.23.71.5.9.3.21.78.4,1.21.5.91.22,1.74-.03,2.08-.67.36-.62.32-1.47.02-1.83-.33-.38-.95-.53-1.29-.76-.36-.22-.47-.45-.43-.49.05-.05.23.06.58.14.19.04.42.1.67.16.27.08.62.16.95.47.34.31.5.78.54,1.24.04.47-.03.98-.27,1.48-.24.49-.72.94-1.3,1.13-.58.2-1.19.18-1.76.05-.58-.14-1.07-.32-1.58-.69-.52-.41-.75-1-.81-1.54-.11-1.1.49-2.04,1.2-2.42.71-.39,1.38-.34,1.77-.22.4.13.57.31.54.36Z"/>
  <path class="cls-2" d="M171.85,92.37c-.12.02-.29-.43.12-.96.41-.55,1.33-.79,2.18-.65.44.06.87.24,1.19.49.33.26.54.59.62.89.18.62-.07.98-.18.94-.13-.03-.18-.33-.43-.65-.24-.33-.69-.63-1.35-.72-.68-.1-1.25-.02-1.56.18-.34.2-.46.48-.59.48Z"/>
  <path class="cls-2" d="M102.04,147.2c.17-.21,1.22.34,2.52.93.65.29,1.26.59,1.64.73.39.15.67.15.73.27.07.11-.24.4-.83.4-.58,0-1.23-.22-1.94-.53-1.42-.65-2.28-1.6-2.12-1.8Z"/>
  <path class="cls-2" d="M109.42,147.1c-.22-.17.06-.77.31-1.33.25-.54.28-1.01.5-1.15.11-.05.31.05.43.35.12.29.13.75-.06,1.17-.39.83-1,1.1-1.19.95Z"/>
  <path class="cls-2" d="M121.79,132.28c-.06.01-.15-.03-.18-.17-.04-.14.01-.33.11-.5.2-.32.45-.59.8-.91.69-.61,1.38-.94,1.56-.74s-.24.85-.92,1.46c-.33.3-.72.55-.94.65-.21.09-.3.15-.43.2Z"/>
  <path class="cls-2" d="M113.42,139.08c.05-.14.08-.22.18-.44.13-.25.38-.58.69-.89.62-.62,1.28-.98,1.47-.79s-.17.84-.79,1.47c-.32.31-.62.55-.91.7-.15.09-.34.14-.47.11-.13-.03-.18-.11-.17-.17Z"/>
  <path class="cls-2" d="M104.85,146.48c-.18-.19.12-.79.73-1.28.61-.5,1.26-.67,1.4-.46.15.22-.23.73-.8,1.2-.57.46-1.15.73-1.34.54Z"/>
  <path class="cls-2" d="M136.53,117.3c-.11-.24.27-.66.79-1.03.52-.37,1.03-.6,1.23-.42.19.18-.07.76-.67,1.2-.6.43-1.24.5-1.35.26Z"/>
  <path class="cls-2" d="M128.72,124.99c-.16-.21.32-.89,1.07-1.53.75-.63,1.51-.99,1.69-.79.18.19-.3.88-1.07,1.53-.77.65-1.53,1-1.69.79Z"/>
  <path class="cls-2" d="M110.74,101.38c.04.15-.51.24-.94.59-.45.38-.2.97.84,1.35.47.2.9.28,1.22.19.31-.08.54-.32.6-.54.07-.22-.02-.46-.1-.59-.09-.14-.18-.22-.17-.29,0-.06.16-.12.4,0,.23.11.54.42.55.95,0,.52-.37,1.08-.99,1.31-.62.23-1.3.09-1.86-.14-.52-.21-1.18-.55-1.44-1.22-.12-.31-.13-.69.01-.99.14-.29.36-.47.56-.58.42-.22.76-.2.98-.18.22.03.34.08.34.15Z"/>
  <path class="cls-2" d="M81.63,116.86c.02-.17,2.49.15,6.48.16,3.99,0,9.52-.34,15.45-1.72,2.96-.69,5.72-1.57,8.14-2.58,2.42-1.01,4.46-2.22,6.03-3.41.38-.31.76-.59,1.09-.89.31-.32.6-.61.87-.89.27-.27.56-.57.63-.78.08-.2-.07-.38-.28-.45-.44-.15-.8.19-1,.37-.21.2-.32.32-.35.3-.02-.02.03-.17.2-.42.09-.12.21-.28.4-.42.19-.14.5-.26.84-.18.17.04.35.12.49.28.14.16.2.43.14.65-.14.45-.41.69-.67,1-.27.31-.56.64-.86.98-.32.33-.7.63-1.08.98-1.57,1.31-3.64,2.62-6.1,3.69-2.46,1.08-5.27,2-8.27,2.7-6.02,1.4-11.65,1.63-15.68,1.46-1.01-.01-1.92-.13-2.72-.2-.8-.06-1.48-.16-2.04-.26-1.11-.18-1.72-.31-1.71-.38Z"/>
  <path class="cls-2" d="M80.57,114.22c.02-.15,2.33.08,6.08.05,3.74-.02,8.95-.2,14.58-1.05,1.1-.18,2.19-.37,3.2-.65.52-.13.97-.3,1.46-.48.5-.18.99-.37,1.47-.54.96-.35,1.89-.69,2.78-1.02.84-.3,1.6-.75,2.32-1.19.71-.45,1.44-.88,2.06-1.24.62-.39,1.16-.8,1.63-1.2.47-.4.86-.8,1.2-1.17.17-.19.32-.35.41-.51.08-.13.1-.26.04-.37-.16-.24-.45-.12-.63-.06-.18.07-.28.12-.3.09-.02-.02.05-.11.22-.24.09-.06.19-.13.38-.18.18-.05.43-.03.59.18.16.18.16.49.04.74-.1.24-.26.43-.41.63-.31.41-.69.85-1.16,1.3-.46.45-1.01.91-1.65,1.35-.63.41-1.3.86-2.02,1.32-.72.47-1.51.97-2.44,1.33-.88.34-1.79.7-2.74,1.06-.47.18-.95.37-1.44.55-.5.19-1.04.41-1.57.54-1.07.3-2.18.51-3.3.69-5.73.86-10.97.93-14.74.78-1.89-.07-3.41-.23-4.46-.37-1.05-.17-1.62-.29-1.61-.35Z"/>
  <path class="cls-2" d="M86.37,112.1c.02-.15,1.88.03,4.89,0,3-.04,7.16-.35,11.55-1.59,1.57-.44,3.06-.96,4.43-1.54,1.38-.56,2.62-1.2,3.73-1.85,1.1-.65,2.11-1.29,2.9-1.85.38-.29.69-.62.96-.94.1-.12.19-.24.28-.35.06-.08.12-.17.18-.27-.02-.1-.22-.1-.33-.1-.13,0-.25.02-.39.07-.25.09-.38.17-.41.14-.02-.02.06-.17.31-.34.22-.17.9-.37,1.48-.15-.09.21-.17.42-.3.66-.06.12-.14.25-.22.38-.06.09-.12.18-.18.27-.26.37-.57.75-.98,1.11-.84.67-1.78,1.33-2.89,2.04-1.1.7-2.38,1.41-3.78,2-1.39.62-2.92,1.17-4.53,1.62-4.51,1.27-8.78,1.48-11.82,1.35-3.05-.13-4.89-.56-4.88-.67Z"/>
  <path class="cls-2" d="M89.54,110.51c.01-.14,1.19-.14,3.06-.31,1.87-.17,4.46-.51,7.24-1.2,2.11-.53,4.02-1.19,5.52-1.9,1.51-.7,2.56-1.47,3.19-1.91v.26c-.27-.38-.52-.21-.54-.26-.01-.02.01-.12.16-.18.15-.07.42.01.63.18l.14.11-.14.15c-.53.58-1.55,1.53-3.07,2.35-1.51.84-3.48,1.59-5.65,2.13-2.86.72-5.52.95-7.44.95-1.93,0-3.1-.25-3.09-.37Z"/>
  <path class="cls-2" d="M57.61,88.26c.1.09-.06.44.21.88.22.46.88.7,1.85.87.46.1.85.12,1.07.03.22-.08.31-.25.31-.5,0-.49-.34-.68-.32-.81.01-.06.14-.12.36-.04.22.07.5.32.62.73.06.2.08.45,0,.72-.08.27-.31.54-.57.68-.56.3-1.16.22-1.66.13-.49-.1-1-.22-1.44-.48-.44-.25-.78-.7-.86-1.09-.1-.39-.02-.75.12-.93.13-.19.27-.22.31-.18Z"/>
  <path class="cls-2" d="M133.29,106.91c-.23-.12.23-1.47,1.23-2.89,1-1.42,2.12-2.3,2.31-2.13.2.18-.57,1.32-1.53,2.68-.96,1.36-1.77,2.46-2.01,2.34Z"/>
  <path class="cls-2" d="M82.69,93.3c-.22-.14.14-1.09.93-2.03.79-.94,1.67-1.44,1.85-1.25.18.2-.37.99-1.12,1.87-.75.88-1.43,1.55-1.66,1.41Z"/>
  <path class="cls-2" d="M98.66,89.26c.12-.23.69-.18,1.2.22.51.4.7.94.5,1.11-.2.18-.66-.02-1.09-.36-.43-.34-.73-.74-.6-.98Z"/>
  <path class="cls-2" d="M80.98,82.2c-.14-.22.55-.83,1.62-.73.53.06.86.24,1.09.33.22.1.4.16.45.29.05.12-.13.32-.49.39-.35.07-.8-.02-1.15-.05-.74-.09-1.4.01-1.52-.22Z"/>
  <path class="cls-1" d="M99.36,78.49"/>
  <path class="cls-1" d="M106.12,68.67"/>
  <ellipse class="cls-2" cx="104.6" cy="73.86" rx="4.6" ry=".48" transform="translate(-23.08 83.52) rotate(-39.55)"/>
</svg>