<?xml version="1.0" encoding="UTF-8"?>
<svg id="Capa_1" xmlns="http://www.w3.org/2000/svg" viewBox="0 0 155.69 154.6">
  <defs>
    <style>
      .cls-1 {
        fill: #020202;
      }
    </style>
  </defs>
  <path class="cls-1" d="M27.47,18.81s.3-.31.92-.85c.63-.53,1.58-1.33,2.86-2.3,2.58-1.94,6.49-4.72,12-7.45,5.5-2.72,12.61-5.43,21.23-7,8.62-1.46,18.71-1.77,29.59.11,5.42,1.04,10.99,2.73,16.48,5.23,5.48,2.5,10.85,5.86,15.84,10.02,2.47,2.11,4.89,4.37,7.15,6.85,1.12,1.25,2.23,2.53,3.3,3.85.53.66,1.06,1.31,1.59,1.98.53.68,1.06,1.35,1.6,2.04,2.15,2.72,4.03,5.69,5.84,8.76,1.69,3.13,3.32,6.36,4.6,9.79.32.86.67,1.71.97,2.57.28.88.56,1.75.84,2.64l.42,1.32.35,1.35c.23.9.46,1.81.69,2.71.78,3.66,1.45,7.4,1.7,11.22.35,3.81.31,7.69.1,11.59-.18,1.94-.29,3.9-.63,5.85-.15.97-.26,1.96-.45,2.93-.2.97-.4,1.94-.59,2.92-.8,3.91-2.13,7.74-3.73,11.45-1.6,3.72-3.46,7.35-5.6,10.85-2.14,3.5-4.48,6.92-7.19,10.11-.66.81-1.38,1.57-2.09,2.35l-2.2,2.23c-.72.75-1.49,1.47-2.25,2.19-.77.71-1.51,1.46-2.32,2.14-6.29,5.59-13.37,10.29-21.1,13.2-1.9.79-3.88,1.35-5.82,1.98-1.98.48-3.94,1.07-5.93,1.39-3.96.84-7.96,1.21-11.91,1.54-1.98.09-3.95.2-5.91.24-.98,0-1.96,0-2.94,0-.98,0-1.95.03-2.93-.06-3.91-.16-7.77-.63-11.51-1.47-7.49-1.65-14.5-4.51-20.84-8.13-6.35-3.62-12.04-7.98-16.99-12.82-4.92-4.87-9.08-10.2-12.41-15.78-3.32-5.58-5.8-11.42-7.38-17.23-1.58-5.82-2.43-11.56-2.75-17.06-.04-2.76-.15-5.45.09-8.07.07-2.63.5-5.15.81-7.61.17-1.23.48-2.42.7-3.6.27-1.18.43-2.36.8-3.47.67-2.24,1.18-4.45,2.01-6.48,2.95-8.25,6.83-14.78,10.34-19.81,1.87-2.44,3.43-4.68,5.06-6.4,1.56-1.77,2.85-3.31,4.04-4.4,1.16-1.12,2.04-1.98,2.63-2.56.6-.57.92-.85.93-.83.02.02-.26.34-.82.95-.57.6-1.41,1.49-2.52,2.66-1.15,1.12-2.4,2.69-3.92,4.48-1.58,1.75-3.09,4.01-4.92,6.45-3.4,5.05-7.17,11.57-10.01,19.76-.8,2.01-1.29,4.2-1.93,6.42-.35,1.1-.5,2.27-.76,3.43-.21,1.17-.51,2.34-.67,3.56-.28,2.43-.69,4.93-.74,7.52-.21,2.58-.09,5.24-.03,7.95.35,5.42,1.22,11.07,2.81,16.79,1.59,5.72,4.04,11.42,7.33,16.89,3.29,5.47,7.4,10.7,12.25,15.46,4.88,4.74,10.5,9.01,16.74,12.55,6.24,3.53,13.12,6.32,20.45,7.92,3.66.81,7.43,1.27,11.24,1.42.95.08,1.92.05,2.88.05.97,0,1.93,0,2.91-.01,1.94-.04,3.89-.15,5.84-.24,3.89-.33,7.83-.7,11.71-1.53,1.96-.32,3.87-.9,5.81-1.37,1.9-.61,3.83-1.16,5.68-1.94,7.53-2.84,14.44-7.43,20.62-12.92.8-.66,1.52-1.41,2.28-2.1.75-.71,1.51-1.41,2.22-2.16l2.17-2.2c.69-.75,1.38-1.49,2.03-2.28,2.64-3.1,4.95-6.47,7.05-9.9,2.1-3.44,3.94-7.02,5.51-10.66,1.57-3.65,2.86-7.36,3.65-11.17.2-.96.39-1.91.59-2.86.19-.95.3-1.92.45-2.87.33-1.91.44-3.83.62-5.74.21-3.82.27-7.62-.07-11.36-.24-3.75-.89-7.42-1.64-11.01-.23-.89-.45-1.78-.67-2.66l-.34-1.32-.41-1.3c-.27-.87-.54-1.73-.82-2.59-.3-.85-.63-1.69-.95-2.53-1.24-3.37-2.83-6.54-4.48-9.62-1.76-3.01-3.6-5.94-5.7-8.61-.52-.67-1.04-1.34-1.56-2-.53-.67-1.06-1.33-1.59-1.99-1.05-1.31-2.13-2.57-3.23-3.8-2.21-2.45-4.58-4.68-6.99-6.76-4.89-4.1-10.14-7.43-15.51-9.91-5.38-2.49-10.84-4.18-16.18-5.24-10.71-1.92-20.71-1.7-29.23-.34-8.54,1.47-15.61,4.07-21.11,6.69-5.52,2.62-9.46,5.31-12.08,7.16-1.31.93-2.28,1.68-2.95,2.18-.66.5-1,.75-1.02.72Z"/>
  <path class="cls-1" d="M132,33.14s.28.27.76.84c.48.58,1.18,1.45,2.05,2.63,1.72,2.37,4.19,5.96,6.58,11.01,2.39,5.04,4.73,11.53,6.03,19.38,1.19,7.85,1.31,17.02-.57,26.87-1.03,4.9-2.65,9.94-5.02,14.88-2.36,4.94-5.5,9.76-9.35,14.23-1.95,2.21-4.05,4.37-6.34,6.38-1.15,1-2.33,1.99-3.55,2.93-.6.47-1.21.94-1.82,1.41-.62.47-1.25.94-1.87,1.42-2.5,1.91-5.23,3.57-8.05,5.16-2.87,1.49-5.83,2.91-8.97,4.02-.78.28-1.56.58-2.35.84-.8.24-1.6.48-2.41.72l-1.21.36-1.23.29c-.82.19-1.65.39-2.47.59-3.34.65-6.74,1.19-10.22,1.37-3.47.26-6.99.16-10.53-.1-1.76-.2-3.54-.33-5.3-.66-.88-.15-1.77-.27-2.65-.46-.88-.2-1.76-.39-2.64-.59-3.54-.79-7-2.06-10.35-3.57-3.35-1.51-6.62-3.26-9.77-5.26-3.14-2-6.22-4.18-9.07-6.69-.72-.62-1.41-1.28-2.1-1.94l-1.99-2.03c-.67-.67-1.31-1.38-1.95-2.08-.63-.71-1.3-1.39-1.9-2.14-4.97-5.8-9.13-12.32-11.65-19.38-.69-1.74-1.17-3.55-1.7-5.32-.41-1.81-.9-3.59-1.17-5.41-.7-3.61-.97-7.25-1.21-10.84-.05-1.8-.11-3.59-.12-5.37.05-1.78,0-3.55.14-5.33.21-3.55.7-7.05,1.52-10.44,1.62-6.78,4.34-13.1,7.72-18.8,3.39-5.7,7.45-10.81,11.92-15.22,4.5-4.39,9.41-8.08,14.54-11.01,5.12-2.92,10.47-5.08,15.77-6.42,5.31-1.34,10.54-2.02,15.54-2.22,2.51,0,4.95-.04,7.33.21,2.38.11,4.67.54,6.9.86,1.11.17,2.19.47,3.26.7,1.06.26,2.13.43,3.14.78,2.02.65,4.02,1.15,5.85,1.94,7.44,2.81,13.3,6.45,17.82,9.71,2.18,1.74,4.19,3.2,5.73,4.7,1.58,1.45,2.95,2.64,3.92,3.75,1,1.07,1.76,1.89,2.28,2.44.51.55.75.85.73.87s-.31-.24-.85-.76c-.54-.52-1.33-1.3-2.38-2.32-1-1.06-2.4-2.21-4.01-3.62-1.56-1.46-3.59-2.87-5.78-4.56-4.53-3.16-10.38-6.68-17.76-9.39-1.81-.76-3.79-1.23-5.79-1.85-.99-.33-2.05-.49-3.1-.74-1.06-.21-2.12-.5-3.22-.66-2.2-.29-4.46-.7-6.8-.79-2.34-.23-4.75-.16-7.21-.15-4.92.23-10.06.93-15.27,2.28-5.22,1.35-10.42,3.48-15.43,6.38-5.01,2.89-9.82,6.54-14.22,10.86-4.38,4.35-8.34,9.37-11.65,14.98-3.3,5.6-5.94,11.8-7.51,18.41-.8,3.3-1.27,6.71-1.46,10.17-.14,1.72-.08,3.49-.13,5.25,0,1.76.07,3.53.12,5.3.24,3.54.51,7.11,1.2,10.65.26,1.78.75,3.52,1.15,5.29.53,1.73.99,3.49,1.66,5.18,2.46,6.87,6.5,13.2,11.38,18.9.59.73,1.25,1.4,1.87,2.1.63.7,1.25,1.39,1.92,2.05l1.96,2c.67.63,1.33,1.28,2.03,1.88,2.77,2.44,5.78,4.59,8.86,6.55,3.09,1.96,6.3,3.68,9.57,5.17,3.28,1.48,6.63,2.72,10.07,3.49.86.19,1.72.39,2.58.58.86.19,1.73.3,2.6.45,1.72.33,3.47.46,5.19.66,3.46.26,6.91.37,10.3.12,3.4-.16,6.74-.69,10.01-1.31.81-.19,1.62-.38,2.42-.57l1.21-.28,1.19-.35c.79-.23,1.58-.47,2.36-.7.78-.26,1.54-.55,2.31-.82,3.07-1.07,5.97-2.46,8.79-3.91,2.76-1.55,5.44-3.17,7.9-5.03.62-.46,1.23-.92,1.84-1.38.61-.47,1.23-.94,1.84-1.41,1.21-.93,2.37-1.89,3.5-2.87,2.26-1.97,4.32-4.07,6.24-6.23,3.8-4.37,6.9-9.07,9.24-13.9,2.34-4.83,3.97-9.76,5.02-14.58,1.92-9.68,1.88-18.75.79-26.51-1.2-7.77-3.43-14.22-5.71-19.26-2.28-5.05-4.65-8.67-6.29-11.09-.82-1.21-1.49-2.1-1.92-2.71-.44-.61-.66-.93-.64-.94Z"/>
  <path class="cls-1" d="M101.86,72.8c-.08,0-.03-1.27-.18-3.63-.17-2.36-.52-5.84-1.56-10.16-1.03-4.3-2.74-9.5-5.92-14.82-1.59-2.63-3.56-5.32-6.31-7.39-1.35-1.05-2.87-1.95-4.54-2.62-.83-.34-1.7-.62-2.59-.85-.46-.11-.91-.22-1.37-.33l-.73-.17-.42-.14c-.16-.07-.35-.23-.52-.35-3.4-4.13-8.14-7.36-13.77-9.1-2.8-.86-5.78-1.41-8.83-1.43-1.53-.02-3.09.06-4.65.22l-1.17.13-.6.08s-.1.01-.07.02l.06.02h.03s.55.31.55.31c.43.24.85.5,1.26.77l.47.32.57.4,1.12.82-1.42.78-.7.39-.34.2c-.45.27-.9.56-1.34.86-.43.3-.85.62-1.26.96-.2.17-.4.34-.59.52l-.23.22s0,.02.02.02l1.6-.06c.57-.02,1.14-.03,1.71-.03,2.29,0,4.67.16,6.98.91,1.15.38,2.26.9,3.3,1.53l.76.5c.13.08.25.18.37.27l.57.44c.85.71,1.71,1.48,2.56,2.21-1.2.08-2.4.17-3.61.25l-.97.1-.87.11c-4.13.53-8.02,2.01-11.12,4.61-3.13,2.54-5.71,5.71-7.44,9.2-1.71,3.5-2.52,7.34-2.78,11.12-.24,3.79.01,7.54.5,11.17.47,3.63,1.18,7.15,1.9,10.57.75,3.42,1.47,6.73,2.17,9.94,1.44,6.4,2.85,12.35,4.17,17.78,2.65,10.85,4.96,19.59,6.54,25.63.79,3.02,1.4,5.37,1.81,6.96.4,1.6.59,2.44.54,2.46s-.34-.8-.84-2.37c-.5-1.57-1.21-3.89-2.09-6.89-1.76-6-4.23-14.7-7.03-25.52-1.4-5.41-2.87-11.36-4.36-17.76-.75-3.2-1.5-6.52-2.25-9.94-.74-3.43-1.48-6.97-1.98-10.66-.51-3.69-.8-7.52-.56-11.46.25-3.92,1.08-7.96,2.89-11.7,1.83-3.72,4.53-7.04,7.84-9.74,1.65-1.35,3.53-2.51,5.56-3.32,2.02-.83,4.17-1.33,6.32-1.63l.91-.11.81-.09h0s0,0,0,0c.1.09-.27-.22-.46-.34l-.69-.46c-.94-.57-1.92-1.03-2.95-1.37-2.07-.67-4.29-.84-6.51-.84-.56,0-1.11,0-1.67.02l-1.76.07c-1.13.06-2.12.07-3.18.11h-.2s-.1,0-.1,0c-.01,0-.04,0-.04,0l.03-.04.26-.3.52-.59,1.04-1.16.57-.58.38-.36c.21-.19.43-.39.65-.57.44-.37.9-.71,1.37-1.04.47-.32.95-.63,1.43-.91l.38-.22h.02s-.02-.02-.02-.02l-.14-.09c-.39-.26-.78-.5-1.18-.73l-.3-.17c-.12-.06-.15-.09-.41-.22-.41-.22-.85-.42-1.32-.61-.97-.36-2.37-.8-3.51-1.19l2.13-.39c.74-.13,1.47-.27,2.24-.39.38-.06.76-.13,1.15-.17l.62-.08,1.21-.13c1.61-.16,3.22-.23,4.82-.2,3.2.04,6.32.63,9.23,1.55,2.91.93,5.64,2.23,8.05,3.88,2.4,1.63,4.55,3.62,6.23,5.69.03.02.01.02.08.05l.27.09.68.17c.47.12.94.23,1.41.35.94.26,1.86.56,2.74.93,1.77.73,3.37,1.71,4.79,2.84,2.88,2.23,4.89,5.06,6.48,7.79,3.17,5.49,4.81,10.8,5.74,15.18.95,4.39,1.18,7.92,1.23,10.3.02,1.19-.02,2.11-.07,2.72-.05.61-.1.93-.13.93Z"/>
  <path class="cls-1" d="M46.91,53.67c-.24,0-.29-1.01.47-2.19.7-1.17,2.2-2.65,4.34-3.2,2.06-.52,3.97-.4,5.31,0,.67.2,1.19.48,1.5.78.31.3.35.58.26.62-.1.07-.27-.02-.58-.11-.32-.08-.78-.17-1.38-.21-1.19-.08-2.94-.02-4.7.43-1.72.44-3.03,1.49-3.86,2.36-.86.87-1.14,1.53-1.35,1.52Z"/>
  <path class="cls-1" d="M95.02,49.03c-.16.17-.73-.23-1.56-.64-.82-.42-2.05-.65-3.56-.67-1.44-.07-2.65.3-3.51.71-.87.4-1.29.79-1.48.71-.21-.08-.01-.88.87-1.63.83-.76,2.43-1.45,4.16-1.35,1.64,0,3.28.51,4.15,1.32.86.78,1.08,1.43.94,1.56Z"/>
  <path class="cls-1" d="M92.1,57.32c0-.1.44-.21,1.26-.21.41.01.93.05,1.53.27.61.25,1.16.61,1.75,1.17.56.57,1.03,1.4,1.18,2.34.17.94.1,1.93-.15,2.91-.25,1.04-.91,2.13-1.93,2.79-1,.68-2.2.98-3.44.97-2.7-.2-4.48-2.29-4.99-4.32-.13-.51-.2-1.05-.14-1.6.06-.52.2-.98.36-1.41.34-.85.81-1.58,1.44-2.13.67-.56,1.35-.75,1.93-.89.59-.13,1.1-.16,1.52-.14.84.04,1.27.29,1.24.39-.03.11-.46.08-1.2.22-.37.07-.82.18-1.31.37-.48.19-1.04.46-1.42.87-.4.42-.75,1.06-.97,1.76-.11.35-.2.73-.21,1.09-.02.33.05.72.16,1.1.23.77.68,1.53,1.33,2.1.32.29.68.54,1.1.73.19.09.45.19.61.24.15.04.39.07.61.07.92.02,1.85-.22,2.54-.68.71-.44,1.15-1.13,1.38-1.89.51-1.66.33-3.2-.47-4.14-.38-.46-.88-.88-1.28-1.11-.43-.24-.88-.37-1.25-.46-.75-.18-1.19-.29-1.18-.4Z"/>
  <path class="cls-1" d="M94.49,59.82c0-.14.28-.32.75-.1.22.11.44.31.61.59.15.28.33.63.19,1.21-.12.39-.33.73-.72.99-.38.26-.93.35-1.4.21-.24-.07-.43-.18-.61-.3-.3-.24-.46-.44-.62-.74-.15-.28-.23-.71-.13-1.04.21-.68.63-.92.97-1.07.35-.14.68-.13.89-.04.21.09.26.23.23.32-.09.18-.34.28-.56.6-.11.13-.21.39-.16.44.02.03.03,0,.08.07.03.05.16.17.2.19.05.03.11.06.15.07.08.01.11.02.18,0,.06-.01.15-.1.19-.15.04.02.08-.17.06-.32-.01-.15-.04-.29-.08-.4-.06-.22-.22-.37-.21-.53Z"/>
  <path class="cls-1" d="M89.04,74.24c0-.06.8-.12,2.31-.21,1.52-.1,3.75-.22,6.62-.5,2.86-.28,6.36-.73,10.31-1.69,1.97-.48,4.07-1.11,6.2-1.93,2.13-.82,4.32-2.08,7.06-2.47.69-.08,1.4-.08,2.1.01.7.1,1.51.32,2.14.95.64.66.77,1.62.67,2.38-.05.39-.13.74-.21,1.11-.12.35-.22.72-.37,1.06-1.18,2.8-3.58,4.95-6.27,6.5-2.71,1.56-5.77,2.62-8.98,3.32-3.2.71-6.57,1.11-10.02,1.18-3.44.08-6.96-.12-10.5-.16-1.75,0-3.56.01-5.17.43-1.48.36-3.01,1.64-3.11,3.01-.08.68.24,1.4.72,2.05.5.65,1.17,1.22,1.89,1.73,1.38.85,3.27,1.28,5.09,1.61,3.71.59,7.59.79,11.49.77,3.91-.02,7.78-.2,11.54-.67.94-.11,1.88-.24,2.8-.4.41-.06,1.03-.18,1.6-.13.57.05,1.13.19,1.66.46.52.28,1.04.73,1.32,1.38.28.64.23,1.39,0,1.92-.43,1.12-1.19,1.84-1.92,2.51-1.5,1.33-3.33,2.13-5.09,2.72-1.78.6-3.58,1-5.36,1.31-3.57.62-7.11.84-10.54.91-1.73.01-3.4.03-5.11-.07-1.71-.13-3.36-.39-4.96-.74-3.21-.69-6.24-1.68-9.07-2.9-2.82-1.23-5.45-2.71-7.66-4.6-.54-.48-1.05-1-1.56-1.5-.44-.57-.93-1.08-1.31-1.68-.35-.62-.78-1.17-1.03-1.84-.29-.65-.46-1.32-.59-1.99-.48-2.69.02-5.31,1.06-7.49.53-1.09,1.21-2.08,2.03-2.89.4-.41.87-.76,1.32-1.08.43-.29.86-.59,1.31-.87,1.82-1.17,3.82-1.54,5.57-1.76,1.77-.21,3.38-.27,4.83-.28,2.9-.02,5.14.12,6.66.23,1.52.12,2.31.21,2.31.26,0,.05-.8.07-2.32.05-1.52,0-3.76-.04-6.63.07-1.43.05-3.03.16-4.74.41-1.71.26-3.56.66-5.2,1.76-.41.27-.83.58-1.28.89-.41.3-.8.61-1.16.99-.72.74-1.33,1.65-1.79,2.66-.92,2.01-1.34,4.46-.87,6.86.12.59.29,1.19.55,1.75.21.57.63,1.09.94,1.64.35.54.82,1.01,1.22,1.53.48.46.96.93,1.47,1.38,2.1,1.75,4.64,3.16,7.39,4.33,2.75,1.15,5.72,2.1,8.84,2.74,1.56.33,3.16.57,4.76.68,1.61.08,3.31.06,4.99.04,3.38-.09,6.85-.33,10.31-.94,1.73-.31,3.46-.71,5.14-1.28,1.68-.58,3.28-1.29,4.57-2.45.63-.56,1.24-1.22,1.47-1.86.25-.64.02-1.05-.59-1.42-.31-.15-.68-.25-1.06-.28-.38-.03-.7.04-1.23.12-.95.16-1.91.3-2.87.41-3.85.48-7.76.66-11.73.69-3.97.01-7.89-.19-11.75-.8-.97-.18-1.93-.37-2.88-.65-.95-.27-1.9-.65-2.83-1.22-.81-.58-1.6-1.23-2.24-2.07-.63-.82-1.15-1.93-1.02-3.12.1-1.19.78-2.17,1.54-2.87.4-.34.78-.66,1.26-.9.24-.11.48-.25.72-.34l.73-.23c1.93-.48,3.78-.46,5.58-.46,3.61.05,7.08.27,10.46.21,3.37-.04,6.64-.41,9.76-1.08,3.11-.65,6.05-1.66,8.62-3.1,2.55-1.43,4.75-3.41,5.8-5.84.5-1.17.84-2.64.18-3.29-.67-.69-2.13-.77-3.27-.66-2.42.3-4.63,1.48-6.82,2.29-2.22.81-4.34,1.4-6.36,1.85-4.04.89-7.58,1.26-10.46,1.44-2.89.19-5.13.21-6.66.21-1.52,0-2.32-.05-2.32-.1Z"/>
  <path class="cls-1" d="M83.12,118.53c-.4.1-1.87-3.77-2.86-8.83-.12-.64-.22-1.26-.27-1.9-.05-.69,0-1.26.03-1.84.09-1.14.31-2.2.71-3.03.38-.84.95-1.4,1.38-1.67.43-.28.73-.3.78-.22.14.21-.73.81-1.12,2.28-.21.72-.3,1.65-.3,2.71,0,.53,0,1.12.05,1.62.07.55.17,1.15.28,1.77.97,4.93,1.76,9,1.32,9.11Z"/>
  <path class="cls-1" d="M94.2,145.7c-.34.26-2.38-2.04-3.83-5.47-1.43-3.4-2.04-6.28-1.67-6.43.43-.17,1.72,2.52,3.1,5.81,1.38,3.28,2.75,5.83,2.39,6.09Z"/>
  <path class="cls-1" d="M78.73,132.88c.13.14-2.1,2.58-6.42,5.73-1.1.77-2.32,1.58-3.76,2.3-.36.18-.73.36-1.13.51-.39.17-.81.3-1.25.41-.93.3-2.21.13-3.04-.77-.69-.83-1.06-1.67-1.44-2.56-.35-.88-.65-1.8-.91-2.73-.53-1.87-.91-3.83-1.22-5.85-.3-2.02-.49-4.01-.56-5.94-.01-.97-.06-1.92.08-2.92.13-.98.46-2.04,1.19-2.84.72-.84,1.86-1.19,2.75-1.23.46-.03.89-.02,1.31,0,.48.04.86.12,1.26.19,1.55.31,2.96.66,4.24.99,5.14,1.31,8.22,2.52,8.13,2.77-.06.16-3.21-.65-8.38-1.69-1.29-.26-2.71-.55-4.22-.79-.37-.06-.77-.11-1.09-.13-.38,0-.77,0-1.14.03-.74.07-1.36.3-1.78.81-.93,1.05-.89,2.88-.81,4.74.08,1.86.28,3.8.58,5.77.3,1.97.66,3.88,1.15,5.68.24.9.51,1.77.82,2.59.31.8.69,1.61,1.11,2.14.36.41,1.03.6,1.66.4.37-.08.73-.18,1.09-.32.36-.12.71-.27,1.05-.43,1.37-.62,2.59-1.35,3.7-2.04,4.39-2.85,6.88-5,7.04-4.81Z"/>
  <path class="cls-1" d="M79.41,119.86s-.02-.29.32-.58c.33-.29.89-.6,1.63-.86,1.5-.51,3.75-1.01,6.62-.88.72.04,1.48.14,2.27.38.4.13.81.3,1.21.58.2.14.4.33.56.54l.37.53c.95,1.44,1.64,3.12,2.14,4.95.45,1.83.82,3.81.49,5.99-.13.57-.2,1.04-.59,1.72-.45.61-.96.9-1.46,1.19-1.01.53-2.04.86-3.09,1.15-2.11.54-4.2.84-6.26.9-1.04.01-2.05,0-3.13-.29-1.24-.34-1.98-1.25-2.5-2.11-1.02-1.77-1.32-3.57-1.53-5.22-.2-1.65-.22-3.2-.22-4.58,0-.17,0-.34,0-.5,0-.06,0-.19.02-.33,0-.14.05-.23.08-.34.14-.41.35-.72.57-.99.45-.54.95-.92,1.44-1.23.98-.62,1.92-.93,2.68-1.14,1.54-.38,2.41-.36,2.43-.27.02.12-.82.31-2.24.85-.69.29-1.55.67-2.38,1.29-.41.31-.83.68-1.15,1.12-.16.22-.29.46-.35.68,0,.05-.04.11-.02.14,0,.03,0,.07,0,.17,0,.17.02.34.03.52.07,1.38.16,2.87.4,4.44.25,1.55.62,3.24,1.47,4.64.41.67,1.03,1.3,1.68,1.43.78.2,1.74.22,2.69.19,1.91-.07,3.93-.37,5.9-.88.98-.26,1.94-.58,2.76-1.01.4-.21.77-.48.92-.69.04-.04.13-.32.2-.49.06-.2.1-.42.16-.63.3-1.77.01-3.67-.38-5.37-.43-1.71-1.03-3.3-1.83-4.6l-.31-.47c-.08-.11-.17-.2-.28-.29-.23-.18-.54-.32-.85-.44-.64-.23-1.32-.35-1.98-.42-2.66-.26-4.89.05-6.35.36-.74.16-1.28.36-1.62.54-.34.17-.45.35-.5.33Z"/>
  <path class="cls-1" d="M93.52,132.16c.05-.21,3.08.36,7.94,1.37,1.21.24,2.56.55,3.95.78.24.05.58.03.9-.03.32-.05.6-.15.85-.29.5-.28.8-.78.91-1.46.06-.32.06-.74.09-1.16.02-.41.05-.83.06-1.25.02-.85.03-1.71.02-2.59-.03-1.76-.15-3.58-.36-5.44-.22-1.85-.52-3.65-.93-5.34-.21-.84-.45-1.67-.75-2.37-.09-.22-.11-.22-.26-.49-.17-.31-.23-.49-.31-.68-.15-.37-.3-.69-.48-.93-.18-.24-.35-.35-.56-.39-.22-.04-.46,0-.81.13-.7.22-1.36.53-2,.83-1.28.62-2.43,1.32-3.48,1.97-2.09,1.31-3.74,2.45-4.93,3.19-1.18.74-1.88,1.09-1.94,1-.06-.09.51-.61,1.58-1.5,1.07-.89,2.63-2.17,4.67-3.62,1.03-.72,2.17-1.49,3.5-2.2.67-.34,1.36-.7,2.14-.97.36-.14.92-.31,1.5-.22.6.08,1.13.47,1.45.88.33.41.54.85.71,1.25.08.19.18.41.22.47.06.1.29.45.36.63.4.88.65,1.73.89,2.62.46,1.78.77,3.63,1,5.54.22,1.91.33,3.79.34,5.6,0,.91-.02,1.8-.05,2.67-.01.44-.06.87-.08,1.29-.04.42-.04.83-.14,1.32-.16.94-.76,1.95-1.66,2.4-.43.23-.89.37-1.32.41-.43.06-.84.08-1.32-.01-1.48-.31-2.77-.67-3.98-.98-4.8-1.29-7.73-2.24-7.68-2.45Z"/>
  <path class="cls-1" d="M55.21,60.71c-.1-.08.31-.54,1.23-.79.23-.06.48-.13.79-.16.23-.03.56-.08.89-.09.67-.03,1.48.03,2.32.38.84.34,1.67,1.03,2.19,1.97.53.94.76,2.01.86,3.17.06,1.18-.22,2.48-.96,3.59-.38.55-.84,1.06-1.46,1.45-.29.19-.68.37-1.01.46-.33.1-.64.17-.96.23-.64.12-1.27.19-1.92.2-.33,0-.66,0-1.02-.07-.4-.06-.71-.22-1-.33-1.2-.53-2.18-1.47-2.73-2.52-.57-1.05-.81-2.15-.83-3.19-.02-1.1.38-2.06.86-2.79.99-1.52,2.46-2.06,3.36-2.2.93-.14,1.44-.01,1.45.08.01.12-.49.21-1.29.51-.78.3-1.9.9-2.57,2.18-.33.63-.58,1.39-.51,2.18.06.83.31,1.73.78,2.52.47.79,1.19,1.45,2.1,1.83.24.09.46.19.64.21.21.03.47.05.74.04.53-.01,1.1-.08,1.66-.18,2.17-.17,3.28-2.33,3.24-4.14-.05-.94-.2-1.88-.56-2.6-.35-.73-.9-1.26-1.51-1.58-.61-.33-1.27-.46-1.86-.51-.3-.03-.56-.03-.87-.03-.23-.02-.48,0-.69,0-.86.06-1.27.26-1.34.19Z"/>
  <path class="cls-1" d="M58.78,62.56c-.09-.05-.05-.31.25-.5.29-.19.75-.33,1.36-.23.3.06.66.17.98.5.31.32.48.72.55,1.16.05.43.04.91-.26,1.42-.29.49-.78.79-1.26.94-.46.17-1.11.1-1.48-.04-.43-.14-.9-.42-1.17-.88-.27-.46-.29-.91-.25-1.26.03-.37.17-.74.39-1.01.46-.55,1-.61,1.3-.6.32.02.48.14.47.25,0,.11-.14.2-.33.35-.19.14-.44.35-.51.6-.04.12-.05.27-.02.45.02.2.08.36.16.43.08.13.68.35.99.21.42-.16.5-.27.53-.71-.02-.39-.1-.57-.42-.75-.3-.16-.63-.23-.84-.25-.22-.03-.35-.01-.44-.08Z"/>
</svg>