<?xml version="1.0" encoding="UTF-8"?>
<svg id="Capa_1" data-name="Capa 1" xmlns="http://www.w3.org/2000/svg" version="1.1" viewBox="0 0 226.77 226.77">
  <defs>
    <style>
      .cls-1 {
        fill: #1d1d1b;
        stroke-width: 0px;
      }

      .cls-2 {
        fill: none;
        stroke: #1d1d1b;
        stroke-miterlimit: 10;
        stroke-width: .57px;
      }
    </style>
  </defs>
  <g>
    <g>
      <path class="cls-1" d="M117.5,92.08s-.4.23-1.13.56c-.36.17-.79.39-1.23.74-.43.35-.91.8-1.38,1.33-.91,1.04-1.97,2.55-1.93,4.36.07,1.77,1.73,3.53,3.78,3.85,2.08.33,4.1-.69,5.3-2.06,1.21-1.42,2.09-2.93,2.18-4.33.15-1.4-.25-2.53-.69-3.17-.44-.66-.83-.91-.79-.96.01-.02.11.03.3.15.18.12.43.33.69.66.53.64,1.04,1.84.94,3.36-.04.75-.25,1.58-.65,2.37-.4.78-.9,1.56-1.54,2.32-1.28,1.51-3.48,2.67-5.85,2.3-2.34-.38-4.21-2.35-4.27-4.47-.02-1.04.32-1.97.74-2.74.43-.77.94-1.42,1.46-1.95.52-.53,1.02-.96,1.51-1.31.49-.34.97-.54,1.35-.68.78-.26,1.21-.36,1.23-.32Z"/>
      <path class="cls-1" d="M124.4,90.36s.05-.19.14-.47c.04-.14.08-.31.07-.51,0-.1-.01-.21-.04-.32l-.04-.17s-.02-.04-.04-.05c-.03-.02-.08-.02-.2.02-.14.05-.29.11-.44.16-.32.11-.51.23-.79.5-.55.49-1.14,1.04-1.66,1.69-.52.64-.89,1.33-1.08,2-.09.33-.11.64-.04.9.02.06.04.12.07.18,0,.02.01.03.03.04.09.04.21.06.27.04.9-.42,1.36-1.05,1.42-.98.05.03-.17.76-1.29,1.41-.21.07-.39.05-.59-.01-.13-.03-.24-.14-.31-.26-.04-.08-.09-.17-.12-.27-.13-.38-.11-.8-.03-1.2.18-.78.59-1.57,1.15-2.27.56-.7,1.19-1.26,1.77-1.74.26-.24.69-.49,1.01-.56.16-.05.32-.09.47-.13.1-.03.2-.04.31-.03.13.01.25.06.33.14.09.08.14.19.15.3.01.08.02.15.02.22,0,.14,0,.27-.01.39-.03.25-.11.45-.2.6-.18.29-.34.39-.37.37Z"/>
      <path class="cls-2" d="M120.42,94.77"/>
      <path class="cls-1" d="M123.62,89.55c.15.1-.25.86-.88,1.7-.63.84-1.26,1.42-1.39,1.31s.25-.88.88-1.7c.62-.82,1.25-1.41,1.39-1.31Z"/>
      <path class="cls-1" d="M124.76,88.59s-.08-.13-.34-.24c-.12-.05-.28-.11-.45-.13-.13-.02-.35.06-.57.15-.44.18-.91.54-1.45.96-.54.42-1.11.87-1.53,1.47-.86,1.21-.96,2.68-.74,3.6.03.11.07.2.11.26.04.06.04.07.14.08.17.02.35.01.48,0,.28-.03.4-.09.44-.06.04.03-.08.2-.37.31-.15.05-.32.11-.56.12-.11.01-.34-.04-.43-.18-.1-.11-.18-.25-.23-.38-.38-1.04-.34-2.71.65-4.12.49-.71,1.15-1.18,1.7-1.57.55-.4,1.11-.76,1.65-.92.27-.07.52-.14.79-.07.23.07.39.17.52.27.27.2.26.47.2.45Z"/>
      <path class="cls-1" d="M119.19,94.07c-.13.2-1.35-.7-2.24-2.22-.23-.38-.42-.76-.53-1.17-.1-.39-.13-.74-.13-1.03,0-.58.08-.93.17-.93.09,0,.18.35.29.88.06.27.13.58.24.91.11.3.31.65.52,1.01.86,1.45,1.75,2.44,1.69,2.55Z"/>
      <path class="cls-1" d="M113.34,102.25s-.18-.1-.41-.37c-.22-.27-.55-.68-.78-1.32-.45-1.31.03-3.24,1.26-4.79.62-.78,1.27-1.4,1.96-1.94.35-.26.74-.47,1.12-.57.38-.1.69-.19,1.08-.18.71.06,1.16.39,1.44.62.27.24.37.43.34.45-.04.03-.19-.09-.48-.25-.29-.15-.75-.38-1.3-.37-.24.01-.59.13-.91.23-.32.11-.62.29-.93.54-.59.5-1.25,1.15-1.81,1.86-1.14,1.42-1.61,3.14-1.34,4.26.14.56.39,1,.55,1.31.16.31.24.49.21.51Z"/>
      <path class="cls-1" d="M122.79,98.47c-.17-.05-.04-1.06-.33-2.27-.24-1.23-.86-2.01-.76-2.14.05-.06.33.05.63.4.31.35.6.92.76,1.6.33,1.37-.13,2.49-.3,2.42Z"/>
      <path class="cls-1" d="M125.21,93.79c.07-.03.39.41.61,1.36.21.94.24,2.4-.32,4.05-.27.82-.67,1.68-1.17,2.55-.26.44-.57.9-.98,1.32-.42.42-.9.75-1.39,1.04-.98.59-2.07,1.09-3.26,1.46-1.18.36-2.47.67-3.87.55-1.39-.12-2.67-.63-3.74-1.35-.53-.36-1.01-.78-1.44-1.23-.19-.21-.42-.45-.61-.76-.18-.3-.29-.58-.39-.87-.19-.57-.32-1.14-.32-1.75,0-.56.04-1.1.15-1.61.19-1.02.57-1.92,1-2.68.86-1.52,1.92-2.46,2.69-3.02.78-.55,1.28-.73,1.32-.66.05.08-.35.41-.99,1.05-.63.64-1.52,1.63-2.2,3.06-.34.71-.62,1.53-.75,2.43-.08.45-.08.92-.07,1.4.02.43.14.92.31,1.38.09.23.19.46.3.64.1.17.27.34.47.55.37.38.78.72,1.24,1.03.91.6,2,1.02,3.14,1.11,1.13.1,2.29-.15,3.39-.47,1.09-.33,2.11-.77,3.03-1.28.94-.5,1.56-1.09,2.06-1.89.51-.79.93-1.57,1.23-2.3.61-1.47.72-2.77.68-3.66-.05-.89-.2-1.39-.11-1.42Z"/>
      <path class="cls-1" d="M126.08,96.24c.08,0,.22.33.27.97.05.64-.03,1.61-.4,2.7-.18.55-.43,1.13-.74,1.73-.15.3-.32.6-.49.91-.16.3-.44.69-.68.96-.25.28-.51.57-.77.86-.29.3-.61.58-.96.84-.69.51-1.48.93-2.31,1.25-1.63.65-3.42.94-4.97.7-1.56-.2-2.89-.81-3.82-1.54-.94-.72-1.49-1.55-1.75-2.14-.26-.61-.27-.97-.19-1,.18-.09.67,1.28,2.46,2.39.88.55,2.06.98,3.43,1.1,1.37.14,2.85-.13,4.37-.72.75-.29,1.44-.64,2.04-1.07.3-.21.58-.44.83-.68.26-.27.52-.53.76-.79.25-.27.41-.45.59-.75.18-.29.36-.57.53-.84.33-.54.6-1.06.82-1.54.91-1.94.77-3.33.98-3.34Z"/>
      <path class="cls-1" d="M116.5,89.46c-.07.04-.34-.51.02-1.31.33-.82,1.5-1.51,2.76-1.51,1.26-.03,2.33.38,3.02.77.7.39,1.02.8.96.86-.06.08-.46-.18-1.16-.44-.69-.27-1.7-.56-2.8-.53-1.1.02-2.02.49-2.38,1.09-.39.58-.33,1.08-.42,1.09Z"/>
      <path class="cls-1" d="M116.32,90.26s-.42.29-1.29.55c-.87.24-2.19.47-3.82.3-1.6-.13-3.68-.84-4.97-2.71-.65-.91-.97-2.16-.81-3.36.11-1.17.5-2.45,1.38-3.43.86-.98,1.99-1.61,3.15-1.93,1.16-.32,2.34-.33,3.41-.2,1.08.15,2.07.41,2.97.82.9.42,1.59,1.04,2.15,1.62.57.59,1.01,1.22,1.24,1.85.24.63.24,1.22.18,1.68-.15.93-.59,1.3-.6,1.27-.05-.03.29-.43.35-1.3.02-.43-.02-.97-.26-1.52-.24-.56-.66-1.12-1.23-1.66-.57-.54-1.23-1.1-2.05-1.45-.83-.36-1.8-.59-2.82-.72-1.02-.11-2.11-.09-3.17.22-1.05.3-2.08.88-2.83,1.75-.77.86-1.12,1.96-1.24,3.07-.15,1.09.11,2.13.67,2.96.55.83,1.33,1.45,2.12,1.87.8.41,1.64.62,2.41.72,3.15.4,5.04-.52,5.06-.4Z"/>
      <path class="cls-1" d="M113.61,92.11c.02.08-.54.33-1.62.52-.54.09-1.2.17-1.97.21-.75.03-1.68.11-2.69-.14-1-.23-2.06-.7-2.99-1.5-.46-.4-.91-.82-1.28-1.45-.33-.6-.55-1.22-.7-1.9-.3-1.34-.23-2.83.24-4.25.47-1.42,1.34-2.74,2.49-3.8,2.32-2.16,5.39-2.93,8.01-2.9,2.63-.01,5.14.84,6.52,2.46.69.79,1.07,1.65,1.3,2.42.23.77.3,1.46.28,2.02-.04,1.13-.39,1.69-.45,1.66-.1-.03.06-.61-.05-1.64-.13-.99-.52-2.56-1.75-3.83-1.23-1.28-3.42-1.96-5.84-1.89-2.41.04-5.13.78-7.14,2.66-1,.92-1.76,2.06-2.17,3.26-.41,1.2-.49,2.47-.27,3.61.11.57.29,1.12.53,1.59.22.42.61.83.99,1.19.76.71,1.65,1.16,2.51,1.42.85.27,1.68.27,2.45.3.75.03,1.4.03,1.93.01,1.06-.03,1.65-.11,1.67-.02Z"/>
      <path class="cls-1" d="M112.36,93.17c.02.07-.56.4-1.63.6-1.07.2-2.65.12-4.17-.65-1.49-.83-2.45-2.04-3-2.96-.55-.94-.68-1.61-.61-1.63.09-.04.37.55.99,1.38.62.81,1.59,1.9,2.93,2.64,1.36.69,2.81.85,3.81.77,1.02-.07,1.66-.24,1.69-.14Z"/>
      <path class="cls-1" d="M126.46,92.36c0-.09.49-.21,1.39-.41.89-.21,2.18-.49,3.61-1.17.71-.34,1.45-.79,2.13-1.39.7-.56,1.18-1.45,1.77-2.3.56-.92,1.05-1.84,1.06-2.87.04-1.03-.33-2.11-.98-3.04-.33-.46-.72-.9-1.13-1.23-.42-.33-.93-.63-1.4-.85-.94-.43-2.03-.49-3.04-.42-1.02.08-1.99.32-2.89.61-.91.28-1.65.61-2.27,1.08-.62.46-1.14.99-1.61,1.44-.47.45-.86.84-1.14,1.18-.57.68-.74,1.16-.84,1.13-.08-.01-.07-.58.43-1.42.24-.42.6-.88,1.02-1.38.42-.5.91-1.09,1.57-1.66.65-.59,1.57-1.05,2.49-1.38.93-.35,1.98-.65,3.13-.78,1.14-.12,2.42-.09,3.67.45.6.27,1.14.58,1.69,1,.54.43.99.93,1.39,1.49.79,1.12,1.26,2.48,1.19,3.83-.05,1.38-.72,2.55-1.31,3.45-.67.92-1.24,1.86-2.1,2.49-.81.65-1.66,1.09-2.46,1.41-1.61.62-2.98.76-3.91.83-.93.05-1.45,0-1.46-.09Z"/>
      <path class="cls-1" d="M135.78,80.22c.14-.09.85.62,1.63,2.08.89,1.54.84,4.15-.32,6.44-.3.57-.55,1.08-.97,1.62-.44.51-.86.87-1.31,1.21-.9.67-1.82,1.08-2.61,1.34-1.6.49-2.64.35-2.65.19-.02-.19.94-.38,2.31-1.04.68-.34,1.46-.79,2.21-1.42.37-.31.76-.69,1.05-1.06.27-.37.55-.91.81-1.41,1.01-2.03,1.17-4.17.64-5.52-.51-1.44-.95-2.34-.79-2.44Z"/>
      <path class="cls-1" d="M123.51,89.66c.05-.05.33.35,1.1.63.19.08.4.16.63.22.2.04.5.04.78.05.58,0,1.24-.05,1.95-.2,1.39-.35,3.16-.86,4.53-2.15.68-.65,1.21-1.48,1.34-2.49.19-1.01.03-2.04-.53-2.98-.28-.5-.53-.9-.96-1.18-.41-.28-.91-.55-1.36-.73-.94-.34-1.95-.32-2.86-.1-1.83.47-3.21,1.65-4.26,2.66-.52.51-.93,1.03-1.21,1.52-.27.49-.42.98-.51,1.37-.17.8-.09,1.26-.14,1.27-.03.01-.21-.45-.11-1.31.05-.42.16-.94.43-1.5.27-.55.68-1.12,1.2-1.67,1.04-1.07,2.42-2.36,4.44-2.91,1.95-.55,4.69.02,5.89,2.27,1.3,2.1.62,4.89-.96,6.22-.76.7-1.63,1.17-2.47,1.49-.83.31-1.63.55-2.38.67-.75.13-1.45.15-2.05.12-.31-.03-.56-.03-.85-.11-.26-.09-.47-.19-.65-.29-.37-.19-.66-.4-.8-.58-.15-.17-.21-.27-.19-.28Z"/>
      <path class="cls-1" d="M132.91,81.95c-.05.08-.71-.35-1.9-.35-.59.01-1.33.05-2.08.23-.74.21-1.58.54-2.37.98-1.6.89-2.83,2.08-3.39,3.11-.62,1.05-.67,1.79-.74,1.8-.11.03-.22-.85.33-2.01.52-1.2,1.79-2.53,3.49-3.48.86-.47,1.71-.8,2.55-1,.85-.17,1.6-.16,2.24-.11,1.31.14,1.94.76,1.88.81Z"/>
      <path class="cls-1" d="M107.61,89.41s-.31-.1-.69-.53c-.37-.42-.81-1.17-.91-2.21-.1-1.03.23-2.3,1.05-3.39.82-1.1,2.12-1.95,3.59-2.43,1.47-.48,2.98-.58,4.31-.33,1.33.24,2.44.85,3.19,1.52,1.54,1.38,1.71,2.75,1.65,2.74-.11.06-.44-1.2-1.94-2.38-.74-.58-1.77-1.09-3-1.29-1.23-.2-2.63-.09-4,.36-1.37.44-2.56,1.21-3.32,2.17-.77.96-1.1,2.08-1.07,3,.03.93.36,1.65.65,2.09.29.45.52.64.49.69Z"/>
      <path class="cls-1" d="M171.54,122.54c-.18.31-10.62-5.58-23.32-13.14-12.7-7.56-22.84-13.94-22.66-14.25.18-.31,10.62,5.58,23.32,13.14,12.7,7.56,22.84,13.94,22.66,14.25Z"/>
      <path class="cls-1" d="M171.87,122.15s.21.07.57-.04c.36-.1.77-.51,1.24-1.07.35-.52,1.42-1.45.37-1.97-.92-.5-1.97-1.07-3.13-1.7-4.67-2.51-11.04-6.12-18.06-10.14-7.02-4.02-13.34-7.71-17.91-10.39-2.28-1.34-4.13-2.43-5.4-3.19-.63-.38-1.13-.68-1.46-.88-.33-.21-.5-.33-.49-.35,0-.02.2.06.55.23.35.18.86.44,1.52.78,1.32.68,3.2,1.72,5.51,3.01,4.63,2.58,10.99,6.21,18.01,10.23,7.01,4.02,13.36,7.66,17.96,10.3,1.15.66,2.19,1.27,3.11,1.79.23.15.47.35.56.66.09.3-.02.61-.16.8-.26.38-.53.7-.78.98-.5.54-.97.96-1.39,1.03-.41.08-.62-.08-.6-.08Z"/>
      <path class="cls-1" d="M154.94,113.75c-.09.15-6.63-3.57-14.6-8.32-7.97-4.75-14.36-8.72-14.27-8.87.09-.15,6.63,3.57,14.6,8.32,7.97,4.75,14.36,8.72,14.27,8.87Z"/>
      <path class="cls-1" d="M167.13,119.36c.15.11-.52,1.24-1.81,3.1-.64.93-1.44,2.05-2.37,3.32-.47.63-.96,1.31-1.49,2.01-.27.36-.55.73-.83,1.12-.24.35-.51.68-.89.77-.37.09-.77-.09-1.17-.31-.89-.44-1.48-.87-2.2-1.38l.16.1c-.38-.21-.37-.29-.47-.37l-.09-.09-.02-.02s-.04.04.03-.04l.18-.21c.1-.13.17-.22.21-.3-.14.28.32-.64-.32.63h0s-.02-.01-.02-.01l-.03-.02-.07-.04s-.08-.05-.13-.1c-.18-.16-.31-.4-.35-.6-.07-.41.02-.6.06-.77.24-.61.49-.84.71-1.16.47-.61.95-1.23,1.43-1.86.25-.33.46-.55.68-.86l.31-.44.07-.1h0s0,0,0,0c-.34-.2-.68-.41-1.02-.62-.59-.36-1.17-.72-1.74-1.07h0s0,0,0,0l-.14.19c-.25.33-.49.67-.73,1-.48.66-.96,1.3-1.43,1.93-.27.37-.55.73-.82,1.09-.23.28-.51.5-.82.59-.33.11-.63,0-.94-.14-.31-.2-.61-.39-.91-.59-.22-.15-.44-.3-.66-.44-.22-.15-.43-.31-.64-.46l-.32-.24c-.09-.07-.34-.27-.48-.4-.28-.27-.45-.6-.44-.98,0-.36.16-.71.39-1.01.11-.14.26-.3.37-.39l.2-.19c.13-.13.26-.26.38-.4.51-.6.99-1.17,1.45-1.71.92-1.08,1.73-2.02,2.42-2.78,1.37-1.52,2.21-2.34,2.35-2.23s-.45,1.13-1.59,2.82c-.57.85-1.28,1.86-2.11,3.02-.42.58-.84,1.18-1.35,1.85-.13.17-.27.34-.42.5l-.24.25s-.03.04-.05.06c-.05.06-.04.15.04.18.25.19,1.74,1.14,2.09,1.32.03.02.06,0,.06-.03.01-.02-.02.03.03-.06l.18-.25.34-.48c.45-.64.91-1.29,1.39-1.96.24-.33.48-.67.72-1.01l.23-.31c.13-.16.27-.32.43-.44.32-.25.73-.37,1.13-.32.37.02.87.32.99.4l.56.34c.38.23.76.46,1.14.69.36.22.72.44,1.08.66.29.19.64.47.82.78.18.31.22.72.12,1.07-.05.18-.13.35-.23.52l-.25.4c-.12.18-.24.35-.37.52-.24.34-.56.68-.78.96-.47.58-.92,1.16-1.37,1.72-.23.27-.48.6-.49.68,0,0,.01,0-.02,0l-.12-.04c-.09-.02-.14-.04-.22-.05-.13-.02-.23-.02-.29,0-.06.01-.06.03-.04,0l.02-.03.3-.58c.1.05.16.1.21.14.17.14.22.21.28.28l.05.06h0s-.09.1-.09.1c-.06.08-.11.12-.16.19-.09.11-.15.2-.18.28l.46-.54c.59.46,1.3.97,1.79,1.24.02.02.05.04.08.05.03,0,.05-.03.07-.06.29-.34.56-.67.84-1,.56-.67,1.1-1.3,1.6-1.89,1.01-1.19,1.91-2.22,2.67-3.06,1.51-1.68,2.46-2.59,2.61-2.48Z"/>
      <path class="cls-1" d="M151.77,124.47c-.09.18-1.06-.3-2.12-.93-.27-.15-.51-.26-.78-.43-.27-.15-.51-.45-.56-.7-.1-.49.03-.74.1-.74.1-.01.16.27.33.58.09.15.2.24.42.34.22.1.53.22.81.38,1.13.68,1.86,1.35,1.8,1.49Z"/>
      <path class="cls-1" d="M156.05,119.29c.28.23-.45,1.58-1.62,3.02-.57.69-1.12,1.35-1.63,1.76-.51.41-.93.54-1.04.4-.11-.14.06-.48.35-1,.29-.51.71-1.23,1.32-1.98,1.17-1.44,2.34-2.43,2.62-2.21Z"/>
      <path class="cls-1" d="M159.82,122.1c-.11.14-1.08-.37-2.16-1.15-.54-.39-1.01-.78-1.34-1.07-.31-.28-.53-.41-.51-.5.01-.09.34-.1.76.11.41.2.91.53,1.46.92,1.1.78,1.89,1.54,1.79,1.68Z"/>
      <path class="cls-1" d="M159.61,121.72c-.13.13-.92-.43-1.91-1.08-.99-.65-1.82-1.15-1.75-1.32.06-.16,1.06.09,2.11.77,1.05.68,1.68,1.5,1.56,1.62Z"/>
      <path class="cls-1" d="M155.9,119.15c.05.17-.11.38-.3.57-.2.18-.41.34-.58.28-.17-.06-.18-.44.13-.74.31-.3.7-.27.75-.1Z"/>
      <path class="cls-1" d="M172.68,122.09c.06.06.06.2-.08.38-.14.18-.42.37-.81.44-.2.04-.41.05-.66,0-.11-.01-.27-.07-.37-.11-.09-.04-.19-.07-.29-.11-.39-.16-.8-.35-1.23-.58-.41-.2-.89-.56-1.15-.78-.31-.25-.59-.47-.82-.66-.47-.4-.74-.7-.67-.86.08-.16.5-.14,1.11.06.31.1.66.26,1.04.47.41.25.67.41,1.1.64.4.22.79.44,1.14.65.09.05.17.1.25.15.08.05.09.06.15.09.11.05.23.09.34.12.46.11.79-.03.93.09Z"/>
    </g>
    <path class="cls-1" d="M160.3,128.62c.08.02-.04.44-.6.61-.27.08-.63.09-.99-.05-.35-.14-.63-.36-.91-.48-.72-.32-1.25-.8-1.55-1.23-.31-.41-.32-.82-.22-.81.08,0,.2.21.56.51.34.29.85.66,1.47.94.39.18.65.41.89.53.22.12.46.15.66.15.4-.01.61-.22.69-.17Z"/>
    <path class="cls-1" d="M167.19,119.58c.29.21-1.07,2.46-3.04,5.03-1.97,2.56-3.78,4.45-4.05,4.22-.27-.23,1.09-2.48,3.04-5.03,1.95-2.54,3.76-4.43,4.05-4.22Z"/>
    <path class="cls-1" d="M140.14,104.39c-.09.15-3.31-1.57-7.19-3.85-3.88-2.28-6.95-4.25-6.86-4.41.09-.15,3.31,1.57,7.19,3.85,3.88,2.28,6.95,4.25,6.86,4.41Z"/>
    <path class="cls-1" d="M142.94,106.02c.09-.15,2.84,1.28,6.14,3.2.81.54,1.61,1,2.27,1.53.64.54,1.17,1.05,1.66,1.41.96.75,1.75.82,1.74.92.02.08-.88.17-1.99-.55-.55-.34-1.14-.83-1.78-1.33-.65-.48-1.44-.91-2.22-1.43-3.3-1.92-5.91-3.61-5.82-3.76Z"/>
    <path class="cls-1" d="M150.8,110.73c.11-.15.96.29,2,.82,1.04.53,1.89.97,1.84,1.14-.05.17-1.04,0-2.13-.57-1.09-.56-1.81-1.26-1.7-1.4Z"/>
    <path class="cls-1" d="M153.27,111.36c.13-.12.53.11.89.51.36.4.54.82.41.94s-.53-.11-.89-.51c-.36-.4-.54-.82-.41-.94Z"/>
    <path class="cls-1" d="M172.09,122.51c-.11-.15.75-.9,1.61-1.95.45-.5.35-.88.07-1.24-.26-.33-.48-.54-.43-.62.05-.07.34-.01.75.3.19.16.45.41.51.83.07.43-.17.85-.4,1.13-.94,1.14-2.02,1.69-2.11,1.54Z"/>
    <path class="cls-1" d="M110.29,80.73s-.08-.12.02-.29c.09-.17.33-.35.66-.4.33-.05.63-.01.96-.06.34-.03.73-.1,1.17-.13.44-.03.91.03,1.27.17.36.13.65.28.9.4.48.24.78.34.78.43,0,.09-.38.14-.93,0-.57-.14-1.2-.43-1.97-.35-.39.02-.79.08-1.18.08-.39.01-.74-.07-.96-.08-.47-.03-.63.25-.71.23Z"/>
    <path class="cls-1" d="M107.84,81.99c.01.09-.24.19-.49.52-.25.32-.52.89-.77,1.52-.5,1.26-.58,2.39-.76,2.4-.17.02-.39-1.22.16-2.63.28-.69.63-1.27,1.05-1.61.43-.34.81-.28.81-.2Z"/>
    <path class="cls-1" d="M113.29,95.37c-.1-.13.64-1.05,1.85-2.03.66-.5,1.49-.59,2-.49.53.1.79.32.75.4-.04.17-1.27-.21-2.38.62-1.1.89-2.11,1.66-2.22,1.5Z"/>
    <path class="cls-1" d="M112.26,96.66c.17.07,0,.89,0,1.9-.02,1.01.13,1.84-.04,1.9-.16.07-.62-.77-.6-1.91.01-1.14.5-1.96.65-1.89Z"/>
    <path class="cls-1" d="M116.16,92.83c0-.18.36-.34.82-.28.46.06.77.31.72.48-.05.17-.41.21-.8.16-.39-.05-.72-.19-.73-.37Z"/>
    <path class="cls-1" d="M116.68,92.71c-.01-.18.08-.33.21-.34s.24.13.25.31c.01.18-.08.33-.21.34-.13,0-.24-.13-.25-.31Z"/>
    <path class="cls-1" d="M123.46,96.83c-.18.03-.44-.68-.82-1.52-.37-.84-.72-1.51-.58-1.63.13-.11.76.44,1.17,1.36.41.92.4,1.76.22,1.78Z"/>
    <path class="cls-1" d="M125.05,100.95c-.17-.06.13-1.25.36-2.73.11-.74.21-1.41.28-1.9.1-.49.04-.71.1-.78.03-.03.13.01.21.16.09.14.13.38.15.63.04.51.03,1.22-.1,1.99-.25,1.55-.84,2.69-1,2.62Z"/>
    <path class="cls-1" d="M129.16,97.28c-.09.15-.84-.13-1.7-.55-.86-.42-1.54-.84-1.48-1,.06-.17.87-.01,1.76.42.89.44,1.51.98,1.42,1.13Z"/>
    <path class="cls-1" d="M128.46,97.58c-.06.16-.79.04-1.52-.47-.73-.51-1.1-1.15-.97-1.26.14-.12.68.27,1.34.73.66.46,1.22.84,1.15,1.01Z"/>
    <path class="cls-1" d="M132.5,90.88c.08.14-.7.87-1.95,1.41-.63.26-1.26.37-1.71.34-.45-.02-.72-.15-.71-.23.03-.18,1.03-.2,2.17-.71,1.14-.49,2.09-.98,2.19-.81Z"/>
    <path class="cls-1" d="M135.59,88.1c.07.03-.01.54-.41,1.27-.39.73-1.15,1.64-2.22,2.33-1.07.69-2.22,1-3.04,1.06-.83.06-1.33-.07-1.32-.15,0-.19,2.03-.14,4.01-1.46,2.02-1.27,2.81-3.15,2.98-3.06Z"/>
    <path class="cls-1" d="M131.53,92.38c.04.16-.72.59-1.82.71-.55.05-1.07-.03-1.41-.18-.34-.15-.5-.33-.47-.4.09-.16.84.07,1.82-.06.98-.1,1.83-.25,1.88-.06Z"/>
    <path class="cls-1" d="M125.04,82.9c.13.13-.8,1.08-1.92,2.11-.56.47-.74,1.1-.8,1.57-.06.47,0,.79-.1.82-.07.03-.3-.25-.36-.83-.06-.54.13-1.44.8-2.01,1.21-1.1,2.27-1.77,2.39-1.65Z"/>
    <path class="cls-1" d="M125.54,82.54c.07.05-.06.38-.46.77-.38.4-1.01.79-1.55,1.29-.54.49-.76,1.1-.91,1.6-.15.49-.26.81-.35.79-.08-.01-.14-.34-.1-.88.03-.52.24-1.37.91-1.98.64-.59,1.29-.89,1.71-1.17.43-.26.67-.47.74-.42Z"/>
    <path class="cls-1" d="M126.98,81.29c-.03-.08.24-.24.72-.44.49-.17,1.13-.47,1.95-.54.85-.09,1.6.25,2.02.52.44.28.66.51.62.59-.04.08-.36,0-.82-.17-.47-.16-1.07-.36-1.77-.29-.72.05-1.39.28-1.88.33-.49.07-.82.08-.85,0Z"/>
    <path class="cls-2" d="M129.89,81.23"/>
    <path class="cls-1" d="M123.34,84.38c-.15-.09.01-.67.51-1.2.49-.53,1.07-.73,1.16-.59.1.15-.25.56-.69,1.03-.44.46-.82.85-.98.75Z"/>
    <path class="cls-1" d="M117.19,106.01c.02.08-.44.28-1.24.4-.4.06-.89.09-1.44.03-.54-.07-1.18-.23-1.68-.6-.55-.32-1.01-.66-1.42-.99-.41-.32-.78-.62-1.08-.87-.6-.51-.95-.86-.89-.93.06-.07.5.15,1.17.57.33.21.73.46,1.15.75.43.3.89.62,1.39.9.95.66,2.01.67,2.78.68.77,0,1.26-.04,1.28.05Z"/>
    <path class="cls-1" d="M117.29,105.43c.04.17-1.53.6-3.48.33-1.93-.28-3.37-.86-3.34-1.01.04-.19,1.57.11,3.42.37,1.84.26,3.37.13,3.4.31Z"/>
    <path class="cls-1" d="M108.28,92.95c.06-.18.97.02,2.08-.08.56-.04,1.04-.13,1.42-.21.4-.09.7,0,.68.09-.02.09-.21.15-.53.34-.35.19-.9.37-1.52.42-1.26.1-2.2-.41-2.13-.57Z"/>
    <path class="cls-1" d="M109.49,92.85c0-.18.74-.3,1.63-.44.89-.14,1.62-.26,1.69-.09.06.16-.63.58-1.59.73-.96.16-1.74-.02-1.73-.2Z"/>
    <ellipse class="cls-1" cx="112.17" cy="92.94" rx=".98" ry=".32" transform="translate(-33.14 82.72) rotate(-35.62)"/>
  </g>
  <path class="cls-1" d="M168.19,83.53c-.05-.09.35-.34.88-.94.53-.58,1.14-1.61,1.35-2.99.23-1.38-.06-3.08-1.14-4.59-1.05-1.51-2.78-2.78-4.81-3.56-2.04-.79-4.18-1.11-6.12-1.37-1.96-.25-3.74-.48-5.22-.7-2.97-.43-4.8-.79-4.78-.97s1.88-.14,4.88.06c1.5.1,3.27.24,5.26.43,1.98.2,4.22.48,6.45,1.35,2.23.86,4.16,2.31,5.33,4.1,1.2,1.78,1.44,3.89,1.05,5.43-.36,1.57-1.19,2.66-1.9,3.19-.71.54-1.2.64-1.23.57Z"/>
  <path class="cls-1" d="M160.51,83.81c-.21.33-3.98-2.06-9.22-3.29-5.23-1.28-9.67-.85-9.71-1.24-.02-.16,1.07-.49,2.9-.63,1.82-.14,4.38-.04,7.12.61,2.73.66,5.06,1.72,6.62,2.67,1.57.95,2.39,1.74,2.3,1.87Z"/>
  <path class="cls-1" d="M109.14,124.54c.16.19-.38,1.01-1.75,1.72-1.35.72-3.52,1.15-5.82.71-2.29-.43-4.1-1.49-5.25-2.38-1.15-.9-1.7-1.63-1.54-1.84.16-.22.99.11,2.25.66,1.26.54,2.96,1.28,4.9,1.65,1.93.36,3.72.21,4.99-.09,1.27-.29,2.06-.66,2.23-.44Z"/>
  <path class="cls-1" d="M134.95,129.32c.06.24-2.8,1.3-7.58,2.47-4.77,1.17-11.56,2.4-19.15,2.28-3.79-.05-7.39-.44-10.62-1.02-3.27-.62-6.08-1.6-8.37-2.58-2.29-.98-4.03-2.02-5.16-2.84-1.13-.83-1.64-1.43-1.56-1.52.17-.22,2.64,1.52,7.22,3.09,2.27.79,5.05,1.6,8.16,2.1,3.16.48,6.67.8,10.35.85,7.38.12,14.04-.87,18.85-1.68,4.81-.82,7.79-1.4,7.86-1.12Z"/>
  <path class="cls-1" d="M79.1,98.5c-.07.13-1.24-.25-2.71-1.56-.72-.66-1.51-1.56-2.12-2.74-.3-.59-.56-1.25-.73-1.95-.09-.36-.15-.72-.19-1.1,0-.22,0-.46.02-.69.04-.23.13-.45.2-.67.4-.85,1.06-1.36,1.66-1.77.62-.41,1.25-.67,1.85-.92,1.21-.46,2.32-.73,3.25-.92,1.87-.36,3.04-.43,3.08-.26.04.18-1.07.57-2.85,1.15-.88.3-1.94.64-3.03,1.13-1.05.48-2.32,1.15-2.79,2.11-.03.12-.09.23-.11.35,0,.12,0,.24-.02.36.04.32.08.63.14.94.13.61.33,1.18.57,1.72.48,1.06,1.12,1.93,1.7,2.62,1.19,1.37,2.17,2.03,2.06,2.2Z"/>
  <path class="cls-1" d="M63.55,109.85c-.04.06-.7-.2-1.74-.97-1.03-.77-2.37-2.11-3.67-4-.66-.94-1.31-2-2-3.13-.34-.57-.7-1.15-1.06-1.75-.36-.58-.78-1.22-1.11-1.93-.69-1.4-1.16-3-1.29-4.7-.14-1.69.06-3.53.82-5.22.73-1.71,2.1-3.09,3.57-3.94,1.47-.87,2.93-1.44,4.29-2.06,2.73-1.21,5.26-2.2,7.46-2.84,2.19-.64,4.03-.95,5.3-1.04,1.27-.1,1.98-.03,1.98.05.02.22-2.79.36-7,1.86-2.11.74-4.55,1.79-7.24,3.06-1.34.65-2.8,1.25-4.11,2.05-1.32.8-2.41,1.93-3.05,3.39-.65,1.45-.86,3.07-.74,4.6.1,1.54.5,3,1.1,4.29.29.65.65,1.23,1.02,1.86.35.62.69,1.22,1.01,1.8.64,1.16,1.24,2.23,1.83,3.17,2.3,3.85,4.77,5.3,4.64,5.47Z"/>
</svg>