<?xml version="1.0" encoding="UTF-8"?>
<svg id="Capa_1" xmlns="http://www.w3.org/2000/svg" viewBox="0 0 186.86 119.57">
  <defs>
    <style>
      .cls-1 {
        fill: rgb(162, 71, 231);
        stroke: rgb(162, 71, 231); /* Color del borde *
        stroke-width: 20; /* Grosor del borde */

      }
    </style>
  </defs>
  <path class="cls-1" d="M8.18,80.21c-.1.02-.46-1.21-.86-3.23-.4-2.02-.83-4.85-1.05-7.99-.21-3.15-.17-6-.05-8.06.13-2.06.31-3.32.41-3.32.24.01-.01,5.1.42,11.33.43,6.23,1.37,11.23,1.13,11.28Z"/>
  <path class="cls-1" d="M15.8,100.6c-.08.06-.93-.94-2.12-2.71-1.14-1.76-2.77-4.38-3.11-7.75-.09-.83-.05-1.66,0-2.4.04-.75-.02-1.41-.2-2.05-.37-1.28-1.03-2.36-1.49-3.32-.48-.95-.78-1.79-.89-2.38-.12-.6-.08-.94-.04-.94.12,0,.3,1.27,1.42,3.06.51.91,1.24,1.97,1.7,3.38.23.7.32,1.51.28,2.29-.04.78-.07,1.52.01,2.3.31,3.13,1.79,5.71,2.8,7.53,1.06,1.82,1.75,2.94,1.65,3Z"/>
  <path class="cls-1" d="M.03,91.66c-.08-.04.15-.73,1.03-1.45.43-.36,1.03-.7,1.77-.89.74-.19,1.52-.23,2.34-.27,1.64-.06,3.1.01,4.16.07,1.06.06,1.71.11,1.72.22,0,.11-.65.25-1.71.33-1.06.09-2.54.11-4.14.16-.8.04-1.57.06-2.2.19-.64.13-1.18.37-1.61.64-.85.53-1.25,1.07-1.35,1Z"/>
  <path class="cls-1" d="M5.11,99.87s-.17.08-.43-.03c-.26-.11-.58-.38-.83-.78-.49-.8-.99-1.85-1.67-3.02-1.33-2.32-2.36-4.26-2.16-4.38.17-.1,1.5,1.64,2.85,4,.67,1.17,1.16,2.36,1.46,3.13.32.78.8.98.78,1.08Z"/>
  <path class="cls-1" d="M14.08,97.84c-.03.12-.56.02-1.35.07-.79.03-1.86.43-3.11.77-1.18.35-2.25.86-3.1,1.08-.84.23-1.39.21-1.41.11-.02-.11.47-.29,1.22-.63.75-.33,1.77-.92,3.06-1.31,1.23-.34,2.41-.68,3.34-.57.9.1,1.37.4,1.34.49Z"/>
  <path class="cls-1" d="M86.8,67.09s-.27.11-.8.24c-.53.13-1.3.32-2.3.57-2,.49-4.88,1.26-8.48,2.11-7.17,1.94-17.55,2.04-28.18,5.63-2.63.94-5.12,2.05-7.46,3.27-2.32,1.25-4.48,2.6-6.46,4-3.96,2.8-7.19,5.78-9.75,8.41-2.55,2.64-4.44,4.95-5.71,6.57-.64.8-1.11,1.46-1.45,1.88-.34.43-.52.64-.54.63-.02-.02.12-.26.42-.72.3-.45.72-1.14,1.33-1.97,1.2-1.68,3.04-4.06,5.56-6.77,2.53-2.7,5.75-5.75,9.73-8.61,1.99-1.43,4.17-2.81,6.52-4.09,2.36-1.25,4.89-2.39,7.57-3.34,2.69-.91,5.37-1.6,7.98-2.13,2.6-.55,5.15-.96,7.57-1.28,2.42-.33,4.72-.61,6.86-.93,2.14-.32,4.11-.71,5.91-1.09,3.6-.78,6.51-1.47,8.53-1.87,1.01-.2,1.8-.34,2.34-.43.54-.08.82-.11.83-.09Z"/>
  <path class="cls-1" d="M37.89,34.34c0,.15-2.4-.46-6.05.61-1.81.52-3.86,1.48-6.02,2.75-2.15,1.3-4.55,2.71-6.8,4.5-2.22,1.8-4.05,3.92-5.79,5.74-1.7,1.85-3.14,3.6-4.15,5.19-2.08,3.18-2.4,5.6-2.55,5.55-.03,0-.02-.15.02-.44.03-.28.1-.7.24-1.22.27-1.04.82-2.53,1.82-4.19.97-1.67,2.4-3.49,4.09-5.39,1.72-1.86,3.52-3.99,5.83-5.87,2.32-1.85,4.74-3.24,6.93-4.51,2.21-1.26,4.34-2.19,6.23-2.66,1.88-.48,3.48-.52,4.56-.42,1.08.1,1.65.31,1.64.35Z"/>
  <path class="cls-1" d="M71.93,70.42c-.05.02-.34-.69-.84-1.99-.51-1.29-1.25-3.15-2.15-5.46-.95-2.29-2.08-5.01-3.34-8.04-.64-1.51-1.32-3.08-2.16-4.63-.83-1.55-1.84-3.08-3.01-4.54-1.16-1.47-2.4-2.82-3.65-4.08-1.24-1.26-2.51-2.41-3.79-3.39-2.56-1.99-5.27-3.16-7.66-3.69-2.39-.55-4.4-.52-5.77-.43-1.37.1-2.13.26-2.14.2,0-.03.18-.09.53-.19.35-.1.89-.21,1.58-.31,1.38-.19,3.44-.3,5.92.19,2.47.46,5.33,1.63,7.98,3.65,1.33.99,2.63,2.16,3.9,3.43,1.27,1.27,2.54,2.64,3.72,4.14,1.19,1.5,2.23,3.07,3.07,4.67.84,1.6,1.52,3.19,2.14,4.72,1.24,3.04,2.32,5.79,3.19,8.12.87,2.33,1.51,4.23,1.93,5.56.41,1.33.61,2.07.56,2.09Z"/>
  <path class="cls-1" d="M68.34,33.33c-.03.12-1.69-.23-4.41-.63-2.71-.41-6.47-.83-10.65-.9-4.17-.04-7.97.12-10.61.76-2.65.61-4.07,1.61-4.14,1.49-.03-.04.29-.33.96-.74.66-.41,1.7-.89,3.04-1.28,2.7-.8,6.55-1.05,10.76-1.01,4.22.07,8.03.58,10.73,1.13,2.71.54,4.33,1.09,4.31,1.18Z"/>
  <path class="cls-1" d="M127.16,81.31c-.15.22-4.34-3.45-10.64-5.72-3.12-1.15-6.17-1.61-8.28-2.35-2.1-.77-3.28-1.47-3.25-1.55.05-.12,1.33.4,3.42,1.02,2.11.59,5.15.96,8.38,2.14,3.22,1.16,5.88,2.77,7.68,4.08,1.8,1.31,2.76,2.31,2.7,2.38Z"/>
  <path class="cls-1" d="M127.16,81.31s-.32-.07-.9-.28c-.29-.11-.65-.24-1.07-.39-.43-.13-.93-.28-1.49-.44-1.12-.32-2.52-.62-4.16-.87-1.65-.19-3.53-.38-5.62-.32-4.18.05-9.13.78-14.55,1.95-5.43,1.14-11.35,2.68-17.71,3.71-6.34,1.05-12.59,1.31-18.11.2-2.77-.52-5.29-1.4-7.61-2.24-2.32-.85-4.47-1.66-6.48-2.25-4-1.21-7.43-1.4-9.73-1.08-2.31.31-3.5.9-3.53.82,0-.02.28-.17.85-.41.58-.22,1.46-.51,2.63-.71,2.33-.42,5.85-.31,9.93.85,2.04.56,4.21,1.35,6.54,2.17,2.33.81,4.82,1.66,7.53,2.15,5.42,1.05,11.56.78,17.85-.26,6.31-1.03,12.23-2.54,17.69-3.65,5.45-1.14,10.46-1.82,14.69-1.8,2.12-.02,4.03.2,5.69.44,1.66.29,3.06.64,4.19,1.01.56.19,1.05.37,1.48.52.42.18.77.34,1.05.47.56.26.86.4.84.43Z"/>
  <path class="cls-1" d="M126.99,81.09s.27.13.58.56c.14.22.33.53.3.98-.02.45-.42.91-.91,1.07-1.92.53-4.5-.07-7.01-1.22-1.26-.56-2.42-1.16-3.48-1.65-1.06-.5-2.04-.88-2.88-1.14-1.68-.51-2.8-.5-2.8-.63-.01-.08,1.14-.3,2.94.1.89.21,1.93.55,3.03,1.02,1.1.47,2.27,1.05,3.51,1.6,1.23.55,2.43,1.01,3.55,1.25.28.08.55.11.82.15.27.05.53.08.78.08.51.03.98.05,1.35-.07.38-.11.6-.33.66-.61.06-.27-.04-.55-.13-.77-.2-.43-.37-.67-.32-.71Z"/>
  <path class="cls-1" d="M92.29,82.07s-.22.24-.68.63c-.46.4-1.18.95-2.14,1.6-1.91,1.3-4.91,2.91-8.86,4.2-1.96.66-4.15,1.28-6.48,1.93-1.17.33-2.37.67-3.61,1.03-.62.18-1.25.36-1.89.55l-.48.14c-.39-1.37-.1-.38-.18-.69h.02s.03-.01.03-.01l.06-.02.12-.04.24-.07c.32-.09.65-.19.98-.28.66-.19,1.32-.38,1.99-.58.34-.1.67-.19,1.01-.29l.51-.15.13-.04.06-.02h.02c-.04-.16.39,1.35.2.71h-.03s-.26.08-.26.08c-1.37.4-2.77.8-4.2,1.21-2.86.81-5.81,1.66-8.84,2.52-6.06,1.71-11.84,3.32-17.12,4.74-2.65.7-5.13,1.38-7.54,1.9-2.43.43-4.7.49-6.77.54-4.14.08-7.49-.25-9.78-.56-1.15-.16-2.03-.33-2.63-.46-.59-.13-.9-.23-.9-.25,0-.03.32.01.92.1.6.08,1.49.2,2.63.31,2.29.22,5.62.46,9.73.31,2.05-.08,4.32-.18,6.66-.62,2.33-.53,4.85-1.24,7.47-1.96,5.25-1.47,11.03-3.09,17.09-4.79,3.03-.86,5.99-1.7,8.85-2.51,1.43-.41,2.83-.8,4.21-1.19l.26-.07h.03c-.18-.65.26.86.21.71h-.02s-.06.02-.06.02l-.13.04-.51.14c-.34.1-.68.19-1.01.29-.67.19-1.34.38-1.99.56-.33.09-.65.18-.98.28l-.24.07-.12.03-.06.02h-.03s-.02.01-.02.01c-.09-.3.18.69-.21-.68l.48-.14c.64-.18,1.27-.36,1.89-.53,1.25-.34,2.46-.67,3.63-.99,2.34-.63,4.52-1.21,6.48-1.83,3.93-1.22,6.91-2.72,8.86-3.93,1.95-1.21,2.94-2.03,2.98-1.97Z"/>
  <path class="cls-1" d="M83.38,110.25c.16.15.07.49-.19.76-.26.27-.6.37-.76.22-.16-.15-.07-.49.19-.76.26-.27.6-.37.76-.22Z"/>
  <path class="cls-1" d="M186.67,110.34s.08,0,.14.1c.06.1.07.27.03.46-.08.33-.16.85-.44,1.43-.54,1.19-1.65,2.49-2.97,3.89-1.4,1.33-2.95,2.17-4.08,2.67-1.15.5-1.91.64-1.95.55-.1-.23,2.81-1.29,5.5-3.79,1.24-1.32,2.42-2.56,3.02-3.58.32-.5.47-.96.64-1.26.16-.28.08-.42.12-.46Z"/>
  <path class="cls-1" d="M177.08,119.56c-.09-.04.14-.77.77-1.82.62-1.05,1.7-2.39,3.11-3.61,2.86-2.42,5.65-3.6,5.73-3.45.13.22-2.46,1.71-5.22,4.04-2.78,2.32-4.2,4.95-4.4,4.84Z"/>
  <path class="cls-1" d="M135.89,49.66c.09.01-.16,1.45-1.39,3.38-.6.96-1.42,2.04-2.41,3.16-.48.57-1.03,1.13-1.61,1.71-.29.29-.58.59-.88.88-.34.26-.68.52-1.02.79-2.78,2.11-5.69,3.34-7.78,4.15-.52.21-1,.38-1.42.53-.39.15-.89.26-1.01.31-.09.03-.22.09-.17.18.03.07.07.13.11.18.08.1.16.15.15.18,0,.02-.11.03-.28-.08-.08-.05-.19-.14-.26-.26-.1-.15.05-.29.19-.4.43-.25.7-.29,1.12-.51.4-.19.86-.4,1.37-.64,2.02-.93,4.84-2.23,7.52-4.26.33-.25.66-.5.99-.75.29-.29.58-.57.86-.85.57-.55,1.11-1.09,1.61-1.64,1-1.08,1.84-2.09,2.49-2.99,1.31-1.79,1.73-3.12,1.85-3.08Z"/>
  <path class="cls-1" d="M135.89,49.66c.08-.03.62,1.51.65,4.11,0,.64,0,1.37-.16,2.14-.16.77-.49,1.56-.94,2.31-.91,1.51-2.28,2.84-3.73,4.15-.74.66-1.52,1.26-2.36,1.72-.85.47-1.75.72-2.58.91-1.66.39-3.19.61-4.48.65-2.62.1-4.15-.58-4.11-.66.03-.12,1.56.35,4.07.11,1.25-.11,2.73-.38,4.35-.8.81-.21,1.62-.45,2.38-.88.77-.42,1.5-.99,2.21-1.63,1.43-1.29,2.76-2.57,3.63-3.94.91-1.37,1.15-2.81,1.16-4.08.12-2.52-.22-4.08-.09-4.1Z"/>
  <path class="cls-1" d="M140.46,33.44c.1,0,.26,1.18.37,3.1.1,1.92.15,4.6-.26,7.53-.4,2.94-1.29,5.52-2.2,7.23-.9,1.73-1.74,2.62-1.81,2.56-.1-.07.56-1.06,1.31-2.8.76-1.73,1.53-4.24,1.92-7.11.4-2.86.43-5.5.48-7.41.04-1.91.08-3.1.19-3.11Z"/>
  <path class="cls-1" d="M102.17,64.81s-.15.02-.44,0c-.29,0-.72-.03-1.29-.07-1.12-.1-2.8-.27-4.88-.87-2.07-.63-4.51-1.6-7.29-2.89-2.75-1.32-5.79-3.23-8.36-6.16-2.58-2.89-4.71-6.73-5.77-11.17-.53-2.22-.89-4.56-.84-7.01.06-2.45.58-4.92,1.24-7.38.33-1.23.72-2.48,1.25-3.7.54-1.22,1.22-2.37,1.97-3.48,1.5-2.21,3.16-4.39,5.1-6.4.97-1.02,2.07-1.93,3.22-2.76,1.15-.83,2.32-1.63,3.57-2.36,2.5-1.45,5.25-2.56,8.13-3.24,2.88-.69,5.84-.94,8.72-.76,2.89.15,5.68.86,8.32,1.7,2.62.88,5.24,1.65,7.64,2.95,2.4,1.32,4.3,3.21,5.99,5.12,1.69,1.93,3.11,4,4.28,6.13.58,1.06,1.12,2.14,1.56,3.23.21.55.42,1.09.63,1.63l.31.81c.1.29.17.6.2.89.09,2.26.57,4.39.58,6.53.01,2.13-.27,4.15-.73,6.04-.92,3.78-2.7,6.9-4.57,9.32-1.91,2.39-3.51,4.47-5.07,5.99-1.57,1.5-3.05,2.33-4.01,2.92-.49.29-.86.5-1.12.63-.26.14-.39.2-.4.19,0-.01.11-.1.36-.26.24-.16.6-.39,1.08-.7.93-.63,2.37-1.5,3.88-3.01,1.49-1.51,3.07-3.64,4.93-6.03,1.81-2.42,3.52-5.48,4.38-9.19.43-1.84.69-3.84.67-5.9-.03-2.06-.52-4.21-.62-6.47-.03-.26-.08-.51-.17-.76l-.31-.79c-.21-.53-.42-1.06-.63-1.6-.44-1.07-.97-2.12-1.55-3.16-1.16-2.08-2.57-4.1-4.23-5.98-1.66-1.87-3.52-3.7-5.8-4.94-2.28-1.23-4.91-2-7.51-2.87-2.62-.83-5.32-1.51-8.14-1.66-2.8-.18-5.68.06-8.49.74-5.62,1.31-10.66,4.38-14.55,8.13-1.9,1.96-3.55,4.11-5.03,6.29-.74,1.09-1.4,2.2-1.92,3.36-.52,1.16-.9,2.37-1.23,3.59-.67,2.43-1.18,4.84-1.25,7.21-.06,2.36.27,4.68.78,6.84,1.02,4.36,3.05,8.1,5.55,10.96,2.48,2.89,5.43,4.79,8.13,6.14,2.73,1.32,5.16,2.34,7.19,2.99,2.04.64,3.69.86,4.81,1.01.56.07.99.12,1.28.15.29.03.43.06.43.07Z"/>
  <path class="cls-1" d="M177.08,119.56s-.24-.17-.63-.56c-.39-.39-.95-.96-1.69-1.7-1.44-1.5-3.52-3.67-6.1-6.35-5.14-5.37-12.22-12.82-19.99-21.09-4.22-4.51-8.23-8.78-11.82-12.62-1.79-1.92-3.48-3.74-5.04-5.42-.78-.84-1.52-1.65-2.24-2.42-.37-.38-.68-.78-1.04-1.09-.18-.17-.37-.34-.54-.54-.15-.21-.38-.39-.38-.82.07-.35.24-.47.36-.64.14-.15.23-.27.36-.42.24-.29.46-.58.71-.84.5-.52.93-1.05,1.4-1.46.93-.83,1.69-1.59,2.39-2.12.7-.53,1.24-.93,1.6-1.21.37-.27.57-.4.59-.38.02.02-.16.19-.5.49-.34.3-.85.74-1.51,1.31-.67.56-1.39,1.35-2.29,2.2-.46.42-.85.95-1.33,1.47-.24.26-.45.55-.68.84-.19.28-.59.66-.59.81,5.14,5.43,12.69,13.41,21.12,22.32,7.77,8.27,14.79,15.78,19.83,21.24,2.5,2.75,4.52,4.98,5.92,6.53.69.78,1.22,1.39,1.58,1.8.35.42.53.65.51.66Z"/>
  <path class="cls-1" d="M186.69,110.52s-.22-.14-.59-.46c-.36-.33-.9-.82-1.59-1.44-1.35-1.28-3.31-3.13-5.74-5.42-4.82-4.6-11.44-11-18.72-18.1-7.28-7.1-13.87-13.53-18.46-18.36-2.32-2.38-4.2-4.35-5.42-5.73-.64-.66-1.25-1.03-1.7-1.19-.45-.16-.71-.15-.71-.19,0-.01.06-.02.19-.03.13,0,.32,0,.57.07.49.12,1.17.48,1.87,1.12,1.32,1.35,3.23,3.21,5.61,5.56,4.69,4.73,11.34,11.1,18.62,18.19,7.28,7.1,13.84,13.55,18.56,18.25,2.35,2.36,4.25,4.28,5.56,5.6.64.67,1.15,1.2,1.49,1.55.33.36.5.56.48.58Z"/>
  <path class="cls-1" d="M128.72,68.06c.09.07-.53.74-1.81,1.11-1.24.39-3.06.71-5.07.53-.62-.05-1.21-.13-1.78-.3-.28-.08-.56-.15-.83-.22-.11-.04-.24-.08-.37-.14-.13-.06-.29-.11-.46-.31-.16-.25-.15-.39-.18-.55-.02-.15-.03-.29-.04-.41-.02-.25-.05-.49-.07-.71-.04-.45-.08-.85-.11-1.18-.05-.66-.01-1.06.06-1.06.08,0,.18.36.34,1,.08.32.18.71.27,1.16.05.23.09.47.13.73.02.12.04.24.06.37.02.11.07.25.07.23,0,0,.07.04.18.08.12.04.24.08.37.12.25.06.5.11.76.17.5.14,1.08.21,1.66.26,1.9.16,3.63-.04,4.87-.29,1.24-.21,1.88-.65,1.95-.57Z"/>
  <path class="cls-1" d="M127.83,67.09c-.21.02-.46-.57-.45-1.34,0-.57.14-1.06.3-1.25l1-1.19-.7,1.19c-.04.07-.09.11-.14.12-.05,0-.11-.03-.16-.09h.3c.12.21.18.68.18,1.22,0,.72-.11,1.31-.33,1.34Z"/>
  <path class="cls-1" d="M136.28,52.37c.23-.04.64,1.88.55,4.24-.01.59-.03,1.14-.11,1.67-.03.26-.07.51-.1.74-.02.23-.07.44-.16.62-.3.74-.53,1.17-.63,1.13-.1-.04-.06-.52.09-1.25.05-.18.07-.38.06-.6,0-.22.01-.45.02-.7.03-.48.03-1.04.04-1.63.09-2.33.03-4.19.23-4.22Z"/>
  <path class="cls-1" d="M119.52,68.92s-.14.15-.46.35c-.32.2-.82.46-1.49.71-1.35.52-3.38.89-5.87,1.36-2.5.44-5.5.94-8.89,1-3.37.07-7.19-.44-10.78-2.04-3.56-1.52-6.95-3.09-9.72-5.07-2.79-1.95-4.8-4.39-6.04-6.63-.63-1.11-1.12-2.16-1.52-3.09-.4-.92-.74-1.71-1.02-2.36-.61-1.27-1.05-1.92-.98-1.96.02-.02.15.13.37.44.2.31.58.74.89,1.38.32.64.7,1.42,1.15,2.33.43.9.95,1.92,1.6,2.99,1.28,2.16,3.24,4.44,5.98,6.32,2.71,1.89,6.07,3.43,9.61,4.94,3.51,1.56,7.15,2.06,10.47,2.04,3.32-.02,6.31-.45,8.8-.82,2.5-.4,4.53-.69,5.87-1.11,1.34-.4,2.01-.82,2.05-.76Z"/>
  <path class="cls-1" d="M103.93,64.69s-.18.03-.53.06c-.35.02-.88.05-1.57.05-1.38,0-3.44-.07-6.04-.51-2.59-.45-5.74-1.3-9.13-2.92-3.36-1.63-7.02-4.08-10-7.79-1.52-1.8-3.04-3.78-4.25-6.08-1.21-2.31-2.02-4.92-2.45-7.68-.14-1.39-.23-2.8-.35-4.23-.06-1.43-.08-2.89,0-4.38.08-1.48.31-3,.72-4.48.4-1.48.97-2.94,1.56-4.36.27-.73.54-1.46.81-2.2.29-.75.68-1.48,1.08-2.17.8-1.4,1.72-2.74,2.74-4.03,2.04-2.58,4.55-4.87,7.39-6.77,5.68-3.8,12.67-6.02,19.91-6.26,7.26-.2,14.32,1.93,20.07,5.6,2.88,1.83,5.46,4.02,7.66,6.46,2.18,2.45,4.09,5.08,5.35,7.99.63,1.44,1.02,3.01,1.22,4.51.22,1.51.37,3.01.42,4.49.1,2.97-.22,5.86-.85,8.58-1.25,5.45-3.86,10.12-6.9,13.72-.75.91-1.49,1.78-2.25,2.62-.77.83-1.6,1.56-2.44,2.22-1.7,1.3-3.43,2.32-5.09,3.19-3.33,1.73-6.42,2.75-8.98,3.37-2.56.62-4.61.84-5.98.95-.69.06-1.22.07-1.57.08-.35,0-.54,0-.54,0,0-.01.18-.04.53-.07.35-.03.88-.07,1.56-.15,1.37-.16,3.39-.43,5.92-1.09,2.53-.66,5.57-1.71,8.85-3.46,1.63-.88,3.34-1.91,4.99-3.2.82-.65,1.62-1.37,2.36-2.18.73-.82,1.48-1.7,2.21-2.61,2.98-3.59,5.5-8.16,6.7-13.51.6-2.66.91-5.5.79-8.41-.06-1.46-.2-2.93-.43-4.41-.2-1.5-.57-2.93-1.19-4.33-1.22-2.79-3.11-5.38-5.25-7.77-2.16-2.38-4.69-4.53-7.51-6.31-5.64-3.59-12.55-5.66-19.64-5.46-7.08.24-13.94,2.41-19.5,6.12-2.78,1.86-5.23,4.09-7.23,6.6-1,1.25-1.91,2.57-2.69,3.93-.4.69-.76,1.35-1.04,2.07-.27.74-.55,1.47-.82,2.19-1.24,2.85-2.13,5.71-2.26,8.62-.09,1.45-.08,2.89-.02,4.31.11,1.41.19,2.8.32,4.16.4,2.7,1.18,5.25,2.34,7.49,1.17,2.25,2.65,4.21,4.14,6,2.9,3.68,6.46,6.1,9.77,7.75,3.33,1.64,6.43,2.52,9,3.02,2.57.49,4.61.6,5.99.65.69.01,1.22.02,1.57.03.35,0,.54,0,.54.02Z"/>
  <path class="cls-1" d="M119.57,63.28s-.15.1-.45.25c-.3.15-.76.38-1.37.64-1.22.53-3.05,1.26-5.5,1.9-2.43.72-5.57,1.01-9.16.92-3.59-.11-7.7-.64-12.02-2.05-4.31-1.4-8.83-3.7-12.92-7.15-2.04-1.73-3.99-3.71-5.68-6.02-.84-1.16-1.6-2.4-2.22-3.75-.62-1.34-1.09-2.76-1.52-4.19-1.76-5.72-2.2-12.33-.2-18.63.99-3.13,2.5-6.15,4.49-8.9,1.98-2.76,4.44-5.18,7.03-7.46,1.32-1.11,2.56-2.31,4.09-3.18.77-.39,1.52-.82,2.3-1.17.77-.35,1.54-.7,2.31-1.05,3.09-1.36,6.33-2.26,9.55-2.81,3.23-.53,6.44-.75,9.59-.57,3.15-.02,6.23.66,9.07,1.62,2.85.98,5.49,2.29,7.91,3.79,2.42,1.5,4.63,3.18,6.55,5.04,1.92,1.86,3.57,3.9,4.79,6.06.61,1.09,1.2,2.14,1.73,3.19.27.53.52,1.07.73,1.62.23.53.35,1.18.42,1.7.24,1.03.84,2.06.94,3.16.19,1.08.28,2.12.35,3.14.14,2.04.13,3.97-.01,5.76-.28,3.59-1.04,6.63-1.94,9-.45,1.18-.9,2.22-1.4,3.06-.5.85-.98,1.51-1.33,2.07-.36.56-.61.99-.77,1.29-.16.3-.24.45-.26.45-.01,0,.05-.17.19-.48.14-.31.37-.76.71-1.34.33-.58.8-1.26,1.26-2.1.47-.84.89-1.87,1.31-3.05.85-2.36,1.55-5.37,1.79-8.92.12-1.78.11-3.68-.05-5.69-.08-1-.18-2.05-.37-3.08l-.15-.77c-.06-.26-.18-.51-.26-.76-.18-.53-.41-.99-.55-1.6-.12-1.14-.59-2.11-1.13-3.17-.54-1.04-1.13-2.09-1.73-3.15-1.22-2.11-2.84-4.08-4.73-5.9-1.89-1.82-4.08-3.46-6.46-4.92-2.38-1.46-4.99-2.74-7.78-3.69-2.8-.93-5.77-1.59-8.87-1.56-3.08-.17-6.26.05-9.43.58-3.17.54-6.33,1.43-9.37,2.77-.76.35-1.52.69-2.28,1.04-.76.35-1.48.76-2.22,1.13-1.43.8-2.67,2-3.98,3.1-2.57,2.25-4.98,4.64-6.92,7.32-1.93,2.68-3.42,5.63-4.39,8.68-1.96,6.12-1.56,12.57.16,18.19.42,1.42.88,2.8,1.47,4.1.59,1.3,1.32,2.51,2.14,3.64,1.64,2.25,3.55,4.22,5.54,5.93,4.01,3.41,8.43,5.71,12.67,7.12,4.25,1.42,8.3,1.99,11.86,2.14,3.56.14,6.64-.11,9.06-.77,2.44-.6,4.28-1.27,5.51-1.75.61-.25,1.08-.44,1.4-.57.31-.13.48-.19.48-.18Z"/>
  <path class="cls-1" d="M117.9,64.61c-.15-.16-.04-.49.23-.75.27-.25.62-.33.76-.17.15.16.04.49-.23.75s-.62.33-.76.17Z"/>
  <path class="cls-1" d="M135.99,49.65c.16.15-.01.58-.37.95-.36.37-.78.56-.94.41s.01-.58.37-.95c.36-.37.78-.56.94-.41Z"/>
  <path class="cls-1" d="M126.01,55.09s-.1-.19-.22-.56c-.12-.38-.26-.94-.41-1.67-.31-1.47-.55-3.63-.74-6.28-.21-2.65-.41-5.81-1.41-9.16-.95-3.35-2.47-6.92-4.66-10.29-4.39-6.8-10.24-11.48-14.74-14.21-4.53-2.77-7.69-3.79-7.62-3.96.02-.05.8.21,2.21.72.7.26,1.53.65,2.5,1.08.95.46,2.04,1.01,3.2,1.68,4.62,2.64,10.64,7.33,15.12,14.26,2.24,3.44,3.77,7.09,4.7,10.52.98,3.43,1.12,6.67,1.27,9.32.12,2.66.28,4.8.49,6.27.2,1.47.39,2.27.32,2.29Z"/>
</svg>