<?xml version="1.0" encoding="utf-8"?>
<!-- Generator: Adobe Illustrator 28.1.0, SVG Export Plug-In . SVG Version: 6.00 Build 0)  -->
<svg version="1.1" id="Capa_1" xmlns="http://www.w3.org/2000/svg" xmlns:xlink="http://www.w3.org/1999/xlink" x="0px" y="0px"
	 viewBox="0 0 595.28 841.89" style="enable-background:new 0 0 595.28 841.89;" xml:space="preserve">
 <defs>
    <style>
      .cls-1 {
        fill: rgb(71, 125, 231);
        stroke: rgb(71, 125, 231); /* Color del borde *
        stroke-width: 20; /* Grosor del borde */
      }
    </style>
  </defs>
	 
<g>
	<path  class="cls-1" d="M333.31,270.15v-29.57c0,0,96.1,5.91,93.15,118.28h-28.09C398.36,358.86,403.29,281.49,333.31,270.15z"/>
	<path  class="cls-1" d="M426.52,370.69H458c0,0,2.46,133.56-145.39,137.01v-28.09C312.61,479.61,419.69,480.59,426.52,370.69z"/>
	<path   class="cls-1" d="M373.72,370.69h22.18c0,0,3.45,72.94-76.39,78.36v-23.16C319.51,425.89,370.77,426.87,373.72,370.69z"/>
	<path  class="cls-1" d="M312.61,472.71v-21.19c0,0-73.92,0-84.27-84.77h-24.15C204.19,366.75,200.74,470.24,312.61,472.71z"/>
	<path  class="cls-1" d="M237.7,494.88v-26.12c0,0-63.08-13.8-60.62-90.19h-26.61C150.47,378.58,147.02,480.59,237.7,494.88z"/>
	<path  class="cls-1" d="M197.29,361.33H175.6c0,0,3.02-86.49,102.08-90.93c0,0,84.61-0.68,97.52,90.93h-24.15c0,0-2.69-62.22-72.26-70.6
		C278.79,290.73,206.65,286.42,197.29,361.33z"/>
	<path  class="cls-1" d="M258.4,340.13v-29.08c0,0,62.1-4.93,69.98,69.98h-27.6C300.78,381.04,297.33,340.13,258.4,340.13z"/>
</g>
</svg>
