<?xml version="1.0" encoding="UTF-8"?>
<svg id="Capa_1" xmlns="http://www.w3.org/2000/svg" viewBox="0 0 101.01 172.48">
  <defs>
    <style>
      .cls-1, .cls-2, .cls-3 {
        fill: #1d1d1b;
      }

      .cls-2, .cls-4, .cls-5 {
        opacity: .5;
      }

      .cls-4, .cls-6, .cls-7, .cls-5, .cls-3, .cls-8, .cls-9 {
        stroke: #1d1d1b;
        stroke-miterlimit: 10;
      }

      .cls-4, .cls-6, .cls-7, .cls-5, .cls-8, .cls-9 {
        fill: none;
      }

      .cls-4, .cls-8 {
        stroke-width: 1.29px;
      }

      .cls-6, .cls-3 {
        stroke-width: .43px;
      }

      .cls-7 {
        stroke-width: .86px;
      }

      .cls-5 {
        stroke-width: 3.79px;
      }

      .cls-9 {
        stroke-width: 1.15px;
      }
    </style>
  </defs>
  <path class="cls-1" d="M92.81,145.12s-.05-.32-.08-.94c-.01-.62-.04-1.55-.06-2.76-.04-2.43-.07-6-.08-10.61-.02-9.21.02-22.54.14-39.02.15-16.47.32-36.08.51-57.86.04-5.44.09-11.02.13-16.72,0-2.85,0-5.72,0-8.63,0-.37-.02-.69-.03-1.04-.01-.34,0-.69-.08-1.01-.12-.65-.33-1.26-.65-1.81-.32-.55-.76-1.03-1.27-1.54-.47-.46-1-.86-1.59-1.14-.58-.28-1.21-.45-1.86-.5-.64-.02-1.46.01-2.18.01-1.49.02-2.99.04-4.5.06-3.01.04-6.05.08-9.11.12-6.12.08-12.33.16-18.61.25-12.57.16-24.84.31-36.69.47-1.48.02-2.96.04-4.42.05-.73,0-1.47.02-2.2.03-.72.02-1.5,0-2.09.06-1.24.13-2.26.9-3.17,1.93-.23.25-.45.52-.67.79-.23.28-.38.49-.54.79-.31.56-.56,1.18-.73,1.81-.17.63-.28,1.29-.28,1.9,0,.71.01,1.41.02,2.11.01,1.41.03,2.81.04,4.21.03,2.79.05,5.54.08,8.27.19,21.78.35,41.39.49,57.86.08,16.47.15,29.8.2,39.02-.01,4.61-.02,8.18-.03,10.61-.02,1.21-.04,2.14-.05,2.76-.02.62-.04.94-.07.94s-.06-.32-.09-.94c-.02-.62-.06-1.55-.11-2.76-.06-2.42-.15-6-.27-10.6-.16-9.21-.4-22.54-.69-39.01-.24-16.47-.52-36.08-.83-57.86-.04-2.72-.07-5.48-.11-8.27-.02-1.39-.04-2.8-.05-4.21,0-.71-.02-1.42-.03-2.13,0-.8.13-1.56.33-2.3.2-.74.48-1.46.87-2.16.18-.34.44-.71.67-.99.23-.29.47-.58.72-.86.5-.56,1.07-1.11,1.76-1.57.69-.46,1.52-.76,2.34-.86.86-.08,1.54-.05,2.28-.07.73-.01,1.46-.02,2.2-.03,1.47-.02,2.94-.04,4.42-.06,11.85-.16,24.12-.33,36.69-.5,6.28-.08,12.49-.16,18.61-.24,3.06-.04,6.1-.08,9.11-.11,1.51-.02,3.01-.04,4.5-.06.77,0,1.44-.04,2.29,0,.84.06,1.67.29,2.42.65.75.36,1.42.86,2,1.43.53.53,1.1,1.13,1.51,1.86.42.72.69,1.51.83,2.3.08.4.08.78.09,1.17.01.38.03.78.03,1.14,0,2.91-.02,5.8-.02,8.65-.06,5.7-.12,11.28-.18,16.73-.32,21.78-.61,41.39-.85,57.86-.27,16.47-.49,29.8-.64,39.01-.09,4.61-.17,8.18-.22,10.61-.04,1.21-.07,2.14-.09,2.76-.03.62-.06.94-.09.94Z"/>
  <path class="cls-1" d="M83.18,138.65c0-.05.02-5.48.05-15.44,0-4.92,0-10.96,0-17.98.01-3.5.02-7.24.03-11.21,0-.99,0-2,.01-3.02v-.28c-.04-.12.13-.15.19-.23l.32-.26.61-.48c.41-.32.82-.65,1.23-.98,1.62-1.29,3.28-2.61,4.99-3.96-.06-13.29-.13-28.51-.21-45.26-.03-8.4-.07-17.18-.11-26.29,0-1.14,0-2.28-.01-3.43,0-.55.01-1.19-.02-1.68-.06-.51-.27-.96-.63-1.37-.71-.89-1.53-1.66-2.46-2.33-.5-.38-.82-.59-1.38-.56l-1.76.02c-4.66.05-9.4.1-14.21.16-2.24,2.04-4.5,4.09-6.78,6.17-7.85.06-15.86.13-24.01.19-1.63-1.26-3.27-2.53-4.92-3.81l-2.42-1.87c-.15-.11-.08-.06-.09-.07h-.38s-.77,0-.77,0h-1.54c-4.11.04-8.24.07-12.41.1-1.67.01-3.34.02-5.01.04-1.62-.04-3.24.27-4.36,1.34-1.13,1.06-1.77,2.58-1.99,4.14-.12.79-.14,1.57-.12,2.4l.03,2.46c.07,6.54.14,12.99.21,19.35.14,12.71.27,25.03.39,36.85.12,11.82.24,23.14.35,33.86.05,5.36.11,10.57.16,15.61.02,2.52.05,5,.07,7.44,0,.61.01,1.22.02,1.82.01.15-.04.03.08.19l.3.34.6.67c.76.87,1.52,1.72,2.27,2.57,5.14.19,10.07.38,14.77.56,1.18.82,2.33,1.63,3.47,2.42,17.21.54,31.07.97,40.61,1.26,4.78.16,8.49.29,10.99.38,1.25.05,2.21.09,2.85.12.32.02.56.03.73.04.16.01.24.02.24.03,0,0-.08.01-.24.01-.16,0-.41,0-.73,0-.64,0-1.6-.02-2.85-.04-2.51-.05-6.22-.14-11-.24-9.59-.24-23.49-.59-40.78-1.03-1.14-.79-2.3-1.59-3.48-2.41-4.73-.16-9.69-.33-14.87-.51-.81-.91-1.62-1.83-2.45-2.76l-.6-.67-.3-.34-.22-.25c-.03-.1-.01-.31-.02-.35,0-.6-.02-1.21-.02-1.82-.03-2.44-.06-4.92-.09-7.44-.06-5.04-.13-10.25-.19-15.61-.13-10.72-.27-22.04-.41-33.85-.14-11.82-.28-24.13-.43-36.84-.07-6.35-.15-12.81-.22-19.34l-.03-2.46c-.02-.81,0-1.68.13-2.52.24-1.68.93-3.38,2.23-4.6.65-.61,1.47-1.04,2.32-1.27.85-.24,1.74-.29,2.57-.28,1.66-.01,3.33-.02,5.01-.04,4.16-.03,8.3-.06,12.4-.09h1.54s.77-.02.77-.02h.39c.26-.09.51.21.57.23l2.42,1.88c1.57,1.22,3.14,2.43,4.7,3.64,7.96-.06,15.78-.12,23.45-.17,2.28-2.07,4.54-4.12,6.78-6.16,4.91-.05,9.74-.1,14.51-.14l1.76-.02c.3-.02.69.04,1,.18.34.15.57.35.81.52.96.69,1.86,1.54,2.59,2.46.41.46.72,1.1.79,1.74.05.66.02,1.18.03,1.77,0,1.15,0,2.29,0,3.43.02,9.11.04,17.89.06,26.29.03,16.84.05,32.16.07,45.52-1.78,1.4-3.52,2.77-5.21,4.1-.41.33-.83.65-1.24.97l-.61.48-.28.22c-.05.04-.04.04-.04.16-.01,1.03-.02,2.05-.03,3.06-.05,4.02-.09,7.81-.13,11.34-.1,7.05-.19,13.12-.26,18.07-.11,9.79-.17,15.12-.17,15.18Z"/>
  <path class="cls-1" d="M4.21,140.09s.13-.02.38-.03c.25,0,.62,0,1.11-.02.96,0,2.36,0,4.1,0,3.52.02,8.43.06,13.98.1-.03,1.14-.05,2.3-.08,3.48v.12c-4.12-.03-7.98-.07-11.31-.09-3.32-.04-6.12-.08-8.12-.11-.03-1.1-.04-1.97-.06-2.56,0-.29,0-.51,0-.66,0-.15,0-.23.01-.23,0,0,.02.08.03.22.01.15.03.37.05.65.03.55.08,1.36.14,2.39,1.96,0,4.7,0,7.96,0,3.24.01,6.99.03,10.98.05.02-1,.05-1.98.07-2.93-5.41-.08-10.2-.15-13.64-.2-1.74-.04-3.13-.07-4.1-.09-.48-.02-.85-.03-1.1-.04-.25-.01-.38-.02-.38-.04Z"/>
  <path class="cls-1" d="M9.37,137.43c0,.09-1.02.15-2.28.13-1.26-.02-2.28-.11-2.28-.2,0-.09,1.02-.15,2.28-.13,1.26.02,2.28.11,2.28.2Z"/>
  <path class="cls-1" d="M9.47,150.31s.03-.16.16-.43c.13-.27.35-.67.75-1.12.39-.44,1-.97,1.9-1.13.9-.07,1.86-.03,2.98-.03,4.46.06,10.9.23,18.87.5,7.96.27,17.44.63,27.97,1.09,5.26.24,10.79.5,16.51.81,1.43.08,2.88.17,4.33.25.73.05,1.47.09,2.2.14.39.04.79.08,1.22.25.43.16.82.5,1.07.84.26.34.44.68.63,1.01l.19.35v.4s.02.56.02.56c.01.75.03,1.5.04,2.25.02,1.51.05,3.01-.01,4.56-.01.21-.01.37-.06.66-.02.1-.08.24-.11.3l-.1.14-.2.25c-.27.31-.57.59-.87.84-.63.5-1.24.98-2.14,1.24-.08.04-.37.05-.41.03h-.28s-.56-.04-.56-.04l-1.12-.05c-.74-.03-1.49-.06-2.23-.1-2.96-.13-5.87-.26-8.73-.38-5.73-.25-11.25-.5-16.51-.73-10.52-.49-20-.93-27.96-1.3-3.98-.2-7.58-.38-10.74-.53-1.54-.11-3.14.01-4.42-.78-.62-.38-1.07-.89-1.47-1.37-.39-.47-.82-.93-1.01-1.52-.09-.29-.15-.56-.14-.86,0-.26.01-.52.02-.76.01-.49.02-.96.03-1.38.03-.86.05-1.58.07-2.17.03-.59.05-1.03.06-1.33.02-.3.04-.45.06-.45.02,0,.03.15.05.45,0,.3.02.75.04,1.33,0,.59.02,1.31.03,2.17,0,.43,0,.89.01,1.38,0,.25,0,.5,0,.76,0,.22.05.5.14.73.17.48.57.9.97,1.37.41.45.84.92,1.39,1.24,1.1.67,2.61.55,4.19.63,3.16.11,6.76.24,10.74.38,7.96.31,17.44.68,27.97,1.08,5.26.21,10.79.44,16.51.67,2.86.12,5.78.24,8.74.36.74.03,1.48.06,2.23.09l1.12.05.56.02h.28c.15.02.04.02.14,0,.55-.15,1.19-.59,1.73-1.03.27-.23.53-.47.76-.73l.16-.19.07-.1s.67.42.21.12c-.1-.07-.26-.14-.22-.11,0,0-.01.02-.02.03,0-.08.03-.3.04-.47.06-1.48.03-3,.01-4.5-.01-.75-.03-1.5-.04-2.24v-.56c-.04-.31.04-.02-.09-.3-.17-.32-.35-.63-.54-.88-.2-.25-.39-.42-.65-.52-.26-.11-.59-.15-.94-.18-.73-.05-1.45-.1-2.18-.14-1.45-.09-2.9-.18-4.32-.26-5.72-.3-11.24-.59-16.5-.87-10.52-.49-20-.94-27.95-1.31-7.96-.35-14.4-.63-18.85-.82-1.1-.04-2.12-.1-2.93-.07-.81.11-1.4.57-1.8.97-.79.84-1.01,1.44-1.06,1.42Z"/>
  <path class="cls-1" d="M86.76,162.31s-.3.03-.88.03c-.57-.01-1.42-.03-2.51-.04-2.18-.07-5.33-.17-9.22-.29-7.79-.27-18.54-.7-30.42-1.21-5.94-.26-11.6-.52-16.74-.75-2.57-.13-5.01-.21-7.31-.37-1.15-.07-2.25-.14-3.32-.21-1.06-.05-2.1-.14-3.07-.46-.48-.16-.94-.38-1.33-.7-.39-.32-.68-.72-.89-1.13-.42-.84-.5-1.72-.5-2.5.02-1.55.04-2.88.06-3.97.01-.54,0-1.04.14-1.47.13-.43.39-.72.61-.9.23-.19.42-.3.56-.36.13-.06.21-.08.21-.07.02.03-.27.15-.68.53-.2.2-.41.47-.51.86-.11.39-.08.86-.07,1.41.02,1.09.04,2.42.06,3.97.02.76.11,1.57.51,2.31.37.76,1.08,1.3,1.98,1.57.89.28,1.91.36,2.97.4,1.06.05,2.16.11,3.3.17,2.28.13,4.73.2,7.3.31,5.15.21,10.81.45,16.75.69,11.88.51,22.63,1.01,30.42,1.4,3.89.21,7.04.38,9.22.5,1.09.07,1.93.13,2.5.17.57.05.87.08.87.11Z"/>
  <path class="cls-1" d="M.67,163.47s-.03-.17-.05-.49c-.02-.33-.04-.81-.07-1.45-.04-1.28-.11-3.17-.2-5.62-.07-2.45-.15-5.46-.25-8.96-.03-1.76-.07-3.64-.11-5.64,0-.25,0-.51,0-.77-.02-.3.11-.58.22-.81.22-.48.47-.94.73-1.41.26-.47.52-.93.8-1.4l.43-.71.23-.35c.08-.11.14-.24.32-.41.33-.12.5-.06.69-.08h.59c.39,0,.78,0,1.18,0,.79,0,1.6.02,2.42.03,1.63.03,3.32.06,5.05.09,3.5.07,7.19.14,11.06.22,1.3,1.08,2.62,2.18,3.97,3.3.08,1.31.15,2.63.23,3.97.04.51.48.94.99.99.65.01,1.3.03,1.96.04,2.67.05,5.4.11,8.19.16,5.58.11,11.39.23,17.4.35,6.01.12,12.22.25,18.58.38,3.18.07,6.4.13,9.66.2,1.63.03,3.26.07,4.91.1.83.03,1.63.02,2.5.07.43.04.89.12,1.33.31.43.18.8.45,1.14.72.81.7,1.5,1.41,2.25,2.1.73.72,1.47,1.35,2.2,2.15.18.21.34.44.47.7.07.11.1.31.13.49.02.16.02.27.03.4.03.52.04,1.02.05,1.52,0,1,.02,2,.03,2.99,0,1.98-.01,3.94-.02,5.88-.02,2-.04,3.97-.06,5.92-1.62,1.37-3.09,2.62-4.55,3.85-21.76-1.06-41.33-2.02-57.06-2.78-15.71-.82-27.6-1.44-34.02-1.77-1.1-1.39-1.95-2.45-2.52-3.17-.28-.36-.49-.63-.63-.81-.14-.18-.21-.28-.2-.29,0,0,.09.08.24.25.15.17.38.44.67.78.58.69,1.43,1.7,2.54,3.03,6.41.27,18.26.77,33.93,1.43,15.65.71,35.12,1.6,56.77,2.58,1.3-1.1,2.61-2.22,4.05-3.44.02-1.83.03-3.69.05-5.57,0-1.94.01-3.9.02-5.88,0-.99-.02-1.98-.03-2.98,0-.5-.02-1-.05-1.48,0-.11-.01-.26-.02-.35-.02-.07.01-.13-.06-.24-.1-.19-.23-.37-.38-.55-.62-.69-1.43-1.39-2.14-2.09-.73-.69-1.47-1.43-2.21-2.07-.61-.52-1.25-.81-2.04-.85-.78-.05-1.63-.05-2.45-.07-1.64-.04-3.28-.07-4.91-.11-3.26-.07-6.48-.14-9.66-.21-6.36-.14-12.57-.28-18.58-.41-6.01-.14-11.82-.27-17.4-.39-2.79-.06-5.52-.13-8.19-.19-.68-.02-1.35-.04-2.02-.05-.82-.08-1.51-.78-1.58-1.58-.07-1.26-.13-2.5-.2-3.73-1.21-1.02-2.41-2.02-3.58-3-3.79-.09-7.41-.18-10.84-.27-1.73-.04-3.42-.09-5.05-.13-.82-.01-1.62-.03-2.41-.04-.39,0-.79,0-1.17,0h-.58c-.18,0-.42,0-.44.03-.02.01-.1.13-.18.25l-.22.34-.43.69c-.27.47-.54.93-.81,1.38-.26.46-.51.91-.72,1.37-.11.24-.2.43-.19.65,0,.25,0,.5-.01.74.02,2,.04,3.87.05,5.63.05,3.51.1,6.52.13,8.97.03,2.45.05,4.34.07,5.63,0,.64,0,1.13,0,1.46,0,.33-.01.49-.02.5Z"/>
  <path class="cls-1" d="M93.67,144.96s.43.22,1.13.73c.7.51,1.69,1.27,2.89,2.25.6.49,1.25,1.03,1.93,1.64.34.3.69.62,1.04.99.09.1.16.17.3.39v.46c0,.25,0,.5.01.76,0,2.04.02,4.29.03,6.64,0,2.36-.02,4.6-.03,6.64-.01,1.02-.02,1.99-.03,2.9-.01.1.02.22-.03.3l-.22.19-.25.21c-.17.14-.33.28-.49.42-.32.27-.63.53-.92.78-.59.49-1.13.94-1.6,1.33-.24.19-.46.37-.66.54-.1.08-.2.17-.3.24-.12.16-.32.07-.4.09-.86,0-1.34-.03-1.35-.07,0-.05.47-.11,1.33-.19.12-.02.19,0,.23-.06.09-.08.17-.17.27-.25.19-.18.4-.37.63-.58.45-.42.97-.89,1.54-1.41.29-.26.59-.53.9-.82.16-.14.32-.29.48-.43l.25-.22s.03-.03.04-.06c0-.91-.02-1.88-.03-2.9,0-2.04-.02-4.29-.03-6.64,0-2.36.02-4.6.03-6.64,0-.26,0-.51,0-.76,0-.36.06-.22-.14-.46-.31-.34-.65-.67-.97-.97-.66-.62-1.29-1.18-1.87-1.69-1.16-1.02-2.1-1.84-2.75-2.41-.65-.57-1-.9-.97-.94Z"/>
  <path class="cls-1" d="M81.62,140.26c0,.22-11.51.13-25.69-.2-14.19-.33-25.68-.76-25.68-.98,0-.22,11.51-.13,25.69.2,14.19.33,25.68.76,25.68.98Z"/>
  <polyline class="cls-4" points="8.93 104.9 9.17 127.78 13.13 131.57 52.03 132.96"/>
  <line class="cls-7" x1="57.44" y1="98.2" x2="57.56" y2="110.36"/>
  <line class="cls-7" x1="57.42" y1="112.17" x2="57.42" y2="114.98"/>
  <line class="cls-7" x1="57.5" y1="117.39" x2="57.5" y2="122.91"/>
  <path class="cls-1" d="M88.8.77s.53.02,1.49.32c.94.3,2.37.88,3.68,2.3.65.7,1.23,1.63,1.58,2.75.16.56.27,1.17.28,1.81,0,.62,0,1.27,0,1.94,0,2.68-.02,5.73-.02,9.09-.09,13.48-.2,32.1-.33,52.67-.21,20.57-.39,39.19-.53,52.67-.1,6.74-.18,12.19-.24,15.96-.04,1.88-.08,3.35-.1,4.34-.02.5-.03.87-.04,1.13-.01.25-.03.38-.04.38-.01,0-.02-.13-.03-.38,0-.25-.01-.63-.02-1.13,0-.99-.02-2.46-.03-4.34,0-3.77.01-9.22.02-15.96.09-13.48.2-32.1.33-52.66.21-20.57.39-39.19.53-52.66.05-3.37.09-6.42.12-9.09.01-.67.02-1.32.03-1.94,0-.61-.09-1.18-.24-1.72-.32-1.07-.85-1.98-1.47-2.67-1.24-1.4-2.62-2.01-3.53-2.35-.93-.34-1.45-.4-1.44-.44Z"/>
  <polyline class="cls-4" points="74.58 6.33 84.9 6.41 88.18 10.25 88.18 21.53"/>
  <polyline class="cls-4" points="8.86 39.19 8.44 13.68 12.51 9.54 32.46 9.54"/>
  <path class="cls-1" d="M93.05,161.28s-.31.05-.84.05c-.27,0-.59,0-.95,0-.41,0-.87-.02-1.37-.03-.01-.92-.02-1.98-.04-3.11,0-1.11,0-2.15,0-3.05.51,0,.99.02,1.41.03.38.01.7.02.98.03.54.03.85.05.85.09s-.31.06-.85.09c-.51.01-1.23.04-2.09.06,0,.82.02,1.76.03,2.75,0,1.03,0,2,0,2.84.84.06,1.55.11,2.04.15.53.05.83.09.83.12Z"/>
  <path class="cls-1" d="M93.4,164.11s.25.38-.07.96c-.15.27-.44.56-.87.66-.44.11-.95-.09-1.27-.46-.33-.37-.45-.9-.29-1.32.15-.42.47-.67.76-.79.6-.25.99,0,.96.02,0,.06-.38-.07-.86.2-.23.13-.47.36-.57.68-.1.31,0,.7.25,1,.26.29.63.44.96.38.33-.06.58-.27.73-.49.31-.45.21-.83.27-.83Z"/>
  <path class="cls-1" d="M73.5,147.18c0,.09-9.82-.07-21.93-.36s-21.93-.6-21.93-.69,9.82.07,21.93.36c12.11.29,21.93.6,21.93.69Z"/>
  <path class="cls-1" d="M91.33,147.86c0,.09-2.44.12-5.45.06-3.01-.06-5.44-.18-5.44-.28,0-.09,2.44-.12,5.45-.06,3.01.06,5.44.18,5.44.28Z"/>
  <path class="cls-1" d="M97.04,167.29s-.05-.29-.07-.81c-.01-.52-.03-1.27-.05-2.2-.03-1.85-.05-4.42-.05-7.25,0-1.7.01-3.31.02-4.71-1.09-1.18-2-2.17-2.64-2.87-.64-.71-1-1.14-.98-1.16.02-.02.43.36,1.11,1.04.68.7,1.66,1.69,2.81,2.87,0,1.44.01,3.09.02,4.83,0,2.83-.02,5.39-.05,7.25-.02.93-.04,1.68-.05,2.2-.02.52-.04.81-.07.81Z"/>
  <path class="cls-1" d="M2.04,158.85c-.09,0-.18-2.32-.19-5.18-.01-2.86.06-5.18.15-5.19.09,0,.18,2.32.19,5.18.01,2.86-.06,5.18-.15,5.19Z"/>
  <path class="cls-1" d="M85.29,121.26s-.02-.13-.03-.36c0-.24-.01-.59-.03-1.04,0-.91-.02-2.22-.03-3.84,0-3.24,0-7.72.01-12.67.04-4.47.07-8.56.1-11.7,1.49-1.26,2.7-2.28,3.54-3,.42-.35.75-.61.97-.8.23-.18.35-.27.36-.26,0,0-.1.12-.31.32-.21.2-.53.48-.93.85-.8.71-1.96,1.74-3.38,3,0,3.12-.01,7.16-.02,11.59-.04,4.95-.08,9.43-.11,12.67-.03,1.62-.06,2.93-.07,3.84-.02.45-.03.8-.04,1.04-.01.24-.02.36-.04.36Z"/>
  <ellipse class="cls-1" cx="4.51" cy="118.61" rx=".17" ry="14.01" transform="translate(-2.57 .13) rotate(-1.24)"/>
  <path class="cls-1" d="M90.89,143.37c-.09,0-.06-8.02.08-17.92.14-9.89.32-17.91.42-17.91s.06,8.02-.08,17.92c-.14,9.89-.32,17.91-.42,17.91Z"/>
  <circle class="cls-6" cx="75.68" cy="19.88" r="9.55"/>
  <path class="cls-4" d="M88.57,42.59l-.4,36.06-3.87,3.45h-4.72s-4.22,3.45-4.26,3.54c-.13.25-.06,11.09-.06,11.09"/>
  <path class="cls-1" d="M92.41,152.53c-.01-.06.43.07.45.64.02.27-.18.63-.53.76-.33.14-.8.09-1.1-.2-.31-.29-.43-.68-.41-1.04,0-.2.17-.39.3-.46.13-.08.27-.13.39-.16.51-.1.8.1.78.13-.01.05-.3-.04-.71.1-.19.08-.46.22-.44.42,0,.25.11.57.33.77.22.21.52.25.77.16.24-.08.38-.28.4-.48.05-.42-.24-.6-.21-.63Z"/>
  <circle class="cls-6" cx="30.81" cy="114.44" r="8.95"/>
  <circle class="cls-2" cx="30.81" cy="114.44" r="6.81"/>
  <circle class="cls-6" cx="52.34" cy="25.04" r="7.72"/>
  <circle class="cls-7" cx="52.34" cy="25.09" r="4.43"/>
  <circle class="cls-6" cx="67.01" cy="39.26" r="5.45"/>
  <circle class="cls-7" cx="67.01" cy="39.26" r="3.43"/>
  <circle class="cls-5" cx="48.06" cy="72.94" r="19.82"/>
  <circle class="cls-6" cx="48.06" cy="72.94" r="15.6"/>
  <circle class="cls-8" cx="48.06" cy="72.94" r="11.97"/>
  <line class="cls-7" x1="57.5" y1="124.11" x2="57.5" y2="129.62"/>
  <line class="cls-7" x1="57.5" y1="130.48" x2="57.5" y2="133.29"/>
  <line class="cls-7" x1="60.48" y1="113.58" x2="60.48" y2="122.91"/>
  <line class="cls-7" x1="60.48" y1="102.31" x2="60.48" y2="111.64"/>
  <line class="cls-7" x1="60.48" y1="124.48" x2="60.48" y2="129.01"/>
  <line class="cls-7" x1="60.48" y1="130.68" x2="60.48" y2="133.29"/>
  <line class="cls-7" x1="63.38" y1="102.96" x2="63.38" y2="112.29"/>
  <line class="cls-7" x1="63.38" y1="113.58" x2="63.38" y2="122.91"/>
  <line class="cls-7" x1="66.36" y1="113.58" x2="66.36" y2="122.91"/>
  <line class="cls-7" x1="63.38" y1="124.48" x2="63.38" y2="129.01"/>
  <line class="cls-7" x1="66.36" y1="124.48" x2="66.36" y2="129.01"/>
  <line class="cls-7" x1="63.38" y1="130.79" x2="63.38" y2="133.4"/>
  <line class="cls-7" x1="66.55" y1="130.94" x2="66.55" y2="133.55"/>
  <line class="cls-7" x1="66.36" y1="99.49" x2="66.36" y2="112.59"/>
  <line class="cls-7" x1="69.73" y1="104.57" x2="69.73" y2="112.59"/>
  <line class="cls-7" x1="69.73" y1="114.23" x2="69.73" y2="122.91"/>
  <line class="cls-7" x1="69.73" y1="124.6" x2="69.73" y2="129.13"/>
  <line class="cls-7" x1="69.73" y1="131.18" x2="69.73" y2="133.8"/>
  <line class="cls-7" x1="72.63" y1="131.18" x2="72.63" y2="133.8"/>
  <line class="cls-7" x1="75.88" y1="131.18" x2="75.88" y2="133.8"/>
  <line class="cls-7" x1="78.78" y1="131.18" x2="78.78" y2="133.8"/>
  <line class="cls-7" x1="72.63" y1="124.6" x2="72.63" y2="129.13"/>
  <line class="cls-7" x1="75.88" y1="124.6" x2="75.88" y2="129.13"/>
  <line class="cls-7" x1="78.78" y1="124.91" x2="78.78" y2="129.44"/>
  <line class="cls-7" x1="72.63" y1="114.23" x2="72.63" y2="122.91"/>
  <line class="cls-7" x1="76.09" y1="114.23" x2="76.09" y2="122.91"/>
  <line class="cls-7" x1="78.98" y1="114.23" x2="78.98" y2="122.91"/>
  <line class="cls-7" x1="72.63" y1="108.09" x2="72.63" y2="112.63"/>
  <line class="cls-7" x1="76.09" y1="106.42" x2="76.09" y2="112.63"/>
  <line class="cls-7" x1="78.99" y1="108.09" x2="78.99" y2="112.63"/>
  <rect class="cls-3" x="11.59" y="15.57" width="7.15" height="2.31" transform="translate(-.21 .19) rotate(-.71)"/>
  <rect class="cls-3" x="11.63" y="19.13" width="11.55" height="2.31" transform="translate(-.25 .22) rotate(-.71)"/>
  <rect class="cls-3" x="11.68" y="22.74" width="8.92" height="2.31" transform="translate(-.3 .2) rotate(-.71)"/>
  <rect class="cls-3" x="11.73" y="26.51" width="11.55" height="2.31" transform="translate(-.34 .22) rotate(-.71)"/>
  <rect class="cls-3" x="11.77" y="30.3" width="12.27" height="2.31" transform="translate(-.39 .23) rotate(-.71)"/>
  <rect class="cls-3" x="11.82" y="33.73" width="11.55" height="2.31" transform="translate(-.43 .22) rotate(-.71)"/>
  <rect class="cls-3" x="11.87" y="37.74" width="14.24" height="2.31" transform="translate(-.48 .24) rotate(-.71)"/>
  <rect class="cls-3" x="11.91" y="41.45" width="4.46" height="2.31" transform="translate(-.53 .18) rotate(-.71)"/>
  <path class="cls-1" d="M62,8.07s-.36.04-1.02.06c-.66.01-1.61.03-2.78.05-2.35,0-5.59.02-9.16.03-3.78-.03-7.19-.05-9.56-.07-.86-.66-1.55-1.19-2.03-1.55-.47-.37-.72-.57-.7-.59.01-.02.29.16.78.49.48.34,1.17.82,2.03,1.42,2.29-.03,5.74-.04,9.49-.04,3.58.03,6.82.05,9.16.07,1.17.02,2.12.04,2.78.06.66.02,1.02.04,1.02.07Z"/>
  <circle class="cls-9" cx="75.68" cy="19.88" r="4.58"/>
</svg>