<?xml version="1.0" encoding="UTF-8"?>
<svg id="Capa_1" data-name="Capa 1" xmlns="http://www.w3.org/2000/svg" version="1.1" viewBox="0 0 226.77 226.77">
  <defs>
    <style>
      .cls-1 {
        fill: #1d1d1b;
        stroke-width: 0px;
      }
    </style>
  </defs>
  <g>
    <path class="cls-1" d="M55.56,39.46c-.12-.03.16-.71-.13-1.87-.14-.57-.44-1.25-.99-1.84-.55-.6-1.38-1.07-2.37-1.08-.98-.03-2.11.38-2.87,1.22-.2.2-.34.45-.48.7-.14.26-.25.61-.51.99-.13.18-.31.38-.52.52-.2.14-.39.22-.54.3-.3.15-.44.27-.67.53-.21.24-.43.56-.74.89-.32.33-.72.6-1.15.78-.85.36-1.72.41-2.52.47-.4.03-.79.06-1.16.12-.37.04-.78.19-.66.16,0,0,0-.01,0,.02.03.07.1.19.2.28.24.23.52.42.84.54.64.26,1.47.25,2.39.46.23.06.46.12.68.22.21.07.53.27.71.44.39.36.62.72.85.99.47.54.74.59,1.49.4.2-.05.47-.11.78-.08.31.03.6.16.81.31.43.3.66.63.89.85.24.23.38.33.6.37.23.04.57,0,.96,0,.75-.02,1.47.06,2.13.17,1.33.22,2.51.52,3.58.64,1.07.13,2.02.06,2.78-.24.77-.27,1.39-.76,2-1.02.29-.12.55-.23.78-.32.24-.09.49-.13.68-.08.37.11.46.29.45.32-.02.05-.2-.05-.48-.05-.27-.02-.64.29-1.2.6-.52.29-1.07.84-1.95,1.24-.87.42-1.99.57-3.15.49-1.16-.07-2.38-.33-3.65-.49-.63-.08-1.28-.13-1.93-.1-.31,0-.68.08-1.17.03-.51-.05-1-.39-1.28-.68-.3-.29-.53-.57-.73-.69-.21-.12-.24-.13-.61-.04-.34.1-.92.22-1.46.09-.57-.13-1.01-.53-1.3-.86-.3-.34-.52-.67-.74-.86-.13-.1-.16-.14-.34-.2-.15-.07-.32-.11-.5-.16-.69-.18-1.59-.15-2.56-.51-.48-.18-.92-.48-1.28-.83-.2-.2-.38-.43-.5-.75-.14-.36-.13-.84.11-1.17.11-.17.27-.31.45-.42.16-.09.3-.14.43-.18.27-.07.47-.1.69-.14.44-.06.86-.09,1.26-.12.8-.05,1.54-.11,2.13-.35.29-.12.54-.28.75-.49.22-.22.44-.51.71-.82.25-.3.7-.64,1.06-.79.36-.17.5-.23.64-.43.15-.2.28-.5.45-.84.2-.34.41-.66.68-.93,1.06-1.08,2.48-1.5,3.71-1.4,1.26.08,2.3.77,2.88,1.53.61.76.86,1.57.94,2.23.15,1.34-.34,2-.37,1.96Z"/>
    <path class="cls-1" d="M65.13,43.11c0-.1.71-.15,1.97-.26.63-.06,1.39-.13,2.25-.33.85-.19,1.8-.5,2.67-1.1.84-.58,1.58-1.55,1.89-2.69.16-.57.18-1.18,0-1.74-.15-.59-.52-.98-1.08-1.62-.25-.32-.55-.75-.63-1.31-.08-.56.13-1.13.39-1.51.52-.79,1.18-1.27,1.44-1.84.63-1.18.34-2.88-.61-4.04-.94-1.16-2.52-1.71-4.01-1.75-.75-.02-1.5.06-2.22.23-.36.08-.65.19-.78.32-.12.08-.19.35-.37.81-.2.48-.64.88-1.05,1.06-.41.2-.8.29-1.15.38-.72.16-1.24.32-1.61.68-.76.76-.93,2.07-1.28,3.17-.17.56-.38,1.11-.71,1.59-.33.47-.71.82-1.08,1.12-.75.58-1.44.95-1.99,1.27-1.11.61-1.67,1.01-1.74.94-.06-.06.42-.62,1.46-1.37.51-.38,1.15-.82,1.79-1.4.31-.29.62-.63.86-1.02.23-.38.39-.86.52-1.39.14-.53.24-1.12.42-1.75.17-.62.42-1.33.99-1.93.28-.29.65-.54,1.02-.69.37-.16.74-.25,1.07-.34.7-.18,1.24-.39,1.38-.81.11-.22.16-.76.62-1.22.44-.41.92-.54,1.32-.64.81-.21,1.67-.32,2.56-.3,1.74.04,3.7.63,4.98,2.2,1.22,1.52,1.64,3.69.72,5.46-.48.9-1.2,1.39-1.53,1.93-.34.53-.29.84.13,1.4.2.27.47.54.71.9.23.37.43.75.53,1.16.22.82.14,1.63-.07,2.34-.44,1.43-1.37,2.51-2.43,3.17-1.05.64-2.12.91-3.04,1.04-.92.13-1.72.13-2.36.12-1.29-.05-1.98-.17-1.98-.25Z"/>
    <path class="cls-1" d="M81.44,42.61c.02-.05.28.06.76.17.46.11,1.21.22,1.88-.24.67-.44,1.08-1.46,1.14-2.57.02-.56.02-1.21-.08-1.77-.12-.54-.5-1.04-1-1.4-1.03-.74-2.35-.71-3.47-.53-.57.09-1.11.24-1.65.32-.53.09-1.02.15-1.47.19-1.8.18-2.93.09-2.92-.01,0-.08,1.1-.15,2.87-.45.44-.07.92-.16,1.43-.26.5-.1,1.04-.28,1.65-.38,1.16-.22,2.7-.31,3.96.59.61.43,1.1,1.06,1.25,1.79.12.72.09,1.32.06,1.95-.1,1.23-.6,2.4-1.49,2.92-.9.52-1.75.27-2.21.09-.48-.19-.7-.39-.68-.42Z"/>
    <path class="cls-1" d="M78.68,45.87s.34.18.45.81c.11.6-.12,1.58-.91,2.35-.77.79-2.01,1.35-3.43,1.49-1.43.14-2.93-.08-4.51-.32-.82-.12-1.61-.54-2.21-.95-.31-.2-.61-.38-.91-.5-.28-.13-.64-.17-.96-.24-.33-.07-.65-.14-.96-.21-.44-.09-.72-.37-.93-.62-.42-.52-.63-1.08-.8-1.59-.62-2.09-.02-3.42.03-3.37.11,0-.29,1.31.4,3.22.18.46.41.97.77,1.38.17.21.4.38.61.41.32.06.66.12,1,.18.34.07.69.1,1.07.25.36.14.7.34,1.01.54.64.41,1.23.73,1.99.85,1.53.23,3.03.47,4.33.36,1.31-.09,2.44-.56,3.16-1.22.74-.65,1-1.46.98-1.99-.01-.55-.25-.8-.2-.84Z"/>
    <path class="cls-1" d="M98.14,40.64c.03-.08.43-.04,1.17.09.37.08.84.17,1.36.48.26.15.52.41.71.66.2.26.41.58.51.99.23.87-.22,1.8-.85,2.4-.64.62-1.46,1.06-2.36,1.34-1.82.56-3.81.47-5.79.49-2.01,0-3.92,0-5.66-.03-.87-.02-1.7-.03-2.47-.05-.79-.02-1.48-.07-2.02.06-1.09.29-2.03,1.04-2.84,1.16-.83.16-1.24-.17-1.2-.23.03-.1.44.01,1.05-.26.31-.13.66-.36,1.09-.66.43-.29.93-.67,1.65-.91.73-.23,1.5-.21,2.26-.25.77-.02,1.6-.05,2.47-.07,1.74-.04,3.65-.07,5.66-.07,2.02-.02,3.91.08,5.46-.34.77-.2,1.46-.55,1.96-.97.5-.43.77-.97.69-1.42-.08-.46-.42-.98-.73-1.24-.35-.28-.76-.45-1.09-.59-.68-.27-1.06-.49-1.02-.57Z"/>
    <path class="cls-1" d="M97.55,43.8c-.06-.08.11-.27.24-.63.14-.36.22-.92.08-1.61-.06-.34-.18-.71-.36-1.05-.09-.16-.2-.32-.31-.41-.13-.11-.32-.24-.51-.34-.38-.21-.83-.35-1.32-.41-.24-.03-.49-.04-.75-.04-.24,0-.54.05-.91.05-.35,0-.86-.07-1.26-.43-.2-.18-.3-.36-.37-.47-.07-.12-.11-.16-.18-.24-.23-.26-.62-.4-1.06-.44-.88-.1-1.73.18-2.54.32-.8.15-1.53.14-1.99-.02-.47-.16-.65-.37-.61-.44.04-.09.29-.04.69-.06.41-.01.97-.12,1.68-.37.7-.22,1.63-.67,2.85-.63.59.02,1.33.19,1.89.75.29.29.46.65.5.65.04.04.15.09.4.09.45-.02,1.23-.1,1.83.03.63.1,1.23.32,1.74.64.26.17.48.33.7.56.25.25.37.51.49.77.21.5.29.98.3,1.42.04.87-.23,1.6-.57,1.98-.34.38-.64.43-.67.36Z"/>
  </g>
  <g>
    <path class="cls-1" d="M140.35,54.23c-.06-.02.01-.28.03-.76.01-.47-.05-1.22-.56-1.95-.25-.36-.61-.71-1.08-.93-.46-.21-1.04-.32-1.54-.07l-.2.09c-.1.05-.21.1-.31.13-.21.06-.42.09-.61.1-.38.03-.76.03-.93.14-.14.06-.25.35-.37.76-.1.39-.35.98-.85,1.27-.48.31-1.01.38-1.47.41-.47.04-.92.04-1.34.1-.42.06-.75.17-1.03.42-.29.25-.55.64-.87,1.05-.32.43-.75.86-1.24,1.18-.5.32-1.07.54-1.64.67-1.16.25-2.33.17-3.45.11-1.14-.07-2.2-.11-3.09.35-.44.21-.77.55-.88.89-.1.33.02.74.32,1.14.63.8,1.67,1.54,2.71,1.82.55.15,1.02.16,1.64.06.63-.09,1.29-.2,1.99-.23.71-.03,1.44.04,2.13.24.72.21,1.22.47,1.65.43.95,0,2.01-.96,3.54-1.1,1.51-.09,2.7.61,3.75,1.1,1.04.54,2.03.89,3.11,1.09,1.07.21,2.15.31,3.21.42,1.05.1,2.06.17,2.97.03.93-.14,1.67-.48,2.31-1.1.34-.3.69-.65,1.12-.92.44-.28.9-.43,1.32-.56.85-.25,1.53-.45,2.05-.92.53-.44.92-1.02,1.2-1.6.57-1.16.85-2.31,1.05-3.22.38-1.84.05-2.88.16-2.9.06-.04.59,1.01.34,2.98-.13.97-.34,2.14-.89,3.45-.28.65-.69,1.33-1.32,1.91-.62.6-1.53.92-2.31,1.17-.39.14-.76.28-1.08.5-.32.21-.62.52-.96.85-.34.33-.78.69-1.27.93-.49.25-1.02.4-1.55.5-1.08.19-2.17.13-3.24.05-1.07-.08-2.19-.17-3.34-.38-1.14-.19-2.37-.61-3.43-1.15-1.06-.51-2.12-1.03-3.11-.95-.48.03-.98.24-1.55.5-.56.25-1.21.58-2.03.62-.86.04-1.54-.34-2.05-.47-.56-.15-1.13-.21-1.72-.19-.6.02-1.22.13-1.87.21-.64.12-1.49.11-2.16-.09-.7-.19-1.33-.51-1.9-.9-.56-.4-1.06-.83-1.51-1.42-.43-.56-.77-1.43-.5-2.27.28-.82.92-1.33,1.53-1.63.63-.31,1.28-.45,1.93-.49.65-.03,1.22.02,1.79.05,1.13.08,2.19.16,3.14-.03.95-.18,1.71-.66,2.27-1.39.3-.37.6-.81,1.05-1.19.46-.39,1.08-.57,1.58-.62,1-.11,1.93.03,2.44-.29.26-.15.39-.37.51-.76.06-.19.13-.4.24-.62.09-.2.32-.49.58-.61.53-.23.93-.16,1.27-.18.17,0,.32-.02.45-.05.06-.02.12-.04.17-.06l.27-.11c.77-.31,1.55-.11,2.1.2.57.32.96.77,1.22,1.21.52.9.49,1.75.39,2.25-.1.51-.26.75-.29.73Z"/>
    <path class="cls-1" d="M166.98,54.58c-.02-.09.85-.33,2.43-.69.2-.04.41-.09.62-.14.15-.02.19-.1.32-.3.23-.36.33-.83.32-1.35-.01-1.06-.49-2.24-1.1-3.54-.6-1.3-1.32-2.69-2.19-4.12-.44-.72-.91-1.44-1.42-2.17-.26-.36-.53-.73-.8-1.1-.27-.36-.6-.76-.84-1.3-.47-1.17-.14-2.26-.42-2.92-.18-.65-1.08-.99-2.06-1.66-.24-.18-.49-.4-.69-.66-.2-.26-.34-.52-.47-.74-.26-.46-.45-.69-.8-.86-.34-.16-.79-.21-1.26-.17-.46.04-.93.17-1.44.35-.51.17-1.04.37-1.63.51-.58.15-1.26.17-1.78.14-.54-.02-.95,0-1.31.15-.36.15-.67.42-.93.77-.52.71-.83,1.66-1.12,2.6-.28.96-.63,1.94-1.04,2.83-.41.9-.88,1.74-1.39,2.52-.26.38-.52.78-.88,1.15-.35.37-.86.69-1.41.78-1.12.14-1.92-.32-2.63-.55-.72-.26-1.33-.35-1.76-.05-.45.28-.73.91-1.06,1.49-.3.59-.81,1.19-1.38,1.48-.55.3-1.06.46-1.48.67-.22.11-.39.19-.51.32-.13.13-.25.29-.34.45-.37.65-.48,1.27-.47,1.66,0,.4.16.57.12.61-.01.03-.28-.1-.38-.57-.1-.45-.07-1.14.28-1.93.09-.2.21-.4.38-.6.18-.22.43-.36.64-.49.45-.26.95-.46,1.39-.74.45-.27.74-.66,1.02-1.24.29-.54.52-1.29,1.27-1.86.37-.27.87-.41,1.33-.39.46,0,.88.12,1.27.24.77.24,1.53.55,2.13.44.58-.09,1.05-.72,1.51-1.48.47-.74.89-1.54,1.26-2.39.38-.85.67-1.73.94-2.7.29-.96.58-2.01,1.28-3,.35-.48.85-.94,1.47-1.2.63-.27,1.31-.27,1.84-.25.55.02.96,0,1.44-.11.48-.11.97-.3,1.51-.48,1.05-.37,2.39-.69,3.67-.11.65.27,1.14.93,1.37,1.4.27.5.44.75.8,1.02.35.27.81.5,1.28.82.47.3.98.81,1.19,1.45.21.62.18,1.19.19,1.67,0,.48.02.89.16,1.2.13.34.4.68.68,1.07.28.38.54.77.8,1.15.51.76.98,1.52,1.41,2.27.86,1.5,1.55,2.95,2.11,4.3.55,1.33,1.04,2.66.98,3.92-.03.62-.2,1.23-.53,1.69-.14.19-.4.56-.74.52-.22.03-.43.06-.64.08-1.61.21-2.5.28-2.52.19Z"/>
    <path class="cls-1" d="M175.05,58.17s-.05.32-.24.87c-.18.56-.48,1.37-.65,2.44-.18,1.04-.19,2.46.74,3.59.9,1.11,2.72,1.67,4.53,1.31.9-.18,1.83-.59,2.72-1.13.45-.27.89-.58,1.34-.91.22-.17.44-.34.67-.51.33-.26.67-.53,1.01-.8l.16-.13s.09.09.13.13l.26.31c.17.21.38.45.44.5.19.2.4.38.62.55.44.35.93.64,1.46.88,1.05.47,2.26.69,3.45.56.6-.06,1.19-.21,1.58-.51.39-.29.66-.81.88-1.42.24-.61.41-1.32.86-2.04.24-.36.5-.69,1.2-1.03.15-.05.32-.19.46-.17l.35.33.33.3.18.14c.96.74,2.35.92,3.74.81.7-.05,1.41-.17,2.12-.32.68-.16,1.58-.32,1.82-.56.11-.1.19-.28.22-.61.03-.31.03-.71.03-1.05-.01-.71-.08-1.41-.27-2.04-.18-.63-.49-1.16-.93-1.46-.44-.31-1-.38-1.71-.37-.69-.01-1.52.07-2.38-.35-.43-.21-.76-.57-.98-.83-.24-.28-.4-.44-.61-.57-.89-.53-2.3-.26-3.61-.17-1.31.11-2.6.22-3.84.33-.31.02-.61.06-.97.07-.35,0-.79-.04-1.18-.29-.38-.24-.59-.54-.77-.77-.18-.22-.34-.43-.54-.61-1.54-1.51-3.76-2.04-5.57-1.71-.93.12-1.67.58-2.59.94-.23.08-.47.15-.71.19-.25.05-.5.04-.68.05-.42.03-.83.06-1.22.08-.4.03-.78.05-1.16.05-.36,0-.77.04-1.17-.15-.69-.28-1.2-.72-1.6-1.11-.8-.81-1.35-1.44-1.83-1.76-.47-.33-.76-.44-.74-.49,0-.03.33,0,.88.27.56.26,1.22.88,2.04,1.61.42.35.89.71,1.48.91.23.11.56.06.92.05.36-.02.73-.06,1.13-.1.39-.04.8-.09,1.23-.14.24-.02.42-.03.6-.07.18-.04.37-.1.56-.18.74-.31,1.65-.89,2.71-1.07,2.08-.43,4.61.08,6.49,1.84.47.42.87,1.06,1.14,1.2.25.17.83.1,1.47.03,1.24-.12,2.52-.25,3.84-.38.66-.06,1.3-.14,2.03-.17.71-.02,1.54.02,2.32.46.39.22.71.56.93.81.23.27.4.43.61.53.42.22,1.07.21,1.81.2.71-.01,1.67.04,2.45.59.78.53,1.21,1.37,1.44,2.15.23.8.31,1.6.33,2.39,0,.4,0,.77-.03,1.21-.04.42-.18,1.02-.64,1.44-.45.4-.93.51-1.31.61-.38.09-.75.18-1.13.26-.76.16-1.52.28-2.3.34-1.53.11-3.26-.06-4.61-1.09l-.24-.19c-.07-.05-.04-.03-.06-.05-.02-.03-.04-.04-.04-.03.06-.06-.19.15-.33.38-.31.47-.5,1.13-.76,1.8-.26.66-.6,1.43-1.32,1.96-.71.51-1.48.65-2.18.72-1.43.14-2.84-.14-4.06-.71-.61-.28-1.17-.64-1.68-1.05-.26-.2-.49-.43-.71-.66-.15-.16-.13-.15-.15-.17-.02-.01-.03-.07-.05-.03-.36.27-.72.53-1.07.78-.47.33-.95.65-1.44.93-.98.57-2.01.99-3.07,1.17-2.11.34-4.2-.35-5.27-1.77-.53-.7-.77-1.5-.83-2.22-.06-.72.04-1.37.17-1.93.27-1.12.65-1.91.91-2.44.27-.53.44-.79.48-.77Z"/>
    <path class="cls-1" d="M153.8,58.8c.1-.03.24.32.61.78.37.45,1.1.95,2.13.93.5-.02,1.06-.15,1.59-.42.27-.13.6-.37,1.1-.47.5-.1,1.03,0,1.45.2.43.2.78.46,1.11.73.3.28.68.51,1,1.11.15.3.18.72.1,1.03-.08.31-.2.54-.29.73l-.12.26c-.02.06-.01.03-.01.04h0s.53.2.53.2c.25.09.49.17.74.26.25.09.5.17.74.26l.38.15c.1.03.35.15.53.32.47.54.8.74,1.3.78.5.03,1.11-.1,1.68-.2,1.04-.15,1.92-.68,2.74-1.02.8-.36,1.54-.55,2.05-.54.52.01.77.16.75.22-.01.09-.27.09-.7.21-.43.12-1.01.39-1.74.83-.72.41-1.61,1.08-2.88,1.37-.57.13-1.17.33-1.96.33-.39,0-.84-.11-1.22-.32-.36-.19-.72-.52-.92-.74.08.03-.25-.1-.45-.17-.24-.08-.48-.16-.73-.24-.25-.09-.5-.17-.76-.26l-.39-.14-.21-.09-.35-.17c-.08-.06-.18-.11-.26-.18l-.13-.26c-.15-.14-.12-.37-.1-.57.02-.2.11-.44.17-.58l.16-.33c.1-.19.17-.35.2-.45.02-.1.02-.13,0-.2-.05-.16-.35-.44-.64-.69-.28-.25-.56-.46-.82-.6-.56-.28-.85-.18-1.57.17-.7.3-1.43.41-2.08.36-1.34-.1-2.23-.94-2.52-1.58-.31-.65-.26-1.04-.19-1.06Z"/>
    <path class="cls-1" d="M155.08,44.21c.1.01.13.23.31.49.16.25.56.6,1,.58.19,0,.44-.12.74-.32.3-.21.67-.46.98-.71.65-.5,1.11-1.18.97-1.85-.07-.31-.2-.44-.62-.67-.4-.19-.98-.57-1.29-.95-.65-.74-1.04-1.41-1.47-1.67-.47-.3-.95-.35-1.23-.28-.3.06-.45.23-.53.18-.07-.02-.09-.33.3-.63.39-.3,1.12-.41,1.88-.1.82.34,1.34,1.11,1.92,1.65.31.29.53.43,1.02.65.23.12.52.27.78.54.26.27.45.63.52.99.14.72-.04,1.38-.37,1.92-.33.52-.76.88-1.16,1.16-.41.28-.78.48-1.15.68-.39.2-.87.39-1.36.31-.95-.18-1.32-.89-1.4-1.32-.08-.46.1-.69.17-.67Z"/>
  </g>
  <g>
    <g>
      <g>
        <path class="cls-1" d="M58.79,94.1s.25-.04.71.05c.46.08,1.14.29,1.96.67.81.4,1.82.85,2.9,1.65.52.41,1.08.91,1.45,1.65.18.37.29.8.27,1.26-.02.46-.22.91-.14,1.07.04.16.26.26.52.24.23,0,.51-.18.79-.4.57-.5,1.4-.96,2.27-1.11,1.78-.31,3.65.29,5.27,1.34.8.54,1.61,1.14,2.22,2.09.59.93.79,2.36-.12,3.4-.46.51-1.12.71-1.67.81-.56.1-1.08.14-1.52.27-.45.12-.75.35-1.1.73-.35.37-.68.85-1.21,1.27-.27.21-.6.39-.96.47-.35.08-.68.09-.97.09-.6,0-.98.03-1.45.26-.45.21-.91.56-1.42.9-.5.35-1.16.69-1.86.8-.36.06-.74.06-1.14-.04-.4-.09-.79-.34-1.06-.66-.54-.67-.62-1.31-.91-1.68-.55-.84-1.67-1.26-2.85-1.44-1.18-.18-2.48-.16-3.8-.21-1.31-.04-2.64-.08-3.98-.12-1.35-.05-2.81-.13-4.22-.76-.69-.32-1.35-.76-1.88-1.36l-.14-.17s0,0,0,0c-.01.01.02-.02-.03.03-.19.19-.42.34-.68.45-.26.11-.55.16-.86.14-.32-.03-.58-.14-.77-.23-.38-.2-.71-.38-.79-.36-.04.01-.05-.04-.2.27-.11.26-.23.77-.6,1.2-.34.42-.82.67-1.28.81-.94.26-1.93.12-2.76-.39-1.37-.88-2.01-2.25-2.63-3.4-.31-.59-.62-1.17-.93-1.75l-.46-.87c-.14-.28-.35-.59-.45-1.09-.09-.49.03-.97.21-1.34.18-.38.42-.68.67-.95.5-.52,1.03-.94,1.56-1.33,1.06-.78,2.14-1.43,2.94-2.25.8-.82,1.39-1.85,1.37-2.85,0-.48-.2-1.01-.36-1.66-.08-.32-.15-.68-.14-1.07,0-.39.12-.82.33-1.16.42-.69,1.02-1.08,1.57-1.39.57-.32,1.17-.56,1.79-.72,1.23-.32,2.49-.36,3.69-.2,2.43.32,4.53,1.41,6.38,2.55.93.57,1.82,1.19,2.66,1.76.81.57,1.54.63,2.29.15,1.52-.89,1.91-3.11,3.72-4.31.43-.27.67-.43.77-.71.11-.28.09-.69.07-1.12-.01-.22-.03-.45-.02-.69,0-.27.07-.56.19-.8.11-.24.26-.46.46-.65.1-.09.21-.18.34-.25l.1-.05s.01,0,.02,0c.02,0,.03-.01.05,0,.05-.02.14.04.15.04l-.06-.17s-.15-.44-.24-.76c-.19-.67-.34-1.34-.39-2.01-.13-1.33.27-2.75,1.23-3.58.95-.84,2.14-1.03,3.13-.99,1,.04,1.89.31,2.62.62,1.47.63,2.5,1.26,3.26,1.58.74.34,1.15.48,1.14.52,0,.03-.45-.02-1.23-.3-.79-.26-1.89-.82-3.33-1.37-.72-.27-1.55-.47-2.47-.48-.9,0-1.92.22-2.66.91-.74.69-1.05,1.82-.91,3.01.06.6.21,1.22.4,1.84.1.32.18.55.42,1.18.1.27.21.54.32.82.05.16-.12-.14.19.83l-.59-.42-.43-.29-.16-.11s-.1-.08-.11-.05c-.01,0-.02.01-.04.02-.05.03-.1.07-.16.12-.1.1-.2.24-.26.38-.06.15-.1.28-.09.44,0,.19.02.39.03.61.03.43.1.94-.1,1.51-.1.28-.29.56-.51.74-.21.19-.43.32-.61.44-.67.44-1.15,1.18-1.64,2-.48.81-1.07,1.77-2.05,2.39-.48.32-1.09.54-1.75.51-.66-.03-1.23-.33-1.69-.62-.9-.59-1.75-1.17-2.67-1.72-1.81-1.09-3.79-2.07-5.94-2.33-1.07-.13-2.18-.09-3.23.2-.52.14-1.03.35-1.5.61-.47.27-.9.6-1.11.95-.2.34-.19.75-.05,1.3.13.54.39,1.17.41,1.94.03,1.51-.78,2.8-1.71,3.77-.97.99-2.09,1.66-3.1,2.4-.5.37-.98.76-1.38,1.18-.39.41-.62.88-.55,1.19.02.15.16.41.32.71l.46.87c.31.58.62,1.17.93,1.75.61,1.17,1.22,2.31,2.17,2.9.49.32,1.17.4,1.71.25.27-.08.5-.21.64-.4.15-.16.22-.42.39-.86.09-.21.21-.47.46-.71.26-.25.64-.38.99-.36.7.07,1.01.38,1.31.5.3.14.35.13.56.06.09-.04.18-.1.26-.17,0,0,.04-.04.07-.08.03-.03.04-.12.06-.17l.05-.19.02-.1-.03-.3-.44-4.79c.45,1.25.9,2.5,1.35,3.74.17.47.34.97.5,1.35.16.36.42.69.46.73.38.44.89.79,1.44,1.04,1.11.5,2.42.61,3.73.66,1.34.05,2.66.09,3.97.14,1.3.06,2.6.04,3.95.25.67.11,1.34.28,1.98.58.64.31,1.26.77,1.66,1.4.43.65.55,1.3.82,1.58.23.28.64.38,1.12.31.99-.12,1.78-.99,2.98-1.57.58-.31,1.38-.38,1.92-.35.58,0,.92-.04,1.28-.32.36-.27.68-.7,1.09-1.13.38-.43.99-.88,1.6-1.02,1.18-.28,2.24-.19,2.74-.76.5-.54.48-1.53.04-2.23-.43-.73-1.18-1.33-1.9-1.83-1.46-.99-3.15-1.54-4.64-1.31-.75.13-1.36.43-1.95.91-.32.23-.69.5-1.2.52-.24,0-.48-.03-.7-.15-.23-.11-.43-.34-.5-.59-.09-.32-.01-.59.04-.79.06-.21.08-.36.11-.53.03-.34-.04-.66-.18-.97-.27-.61-.75-1.09-1.23-1.49-.97-.79-1.97-1.3-2.73-1.74-1.56-.86-2.53-.96-2.51-1.03Z"/>
        <path class="cls-1" d="M51.26,96.34c-.09-.1-.04-.35-.3-.68-.11-.17-.33-.33-.59-.66-.13-.16-.27-.38-.33-.67-.06-.28-.03-.52-.03-.67.03-.51-.51-.87-.96-1.12-.44-.25-.75-.41-.72-.55.03-.13.38-.21.95-.1.29.06.64.16,1,.41.36.24.72.78.71,1.34-.01.53-.03.57.13.85.14.25.38.55.48.89.1.32.07.63-.05.81-.11.18-.24.2-.28.16Z"/>
        <path class="cls-1" d="M50.58,104.08c.03-.09.53.02,1.33.12.78.09,1.97.25,2.71-.59.06.06-.04-.3-.11-.6-.07-.33-.09-.55-.19-.78-.18-.45-.47-.81-.76-1.04-.59-.49-1.12-.51-1.11-.62-.02-.07.58-.23,1.38.24.39.23.79.63,1.05,1.18.13.27.2.62.26.87.04.14.08.29.12.44.02.09.05.18.04.33,0,.15-.08.3-.16.4-.33.32-.5.43-.85.62-.33.15-.65.2-.95.21-.59.02-1.1-.09-1.51-.2-.82-.23-1.27-.5-1.24-.57Z"/>
        <path class="cls-1" d="M60.77,91.93c0-.09.41-.19,1.16-.28.75-.08,1.85-.18,3.23-.07,1.37.12,3.07.46,4.66,1.57.39.28.77.6,1.12.98.35.38.62.77.9,1.06.52.55,1.26.69,2.24.59.96-.07,2.01-.31,3.14-.09,1.15.22,2.03.96,2.64,1.7.61.76,1.03,1.54,1.31,2.37.27.81.34,1.74-.02,2.5-.35.75-.98,1.19-1.51,1.4-.54.22-1.02.3-1.4.34-.77.07-1.19,0-1.2-.08-.01-.09.4-.21,1.1-.42.65-.22,1.79-.57,2.17-1.59.38-.98-.33-2.51-1.36-3.73-.53-.6-1.19-1.09-1.96-1.22-.78-.15-1.72.04-2.79.14-.54.04-1.12.06-1.71-.09-.59-.14-1.18-.49-1.56-.91-.39-.41-.64-.81-.91-1.12-.27-.31-.57-.59-.89-.84-1.3-.98-2.81-1.4-4.07-1.62-1.28-.22-2.36-.27-3.1-.34-.75-.07-1.16-.14-1.17-.23Z"/>
        <path class="cls-1" d="M78.89,86.18c-.19-.06,0-.93.21-2.26.09-.66.15-1.44-.02-2.22-.09-.41-.23-.69-.46-1.26-.25-.62-.17-1.33-.12-1.81.06-.52.04-.84-.11-1.17-.15-.33-.42-.61-.72-.83-.61-.45-1.34-.59-1.99-.63-1.3-.05-2.21.05-2.24-.15-.02-.15.74-.58,2.22-.78.72-.08,1.74-.03,2.68.55.46.29.91.69,1.21,1.28.32.57.34,1.33.26,1.86-.06.56-.1.93.02,1.26.14.36.39.97.44,1.48.15,1.04-.05,1.94-.26,2.63-.46,1.38-.95,2.11-1.11,2.05Z"/>
        <path class="cls-1" d="M96.55,90.43c-.1-.03.02-.42-.39-.82-.2-.2-.48-.37-.88-.41-.4-.05-.9.02-1.52.07-.61.03-1.46.07-2.22-.6-.74-.75-.66-1.72-.95-2.18-.21-.44-.89-.69-1.74-1.07-.41-.2-.93-.47-1.29-1.03-.36-.55-.36-1.3-.2-1.82.2-.67.49-1.16.62-1.61.14-.46.12-.74-.07-1.03-.19-.29-.53-.51-.84-.56-.18-.02-.27-.02-.48.05-.21.05-.56.21-1.03.09-.5-.16-.69-.5-.84-.66-.15-.19-.21-.25-.35-.33-.26-.15-.65-.19-1.03-.18-.82.04-1.53.08-2.12.11-1.19.04-1.89,0-1.9-.11s.65-.32,1.82-.55c.6-.12,1.27-.26,2.14-.38.44-.04.96-.08,1.55.17.28.12.58.38.73.57.16.2.29.29.29.26,0,0,.13-.01.38-.11.25-.1.66-.17.99-.12.69.08,1.32.46,1.74,1.05.21.3.35.66.39,1.06.03.39-.03.74-.13,1.06-.19.63-.48,1.14-.6,1.59-.18.68.05.97.79,1.35.35.18.76.34,1.17.58.41.23.85.61,1.08,1.1.22.48.27.9.35,1.23.07.34.16.57.3.72.28.32.88.44,1.42.44.57.01,1.16-.01,1.69.14.54.13.96.49,1.14.82.21.34.23.68.17.87-.06.2-.15.27-.18.25Z"/>
        <path class="cls-1" d="M109.37,76.45c-.09-.04.09-.45-.3-1-.19-.28-.48-.54-.93-.79-.43-.27-1.05-.52-1.57-1.19-.25-.34-.38-.72-.52-1.03-.14-.31-.29-.57-.52-.82-.45-.49-1.11-.88-1.87-1.08-1.53-.43-3.42,0-5.45.35-1.01.17-2,.34-2.95.5-.93.17-1.95.27-2.65.47-.35.11-.6.27-.76.49-.16.22-.26.57-.36.95-.1.38-.22.82-.45,1.2-.23.38-.5.67-.77.91-.54.48-1.04.81-1.4,1.14-.36.33-.6.68-.74.99-.29.62-.13,1.03-.23,1.06-.05.06-.44-.36-.26-1.22.09-.41.32-.88.69-1.32.37-.45.86-.84,1.29-1.3.21-.23.4-.47.54-.74.13-.26.2-.57.28-.96.08-.38.16-.86.46-1.34.31-.5.84-.82,1.32-.99,1-.32,1.85-.39,2.82-.6.95-.17,1.94-.35,2.95-.53,1.98-.33,4.06-.81,6.01-.22.94.29,1.79.82,2.36,1.54.29.35.5.78.63,1.15.13.37.22.67.35.88.27.44.78.77,1.21,1.11.45.33.81.77.96,1.16.17.39.15.76.07.97-.08.21-.19.28-.22.27Z"/>
        <path class="cls-1" d="M116.44,78.06c.01-.1.33-.09.78-.29.45-.19,1.06-.6,1.46-1.37.2-.38.36-.85.46-1.37.11-.53.18-1.1.12-1.63-.06-.54-.27-.99-.69-1.25-.41-.27-1.05-.37-1.73-.35-.69.01-1.45.12-2.25.04-.4-.04-.82-.14-1.18-.31-.35-.16-.62-.32-.85-.39-.18-.14-.69.14-1.09.48-.21.17-.41.35-.61.52-.1.09-.21.18-.31.26-.11.08-.19.17-.4.28-.41.2-.72.11-.97.07-.25-.06-.45-.13-.64-.2-.37-.14-.67-.27-.9-.35-.48-.19-.64,0-.73-.04-.03-.02-.04-.13.09-.26.14-.15.42-.21.72-.2.3,0,.65.08,1.03.15.34.07.87.14.96.03,0,0,.1-.1.19-.18.09-.09.17-.18.26-.28.18-.19.38-.4.6-.61.23-.21.48-.43.81-.62.17-.09.36-.18.6-.23.11-.03.25-.03.39-.03.14.01.29.04.37.07.39.12.7.29.97.39.26.1.52.16.82.18.61.05,1.3-.05,2.11-.07.8,0,1.69.08,2.46.6.8.52,1.15,1.47,1.17,2.2.05.76-.1,1.42-.27,2.01-.17.59-.41,1.14-.73,1.59-.62.93-1.53,1.33-2.12,1.38-.62.06-.92-.14-.9-.21Z"/>
        <path class="cls-1" d="M127.69,90.11c.02-.09.29-.19.6-.82.09-.15.18-.32.32-.52.07-.1.15-.2.27-.3.05-.05.15-.1.2-.13l.12-.08c.16-.12.27-.25.4-.48.12-.22.38-.61.76-.8.4-.2.63-.25.86-.4.2-.12.33-.31.52-.62l.14-.23.07-.12s.02-.04.03-.06c.04-.09.05-.19.05-.31-.01-.24-.12-.52-.32-.75-.38-.49-1.2-.94-1.89-1.65-.68-.68-1.31-1.55-1.6-2.63-.26-1.09-.19-1.97-.41-2.75-.18-.78-.53-1.48-1.01-1.95-.49-.48-1.11-.76-1.68-.76-.72.03-1.38.06-1.99.09-.3.02-.59.04-.83.08-.06,0-.11.02-.16.03-.03,0-.07.02-.14.05-.12.05-.23.1-.35.15-.44.21-.83.39-1.14.54-.65.29-1.04.38-1.08.3-.04-.08.27-.32.82-.74.27-.21.62-.47,1.05-.74.11-.07.22-.13.33-.2.05-.03.13-.07.23-.12.08-.03.16-.06.24-.08.31-.09.61-.14.92-.19.65-.1,1.27-.16,2.06-.26.9-.05,1.82.32,2.54.96.73.66,1.19,1.57,1.43,2.52.27.96.23,1.97.43,2.73.2.77.68,1.47,1.25,2.06.54.61,1.29,1,1.93,1.82.31.42.51.92.51,1.47,0,.27-.06.55-.19.81-.03.06-.07.12-.11.18l-.08.12-.16.23c-.2.29-.52.7-.92.9-.36.19-.78.28-.94.35-.2.08-.3.19-.48.44-.17.24-.44.51-.7.64-.1.05-.2.1-.3.14-.07.03-.14.1-.2.16-.13.13-.26.28-.38.41-.23.27-.47.48-.68.55-.21.07-.33.02-.33-.02Z"/>
        <path class="cls-1" d="M144.76,98.4s.02-.18.24-.36c.22-.18.65-.34,1.19-.32.56,0,1.16.26,1.8.45.62.21,1.33.23,2.05-.04.34-.13.72-.36.95-.62.25-.27.42-.67.35-.91-.03-.12-.07-.18-.22-.3-.15-.11-.41-.26-.64-.4-.47-.29-.95-.59-1.45-.89-.49-.31-1-.62-1.52-.94-.25-.15-.54-.35-.74-.45-.23-.11-.31-.09-.32-.08-.02,0-.15.15-.26.43-.11.26-.27.68-.55,1-.53.66-1.28,1.03-2.05,1.21-1.59.32-2.96-.18-4.15-.48-.61-.17-1.21-.33-1.79-.49-.57-.18-1.16-.24-1.85-.67-.33-.21-.66-.63-.72-1.09-.07-.47.08-.87.22-1.15.29-.56.59-.96.63-1.27.06-.28-.1-.62-.37-.87-.22-.21-.74-.45-1.08-.69-.37-.23-.71-.44-1.03-.57-.17-.07-.28-.11-.44-.13-.18-.02-.34-.03-.51-.04-.65-.03-1.23.08-1.74.13-1.02.08-1.57-.11-1.56-.18,0-.11.56-.09,1.48-.32.46-.11,1.06-.31,1.8-.35.18-.01.38-.02.57-.01.21,0,.48.06.68.13.42.14.81.34,1.2.55.19.1.39.21.59.31.16.07.48.23.69.42.45.37.86.99.78,1.76-.1.73-.49,1.21-.67,1.63-.18.45-.14.54.13.75.3.2.92.31,1.51.47.59.15,1.19.31,1.8.46,1.22.32,2.45.68,3.54.44.54-.12,1.03-.39,1.32-.75.15-.18.23-.37.37-.7.14-.29.31-.76.87-1.06.26-.14.59-.17.84-.13.26.04.46.13.63.22.35.19.56.35.83.52.51.33,1.01.66,1.49.98.48.32.96.63,1.42.94.23.16.44.28.72.49.27.2.55.6.6,1,.09.81-.3,1.37-.7,1.78-.44.42-.9.64-1.38.8-.95.3-1.92.16-2.59-.15-.67-.29-1.17-.56-1.6-.63-.9-.18-1.32.25-1.38.18Z"/>
        <path class="cls-1" d="M141,103.38s.05-.19.29-.39c.12-.1.29-.21.53-.29.26-.09.67-.07.93.25.08.09.14.22.18.34.04.1.06.2.09.27.06.16.14.32.24.48.21.32.51.62.91.87.78.52,1.87.71,3.13.65.62-.03,1.34-.08,2-.16.32-.04.63-.11.89-.23.25-.11.48-.3.81-.56.3-.25.84-.56,1.36-.59.5-.05.91,0,1.23,0,.32-.02.48-.09.62-.25.14-.15.24-.47.32-.85.12-.53.16-1.17.49-1.84.33-.64.8-1.09,1.21-1.48.85-.73,1.48-1.42,1.84-2.25.36-.81.34-1.63-.03-2.27-.36-.66-.98-1.02-1.57-.96-.61.05-1.18.42-1.68.75-.5.34-.96.65-1.38.83-.85.4-1.41.24-1.39.17,0-.11.48-.14,1.14-.61.34-.23.71-.57,1.19-.98.48-.38,1.06-.91,2.01-1.08.46-.08,1,0,1.47.24.46.24.86.62,1.14,1.08.29.46.48.99.51,1.59.03.58-.09,1.16-.3,1.7-.41,1.08-1.27,2.01-2.08,2.73-.39.37-.73.73-.92,1.12-.19.37-.25.91-.37,1.52-.1.43-.2.95-.61,1.43-.39.49-1.08.71-1.55.7-.49.01-.87-.04-1.16-.01-.27.02-.44.11-.74.33-.28.2-.63.5-1.07.68-.43.18-.85.24-1.23.28-.77.06-1.42.08-2.12.08-1.36,0-2.73-.31-3.64-1.04-.46-.35-.81-.78-1.04-1.22-.23-.41-.29-1-.34-1.09-.16-.31-.6-.16-.86-.07-.26.1-.41.17-.44.13Z"/>
        <path class="cls-1" d="M119.58,101.76c-.02-.06.55-.35,1.65-.17.54.1,1.2.34,1.82.85.31.25.62.59.85.96.24.36.45.67.73.8.29.16.74.19,1.29.32.27.06.6.18.87.37.27.18.49.4.68.6.39.42.67.67,1.12.79.44.12.98.12,1.58.09.59-.03,1.3-.07,2,.07.68.12,1.3.32,1.88.4.59.08,1.06.01,1.42-.29.39-.31.7-.93,1.29-1.55.64-.62,1.37-.9,1.97-1.18.61-.27,1.15-.56,1.36-.9.22-.35.2-.75-.06-1.16-.25-.4-.66-.68-1.16-.87-1.01-.35-2.24-.52-3.28-.77-.54-.12-1.01-.2-1.57-.36-.27-.09-.57-.21-.83-.44-.27-.22-.44-.58-.49-.83-.32-1.7-1.71-2.48-2.61-2.71-.94-.25-1.52-.07-1.54-.18-.03-.05.52-.43,1.63-.32.55.06,1.22.26,1.87.73.32.24.64.53.92.91.28.35.5.89.61,1.3.07.2.12.27.23.36.11.08.28.16.49.21.41.1.98.17,1.5.27.53.09,1.09.19,1.66.29.56.1,1.18.19,1.83.42.64.22,1.35.63,1.8,1.32.22.34.39.74.43,1.2.03.46-.09.93-.33,1.33-.52.8-1.29,1.1-1.9,1.4-.63.29-1.22.56-1.6.93-.4.38-.71,1.05-1.39,1.63-.71.6-1.71.68-2.42.55-.73-.11-1.36-.32-1.93-.44-.56-.12-1.11-.1-1.73-.09-.61,0-1.28.02-1.96-.19-.34-.11-.66-.29-.93-.5-.27-.22-.46-.45-.64-.65-.37-.42-.59-.62-1.02-.73-.42-.13-.96-.18-1.49-.49-.54-.33-.77-.83-.97-1.17-.19-.35-.39-.61-.63-.85-.47-.47-1.01-.74-1.46-.9-.93-.31-1.51-.21-1.52-.32Z"/>
        <path class="cls-1" d="M102.06,106.85s.15.07.33.26c.2.2.41.43.87.56.23.08.52.18.79.29.26.1.56.17.88.2.63.06,1.4-.05,1.96-.53.28-.23.53-.58.83-.99.15-.2.32-.42.53-.63.23-.22.49-.41.8-.54.31-.13.67-.22,1.08-.17.41.04.84.33,1.06.62.23.29.34.5.48.63.15.14.33.26.54.34.88.36,1.97.1,2.97-.56.5-.31,1.04-.72,1.55-1.1.5-.38.94-.8,1.15-1.26.23-.43.19-1.05.34-1.84.07-.38.26-.84.54-1.17.27-.33.58-.56.86-.76.56-.39,1.1-.7,1.31-1.01.19-.28.15-.58-.14-1.04-.66-.98-1.29-1.9-1.88-2.77-.15-.23-.3-.45-.45-.67-.12-.19-.27-.38-.37-.55-.05-.17-.16-.34-.17-.49.29-.28.55-.53.94-.63.18-.07.4-.07.58-.09.15,0,.27.01.4.03.97.16,1.7.46,2.26.35.55-.09.94-.55,1.13-.94.39-.84.05-1.38.16-1.42.03-.02.16.07.28.34.12.26.2.71.04,1.26-.16.52-.57,1.21-1.44,1.47-.87.22-1.73-.09-2.53-.15-.1,0-.2,0-.28,0-.05,0-.07,0-.1.02-.06.02-.1.06-.13.1.03.05.08.09.11.13.15.2.3.4.45.61.63.86,1.3,1.78,2.01,2.75.18.28.38.61.45,1.06.08.44-.03.94-.28,1.31-.51.73-1.14,1.02-1.62,1.38-.24.17-.45.35-.6.53-.14.18-.22.35-.27.62-.12.52-.05,1.3-.43,2.13-.38.79-.99,1.3-1.54,1.73-.56.41-1.08.8-1.68,1.16-.59.36-1.24.66-1.97.8-.72.12-1.46.07-2.14-.22-.34-.15-.65-.36-.91-.63-.27-.28-.42-.59-.54-.74-.12-.16-.19-.19-.32-.23-.13-.03-.32,0-.49.07-.72.23-1.15,1.26-2.01,1.89-.88.64-1.88.67-2.64.52-.39-.08-.73-.2-1.02-.35-.27-.14-.52-.27-.74-.39-.22-.12-.46-.26-.6-.44-.14-.17-.22-.32-.29-.44-.12-.25-.15-.39-.12-.41Z"/>
        <path class="cls-1" d="M84.18,103.98c.1-.06.33.59,1.26,1.13.46.25,1.09.45,1.8.32.73-.1,1.5-.6,2.7-.74.59-.03,1.25.05,1.85.52.3.23.53.62.61,1,.06.37.1.56.15.57.1.13.62.14,1.06-.15.48-.26.92-.72,1.62-1.14.37-.2.76-.34,1.21-.38.43-.04.97,0,1.44.36.48.4.62.85.74,1.26l.07.3c.02.06.03.13.05.18.04.12.09.2.15.27.17.25.72.27,1.36,0,.62-.25,1.1-.6,1.41-1.17.18-.31.35-.69.66-1.07.28-.39.82-.73,1.24-.84.43-.14.73-.2,1.01-.34.29-.13.56-.29.8-.49.99-.8,1.53-2.05,1.43-3.19-.09-1.16-.74-2.22-1.59-2.83-.41-.32-.89-.48-1.45-.73-.27-.13-.56-.28-.82-.5-.28-.24-.47-.54-.57-.86-.1-.32-.13-.69.02-1.04.14-.36.48-.61.77-.69.58-.17.95-.11,1.2-.27.56-.3.76-.98.61-1.41-.14-.46-.48-.74-.71-.87-.24-.14-.4-.17-.4-.22,0-.04.17-.1.49-.03.31.08.8.32,1.09.94.3.61.15,1.63-.7,2.21-.45.31-1.01.3-1.29.43-.27.12-.31.3-.2.66.06.16.17.31.31.42.16.12.36.22.6.32.46.18,1.12.37,1.68.77,1.12.76,1.99,2.06,2.16,3.6.17,1.56-.52,3.22-1.81,4.29-.32.27-.69.5-1.08.68-.39.19-.84.3-1.13.39-.31.11-.45.2-.63.42-.18.22-.34.55-.55.91-.43.83-1.27,1.44-2.06,1.73-.39.15-.83.29-1.34.28-.49,0-1.11-.21-1.47-.66-.18-.22-.3-.46-.37-.69-.04-.12-.06-.23-.09-.34l-.05-.23c-.06-.28-.2-.54-.28-.59-.19-.2-.85-.16-1.3.1-.47.26-.98.74-1.64,1.09-.33.18-.7.31-1.13.34-.42.02-.9-.06-1.28-.47-.38-.45-.33-.91-.38-1.1-.03-.19-.1-.31-.24-.44-.27-.25-.74-.37-1.16-.37-.85.03-1.76.48-2.65.54-.92.08-1.68-.25-2.17-.62-.99-.78-1.05-1.56-.98-1.55Z"/>
        <path class="cls-1" d="M79.94,92.22c-.07-.03,0-.45.5-1.02.48-.54,1.46-1.25,2.9-1.2.7.03,1.47.27,2.14.76.34.24.66.55.92.91.27.37.46.81.61,1.19.15.38.29.73.48.98.17.24.44.42.82.63.36.21.83.43,1.26.84.45.43.72,1.04.77,1.64.06.61-.08,1.22-.4,1.74-.32.54-.87.89-1.32,1.09-.94.39-1.78.51-2.23.88-.44.3-.52.97-.71,1.76-.1.38-.26.82-.58,1.16-.33.37-.87.51-1.23.49-.76-.04-1.27-.28-1.74-.43-.46-.17-.84-.31-1.16-.39-.63-.18-.96-.06-1.02-.15-.06-.06.32-.41,1.09-.36.37.01.81.09,1.29.19.47.09,1.03.24,1.52.21.25-.02.38-.09.5-.23.14-.16.22-.41.28-.73.06-.32.1-.7.21-1.14.1-.43.37-.96.78-1.3.84-.68,1.79-.78,2.47-1.12.35-.16.59-.34.74-.6.16-.26.24-.6.2-.94-.03-.34-.16-.63-.38-.84-.23-.23-.59-.43-.99-.66-.39-.23-.87-.54-1.19-1.01-.31-.45-.46-.9-.59-1.28-.39-1.44-1.56-2.21-2.63-2.37-1.07-.15-1.97.29-2.48.66-.53.38-.76.69-.84.64Z"/>
        <path class="cls-1" d="M97.11,93.31c.31.12-.17,2.05-2.01,3.64-.91.78-1.99,1.19-2.78,1.25-.8.07-1.27-.13-1.27-.29.02-.37,1.69-.6,3.21-1.96,1.55-1.31,2.51-2.81,2.85-2.63Z"/>
        <path class="cls-1" d="M107.64,84.63c-.04-.07.1-.27.47-.45.37-.19.97-.34,1.68-.34.71-.02,1.53.1,2.35.12.42,0,.82-.02,1.22-.11.42-.1.88-.27,1.42-.4.53-.13,1.17-.23,1.8-.06.66.19,1.06.58,1.38.8.32.23.52.3.74.28.23-.02.47-.18.65-.36.36-.37.51-.89.64-1.23.12-.35.22-.56.31-.55.09,0,.16.22.19.62,0,.39.04,1.01-.42,1.74-.23.34-.59.69-1.14.85-.57.18-1.24-.05-1.64-.32-.43-.26-.75-.51-1.05-.57-.31-.08-.7-.03-1.16.09-.46.12-.94.28-1.47.39-.54.11-1.09.11-1.56.06-.95-.09-1.71-.3-2.35-.4-1.26-.24-1.99.04-2.09-.13Z"/>
      </g>
      <path class="cls-1" d="M60.59,184.15s-.03-.47.06-1.33c.08-.87.23-2.14.43-3.77.22-1.64.43-3.58.81-5.94.12-.62.51-1.3,1.05-1.72.53-.44,1.12-.75,1.73-1.04.62-.29,1.28-.52,1.98-.7.35-.09.71-.16,1.07-.22.19-.03.39-.05.59-.08l-.02-.11-.04-.27c-.03-.31-.06-.61-.09-.92-.05-.62-.08-1.27-.05-1.93.05-1.31.34-2.77,1.23-3.99.44-.62,1-1.07,1.39-1.55.41-.47.62-.97.65-1.54.02-1.15-.76-2.38-1.69-3.42-.94-1.04-2.09-2.11-3.16-3.2-.55-.56-1.09-1.07-1.66-1.68-.54-.62-1.14-1.35-1.29-2.39-.07-.51.03-1.08.28-1.54.24-.46.56-.81.87-1.11.6-.55,1.21-1.1,1.83-1.66.61-.55,1.22-1.1,1.84-1.66l.12-.1s0,0,0,0c.03-.18.05-.36.05-.55.01-.37-.02-.74-.09-1.1-.14-.71-.42-1.39-.83-1.97-.21-.29-.44-.55-.7-.79-.27-.25-.61-.51-.93-.89-.33-.36-.58-.96-.58-1.47-.02-.51.06-.9.11-1.29.11-.79.23-1.59.45-2.38.22-.79.55-1.59,1.05-2.29.51-.71,1.15-1.22,1.69-1.7.54-.49.99-.95,1.17-1.5.1-.27.15-.57.13-.82,0-.07-.01-.13-.02-.19,0-.03-.01-.06-.02-.09,0-.02-.04-.15-.1-.22-.26-.32-.76-.76-1.2-1.17,2.96-.31,5.81-.6,8.54-.89,2.36-.26,4.73-.29,6.22-1.55.74-.61,1.3-1.52,2.08-2.28.79-.8,1.84-1.23,2.78-1.45.95-.24,1.86-.35,2.65-.55.38-.1.69-.24.79-.46.08-.13.14-.33.25-.54.05-.11.12-.22.21-.33l.21-.23c2.07-2.31,3.38-4.46,4.41-5.83,1-1.39,1.61-2.1,1.66-2.06.06.04-.43.83-1.33,2.29-.92,1.44-2.12,3.65-4.18,6.11l-.18.22s-.07.11-.1.18c-.07.15-.13.35-.25.58-.28.55-.84.76-1.27.89-.88.24-1.77.37-2.64.62-.87.24-1.69.6-2.32,1.27-.66.66-1.19,1.59-2.09,2.38-.91.8-2.1,1.21-3.25,1.43-1.17.22-2.33.32-3.51.46-1.19.13-2.4.27-3.64.41-1.09.13-3.08.33-2.57.31,0,0,.01.02.02.03,0,.02,0-.03.01.04.02.06.04.12.05.18.03.12.04.24.05.35.04.47-.05.92-.19,1.33-.3.86-.94,1.5-1.5,2.01-.57.52-1.12.97-1.5,1.51-.38.55-.66,1.19-.85,1.89-.19.7-.31,1.44-.41,2.21-.05.39-.11.78-.1,1.06.02.29.09.45.28.7.19.23.49.47.81.75.33.3.63.64.89,1.01.52.74.87,1.58,1.05,2.47.09.46.12.93.11,1.39,0,.23-.03.47-.06.7l-.05.31-.02.15s-.07.07-.11.11l-.35.31c-.62.55-1.23,1.11-1.84,1.65-1.14,1.12-2.79,2.13-2.57,3.18.17,1.16,1.54,2.24,2.57,3.35,1.08,1.12,2.14,2.12,3.18,3.29.51.58.97,1.21,1.34,1.91.37.69.63,1.5.61,2.35-.03.85-.43,1.69-.95,2.25-.5.57-1.02.99-1.36,1.47-.73.96-1.01,2.18-1.08,3.38-.04.6-.02,1.21.02,1.8.02.3.05.6.07.89.05.47.11.94.16,1.4-.32.02-.64.04-.96.06l-.35.03-.25.03c-.34.05-.66.11-.99.18-.64.15-1.26.35-1.84.6-1.17.51-2.18,1.1-2.38,2.13-.42,2.2-.73,4.24-1.03,5.83-.29,1.62-.52,2.87-.7,3.73-.18.85-.29,1.3-.34,1.29Z"/>
      <path class="cls-1" d="M35.34,175.86c-.08-.05.38-.91,1.27-2.43.45-.75.99-1.67,1.63-2.74.29-.52.55-1.1.56-1.69.01-.59-.27-1.24-.55-2-.13-.39-.27-.82-.29-1.31-.02-.49.1-1.03.37-1.47.55-.9,1.43-1.43,2.3-1.83.88-.39,1.76-.7,2.42-1.23.67-.51.95-1.26.94-2.23.02-.96-.22-2.03-.05-3.27.09-.61.32-1.28.75-1.8.42-.53.96-.92,1.52-1.2,1.14-.58,2.39-.73,3.51-.91,1.14-.17,2.15-.46,3.04-1.09,1.8-1.27,2.94-3.36,4.38-5.16.72-.91,1.54-1.78,2.53-2.43.49-.35.99-.56,1.29-.83.3-.25.42-.54.48-.99.05-.43.03-.95.03-1.46,0-.51,0-1,0-1.5,0-.98,0-1.94,0-2.86,0-.92,0-1.82,0-2.68,0-.87.04-1.73.24-2.56.18-.82.59-1.59,1.08-2.16.49-.58,1.01-1.02,1.47-1.43.94-.83,1.8-1.52,2.59-1.97,1.58-.92,2.66-.86,2.65-.79.03.11-.97.22-2.38,1.22-.7.49-1.48,1.2-2.36,2.07-.89.88-1.91,1.82-2.15,3.26-.27,1.42-.07,3.18-.06,5.02.02.92.05,1.88.07,2.86.01.49.02.99.03,1.5,0,.5.05,1.01-.01,1.62-.04.58-.34,1.34-.87,1.77-.5.44-1.02.65-1.4.94-.82.56-1.54,1.33-2.22,2.19-1.37,1.7-2.5,3.89-4.65,5.44-.55.36-1.13.68-1.76.88-.62.2-1.23.32-1.82.41-1.18.18-2.25.32-3.15.77-.92.44-1.49,1.13-1.61,2.04-.15.93.04,1.98.02,3.1-.01.56-.09,1.16-.33,1.72-.24.57-.65,1.05-1.1,1.39-.91.68-1.88.96-2.69,1.31-.79.34-1.51.79-1.88,1.37-.38.57-.3,1.25-.07,1.97.22.71.55,1.48.5,2.32-.05.84-.42,1.49-.76,2.04-.7,1.06-1.32,1.92-1.83,2.64-1.02,1.43-1.62,2.2-1.69,2.15Z"/>
      <path class="cls-1" d="M50.07,152.49c-.13-.05.27-1.46,1.01-3.7.37-1.12.83-2.45,1.35-3.92.26-.73.54-1.52.94-2.32.4-.79.98-1.61,1.79-2.18.78-.57,1.53-.95,2.01-1.52.51-.57.85-1.27,1.15-1.97.6-1.44,1.14-2.73,1.59-3.82.93-2.17,1.57-3.49,1.7-3.44.13.05-.29,1.45-1.05,3.69-.39,1.12-.85,2.43-1.4,3.91-.29.74-.64,1.55-1.26,2.26-.63.74-1.48,1.17-2.15,1.67-1.34.96-1.89,2.6-2.46,4.03-.57,1.45-1.1,2.76-1.55,3.85-.91,2.18-1.54,3.5-1.66,3.46Z"/>
      <path class="cls-1" d="M86.94,154.68c-.22.03-.48-3.14-1.95-7.98-.2-.6-.4-1.24-.62-1.9-.21-.68-.43-1.42-.45-2.27-.04-.84.28-1.84.92-2.51.62-.68,1.35-1.12,1.92-1.63.59-.51.9-1.07.95-1.83.06-.75-.11-1.61-.26-2.53-.12-.91-.33-1.99.19-3.12.25-.54.7-1.03,1.19-1.32.48-.3.96-.48,1.38-.67.86-.36,1.34-.82,1.6-1.6.27-.76.31-1.69.43-2.63.11-.93.37-1.98.97-2.81.59-.82,1.35-1.4,2.06-1.88.72-.49,1.43-.9,2.04-1.34.62-.43,1.14-.93,1.62-1.47.96-1.08,1.64-2.28,2.51-3.31,1.71-1.97,3.24-3.33,4.22-4.36.99-1.01,1.48-1.62,1.56-1.57.07.04-.28.77-1.18,1.91-.87,1.14-2.33,2.64-3.88,4.6-.74.95-1.4,2.23-2.4,3.43-.49.6-1.09,1.2-1.76,1.7-.67.51-1.38.94-2.04,1.41-.67.47-1.29.98-1.73,1.6-.43.62-.62,1.37-.72,2.26-.12.88-.13,1.84-.47,2.88-.17.51-.46,1.05-.89,1.46-.42.44-.95.69-1.41.91-.94.41-1.67.71-1.93,1.36-.31.61-.22,1.5-.1,2.38.12.89.32,1.82.23,2.83-.03.5-.2,1.02-.44,1.49-.26.47-.61.83-.96,1.13-.7.6-1.4,1.01-1.87,1.51-.48.49-.68,1.06-.68,1.72,0,1.32.59,2.66.88,3.92.64,2.5.93,4.56,1.06,5.99.12,1.43.09,2.23,0,2.23Z"/>
      <path class="cls-1" d="M94.65,190.62s.07-.61.47-1.68c.41-1.06,1.11-2.59,2.37-4.32.63-.87,1.42-1.73,2.13-2.73.71-1,1.26-2.19,1.1-3.54-.14-1.36-.69-2.95-.28-4.8.12-.46.4-1,.92-1.31.25-.14.52-.24.81-.27.27-.03.5-.02.74-.01.45.03.89.08,1.28.09.38.03.79-.1.74-.13,0-.02.01-.02.01-.06,0-.07,0-.17-.02-.27-.02-.21-.08-.47-.08-.79,0-.48,0-.97-.03-1.46-.04-.98-.13-1.96-.35-2.92-.22-.95-.58-1.88-1.16-2.64-.31-.39-.59-.67-1.06-1.04-.23-.2-.55-.5-.66-1-.1-.49.05-.91.19-1.2,1.18-1.99,2.38-3.85,3.62-5.85.62-.99,1.24-1.99,1.87-3,.32-.51.66-.96.8-1.4.15-.41.14-.92.09-1.52-.12-1.72-.26-3.4-.79-4.89-.5-1.5-1.51-2.69-2.67-3.81-1.19-1.12-2.35-2.23-3.49-3.31-.57-.54-1.14-1.08-1.7-1.61-.28-.28-.64-.59-.85-1.14-.22-.57-.05-1.2.17-1.58.22-.41.44-.69.6-.99.19-.29.32-.6.46-.91.25-.63.46-1.28.55-1.96.24-1.33.2-2.69.13-4.01-.08-1.32-.24-2.6-.35-3.84-.05-.63-.11-1.23-.12-1.87,0-.63.09-1.32.41-1.91.32-.58.72-1,1.08-1.4.37-.4.74-.79,1.09-1.16.72-.73,1.4-1.43,2.03-2.07,1.28-1.28,2.39-2.37,3.29-3.27,1.82-1.78,2.8-2.78,2.87-2.72.07.06-.8,1.18-2.5,3.08-.86.94-1.91,2.09-3.13,3.43-.61.67-1.26,1.38-1.95,2.13-.34.38-.68.77-1.04,1.18-.35.41-.71.82-.92,1.25-.44.83-.23,2.02-.11,3.25.13,1.23.31,2.51.42,3.87.1,1.35.16,2.79-.08,4.27-.1.74-.32,1.49-.6,2.22-.16.36-.31.72-.52,1.07-.19.36-.43.67-.56.94-.14.28-.16.45-.1.61.06.18.27.41.55.66.56.53,1.13,1.06,1.71,1.59,1.15,1.08,2.33,2.18,3.53,3.3,1.19,1.13,2.43,2.54,3.01,4.29.61,1.71.74,3.5.87,5.23.04.6.1,1.32-.16,2.05-.25.7-.65,1.21-.96,1.7-.63,1-1.25,1.99-1.87,2.97-1.21,1.94-2.48,3.9-3.57,5.7-.1.2-.12.34-.1.39,0,.05.08.17.26.32.39.3.89.78,1.22,1.24.72.96,1.11,2.05,1.35,3.12.22,1.07.31,2.12.34,3.14.02.51.01,1.01,0,1.5,0,.17.04.39.06.66.01.14.03.28.02.45,0,.2-.06.44-.18.62l-.21.23c-.09.07-.17.13-.25.17-.16.08-.32.13-.46.16-.29.06-.55.06-.79.05-.48-.02-.92-.08-1.32-.11-.84-.09-1.2.13-1.41.8-.18.64-.16,1.48-.09,2.19.08.73.24,1.48.3,2.26.06.78-.06,1.59-.33,2.27-.27.69-.64,1.28-1.04,1.8-.79,1.04-1.61,1.86-2.25,2.67-1.3,1.61-2.08,3.06-2.58,4.06-.49,1-.72,1.56-.78,1.54Z"/>
      <path class="cls-1" d="M117.12,174.56c-.07,0-.16-.27-.45-.73-.28-.48-.65-1.18-1.09-2.06-.88-1.73-2.03-4.28-3.25-6.9-.56-1.11-2.12-1.26-3.35-1.68-.63-.19-1.25-.43-1.79-.75-.54-.32-.98-.74-1.29-1.16-.63-.85-.89-1.63-1.06-2.16-.16-.53-.21-.84-.15-.86.06-.03.23.24.5.71.27.47.63,1.18,1.24,1.87.6.7,1.56,1.18,2.79,1.49.61.17,1.28.31,1.99.55.36.12.73.28,1.09.53.36.25.67.62.87.98,1.32,2.81,2.3,5.26,3.04,7.11.36.92.63,1.66.8,2.19.19.54.17.88.1.88Z"/>
      <path class="cls-1" d="M101.76,172.96c-.03.06-.59-.18-1.53-.71-.47-.27-1.04-.6-1.7-.98-.34-.19-.7-.39-1.08-.6-.2-.11-.51-.38-.54-.75-.04-.34.07-.59.1-.81.39-1.8.22-4.14-.97-6.27-.3-.54-.65-1.02-1.08-1.53-.22-.26-.5-.6-.58-1.11-.07-.51.11-.93.26-1.26.59-1.28,1.24-2.57,1.95-3.87,1.4-2.59,3.02-4.99,4.44-7.02.31-.51.47-.99.4-1.48-.06-.49-.32-.96-.63-1.39-.31-.43-.68-.84-1.02-1.25-.17-.21-.35-.4-.5-.7-.17-.29-.15-.75-.02-1.01.99-1.75,1.82-3.01,2.4-3.94.59-.91.94-1.4,1-1.36.13.05-.99,2.22-2.76,5.56-.06.19-.06.27.02.42.08.15.26.34.43.53.35.39.73.78,1.1,1.26.36.47.72,1.04.84,1.76.12.72-.13,1.48-.48,2.06-1.45,2.18-2.96,4.45-4.36,7.04-.7,1.28-1.35,2.56-1.93,3.8-.3.63-.26.84.17,1.37.43.52.84,1.1,1.15,1.69,1.26,2.38,1.36,4.93.85,6.86-.06.25-.13.46-.12.58,0,.11.06.18.22.29.34.21.72.45,1.03.66.64.43,1.18.81,1.62,1.12.88.63,1.36.97,1.33,1.03Z"/>
      <path class="cls-1" d="M42.14,199.72c-.06-.03.28-.82,1.01-2.19.73-1.37,1.88-3.31,3.5-5.57.81-1.13,1.74-2.34,2.8-3.59.49-.63,1.2-1.26,1.5-1.87.29-.55-.03-1.46-.17-2.36-.34-1.81-.71-3.66-1.05-5.67-.13-1.01-.22-2.15.3-3.26.26-.54.71-1.02,1.22-1.32.51-.31,1.04-.49,1.54-.66l.72-.26c.23-.09.46-.19.56-.27.09-.09.1-.09.09-.28-.01-.17-.09-.45-.14-.68-.25-.95-.62-1.89-.92-2.86-.3-.97-.56-2-.43-3.08.09-1.08.72-2.05,1.42-2.71,1.41-1.3,2.94-2.21,4.47-2.89.37-.17.81-.31,1.03-.45.22-.13.29-.35.33-.72.1-.7.05-1.41.02-2.1-.04-.69-.07-1.37,0-2.02.07-.65.28-1.28.62-1.78.34-.5.79-.84,1.19-1.1.41-.26.79-.46,1.14-.63,1.39-.69,2.18-1.04,2.21-.98.03.06-.69.53-2.02,1.31-.65.4-1.53.85-2.07,1.7-.56.85-.53,2.09-.39,3.45.06.69.13,1.43.04,2.24-.02.2-.05.42-.14.66-.09.24-.29.49-.5.62-.44.28-.78.36-1.14.54-1.43.66-2.91,1.59-4.17,2.79-.61.6-1.05,1.32-1.12,2.17-.1.84.12,1.76.42,2.68.3.92.68,1.87.95,2.91.06.27.13.5.17.84.01.17,0,.37-.07.59-.08.22-.22.4-.37.52-.31.25-.58.33-.83.44l-.76.27c-1,.32-1.85.71-2.21,1.49-.38.77-.35,1.76-.23,2.7.34,1.95.67,3.84.98,5.63.08.46.16.91.23,1.35.07.46.08,1.05-.17,1.54-.23.48-.56.82-.84,1.12-.28.31-.55.62-.83.92-1.07,1.21-2.03,2.38-2.86,3.47-1.67,2.18-2.9,4.05-3.73,5.35-.83,1.3-1.28,2.03-1.34,2Z"/>
      <path class="cls-1" d="M54.33,123.49c-.03-.08.61-.39,1.82-.81.6-.21,1.35-.44,2.23-.67.44-.12.91-.23,1.41-.34.49-.12,1.08-.2,1.52-.35.43-.14.66-.45.86-.98.19-.51.29-1.18.44-1.81.14-.64.29-1.31.44-1.99.14-.68.26-1.59,1.02-2.31.77-.68,1.73-.77,2.51-.85.78-.06,1.58-.13,2.4-.19.81-.06,1.64-.13,2.48-.19.42-.03.85-.06,1.28-.1.44-.03.94-.05,1.49.09.56.14,1.05.5,1.38.86.34.36.59.73.83,1.04.24.32.48.56.72.72.23.15.51.21.87.22.71,0,1.58-.07,2.34-.09.78-.04,1.55-.07,2.3-.11,1.49-.06,2.91-.12,4.23-.18.61-.04.93-.2,1.23-.65.29-.43.49-1,.79-1.54.27-.54.77-1.11,1.42-1.28.63-.16,1.16-.04,1.57,0,.87.07,1.66.08,2.29.12,1.27.06,1.98.19,1.97.28,0,.09-.7.12-1.97.22-.63.04-1.41.1-2.33.1-.48,0-.93-.05-1.3.07-.35.13-.62.43-.84.91-.23.46-.39,1.05-.76,1.66-.18.3-.45.63-.83.84-.38.23-.79.3-1.15.34-1.34.09-2.77.2-4.27.3-.75.05-1.52.1-2.3.15-.8.04-1.53.12-2.46.13-.46-.01-1.01-.1-1.49-.4-.47-.29-.8-.67-1.07-1.02-.54-.72-.96-1.32-1.52-1.44-.58-.15-1.51,0-2.34.04-.84.06-1.67.12-2.48.17-.81.05-1.61.11-2.39.16-.75.05-1.43.16-1.81.5-.38.32-.56.95-.7,1.64-.18.7-.35,1.37-.52,2.03-.18.66-.29,1.27-.55,1.91-.13.32-.3.65-.57.93-.26.28-.62.48-.94.57-.65.17-1.14.19-1.65.29-.5.09-.97.17-1.41.24-.88.16-1.64.32-2.25.45-1.24.26-1.93.41-1.96.32Z"/>
    </g>
    <ellipse class="cls-1" cx="95.37" cy="112.78" rx="5.92" ry=".65" transform="translate(-52.04 122.01) rotate(-53.36)"/>
    <ellipse class="cls-1" cx="105.68" cy="111.09" rx="6.75" ry=".65" transform="translate(-47.63 113.05) rotate(-47.16)"/>
    <path class="cls-1" d="M95.94,112.14c-.31-.18,0-1.32.7-2.55.7-1.23,1.52-2.09,1.83-1.91.31.18,0,1.32-.7,2.55-.7,1.23-1.52,2.09-1.83,1.91Z"/>
    <path class="cls-1" d="M105.82,110.39c-.29-.2.35-1.48,1.51-2.78,1.15-1.29,2.55-1.96,2.75-1.61.16.29-.67,1.26-1.79,2.5-1.09,1.23-2.16,2.1-2.47,1.89Z"/>
    <path class="cls-1" d="M109.02,108.08c-.3-.21-.25-.78.1-1.29.35-.5.87-.75,1.17-.54.3.21.25.78-.1,1.29-.35.5-.87.75-1.17.54Z"/>
    <path class="cls-1" d="M109.83,107.18c-.31-.18-.43-.56-.2-.81.23-.25.62-.16.82.15.2.3.25.62.13.75-.12.12-.44.1-.76-.08Z"/>
  </g>
</svg>