<?xml version="1.0" encoding="UTF-8"?>
<svg id="Capa_1" data-name="Capa 1" xmlns="http://www.w3.org/2000/svg" version="1.1" viewBox="0 0 226.77 226.77">
  <defs>
    <style>
      .cls-1 {
        fill: none;
        stroke: #1d1d1b;
        stroke-miterlimit: 10;
        stroke-width: 1.07px;
      }

      .cls-2 {
        fill: #1d1d1b;
        stroke-width: 0px;
      }
    </style>
  </defs>
  <g>
    <path class="cls-2" d="M120.45,91.09c-.18-.04-.14-.72-.34-1.73-.2-1.02-.66-2.37-1.63-3.61-.48-.63-1.01-1.19-1.5-1.73-.48-.53-.91-1.01-1.27-1.41-.72-.78-1.25-1.18-1.18-1.33.06-.15.81,0,1.74.68.47.33.98.77,1.51,1.27.53.5,1.13,1.07,1.67,1.78,1.11,1.42,1.53,3.11,1.52,4.27,0,1.19-.37,1.85-.52,1.81Z"/>
    <path class="cls-2" d="M108.27,100.67c.02.16-.89.35-2.18-.15-1.28-.49-2.83-1.54-4.24-3.01-.69-.73-1.32-1.48-1.78-2.27-.46-.79-.72-1.6-.81-2.28-.19-1.38.18-2.21.33-2.17.18.03.14.82.51,1.98.18.58.48,1.22.92,1.87.44.65,1.05,1.33,1.71,2.02,1.32,1.37,2.68,2.45,3.73,3.07,1.05.63,1.82.75,1.81.93Z"/>
    <path class="cls-2" d="M98.57,97.89c-.17.13-.95-.5-1.9-1.82-.94-1.31-1.98-3.43-2.18-5.99-.22-2.6.62-4.83,1.33-6.24.36-.73.77-1.31,1.16-1.62.39-.32.71-.34.75-.24.06.1-.1.29-.27.65-.18.36-.38.9-.58,1.63-.41,1.47-.97,3.49-.78,5.7.17,2.23.92,4.17,1.56,5.55.64,1.38,1.09,2.26.9,2.4Z"/>
    <path class="cls-2" d="M95.21,81.41c.19.15-.23.93-.6,2.25-.4,1.31-.76,3.19-.79,5.29-.03,2.09.22,4.01.61,5.27.19.64.43,1.09.63,1.38.2.28.38.42.35.54-.02.1-.31.17-.75-.05-.43-.22-.91-.72-1.29-1.41-.76-1.39-1.21-3.46-1.19-5.76.03-2.3.62-4.36,1.35-5.7.71-1.36,1.51-1.94,1.66-1.81Z"/>
    <path class="cls-2" d="M109.41,101.06c.01.22-.77.49-2.08.55-1.31.07-3.15-.12-5.05-.76-.96-.32-1.8-.73-2.51-1-.71-.28-1.33-.36-1.99-.46-.64-.1-1.2-.26-1.54-.48-.34-.21-.47-.41-.42-.5.13-.19.8-.04,2.02-.17.6-.05,1.5-.08,2.38.18.88.24,1.71.6,2.58.89,3.5,1.21,6.58,1.28,6.61,1.75Z"/>
    <path class="cls-2" d="M119.29,95.35c-.17-.05-.09-.71-.04-1.69.02-.49.02-1.07-.12-1.63-.13-.57-.45-1.1-.92-1.69-.93-1.18-1.96-2.06-2.77-2.61-.81-.56-1.39-.83-1.35-1,.03-.15.73-.17,1.75.24,1.01.41,2.29,1.3,3.32,2.61.53.63.97,1.45,1.07,2.24.11.78,0,1.45-.13,1.98-.29,1.05-.67,1.6-.82,1.56Z"/>
    <path class="cls-2" d="M105.87,92.48c.06.36-1.55.68-2.17,2.24-.34.75-.38,1.53-.35,2.1.02.57.15.91.03,1.03-.11.12-.58-.12-.87-.82-.29-.66-.4-1.75.07-2.8.44-1.06,1.41-1.74,2.12-1.87.71-.16,1.14-.03,1.16.13Z"/>
    <path class="cls-2" d="M106.26,87.98c.02.17-.55.37-1.4.71-.84.35-1.96.87-2.59,1.96-.67,1.11-.92,2.36-1.01,3.24-.09.89-.02,1.47-.19,1.53-.15.06-.53-.48-.67-1.51-.13-1.01-.01-2.48.83-3.89.42-.7,1.07-1.27,1.69-1.58.62-.33,1.22-.48,1.71-.57,1-.15,1.61-.04,1.63.12Z"/>
    <path class="cls-2" d="M103.51,83.46c.05.19-.99.45-2.29,1.37-.64.46-1.33,1.11-1.93,1.97-.3.42-.56.91-.81,1.42l-.17.39c-.04.11-.08.23-.11.36-.07.27-.12.56-.17.87-.09.61-.15,1.22-.21,1.82-.07.61-.09,1.09-.03,1.62.1,1.02.43,1.91.83,2.56.82,1.33,1.84,1.72,1.76,1.9-.03.07-.31.08-.78-.1-.46-.18-1.11-.58-1.69-1.29-.58-.71-1.05-1.72-1.24-2.91-.1-.58-.1-1.27-.04-1.86.04-.61.09-1.24.19-1.9.05-.33.11-.66.2-1,.04-.17.1-.34.17-.52l.21-.44c.29-.57.61-1.1.98-1.57.73-.94,1.59-1.61,2.37-2.03,1.6-.83,2.73-.77,2.74-.63Z"/>
    <path class="cls-2" d="M111,85.07c-.04.23-.7.28-1.69.31-.99.04-2.31.09-3.61.53-2.65.88-4.05,3.04-4.45,2.79-.19-.1-.08-.79.51-1.72.59-.92,1.76-2.05,3.42-2.61,1.66-.55,3.23-.39,4.25-.13,1.04.27,1.61.62,1.56.83Z"/>
    <path class="cls-2" d="M110.48,88.49c-.15.32-1.62-.15-3.39-.1-1.78.03-3.22.56-3.39.25-.07-.14.21-.47.8-.81.59-.33,1.51-.63,2.56-.66,1.05-.02,1.99.24,2.59.54.61.31.9.63.83.77Z"/>
    <path class="cls-2" d="M117.56,96.77c.14.06.03.83-.7,1.85-.36.5-.9,1.04-1.6,1.5-.7.45-1.56.79-2.45,1.02-1.73.45-3.49.66-4.73.24-1.24-.39-1.71-1.09-1.61-1.19.11-.16.73.23,1.79.35,1.05.15,2.55-.14,4.24-.58,1.66-.4,2.92-1.14,3.71-1.91.8-.75,1.19-1.37,1.35-1.29Z"/>
    <path class="cls-2" d="M122.22,88.64c.15-.06.46.31.64,1.01.18.71.2,1.67.03,2.72-.11,1.11-.76,2.05-1.25,2.52-.51.49-.91.68-1.03.57-.13-.11.05-.52.34-1.09.29-.58.65-1.27.74-2.2.15-.94.26-1.83.31-2.44.06-.62.05-1.03.22-1.09Z"/>
    <path class="cls-2" d="M107.64,94.8c0,.23-.32.44-.81.73-.25.14-.55.31-.9.48-.38.18-.62.31-.77.48-.15.16-.29.46-.38.74-.09.29-.13.57-.16.82-.05.5-.02.87-.2,1.01-.17.14-.64-.1-.93-.79-.26-.67-.43-1.8.46-2.88.48-.53,1.1-.7,1.46-.79.39-.1.77-.17,1.11-.18.68-.04,1.11.16,1.11.38Z"/>
    <path class="cls-2" d="M108.68,97.45c0,.17-.34.28-.71.47-.37.18-.7.5-.83,1-.13.47.03,1.01.22,1.28.19.3.49.47.47.64-.01.15-.39.34-1,.03-.6-.32-1.11-1.23-.86-2.25.12-.5.42-.91.77-1.18.37-.27.75-.36,1.05-.37.61,0,.9.22.89.37Z"/>
    <path class="cls-2" d="M117.78,94.27c-.17.04-.38-.31-.74-.76-.35-.46-.93-1-1.64-1.62-1.37-1.24-2.66-2.05-2.54-2.36.1-.32,1.81.07,3.35,1.45.75.66,1.37,1.44,1.59,2.13.23.68.14,1.14-.02,1.17Z"/>
    <path class="cls-2" d="M113.7,99.89c-.17-.04-.19-.43-.22-.95-.02-.25-.06-.54-.16-.73-.05-.1-.1-.15-.22-.27-.13-.12-.27-.26-.41-.38-1.13-1.06-2.38-1.32-2.4-1.65,0-.16.38-.33,1.01-.28.63.05,1.48.38,2.19,1.02.18.16.34.32.49.49.16.18.33.45.4.71.13.52.04.92-.05,1.22-.21.6-.48.87-.63.83Z"/>
    <path class="cls-2" d="M116.21,95.15c-.33.1-.84-.72-1.67-1.33-.82-.61-1.81-1.05-1.69-1.4.05-.16.33-.24.77-.21.43.03,1.07.19,1.66.64.59.44.93,1.04,1.05,1.49.12.46.05.76-.11.81Z"/>
    <path class="cls-2" d="M97.31,67.89c.14.03-.02,1.43-.93,3.47-.44,1.02-1.06,2.19-1.76,3.45-.7,1.26-1.46,2.63-2.09,4.12-1.3,2.97-1.45,5.95-1.39,8.1.06,2.15.25,3.5.07,3.53-.15.03-.64-1.26-.93-3.47-.14-1.1-.21-2.44-.07-3.93.13-1.49.53-3.12,1.2-4.7.66-1.59,1.49-2.98,2.24-4.22.76-1.24,1.43-2.33,1.96-3.27,1.07-1.87,1.52-3.14,1.7-3.09Z"/>
    <path class="cls-2" d="M93.02,62.94c.07,0,.13.35.03.97-.1.61-.42,1.47-.97,2.41-.52.95-1.26,1.95-1.67,3.19-.46,1.32-.98,2.74-1.32,4.27-.36,1.53-.44,2.99-.48,4.39-.05,1.38-.02,2.61.1,3.63.24,2.05.72,3.27.54,3.35-.12.07-.91-1.06-1.39-3.21-.24-1.06-.36-2.36-.37-3.78-.03-1.39.02-3.03.41-4.65.36-1.63.93-3.1,1.46-4.4.55-1.41,1.41-2.41,2-3.26,1.26-1.66,1.48-2.93,1.66-2.91Z"/>
    <path class="cls-2" d="M83.68,67.71c.16.06.04.75-.22,1.81-.26,1.06-.64,2.49-.77,4.09-.31,3.23.45,5.83.13,5.95-.15.06-.56-.53-.91-1.63-.34-1.09-.59-2.68-.44-4.42.14-1.76.7-3.27,1.17-4.27.48-1.01.88-1.59,1.03-1.53Z"/>
    <path class="cls-2" d="M86.7,70.08c.33.13-1.01,3.86-1.56,8.63-.4,2.36-.02,4.44.41,5.95.43,1.5.83,2.41.67,2.5-.13.08-.81-.69-1.48-2.21-.33-.76-.65-1.7-.82-2.8-.09-.55-.14-1.13-.14-1.74.05-.59.1-1.21.15-1.84.59-4.98,2.49-8.63,2.77-8.49Z"/>
    <path class="cls-2" d="M107.02,75.17c0,.18-.89.25-2.2.76-.65.25-1.41.61-2.25,1.05-.83.45-1.79.92-2.65,1.49-1.73,1.14-2.77,2.83-3.45,4.05-.67,1.25-1,2.09-1.18,2.04-.15-.04-.11-.97.39-2.39.51-1.38,1.54-3.37,3.55-4.71.99-.66,1.96-1.09,2.85-1.49.89-.4,1.74-.7,2.49-.86,1.5-.34,2.46-.09,2.44.06Z"/>
    <path class="cls-2" d="M108.87,71.15c-.09.46-3.04.18-6.5.92-1.77.32-3.07.91-3.96,1.64-.89.7-1.41,1.27-1.61,1.14-.18-.1-.01-.9.8-1.95.4-.51,1.01-1.08,1.79-1.51.78-.44,1.71-.73,2.65-.91,1.9-.39,3.68-.34,4.91-.12,1.24.22,1.96.58,1.92.79Z"/>
    <path class="cls-2" d="M115.98,79.52c-.25.26-1.43-.71-2.79-1.74-.68-.5-1.34-.85-1.86-1.15-.51-.29-.83-.55-.78-.71.05-.16.45-.2,1.06-.11.61.09,1.49.38,2.29.97,1.55,1.19,2.28,2.51,2.07,2.73Z"/>
    <path class="cls-2" d="M124.25,83.78c-.35.08-.97-1.91-2.19-4.06-1.18-2.19-2.69-3.52-2.52-3.8.09-.13.64.03,1.35.56.72.53,1.57,1.46,2.23,2.64,1.34,2.38,1.44,4.61,1.13,4.66Z"/>
    <path class="cls-2" d="M117.74,114.67c-.25.09-.69-1.45-2.32-3.09-.82-.81-1.96-1.54-3.42-1.89-1.46-.38-3.18-.34-5.11-.43-1.94-.06-3.9-.56-5.41-1.41-.77-.41-1.44-.89-2.02-1.39-.54-.52-1.02-1.01-1.47-1.46-1.72-1.81-2.63-3.03-2.49-3.19.16-.17,1.39.78,3.27,2.35.47.38.97.8,1.52,1.25.56.4,1.18.79,1.87,1.11,1.38.68,2.98,1.05,4.81,1.12,1.82.09,3.73.08,5.43.61,1.71.49,3.07,1.52,3.88,2.56.83,1.04,1.22,2.04,1.4,2.73.18.7.16,1.1.06,1.13Z"/>
    <path class="cls-2" d="M122.89,111.99c-.34-.04-.32-1.89-1.13-3.9-.39-1.01-.9-1.85-1.29-2.46-.37-.63-.62-.72-.69-.88-.02-.07.11-.21.41-.19.29.02.63.23.94.5.61.52,1.33,1.43,1.78,2.59.46,1.16.55,2.3.47,3.1-.08.8-.31,1.27-.47,1.24Z"/>
    <path class="cls-2" d="M121.73,99.42c.18.09-.19,1.39-1.47,3.17-.65.87-1.55,1.87-2.86,2.66-1.3.81-3.05,1.2-4.76,1.09-1.72-.1-3.24-.54-4.57-.92-1.33-.39-2.49-.73-3.48-.93-1.97-.42-3.24-.22-3.3-.46-.07-.19,1.23-.83,3.45-.68,1.09.06,2.36.31,3.71.62,1.35.31,2.79.66,4.28.75,1.49.09,2.83-.18,3.94-.77,1.11-.58,2.01-1.39,2.71-2.1,1.4-1.46,2.14-2.55,2.35-2.43Z"/>
    <path class="cls-2" d="M92.31,125.87c-.12.03-.5-1.31.23-3.34.37-.99,1.01-2.14,2.16-3.06,1.15-.93,2.73-1.39,4.26-1.62,3.03-.4,5.66-1.09,7.62-1.54.49-.11.93-.21,1.32-.3.4-.07.66-.15.86-.28.39-.25.45-.6.55-.58.06-.02.22.4-.24.93-.22.25-.61.44-.98.57-.38.14-.8.3-1.28.47-1.89.66-4.61,1.52-7.67,1.92-1.49.22-2.8.59-3.77,1.31-.97.7-1.62,1.67-2.05,2.51-.84,1.72-.81,3-1.02,3Z"/>
    <path class="cls-2" d="M109.62,131.22c-.08-.05.25-.8,1.09-1.81.83-1.02,2.21-2.2,3.78-3.36.77-.59,1.53-1.14,2.13-1.67.6-.54,1.02-1.11,1.28-1.66.53-1.1.51-1.91.64-1.91.09-.02.33.83-.11,2.13-.22.64-.66,1.36-1.3,1.98-.64.62-1.38,1.18-2.16,1.78-1.57,1.16-2.95,2.22-3.85,3.1-.92.86-1.41,1.49-1.51,1.41Z"/>
    <path class="cls-2" d="M111.62,144.52c-.09.13-.76-.12-1.62-.88-.85-.75-1.83-2.07-2.36-3.75-.54-1.67-.56-3.28-.37-4.4.19-1.13.55-1.75.71-1.7.32.08-.17,2.72.82,5.72.93,3.03,3.03,4.73,2.82,5Z"/>
    <path class="cls-2" d="M126.28,170.4c-.09.01-.2-.41-.47-1.1-.27-.69-.75-1.67-1.65-2.61-.45-.46-1.01-.91-1.67-1.26-.67-.35-1.45-.62-2.31-.86-.86-.25-1.81-.49-2.78-.9-.22-.08-.65-.29-.87-.7-.24-.42-.18-.98.06-1.34.25-.36.46-.5.72-.7.25-.18.53-.32.8-.43.45-.19.88-.3,1.26-.43.42-.14.64-.24.71-.39.1-.15.13-.49.07-.77-.05-.29-.19-.52-.39-.72-.42-.39-1.07-.6-1.72-.66-.33-.04-.67-.06-1.02-.09l-.27-.02c-.16,0-.3-.04-.44-.07-.28-.04-.48-.22-.59-.46-.14-.34-.05-.73.15-1.05.04-.07.12-.17.17-.22l.13-.14c.09-.09.19-.17.28-.24.39-.29.78-.43,1.09-.58.69-.3.86-.6.65-.92-.59-.74-1.16-1-1.11-1.09.02-.08.68-.04,1.53.74.24.22.39.73.18,1.13-.09.2-.24.37-.41.5-.15.12-.31.23-.48.32-.33.2-.66.36-.92.59-.06.06-.12.11-.18.18l-.08.1s-.01.02-.02.04c-.02.05-.03.1,0,.14.02.03.06.04.09.03h.05s.23,0,.23,0c.33.01.69.01,1.07.04.76.06,1.65.23,2.4.89.37.33.65.82.76,1.32.1.49.12,1.03-.19,1.61-.16.28-.42.52-.67.66-.26.14-.47.21-.68.29-.43.15-.83.26-1.18.4-.21.09-.4.19-.57.31-.16.11-.36.29-.4.36-.04.07-.03.09-.02.11.03.04.05.09.29.19.85.38,1.75.64,2.63.92.88.28,1.73.61,2.47,1.06.75.45,1.35,1,1.81,1.56.93,1.14,1.32,2.28,1.46,3.05.14.79.09,1.23.01,1.23Z"/>
    <path class="cls-2" d="M91.93,158.63c-.07,0-.2-.55-.05-1.55.08-.5.24-1.11.56-1.76.32-.65.81-1.38,1.59-1.95.77-.58,1.81-.93,2.91-.98,1.12-.07,2.23.22,3.17,0,.27-.06.41-.13.41-.17.04-.04.07-.22.03-.42-.05-.22-.12-.39-.27-.6-.15-.21-.39-.48-.57-.85-.17-.36-.33-.82-.14-1.38.09-.28.32-.55.6-.69.26-.14.57-.17.78-.15.83.06,1.46.41,2.01.54.28.08.52.09.72.06.08-.04.02.06.06-.12,0-.16-.06-.41-.17-.63-.1-.2-.28-.42-.47-.65-.74-.88-1.7-1.49-2.7-1.84-1-.37-2.04-.41-3.11-.57-1.06-.15-2.11-.56-2.82-1.22-.72-.65-1.13-1.44-1.34-2.15-.2-.71-.24-1.34-.21-1.85.07-1.03.41-1.52.47-1.49.09.03-.07.55,0,1.49.09.9.38,2.36,1.63,3.35.61.49,1.43.78,2.4.88.96.11,2.14.11,3.33.51,1.18.37,2.35,1.09,3.25,2.12.22.25.45.51.64.88.17.35.32.73.31,1.22,0,.25-.06.53-.27.8-.17.26-.54.43-.79.46-.45.08-.88.02-1.24-.08-.73-.2-1.3-.49-1.77-.51-.2,0-.16.02-.17.03-.03.05-.02.26.08.45.09.2.26.41.47.7.21.28.39.69.45,1.06.06.38.07.85-.24,1.3-.15.22-.39.37-.59.45-.21.08-.36.11-.53.15-1.35.23-2.43-.14-3.36-.1-.95,0-1.8.25-2.46.68-1.33.88-1.89,2.25-2.18,3.11-.28.9-.31,1.45-.41,1.45Z"/>
    <path class="cls-2" d="M100.6,138.04c-.02.15-.94.15-2.08-.65-1.14-.77-2.34-2.35-2.95-4.31-.63-1.96-.66-3.83-.48-5.14.08-.67.27-1.22.52-1.56.26-.36.58-.37.59-.29.03.09-.1.2-.16.5-.07.3-.11.78-.08,1.38.05,1.24.21,2.95.78,4.72.56,1.77,1.47,3.19,2.33,4.02.85.85,1.58,1.14,1.53,1.31Z"/>
    <path class="cls-2" d="M119.1,167.04c-.08.34-4.55-.51-10.11-1.03-.33-.03-.76-.06-1.18-.22-.43-.15-.85-.5-1.06-.9-.43-.84-.33-1.54-.41-2.09-.05-.57-.18-.92-.47-1.11-.28-.2-.71-.21-1.13-.16-.84.12-1.61.35-2.17.32-.56,0-.84-.18-.82-.25.02-.09.3-.08.77-.22.48-.11,1.1-.44,2.07-.7.25-.06.52-.1.82-.11.31,0,.66.06.99.24.33.18.61.48.78.82.17.35.24.7.29,1.02.09.64.1,1.28.33,1.63.19.35.6.46,1.32.51,5.66.53,10.08,1.93,9.99,2.24Z"/>
    <path class="cls-2" d="M112.05,119.97c-.3-.39,1.06-1.63,1.55-3.48.27-.93.29-1.8.23-2.44-.05-.64-.19-1.03-.05-1.21.13-.18.73.06,1.14.85.41.75.61,2,.24,3.25-.34,1.25-1.15,2.19-1.81,2.64-.67.46-1.17.56-1.3.39Z"/>
    <path class="cls-2" d="M115.1,68.78c-.07.13-1.17-.31-2.55-1.58-1.38-1.25-2.97-3.34-4.11-5.94-1.14-2.6-1.7-5.11-1.83-6.97-.13-1.88.29-3.01.44-2.97.18.03.08,1.14.41,2.87.34,1.72,1,4.12,2.09,6.58,1.08,2.47,2.46,4.5,3.61,5.83,1.14,1.35,2.03,2.03,1.93,2.18Z"/>
    <path class="cls-2" d="M113.32,71.65c-.13.18-1.07-.21-2.47-1.07-1.39-.87-3.28-2.3-4.77-4.45-1.5-2.15-2.18-4.43-2.46-6.06-.28-1.65-.17-2.69.04-2.71.23-.03.53.93,1.07,2.42.54,1.48,1.34,3.51,2.69,5.43,1.33,1.93,2.95,3.39,4.13,4.47,1.19,1.07,1.91,1.8,1.78,1.99Z"/>
    <path class="cls-2" d="M102.59,68.26c-.22.25-1.87-1.03-2.98-3.26-1.12-2.2-1.3-4.22-.99-4.29.34-.09,1.03,1.7,2.07,3.74,1.02,2.06,2.13,3.57,1.89,3.81Z"/>
    <path class="cls-2" d="M121.03,71.07c-.12.1-.9-.57-1.69-2-.4-.7-.78-1.63-1.1-2.61-.17-.48-.35-.96-.61-1.32-.26-.36-.62-.63-1.14-.88-.51-.24-1.13-.57-1.6-.96-.48-.39-.89-.82-1.23-1.25-.68-.88-1.12-1.76-1.41-2.53-.57-1.54-.58-2.56-.44-2.59.18-.04.49.89,1.22,2.23.74,1.32,1.89,3.12,4.01,4.02.56.27,1.19.7,1.57,1.29.38.58.55,1.15.7,1.66.27,1.02.52,1.86.81,2.58.55,1.43,1.06,2.26.91,2.37Z"/>
    <path class="cls-2" d="M127.56,68.03c-.08.13-.97-.22-2.07-1.25-.55-.51-1.14-1.2-1.68-2.02-.55-.82-1.04-1.75-1.61-2.65-.58-.9-1.17-1.62-1.91-1.98-.75-.39-1.64-.6-2.33-1.04-.68-.42-1.09-.96-1.28-1.35-.18-.4-.19-.65-.12-.68.17-.09.58.76,1.79,1.27.59.27,1.42.37,2.41.79,1.03.43,1.85,1.39,2.45,2.34.62.97,1.08,1.91,1.54,2.71.46.8.93,1.48,1.36,2.03.86,1.1,1.54,1.68,1.44,1.83Z"/>
    <path class="cls-2" d="M104.86,112.67c-.29.3-2.53-2.73-6.97-2.93-2.37-.41-4.08-1.88-5.01-3-.95-1.16-1.28-2.03-1.15-2.11.15-.1.73.58,1.77,1.51,1.03.91,2.6,2.06,4.61,2.41,1.01.17,2.16.31,3.11.73.94.4,1.69.94,2.24,1.44,1.11,1.02,1.52,1.86,1.4,1.96Z"/>
    <path class="cls-2" d="M120.25,183.79c-.15.1-.65-.56-.87-1.72-.25-1.14-.36-2.68-1.59-3.53-.59-.44-1.31-.68-2.01-.87-.69-.2-1.3-.27-1.9-.39-.6-.11-1.1-.36-1.35-.62-.26-.26-.31-.46-.26-.51.14-.12.65.31,1.71.27.53,0,1.28,0,2.05.15.76.15,1.67.38,2.49.98.83.59,1.34,1.51,1.52,2.33.19.82.17,1.51.2,2.07,0,1.12.16,1.74.02,1.83Z"/>
    <path class="cls-2" d="M113.48,80.2c-.11.17-.99-.45-2.56-.75-1.56-.32-3.83-.1-6.15.78-2.32.86-4.06,2.32-5.13,3.55-1.09,1.22-1.59,2.15-1.76,2.07-.13-.05.09-1.13,1.08-2.59.95-1.46,2.83-3.22,5.38-4.16,2.5-.96,5.08-1.07,6.8-.47,1.72.58,2.44,1.49,2.35,1.58Z"/>
    <path class="cls-2" d="M110.68,79.94c0,.17-.78.28-2,.37-1.21.11-2.88.21-4.57.75-1.69.54-3.02,1.49-3.9,2.27-.88.79-1.37,1.38-1.53,1.29-.13-.08.1-.85.9-1.88.78-1.02,2.23-2.23,4.15-2.84,1.92-.61,3.71-.56,4.95-.45,1.25.13,2,.32,1.99.49Z"/>
    <path class="cls-2" d="M109.11,98.18c-.08-.13.08-.46.6-.67.5-.22,1.4-.17,2.07.35.67.5,1.02,1.18,1.09,1.72.07.54-.13.86-.28.85-.17,0-.3-.26-.53-.56-.22-.3-.56-.7-.99-1.01-.43-.31-.84-.44-1.21-.48-.36-.05-.66-.03-.75-.18Z"/>
    <path class="cls-2" d="M108.2,99.03c-.03.19.11.26.17.44.09.19.16.24.4.46.27.23.47.39.64.5.17.12.37.2.44.35.07.14-.06.41-.49.51-.42.1-.99-.08-1.39-.44-.21-.18-.42-.45-.5-.75-.09-.29-.05-.6.04-.79.09-.2.24-.35.4-.41.17-.06.28.03.27.11Z"/>
    <path class="cls-2" d="M100.14,158.35c-.14-.09-.06-.48-.1-1.06-.02-.29-.07-.64-.19-.96-.03-.08-.06-.17-.1-.25l-.06-.11s0,0-.01,0c0,0-.01,0-.01,0h0s0,0,0,0h0s-.05.11-.05.11c-.06.17-.11.36-.15.56-.07.4-.11.76-.12,1.07-.03.61.07.98-.06,1.09-.12.11-.58-.21-.79-.96-.11-.37-.16-.81-.14-1.31.01-.24.04-.51.13-.81.02-.07.05-.15.08-.23.05-.11.11-.22.18-.33.14-.2.32-.37.54-.47.05-.02.1-.04.15-.05.46-.12.91.12,1.16.52.07.09.12.21.17.29.03.07.06.14.08.2.05.13.08.26.11.39.11.53.05.98-.04,1.35-.2.74-.62,1.06-.74.96Z"/>
    <path class="cls-1" d="M99.29,155.23"/>
    <path class="cls-2" d="M110.72,150.32c.15.43-2.32,1.68-5.46,2.92-3.14,1.24-5.75,2.09-5.95,1.69-.2-.4,2.16-1.94,5.35-3.2,3.18-1.26,5.91-1.83,6.06-1.41Z"/>
    <path class="cls-2" d="M102.87,150.46c.45.03.76.79.71,1.69-.06.91-.47,1.62-.92,1.59-.45-.03-.76-.79-.71-1.69.06-.91.47-1.62.92-1.59Z"/>
    <path class="cls-2" d="M102.8,150.49c0-.15.03-.29.17-.43.08-.07.17-.15.35-.19.09-.02.21-.04.37,0,.16.03.38.14.52.34l.04.05.07.27c.07.3.16.71.12,1.09-.11,1.01-.53,1.73-.95,1.74-.47,0-.77-.91-.66-1.91.04-.32.04-.58.12-.83l.46.1s0,0-.04.09c-.01.05-.03.1-.04.18,0,.08,0,0-.01.01-.03-.05-.12-.09-.19-.14-.16-.09-.29-.21-.3-.36Z"/>
    <path class="cls-2" d="M109.86,157c.11.02.19.13.24.36.02.11.04.26.04.43-.01.1-.05.21-.12.33-.07.12-.17.28-.46.38-.14.05-.34.04-.46,0-.13-.04-.21-.09-.28-.13-.12-.07-.18-.09-.27-.14-.17-.09-.35-.18-.53-.29-.39-.22-.72-.45-1.19-.77-.19-.13-.38-.27-.57-.39l-.12-.08s0,0,0-.02c0-.01,0-.02-.02-.03,0,0-.02-.01-.03-.02,0,0-.02-.01-.09.03-.14.06-.27.13-.39.19-.25.11-.48.2-.68.26-.4.12-.68.12-.77-.02-.1-.14,0-.4.26-.73.13-.17.29-.35.49-.54.1-.1.21-.2.32-.3.05-.05.17-.14.3-.21.13-.08.27-.14.42-.17.2-.03.42-.03.63.05.1.03.21.09.31.13l.19.1c.24.13.46.28.67.42.37.25.81.61,1.15.89.17.15.34.3.48.44.06.06.16.15.18.19,0,.02.02-.02-.06.11-.05.09-.08.14-.09.19-.03.09-.02.1-.02.06,0-.03-.03-.08-.08-.14-.03-.05-.13-.13-.09-.1.02,0,.06-.01.09-.04.06-.09.12-.17.19-.24.13-.13.26-.22.37-.2Z"/>
    <path class="cls-2" d="M109.89,157.24c-.29.34-1.07.16-1.73-.41-.66-.57-.96-1.31-.67-1.65s1.07-.16,1.73.41c.66.57.96,1.31.67,1.65Z"/>
    <path class="cls-2" d="M110.6,150.35c.19-.11.59.2.91.84.15.32.32.68.39,1.24.03.27.03.56-.04.88-.06.31-.21.7-.54,1.03-.35.32-.65.41-.86.5-.23.09-.45.16-.67.23-.42.12-.8.2-1.13.25-.65.09-1.08.07-1.18-.13-.1-.2.2-.56.76-.94.28-.19.62-.38.99-.57.18-.09.37-.19.57-.29.21-.1.37-.19.38-.22.05-.01.19-.38.21-.69.04-.29,0-.69,0-.99,0-.62,0-1.02.2-1.13Z"/>
    <path class="cls-2" d="M109.84,153c.17.42.07.85-.23.97-.29.12-.67-.12-.84-.53-.17-.42-.07-.85.23-.97.29-.12.67.12.84.53Z"/>
    <path class="cls-2" d="M104.36,156.03c.19.4-.37,1.08-1.31,1.42-.94.34-1.82.18-1.92-.26-.11-.44.52-.96,1.37-1.27.85-.3,1.67-.3,1.87.11Z"/>
    <path class="cls-2" d="M120.13,144.66c-.17-.06-.09-.59,0-1.36.11-.76.08-1.76-.43-2.7-.12-.23-.27-.42-.4-.55-.03-.04-.07-.06-.1-.08-.04-.02-.04-.03-.14-.08-.16-.09-.29-.18-.42-.28-.48-.38-.79-.76-1.05-1.08-.51-.65-.78-1.05-.69-1.19.1-.14.62.07,1.28.57.33.24.71.54,1.11.79.1.06.2.12.29.16l.24.12c.09.05.18.11.25.17.31.25.53.56.71.88.7,1.29.54,2.71.19,3.5-.34.81-.69,1.2-.84,1.14Z"/>
    <path class="cls-2" d="M116.47,137.01c-.14.18-.72,0-1.55-.41-.42-.21-.89-.48-1.4-.8-.52-.3-1.09-.61-1.67-.98-.11-.07-.03-.02-.06-.04h0s-.03,0-.12.04c-.16.09-.43.3-.56.43-.32.32-.51.7-.62,1.07-.2.78-.27,1.43-.51,1.44-.2.01-.55-.48-.63-1.56-.02-.55.13-1.27.61-1.91.26-.34.49-.56.88-.83.19-.13.47-.27.83-.3.17-.02.35,0,.52.04.15.03.39.14.42.18.62.39,1.22.78,1.72,1.16.48.4.91.78,1.25,1.11.68.67,1.03,1.17.89,1.35Z"/>
    <path class="cls-2" d="M117.32,142.54c-.17,0-.34-.26-.44-.74-.11-.47-.09-1.28.39-2,.46-.77,1.42-1.11,2.01-.92.65.17.76.64.63.72-.13.11-.4.04-.68.14-.32.09-.65.3-.93.73-.57.86-.58,2.07-.96,2.08Z"/>
    <path class="cls-2" d="M118.55,134.78c-.2.09-.51-.1-.67,0,0,.02.06-.15.04-.15,0-.02,0,.05.12.16l.11.09s0,.02-.01.06l-.11.2c-.08.13-.16.25-.25.38-.73.95-1.51,1.41-1.89,1.2-.41-.23-.09-1.29.58-2.17.08-.11.16-.21.24-.31.09-.1.11-.15.34-.39.2-.19.52-.33.82-.31.3.02.51.15.64.28.46.56.21.91.04.97Z"/>
    <path class="cls-2" d="M118.58,134.64c.38.24.31,1.03-.15,1.78-.46.74-1.15,1.15-1.53.92-.38-.24-.31-1.03.15-1.78.46-.74,1.15-1.15,1.53-.92Z"/>
    <path class="cls-2" d="M118.99,143.9c-.11.13-.57-.07-1.21-.49-.32-.2-.7-.5-1.06-.73-.2-.12-.34-.18-.55-.23-.21-.06-.66-.15-1-.47-.58-.6-.71-1.11-.95-1.32-.21-.24-.61-.38-.99-.56-.38-.18-.69-.45-.8-.69-.12-.23-.11-.38-.04-.42.17-.09.45.21,1.12.29.33.07.87.1,1.44.52.55.45.78,1.05,1.04,1.27.08.08.22.13.52.23.32.09.64.29.86.46.45.37.72.7.98.99.5.58.75,1.01.64,1.14Z"/>
    <path class="cls-2" d="M108.75,136.35c.16-.07.36.04.56.22.18.16.47.46.51.45h0s.09.02.32.02c.23-.01.57.09.7.26.32.37.14.63,0,.65-.15.04-.35-.05-.44.04-.06.04-.03.08-.12.12-.09.03-.31.16-.73.1-.09-.02-.19-.05-.28-.09-.37-.2-.51-.44-.61-.64-.1-.2-.13-.38-.15-.54-.02-.31.06-.52.21-.58Z"/>
    <path class="cls-2" d="M95.79,76.99c.18.15-.17.86-.65,1.99-.48,1.13-1.09,2.71-1.52,4.51-.09.44-.17.86-.25,1.27-.05.4-.06.81-.06,1.21,0,.8.03,1.58,0,2.21-.03,1.27-.16,2.07-.38,2.1-.22.02-.5-.74-.76-2-.13-.63-.27-1.36-.36-2.24-.04-.44-.06-.91-.03-1.42.07-.49.16-.99.26-1.51.47-1.97,1.32-3.63,2.1-4.7.79-1.07,1.49-1.55,1.65-1.41Z"/>
    <path class="cls-2" d="M101.48,107.79c-.14.13-.8-.47-2-1.19-1.18-.77-2.97-1.55-4.88-2.81-1.93-1.26-3.21-3.03-3.86-4.34-.67-1.33-.84-2.24-.69-2.3.16-.07.62.71,1.43,1.85.82,1.15,2.03,2.62,3.81,3.78,1.76,1.17,3.58,2.12,4.7,3.12,1.15.96,1.61,1.79,1.49,1.89Z"/>
    <path class="cls-2" d="M103.05,113.75c-.14.12-.58-.29-1.37-.51-.39-.11-.88-.17-1.43-.14-.56.03-1.2.15-1.94.23-.73.09-1.54.06-2.2-.15-.66-.2-1.18-.49-1.59-.75-.81-.53-1.22-.97-1.14-1.11.08-.15.66.02,1.52.33.43.15.93.32,1.48.43.54.11,1.12.11,1.8.03.68-.07,1.38-.17,2.07-.14.68.03,1.31.2,1.78.47.94.55,1.15,1.23,1.03,1.3Z"/>
    <path class="cls-2" d="M95.15,64.98c.14,0,.31,1.36-.27,3.44-.28,1.04-.74,2.23-1.28,3.5-.54,1.28-1.12,2.64-1.55,4.13-1.75,6.03-.99,11.26-1.36,11.28-.15.03-.54-1.24-.7-3.37-.15-2.11-.03-5.1.89-8.25.45-1.58,1.1-3.01,1.7-4.25.6-1.25,1.12-2.35,1.48-3.31.75-1.9.89-3.19,1.09-3.17Z"/>
    <path class="cls-2" d="M116.33,85.44c-.24.28-2.12-1.2-4.78-2.14-2.65-.98-5.01-.83-5.06-1.19-.02-.16.56-.41,1.57-.51,1-.1,2.44.02,3.9.54,2.96,1.06,4.6,3.08,4.37,3.29Z"/>
    <path class="cls-2" d="M121.46,82.63c-.43.23-2.08-2.57-4.84-5.25-1.37-1.35-2.77-2.36-3.85-3.03-1.07-.67-1.8-1.05-1.73-1.28.05-.2.93-.21,2.23.25,1.3.45,2.99,1.43,4.48,2.9,3.03,2.96,4.08,6.27,3.71,6.42Z"/>
    <path class="cls-2" d="M100.46,53.17c.18.07-.11,1-.09,2.52.01,1.51.34,3.62,1.18,5.8.82,2.19,1.94,4,2.91,5.18.96,1.19,1.73,1.79,1.63,1.95-.07.13-1.05-.23-2.26-1.36-1.21-1.11-2.55-3-3.42-5.33-.9-2.33-1.12-4.65-.9-6.28.21-1.65.82-2.54.95-2.47Z"/>
    <path class="cls-2" d="M115.24,63.14c-.28-.18-.46-.41-.4-.5.06-.09.33-.01.62.17.28.18.46.41.4.5-.06.09-.33.01-.62-.17Z"/>
    <path class="cls-2" d="M120.81,110.86c-.18,0-.31-.3-.54-.67-.24-.38-.58-.82-1.09-1.03-.51-.23-1.27-.32-1.75-.51-.49-.17-.78-.36-.76-.53s.35-.28.87-.32c.51-.01,1.2-.12,2.13.25.44.19.83.54,1.05.89.23.35.33.7.37.99.07.6-.12.95-.28.94Z"/>
    <path class="cls-2" d="M116.46,130.5c-.17-.16.46-1.02,1.52-2.24.52-.61,1.12-1.33,1.63-2.2.52-.9,1.01-1.87,1.26-2.99.22-1.08.3-2.32.45-3.38.07-.87-.07-1.92-.1-2.72-.13-1.64.08-2.76.33-2.73.2.04.39.96.8,2.56.1.4.2.84.29,1.33.08.5.18,1,.17,1.68-.07,1.1-.08,2.25-.36,3.63-.65,2.7-2.36,4.59-3.66,5.64-1.31,1.05-2.17,1.57-2.33,1.42Z"/>
    <path class="cls-2" d="M119.51,130.37c-.18-.29.38-.98,1.02-1.81.66-.83,1.26-1.53,1.57-1.39.3.13.16,1.16-.62,2.14-.77,1-1.81,1.35-1.98,1.06Z"/>
    <path class="cls-2" d="M104.22,141.69c-.15-.08-.09-.46-.09-1,0-.56-.07-1.18-.55-1.77-.24-.32-.56-.67-.79-1.09-.23-.42-.32-.82-.36-1.15-.07-.67.09-1.07.25-1.08.17-.01.33.35.58.84.13.25.28.53.48.78.2.26.49.54.81.95.33.41.56.96.59,1.45.04.49-.05.91-.17,1.23-.25.65-.61.91-.75.83Z"/>
    <path class="cls-2" d="M99.75,131.54c-.16-.06-.16-.48-.15-1.1,0-.61-.02-1.46-.37-2.15-.08-.17-.21-.3-.17-.27,0,0-.01-.03-.03-.03,0-.12-.21.34-.28.6-.18.56-.23.97-.41,1.01-.16.03-.42-.36-.45-1.11,0-.19,0-.39.05-.61.02-.16.15-.64.45-.89.29-.27.77-.31,1.16-.08.18.1.41.31.49.43.11.13.19.27.27.41.55,1.14.36,2.21.14,2.87-.24.67-.54,1-.7.95Z"/>
    <path class="cls-2" d="M105.54,125c.12.43-1.3,1.27-3.16,1.87-1.86.6-3.5.74-3.66.32-.16-.42,1.26-1.26,3.16-1.87,1.9-.61,3.54-.76,3.66-.32Z"/>
    <path class="cls-2" d="M107.47,129.36c.08.13-.38.6-1.34.89-.95.31-2.29.31-3.48.64-1.14.33-2.2,1.24-3.23,1.47-1,.25-1.62.05-1.61-.1,0-.18.56-.3,1.31-.7.37-.2.78-.49,1.29-.84.49-.34,1.12-.77,1.9-.99,1.54-.41,2.81-.24,3.67-.32.87-.04,1.41-.2,1.5-.04Z"/>
    <path class="cls-2" d="M107.1,121.01c.44.03.77,1.34.67,3.07-.04.44-.12.86-.25,1.26-.16.39-.28.81-.85,1.14-.12.08-.33.1-.48.09-.14-.02-.25-.08-.35-.13-.13-.12-.23-.24-.26-.33-.07-.2-.05-.33.04-.4.08-.07.22-.09.38-.07.08.02.15-.02.2-.02,0,0,.01-.06,0,0-.01.03-.01.11,0,.11-.02-.04.02.06-.05-.08-.03-.05-.06-.06-.11-.11-.03-.04-.01-.03-.02-.05,0,0,0-.07,0-.11.01-.12.03-.25.04-.38.03-.32.06-.68.09-1.05.09-1.58.49-2.96.95-2.93Z"/>
    <ellipse class="cls-2" cx="105.93" cy="122.82" rx="2.22" ry=".81" transform="translate(-33.53 205.62) rotate(-79.92)"/>
    <path class="cls-2" d="M107.08,121.07c-.13.31-.42.48-.64.39s-.29-.42-.16-.73c.13-.31.42-.48.64-.39.22.09.29.42.16.73Z"/>
    <path class="cls-2" d="M112.36,127.45c-.2-.11-.11-.64-.2-1.42-.04-.39-.13-.82-.31-1.25-.09-.21-.21-.42-.34-.59-.18-.2-.09-.08-.11-.11h0s-.08.06-.16.11c-.14.09-.27.16-.36.2-.39.16-.69.23-.99.3-.6.13-1.13.19-1.58.22-.9.05-1.48-.04-1.52-.26-.05-.22.45-.53,1.27-.86.41-.17.9-.35,1.42-.54.25-.1.54-.2.73-.3l.06-.03h0s-.02-.04.03.03l.12.15.03.04h0c.04.07-.35-.44-.18-.23h0s.01-.01.01-.01l.02-.02.05-.04.15-.12c.26-.2.55-.36.87-.36.63-.05,1.25.6,1.43.9.24.35.38.71.47,1.05.18.68.15,1.32.03,1.81-.24,1-.77,1.44-.95,1.32Z"/>
    <path class="cls-2" d="M99.64,129.84c-.06.01-.13-.22-.32-.52-.08-.13-.26-.33-.38-.36-.02.02,0-.03-.03.07-.02.09,0,.23,0,.37.01.14.03.27.05.4.02.09,0,.03,0,.07-.01.03.04.17.06.09.04-.07.11-.26.17-.27.06,0,.08.25.02.78-.02.15-.01.25-.17.25-.1-.02-.15-.04-.25-.2-.08-.15-.18-.46-.22-.64-.03-.14-.06-.29-.07-.44-.01-.15-.03-.3.01-.48.02-.08.06-.2.17-.29.1-.08.24-.09.35-.06.35.16.43.4.53.59.15.39.11.65.06.65Z"/>
    <path class="cls-2" d="M119.47,143.23c-.06-.03.08-.36.14-.92.03-.27.04-.61-.05-.94-.07-.31-.33-.73-.57-.71-.24.02-.45.45-.44.77,0,.17.02.33.06.47.02.07.05.14.08.18.02.03.03.04.05.05.03.02.11-.07.14-.17.04-.09.06-.19.08-.26.03-.16.06-.25.09-.25.03,0,.06.09.07.26,0,.08,0,.19-.02.32-.03.11-.07.32-.33.4-.12.03-.25-.06-.33-.15-.07-.08-.11-.16-.15-.25-.08-.18-.12-.38-.12-.6,0-.21.03-.45.14-.67.11-.21.3-.46.64-.5.35-.01.57.22.7.41.14.2.21.41.26.62.08.42.04.78-.03,1.08-.15.59-.38.89-.42.87Z"/>
    <path class="cls-2" d="M99.8,156.06c0,.08-.2.35-.18.9,0,.26,0,.53.03.61,0,.03,0,.05.03.06.03,0,.07-.02.1-.01.02,0,.05.05.01.13-.03.09-.24.14-.36.01-.21-.23-.21-.51-.22-.81,0-.3.09-.61.24-.78.15-.18.34-.18.34-.12Z"/>
    <path class="cls-2" d="M114.48,126.1c.14.08.11.49-.29,1.01-.39.52-1.2.96-1.97,1.25-1.58.62-2.95.87-3.08.55s1.05-1.07,2.63-1.69c.81-.3,1.42-.51,1.84-.76.43-.23.71-.45.86-.36Z"/>
    <path class="cls-2" d="M96.47,158.87c-.05-.09.33-.44,1.14-.61.39-.09.92-.08,1.42.02.25.04.48.08.69.08.2,0,.41-.07.68-.16.27-.09.58-.21.95-.2.39,0,.72.22.91.35.21.14.35.23.45.23.12.02.28-.04.44-.11.32-.15.63-.3.88-.32.25-.02.38.07.37.12,0,.06-.12.09-.28.18-.16.09-.36.28-.69.51-.17.11-.38.26-.71.28-.35.02-.64-.15-.85-.26-.23-.13-.37-.2-.53-.19-.17,0-.4.07-.67.17-.26.09-.6.2-.95.19-.33,0-.61-.08-.85-.14-.47-.13-.85-.18-1.2-.18-.7,0-1.15.15-1.2.04Z"/>
  </g>
  <path class="cls-2" d="M128.28,103.96c-.15-.2,1.2-1.29,2.28-3.76,1.12-2.43,1.9-6.16,1.55-10.28-.28-4.13-1.69-7.65-2.86-10.14-1.18-2.49-1.96-4.06-1.75-4.18.18-.11,1.29,1.22,2.77,3.64.72,1.21,1.52,2.72,2.17,4.51.65,1.79,1.13,3.85,1.3,6.04.38,4.39-.66,8.44-2.15,10.93-1.47,2.56-3.22,3.42-3.31,3.24Z"/>
  <path class="cls-2" d="M68.48,76.09s.06.5.1,1.39c.04.9.09,2.19.22,3.78.13,1.59.39,3.48.97,5.5.56,2.03,1.49,4.17,2.75,6.24,2.55,4.15,5.9,7.15,8.38,9.13,1.26.97,2.4,1.6,3.22,1.93.83.33,1.32.42,1.31.45,0,.01-.13,0-.36-.04-.23-.04-.58-.12-1-.27-.86-.29-2.04-.89-3.34-1.85-2.55-1.93-5.97-4.92-8.56-9.14-1.28-2.11-2.21-4.29-2.76-6.35-.57-2.06-.8-3.98-.89-5.58-.1-1.61-.1-2.91-.09-3.8,0-.45.02-.8.02-1.03,0-.24.02-.36.04-.36Z"/>
  <path class="cls-2" d="M73.29,64.2c.24.08-.26,1.92-.58,4.93-.32,3-.44,7.21.46,11.7.88,4.49,2.72,8.28,4.49,10.67,1.76,2.42,3.35,3.48,3.21,3.7-.07.17-1.98-.58-4.1-2.98-2.12-2.35-4.27-6.33-5.19-11.07-.95-4.74-.63-9.14,0-12.2.63-3.08,1.53-4.82,1.72-4.75Z"/>
  <path class="cls-2" d="M92.99,41.3s.02.16.01.47c-.01.31-.03.76-.05,1.34-.07,1.16-.16,2.85-.52,4.9-.35,2.05-1.11,4.52-2.79,6.75-1.64,2.27-4.13,4.09-6.36,6.3-2.28,2.19-3.69,4.9-4.53,7.49-.84,2.6-1.21,5.05-1.38,7.11-.17,2.06-.14,3.74-.09,4.9.05,1.16.11,1.8.07,1.8-.01,0-.04-.16-.09-.46-.04-.3-.11-.75-.15-1.33-.1-1.16-.18-2.85-.04-4.93.14-2.08.47-4.56,1.31-7.2.82-2.63,2.27-5.44,4.59-7.67,2.27-2.25,4.73-4.03,6.34-6.24,1.66-2.17,2.43-4.56,2.81-6.58.4-2.03.53-3.71.65-4.86.06-.58.1-1.03.13-1.33.03-.3.06-.46.07-.46Z"/>
  <path class="cls-2" d="M84.07,27.58c.09-.11,1.16.65,2.33,2.36,1.18,1.69,2.36,4.35,2.96,7.43.64,3.08.56,5.95.28,7.97-.29,2.03-.76,3.22-.91,3.18-.18-.04-.02-1.28.05-3.25.05-1.98-.01-4.72-.62-7.66-.58-2.95-1.56-5.5-2.5-7.22-.92-1.73-1.73-2.67-1.6-2.81Z"/>
  <path class="cls-2" d="M81.57,136.81s-.23-.38-.55-1.1c-.32-.72-.76-1.78-1.22-3.12-.91-2.66-1.86-6.55-1.59-10.89.11-2.16.62-4.21,1.25-5.95.28-.87.45-1.74.33-2.52-.12-.79-.57-1.42-1.16-1.73-.59-.34-1.22-.39-1.78-.51-.56-.11-1.03-.31-1.35-.56-.33-.25-.51-.52-.6-.7-.1-.19-.13-.3-.12-.3.05-.03.17.43.81.87.31.22.76.37,1.3.47.53.09,1.21.12,1.87.48.67.33,1.22,1.06,1.36,1.93.15.87-.03,1.79-.3,2.68-.62,1.77-1.1,3.73-1.21,5.87-.27,4.27.62,8.11,1.45,10.78.42,1.34.82,2.41,1.09,3.14.28.74.43,1.14.41,1.16Z"/>
  <path class="cls-2" d="M128.44,137.69c-.24-.12.74-2.21,1-5.89.17-1.83.19-4.04.26-6.51.09-2.47.17-5.25.86-8.14.69-2.91,2.02-5.39,3.11-7.58,1.12-2.19,1.96-4.17,2.44-5.94,1-3.52.58-5.83.84-5.87.1-.02.34.53.49,1.6.15,1.06.17,2.65-.21,4.54-.35,1.89-1.14,4.07-2.21,6.32-1.03,2.26-2.25,4.64-2.88,7.31-.64,2.67-.78,5.37-.94,7.82-.15,2.46-.3,4.71-.62,6.59-.57,3.8-1.99,5.86-2.14,5.74Z"/>
  <path class="cls-2" d="M146.77,215.51c-.05.06-.6-.34-1.49-1.17-.9-.82-2.1-2.13-3.4-3.89-2.59-3.49-5.45-9.05-6.34-15.73-.48-3.33-.32-6.52-.37-9.34-.04-2.83-.29-5.36-.59-7.49-.6-4.25-1.27-6.84-1.09-6.89.14-.04,1.1,2.48,1.94,6.75.41,2.14.76,4.72.86,7.6.11,2.88-.01,6,.46,9.2.86,6.45,3.49,11.87,5.84,15.41,2.36,3.57,4.33,5.4,4.18,5.55Z"/>
  <path class="cls-2" d="M89.73,94.47c0,.14-.91.34-2.29-.13-1.37-.46-3.03-1.7-4.26-3.48-1.23-1.78-1.88-3.64-2.15-5-.27-1.37-.21-2.24-.06-2.26.38-.08.93,3.29,3.21,6.56,1.13,1.62,2.49,2.79,3.61,3.39,1.12.61,1.95.73,1.94.92Z"/>
  <path class="cls-2" d="M87.78,99.77c-.07.32-1.4.29-2.84-.4-1.44-.68-2.31-1.66-2.12-1.93.2-.28,1.32.21,2.64.83,1.31.63,2.39,1.17,2.32,1.5Z"/>
  <path class="cls-2" d="M126.56,80.01c.23-.05.69,1.13,1.55,3,.42.95.94,2.08,1.37,3.43.44,1.34.77,2.94.71,4.64-.13,3.41-1.63,6.19-2.91,7.86-1.29,1.69-2.27,2.54-2.44,2.41-.19-.14.48-1.27,1.47-3.04.98-1.76,2.14-4.32,2.25-7.3.11-2.95-.99-5.6-1.54-7.61-.6-2.01-.69-3.35-.47-3.4Z"/>
  <path class="cls-2" d="M136.8,88.06c-.18.02-.42-1.1-1.16-2.78-.36-.84-.85-1.81-1.42-2.91-.56-1.1-1.16-2.31-1.87-3.49-.7-1.19-1.53-2.18-2.37-3.07-.83-.89-1.61-1.71-2.23-2.41-1.25-1.4-1.96-2.32-1.84-2.44.12-.12,1.05.59,2.45,1.83.7.62,1.52,1.36,2.42,2.23.9.86,1.86,1.95,2.61,3.22.76,1.26,1.33,2.51,1.84,3.64.51,1.13.94,2.18,1.22,3.1.56,1.84.5,3.06.35,3.07Z"/>
  <path class="cls-2" d="M140.19,121.82s.03-.17.12-.49c.09-.32.23-.78.4-1.39.35-1.2.86-2.94,1.38-5.12,1.09-4.33,2.04-10.5,1.58-17.31-.4-6.81-2.06-12.84-3.79-16.95-.4-1.04-.87-1.94-1.24-2.75-.42-.78-.78-1.46-1.07-2.01-.32-.54-.57-.95-.74-1.24-.17-.29-.25-.44-.24-.45.01,0,.12.13.3.4.19.28.46.68.81,1.2.32.54.71,1.2,1.14,1.99.39.8.88,1.7,1.3,2.74,1.81,4.11,3.53,10.17,3.94,17.03.46,6.86-.54,13.08-1.7,17.41-.56,2.17-1.11,3.9-1.51,5.09-.21.59-.36,1.05-.47,1.36-.11.31-.18.47-.19.47Z"/>
  <path class="cls-2" d="M111.95,48.49c-.07.19-1.25,0-2.94-.87-1.69-.86-3.81-2.5-5.62-4.74-1.83-2.23-3.04-4.56-3.73-6.29-.68-1.74-.88-2.89-.68-2.97.47-.19,2.21,4.02,5.66,8.23,1.71,2.11,3.54,3.75,4.98,4.8,1.43,1.06,2.42,1.62,2.33,1.85Z"/>
  <path class="cls-1" d="M114.5,46.42"/>
  <path class="cls-2" d="M131.31,52.11c-.16.32-3.67-1.3-8.22-2.51-1.14-.3-2.23-.55-3.23-.76-.99-.2-1.94-.37-2.72-.65-1.58-.54-2.26-1.41-2.15-1.51.11-.15.91.4,2.38.68.73.15,1.64.23,2.68.38,1.04.15,2.18.37,3.35.69,4.72,1.25,8.07,3.41,7.91,3.68Z"/>
  <path class="cls-2" d="M147.91,141.2c-.17-.12,2.43-3.09,4.67-8.91,1.13-2.89,2.15-6.46,2.87-10.51.73-4.05,1.14-8.56,1.23-13.32.21-9.52-.83-18.14-2.66-24.08-.91-2.97-1.96-5.26-2.79-6.78-.21-.38-.4-.72-.56-1.01-.18-.28-.33-.53-.45-.72-.24-.4-.35-.62-.31-.64.03-.03.21.15.51.5.15.18.33.4.55.66.19.28.42.6.67.97.98,1.47,2.18,3.77,3.21,6.76,2.08,6,3.27,14.76,3.06,24.37-.1,4.81-.55,9.4-1.35,13.5-.79,4.11-1.92,7.72-3.18,10.63-1.24,2.91-2.59,5.11-3.64,6.53-1.05,1.42-1.77,2.1-1.82,2.05Z"/>
  <path class="cls-2" d="M59.46,50.22c-.29-.18,1.32-3.4,3.37-7.34,2.05-3.94,3.77-7.11,4.09-6.97.3.13-.94,3.56-3,7.53-2.06,3.98-4.17,6.95-4.45,6.78Z"/>
  <path class="cls-2" d="M69.11,98.38c-.07.12-1.35-.4-2.99-1.86-1.64-1.45-3.52-3.9-4.89-6.92-1.4-3.02-2.08-5.98-2.36-8.11-.27-2.15-.19-3.49-.04-3.5.39-.05.81,5.28,3.51,11.1,1.32,2.91,2.99,5.29,4.4,6.82,1.4,1.55,2.48,2.31,2.38,2.47Z"/>
  <path class="cls-2" d="M57.31,112.44c-.08.13-1.22-.4-2.8-1.67-1.57-1.26-3.5-3.32-5.16-5.91-3.34-5.21-4.34-10.17-4.06-10.23.36-.12,1.86,4.56,5.08,9.57,1.6,2.5,3.34,4.56,4.71,5.93,1.37,1.39,2.32,2.16,2.22,2.31Z"/>
  <path class="cls-2" d="M87.81,178.58s-.35-.25-.93-.76c-.58-.52-1.39-1.3-2.3-2.35-1.85-2.07-4.08-5.25-5.92-9.07-1.88-3.81-3.02-7.49-3.71-10.18-.33-1.35-.57-2.44-.69-3.21-.13-.76-.19-1.19-.17-1.19.03,0,.14.41.32,1.16.17.75.46,1.84.82,3.17.76,2.65,1.94,6.3,3.8,10.07,1.83,3.79,4,6.95,5.78,9.06.88,1.06,1.65,1.87,2.19,2.42.55.54.84.86.82.88Z"/>
  <path class="cls-2" d="M68.62,177.99c-.13.08-1.16-1.28-2.48-3.71-1.32-2.41-2.87-5.91-4.1-9.93-1.25-4.02-1.93-7.77-2.27-10.5-.33-2.73-.33-4.43-.18-4.45.37-.04,1.16,6.68,3.61,14.59,2.38,7.94,5.72,13.82,5.41,14Z"/>
  <path class="cls-2" d="M164.93,64.64c-.13.13-1.88-1.51-4.9-3.9-3.02-2.38-7.37-5.47-12.66-7.97-2.63-1.27-5.26-2.15-7.68-3.08-2.41-.94-4.53-2.05-6.07-3.31-1.56-1.24-2.56-2.54-3.12-3.48-.57-.94-.78-1.52-.72-1.55.09-.05.43.45,1.1,1.27.67.83,1.71,1.98,3.25,3.06,1.53,1.11,3.57,2.08,5.95,2.95,2.38.85,5.11,1.73,7.8,3.03,5.42,2.55,9.78,5.83,12.69,8.41,2.92,2.59,4.45,4.46,4.35,4.56Z"/>
  <path class="cls-2" d="M174.29,120.83c-.37-.07,1.34-7.51.88-16.81-.33-9.31-2.75-16.54-2.4-16.65.14-.05.95,1.69,1.78,4.67.44,1.49.81,3.29,1.16,5.31.31,2.02.56,4.26.67,6.62.2,4.72-.21,9-.77,12.04-.56,3.04-1.18,4.85-1.33,4.82Z"/>
  <path class="cls-2" d="M70.76,55.09c-.15-.1.23-.93.76-2.29.54-1.36,1.18-3.27,1.77-5.42,1.16-4.32,2.02-7.91,2.38-7.84.3.06,0,3.74-1.2,8.17-.61,2.21-1.41,4.16-2.17,5.47-.75,1.32-1.41,2.01-1.54,1.92Z"/>
  <path class="cls-2" d="M73.77,69.49c-.31-.14-.27-.91.09-1.72.36-.81.9-1.36,1.21-1.23s.27.91-.09,1.72c-.36.81-.9,1.36-1.21,1.23Z"/>
  <path class="cls-2" d="M75.52,65.57c-.29-.18.56-2.16,1.6-4.59,1.04-2.43,1.91-4.41,2.24-4.31.32.09-.05,2.29-1.12,4.79-1.07,2.51-2.43,4.28-2.72,4.11Z"/>
  <path class="cls-2" d="M143.42,73.3c-.2.26-3-1.57-6.01-4.37-3.02-2.79-5.07-5.42-4.83-5.64.25-.23,2.68,2,5.66,4.75,2.97,2.76,5.39,4.99,5.18,5.26Z"/>
  <path class="cls-2" d="M140.74,161.71c-.06.11-1.54-.37-3.45-2.02-1.9-1.62-3.87-4.89-3.84-8.83.03-3.93,1.85-7.15,3.43-9.01,1.61-1.88,2.8-2.81,2.91-2.71.15.13-.85,1.29-2.22,3.23-.67.98-1.4,2.19-1.95,3.63-.55,1.44-.95,3.11-.95,4.87-.01,1.76.39,3.42,1,4.82.6,1.41,1.42,2.54,2.22,3.39,1.63,1.69,2.96,2.46,2.85,2.63Z"/>
  <path class="cls-2" d="M150.82,194.94c-.19-.03.1-1.83-.09-4.72-.15-2.89-.93-6.84-1.93-11.2-.96-4.35-2.2-8.17-3.66-10.65-1.41-2.52-2.92-3.57-2.81-3.72.06-.15,1.85.72,3.54,3.26,1.73,2.49,3.15,6.44,4.12,10.83,1,4.37,1.67,8.45,1.6,11.45-.03,3-.63,4.78-.77,4.74Z"/>
  <path class="cls-2" d="M130.89,166.05c-.08.13-.63-.01-1.31-.56-.68-.54-1.45-1.5-1.98-2.7-1.09-2.42-.88-4.6-.57-4.59.36-.03.7,1.94,1.68,4.09.48,1.08,1.04,1.98,1.49,2.61.45.63.78,1.01.69,1.16Z"/>
  <path class="cls-2" d="M89.52,162.8c-.1.12-.83-.29-1.55-1.38-.72-1.07-1.37-2.79-1.46-4.76-.09-1.97.38-3.73.95-4.88.57-1.16,1.2-1.69,1.32-1.59.15.11-.2.77-.52,1.91-.32,1.13-.62,2.74-.54,4.51.08,1.77.53,3.34,1,4.41.46,1.07.92,1.66.8,1.8Z"/>
  <path class="cls-1" d="M95.98,185.14"/>
  <path class="cls-2" d="M81.52,151.97s-.13-.39-.3-1.1c-.18-.71-.41-1.74-.77-3-.37-1.25-.84-2.74-1.71-4.21-.44-.73-.99-1.44-1.68-2.05-.68-.63-1.48-1.17-2.31-1.72-.83-.55-1.65-1.11-2.36-1.76-.71-.65-1.3-1.37-1.79-2.1-.98-1.45-1.6-2.95-1.81-4.27-.21-1.32-.05-2.41.17-3.12.11-.35.23-.62.34-.79.1-.17.17-.25.18-.24.03.02-.19.36-.36,1.07-.17.7-.28,1.76-.03,3.03.49,2.51,2.43,5.83,5.9,7.84.83.55,1.65,1.11,2.36,1.77.71.64,1.29,1.4,1.73,2.15.88,1.53,1.33,3.06,1.67,4.32.33,1.27.52,2.32.65,3.04.12.72.18,1.13.15,1.13Z"/>
  <path class="cls-2" d="M87.76,122.33c-.13-.13.31-.69.64-1.74.34-1.03.6-2.57.36-4.2-.23-1.62-1.01-2.95-1.8-3.59-.8-.66-1.53-.62-1.55-.8-.01-.07.16-.21.52-.25.36-.05.92.02,1.51.34,1.17.62,2.27,2.22,2.54,4.13.27,1.91-.18,3.64-.78,4.72-.6,1.11-1.34,1.52-1.43,1.39Z"/>
  <path class="cls-2" d="M91.23,147.71c-.07.14-.64.05-1.45-.39-.8-.43-1.8-1.24-2.65-2.33-1.73-2.2-2.21-4.43-1.92-4.53.33-.13,1.29,1.78,2.87,3.77,1.55,2.03,3.29,3.18,3.15,3.48Z"/>
  <path class="cls-2" d="M132.04,135.72c-.15-.02-.17-1.14.19-2.89.35-1.76,1.16-4.09,2.11-6.58.95-2.49,1.67-4.76,2.01-6.45.35-1.69.45-2.77.64-2.77.15,0,.36,1.1.22,2.9-.13,1.8-.76,4.23-1.72,6.75-.96,2.52-1.87,4.74-2.42,6.39-.56,1.64-.84,2.69-1.03,2.66Z"/>
  <path class="cls-2" d="M141.14,130.88c-.15-.08.35-1.28,1.25-3.17.89-1.89,2.18-4.46,3.42-7.36,1.26-2.9,2.17-5.6,2.77-7.59.59-1.98.91-3.24,1.09-3.21.15.02.13,1.34-.26,3.42-.39,2.08-1.2,4.9-2.48,7.86-1.27,2.96-2.69,5.5-3.79,7.29-1.09,1.79-1.86,2.84-2.01,2.76Z"/>
  <path class="cls-2" d="M153.72,118.45s-.01-.44.04-1.22c.06-.78.12-1.92.15-3.31.06-2.8-.04-6.68-.71-10.9-.66-4.22-1.74-7.95-2.74-10.56-.24-.66-.47-1.25-.69-1.76-.21-.52-.4-.96-.56-1.31-.32-.71-.49-1.12-.47-1.13s.24.36.61,1.06c.19.34.4.78.63,1.29.24.51.5,1.09.75,1.74,1.07,2.6,2.21,6.35,2.87,10.61.68,4.25.74,8.16.6,10.97-.07,1.41-.17,2.54-.28,3.32-.1.78-.17,1.21-.2,1.21Z"/>
  <path class="cls-2" d="M81.57,38.04c-.19.01-.34-1.53-1.01-3.9-.66-2.35-1.95-5.54-4.2-8.5-2.25-2.96-5.02-4.99-7.06-6.38-2.06-1.38-3.37-2.23-3.28-2.38.08-.14,1.52.43,3.73,1.65,2.19,1.22,5.19,3.23,7.58,6.37,2.39,3.13,3.6,6.54,4.07,9.04.47,2.51.31,4.09.17,4.1Z"/>
  <path class="cls-2" d="M106.32,24.5c.06.33-.53.7-1.29.59-.76-.11-1.22-.61-1.08-.91.14-.31.68-.37,1.25-.29.56.08,1.07.28,1.12.62Z"/>
  <path class="cls-2" d="M99.2,19c-.03.32-2.73.24-5.79-.96-3.06-1.18-5.13-2.88-4.95-3.15.19-.3,2.47.89,5.39,2.01,2.91,1.15,5.4,1.75,5.35,2.1Z"/>
  <path class="cls-2" d="M111.31,36.78c-.06.15-.67.06-1.55-.37-.88-.42-1.99-1.22-2.97-2.33-1.99-2.22-2.69-4.56-2.4-4.68.32-.16,1.47,1.83,3.3,3.86,1.8,2.07,3.74,3.19,3.62,3.51Z"/>
  <path class="cls-2" d="M180.29,92.82s-.07-.16-.15-.48c-.08-.32-.21-.79-.37-1.39-.38-1.19-.88-2.92-1.83-4.93-1.8-4.04-5.46-9.19-10.93-13.22-2.72-2.02-5.55-3.61-8.11-5.07-2.57-1.45-4.87-2.78-6.74-4.02-1.86-1.24-3.29-2.35-4.23-3.19-.48-.4-.82-.75-1.06-.97-.24-.23-.36-.35-.35-.36,0-.01.15.09.4.3.26.2.61.53,1.11.91.96.79,2.41,1.86,4.28,3.07,1.87,1.2,4.18,2.5,6.76,3.93,2.57,1.44,5.42,3.03,8.17,5.07,5.53,4.08,9.2,9.32,10.95,13.43.92,2.05,1.39,3.81,1.72,5.01.13.61.23,1.09.29,1.41.06.32.09.49.07.5Z"/>
  <path class="cls-2" d="M172.32,113.55s-.01-.44.03-1.22c.06-.78.09-1.92.1-3.31-.03-2.79-.3-6.68-1.4-10.8-1.05-4.13-2.71-7.67-4.24-10-1.52-2.35-2.81-3.53-2.75-3.59.02-.02.34.28.9.83.29.27.59.65.95,1.08.37.42.74.95,1.14,1.52,1.62,2.31,3.33,5.88,4.4,10.05,1.11,4.17,1.34,8.1,1.3,10.91-.04,1.41-.11,2.55-.23,3.33-.1.78-.16,1.21-.19,1.21Z"/>
  <path class="cls-2" d="M158.6,175c-.07.03-.49-.87-1.13-2.55-.63-1.67-1.5-4.12-2.34-7.22-.84-3.1-1.66-6.86-1.93-11.14-.29-4.25.11-9.07,1.72-13.77,1.58-4.7,3.83-8.8,5.43-12.67,1.63-3.84,2.5-7.53,2.81-10.67.16-1.57.17-2.99.11-4.24-.1-1.24-.25-2.31-.46-3.17-.41-1.71-.86-2.6-.76-2.65.04-.02.18.19.41.6.24.41.52,1.06.8,1.92.29.86.52,1.95.68,3.23.14,1.28.18,2.75.08,4.37-.21,3.23-1.02,7.05-2.63,11.02-1.57,3.96-3.78,8.07-5.31,12.63-1.56,4.55-1.98,9.16-1.76,13.32.2,4.17.92,7.9,1.65,10.99,1.49,6.18,2.83,9.92,2.63,9.98Z"/>
  <path class="cls-2" d="M55.49,99.85s-.83-.73-2.09-2.28c-1.26-1.54-2.94-3.91-4.54-7.11-1.62-3.18-3.12-7.18-4.2-11.78-1.06-4.6-1.64-9.79-1.5-15.24.14-5.44.95-10.6,2.22-15.15.64-2.27,1.39-4.39,2.21-6.32.81-1.94,1.72-3.66,2.49-5.27,1.58-3.18,2.48-5.93,2.8-7.88.16-.98.22-1.75.24-2.27.01-.26.02-.46.03-.59,0-.13.02-.2.02-.2,0,0,.13,1.11-.14,3.09-.27,1.98-1.15,4.77-2.69,7.98-.75,1.62-1.64,3.35-2.44,5.27-.8,1.92-1.54,4.03-2.16,6.29-1.24,4.52-2.04,9.65-2.18,15.06-.14,5.41.42,10.57,1.45,15.14,1.05,4.57,2.52,8.56,4.09,11.73,1.55,3.19,3.18,5.57,4.4,7.14.62.78,1.11,1.37,1.46,1.76.17.2.3.35.39.45.09.1.13.16.12.16Z"/>
  <path class="cls-2" d="M57.53,89.04c-.14.07-.96-1.12-2.08-3.18-1.11-2.06-2.52-5.01-3.51-8.49-.99-3.48-1.28-6.78-1.18-9.14.1-2.37.51-3.79.66-3.76.18.03.08,1.46.2,3.76.12,2.29.53,5.45,1.49,8.81.95,3.37,2.21,6.31,3.11,8.45.91,2.13,1.46,3.48,1.3,3.56Z"/>
  <path class="cls-2" d="M89.12,108.45c0,.16-.83.29-2.18.3-1.34,0-3.26-.12-5.27-.89-2-.77-3.51-2.09-4.35-3.18-.85-1.1-1.12-1.92-.99-2,.29-.22,2.12,2.66,5.78,4.05,1.8.7,3.59.95,4.89,1.17,1.3.21,2.13.38,2.12.56Z"/>
  <path class="cls-2" d="M126.17,129.27s-.16-.36-.37-1.04c-.2-.68-.44-1.68-.64-2.93-.4-2.5-.6-6.06.08-9.89.67-3.83,2.14-7.12,3.59-9.21.71-1.06,1.4-1.83,1.91-2.33.25-.25.46-.43.61-.55.14-.12.22-.18.23-.17.06.06-1.16,1.07-2.51,3.2-1.37,2.1-2.77,5.34-3.43,9.12-.67,3.78-.52,7.29-.19,9.78.16,1.25.36,2.25.51,2.94.15.69.24,1.07.21,1.08Z"/>
  <path class="cls-2" d="M139.23,116.1c-.32-.14.49-2.67.97-5.89.52-3.21.59-5.88.94-5.9.32-.03.81,2.72.27,6.09-.51,3.38-1.89,5.84-2.18,5.7Z"/>
  <path class="cls-2" d="M147.25,69.5c-.08.14-.89-.14-2.04-.87-1.15-.73-2.62-1.94-3.97-3.52-2.73-3.17-3.92-6.37-3.64-6.5.32-.17,1.96,2.69,4.56,5.7,2.57,3.05,5.26,4.89,5.09,5.19Z"/>
  <path class="cls-2" d="M156.8,122.02c-.18-.04.28-2.38.87-6.17.59-3.79,1.28-9.05,1.45-14.88.07-2.92,0-5.69-.15-8.21-.21-2.51-.43-4.78-.77-6.66-.61-3.77-1.27-6.07-1.07-6.13.13-.05,1.08,2.17,1.92,5.97.45,1.89.77,4.18,1.04,6.74.22,2.56.32,5.38.24,8.34-.18,5.92-1.01,11.23-1.82,15-.82,3.78-1.57,6.05-1.72,6.02Z"/>
  <path class="cls-2" d="M126.91,185.06c-.15-.02-.1-1.76.65-4.45.19-.67.44-1.41.73-2.16.27-.74.56-1.54.62-2.34.03-.4,0-.79-.13-1.14-.12-.34-.35-.65-.68-.98-.64-.65-1.4-1.21-2.31-1.53-1.81-.68-3.79-.49-5.53-.21-1.77.31-3.42.63-4.85.64-1.43.03-2.59-.27-3.31-.6-.73-.34-1.05-.65-1.01-.71.08-.19,1.61.74,4.28.45,1.33-.11,2.88-.5,4.69-.88,1.8-.34,3.98-.64,6.16.17,1.08.38,2.01,1.07,2.74,1.84.36.36.74.85.92,1.42.18.55.2,1.12.14,1.62-.12,1.02-.48,1.85-.8,2.61-.33.74-.61,1.41-.84,2.05-.93,2.55-1.29,4.22-1.47,4.19Z"/>
  <path class="cls-2" d="M121.5,155.26c-.16,0-.29-.8-.2-2.07.09-1.27.44-3.03,1.26-4.82.83-1.75,1.62-3.19,1.88-4.33.3-1.13.21-1.89.39-1.93.14-.05.57.72.46,2.07-.07,1.35-.83,3.03-1.62,4.7-1.52,3.34-1.81,6.42-2.17,6.39Z"/>
  <path class="cls-2" d="M127.78,151.5c-.06.04-.31-.22-.56-.8-.24-.58-.45-1.48-.41-2.6.04-1.12.28-2.45.97-3.81.68-1.34,1.83-2.57,3.07-3.64,4.95-4.13,7.49-8.82,7.83-8.61.14.08-.34,1.33-1.48,3.17-1.12,1.83-3.01,4.25-5.54,6.36-1.22,1.05-2.24,2.11-2.89,3.27-.64,1.14-.96,2.34-1.09,3.34-.29,2.04.27,3.26.11,3.33Z"/>
  <path class="cls-2" d="M142.4,155.21c-.12.09-.97-.87-1.53-2.8-.57-1.9-.82-4.72-.09-7.69.73-2.99,2.4-5.35,3.93-6.63,1.53-1.31,2.77-1.63,2.82-1.49.09.17-.96.75-2.23,2.11-1.27,1.34-2.68,3.55-3.35,6.3-.68,2.74-.58,5.38-.25,7.2.31,1.84.86,2.9.69,2.99Z"/>
  <path class="cls-2" d="M141.33,198.58c-.17.01-.47-2.37-.47-6.21-.07-3.83.32-9.16-.64-14.83-.24-1.41-.6-2.77-1.04-4.03-.46-1.25-1.04-2.41-1.67-3.48-1.27-2.13-2.67-3.96-3.67-5.63-2.05-3.35-2.31-5.86-2.19-5.86.2-.06.75,2.28,2.91,5.4,1.06,1.57,2.52,3.32,3.9,5.51.69,1.09,1.32,2.32,1.83,3.65.49,1.33.87,2.76,1.12,4.23.52,2.94.6,5.77.57,8.32-.04,2.55-.18,4.83-.27,6.74-.22,3.82-.22,6.18-.39,6.2Z"/>
  <path class="cls-2" d="M143.61,203.53c-.15.03-.59-1.13-.92-3.11-.32-1.97-.51-4.76-.17-7.82.35-3.04.97-5.69,1.27-7.62.33-1.93.45-3.14.62-3.14.16,0,.35,1.24.23,3.24-.09,2-.58,4.71-.92,7.66-.67,5.91.23,10.73-.12,10.8Z"/>
  <path class="cls-2" d="M88.84,142.17c-.14.08-.49-.19-.91-.76-.41-.57-.9-1.47-1.06-2.61-.15-1.15.11-2.2.53-2.86.43-.69,1.03-.81,1.08-.65.07.16-.17.44-.3,1.01-.14.56-.23,1.43-.11,2.33.13.92.42,1.75.62,2.39.2.63.29,1.07.15,1.16Z"/>
  <path class="cls-2" d="M106.24,177.4s-.15.43-.79.89c-.61.44-1.83.91-3.25.46-1.4-.45-2.75-1.67-3.42-3.51-.33-.97-.15-2.19.51-3.09.32-.47.8-.84,1.23-1.11.44-.28.82-.49,1.15-.78.66-.57,1.2-1.37,1.54-2.1.12-.31.08-.53-.05-.66-.07-.07-.19-.15-.32-.18-.1-.04-.31-.04-.52-.05-1.61-.07-3.14.33-4.46.48-1.33.17-2.46.11-3.2-.11-.74-.22-1.08-.49-1.05-.55.04-.09.43.02,1.13.08.7.07,1.72,0,2.97-.27,1.26-.24,2.77-.75,4.64-.75.4-.01,1.14.04,1.63.54.54.51.58,1.37.34,1.92-.43.99-1.01,1.84-1.85,2.59-.42.37-.92.65-1.3.88-.39.24-.69.48-.91.78-.46.62-.6,1.39-.4,2.07.46,1.43,1.56,2.6,2.63,3.01,1.1.46,2.11.21,2.73-.06.63-.28.95-.55,1.02-.48Z"/>
  <path class="cls-2" d="M121.8,198.07c.01.08-.45.26-1.33.46-.87.18-2.21.48-3.9.13-1.7-.33-3.5-1.71-4.48-3.75-.5-1-.8-2.21-.88-3.38-.08-1.16-.28-2.13-1.08-2.8-.77-.66-1.88-.98-2.92-1.05-1.07-.08-2.15.05-3.2.15-2.13.23-4.12.1-5.71-.19-3.22-.61-4.97-1.67-4.91-1.78.07-.19,1.92.56,5.03.93,1.56.17,3.41.21,5.47-.07,1.04-.12,2.17-.29,3.4-.22,1.22.08,2.55.39,3.65,1.33.54.47.95,1.09,1.16,1.75.22.66.26,1.29.31,1.86.07,1.12.3,2.1.71,3,.82,1.79,2.26,3.01,3.68,3.4,1.44.41,2.74.28,3.61.23.88-.06,1.39-.08,1.4,0Z"/>
  <path class="cls-2" d="M113.88,203.07c.05.13-.61.48-1.62.08-.99-.38-1.94-1.39-2.8-2.49-.86-1.11-1.57-2.09-2.16-2.71-.58-.63-1.04-.9-.99-1.08.03-.15.7-.14,1.54.41.84.53,1.72,1.53,2.57,2.62.85,1.09,1.59,2.03,2.25,2.48.64.47,1.19.49,1.22.68Z"/>
  <path class="cls-2" d="M74.57,123c-.18-.04-.08-.88-.37-2.15-.29-1.26-.98-2.96-2.55-4.11-.77-.59-1.63-1.02-2.43-1.46-.8-.44-1.51-.84-2.1-1.2-1.18-.72-1.87-1.23-1.79-1.38.08-.15.9.1,2.18.61.64.26,1.39.59,2.22.97.82.38,1.77.81,2.67,1.5.9.68,1.61,1.58,2.01,2.47.42.89.6,1.76.65,2.48.09,1.48-.35,2.32-.49,2.27Z"/>
  <path class="cls-2" d="M76.8,104.3c.01.06-.71.26-1.95-.12-1.23-.38-2.79-1.44-4.3-3.09-1.5-1.65-3.09-3.79-4.43-6.43-1.34-2.63-2.39-5.78-2.7-9.2-.31-3.43.11-6.66.55-9.53.45-2.87.91-5.43,1.14-7.59.52-4.32,0-7,.21-7.03.07-.01.29.64.48,1.86.21,1.22.29,3.03.16,5.24-.12,2.21-.5,4.81-.89,7.67-.37,2.86-.74,6-.45,9.26.29,3.25,1.26,6.26,2.49,8.82,1.23,2.56,2.71,4.7,4.07,6.35,1.37,1.66,2.74,2.74,3.82,3.22,1.08.48,1.78.46,1.78.57Z"/>
  <path class="cls-2" d="M46.4,75.4s-.03-.16-.06-.45c-.02-.3-.05-.74-.08-1.31-.06-1.14-.13-2.78-.14-4.82-.01-2.03.04-4.46.33-7.15.29-2.68.84-5.62,1.97-8.55,1.16-2.91,2.72-5.44,4-7.8,1.31-2.35,2.49-4.46,3.49-6.23,1-1.77,1.82-3.2,2.38-4.18.29-.49.51-.87.67-1.13.16-.26.24-.39.26-.38.01,0-.05.15-.18.42-.14.27-.34.66-.6,1.16-.54,1-1.31,2.45-2.27,4.25-.97,1.79-2.13,3.91-3.41,6.27-1.26,2.37-2.81,4.9-3.95,7.77-1.11,2.87-1.67,5.78-1.97,8.44-.31,2.66-.39,5.08-.41,7.11-.02,2.03,0,3.67.01,4.81,0,.57,0,1.01,0,1.31,0,.3-.01.46-.02.46Z"/>
  <path class="cls-2" d="M165.68,80.13s-.66-.68-1.67-1.8c-1.02-1.12-2.45-2.64-4.17-4.19-1.71-1.55-3.37-2.83-4.6-3.7-1.23-.88-2.03-1.38-2-1.43.01-.02.23.07.61.27.38.2.91.51,1.55.92,1.28.82,2.99,2.07,4.71,3.64,1.73,1.56,3.14,3.13,4.11,4.3.97,1.18,1.5,1.96,1.46,1.99Z"/>
  <path class="cls-2" d="M156.86,145.69s0-.19.06-.54c.05-.35.13-.86.27-1.52.28-1.31.76-3.2,1.59-5.46.81-2.26,1.96-4.88,3.25-7.77,1.29-2.89,2.65-6.1,3.63-9.6.99-3.5,1.44-6.98,1.26-10.12-.16-3.15-.92-5.91-1.72-8.16-.81-2.25-1.63-4.01-2.18-5.22-.28-.61-.49-1.08-.64-1.4-.14-.32-.21-.49-.2-.5s.11.15.27.46c.16.31.4.78.71,1.37.6,1.2,1.46,2.94,2.31,5.19.84,2.25,1.64,5.04,1.83,8.24.19,3.19-.25,6.72-1.25,10.25-.99,3.54-2.37,6.76-3.68,9.65-1.31,2.89-2.49,5.48-3.32,7.72-.86,2.23-1.38,4.1-1.71,5.39-.33,1.3-.45,2.03-.49,2.02Z"/>
  <path class="cls-2" d="M159.55,206.81c-.19,0-.3-2.94-.81-7.65-.51-4.71-1.48-11.19-3.43-18.14-.96-3.47-2.13-6.71-3.14-9.69-1.02-2.98-1.85-5.71-2.37-8.05-.54-2.34-.77-4.27-.85-5.61-.08-1.34-.02-2.08.05-2.08.21-.02.36,2.93,1.63,7.48.62,2.28,1.52,4.94,2.6,7.89,1.07,2.95,2.28,6.21,3.25,9.74,1.97,7.04,2.82,13.63,3.11,18.39.15,2.38.16,4.32.14,5.65-.04,1.33-.11,2.07-.19,2.07Z"/>
  <path class="cls-2" d="M66.55,136.84s-.07-.47-.13-1.31c-.05-.85-.11-2.07-.2-3.59-.07-1.51-.16-3.32-.25-5.32-.07-.99-.22-2.02-.81-2.9-.58-.87-1.4-1.67-2.28-2.37-1.78-1.41-3.96-2.12-5.92-1.97-.98.05-1.88.36-2.78.51-.9.17-1.82.02-2.5-.36-1.37-.76-2.14-1.78-2.69-2.42-.27-.33-.47-.59-.6-.77-.13-.18-.2-.28-.18-.29.02-.02.33.33.9.96.58.6,1.39,1.58,2.7,2.26.66.34,1.46.46,2.32.29.85-.15,1.77-.48,2.81-.55,2.05-.17,4.35.56,6.19,2.02.92.73,1.75,1.54,2.37,2.48.63.96.79,2.1.84,3.09.06,2.01.12,3.81.16,5.33.03,1.52.05,2.74.07,3.59,0,.85,0,1.32-.03,1.32Z"/>
  <path class="cls-2" d="M89.96,180.87c-.34,0-.61-.63-.74-1.39-.12-.76-.05-1.44.27-1.55.32-.11.8.49.94,1.36.14.87-.13,1.58-.47,1.58Z"/>
  <path class="cls-2" d="M106.51,181.23s-.13.02-.36.01c-.24,0-.59-.02-1.04-.04-.9-.06-2.21-.14-3.78-.55-1.56-.4-3.4-1.23-4.94-2.76-.77-.76-1.46-1.67-2.03-2.7-.57-1.03-.95-2.19-1.36-3.34-.42-1.13-.88-2.27-1.73-2.95-.86-.69-2.02-.71-3.06-1.01-2.16-.66-3.42-2.37-4.2-3.75-.78-1.43-1.14-2.71-1.32-3.59-.09-.44-.14-.79-.16-1.03-.02-.24-.03-.36-.02-.36.04,0,.1.49.33,1.35.23.86.62,2.11,1.41,3.48.79,1.33,2.06,2.95,4.05,3.53.97.28,2.2.27,3.21,1.05.98.79,1.44,1.99,1.87,3.13.42,1.16.79,2.29,1.33,3.29.54,1,1.2,1.89,1.94,2.62,1.48,1.49,3.23,2.33,4.76,2.75,1.53.43,2.83.56,3.72.67.89.1,1.39.16,1.38.19Z"/>
  <path class="cls-2" d="M130.91,197.25c-.17.09-.68-.82-1.82-1.91-.57-.54-1.32-1.1-2.25-1.52-.92-.42-2.02-.69-3.23-.78-1.21-.11-2.38-.04-3.5-.06-1.12-.02-2.19-.2-3.01-.55-.83-.36-1.38-.87-1.67-1.25-.3-.39-.39-.65-.33-.7.15-.14.82.71,2.29,1.14.74.21,1.65.28,2.72.24,1.06-.03,2.3-.14,3.61-.03,1.31.1,2.58.44,3.62.99,1.04.55,1.83,1.27,2.38,1.94,1.1,1.37,1.32,2.44,1.19,2.5Z"/>
  <path class="cls-1" d="M131.31,207.15"/>
  <path class="cls-2" d="M138.2,213.41c-.27.22-1.63-1.07-3.31-2.6-1.67-1.53-3.1-2.72-2.92-3.02.17-.29,1.98.5,3.74,2.12,1.77,1.61,2.75,3.3,2.49,3.5Z"/>
  <path class="cls-2" d="M99.17,88.51c.11.13-.15.56-.4,1.31-.24.75-.64,1.87-.72,2.99-.06,1.1.3,2.22.47,3.02.18.79.38,1.24.25,1.36-.12.12-.63-.24-1.05-1.04-.21-.4-.42-.86-.61-1.43-.18-.56-.33-1.25-.28-1.98.12-1.47.68-2.55,1.17-3.31.51-.77,1.07-1.05,1.17-.92Z"/>
  <path class="cls-2" d="M105.94,77.07c.08.37-2.23.95-4.84,1.95-2.62.99-4.4,2.46-4.65,2.22-.11-.11.2-.65.92-1.34.72-.68,1.87-1.46,3.28-2.01,1.4-.56,2.73-.81,3.69-.92.96-.1,1.57-.06,1.6.1Z"/>
  <path class="cls-2" d="M105.99,89.6c.03.34-1.87.63-3.56,1.84-.79.58-1.15,1.44-1.32,2.11-.18.66-.17,1.13-.34,1.18-.15.06-.49-.4-.52-1.27-.01-.43.06-.94.27-1.48.22-.55.62-1.09,1.16-1.5,2.19-1.52,4.34-1.18,4.31-.87Z"/>
  <path class="cls-2" d="M114.39,94.56c.2-.11.53.07.91.49.37.42.8,1.15.93,2.08.15.91-.12,1.86-.48,2.33-.35.48-.69.66-.89.57-.21-.1-.22-.49-.18-.98.04-.49.04-1.02-.05-1.69-.19-1.29-.66-2.57-.24-2.8Z"/>
  <path class="cls-2" d="M107.92,92.38c-.1-.13.04-.45.43-.81.38-.36,1.05-.75,1.87-.9.82-.16,1.6,0,2.09.22.25.11.48.28.57.43.1.16.09.28.03.33-.15.1-.37.04-.79.07-.45.01-1.04.02-1.68.14-1.27.22-2.29.79-2.52.51Z"/>
  <path class="cls-2" d="M98.84,82.65c-.15-.05-.2-.45.04-1.02.24-.57.8-1.2,1.5-1.72,1.44-1.09,2.98-1.15,3.03-.82.07.33-1.08.87-2.3,1.8-.63.47-1.16.89-1.51,1.22-.36.33-.59.59-.76.54Z"/>
  <path class="cls-2" d="M97.16,77.79c-.24-.21.65-1.62,2.46-2.56,1.81-.96,3.54-.75,3.53-.42.01.35-1.42.67-2.97,1.5-1.57.8-2.76,1.72-3.01,1.47Z"/>
  <path class="cls-2" d="M123.62,94.66c-.27-.17.27-1.69.3-3.69.07-1.98-.17-3.65.17-3.75.3-.1,1.12,1.55,1.05,3.79-.04,1.11-.33,2.11-.67,2.76-.34.66-.72.96-.86.88Z"/>
  <path class="cls-2" d="M130.88,93.71c.3,0,.32,3.24-1.52,6.71-.9,1.72-2.11,3.07-3.16,3.82-1.04.76-1.84.95-1.9.82-.09-.16.52-.61,1.34-1.46.82-.85,1.81-2.14,2.65-3.74,1.7-3.2,2.23-6.19,2.6-6.13Z"/>
  <path class="cls-2" d="M94.9,98.57c-.09.33-.94.3-1.58-.34-.64-.63-.71-1.39-.41-1.54.3-.16.8.22,1.27.68.45.46.82.89.72,1.21Z"/>
  <path class="cls-2" d="M89.05,98.07c-.16.08-.51-.37-1.15-.93-.63-.57-1.61-1.15-2.86-1.72-1.26-.57-2.44-1.34-3.03-2.15-.6-.79-.71-1.4-.57-1.47.16-.09.53.35,1.19.87.66.54,1.67,1.07,2.93,1.65,1.28.58,2.43,1.42,2.98,2.25.57.82.64,1.44.5,1.5Z"/>
  <path class="cls-2" d="M134.08,114.14c-.29-.19,1.68-3.54,2.96-8.12,1.34-4.55,1.69-8.44,2.05-8.42.31,0,.51,4.03-.88,8.76-.68,2.36-1.63,4.39-2.47,5.76-.84,1.38-1.53,2.11-1.66,2.02Z"/>
  <path class="cls-2" d="M129.34,112.22c-.16-.02-.25-.58-.13-1.46.12-.88.46-2.1,1.23-3.27.78-1.16,1.61-1.95,2.12-2.59.53-.62.84-1.06,1-.99.15.05.12.64-.28,1.46-.38.83-1.16,1.78-1.83,2.79-1.32,2.05-1.76,4.13-2.12,4.07Z"/>
  <path class="cls-2" d="M93.38,59.31c-.16-.07.03-.89.43-2.18.39-1.29.98-3.03,1.39-4.98.42-1.95.55-3.76.53-5.07,0-1.31-.12-2.14.05-2.19.15-.05.57.73.81,2.11.24,1.37.25,3.33-.2,5.4-.44,2.07-1.19,3.83-1.79,5.05-.61,1.22-1.08,1.92-1.23,1.86Z"/>
  <path class="cls-2" d="M56.54,71.55c-.32.03-.82-3.3-.03-7.33.75-4.05,2.57-6.93,2.85-6.76.31.16-.95,3.12-1.65,6.99-.76,3.86-.81,7.09-1.16,7.1Z"/>
  <path class="cls-2" d="M66.97,47.39c-.17-.05.05-1.29.45-3.25.37-1.97.94-4.68,1.16-7.69.24-3.01,0-5.75-.44-7.65-.23-.94-.53-1.66-.82-2.1-.28-.45-.52-.64-.48-.72.03-.07.39,0,.84.42.45.41.92,1.17,1.28,2.16.69,1.98,1.08,4.85.83,7.99-.23,3.13-.95,5.88-1.54,7.82-.61,1.94-1.12,3.09-1.28,3.04Z"/>
  <path class="cls-2" d="M69.25,104.25s-.2.09-.58.18c-.19.06-.43.08-.7.11-.28.04-.59.05-.95.03-1.4,0-3.36-.58-5.09-1.86-1.74-1.27-2.93-2.84-3.64-4.03-.34-.61-.61-1.1-.75-1.46-.16-.36-.23-.56-.2-.57.07-.03.45.74,1.2,1.88.76,1.13,1.96,2.63,3.63,3.86,1.67,1.24,3.52,1.82,4.87,1.9,1.36.1,2.2-.12,2.21-.04Z"/>
  <path class="cls-2" d="M132.97,60.64c-.16.12-.8-.75-2.18-1.6-.7-.41-1.58-.8-2.62-1.07-1.04-.27-2.25-.41-3.55-.63-1.3-.21-2.59-.55-3.66-1.1-1.08-.55-1.89-1.24-2.52-1.84-1.26-1.21-1.87-2.08-1.77-2.2.12-.13.97.53,2.32,1.53.68.49,1.49,1.06,2.46,1.49.96.43,2.11.71,3.38.91,1.26.21,2.53.39,3.66.75,1.13.35,2.1.88,2.8,1.44,1.42,1.16,1.81,2.24,1.69,2.31Z"/>
  <path class="cls-2" d="M147.94,103.34s-.05-.33-.07-.93c-.02-.6-.05-1.46-.11-2.52-.12-2.12-.38-5.05-.96-8.24-.57-3.19-1.36-6.03-2.03-8.04-.33-1.01-.62-1.82-.82-2.38-.2-.56-.31-.87-.28-.89.03-.01.18.28.43.83.25.54.58,1.34.95,2.35.74,2,1.58,4.85,2.16,8.06.58,3.21.8,6.17.84,8.3.02,1.07.01,1.93-.02,2.53-.03.6-.06.93-.08.93Z"/>
  <path class="cls-2" d="M135.96,143.24s.16-.4.54-1.08c.38-.68.96-1.64,1.76-2.79,1.59-2.27,4.1-5.29,7.59-7.75,1.73-1.22,3.32-2.45,4.33-3.96,1.02-1.48,1.45-3.11,1.65-4.46.18-1.36.06-2.48-.12-3.22-.18-.75-.38-1.13-.35-1.15.01,0,.07.09.17.27.1.18.22.46.33.84.23.75.4,1.9.25,3.3-.16,1.39-.57,3.07-1.62,4.63-1.03,1.58-2.68,2.87-4.4,4.08-3.45,2.44-5.96,5.38-7.59,7.59-.82,1.11-1.44,2.05-1.86,2.7-.42.65-.65,1.01-.68,1Z"/>
  <path class="cls-2" d="M149.06,140.25c-.13-.11.28-.82,1.03-1.88.74-1.07,1.91-2.46,3.08-4,1.17-1.54,2-3.05,2.47-4.22.48-1.16.68-1.95.86-1.92.15.01.26.86-.04,2.18-.28,1.32-1.08,3.07-2.31,4.69-1.23,1.63-2.48,2.9-3.4,3.83-.93.92-1.56,1.44-1.69,1.33Z"/>
  <path class="cls-2" d="M171.08,85.83c-.06.03-.44-.87-1.19-2.24-.77-1.35-1.94-3.18-3.67-4.81-.86-.81-1.78-1.47-2.68-1.95-.9-.48-1.78-.83-2.46-1.26-.69-.41-1.17-.87-1.44-1.21-.28-.35-.39-.57-.37-.58.06-.05.58.81,1.96,1.55.67.38,1.55.69,2.49,1.18.94.49,1.89,1.16,2.78,1.99,1.78,1.67,2.94,3.57,3.65,4.97.35.71.6,1.3.75,1.71.15.42.22.65.19.66Z"/>
</svg>